<svg xmlns="http://www.w3.org/2000/svg" viewBox="0 0 30 18" width="30" height="18"><g class="uk-icon-alternate-dark" version="1.1"><g stroke="#000" stroke-width="2" fill="none" fill-rule="evenodd"><path d="M21 2h2.5a.5.5 0 01.5.5v2M14 2h-3M19 2h-3M9 2H6.5a.5.5 0 00-.5.5V5M9 16H6.5a.5.5 0 01-.5-.5V13M6 7v4M24 7v4M21 16h2.5a.5.5 0 00.5-.5V13M14 16h-3M19 16h-3"/></g></g><g class="uk-icon-alternate-default" version="1.1"><g stroke="#000" stroke-width="2" fill="none" fill-rule="evenodd"><path d="M21 2h2.5a.5.5 0 01.5.5v2M14 2h-3M19 2h-3M9 2H6.5a.5.5 0 00-.5.5V5M9 16H6.5a.5.5 0 01-.5-.5V13M6 7v4M24 7v4M21 16h2.5a.5.5 0 00.5-.5V13M14 16h-3M19 16h-3"/></g></g></svg>