<svg xmlns="http://www.w3.org/2000/svg" viewBox="0 0 17 17" width="17" height="17"><g class="uk-icon-alternate-dark" version="1.1"><path d="M6.037 12.446L2.67 16.058a.5.5 0 01-.707.025l-.731-.682a.5.5 0 01-.025-.707l3.32-3.56-2.64-2.297a.5.5 0 01-.05-.705l.657-.755a.5.5 0 01.705-.049l6.793 5.905a.5.5 0 01.049.705l-.656.755a.5.5 0 01-.706.049l-2.64-2.296zM8.193.847a.5.5 0 01.682-.054l.884.707-.576 1.996a.2.2 0 00.317.212L11.01 2.5l4.626 4.164a.5.5 0 01.036.708l-4.334 4.767a.5.5 0 01-.697.041L3.896 6.335a.5.5 0 01-.043-.714L8.193.847z" fill="#000" stroke="none" stroke-width="1" fill-rule="evenodd"/></g><g class="uk-icon-alternate-default" version="1.1"><path d="M6.037 12.446L2.67 16.058a.5.5 0 01-.707.025l-.731-.682a.5.5 0 01-.025-.707l3.32-3.56-2.64-2.297a.5.5 0 01-.05-.705l.657-.755a.5.5 0 01.705-.049l6.793 5.905a.5.5 0 01.049.705l-.656.755a.5.5 0 01-.706.049l-2.64-2.296zM8.193.847a.5.5 0 01.682-.054l.884.707-.576 1.996a.2.2 0 00.317.212L11.01 2.5l4.626 4.164a.5.5 0 01.036.708l-4.334 4.767a.5.5 0 01-.697.041L3.896 6.335a.5.5 0 01-.043-.714L8.193.847z" fill="#000" stroke="none" stroke-width="1" fill-rule="evenodd"/></g></svg>