<svg xmlns="http://www.w3.org/2000/svg" viewBox="0 0 16 16" width="16" height="16"><g class="uk-icon-alternate-dark" version="1.1"><g transform="translate(1 1)" stroke="none" stroke-width="1" fill="none" fill-rule="evenodd"><circle stroke="#000" stroke-width="1.5" cx="7" cy="7" r="7"/><circle fill="#000" cx="4" cy="5" r="1"/><circle fill="#000" cx="9.975" cy="4.975" r="1"/><path d="M3.286 8h7.428a.243.243 0 01.239.287C10.553 10.429 9.236 11.5 7 11.5c-2.236 0-3.553-1.071-3.953-3.213A.243.243 0 013.286 8z" fill="#000"/></g></g><g class="uk-icon-alternate-default" version="1.1"><g transform="translate(1 1)" stroke="none" stroke-width="1" fill="none" fill-rule="evenodd"><circle stroke="#000" stroke-width="1.5" cx="7" cy="7" r="7"/><circle fill="#000" cx="4" cy="5" r="1"/><circle fill="#000" cx="9.975" cy="4.975" r="1"/><path d="M3.286 8h7.428a.243.243 0 01.239.287C10.553 10.429 9.236 11.5 7 11.5c-2.236 0-3.553-1.071-3.953-3.213A.243.243 0 013.286 8z" fill="#000"/></g></g></svg>