<svg xmlns="http://www.w3.org/2000/svg" viewBox="0 0 30 18" width="30" height="18"><g class="uk-icon-alternate-dark" version="1.1"><g transform="translate(3.5 3)" fill="#000" stroke="none" stroke-width="1" fill-rule="evenodd"><path d="M1.422 7H3.51a17.224 17.224 0 00-.528 2.08 1 1 0 11-1.964-.38c.114-.587.248-1.154.404-1.7zm.723-2C3.509 1.963 5.835 0 9.5 0c5 0 8.192 2.849 9.95 8.223a1 1 0 01-1.9.622C16.058 4.286 13.362 2.005 9.5 2c-2.414-.003-4.041 1.129-5.12 3H2.146z" fill-rule="nonzero"/><path d="M14.417 8.43l7.073-2.637a.25.25 0 01.329.296l-1.558 6.017a.25.25 0 01-.373.15l-5.514-3.378a.25.25 0 01.043-.448z"/><rect x=".5" y="7" width="4" height="4" rx=".25"/></g></g><g class="uk-icon-alternate-default" version="1.1"><g transform="translate(3.5 3)" fill="#000" stroke="none" stroke-width="1" fill-rule="evenodd"><path d="M1.422 7H3.51a17.224 17.224 0 00-.528 2.08 1 1 0 11-1.964-.38c.114-.587.248-1.154.404-1.7zm.723-2C3.509 1.963 5.835 0 9.5 0c5 0 8.192 2.849 9.95 8.223a1 1 0 01-1.9.622C16.058 4.286 13.362 2.005 9.5 2c-2.414-.003-4.041 1.129-5.12 3H2.146z" fill-rule="nonzero"/><path d="M14.417 8.43l7.073-2.637a.25.25 0 01.329.296l-1.558 6.017a.25.25 0 01-.373.15l-5.514-3.378a.25.25 0 01.043-.448z"/><rect x=".5" y="7" width="4" height="4" rx=".25"/></g></g></svg>