<svg xmlns="http://www.w3.org/2000/svg" viewBox="0 0 30 18" width="30" height="18"><g class="uk-icon-alternate-dark" version="1.1"><g stroke="none" stroke-width="1" fill="none" fill-rule="evenodd"><path stroke="#000" stroke-width="1.8" stroke-linejoin="round" d="M9 9h3"/><path d="M25 5a1 1 0 011 1v6a1 1 0 01-1 1H12a1 1 0 01-1-1V6a1 1 0 011-1h13zm-1 2H13v4h11V7z" fill="#000" fill-rule="nonzero"/><rect fill="#000" x="3" y="7" width="4" height="4" rx=".5"/></g></g><g class="uk-icon-alternate-default" version="1.1"><g stroke="none" stroke-width="1" fill="none" fill-rule="evenodd"><path stroke="#000" stroke-width="1.8" stroke-linejoin="round" d="M9 9h3"/><path d="M25 5a1 1 0 011 1v6a1 1 0 01-1 1H12a1 1 0 01-1-1V6a1 1 0 011-1h13zm-1 2H13v4h11V7z" fill="#000" fill-rule="nonzero"/><rect fill="#000" x="3" y="7" width="4" height="4" rx=".5"/></g></g></svg>