<svg xmlns="http://www.w3.org/2000/svg" viewBox="0 0 30 18" width="30" height="18"><g class="uk-icon-alternate-dark" version="1.1"><g stroke="none" stroke-width="1" fill="none" fill-rule="evenodd"><path d="M5 17v-2h3v-4.5L9 9 8 7.5V3H5V1h3c1 0 2 1 2 2v4.5L11 9l-1 1.5V15a2 2 0 01-2 2H5z" fill="#000" fill-rule="nonzero"/><path stroke="#000" stroke-width="2" d="M10 9h2"/><path d="M24 5a1 1 0 011 1v6a1 1 0 01-1 1h-9a1 1 0 01-1-1V6a1 1 0 011-1h9zm-1.001 2h-7v4h7V7z" fill="#000" fill-rule="nonzero"/></g></g><g class="uk-icon-alternate-default" version="1.1"><g stroke="none" stroke-width="1" fill="none" fill-rule="evenodd"><path d="M5 17v-2h3v-4.5L9 9 8 7.5V3H5V1h3c1 0 2 1 2 2v4.5L11 9l-1 1.5V15a2 2 0 01-2 2H5z" fill="#000" fill-rule="nonzero"/><path stroke="#000" stroke-width="2" d="M10 9h2"/><path d="M24 5a1 1 0 011 1v6a1 1 0 01-1 1h-9a1 1 0 01-1-1V6a1 1 0 011-1h9zm-1.001 2h-7v4h7V7z" fill="#000" fill-rule="nonzero"/></g></g></svg>