<svg xmlns="http://www.w3.org/2000/svg" viewBox="0 0 30 18" width="30" height="18"><g class="uk-icon-alternate-dark" version="1.1"><g stroke="none" stroke-width="1" fill="#000" fill-rule="evenodd"><path d="M9 3.1v1.8H7a.1.1 0 00-.092.061L6.9 5v6a.1.1 0 00.061.092L7 11.1h4v1.8H7a1.9 1.9 0 01-1.894-1.752L5.1 11V5a1.9 1.9 0 011.752-1.894L7 3.1h2z"/><rect x="11" y="2" width="4" height="4" rx=".5"/><path d="M24 8a1 1 0 011 1v6a1 1 0 01-1 1H11a1 1 0 01-1-1V9a1 1 0 011-1h13zm-1 2H12v4h11v-4z"/></g></g><g class="uk-icon-alternate-default" version="1.1"><g stroke="none" stroke-width="1" fill="#000" fill-rule="evenodd"><path d="M9 3.1v1.8H7a.1.1 0 00-.092.061L6.9 5v6a.1.1 0 00.061.092L7 11.1h4v1.8H7a1.9 1.9 0 01-1.894-1.752L5.1 11V5a1.9 1.9 0 011.752-1.894L7 3.1h2z"/><rect x="11" y="2" width="4" height="4" rx=".5"/><path d="M24 8a1 1 0 011 1v6a1 1 0 01-1 1H11a1 1 0 01-1-1V9a1 1 0 011-1h13zm-1 2H12v4h11v-4z"/></g></g></svg>