<svg xmlns="http://www.w3.org/2000/svg" viewBox="0 0 30 18" width="30" height="18"><g class="uk-icon-alternate-dark" version="1.1"><g stroke="#000" stroke-width="2" fill="none" fill-rule="evenodd"><path d="M7 11v4c0 .5.5 1 1 1h4M11.974 2H8c-.515 0-1 .486-1 1v4M23 7l-.026-4.07a.932.932 0 00-.932-.93H18M18 16h4c.515 0 1-.485 1-1v-4"/></g></g><g class="uk-icon-alternate-default" version="1.1"><g stroke="#000" stroke-width="2" fill="none" fill-rule="evenodd"><path d="M7 11v4c0 .5.5 1 1 1h4M11.974 2H8c-.515 0-1 .486-1 1v4M23 7l-.026-4.07a.932.932 0 00-.932-.93H18M18 16h4c.515 0 1-.485 1-1v-4"/></g></g></svg>