<?xml version="1.0" encoding="UTF-8"?>
<svg width="84px" height="40px" viewBox="0 0 84 40" version="1.1" xmlns="http://www.w3.org/2000/svg" xmlns:xlink="http://www.w3.org/1999/xlink">
    <!-- Generator: Sketch 56 (81588) - https://sketch.com -->
    <title>balanced-map-clockwise</title>
    <desc>Created with Sketch.</desc>
    <g id="balanced-map-clockwise" stroke="none" stroke-width="1" fill="none" fill-rule="evenodd">
        <rect id="Rectangle-Copy-18" x="0" y="0" width="84" height="40" rx="3.24"></rect>
        <polyline id="Path-27-Copy" stroke="#000000" stroke-width="2" transform="translate(63.500000, 19.000000) rotate(-180.000000) translate(-63.500000, -19.000000) " points="62 18 65 16 65 22"></polyline>
        <polyline id="Path-27-Copy-2" stroke="#000000" stroke-width="2" points="19 20 22 18 22 24"></polyline>
        <path d="M34,25 C32.6133333,27.6666667 28.28,29 21,29" id="Path-23" stroke="#000000" stroke-width="2"></path>
        <path d="M62,25 C61.28,27.6666667 57.28,29 50,29" id="Path-23" stroke="#000000" stroke-width="2" transform="translate(56.000000, 27.000000) scale(-1, 1) translate(-56.000000, -27.000000) "></path>
        <path d="M34,10 C32.6133333,13.3333333 28.28,15 21,15" id="Path-23" stroke="#000000" stroke-width="2" transform="translate(27.500000, 12.500000) scale(1, -1) translate(-27.500000, -12.500000) "></path>
        <rect id="Rectangle" fill="#000000" transform="translate(63.000000, 10.500000) scale(-1, -1) translate(-63.000000, -10.500000) " x="61" y="8.5" width="4" height="4" rx="2"></rect>
        <rect id="Rectangle-Copy-33" fill="#000000" transform="translate(20.000000, 10.000000) scale(-1, -1) translate(-20.000000, -10.000000) " x="18" y="8" width="4" height="4" rx="2"></rect>
        <rect id="Rectangle-Copy-32" fill="#000000" transform="translate(63.000000, 29.000000) scale(-1, -1) translate(-63.000000, -29.000000) " x="61" y="27" width="4" height="4" rx="2"></rect>
        <rect id="Rectangle-Copy-34" stroke="#000000" stroke-width="1.5" fill="#000000" transform="translate(20.000000, 29.000000) scale(-1, -1) translate(-20.000000, -29.000000) " x="18.75" y="27.75" width="2.5" height="2.5" rx="1.25"></rect>
        <path d="M62.212766,10.4090909 C61.4720534,13.469697 57.4011314,15 50,15" id="Path-23" stroke="#000000" stroke-width="2" transform="translate(56.106383, 12.704545) scale(-1, -1) translate(-56.106383, -12.704545) "></path>
        <rect id="Rectangle" stroke="#000000" stroke-width="2" x="31" y="15" width="22" height="10" rx="0.9477"></rect>
    </g>
</svg>