<?xml version="1.0" encoding="UTF-8"?>
<svg width="84px" height="40px" viewBox="0 0 84 40" version="1.1" xmlns="http://www.w3.org/2000/svg" xmlns:xlink="http://www.w3.org/1999/xlink">
    <title>Icons/Format Panel Icons/Structure/brace-left</title>
    <g id="Icons/Format-Panel-Icons/Structure/brace-left" stroke="none" stroke-width="1" fill="none" fill-rule="evenodd">
        <g id="Group-2" transform="translate(42.000000, 20.500000) scale(-1, 1) translate(-42.000000, -20.500000) translate(22.000000, 8.000000)" stroke="#000000" stroke-width="2">
            <rect id="Rectangle" x="1.55" y="7.54204315" width="16.7" height="9" rx="1.04247"></rect>
            <g id="Group" transform="translate(22.550000, 1.000000)" stroke-linecap="round">
                <path d="M6.6,0.0358270146 C4.77746033,0.0358270146 3.3,1.51328734 3.3,3.33582701 L3.3,8.83027681 L3.3,8.83027681 L0,11.035827" id="Path-65"></path>
                <path d="M6.6,11.1 C4.77746033,11.1 3.3,12.5774603 3.3,14.4 L3.3,19.9358654 L3.3,19.9358654 L0,22.1" id="Path-65" transform="translate(3.300000, 16.600000) scale(1, -1) translate(-3.300000, -16.600000) "></path>
            </g>
            <line x1="35" y1="12" x2="40" y2="12" id="Path-4" stroke-linecap="round"></line>
            <line x1="35" y1="23" x2="40" y2="23" id="Path-4" stroke-linecap="round"></line>
            <line x1="35" y1="1" x2="40" y2="1" id="Path-4" stroke-linecap="round"></line>
        </g>
    </g>
</svg>