<?xml version="1.0" encoding="UTF-8"?>
<svg width="84px" height="40px" viewBox="0 0 84 40" version="1.1" xmlns="http://www.w3.org/2000/svg" xmlns:xlink="http://www.w3.org/1999/xlink">
    <!-- Generator: Sketch 56 (81588) - https://sketch.com -->
    <title>fishbone-l</title>
    <desc>Created with Sketch.</desc>
    <g id="fishbone-l" stroke="none" stroke-width="1" fill="none" fill-rule="evenodd">
        <rect id="Rectangle-Copy-18" x="0" y="0" width="84" height="40" rx="3.24"></rect>
        <g id="Group-2" transform="translate(16.000000, 11.000000)" stroke="#000000" stroke-width="2">
            <path d="M44.9796418,10.0156236 L20.4930932,10.0156236" id="Path-31"></path>
            <g id="Group">
                <path d="M1.00297734,10.849846 L0.92959739,10.8511974 C0.802054967,10.6943302 0.740264572,10.5090818 0.743195258,10.3248816 C0.741862561,10.2494949 0.753913372,10.1739132 0.779444636,10.1006269 C0.815450067,9.98570527 0.878142597,9.87623236 0.967246553,9.78007758 C3.14782793,7.42661201 5.71738965,5.48020852 8.67593173,3.94086711 C11.6242432,2.40684872 15.200031,1.16959428 18.8894815,0.650736438 C18.9384975,0.64384318 18.9880307,0.640381072 19.0376381,0.640381072 C19.5691174,0.640381072 20,1.0292518 20,1.50894815 L20,10.2040267 L20,18 C20,18.4317267 19.5691174,18.7817104 19.0376381,18.7817104 C18.9880307,18.7817104 18.9384975,18.7785945 18.8894815,18.7723905 C15.200031,18.3054185 11.6242432,17.4511112 8.67593173,16.0704947 C5.7335334,14.6926471 3.17588193,12.9524309 1.00297734,10.849846 Z" id="Combined-Shape"></path>
            </g>
            <path d="M49.3453755,5.43283533 L45.1315413,9.08183869 C44.7140393,9.44337785 44.6686725,10.0749154 45.0302116,10.4924174 C45.065318,10.5329579 45.1036286,10.5706087 45.1447729,10.6050054 L49.3586071,14.1277886 C49.7823269,14.4820201 50.412981,14.4256888 50.7672126,14.001969 C50.9176047,13.8220749 51,13.5950535 51,13.360576 L51,6.1887895 C51,5.63650475 50.5522847,5.1887895 50,5.1887895 C49.7595477,5.1887895 49.5271463,5.27542939 49.3453755,5.43283533 Z" id="Path-53"></path>
            <polyline id="Path-54" points="38 3 32.7391304 3 26.7430932 9.8511974"></polyline>
            <polyline id="Path-54-Copy" transform="translate(38.251981, 13.425599) scale(1, -1) translate(-38.251981, -13.425599) " points="43.7608696 9.8511974 38.5 9.8511974 32.7430932 17"></polyline>
        </g>
    </g>
</svg>