<?xml version="1.0" encoding="UTF-8"?>
<svg width="84px" height="40px" viewBox="0 0 84 40" version="1.1" xmlns="http://www.w3.org/2000/svg" xmlns:xlink="http://www.w3.org/1999/xlink">
    <!-- Generator: Sketch 56 (81588) - https://sketch.com -->
    <title>logic-right</title>
    <desc>Created with Sketch.</desc>
    <g id="logic-right" stroke="none" stroke-width="1" fill="none" fill-rule="evenodd">
        <g id="Group-44-Copy-6">
            <rect id="Rectangle-Copy-18" x="0" y="0" width="84" height="40" rx="3.24"></rect>
            <g id="Group-43" transform="translate(21.000000, 6.000000)">
                <g id="Group-42-Copy-3" transform="translate(37.500000, 13.500000) scale(-1, -1) translate(-37.500000, -13.500000) translate(35.000000, 0.000000)"></g>
                <g id="Group-51" stroke="#000000">
                    <rect id="Rectangle" stroke-width="2" x="1" y="9" width="20" height="10" rx="0.9477"></rect>
                    <g id="Group-50" transform="translate(20.000000, 0.500000)">
                        <path d="M15.7164376,13.5 L1,13.5" id="Path-31" stroke-width="2"></path>
                        <path d="M16,2.5 L9,2.5 C7.8954305,2.5 7,3.3954305 7,4.5 L7,13.5" id="Path-29" stroke-width="2"></path>
                        <path d="M16,13.5 L9,13.5 C7.8954305,13.5 7,14.3954305 7,15.5 L7,24.5" id="Path-29-Copy" stroke-width="2" transform="translate(11.500000, 19.000000) scale(1, -1) translate(-11.500000, -19.000000) "></path>
                        <rect id="Rectangle" stroke-width="1.5" fill="#000000" x="15.962766" y="1.25" width="2.5" height="2.5" rx="1.25"></rect>
                        <rect id="Rectangle-Copy-35" stroke-width="1.5" fill="#000000" x="15.962766" y="12.25" width="2.5" height="2.5" rx="1.25"></rect>
                        <rect id="Rectangle-Copy-32" stroke-width="1.5" fill="#000000" x="15.962766" y="23.25" width="2.5" height="2.5" rx="1.25"></rect>
                    </g>
                </g>
            </g>
        </g>
    </g>
</svg>