<?xml version="1.0" encoding="UTF-8"?>
<svg width="84px" height="40px" viewBox="0 0 84 40" version="1.1" xmlns="http://www.w3.org/2000/svg" xmlns:xlink="http://www.w3.org/1999/xlink">
    <!-- Generator: Sketch 56 (81588) - https://sketch.com -->
    <title>org-up</title>
    <desc>Created with Sketch.</desc>
    <g id="org-up" stroke="none" stroke-width="1" fill="none" fill-rule="evenodd">
        <rect id="Rectangle-Copy-18" transform="translate(42.000000, 20.000000) rotate(-180.000000) translate(-42.000000, -20.000000) " x="0" y="-3.55271368e-15" width="84" height="40" rx="3.24"></rect>
        <g id="Group" transform="translate(42.000000, 19.500000) scale(1, -1) translate(-42.000000, -19.500000) translate(23.000000, 6.000000)" stroke="#000000">
            <rect id="Rectangle" stroke-width="2" x="9" y="1" width="20" height="9" rx="0.9477"></rect>
            <path d="M26.5,16.5 L11.5,16.5" id="Path-31" stroke-width="2" transform="translate(19.000000, 16.500000) rotate(-270.000000) translate(-19.000000, -16.500000) "></path>
            <path d="M31.5,11.5 L25.5,11.5 C24.3954305,11.5 23.5,12.3954305 23.5,13.5 L23.5,28.5" id="Path-29" stroke-width="2" transform="translate(27.500000, 20.000000) rotate(-270.000000) translate(-27.500000, -20.000000) "></path>
            <path d="M14.5,11.5 L8.5,11.5 C7.3954305,11.5 6.5,12.3954305 6.5,13.5 L6.5,28.5" id="Path-29-Copy" stroke-width="2" transform="translate(10.500000, 20.000000) scale(1, -1) rotate(270.000000) translate(-10.500000, -20.000000) "></path>
            <rect id="Rectangle" stroke-width="1.5" fill="#000000" transform="translate(36.000000, 25.000000) rotate(-270.000000) translate(-36.000000, -25.000000) " x="34.75" y="23.75" width="2.5" height="2.5" rx="1.25"></rect>
            <rect id="Rectangle-Copy-32" stroke-width="1.5" fill="#000000" transform="translate(2.000000, 25.000000) rotate(-270.000000) translate(-2.000000, -25.000000) " x="0.75" y="23.75" width="2.5" height="2.5" rx="1.25"></rect>
            <rect id="Rectangle-Copy-35" stroke-width="1.5" fill="#000000" transform="translate(19.000000, 25.000000) rotate(-270.000000) translate(-19.000000, -25.000000) " x="17.75" y="23.75" width="2.5" height="2.5" rx="1.25"></rect>
        </g>
    </g>
</svg>