<?xml version="1.0" encoding="UTF-8"?>
<svg width="84px" height="40px" viewBox="0 0 84 40" version="1.1" xmlns="http://www.w3.org/2000/svg" xmlns:xlink="http://www.w3.org/1999/xlink">
    <!-- Generator: Sketch 56 (81588) - https://sketch.com -->
    <title>tree-left</title>
    <desc>Created with Sketch.</desc>
    <g id="tree-left" stroke="none" stroke-width="1" fill="none" fill-rule="evenodd">
        <rect id="Rectangle" x="0" y="0" width="84" height="40"></rect>
        <g id="Group" transform="translate(30.000000, 5.000000)" stroke="#000000">
            <rect id="Rectangle" stroke-width="2" transform="translate(11.500000, 6.000000) scale(-1, 1) translate(-11.500000, -6.000000) " x="1" y="1" width="21" height="10" rx="0.7"></rect>
            <rect id="Rectangle-Copy-6" stroke-width="1.5" fill="#000000" transform="translate(5.034600, 28.034600) scale(-1, 1) rotate(-1.000000) translate(-5.034600, -28.034600) " x="3.7846002" y="26.7846002" width="2.5" height="2.5" rx="1.25"></rect>
            <rect id="Rectangle-Copy-7" stroke-width="1.5" fill="#000000" transform="translate(5.000000, 18.000000) scale(-1, 1) rotate(-1.000000) translate(-5.000000, -18.000000) " x="3.75" y="16.75" width="2.5" height="2.5" rx="1.25"></rect>
            <polyline id="Path-14-Copy-2" stroke-width="2" transform="translate(9.000000, 15.000000) scale(-1, 1) translate(-9.000000, -15.000000) " points="12 18 6 18 6 12"></polyline>
            <path d="M12,28 L8,28 C6.8954305,28 6,27.1045695 6,26 L6,10.5" id="Path-14-Copy-2" stroke-width="2" transform="translate(9.000000, 19.250000) scale(-1, 1) translate(-9.000000, -19.250000) "></path>
        </g>
    </g>
</svg>