<svg width="24" height="24" viewBox="0 0 24 24" version="1.1" xmlns="http://www.w3.org/2000/svg" xmlns:xlink="http://www.w3.org/1999/xlink"><defs><filter x="-17.5%" y="-12.5%" width="135%" height="135%" filterUnits="objectBoundingBox" id="a"><feOffset dx="0" dy="1" in="SourceAlpha" result="shadowOffsetOuter1"/><feGaussianBlur stdDeviation="1" in="shadowOffsetOuter1" result="shadowBlurOuter1"/><feComposite in="shadowBlurOuter1" in2="SourceAlpha" operator="out" result="shadowBlurOuter1"/><feColorMatrix values="0 0 0 0 0 0 0 0 0 0 0 0 0 0 0 0 0 0 0.2 0" type="matrix" in="shadowBlurOuter1"/></filter><circle id="b" cx="10" cy="10" r="10"/></defs><g stroke="none" stroke-width="1" fill="none" fill-rule="evenodd"><g transform="translate(2 1)"><use fill="#000" fill-opacity="1" filter="url(#a)" xlink:href="#b"/><circle stroke="#057BFF" stroke-width="1.5" stroke-linejoin="square" fill="#FFF" cx="10" cy="10" r="9.25"/></g><path d="M16.524 15.91l-3.766-.87a.25.25 0 01-.121-.42l2.898-2.897a.25.25 0 01.42.12l.87 3.767a.25.25 0 01-.3.3zM7.676 6.976l.869 3.766a.25.25 0 00.42.121l2.898-2.898a.25.25 0 00-.12-.42l-3.767-.87a.25.25 0 00-.3.3z" fill="#057BFF"/><path d="M9.03 7.898L16 15.293" stroke="#057BFF"/></g></svg>