<svg xmlns="http://www.w3.org/2000/svg" viewBox="0 0 576 340" width="576" height="340"><g class="uk-icon-alternate-dark" version="1.1"><g fill-rule="nonzero" stroke="none" stroke-width="1" fill="none" opacity=".1"><path stroke="#FFF" stroke-width="1.72" d="M295.907 290.266l53.953-7.542M229.793 380.591l-2.036-1.834-81.067-72.524-40.66 5.885M450.962 374.805l-91.69-82.838-10.151-9.451M318.709 418.007l-23.98-21.507-33.02-28.798 51.352-7.006-39.045-34.93M173.761 330.943l58.116-8.482"/><path d="M312.328 317.766l-17.267-14.77a1.72 1.72 0 00-1.365-.394l-74.072 10.722a1.72 1.72 0 00-.885 2.997l16.63 14.522a1.72 1.72 0 001.37.407l74.71-10.474a1.72 1.72 0 00.88-3.01z" fill="#E66C3C"/><path d="M313.769 307.599l-16.624-14.829a1.72 1.72 0 00-1.391-.418l-74.051 10.719a1.72 1.72 0 00-.885 2.997l16.629 14.521a1.72 1.72 0 001.37.408l74.046-10.412a1.72 1.72 0 00.906-2.986z" fill="#154482"/><path d="M314.847 297.375l-16.624-14.829a1.72 1.72 0 00-1.39-.418l-74.052 10.719a1.72 1.72 0 00-.885 2.997l16.629 14.521a1.72 1.72 0 001.37.408l74.046-10.412a1.72 1.72 0 00.906-2.986z" fill="#FCC841"/><path d="M589.7 314.468l-77.484-67.759a1 1 0 00-.8-.237L403.98 261.903a1 1 0 00-.526 1.734l75.1 67.572a1 1 0 00.807.247l109.817-15.244a1 1 0 00.521-1.744z" stroke="#FFF" stroke-width="1.72"/><path d="M547.237 256.975l-27.586-28.433a2 2 0 00-1.71-.588l-104.598 14.524a2 2 0 00-1.054 3.475l31.312 27.838a2 2 0 001.603.487l100.871-13.929a2 2 0 001.162-3.374z" fill="#FCC841"/><path d="M563.237 239.975l-27.586-28.433a2 2 0 00-1.71-.588l-104.598 14.524a2 2 0 00-1.054 3.475l31.312 27.838a2 2 0 001.603.487l100.871-13.929a2 2 0 001.162-3.374zM547.058 333.944l-20.475-21.164a2 2 0 00-1.713-.59l-79.407 11.065a2 2 0 00-1.055 3.473l23.24 20.72a2 2 0 001.606.488l76.64-10.62a2 2 0 001.164-3.372z" fill="#D94F34"/><path stroke="#FFF" stroke-width="1.72" d="M449.61 304.466l-65.783 9.448"/><path d="M122.862 322.353l-22.394-21.762a2 2 0 00-1.68-.545l-73.855 10.69a2 2 0 00-1.195 3.324l19.755 21.792a2 2 0 001.76.637l76.492-10.72a2 2 0 001.117-3.416z" fill="#39C7E3"/></g></g><g class="uk-icon-alternate-default" version="1.1"><g fill-rule="nonzero" stroke="none" stroke-width="1" fill="none" opacity=".1"><path stroke="#2B2F33" stroke-width="1.72" d="M295.907 290.266l53.953-7.542M229.793 380.591l-2.036-1.834-81.067-72.524-40.66 5.885M450.962 374.805l-91.69-82.838-10.151-9.451M318.709 418.007l-23.98-21.507-33.02-28.798 51.352-7.006-39.045-34.93M173.761 330.943l58.116-8.482"/><path d="M312.328 317.766l-17.267-14.77a1.72 1.72 0 00-1.365-.394l-74.072 10.722a1.72 1.72 0 00-.885 2.997l16.63 14.522a1.72 1.72 0 001.37.407l74.71-10.474a1.72 1.72 0 00.88-3.01z" fill="#E66C3C"/><path d="M313.769 307.599l-16.624-14.829a1.72 1.72 0 00-1.391-.418l-74.051 10.719a1.72 1.72 0 00-.885 2.997l16.629 14.521a1.72 1.72 0 001.37.408l74.046-10.412a1.72 1.72 0 00.906-2.986z" fill="#154482"/><path d="M314.847 297.375l-16.624-14.829a1.72 1.72 0 00-1.39-.418l-74.052 10.719a1.72 1.72 0 00-.885 2.997l16.629 14.521a1.72 1.72 0 001.37.408l74.046-10.412a1.72 1.72 0 00.906-2.986z" fill="#FCC841"/><path d="M589.7 314.468l-77.484-67.759a1 1 0 00-.8-.237L403.98 261.903a1 1 0 00-.526 1.734l75.1 67.572a1 1 0 00.807.247l109.817-15.244a1 1 0 00.521-1.744z" stroke="#2B2F33" stroke-width="1.72"/><path d="M547.237 256.975l-27.586-28.433a2 2 0 00-1.71-.588l-104.598 14.524a2 2 0 00-1.054 3.475l31.312 27.838a2 2 0 001.603.487l100.871-13.929a2 2 0 001.162-3.374z" fill="#FCC841"/><path d="M563.237 239.975l-27.586-28.433a2 2 0 00-1.71-.588l-104.598 14.524a2 2 0 00-1.054 3.475l31.312 27.838a2 2 0 001.603.487l100.871-13.929a2 2 0 001.162-3.374zM547.058 333.944l-20.475-21.164a2 2 0 00-1.713-.59l-79.407 11.065a2 2 0 00-1.055 3.473l23.24 20.72a2 2 0 001.606.488l76.64-10.62a2 2 0 001.164-3.372z" fill="#D94F34"/><path stroke="#2B2F33" stroke-width="1.72" d="M449.61 304.466l-65.783 9.448"/><path d="M122.862 322.353l-22.394-21.762a2 2 0 00-1.68-.545l-73.855 10.69a2 2 0 00-1.195 3.324l19.755 21.792a2 2 0 001.76.637l76.492-10.72a2 2 0 001.117-3.416z" fill="#39C7E3"/></g></g></svg>