<?xml version="1.0" encoding="UTF-8"?>
<svg width="576px" height="340px" viewBox="0 0 576 340" version="1.1" xmlns="http://www.w3.org/2000/svg" xmlns:xlink="http://www.w3.org/1999/xlink">
    <title>about-dialog-illustration-business</title>
    <g id="about-dialog-illustration-business" stroke="none" stroke-width="1" fill="none" fill-rule="evenodd" opacity="0.1">
        <g id="Group-2" transform="translate(16.000000, 192.000000)" fill-rule="nonzero">
            <g id="about-bg" transform="translate(290.283509, 133.402749) rotate(2.000000) translate(-290.283509, -133.402749) translate(4.783509, 10.402749)">
                <line x1="273.9039" y1="88.2470316" x2="327.560023" y2="78.8260217" id="Path-212" stroke="#2B2F33" stroke-width="1.7199"></line>
                <polyline id="Path-120" stroke="#2B2F33" stroke-width="1.7199" points="210.981862 180.824315 208.883463 179.062471 125.334715 109.411387 84.9045968 116.712462"></polyline>
                <polyline id="Path-120" stroke="#2B2F33" stroke-width="1.7199" points="431.814502 167.322982 337.289647 87.7353213 326.814451 78.6440219"></polyline>
                <polyline id="Path-120" stroke="#2B2F33" stroke-width="1.7199" points="301.149781 215.114059 276.433361 194.45702 242.428041 166.829155 293.505345 158.035652 253.2651 124.488412"></polyline>
                <line x1="153.2524" y1="133.161645" x2="211.035619" y2="122.657409" id="Path-212" stroke="#2B2F33" stroke-width="1.7199"></line>
                <path d="M291.274657,115.157168 L273.502072,100.999264 C273.114454,100.690482 272.61248,100.563906 272.124794,100.651975 L198.471313,113.952694 C197.536558,114.121497 196.915631,115.016107 197.084434,115.950862 C197.157457,116.355234 197.372844,116.720099 197.691604,116.979408 L214.817749,130.911398 C215.204872,131.22632 215.709692,131.35757 216.201179,131.271081 L290.5011,118.196276 C291.4366,118.031653 292.061519,117.139827 291.896896,116.204326 C291.824171,115.791054 291.602868,115.418626 291.274657,115.157168 Z" id="Path-120" fill="#E66C3C"></path>
                <path d="M292.35932,104.945476 L275.228398,90.7062979 C274.837676,90.3815308 274.323354,90.2461362 273.823369,90.3364261 L200.191213,103.633294 C199.256458,103.802097 198.635531,104.696707 198.804334,105.631462 C198.877357,106.035834 199.092744,106.400699 199.411504,106.660008 L216.537317,120.591729 C216.924632,120.906806 217.42975,121.038023 217.921444,120.951289 L291.558708,107.961879 C292.494141,107.796871 293.118694,106.904788 292.953686,105.969355 C292.882973,105.568479 292.672365,105.205678 292.35932,104.945476 Z" id="Path-120" fill="#154482"></path>
                <path d="M293.079975,94.6901495 L275.949052,80.4509712 C275.55833,80.1262041 275.044008,79.9908095 274.544023,80.0810994 L200.911867,93.3779671 C199.977112,93.5467699 199.356185,94.4413804 199.524988,95.3761356 C199.598011,95.7805074 199.813398,96.1453724 200.132158,96.4046812 L217.257972,110.336402 C217.645286,110.651479 218.150404,110.782696 218.642098,110.695962 L292.279362,97.7065521 C293.214795,97.5415444 293.839348,96.6494613 293.67434,95.7140287 C293.603627,95.3131526 293.393019,94.9503515 293.079975,94.6901495 Z" id="Path-120" fill="#FCC841"></path>
                <path d="M568.36144,102.181179 L488.560319,37.1672354 C488.334257,36.9830625 488.039068,36.9067329 487.752064,36.9582378 L380.921238,56.1297994 C380.377638,56.2273525 380.016044,56.7471104 380.113597,57.2907112 C380.154963,57.5212124 380.275913,57.7298854 380.455362,57.8803511 L457.868746,122.790492 C458.094702,122.979953 458.392758,123.06003 458.68324,123.009317 L567.901803,103.941558 C568.445859,103.846575 568.809904,103.328531 568.714921,102.784475 C568.67353,102.547393 568.548026,102.33319 568.36144,102.181179 Z" id="Path-120" stroke="#2B2F33" stroke-width="1.7199"></path>
                <path d="M523.918871,46.2050255 L495.357473,18.7519898 C494.897936,18.310285 494.255378,18.1140727 493.62748,18.2237164 L389.599867,36.3890366 C388.511762,36.5790417 387.783709,37.6151543 387.973714,38.703259 C388.05554,39.1718526 388.301704,39.5959393 388.668022,39.8993971 L420.932776,66.6275267 C421.383344,67.0007766 421.974758,67.1580105 422.551199,67.0578017 L522.875455,49.6173876 C523.963703,49.4282061 524.692541,48.3926446 524.503359,47.3043964 C524.430466,46.8850842 524.225711,46.4999583 523.918871,46.2050255 Z" id="Path-120" fill="#FCC841"></path>
                <path d="M539.315833,28.6569895 L510.754435,1.20395381 C510.294897,0.762249 509.65234,0.566036686 509.024441,0.67568041 L404.996829,18.8410006 C403.908724,19.0310056 403.180671,20.0671183 403.370676,21.155223 C403.452501,21.6238166 403.698666,22.0479033 404.064984,22.3513611 L436.329738,49.0794907 C436.780305,49.4527406 437.37172,49.6099745 437.948161,49.5097657 L538.272417,32.0693516 C539.360665,31.88017 540.089503,30.8446086 539.900321,29.7563604 C539.827428,29.3370482 539.622673,28.9519223 539.315833,28.6569895 Z" id="Path-120" fill="#D94F34"></path>
                <path d="M526.425749,123.133055 L505.224797,102.696317 C504.764918,102.253015 504.120958,102.056041 503.49178,102.166224 L424.520096,115.995872 C423.432084,116.186406 422.704534,117.222873 422.895069,118.310885 C422.976898,118.778154 423.222154,119.201125 423.587041,119.504265 L447.535609,139.400232 C447.986668,139.774962 448.579459,139.932856 449.157155,139.83214 L525.381224,126.543264 C526.46938,126.353555 527.197716,125.317641 527.008007,124.229484 C526.935136,123.811499 526.731223,123.427518 526.425749,123.133055 Z" id="Path-120" fill="#D94F34"></path>
                <line x1="428.007693" y1="97.0736" x2="362.59521" y2="108.811772" id="Path-120" stroke="#2B2F33" stroke-width="1.7199"></line>
                <path d="M102.083447,126.353674 L78.944437,105.386648 C78.4844323,104.969822 77.8569549,104.790226 77.2460718,104.900542 L3.80947812,118.162095 C2.7224903,118.358388 2.0004401,119.398694 2.19673387,120.485681 C2.26746734,120.877372 2.45346388,121.239049 2.73092171,121.524429 L23.2347122,142.613676 C23.6963318,143.088476 24.3630419,143.303999 25.0152394,143.189254 L101.087053,129.805481 C102.174914,129.614087 102.901645,128.577046 102.710251,127.489185 C102.633257,127.051561 102.41272,126.652039 102.083447,126.353674 Z" id="Path-120-Copy" fill="#39C7E3"></path>
            </g>
        </g>
    </g>
</svg>