<svg xmlns="http://www.w3.org/2000/svg" viewBox="0 0 640 230" width="640" height="230"><g class="uk-icon-alternate-dark" version="1.1"><g stroke="none" stroke-width="1" fill="none" fill-rule="evenodd"><path fill="#0D0D0D" fill-rule="nonzero" d="M640 0v230H0V0z"/><g transform="translate(-81 26)"><path d="M828.161 148.606l-222.369-37.557h.087l-38.582 6.789-38.583 6.905-77.136 13.766.26-.13-40.028 41.774-.332.347-.478-.101-105.378-23.256-52.696-11.556-52.74-11.397h.954l-50.079 11.238-50.05 11.166-25.032 5.561-25.061 5.431-25.076 5.36-12.538 2.672c-2.097.404-4.165.953-6.276 1.256a11.204 11.204 0 01-6.84-1.285L0 174.708a11.15 11.15 0 015.698-4.016c2.053-.592 4.165-.953 6.247-1.445l12.523-2.73 25.061-5.445 25.062-5.36 25.104-5.243 50.21-10.415 50.237-10.313.506-.102.463.116 52.509 12.408 52.624 12.206 105.132 24.354-.795.231 40.636-41.24.116-.115h.144l77.194-13.492 38.597-6.746 38.582-6.861h.087L829 143.723l-.839 4.883z" fill="#8870F9" fill-rule="nonzero"/><path d="M239.07 146.928l4.729-14.23a.337.337 0 01.302-.198c.129 0 .246.076.303.197l6.544 10.773a.37.37 0 01.029.319.344.344 0 01-.226.213l-11.258 3.458a.327.327 0 01-.415-.088.369.369 0 01-.008-.444z" fill="#8870F9" fill-rule="nonzero"/><path d="M141.035 140.991l43.762-35.48a.087.087 0 01.087 0l23.1 11.045a.088.088 0 010 .102l-12.166 31.881-27.74 8.961-27.029-16.377a.074.074 0 01-.049-.061.074.074 0 01.035-.07z" fill="#F06997" fill-rule="nonzero"/><path d="M161.281 141.5a13.447 13.447 0 01-1.943-4.022 1.821 1.821 0 01.116-1.226 1.22 1.22 0 011.16-.519 7.28 7.28 0 012.204.692c1.349.635 2.64 1.442 3.959 2.004.643.328 1.312.603 2 .822a3.455 3.455 0 001.958.159l.189-.101h.116a.602.602 0 000-.217 4.098 4.098 0 00-.42-.893c-.39-.608-.811-1.195-1.262-1.76a56.579 56.579 0 00-2.9-3.315c-1.987-2.191-4.031-4.325-6.047-6.473a79.85 79.85 0 01-5.8-6.747 6.625 6.625 0 01-.638-1.038 2.34 2.34 0 01-.232-.721 1.019 1.019 0 01.116-.663.838.838 0 01.305-.332 2.24 2.24 0 01.348-.144 2.07 2.07 0 01.826 0c.214.048.423.115.624.202.37.143.734.307 1.087.49a40.77 40.77 0 013.8 2.465c4.813 3.489 9.41 7.209 14.31 10.41a44.506 44.506 0 007.613 4.166c1.249.548 2.594.847 3.959.879a2.681 2.681 0 001.45-.288.488.488 0 000-.36 3.675 3.675 0 00-.247-.823 17.408 17.408 0 00-2.32-3.46c-.899-1.124-1.885-2.205-2.9-3.258-2-2.119-4.118-4.166-6.264-6.17-4.35-4.008-8.7-7.872-13.282-11.663l-6.815-5.637-3.451-2.783c-1.102-.98-2.494-1.586-2.9-3.43l.189-.246c1.914 0 2.813 1.225 4.016 2.105l3.437 2.811 6.815 5.68c4.51 3.835 8.975 7.728 13.296 11.793 2.16 2.033 4.35 4.109 6.322 6.272 1.03 1.095 2.03 2.205 2.973 3.387a18.068 18.068 0 012.537 3.893c.19.417.323.859.392 1.312a2.24 2.24 0 01-.464 1.716 2.31 2.31 0 01-1.45.778 4.986 4.986 0 01-1.29.144 12.341 12.341 0 01-4.655-1.023 46.024 46.024 0 01-7.874-4.426c-4.93-3.345-9.497-7.209-14.224-10.64a40.237 40.237 0 00-3.596-2.422c-.3-.165-.61-.31-.928-.432a1.456 1.456 0 00-.435-.145 1.794 1.794 0 00-.261 0s.145 0 .217-.158c.073-.159 0-.159 0-.13.023.109.057.215.102.317.155.294.33.578.522.85a81.351 81.351 0 005.64 6.705c1.972 2.191 3.959 4.325 5.902 6.617a182.063 182.063 0 012.9 3.446c.465.597.89 1.223 1.276 1.874.213.344.375.718.478 1.11.079.289.031.598-.13.85a.885.885 0 01-.348.231l-.32.144c-.8.17-1.632.1-2.392-.202a15.794 15.794 0 01-2.073-.908c-1.334-.677-2.61-1.442-3.915-2.09a6.448 6.448 0 00-1.987-.707.8.8 0 00-.768.274 1.534 1.534 0 00-.087.937c.382 1.396.989 2.72 1.798 3.922l-.334.115z" fill="#FFE918" fill-rule="nonzero"/><path d="M529.809 118.707l2.18 8.366a.332.332 0 01-.1.33.382.382 0 01-.353.084l-8.241-1.877a.36.36 0 01-.279-.237.331.331 0 01.088-.343l6.06-6.393a.392.392 0 01.343-.135.38.38 0 01.302.205z" fill="#8870F9" fill-rule="nonzero"/><ellipse fill="#F34436" fill-rule="nonzero" transform="rotate(-25.65 559.812 204.633)" cx="559.812" cy="204.633" rx="35.693" ry="37.46"/><path d="M577.931 162.896l-16.146 24.72-.216-.232 25.228-13.364 1.226-.64-1.038.902-32.178 28.472-.158-.276c8.145-3.97 16.449-7.547 24.782-11.066 4.18-1.702 8.347-3.461 12.556-5.09l6.3-2.486a11.13 11.13 0 016.891-.917l.822.175-.548.363-45.613 29.912-.101-.29 43.335-5.817v.32l-43.335 5.816-.721.102.605-.407 45.47-30.144.26.538a11.17 11.17 0 01-5.767 3.94l-6.344 2.37c-4.224 1.6-8.49 3.083-12.73 4.625-8.534 2.908-17.097 5.816-25.805 8.361l-.706.204.533-.48 32.178-28.472.187.276-25.243 13.363-.476.262.26-.494 14.2-25.942 2.292 1.396z" fill="#003BA2" fill-rule="nonzero"/><g transform="translate(64)" fill-rule="nonzero"><ellipse fill="#0F66DE" cx="35.5" cy="48.5" rx="35.5" ry="33.5"/><path d="M12.044 15.607l14.306 23.64-.273.087-1.008-26.74v-1.29l.36 1.248 10.838 38.73h-.303c0-4.303.13-8.491.23-12.737.101-4.247.346-8.464.576-12.696.23-4.231.475-8.463.82-12.68l.49-6.34A10.549 10.549 0 0140.11.63L40.583 0l.087.617 6.592 50.651h-.303l12.752-39.046.288.1L47.19 51.34l-.2.631-.087-.66L40.052.69h.561c1 1.995 1.343 4.254.979 6.455l-.59 6.326c-.374 4.217-.864 8.42-1.31 12.638-.446 4.217-.993 8.42-1.569 12.623-.576 4.203-1.166 8.392-1.9 12.58l-.13.689-.172-.66L25.07 12.61h.302l.979 26.724v.502l-.302-.416L10 16.94l2.044-1.334z" fill="#FFF"/><path fill="#0F66DE" d="M64 44.821l46.655-13.595.74-.226.582.296L154 51.647l-.16.353-43.373-17.488 1.321.07-45.871 15.895z"/></g><path fill="#696A6D" fill-rule="nonzero" d="M399.022 137.5l13.978-11h-26z"/><path fill="#0C1733" fill-rule="nonzero" d="M417 85.93l-.533-1.231-5.823-17.199L396 90.5"/><path fill="#1062C4" fill-rule="nonzero" d="M399.167 79.684l31.106-3.726L505 67.5l-8.44 40.768-71.246 18.858L386 129.5z"/><path fill="#0F66DE" fill-rule="nonzero" style="mix-blend-mode:multiply" d="M397.548 79.883L417 77.5l-7.752 12.85-1.96 38.302L382 132.5z"/><path d="M283.429 105.13L277 216.5l92.683-5.109-2.003-75.708 31.452 1.259-1.283-48.572L410 67.5 301 85.519c-9.717 1.582-17.028 9.742-17.571 19.61z" fill="#D7E5FF" fill-rule="nonzero"/><path stroke="#240200" stroke-width="1.428" d="M368.69 155.5l1.31 55.625-59 2.375"/><path d="M303 88.506s4.265 6.66 16.772 4.598c12.506-2.063 8.675-7.492 8.675-7.492l-7.1-4.383-3.643-5.729-7.822 1.547L303 88.506z" fill="#4261E8" fill-rule="nonzero"/><path d="M316.967 75.5L319 78.696a18.67 18.67 0 01-7.881 1.583h-.089l-8.279 9.221-.751-.733 7.66-12.827 7.307-.44z" fill="#4261E8" fill-rule="nonzero" style="mix-blend-mode:multiply"/><path d="M302.976 47.5h14.765a.982.982 0 01.974.857l2.237 20.267a7.818 7.818 0 01-1.732 5.821 8.09 8.09 0 01-5.417 2.905l-.96.1a8.72 8.72 0 01-6.49-1.949 8.42 8.42 0 01-3.042-5.963l-1.308-21.024a.933.933 0 01.259-.718.968.968 0 01.714-.296z" fill="#4261E8" fill-rule="nonzero"/><path d="M319.39 47.005l-4.494-6.44h-3.854l-9.728-4.372-3.229-18.578-18.904-5.115-7.46 4.707-2.72 6.367a13.613 13.613 0 003.927 15.606l18.86 15.577h3.709l1.454 7.708 6.777 1.035 1.57-8.743L320 52.295l-.61-5.29z" fill="#1B1C3E" fill-rule="nonzero"/><path fill="#0C1733" fill-rule="nonzero" d="M344 121.09l-.533-1.205-5.376-15.385-15.091 21M344 138.96l-.533 1.2-13.16 19.34-7.307-25"/><path fill="#E7EBF6" fill-rule="nonzero" style="mix-blend-mode:multiply" d="M297 150.936l38.854 18.564 3.98-7.647L369 166.026v-26.124l-13.392-8.402L297 150.936z"/><path fill="#0F66DE" fill-rule="nonzero" d="M326.203 115.081l46.076 4.407 44.577-9.988L428 147.757 375.624 160.5 318 151.236z"/><path fill="#0F66DE" fill-rule="nonzero" style="mix-blend-mode:multiply" d="M340 116.75v37.75l-12.706-1.768L327 115.5"/><path fill="#D7E5FF" fill-rule="nonzero" d="M297 151.227l33.56 8.273.043-45.263L337 104.5l-36.578 2.014"/><path fill="#E2F244" fill-rule="nonzero" d="M419 62.191L478.347 51.5 519 126.973 441.58 150.5z"/><path fill="#E2F244" fill-rule="nonzero" style="mix-blend-mode:multiply" d="M452.532 106.5L507 130.516 441.07 150.5 431 111.237z"/><path d="M417.711 108.81l29.375-4.792a5.841 5.841 0 016.698 4.816l.675 4.127a5.827 5.827 0 01-4.81 6.697l-.004-.002-29.374 4.791a5.841 5.841 0 01-6.698-4.816l-.675-4.127a5.827 5.827 0 014.81-6.697c.001 0 .002 0 .003.002z" fill="#0F66DE" fill-rule="nonzero"/><path d="M484.033 72.821l21.535-5.528a4.366 4.366 0 015.306 3.135l.779 3.025a4.35 4.35 0 01-3.128 5.303c-.002 0-.003.001-.005-.002l-21.535 5.528a4.366 4.366 0 01-5.305-3.135l-.78-3.024a4.35 4.35 0 013.13-5.304l.003.002z" fill="#1062C4" fill-rule="nonzero"/><path d="M488.78 81.262l21.535-5.528a4.366 4.366 0 015.305 3.135l.78 3.024a4.35 4.35 0 01-3.13 5.304l-.003-.002-21.535 5.528a4.366 4.366 0 01-5.306-3.136l-.779-3.024a4.35 4.35 0 013.129-5.304s.002 0 .004.003z" fill="#1062C4" fill-rule="nonzero"/><path fill="#E2F244" fill-rule="nonzero" style="mix-blend-mode:multiply" d="M492 101.575l16 4.925-5.776-11z"/><path d="M491.251 90.907l21.535-5.528a4.366 4.366 0 015.306 3.135l.779 3.025a4.35 4.35 0 01-3.129 5.303c-.001 0-.002.001-.004-.002l-21.535 5.528a4.366 4.366 0 01-5.306-3.135l-.779-3.024a4.35 4.35 0 013.129-5.304l.004.002z" fill="#1062C4" fill-rule="nonzero"/><path d="M416.863 122.17l32.034-5.226a6.07 6.07 0 016.96 5.005l.602 3.677a6.055 6.055 0 01-4.999 6.959s-.002 0-.003-.003l-32.034 5.226a6.07 6.07 0 01-6.96-5.005l-.602-3.677a6.055 6.055 0 014.998-6.959c.001 0 .003 0 .004.003z" fill="#0F66DE" fill-rule="nonzero"/><path d="M418.608 132.931l32.034-5.225a6.07 6.07 0 016.96 5.004l.602 3.678a6.055 6.055 0 01-4.999 6.958s-.002 0-.003-.002l-32.034 5.225a6.07 6.07 0 01-6.96-5.004l-.602-3.678a6.055 6.055 0 014.998-6.958l.004.002z" fill="#0F66DE" fill-rule="nonzero"/><path stroke="#240200" stroke-width="1.428" d="M418 123.5l32-5M418 136.5l32-5M490 82.5l18-5M314 155.5l-25-7M494 92.5l18-5"/><path d="M427 73.054c11.531-3.439 23.062-6.806 34.593-9.988 2.883-.785 5.766-1.555 8.735-2.269a82.36 82.36 0 014.454-1.013l1.21-.185.606-.086h.26c.124-.017.25-.017.375 0l.288.086a.478.478 0 01.187.085c.157.08.294.192.404.328.194.229.306.515.317.814a1.5 1.5 0 01-.159.685 2.273 2.273 0 01-.46.57 1.44 1.44 0 01-.318.243c-.17.134-.348.258-.533.37l-1.024.614c-5.362 2.854-10.781 5.351-16.187 7.963-5.405 2.61-10.81 5.136-16.1 7.89-1.326.685-2.638 1.427-3.92 2.127-.635.37-1.269.742-1.874 1.141-.303.2-.591.414-.85.614-.194.149-.373.316-.534.499a.48.48 0 000-.385l-.115-.1a.96.96 0 00.346 0h1.066c.735 0 1.442-.114 2.22-.2 1.441-.143 2.97-.314 4.454-.5 11.877-1.512 23.725-3.452 35.559-5.436v.328c-11.79 2.27-23.567 4.495-35.458 6.307-1.442.214-2.97.428-4.469.6-.75.114-1.441.17-2.248.256-.375 0-.75.086-1.182.086a2.561 2.561 0 01-.764-.086 1.111 1.111 0 01-.605-.385.962.962 0 01-.13-.899c.22-.454.546-.85.951-1.156.317-.256.634-.499.952-.713a31.47 31.47 0 011.917-1.256 120.332 120.332 0 013.92-2.254c5.276-2.854 10.623-5.58 15.97-8.29 5.348-2.712 10.754-5.366 15.856-8.277l.894-.556c.134-.084.264-.174.389-.271l.115-.1-.086.143c-.094.17-.138.362-.13.556.027.253.121.495.274.7.093.118.211.215.346.285H476.858l-.505.085c-.331 0-.648.1-1.009.186-1.441.314-2.882.67-4.324 1.07-2.883.77-5.765 1.612-8.648 2.468-11.46 3.425-22.875 7.135-34.262 10.774L427 73.054zM465 114.673l36.01-10.173.99 3.769-36.257 9.231zM475 122.466l29.26-8.966.74 2.702-29.459 8.298z" fill="#FF9A8B" fill-rule="nonzero"/><path stroke="#A34436" stroke-width="1.428" d="M488 136.5l30-9.26-7.283-13.74"/><path fill="#87C98A" fill-rule="nonzero" d="M599 110.412L669.796 90 737 131.182 663.178 145z"/><path d="M632.96 128.55a918.04 918.04 0 0134.346-16.404c5.763-2.591 11.526-5.168 17.591-7.33a41.168 41.168 0 014.625-1.431c.408-.096.822-.168 1.24-.215a2.754 2.754 0 011.44.158c.2.098.362.259.46.458.09.192.124.405.102.615 0 .144-.072.301-.116.444l-.187.33a5.73 5.73 0 01-.792 1.03 65.907 65.907 0 01-7.334 6.184c-10.085 7.659-20.832 14.53-31.393 21.472-2.65 1.747-5.287 3.493-7.866 5.283-1.297.901-2.58 1.818-3.775 2.777-.288.243-.59.486-.85.73-.231.195-.44.416-.62.658a.27.27 0 000-.143v-.172a.784.784 0 00-.086-.257.646.646 0 00-.288-.3h-.115.158a6.39 6.39 0 001.009-.187 89.929 89.929 0 008.831-3.078c2.882-1.16 5.878-2.39 8.875-3.507a332.288 332.288 0 0136.595-11.123l9.206-2.347c1.527-.401 3.04-.816 4.51-1.274a18.14 18.14 0 002.06-.773c.225-.102.441-.222.648-.358v.071a.386.386 0 00-.087.172.754.754 0 000 .33.827.827 0 00.23.63 3.265 3.265 0 00-.633-.301 14.46 14.46 0 00-1.023-.315 29.75 29.75 0 00-2.219-.516c-1.44-.314-3.054-.53-4.682-.873-3.184-.658-6.267-1.517-9.336-2.419-12.232-3.665-24.146-8.074-36.148-12.153-5.979-1.99-12-4.109-17.994-5.469-.735-.171-1.441-.3-2.19-.4a7.25 7.25 0 00-1.772-.086c-.072 0 0 0 0 0h.072c.1 0 .086 0 .245-.186.139-.127.247-.284.317-.458a.996.996 0 000-.659l.072.115c.345.515.74.994 1.181 1.431a64.094 64.094 0 007.117 5.726l-2.593 3.421a76.397 76.397 0 01-7.492-6.413 11.146 11.146 0 01-1.772-2.29 4.822 4.822 0 01-.418-.974c-.17-.599-.14-1.237.087-1.818.133-.36.35-.683.634-.944.215-.21.463-.385.734-.516.2-.094.407-.17.62-.229l.533-.114a10.86 10.86 0 012.968.114c.85.143 1.671.315 2.478.501 6.368 1.59 12.318 3.736 18.326 5.84 11.987 4.295 23.844 8.776 35.874 12.54 3.011.931 6.022 1.804 9.048 2.463 1.44.343 3.068.587 4.668.93.792.172 1.599.358 2.406.587.417.115.835.258 1.253.415a5.08 5.08 0 011.44.802c.504.384.806.973.822 1.603a2.49 2.49 0 01-.1.601c-.058.155-.13.304-.217.444a2.352 2.352 0 01-.447.516c-.432.355-.918.64-1.44.844-.783.34-1.587.632-2.406.873-1.57.487-3.112.874-4.668 1.274l-9.264 2.305a331.965 331.965 0 00-36.393 10.622c-5.95 2.118-11.698 4.738-18.038 6.441a8.536 8.536 0 01-1.325.215 1.956 1.956 0 01-1.153-.2 1.172 1.172 0 01-.605-1.217c.023-.142.062-.281.115-.415 0-.1.087-.158.13-.244a5.28 5.28 0 01.994-1.073c.303-.284.62-.551.951-.802 1.282-1.016 2.593-1.918 3.919-2.863 2.636-1.79 5.302-3.507 7.967-5.225 10.661-6.857 21.395-13.57 31.566-21.071a62.612 62.612 0 007.204-5.94c.251-.252.474-.53.663-.831l.115-.2a.157.157 0 010-.115s.086.129 0 .1a2.03 2.03 0 00-.836 0c-.372.039-.742.096-1.109.172-1.52.36-3.021.8-4.495 1.317-5.95 2.075-11.785 4.58-17.606 7.157-11.526 5.082-23.051 10.464-34.505 15.961l-.058-.443z" fill="#FFF" fill-rule="nonzero"/><circle fill="#0F66DE" fill-rule="nonzero" cx="574.5" cy="24.5" r="24.5"/><path fill="#FFF" fill-rule="nonzero" d="M564 25.687l35.113-11.457L606 12l-5.82 4.486-21.97 16.906-.824-2.281 25.146-2.079.194 2.535-25.146 2.078-4.244.355 3.443-2.636 21.946-16.93 1.067 2.23-35.428 10.315z"/></g></g></g><g class="uk-icon-alternate-default" version="1.1"><g stroke="none" stroke-width="1" fill="none" fill-rule="evenodd"><path fill="#FAFAFB" fill-rule="nonzero" d="M640 0v230H0V0z"/><g transform="translate(-81 26)"><path d="M828.161 148.606l-222.369-37.557h.087l-38.582 6.789-38.583 6.905-77.136 13.766.26-.13-40.028 41.774-.332.347-.478-.101-105.378-23.256-52.696-11.556-52.74-11.397h.954l-50.079 11.238-50.05 11.166-25.032 5.561-25.061 5.431-25.076 5.36-12.538 2.672c-2.097.404-4.165.953-6.276 1.256a11.204 11.204 0 01-6.84-1.285L0 174.708a11.15 11.15 0 015.698-4.016c2.053-.592 4.165-.953 6.247-1.445l12.523-2.73 25.061-5.445 25.062-5.36 25.104-5.243 50.21-10.415 50.237-10.313.506-.102.463.116 52.509 12.408 52.624 12.206 105.132 24.354-.795.231 40.636-41.24.116-.115h.144l77.194-13.492 38.597-6.746 38.582-6.861h.087L829 143.723l-.839 4.883z" fill="#8870F9" fill-rule="nonzero"/><path d="M239.07 146.928l4.729-14.23a.337.337 0 01.302-.198c.129 0 .246.076.303.197l6.544 10.773a.37.37 0 01.029.319.344.344 0 01-.226.213l-11.258 3.458a.327.327 0 01-.415-.088.369.369 0 01-.008-.444z" fill="#8870F9" fill-rule="nonzero"/><path d="M141.035 140.991l43.762-35.48a.087.087 0 01.087 0l23.1 11.045a.088.088 0 010 .102l-12.166 31.881-27.74 8.961-27.029-16.377a.074.074 0 01-.049-.061.074.074 0 01.035-.07z" fill="#F06997" fill-rule="nonzero"/><path d="M161.281 141.5a13.447 13.447 0 01-1.943-4.022 1.821 1.821 0 01.116-1.226 1.22 1.22 0 011.16-.519 7.28 7.28 0 012.204.692c1.349.635 2.64 1.442 3.959 2.004.643.328 1.312.603 2 .822a3.455 3.455 0 001.958.159l.189-.101h.116a.602.602 0 000-.217 4.098 4.098 0 00-.42-.893c-.39-.608-.811-1.195-1.262-1.76a56.579 56.579 0 00-2.9-3.315c-1.987-2.191-4.031-4.325-6.047-6.473a79.85 79.85 0 01-5.8-6.747 6.625 6.625 0 01-.638-1.038 2.34 2.34 0 01-.232-.721 1.019 1.019 0 01.116-.663.838.838 0 01.305-.332 2.24 2.24 0 01.348-.144 2.07 2.07 0 01.826 0c.214.048.423.115.624.202.37.143.734.307 1.087.49a40.77 40.77 0 013.8 2.465c4.813 3.489 9.41 7.209 14.31 10.41a44.506 44.506 0 007.613 4.166c1.249.548 2.594.847 3.959.879a2.681 2.681 0 001.45-.288.488.488 0 000-.36 3.675 3.675 0 00-.247-.823 17.408 17.408 0 00-2.32-3.46c-.899-1.124-1.885-2.205-2.9-3.258-2-2.119-4.118-4.166-6.264-6.17-4.35-4.008-8.7-7.872-13.282-11.663l-6.815-5.637-3.451-2.783c-1.102-.98-2.494-1.586-2.9-3.43l.189-.246c1.914 0 2.813 1.225 4.016 2.105l3.437 2.811 6.815 5.68c4.51 3.835 8.975 7.728 13.296 11.793 2.16 2.033 4.35 4.109 6.322 6.272 1.03 1.095 2.03 2.205 2.973 3.387a18.068 18.068 0 012.537 3.893c.19.417.323.859.392 1.312a2.24 2.24 0 01-.464 1.716 2.31 2.31 0 01-1.45.778 4.986 4.986 0 01-1.29.144 12.341 12.341 0 01-4.655-1.023 46.024 46.024 0 01-7.874-4.426c-4.93-3.345-9.497-7.209-14.224-10.64a40.237 40.237 0 00-3.596-2.422c-.3-.165-.61-.31-.928-.432a1.456 1.456 0 00-.435-.145 1.794 1.794 0 00-.261 0s.145 0 .217-.158c.073-.159 0-.159 0-.13.023.109.057.215.102.317.155.294.33.578.522.85a81.351 81.351 0 005.64 6.705c1.972 2.191 3.959 4.325 5.902 6.617a182.063 182.063 0 012.9 3.446c.465.597.89 1.223 1.276 1.874.213.344.375.718.478 1.11.079.289.031.598-.13.85a.885.885 0 01-.348.231l-.32.144c-.8.17-1.632.1-2.392-.202a15.794 15.794 0 01-2.073-.908c-1.334-.677-2.61-1.442-3.915-2.09a6.448 6.448 0 00-1.987-.707.8.8 0 00-.768.274 1.534 1.534 0 00-.087.937c.382 1.396.989 2.72 1.798 3.922l-.334.115z" fill="#FFE918" fill-rule="nonzero"/><path d="M529.809 118.707l2.18 8.366a.332.332 0 01-.1.33.382.382 0 01-.353.084l-8.241-1.877a.36.36 0 01-.279-.237.331.331 0 01.088-.343l6.06-6.393a.392.392 0 01.343-.135.38.38 0 01.302.205z" fill="#8870F9" fill-rule="nonzero"/><ellipse fill="#F34436" fill-rule="nonzero" transform="rotate(-25.65 559.812 204.633)" cx="559.812" cy="204.633" rx="35.693" ry="37.46"/><path d="M577.931 162.896l-16.146 24.72-.216-.232 25.228-13.364 1.226-.64-1.038.902-32.178 28.472-.158-.276c8.145-3.97 16.449-7.547 24.782-11.066 4.18-1.702 8.347-3.461 12.556-5.09l6.3-2.486a11.13 11.13 0 016.891-.917l.822.175-.548.363-45.613 29.912-.101-.29 43.335-5.817v.32l-43.335 5.816-.721.102.605-.407 45.47-30.144.26.538a11.17 11.17 0 01-5.767 3.94l-6.344 2.37c-4.224 1.6-8.49 3.083-12.73 4.625-8.534 2.908-17.097 5.816-25.805 8.361l-.706.204.533-.48 32.178-28.472.187.276-25.243 13.363-.476.262.26-.494 14.2-25.942 2.292 1.396z" fill="#003BA2" fill-rule="nonzero"/><g transform="translate(64)" fill-rule="nonzero"><ellipse fill="#0F66DE" cx="35.5" cy="48.5" rx="35.5" ry="33.5"/><path d="M12.044 15.607l14.306 23.64-.273.087-1.008-26.74v-1.29l.36 1.248 10.838 38.73h-.303c0-4.303.13-8.491.23-12.737.101-4.247.346-8.464.576-12.696.23-4.231.475-8.463.82-12.68l.49-6.34A10.549 10.549 0 0140.11.63L40.583 0l.087.617 6.592 50.651h-.303l12.752-39.046.288.1L47.19 51.34l-.2.631-.087-.66L40.052.69h.561c1 1.995 1.343 4.254.979 6.455l-.59 6.326c-.374 4.217-.864 8.42-1.31 12.638-.446 4.217-.993 8.42-1.569 12.623-.576 4.203-1.166 8.392-1.9 12.58l-.13.689-.172-.66L25.07 12.61h.302l.979 26.724v.502l-.302-.416L10 16.94l2.044-1.334z" fill="#FFF"/><path fill="#0F66DE" d="M64 44.821l46.655-13.595.74-.226.582.296L154 51.647l-.16.353-43.373-17.488 1.321.07-45.871 15.895z"/></g><path fill="#696A6D" fill-rule="nonzero" d="M399.022 137.5l13.978-11h-26z"/><path fill="#0C1733" fill-rule="nonzero" d="M417 85.93l-.533-1.231-5.823-17.199L396 90.5"/><path fill="#1062C4" fill-rule="nonzero" d="M399.167 79.684l31.106-3.726L505 67.5l-8.44 40.768-71.246 18.858L386 129.5z"/><path fill="#0F66DE" fill-rule="nonzero" style="mix-blend-mode:multiply" d="M397.548 79.883L417 77.5l-7.752 12.85-1.96 38.302L382 132.5z"/><path d="M283.429 105.13L277 216.5l92.683-5.109-2.003-75.708 31.452 1.259-1.283-48.572L410 67.5 301 85.519c-9.717 1.582-17.028 9.742-17.571 19.61z" fill="#D7E5FF" fill-rule="nonzero"/><path stroke="#240200" stroke-width="3" d="M368.69 155.5l1.31 55.625-59 2.375"/><path d="M303 88.506s4.265 6.66 16.772 4.598c12.506-2.063 8.675-7.492 8.675-7.492l-7.1-4.383-3.643-5.729-7.822 1.547L303 88.506z" fill="#4261E8" fill-rule="nonzero"/><path d="M316.967 75.5L319 78.696a18.67 18.67 0 01-7.881 1.583h-.089l-8.279 9.221-.751-.733 7.66-12.827 7.307-.44z" fill="#4261E8" fill-rule="nonzero" style="mix-blend-mode:multiply"/><path d="M302.976 47.5h14.765a.982.982 0 01.974.857l2.237 20.267a7.818 7.818 0 01-1.732 5.821 8.09 8.09 0 01-5.417 2.905l-.96.1a8.72 8.72 0 01-6.49-1.949 8.42 8.42 0 01-3.042-5.963l-1.308-21.024a.933.933 0 01.259-.718.968.968 0 01.714-.296z" fill="#4261E8" fill-rule="nonzero"/><path d="M319.39 47.005l-4.494-6.44h-3.854l-9.728-4.372-3.229-18.578-18.904-5.115-7.46 4.707-2.72 6.367a13.613 13.613 0 003.927 15.606l18.86 15.577h3.709l1.454 7.708 6.777 1.035 1.57-8.743L320 52.295l-.61-5.29z" fill="#1B1C3E" fill-rule="nonzero"/><path fill="#0C1733" fill-rule="nonzero" d="M344 121.09l-.533-1.205-5.376-15.385-15.091 21M344 138.96l-.533 1.2-13.16 19.34-7.307-25"/><path fill="#E7EBF6" fill-rule="nonzero" style="mix-blend-mode:multiply" d="M297 150.936l38.854 18.564 3.98-7.647L369 166.026v-26.124l-13.392-8.402L297 150.936z"/><path fill="#0F66DE" fill-rule="nonzero" d="M326.203 115.081l46.076 4.407 44.577-9.988L428 147.757 375.624 160.5 318 151.236z"/><path fill="#0F66DE" fill-rule="nonzero" style="mix-blend-mode:multiply" d="M340 116.75v37.75l-12.706-1.768L327 115.5"/><path fill="#D7E5FF" fill-rule="nonzero" d="M297 151.227l33.56 8.273.043-45.263L337 104.5l-36.578 2.014"/><path fill="#E2F244" fill-rule="nonzero" d="M419 62.191L478.347 51.5 519 126.973 441.58 150.5z"/><path fill="#E2F244" fill-rule="nonzero" style="mix-blend-mode:multiply" d="M452.532 106.5L507 130.516 441.07 150.5 431 111.237z"/><path d="M417.711 108.81l29.375-4.792a5.841 5.841 0 016.698 4.816l.675 4.127a5.827 5.827 0 01-4.81 6.697l-.004-.002-29.374 4.791a5.841 5.841 0 01-6.698-4.816l-.675-4.127a5.827 5.827 0 014.81-6.697c.001 0 .002 0 .003.002z" fill="#0F66DE" fill-rule="nonzero"/><path d="M484.033 72.821l21.535-5.528a4.366 4.366 0 015.306 3.135l.779 3.025a4.35 4.35 0 01-3.128 5.303c-.002 0-.003.001-.005-.002l-21.535 5.528a4.366 4.366 0 01-5.305-3.135l-.78-3.024a4.35 4.35 0 013.13-5.304l.003.002z" fill="#1062C4" fill-rule="nonzero"/><path d="M488.78 81.262l21.535-5.528a4.366 4.366 0 015.305 3.135l.78 3.024a4.35 4.35 0 01-3.13 5.304l-.003-.002-21.535 5.528a4.366 4.366 0 01-5.306-3.136l-.779-3.024a4.35 4.35 0 013.129-5.304s.002 0 .004.003z" fill="#1062C4" fill-rule="nonzero"/><path fill="#E2F244" fill-rule="nonzero" style="mix-blend-mode:multiply" d="M492 101.575l16 4.925-5.776-11z"/><path d="M491.251 90.907l21.535-5.528a4.366 4.366 0 015.306 3.135l.779 3.025a4.35 4.35 0 01-3.129 5.303c-.001 0-.002.001-.004-.002l-21.535 5.528a4.366 4.366 0 01-5.306-3.135l-.779-3.024a4.35 4.35 0 013.129-5.304l.004.002z" fill="#1062C4" fill-rule="nonzero"/><path d="M416.863 122.17l32.034-5.226a6.07 6.07 0 016.96 5.005l.602 3.677a6.055 6.055 0 01-4.999 6.959s-.002 0-.003-.003l-32.034 5.226a6.07 6.07 0 01-6.96-5.005l-.602-3.677a6.055 6.055 0 014.998-6.959c.001 0 .003 0 .004.003z" fill="#0F66DE" fill-rule="nonzero"/><path d="M418.608 132.931l32.034-5.225a6.07 6.07 0 016.96 5.004l.602 3.678a6.055 6.055 0 01-4.999 6.958s-.002 0-.003-.002l-32.034 5.225a6.07 6.07 0 01-6.96-5.004l-.602-3.678a6.055 6.055 0 014.998-6.958l.004.002z" fill="#0F66DE" fill-rule="nonzero"/><path stroke="#240200" stroke-width="3" d="M418 123.5l32-5M418 136.5l32-5M490 82.5l18-5M314 155.5l-25-7M494 92.5l18-5"/><path d="M427 73.054c11.531-3.439 23.062-6.806 34.593-9.988 2.883-.785 5.766-1.555 8.735-2.269a82.36 82.36 0 014.454-1.013l1.21-.185.606-.086h.26c.124-.017.25-.017.375 0l.288.086a.478.478 0 01.187.085c.157.08.294.192.404.328.194.229.306.515.317.814a1.5 1.5 0 01-.159.685 2.273 2.273 0 01-.46.57 1.44 1.44 0 01-.318.243c-.17.134-.348.258-.533.37l-1.024.614c-5.362 2.854-10.781 5.351-16.187 7.963-5.405 2.61-10.81 5.136-16.1 7.89-1.326.685-2.638 1.427-3.92 2.127-.635.37-1.269.742-1.874 1.141-.303.2-.591.414-.85.614-.194.149-.373.316-.534.499a.48.48 0 000-.385l-.115-.1a.96.96 0 00.346 0h1.066c.735 0 1.442-.114 2.22-.2 1.441-.143 2.97-.314 4.454-.5 11.877-1.512 23.725-3.452 35.559-5.436v.328c-11.79 2.27-23.567 4.495-35.458 6.307-1.442.214-2.97.428-4.469.6-.75.114-1.441.17-2.248.256-.375 0-.75.086-1.182.086a2.561 2.561 0 01-.764-.086 1.111 1.111 0 01-.605-.385.962.962 0 01-.13-.899c.22-.454.546-.85.951-1.156.317-.256.634-.499.952-.713a31.47 31.47 0 011.917-1.256 120.332 120.332 0 013.92-2.254c5.276-2.854 10.623-5.58 15.97-8.29 5.348-2.712 10.754-5.366 15.856-8.277l.894-.556c.134-.084.264-.174.389-.271l.115-.1-.086.143c-.094.17-.138.362-.13.556.027.253.121.495.274.7.093.118.211.215.346.285H476.858l-.505.085c-.331 0-.648.1-1.009.186-1.441.314-2.882.67-4.324 1.07-2.883.77-5.765 1.612-8.648 2.468-11.46 3.425-22.875 7.135-34.262 10.774L427 73.054zM465 114.673l36.01-10.173.99 3.769-36.257 9.231zM475 122.466l29.26-8.966.74 2.702-29.459 8.298z" fill="#FF9A8B" fill-rule="nonzero"/><path stroke="#A34436" stroke-width="1.428" d="M488 136.5l30-9.26-7.283-13.74"/><path fill="#87C98A" fill-rule="nonzero" d="M599 110.412L669.796 90 737 131.182 663.178 145z"/><path d="M632.96 128.55a918.04 918.04 0 0134.346-16.404c5.763-2.591 11.526-5.168 17.591-7.33a41.168 41.168 0 014.625-1.431c.408-.096.822-.168 1.24-.215a2.754 2.754 0 011.44.158c.2.098.362.259.46.458.09.192.124.405.102.615 0 .144-.072.301-.116.444l-.187.33a5.73 5.73 0 01-.792 1.03 65.907 65.907 0 01-7.334 6.184c-10.085 7.659-20.832 14.53-31.393 21.472-2.65 1.747-5.287 3.493-7.866 5.283-1.297.901-2.58 1.818-3.775 2.777-.288.243-.59.486-.85.73-.231.195-.44.416-.62.658a.27.27 0 000-.143v-.172a.784.784 0 00-.086-.257.646.646 0 00-.288-.3h-.115.158a6.39 6.39 0 001.009-.187 89.929 89.929 0 008.831-3.078c2.882-1.16 5.878-2.39 8.875-3.507a332.288 332.288 0 0136.595-11.123l9.206-2.347c1.527-.401 3.04-.816 4.51-1.274a18.14 18.14 0 002.06-.773c.225-.102.441-.222.648-.358v.071a.386.386 0 00-.087.172.754.754 0 000 .33.827.827 0 00.23.63 3.265 3.265 0 00-.633-.301 14.46 14.46 0 00-1.023-.315 29.75 29.75 0 00-2.219-.516c-1.44-.314-3.054-.53-4.682-.873-3.184-.658-6.267-1.517-9.336-2.419-12.232-3.665-24.146-8.074-36.148-12.153-5.979-1.99-12-4.109-17.994-5.469-.735-.171-1.441-.3-2.19-.4a7.25 7.25 0 00-1.772-.086c-.072 0 0 0 0 0h.072c.1 0 .086 0 .245-.186.139-.127.247-.284.317-.458a.996.996 0 000-.659l.072.115c.345.515.74.994 1.181 1.431a64.094 64.094 0 007.117 5.726l-2.593 3.421a76.397 76.397 0 01-7.492-6.413 11.146 11.146 0 01-1.772-2.29 4.822 4.822 0 01-.418-.974c-.17-.599-.14-1.237.087-1.818.133-.36.35-.683.634-.944.215-.21.463-.385.734-.516.2-.094.407-.17.62-.229l.533-.114a10.86 10.86 0 012.968.114c.85.143 1.671.315 2.478.501 6.368 1.59 12.318 3.736 18.326 5.84 11.987 4.295 23.844 8.776 35.874 12.54 3.011.931 6.022 1.804 9.048 2.463 1.44.343 3.068.587 4.668.93.792.172 1.599.358 2.406.587.417.115.835.258 1.253.415a5.08 5.08 0 011.44.802c.504.384.806.973.822 1.603a2.49 2.49 0 01-.1.601c-.058.155-.13.304-.217.444a2.352 2.352 0 01-.447.516c-.432.355-.918.64-1.44.844-.783.34-1.587.632-2.406.873-1.57.487-3.112.874-4.668 1.274l-9.264 2.305a331.965 331.965 0 00-36.393 10.622c-5.95 2.118-11.698 4.738-18.038 6.441a8.536 8.536 0 01-1.325.215 1.956 1.956 0 01-1.153-.2 1.172 1.172 0 01-.605-1.217c.023-.142.062-.281.115-.415 0-.1.087-.158.13-.244a5.28 5.28 0 01.994-1.073c.303-.284.62-.551.951-.802 1.282-1.016 2.593-1.918 3.919-2.863 2.636-1.79 5.302-3.507 7.967-5.225 10.661-6.857 21.395-13.57 31.566-21.071a62.612 62.612 0 007.204-5.94c.251-.252.474-.53.663-.831l.115-.2a.157.157 0 010-.115s.086.129 0 .1a2.03 2.03 0 00-.836 0c-.372.039-.742.096-1.109.172-1.52.36-3.021.8-4.495 1.317-5.95 2.075-11.785 4.58-17.606 7.157-11.526 5.082-23.051 10.464-34.505 15.961l-.058-.443z" fill="#FFF" fill-rule="nonzero"/><circle fill="#0F66DE" fill-rule="nonzero" cx="574.5" cy="24.5" r="24.5"/><path fill="#FFF" fill-rule="nonzero" d="M564 25.687l35.113-11.457L606 12l-5.82 4.486-21.97 16.906-.824-2.281 25.146-2.079.194 2.535-25.146 2.078-4.244.355 3.443-2.636 21.946-16.93 1.067 2.23-35.428 10.315z"/></g></g></g></svg>