<svg xmlns="http://www.w3.org/2000/svg" viewBox="0 0 24 24" width="24" height="24"><g class="uk-icon-alternate-dark" version="1.1"><g stroke="none" stroke-width="1" fill="none" fill-rule="evenodd"><path d="M0 0h24v24H0z"/><path d="M4 4.5h16a1 1 0 011 1v13a1 1 0 01-1 1H4a1 1 0 01-1-1v-13a1 1 0 011-1zM10.5 7a.5.5 0 00-.5.5v1a.5.5 0 00.5.5h7a.5.5 0 00.5-.5v-1a.5.5 0 00-.5-.5h-7zm0 4a.5.5 0 00-.5.5v1a.5.5 0 00.5.5h7a.5.5 0 00.5-.5v-1a.5.5 0 00-.5-.5h-7zm0 4a.5.5 0 00-.5.5v1a.5.5 0 00.5.5h7a.5.5 0 00.5-.5v-1a.5.5 0 00-.5-.5h-7zm-4-8a.5.5 0 00-.5.5v1a.5.5 0 00.5.5h1a.5.5 0 00.5-.5v-1a.5.5 0 00-.5-.5h-1zm0 4a.5.5 0 00-.5.5v1a.5.5 0 00.5.5h1a.5.5 0 00.5-.5v-1a.5.5 0 00-.5-.5h-1zm0 4a.5.5 0 00-.5.5v1a.5.5 0 00.5.5h1a.5.5 0 00.5-.5v-1a.5.5 0 00-.5-.5h-1z" fill="#EEE" fill-rule="nonzero"/></g></g><g class="uk-icon-alternate-default" version="1.1"><g stroke="none" stroke-width="1" fill="none" fill-rule="evenodd"><path d="M0 0h24v24H0z"/><path d="M3.5 4a1 1 0 00-1 1v14a1 1 0 001 1h17a1 1 0 001-1V5a1 1 0 00-1-1h-17z" fill="#363A40" fill-rule="nonzero" opacity=".2"/><path d="M10.5 7h7a.5.5 0 01.5.5v1a.5.5 0 01-.5.5h-7a.5.5 0 01-.5-.5v-1a.5.5 0 01.5-.5zm0 4h7a.5.5 0 01.5.5v1a.5.5 0 01-.5.5h-7a.5.5 0 01-.5-.5v-1a.5.5 0 01.5-.5zm0 4h7a.5.5 0 01.5.5v1a.5.5 0 01-.5.5h-7a.5.5 0 01-.5-.5v-1a.5.5 0 01.5-.5zm-4-8h1a.5.5 0 01.5.5v1a.5.5 0 01-.5.5h-1a.5.5 0 01-.5-.5v-1a.5.5 0 01.5-.5zm0 4h1a.5.5 0 01.5.5v1a.5.5 0 01-.5.5h-1a.5.5 0 01-.5-.5v-1a.5.5 0 01.5-.5zm0 4h1a.5.5 0 01.5.5v1a.5.5 0 01-.5.5h-1a.5.5 0 01-.5-.5v-1a.5.5 0 01.5-.5z" fill="#343638" fill-rule="nonzero"/></g></g></svg>