<svg xmlns="http://www.w3.org/2000/svg" viewBox="0 0 24 24" width="24" height="24"><g class="uk-icon-alternate-dark" version="1.1"><g stroke="none" stroke-width="1" fill="none" fill-rule="evenodd"><path d="M0 0h24v24H0z"/><path d="M16 4a1 1 0 011 1v14a1 1 0 01-1 1H6a1 1 0 01-1-1V9l5.001-4.997 6-.003z" fill="#EEE" fill-rule="nonzero" opacity=".2"/><path d="M11.988 17.439l7.071-7.071-1.414-1.415-7.071 7.071-.58 1.742a.2.2 0 00.252.253l1.742-.58zm7.778-9.193a1 1 0 010 1.415l-.283.282L18.07 8.53l.283-.283a1 1 0 011.414 0zM10 4v5H5l5-5z" fill="#EEE" fill-rule="nonzero"/></g></g><g class="uk-icon-alternate-default" version="1.1"><g stroke="none" stroke-width="1" fill="none" fill-rule="evenodd"><path d="M0 0h24v24H0z"/><path d="M16 4a1 1 0 011 1v14a1 1 0 01-1 1H6a1 1 0 01-1-1V9l5.001-4.997 6-.003z" fill="#363A40" fill-rule="nonzero" opacity=".2"/><path d="M11.988 17.439l7.071-7.071-1.414-1.415-7.071 7.071-.58 1.742a.2.2 0 00.252.253l1.742-.58zm7.778-9.193a1 1 0 010 1.415l-.283.282L18.07 8.53l.283-.283a1 1 0 011.414 0zM10 4v5H5l5-5z" fill="#343638" fill-rule="nonzero"/></g></g></svg>