<svg xmlns="http://www.w3.org/2000/svg" viewBox="0 0 24 24" width="24" height="24"><g class="uk-icon-alternate-dark" version="1.1"><g stroke="none" stroke-width="1" fill="none" fill-rule="evenodd"><path d="M0 0h24v24H0z"/><path d="M4 4.5a1 1 0 00-1 1v13a1 1 0 001 1h16a1 1 0 001-1v-13a1 1 0 00-1-1H4z" fill="#EEE" fill-rule="nonzero" opacity=".2"/><path d="M7 9h6v2H7V9zm0 4h6v2H7v-2z" fill="#EEE" fill-rule="nonzero"/></g></g><g class="uk-icon-alternate-default" version="1.1"><g stroke="none" stroke-width="1" fill="none" fill-rule="evenodd"><path d="M0 0h24v24H0z"/><path d="M4.75 6.25h14.5v11.5H4.75V6.25zM4 4.5a1 1 0 00-1 1v13a1 1 0 001 1h16a1 1 0 001-1v-13a1 1 0 00-1-1H4z" fill="#343638" fill-rule="nonzero"/><path d="M7 9h6v2H7V9zm0 4h6v2H7v-2z" fill="#363A40" fill-rule="nonzero" opacity=".2"/></g></g></svg>