<svg xmlns="http://www.w3.org/2000/svg" viewBox="0 0 310 560" width="310" height="560"><g class="uk-icon-alternate-dark" version="1.1"><g transform="translate(-51 -10)" stroke="none" stroke-width="1" fill="none" fill-rule="evenodd"><path fill="#0D0D0D" fill-rule="nonzero" d="M51 10h310v560H51z"/><path fill="#0D0D0D" fill-rule="nonzero" opacity=".4" d="M446 11.567L310.761 0 169 211l148.693 52z"/><path d="M306.56 580a51.818 51.818 0 01-2.998-5.085 23.11 23.11 0 01-2.142-5.596 7.805 7.805 0 01-.155-1.604 3.56 3.56 0 01.44-1.735 2.88 2.88 0 011.476-1.188c.56-.18 1.15-.252 1.737-.214 2.034.28 4.003.911 5.82 1.866 3.57 1.675 6.938 3.623 10.413 5.287a39.786 39.786 0 005.248 2.174 8.82 8.82 0 005.058.416c.175-.052.342-.124.5-.214.143-.071.357-.226.25-.143-.107.084 0-.07-.083-.415a9.249 9.249 0 00-1.083-2.305 46.124 46.124 0 00-3.297-4.61c-2.38-3.006-4.95-5.94-7.545-8.792-5.2-5.739-10.568-11.37-15.888-17.05-2.665-2.851-5.32-5.703-7.925-8.626a111.177 111.177 0 01-7.581-9.16 22.104 22.104 0 01-1.678-2.745 6.492 6.492 0 01-.679-1.984 3.404 3.404 0 010-.808c0-.166 0-.332.084-.499.055-.21.135-.414.238-.606.207-.41.52-.758.904-1.01a3.18 3.18 0 011-.44c.445-.095.903-.12 1.356-.07.335.017.666.073.988.166a9.259 9.259 0 011.702.499c.993.386 1.963.83 2.904 1.33a102.939 102.939 0 0110.044 6.464c12.746 9.137 24.873 18.844 37.774 27.255 3.213 2.103 6.474 4.123 9.794 5.941a81.342 81.342 0 0010.128 4.86 26.636 26.636 0 0010.115 2.15h1.19l1.06-.238.511-.214a.5.5 0 01.215-.095c.107 0 0-.059.059 0a.083.083 0 00-.071 0s0 .095-.084.107c-.083.012 0 .107 0 0v-.095a2.123 2.123 0 010-.273 8.438 8.438 0 00-.607-1.853 44.076 44.076 0 00-6.021-8.828c-2.38-2.9-4.975-5.703-7.617-8.471-5.32-5.513-10.913-10.836-16.661-16.064-11.401-10.432-23.207-20.495-35.143-30.38A1433.554 1433.554 0 00274 468.032l6.355-8.032a1446.566 1446.566 0 0135.845 30.166c11.782 10.254 23.421 20.674 34.715 31.533 5.641 5.442 11.187 10.99 16.53 16.812 2.666 2.923 5.285 5.94 7.772 9.065a49.474 49.474 0 016.748 10.622 14.24 14.24 0 011.035 3.707v1.188a6.845 6.845 0 01-.155 1.343 5.625 5.625 0 01-.488 1.425c-.209.489-.498.938-.857 1.331-.178.202-.357.404-.547.582a6.64 6.64 0 01-.571.44 6.072 6.072 0 01-1.19.7l-1.19.429c-.322.083-.607.13-.917.19l-1.809.32h-1.761a32.94 32.94 0 01-12.543-2.875 88.276 88.276 0 01-10.783-5.5c-3.439-2.009-6.747-4.171-9.996-6.405-12.972-8.923-24.933-19.01-37.262-28.3a101.297 101.297 0 00-9.414-6.405 22.698 22.698 0 00-2.38-1.188 5.564 5.564 0 00-1.083-.368 1.823 1.823 0 00-.452-.107h-.083c.06 0 .143 0 .333-.155.173-.128.318-.29.428-.475a1.08 1.08 0 00.096-.273v-.13-.096c.051.265.14.52.261.76a17.53 17.53 0 001.321 2.258 109.44 109.44 0 007.081 8.982c2.5 2.947 5.07 5.846 7.653 8.745 5.177 5.81 10.413 11.572 15.47 17.489 2.548 2.958 5.059 5.94 7.439 9.089a51.084 51.084 0 013.356 4.966c.569.935.998 1.948 1.273 3.006.08.343.108.695.084 1.046a2.764 2.764 0 01-.131.653 2.197 2.197 0 01-.381.666 2.904 2.904 0 01-.952.677c-.269.144-.552.26-.845.344a7.974 7.974 0 01-3.368.19 15.635 15.635 0 01-3.023-.76 41.915 41.915 0 01-5.474-2.376c-3.511-1.794-6.831-3.838-10.27-5.549a16.68 16.68 0 00-5.19-1.841 3.004 3.004 0 00-1.19.107c-.302.098-.559.3-.726.57a3.69 3.69 0 00-.19 2.376 21.956 21.956 0 001.904 5.3 50.72 50.72 0 002.797 5.037l-.714.689z" fill="#E2F244" fill-rule="nonzero"/><path d="M286.41 375.435l21.699 7.112c14.112 4.625 21.804 19.82 17.18 33.938-4.623 14.118-19.811 21.813-33.923 17.188l-21.7-7.112 16.744-51.126z" fill="#2CE577" fill-rule="nonzero"/><path d="M234.941 285.682l19.999 16.057a6.418 6.418 0 01.987 9.013l-1.52 1.895a6.406 6.406 0 01-9.01.99v-.003l-19.998-16.057a6.418 6.418 0 01-.988-9.013l1.521-1.895a6.406 6.406 0 019.01-.99v.003z" fill="#28BF65" fill-rule="nonzero"/><path d="M.38 143c3.06.48 6.094 1.022 9.14 1.551 3.047.53 6.082 1.07 9.104 1.647 6.07 1.155 12.127 2.333 18.173 3.535 6.057 1.203 12.09 2.49 18.124 3.764a620.883 620.883 0 0118.042 4.1l-.643-.084c.447.017.887.119 1.297.3l.274.132.12.085.225.168c.148.1.283.217.405.349l.19.216c.178.214.337.444.476.685.175.296.333.601.476.914.25.553.44 1.058.631 1.563.369.986.69 1.948 1 2.91.607 1.924 1.19 3.835 1.713 5.735 1.083 3.824 2.047 7.647 3.07 11.447l3.023 11.422c1.06 3.788 2.06 7.587 3.154 11.386l-2.38-1.995c4.439.204 8.89.3 13.353.348H119.459c2.237 0 4.45.072 6.676.144 4.45.145 8.89.433 13.329.758l-2.143.277 44.64-15.319 1.606-.553 1.678.457 72.273 19.587 72.213 19.73-4.641.602 61.704-35.614 3.356-1.936 3.154 2.236 34.381 24.468 34.298 24.637-7.14.348 26.514-22.748 26.574-22.689 7.069 8.345-26.181 23.085-26.289 23.001-3.44 3.006-3.76-2.657-34.512-24.276-34.404-24.42 6.51.313-61.658 35.686-2.213 1.274-2.44-.685-72.154-20.007-72.141-20.164 3.284-.096-44.83 14.873-1.07.349-1.071-.084c-4.44-.361-8.866-.77-13.294-1.31a249.378 249.378 0 01-6.616-.89c-2.202-.325-4.415-.638-6.617-.999l-13.234-2.056a453.251 453.251 0 00-13.245-1.707l-1.964-.216-.392-1.78c-.845-3.823-1.821-7.635-2.773-11.434-.952-3.8-2.011-7.575-3.118-11.327a488.75 488.75 0 00-3.451-11.206c-.595-1.851-1.19-3.69-1.857-5.482a70.954 70.954 0 00-1.011-2.622c-.179-.408-.357-.83-.524-1.202-.167-.373-.167-.3-.214-.385-.048-.084-.06-.072.06.096l.07.073c.08.084.168.16.263.228.045.044.097.08.154.108h.084l.226.12c.354.165.74.251 1.13.253l-.642-.084a763.347 763.347 0 01-18.03-4.16c-5.95-1.48-11.984-2.958-17.958-4.51-5.974-1.55-11.9-3.101-17.85-4.724-2.976-.806-5.951-1.648-8.926-2.49A541.927 541.927 0 010 144.829L.38 143z" fill="#FFD400" fill-rule="nonzero"/><path fill="#FFDC2E" fill-rule="nonzero" style="mix-blend-mode:multiply" d="M256 255.785L230.482 267 206 260.715 228.813 250z"/><path fill="#0094FF" fill-rule="nonzero" d="M293.183 196L319 263.8 190.547 308 169 210.822l43.38-5.852z"/><path d="M188 224.85a8.606 8.606 0 014.413-3.788c.793-.268 1.611-.46 2.443-.569l2.467-.418c3.274-.57 6.572-1.162 9.858-1.662a845.568 845.568 0 0119.785-3.02l9.917-1.349 9.952-1.162c6.642-.732 13.285-1.452 19.987-1.882l.178 1.046c-6.453 1.8-12.953 3.3-19.465 4.799l-9.774 2.126-9.81 1.998a852.76 852.76 0 01-19.68 3.672 843.692 843.692 0 01-9.856 1.685l-2.468.407c-.818.175-1.653.265-2.49.267a8.71 8.71 0 01-5.457-2.15zM198 239.669c2.608-3.597 5.926-4.484 9.174-5.204l9.838-2.398c6.567-1.547 13.169-2.95 19.759-4.376l9.933-1.99c3.307-.648 6.637-1.2 9.956-1.835 6.662-1.127 13.335-2.254 20.15-2.866l.19 1.08a2073.373 2073.373 0 01-19.463 5.539l-9.766 2.661-9.78 2.566c-6.53 1.643-13.037 3.346-19.604 4.916l-9.838 2.399c-3.307.839-6.602 1.558-10.549-.492z" fill="#FFF" fill-rule="nonzero"/><path fill="#2CE577" fill-rule="nonzero" d="M241 303.547L281.028 289l43.326 108.21-44.283-6.322-23.953-39.315z"/><path fill="#07CD37" d="M297 372l-48-42 13.139 39.008z"/><path fill="#2CE577" fill-rule="nonzero" d="M71.788 447.343L65 578l58-8.059L113.787 440z"/><path fill="#2CE577" fill-rule="nonzero" style="mix-blend-mode:multiply" d="M107.03 479.488L108 446l-37.323 19.459L70 480z"/><path d="M112.656 370.913L101 572.775 257.92 578l-3.964-150.043 29.584 13.168L296 371.958 242.123 337l-97.47 2.707c-29.063 3.527-30.932 12.825-31.997 31.206z" fill="#E5F520" fill-rule="nonzero"/><path d="M148 339.534s8.048 12.625 31.63 8.715 16.312-14.175 16.312-14.175L186 327.446 174.634 316.6l-13.675 1.333L148 339.534z" fill="#2CE577" fill-rule="nonzero"/><path d="M177.59 319l8.41 8.446-10.07 4.207c-5.08 1.454-11.687 1.74-16.91.814l-6.02-1.053 7.062-10.989L177.59 319z" fill="#2CE577" fill-rule="nonzero" style="mix-blend-mode:multiply"/><path d="M123.49 345.704l-11.926 5.276C96.153 358.96 75.5 385.062 75.5 385.062L62 467l61.49-11.302V345.704z" fill="#E5F520" fill-rule="nonzero"/><circle fill="#1B1C67" fill-rule="nonzero" cx="149" cy="275" r="12"/><circle fill="#1B1C67" fill-rule="nonzero" cx="154.5" cy="283.5" r="8.5"/><circle fill="#1B1C67" fill-rule="nonzero" cx="148" cy="293" r="8"/><circle fill="#1B1C67" fill-rule="nonzero" cx="165.5" cy="279.5" r="19.5"/><circle fill="#1B1C67" fill-rule="nonzero" cx="186" cy="286" r="10"/><circle fill="#1B1C67" fill-rule="nonzero" cx="167" cy="307" r="20"/><circle fill="#1B1C67" fill-rule="nonzero" cx="187.5" cy="299.5" r="6.5"/><circle fill="#1B1C67" fill-rule="nonzero" cx="152.5" cy="302.5" r="9.5"/><path d="M233.104 259.982l2.308-.78a6.433 6.433 0 018.155 4.037v.002l14.292 42.365a6.44 6.44 0 01-4.04 8.156l-2.308.78a6.433 6.433 0 01-8.155-4.038l.001-.002-14.293-42.364a6.44 6.44 0 014.04-8.156z" fill="#2CE577" fill-rule="nonzero"/><path d="M246.72 252.881l2.309-.78a6.433 6.433 0 018.155 4.038l-.001.002 14.293 42.364a6.44 6.44 0 01-4.04 8.156l-2.308.78a6.433 6.433 0 01-8.155-4.037v-.002l-14.292-42.365a6.44 6.44 0 014.04-8.156z" fill="#2CE577" fill-rule="nonzero"/><path d="M258.69 248.838l2.308-.78a6.433 6.433 0 018.155 4.037v.002l14.292 42.365a6.44 6.44 0 01-4.04 8.156l-2.308.78a6.433 6.433 0 01-8.155-4.037v-.002l-14.292-42.365a6.44 6.44 0 014.04-8.156z" fill="#2CE577" fill-rule="nonzero"/><path stroke="#240200" stroke-width="3.65" d="M259.835 264.925l10 31M245.835 269.925l10 31"/><path d="M108.933 434L115 580s-14.395-3.006-13.992-6.563c.73-6.251 7.925-139.437 7.925-139.437z" fill="#EFDD2E" fill-rule="nonzero"/><path stroke="#240200" stroke-width="3.65" d="M252 391l5 67"/><path d="M99.101 126.063l58.126-47.045a.106.106 0 01.118 0l30.629 14.652a.096.096 0 010 .132l-16.192 42.204a.107.107 0 01-.071.072L134.938 148h-.083l-35.73-21.71a.114.114 0 01-.125-.102.115.115 0 01.101-.125z" fill="#00A262" fill-rule="nonzero"/><path d="M136.427 134a24.95 24.95 0 01-1.614-2.563 11.365 11.365 0 01-1.196-2.908 2.84 2.84 0 01.167-1.993c.22-.392.571-.694.993-.855.35-.12.718-.177 1.088-.166a9.807 9.807 0 013.182.926c1.878.819 3.588 1.78 5.359 2.563.839.395 1.707.728 2.595.997a3.7 3.7 0 002.058.154.552.552 0 00.12-.06c.07 0-.144.084-.192.167a.782.782 0 00-.168.285.436.436 0 000 .19c0 .07 0 .095 0 0-.13-.312-.29-.61-.478-.89a23.295 23.295 0 00-1.639-2.196c-1.196-1.471-2.536-2.907-3.875-4.331-2.668-2.848-5.443-5.649-8.194-8.485a240.675 240.675 0 01-4.102-4.343 57.185 57.185 0 01-3.984-4.747 11.851 11.851 0 01-.968-1.554 4.497 4.497 0 01-.479-1.424 3.273 3.273 0 010-.712c.012-.156.036-.31.072-.463.063-.204.143-.402.24-.593.212-.407.524-.754.908-1.009.15-.104.31-.192.479-.261l.466-.154a3.616 3.616 0 011.124-.072c.231.01.46.045.682.107.364.069.72.172 1.065.309.568.213 1.123.459 1.662.736a55.087 55.087 0 015.3 3.322c6.566 4.605 12.702 9.494 19.209 13.659a56.363 56.363 0 009.856 5.28 12.15 12.15 0 004.521.985h.443l.359-.083h.167a.193.193 0 00-.107 0c-.08.037-.156.08-.228.13l-.131.12a.68.68 0 00-.168.154c-.107.13-.179.273-.263.391-.084.12-.095.309-.131.368-.036.06 0 .226 0 .238a.106.106 0 000 .083s0-.238-.192-.522a21.188 21.188 0 00-2.835-4.106 94.673 94.673 0 00-3.78-4.213c-2.667-2.753-5.478-5.435-8.372-8.07-5.742-5.28-11.674-10.418-17.69-15.426a758.582 758.582 0 00-9.091-7.488l-4.69-3.702c-1.363-1.448-3.827-1.496-2.679-6.076l.682-.843c4.258-2.136 4.88.273 6.59 1.294l4.606 3.762a829.492 829.492 0 019.138 7.618c6.053 5.138 12.033 10.36 17.847 15.83 2.894 2.753 5.741 5.566 8.504 8.532 1.376 1.496 2.727 3.014 4.03 4.664a26.08 26.08 0 013.673 5.72c.32.73.534 1.5.634 2.29v.819a6.006 6.006 0 01-.12.961 4.237 4.237 0 01-.358 1.056c-.163.37-.385.71-.658 1.009-.132.154-.263.308-.407.45l-.43.333a4.422 4.422 0 01-.862.498c-.263.12-.538.214-.801.309l-.562.119-1.1.19h-1.041a18.387 18.387 0 01-6.998-1.555 62.492 62.492 0 01-10.837-6.195c-6.566-4.544-12.667-9.612-18.85-14.358a49.494 49.494 0 00-4.606-3.18 9.418 9.418 0 00-1.028-.523 1.995 1.995 0 00-.347-.13s-.108 0 0 0c.13.019.264.019.394 0a2.03 2.03 0 00.61-.273c.278-.19.507-.443.67-.736.07-.135.122-.279.156-.427.006-.095.006-.19 0-.285.01-.114.01-.23 0-.344 0-.261 0-.13 0 0 .163.331.347.652.55.961a53.003 53.003 0 003.469 4.45c1.196 1.484 2.536 2.967 3.827 4.438 2.584 2.967 5.204 5.934 7.763 8.972 1.28 1.53 2.548 3.073 3.756 4.746a24.441 24.441 0 011.746 2.504 6.58 6.58 0 01.718 1.792c.04.26.04.524 0 .783-.02.186-.06.37-.12.546-.084.22-.205.425-.358.605-.13.159-.288.292-.467.392l-.275.154c-.185.09-.377.166-.574.226a6.266 6.266 0 01-3.756-.344 21.046 21.046 0 01-2.859-1.318c-1.794-.96-3.468-2.017-5.155-2.907a8.315 8.315 0 00-2.392-.961 2.037 2.037 0 00-.383 0 .347.347 0 00-.12.071c-.127.27-.156.576-.083.866a17.063 17.063 0 002.189 5.162l-.874.558z" fill="#84FF2E" fill-rule="nonzero"/><path stroke="#003FFF" stroke-width="2.74" d="M241 201.723L293.205 196 304 224"/><path fill="#EFDD2E" fill-rule="nonzero" d="M240 476l-11.248 33.295L161 539l74.88-20.388z"/><path fill="#0094FF" style="mix-blend-mode:multiply" d="M302 269.423L269 253l8.52 25z"/></g></g><g class="uk-icon-alternate-default" version="1.1"><g transform="translate(-51 -10)" stroke="none" stroke-width="1" fill="none" fill-rule="evenodd"><path fill="#FAFAFB" fill-rule="nonzero" d="M51 10h310v560H51z"/><path fill="#F5F5F5" fill-rule="nonzero" style="mix-blend-mode:multiply" d="M446 11.567L310.761 0 169 211l148.693 52z"/><path d="M306.56 580a51.818 51.818 0 01-2.998-5.085 23.11 23.11 0 01-2.142-5.596 7.805 7.805 0 01-.155-1.604 3.56 3.56 0 01.44-1.735 2.88 2.88 0 011.476-1.188c.56-.18 1.15-.252 1.737-.214 2.034.28 4.003.911 5.82 1.866 3.57 1.675 6.938 3.623 10.413 5.287a39.786 39.786 0 005.248 2.174 8.82 8.82 0 005.058.416c.175-.052.342-.124.5-.214.143-.071.357-.226.25-.143-.107.084 0-.07-.083-.415a9.249 9.249 0 00-1.083-2.305 46.124 46.124 0 00-3.297-4.61c-2.38-3.006-4.95-5.94-7.545-8.792-5.2-5.739-10.568-11.37-15.888-17.05-2.665-2.851-5.32-5.703-7.925-8.626a111.177 111.177 0 01-7.581-9.16 22.104 22.104 0 01-1.678-2.745 6.492 6.492 0 01-.679-1.984 3.404 3.404 0 010-.808c0-.166 0-.332.084-.499.055-.21.135-.414.238-.606.207-.41.52-.758.904-1.01a3.18 3.18 0 011-.44c.445-.095.903-.12 1.356-.07.335.017.666.073.988.166a9.259 9.259 0 011.702.499c.993.386 1.963.83 2.904 1.33a102.939 102.939 0 0110.044 6.464c12.746 9.137 24.873 18.844 37.774 27.255 3.213 2.103 6.474 4.123 9.794 5.941a81.342 81.342 0 0010.128 4.86 26.636 26.636 0 0010.115 2.15h1.19l1.06-.238.511-.214a.5.5 0 01.215-.095c.107 0 0-.059.059 0a.083.083 0 00-.071 0s0 .095-.084.107c-.083.012 0 .107 0 0v-.095a2.123 2.123 0 010-.273 8.438 8.438 0 00-.607-1.853 44.076 44.076 0 00-6.021-8.828c-2.38-2.9-4.975-5.703-7.617-8.471-5.32-5.513-10.913-10.836-16.661-16.064-11.401-10.432-23.207-20.495-35.143-30.38A1433.554 1433.554 0 00274 468.032l6.355-8.032a1446.566 1446.566 0 0135.845 30.166c11.782 10.254 23.421 20.674 34.715 31.533 5.641 5.442 11.187 10.99 16.53 16.812 2.666 2.923 5.285 5.94 7.772 9.065a49.474 49.474 0 016.748 10.622 14.24 14.24 0 011.035 3.707v1.188a6.845 6.845 0 01-.155 1.343 5.625 5.625 0 01-.488 1.425c-.209.489-.498.938-.857 1.331-.178.202-.357.404-.547.582a6.64 6.64 0 01-.571.44 6.072 6.072 0 01-1.19.7l-1.19.429c-.322.083-.607.13-.917.19l-1.809.32h-1.761a32.94 32.94 0 01-12.543-2.875 88.276 88.276 0 01-10.783-5.5c-3.439-2.009-6.747-4.171-9.996-6.405-12.972-8.923-24.933-19.01-37.262-28.3a101.297 101.297 0 00-9.414-6.405 22.698 22.698 0 00-2.38-1.188 5.564 5.564 0 00-1.083-.368 1.823 1.823 0 00-.452-.107h-.083c.06 0 .143 0 .333-.155.173-.128.318-.29.428-.475a1.08 1.08 0 00.096-.273v-.13-.096c.051.265.14.52.261.76a17.53 17.53 0 001.321 2.258 109.44 109.44 0 007.081 8.982c2.5 2.947 5.07 5.846 7.653 8.745 5.177 5.81 10.413 11.572 15.47 17.489 2.548 2.958 5.059 5.94 7.439 9.089a51.084 51.084 0 013.356 4.966c.569.935.998 1.948 1.273 3.006.08.343.108.695.084 1.046a2.764 2.764 0 01-.131.653 2.197 2.197 0 01-.381.666 2.904 2.904 0 01-.952.677c-.269.144-.552.26-.845.344a7.974 7.974 0 01-3.368.19 15.635 15.635 0 01-3.023-.76 41.915 41.915 0 01-5.474-2.376c-3.511-1.794-6.831-3.838-10.27-5.549a16.68 16.68 0 00-5.19-1.841 3.004 3.004 0 00-1.19.107c-.302.098-.559.3-.726.57a3.69 3.69 0 00-.19 2.376 21.956 21.956 0 001.904 5.3 50.72 50.72 0 002.797 5.037l-.714.689z" fill="#E2F244" fill-rule="nonzero"/><path d="M286.41 375.435l21.699 7.112c14.112 4.625 21.804 19.82 17.18 33.938-4.623 14.118-19.811 21.813-33.923 17.188l-21.7-7.112 16.744-51.126z" fill="#2CE577" fill-rule="nonzero"/><path d="M234.941 285.682l19.999 16.057a6.418 6.418 0 01.987 9.013l-1.52 1.895a6.406 6.406 0 01-9.01.99v-.003l-19.998-16.057a6.418 6.418 0 01-.988-9.013l1.521-1.895a6.406 6.406 0 019.01-.99v.003z" fill="#28BF65" fill-rule="nonzero"/><path d="M.38 143c3.06.48 6.094 1.022 9.14 1.551 3.047.53 6.082 1.07 9.104 1.647 6.07 1.155 12.127 2.333 18.173 3.535 6.057 1.203 12.09 2.49 18.124 3.764a620.883 620.883 0 0118.042 4.1l-.643-.084c.447.017.887.119 1.297.3l.274.132.12.085.225.168c.148.1.283.217.405.349l.19.216c.178.214.337.444.476.685.175.296.333.601.476.914.25.553.44 1.058.631 1.563.369.986.69 1.948 1 2.91.607 1.924 1.19 3.835 1.713 5.735 1.083 3.824 2.047 7.647 3.07 11.447l3.023 11.422c1.06 3.788 2.06 7.587 3.154 11.386l-2.38-1.995c4.439.204 8.89.3 13.353.348H119.459c2.237 0 4.45.072 6.676.144 4.45.145 8.89.433 13.329.758l-2.143.277 44.64-15.319 1.606-.553 1.678.457 72.273 19.587 72.213 19.73-4.641.602 61.704-35.614 3.356-1.936 3.154 2.236 34.381 24.468 34.298 24.637-7.14.348 26.514-22.748 26.574-22.689 7.069 8.345-26.181 23.085-26.289 23.001-3.44 3.006-3.76-2.657-34.512-24.276-34.404-24.42 6.51.313-61.658 35.686-2.213 1.274-2.44-.685-72.154-20.007-72.141-20.164 3.284-.096-44.83 14.873-1.07.349-1.071-.084c-4.44-.361-8.866-.77-13.294-1.31a249.378 249.378 0 01-6.616-.89c-2.202-.325-4.415-.638-6.617-.999l-13.234-2.056a453.251 453.251 0 00-13.245-1.707l-1.964-.216-.392-1.78c-.845-3.823-1.821-7.635-2.773-11.434-.952-3.8-2.011-7.575-3.118-11.327a488.75 488.75 0 00-3.451-11.206c-.595-1.851-1.19-3.69-1.857-5.482a70.954 70.954 0 00-1.011-2.622c-.179-.408-.357-.83-.524-1.202-.167-.373-.167-.3-.214-.385-.048-.084-.06-.072.06.096l.07.073c.08.084.168.16.263.228.045.044.097.08.154.108h.084l.226.12c.354.165.74.251 1.13.253l-.642-.084a763.347 763.347 0 01-18.03-4.16c-5.95-1.48-11.984-2.958-17.958-4.51-5.974-1.55-11.9-3.101-17.85-4.724-2.976-.806-5.951-1.648-8.926-2.49A541.927 541.927 0 010 144.829L.38 143z" fill="#FFD400" fill-rule="nonzero"/><path fill="#FFDC2E" fill-rule="nonzero" style="mix-blend-mode:multiply" d="M256 255.785L230.482 267 206 260.715 228.813 250z"/><path fill="#0094FF" fill-rule="nonzero" d="M293.183 196L319 263.8 190.547 308 169 210.822l43.38-5.852z"/><path d="M188 224.85a8.606 8.606 0 014.413-3.788c.793-.268 1.611-.46 2.443-.569l2.467-.418c3.274-.57 6.572-1.162 9.858-1.662a845.568 845.568 0 0119.785-3.02l9.917-1.349 9.952-1.162c6.642-.732 13.285-1.452 19.987-1.882l.178 1.046c-6.453 1.8-12.953 3.3-19.465 4.799l-9.774 2.126-9.81 1.998a852.76 852.76 0 01-19.68 3.672 843.692 843.692 0 01-9.856 1.685l-2.468.407c-.818.175-1.653.265-2.49.267a8.71 8.71 0 01-5.457-2.15zM198 239.669c2.608-3.597 5.926-4.484 9.174-5.204l9.838-2.398c6.567-1.547 13.169-2.95 19.759-4.376l9.933-1.99c3.307-.648 6.637-1.2 9.956-1.835 6.662-1.127 13.335-2.254 20.15-2.866l.19 1.08a2073.373 2073.373 0 01-19.463 5.539l-9.766 2.661-9.78 2.566c-6.53 1.643-13.037 3.346-19.604 4.916l-9.838 2.399c-3.307.839-6.602 1.558-10.549-.492z" fill="#FFF" fill-rule="nonzero"/><path fill="#2CE577" fill-rule="nonzero" d="M241 303.547L281.028 289l43.326 108.21-44.283-6.322-23.953-39.315z"/><path fill="#07CD37" d="M297 372l-48-42 13.139 39.008z"/><path fill="#2CE577" fill-rule="nonzero" d="M71.788 447.343L65 578l58-8.059L113.787 440z"/><path fill="#2CE577" fill-rule="nonzero" style="mix-blend-mode:multiply" d="M107.03 479.488L108 446l-37.323 19.459L70 480z"/><path d="M112.656 370.913L101 572.775 257.92 578l-3.964-150.043 29.584 13.168L296 371.958 242.123 337l-97.47 2.707c-29.063 3.527-30.932 12.825-31.997 31.206z" fill="#E5F520" fill-rule="nonzero"/><path d="M148 339.534s8.048 12.625 31.63 8.715 16.312-14.175 16.312-14.175L186 327.446 174.634 316.6l-13.675 1.333L148 339.534z" fill="#2CE577" fill-rule="nonzero"/><path d="M177.59 319l8.41 8.446-10.07 4.207c-5.08 1.454-11.687 1.74-16.91.814l-6.02-1.053 7.062-10.989L177.59 319z" fill="#2CE577" fill-rule="nonzero" style="mix-blend-mode:multiply"/><path d="M123.49 345.704l-11.926 5.276C96.153 358.96 75.5 385.062 75.5 385.062L62 467l61.49-11.302V345.704z" fill="#E5F520" fill-rule="nonzero"/><circle fill="#1B1C67" fill-rule="nonzero" cx="149" cy="275" r="12"/><circle fill="#1B1C67" fill-rule="nonzero" cx="154.5" cy="283.5" r="8.5"/><circle fill="#1B1C67" fill-rule="nonzero" cx="148" cy="293" r="8"/><circle fill="#1B1C67" fill-rule="nonzero" cx="165.5" cy="279.5" r="19.5"/><circle fill="#1B1C67" fill-rule="nonzero" cx="186" cy="286" r="10"/><circle fill="#1B1C67" fill-rule="nonzero" cx="167" cy="307" r="20"/><circle fill="#1B1C67" fill-rule="nonzero" cx="187.5" cy="299.5" r="6.5"/><circle fill="#1B1C67" fill-rule="nonzero" cx="152.5" cy="302.5" r="9.5"/><path d="M233.104 259.982l2.308-.78a6.433 6.433 0 018.155 4.037v.002l14.292 42.365a6.44 6.44 0 01-4.04 8.156l-2.308.78a6.433 6.433 0 01-8.155-4.038l.001-.002-14.293-42.364a6.44 6.44 0 014.04-8.156z" fill="#2CE577" fill-rule="nonzero"/><path d="M246.72 252.881l2.309-.78a6.433 6.433 0 018.155 4.038l-.001.002 14.293 42.364a6.44 6.44 0 01-4.04 8.156l-2.308.78a6.433 6.433 0 01-8.155-4.037v-.002l-14.292-42.365a6.44 6.44 0 014.04-8.156z" fill="#2CE577" fill-rule="nonzero"/><path d="M258.69 248.838l2.308-.78a6.433 6.433 0 018.155 4.037v.002l14.292 42.365a6.44 6.44 0 01-4.04 8.156l-2.308.78a6.433 6.433 0 01-8.155-4.037v-.002l-14.292-42.365a6.44 6.44 0 014.04-8.156z" fill="#2CE577" fill-rule="nonzero"/><path stroke="#240200" stroke-width="3.65" d="M259.835 264.925l10 31M245.835 269.925l10 31"/><path d="M108.933 434L115 580s-14.395-3.006-13.992-6.563c.73-6.251 7.925-139.437 7.925-139.437z" fill="#EFDD2E" fill-rule="nonzero"/><path stroke="#240200" stroke-width="3.65" d="M252 391l5 67"/><path d="M99.101 126.063l58.126-47.045a.106.106 0 01.118 0l30.629 14.652a.096.096 0 010 .132l-16.192 42.204a.107.107 0 01-.071.072L134.938 148h-.083l-35.73-21.71a.114.114 0 01-.125-.102.115.115 0 01.101-.125z" fill="#00A262" fill-rule="nonzero"/><path d="M136.427 134a24.95 24.95 0 01-1.614-2.563 11.365 11.365 0 01-1.196-2.908 2.84 2.84 0 01.167-1.993c.22-.392.571-.694.993-.855.35-.12.718-.177 1.088-.166a9.807 9.807 0 013.182.926c1.878.819 3.588 1.78 5.359 2.563.839.395 1.707.728 2.595.997a3.7 3.7 0 002.058.154.552.552 0 00.12-.06c.07 0-.144.084-.192.167a.782.782 0 00-.168.285.436.436 0 000 .19c0 .07 0 .095 0 0-.13-.312-.29-.61-.478-.89a23.295 23.295 0 00-1.639-2.196c-1.196-1.471-2.536-2.907-3.875-4.331-2.668-2.848-5.443-5.649-8.194-8.485a240.675 240.675 0 01-4.102-4.343 57.185 57.185 0 01-3.984-4.747 11.851 11.851 0 01-.968-1.554 4.497 4.497 0 01-.479-1.424 3.273 3.273 0 010-.712c.012-.156.036-.31.072-.463.063-.204.143-.402.24-.593.212-.407.524-.754.908-1.009.15-.104.31-.192.479-.261l.466-.154a3.616 3.616 0 011.124-.072c.231.01.46.045.682.107.364.069.72.172 1.065.309.568.213 1.123.459 1.662.736a55.087 55.087 0 015.3 3.322c6.566 4.605 12.702 9.494 19.209 13.659a56.363 56.363 0 009.856 5.28 12.15 12.15 0 004.521.985h.443l.359-.083h.167a.193.193 0 00-.107 0c-.08.037-.156.08-.228.13l-.131.12a.68.68 0 00-.168.154c-.107.13-.179.273-.263.391-.084.12-.095.309-.131.368-.036.06 0 .226 0 .238a.106.106 0 000 .083s0-.238-.192-.522a21.188 21.188 0 00-2.835-4.106 94.673 94.673 0 00-3.78-4.213c-2.667-2.753-5.478-5.435-8.372-8.07-5.742-5.28-11.674-10.418-17.69-15.426a758.582 758.582 0 00-9.091-7.488l-4.69-3.702c-1.363-1.448-3.827-1.496-2.679-6.076l.682-.843c4.258-2.136 4.88.273 6.59 1.294l4.606 3.762a829.492 829.492 0 019.138 7.618c6.053 5.138 12.033 10.36 17.847 15.83 2.894 2.753 5.741 5.566 8.504 8.532 1.376 1.496 2.727 3.014 4.03 4.664a26.08 26.08 0 013.673 5.72c.32.73.534 1.5.634 2.29v.819a6.006 6.006 0 01-.12.961 4.237 4.237 0 01-.358 1.056c-.163.37-.385.71-.658 1.009-.132.154-.263.308-.407.45l-.43.333a4.422 4.422 0 01-.862.498c-.263.12-.538.214-.801.309l-.562.119-1.1.19h-1.041a18.387 18.387 0 01-6.998-1.555 62.492 62.492 0 01-10.837-6.195c-6.566-4.544-12.667-9.612-18.85-14.358a49.494 49.494 0 00-4.606-3.18 9.418 9.418 0 00-1.028-.523 1.995 1.995 0 00-.347-.13s-.108 0 0 0c.13.019.264.019.394 0a2.03 2.03 0 00.61-.273c.278-.19.507-.443.67-.736.07-.135.122-.279.156-.427.006-.095.006-.19 0-.285.01-.114.01-.23 0-.344 0-.261 0-.13 0 0 .163.331.347.652.55.961a53.003 53.003 0 003.469 4.45c1.196 1.484 2.536 2.967 3.827 4.438 2.584 2.967 5.204 5.934 7.763 8.972 1.28 1.53 2.548 3.073 3.756 4.746a24.441 24.441 0 011.746 2.504 6.58 6.58 0 01.718 1.792c.04.26.04.524 0 .783-.02.186-.06.37-.12.546-.084.22-.205.425-.358.605-.13.159-.288.292-.467.392l-.275.154c-.185.09-.377.166-.574.226a6.266 6.266 0 01-3.756-.344 21.046 21.046 0 01-2.859-1.318c-1.794-.96-3.468-2.017-5.155-2.907a8.315 8.315 0 00-2.392-.961 2.037 2.037 0 00-.383 0 .347.347 0 00-.12.071c-.127.27-.156.576-.083.866a17.063 17.063 0 002.189 5.162l-.874.558z" fill="#84FF2E" fill-rule="nonzero"/><path stroke="#003FFF" stroke-width="2.74" d="M241 201.723L293.205 196 304 224"/><path fill="#EFDD2E" fill-rule="nonzero" d="M240 476l-11.248 33.295L161 539l74.88-20.388z"/><path fill="#0094FF" style="mix-blend-mode:multiply" d="M302 269.423L269 253l8.52 25z"/></g></g></svg>