<svg xmlns="http://www.w3.org/2000/svg" viewBox="0 0 223 370" width="223" height="370"><g class="uk-icon-alternate-dark" version="1.1"><g stroke="none" stroke-width="1" fill="none" fill-rule="evenodd"><path fill="#2D61E8" fill-rule="nonzero" d="M247.92 371.444H-7.468v-375H247.92z"/><path d="M138.69 71.872a1489.436 1489.436 0 00-15.785 11.439 4434.216 4434.216 0 00-15.698 11.563 2874.841 2874.841 0 00-31.193 23.35c-10.38 7.815-20.661 15.746-30.982 23.629a3609.133 3609.133 0 00-30.837 23.85l-.212-3.536a4683.905 4683.905 0 0035.405 21.2l35.453 21.2 35.443 21.2 17.683 10.582 17.645 10.706 1.927 1.195-1.118 1.927-24.236 43.066-12.22 21.46-12.305 21.413v-1.233c4.703 8.673 9.473 17.288 14.108 26.018 4.635 8.731 9.357 17.346 13.954 26.096-5.127-8.432-10.148-16.912-15.216-25.373-5.07-8.46-10.042-16.98-15.053-25.47l-.356-.587.347-.646 11.563-21.807 11.719-21.75 23.58-43.365.848 3.161-17.731-10.6-17.702-10.6-35.27-21.374-35.309-21.422a9375.546 9375.546 0 00-35.356-21.316l-2.68-1.59 2.468-1.928c10.243-7.998 20.39-16.093 30.606-24.091 10.214-7.998 20.333-16.16 30.422-24.342 10.09-8.181 20.237-16.382 30.23-24.592 5.03-4.118 10.032-8.265 15.004-12.441 4.992-4.163 9.984-8.317 14.927-12.528l5.927 7.536z" opacity=".2" fill="#FFF" fill-rule="nonzero"/><path d="M92.26 302.85c-6.59-.905-13.278-1.387-19.947-1.82a731.654 731.654 0 00-20.034-1.022c-13.366-.482-26.751-.694-40.088-.366-6.66.193-13.337.472-19.871 1.204a68.922 68.922 0 00-4.818.723 19.273 19.273 0 00-4.308 1.234 2.891 2.891 0 00-.626.366c-.126.096 0 .077.096-.318a.964.964 0 000-.405c.163.172.34.33.53.472a19.63 19.63 0 003.951 2.053 93.041 93.041 0 009.29 3.151l9.636 2.891a2202.408 2202.408 0 0119.273 5.878 1056.09 1056.09 0 0119.187 6.148c6.38 2.12 12.749 4.298 19.08 6.871 1.59.656 3.17 1.34 4.819 2.13.858.417 1.691.884 2.495 1.397a8.846 8.846 0 011.513 1.205 4.24 4.24 0 01.964 1.812c.216.79.155 1.63-.173 2.38a3.7 3.7 0 01-1.224 1.464c-.469.33-.995.569-1.552.704a8.673 8.673 0 01-.963.202c-.521.075-1.045.12-1.571.135h-2.756c-1.773-.067-3.489-.212-5.194-.376-6.804-.722-13.405-1.657-20.093-2.66-13.308-1.927-26.548-4.625-39.635-6.967a159.2 159.2 0 00-4.866-.79 35.713 35.713 0 00-4.5-.453h-.57c.02 0 .136 0 .714-.318.487-.328.868-.79 1.099-1.33.24-.582.3-1.223.173-1.84-.058-.241-.077-.27-.087-.328l-.058-.135v-.067l.116.135c.182.218.379.424.588.617a36.696 36.696 0 003.537 2.89c2.582 1.928 5.348 3.71 8.123 5.474l4.221 2.621 2.12 1.282c.665.491 1.166 1.262 1.089 3.007l-1.638 2.804c-1.523.896-2.458.81-3.219.433l-2.168-1.33a318.416 318.416 0 01-4.298-2.727 169.025 169.025 0 01-8.49-5.782 44.405 44.405 0 01-4.26-3.565 14.455 14.455 0 01-1.127-1.224 8.181 8.181 0 01-.626-.867l-.173-.28-.174-.356a3.084 3.084 0 01-.183-.424 4.924 4.924 0 01-.193-.617 4.047 4.047 0 01.222-2.457 4.124 4.124 0 011.503-1.802 5.127 5.127 0 011.88-.733 11.227 11.227 0 011.927-.144c1.838.074 3.67.267 5.483.578 1.706.26 3.382.559 5.05.867l19.754 3.807a966.91 966.91 0 0019.688 3.546c6.553 1.08 13.202 2.11 19.716 2.89 1.629.184 3.257.338 4.819.425.78.048 1.551.067 2.255.048.346 0 .684 0 .963-.058h.241a1.561 1.561 0 00-.395.222c-.35.245-.628.577-.81.964a2.573 2.573 0 00-.144 1.763c.25.742.395.742.405.79a3.46 3.46 0 00-.463-.356 19.842 19.842 0 00-1.87-1.07c-1.377-.703-2.89-1.368-4.365-2.014-6.042-2.544-12.335-4.818-18.608-7.083-6.273-2.264-12.605-4.404-18.945-6.533-6.341-2.13-12.701-4.202-19.071-6.264l-9.56-3.074a102.147 102.147 0 01-9.636-3.48 24.207 24.207 0 01-4.818-2.697 7.555 7.555 0 01-1.282-1.272l-.318-.473c-.107-.199-.2-.405-.28-.616a3.334 3.334 0 01-.192-1.638c.074-.54.279-1.052.597-1.494.234-.33.513-.625.829-.877a6.813 6.813 0 011.532-.916 23.128 23.128 0 015.339-1.464c1.725-.299 3.43-.501 5.126-.675 6.794-.655 13.492-.77 20.237-.78 13.491 0 26.867.568 40.262 1.397 6.697.434 13.385.915 20.073 1.561 6.687.646 13.346 1.35 19.996 2.486l-.27 1.31z" fill="#FFF" fill-rule="nonzero"/><path d="M128.658 160.075c5.406-3.854 10.6-8.162 15.708-12.44a624.799 624.799 0 0015.177-13.145c9.984-8.904 19.794-18.02 29.209-27.502 4.683-4.751 9.309-9.589 13.49-14.687a101.789 101.789 0 002.988-3.854 20.815 20.815 0 002.323-4.019c.111-.271.186-.556.221-.848v-.125c0 .154.145.077-.086.048a3.758 3.758 0 00-.858 0 20.497 20.497 0 00-4.423 1.301 96.221 96.221 0 00-8.933 4.221l-8.934 4.606a2129.932 2129.932 0 01-17.924 9.117 1120.221 1120.221 0 01-18.068 8.884c-6.052 2.901-12.152 5.782-18.464 8.298-1.59.626-3.18 1.243-4.818 1.792-.886.289-1.787.53-2.698.723-.59.12-1.19.178-1.793.173h-.693a3.007 3.007 0 01-1.07-.414 3.855 3.855 0 01-.318-.347 1.84 1.84 0 01-.328-.309 3.594 3.594 0 01-.559-.963 3.855 3.855 0 01-.164-.867 1.927 1.927 0 010-.415v-.26c.027-.174.07-.344.126-.51a2.63 2.63 0 01.135-.348c.081-.189.174-.372.28-.549l.269-.424.25-.347c.347-.443.665-.8.964-1.147.655-.684 1.301-1.29 1.927-1.87 1.311-1.175 2.631-2.254 3.97-3.324 5.359-4.201 10.755-8.133 16.238-12.065 5.484-3.931 11.015-7.709 16.585-11.467l16.777-11.13c1.369-.964 2.727-1.928 4.038-2.834a36.137 36.137 0 003.585-2.89 3.2 3.2 0 00.414-.463 1.686 1.686 0 00-.231.607.964.964 0 000 .231 2.4 2.4 0 000 .386 1.763 1.763 0 000 .385c.023.168.065.333.125.492.194.501.529.936.964 1.252.057 0 .212.126.202.126h.193-.222a2.14 2.14 0 00-.395 0h-.482c-1.53.046-3.055.184-4.568.414-6.379.964-12.941 2.428-19.32 3.99l-1.62-6.669c6.65-1.484 13.202-2.89 20.092-3.758a43.789 43.789 0 015.445-.376c.257-.014.514-.014.771 0 .287.01.574.035.858.077l.453.068.559.125.279.067.385.145.386.164.193.086.327.203a3.652 3.652 0 011.388 1.734c.08.203.141.413.183.627a5.31 5.31 0 01.058 1.079c0 .135 0 .26-.068.385a4.346 4.346 0 01-.79 1.725c-.37.509-.79.98-1.253 1.407a42.333 42.333 0 01-4.317 3.344c-1.407.964-2.823 1.928-4.23 2.891l-16.893 10.976a871.93 871.93 0 00-16.671 11.082c-5.474 3.778-10.976 7.632-16.238 11.564a69.196 69.196 0 00-3.797 3.055c-.597.52-1.185 1.05-1.696 1.57a7.15 7.15 0 00-.665.733l-.125.154a.964.964 0 01-.077.106c0 .058 0 0 0 0v-.058a.52.52 0 000-.212.395.395 0 000-.106 1.86 1.86 0 000-.25 1.57 1.57 0 00-.125-.559 1.686 1.686 0 00-.386-.655l-.212-.203a1.253 1.253 0 00-.193-.144 1.927 1.927 0 00-.491-.203h-.067c.236 0 .472-.025.703-.077.729-.14 1.45-.32 2.159-.54 1.513-.462 3.054-1.02 4.596-1.599 6.148-2.351 12.258-5.088 18.31-7.844 6.051-2.756 12.229-5.58 18.251-8.461 6.023-2.881 12.056-5.782 18.06-8.77l9.01-4.442a98.033 98.033 0 019.308-4.192 22.983 22.983 0 015.243-1.387 6.331 6.331 0 011.648 0c.82.1 1.565.523 2.071 1.175a3.16 3.16 0 01.511 2.275 6.746 6.746 0 01-.434 1.58 23.022 23.022 0 01-2.756 4.625 68.44 68.44 0 01-3.19 4.01c-4.403 5.155-9.144 9.925-13.953 14.628-9.637 9.357-19.63 18.309-29.806 27.05a750.616 750.616 0 01-15.418 12.883c-5.223 4.212-10.475 8.375-16.007 12.21l-.578-.78z" opacity=".3" fill="#2D61E8" fill-rule="nonzero"/><path d="M60.422 154.265c-.665.154-66.926 43.682-66.724 42.911.202-.77-2.621-69.71-2.621-69.71l48.597-23.234 20.748 50.033z" fill="#2D61E8" fill-rule="nonzero" style="mix-blend-mode:multiply"/><ellipse fill="#2CE577" fill-rule="nonzero" cx="49.744" cy="129.691" rx="27.946" ry="26.587"/><path d="M56.307 118.523l18.772 13.616.79.569-.964-.212-24.448-5.474.116-.385 34.393 13.019 1.098.404H84.87c-3.99-.096-7.95-.376-11.902-.684-3.95-.308-7.902-.713-11.843-1.127-3.941-.415-7.892-.974-11.814-1.475l-5.879-.819a7.71 7.71 0 01-5.57-2.843l.155-.713 45.715 13.154 1.417.415h-1.474l-37.255-.396v-.404l37.226.385-.058.386-45.774-12.836-.645-.183.8-.53a7.71 7.71 0 016.167-1.07l5.859.964c3.854.645 7.796 1.358 11.689 2.09 3.893.733 7.767 1.552 11.64 2.42 3.875.867 7.71 1.773 11.565 2.89l-.097.396-34.344-13.068.115-.375 24.448 5.473-.154.366L54.62 121.23l1.687-2.707z" fill="#FFF" fill-rule="nonzero"/><path fill="#2D61E8" fill-rule="nonzero" style="mix-blend-mode:multiply" d="M208.13 148.415l45.572 35.309-5.782 31.193H203.4l-7.594-38.642z"/><path fill="#141F38" fill-rule="nonzero" d="M131.684 253.396l-14.667-11.39 14.975-.357zM113.442 199.344l.559-1.29 6.196-12.789 15.525 18.84"/><path fill="#2CE577" fill-rule="nonzero" d="M154.417 195.48l-24.294-4.79-24.612 8.22-73.806 32.052 46.14 33.458 34.344-16.527 23.157-2.784-.357-1.909zM212.612 227.666l-.337-28.38 88.839 11.478a3.941 3.941 0 003.99-2.053l14.927-28.004 5.406 3.383-14.976 32.88c-1.194 2.63-4.336 9.087-7.227 9.27l-90.651 1.089"/><path fill="#2CE577" fill-rule="nonzero" style="mix-blend-mode:multiply" d="M130.123 190.69l-14.551 4.26 6.1 9.155-1.687 42.854 15.36-1.85 3.701-39.23z"/><path fill="#FAFAFB" fill-rule="nonzero" d="M253.702 201.657v32.659l-5.782.5 6.794 141.147h-114.54l14.243-126.759-22.733 4.192 1.35-51.344-12.837-16.787 39.597 1.224z"/><path fill="#E7EBF6" fill-rule="nonzero" style="mix-blend-mode:multiply" d="M200.036 199.662l11.468-4.818-10.87-2.255z"/><path d="M203.158 196.839s-4.51 7.112-17.74 4.915c-13.232-2.198-9.155-7.99-9.155-7.99l7.497-4.692 3.855-6.071 8.268 1.657 7.275 12.181z" fill="#2CE577" fill-rule="nonzero"/><path fill="#2CE577" fill-rule="nonzero" style="mix-blend-mode:multiply" d="M189.417 183.8l12.72 11.333-6.92-11.68z"/><path d="M203.37 152.694h-17.567l-2.67 24.544a6.563 6.563 0 005.782 7.228l4.404.472a7.71 7.71 0 008.48-7.16l1.571-25.084z" fill="#2CE577" fill-rule="nonzero"/><path fill="#1B1C67" fill-rule="nonzero" d="M185.803 152.675l4.731-6.756h4.057l1.35-2.033 5.406-1.35v4.732h6.755l4.057 6.756 2.698 6.755h-7.43l2.024 8.104-7.14 1.09-1.639-9.194-15.467-2.573z"/><path d="M46.853 179.908a11.699 11.699 0 00-6.63 15.187l31.714 81.13 16.122 13.154a1.677 1.677 0 002.718-1.06l2.89-20.603-31.675-81.179a11.68 11.68 0 00-15.139-6.63z" fill="#F2FF5C" fill-rule="nonzero"/><path d="M72.9 276.89l13.993 11.68c.482.395 1.85 1.416 2.785 1.165.771-.212 1.166-1.6 1.214-2.11l2.612-18.54a1.436 1.436 0 00-1.137-1.533 20.054 20.054 0 00-19.34 7.025l-.31.376a1.417 1.417 0 00.184 1.937z" fill="#F2FF5C" fill-rule="nonzero" opacity=".19" style="mix-blend-mode:multiply"/><path d="M84.88 286.642l3.18 2.65a4.732 4.732 0 001.782.25c.376-.246.687-.58.906-.973l.607-4.326a.434.434 0 00-.357-.482 6.264 6.264 0 00-6.032 2.178l-.096.125a.434.434 0 00.01.578z" fill="#240200" fill-rule="nonzero" opacity=".19" style="mix-blend-mode:multiply"/><path d="M62.66 241.398l-26.427 5.771a8.398 8.398 0 01-3.584-16.41l26.427-5.771a8.398 8.398 0 113.584 16.41zM76.814 226.072l-15.789-35.798a8.398 8.398 0 1115.368-6.778l15.789 35.798a8.398 8.398 0 01-15.368 6.778z" fill="#2CE577" fill-rule="nonzero"/><path d="M68.956 254.164l-29.675 6.48a8.398 8.398 0 01-3.584-16.409l29.675-6.48a8.398 8.398 0 113.584 16.409z" fill="#2CE577" fill-rule="nonzero"/><path fill="#F2D55C" fill-rule="nonzero" style="mix-blend-mode:multiply" d="M79.29 259.284l-5.377 18.502-1.976-1.61-5.377-13.75z"/><path d="M72.713 265.462l-29.675 6.48a8.398 8.398 0 11-3.584-16.409l29.675-6.48a8.398 8.398 0 013.584 16.409z" fill="#2CE577" fill-rule="nonzero"/><path stroke="#240200" stroke-width="3.385" d="M62.995 238.276l-27.32 5.965M66.011 250.958l-28.033 6.803"/><path fill="#2CE577" fill-rule="nonzero" style="mix-blend-mode:multiply" d="M85.997 206.996l5.59 12.672.886-14.879z"/><path fill="#E7EBF6" fill-rule="nonzero" style="mix-blend-mode:multiply" d="M165.017 276.196l28.216 34.422 29.651 6.042-33.467.058z"/><path d="M142.178 39.946c-7.998 1.61-55.381 25.759-55.381 25.759l31.8 17.712 37.38-5.715-13.799-37.756z" fill="#FF414C" fill-rule="nonzero"/><path d="M130.402 86.009c.475-.2.935-.432 1.378-.694a2.737 2.737 0 001.041-.964c.154-.24-.28-.491-.742-.616a10.774 10.774 0 00-1.513-.241c-1.031-.106-2.091-.164-3.16-.28a13.578 13.578 0 01-1.61-.25 4.645 4.645 0 01-1.638-.646 1.802 1.802 0 01-.376-.347.636.636 0 01-.212-.299.77.77 0 010-.587 1.33 1.33 0 01.453-.473c.145-.077.297-.141.453-.192a11.94 11.94 0 011.56-.588c1.032-.328 2.063-.588 3.094-.848 2.062-.501 4.134-.964 6.187-1.426 1.031-.241 2.053-.482 3.064-.742a17.21 17.21 0 002.814-.964c.058 0 .145-.096.097-.058a.299.299 0 00-.077.106.626.626 0 00-.097.328c0 .13.03.258.087.376.034.051.072.1.116.144.086.077 0 0-.058 0l-.28-.067a10.6 10.6 0 00-1.426-.135c-.964 0-2.053 0-3.093.058-4.192.192-8.423.558-12.73.558a39.866 39.866 0 01-6.543-.443 14.079 14.079 0 01-3.393-.963 7.199 7.199 0 01-1.724-1.06 2.362 2.362 0 01-.858-1.85c.018-.415.152-.815.385-1.157.081-.125.175-.241.28-.347.082-.094.172-.181.27-.26a6.813 6.813 0 011.811-1.022 17.5 17.5 0 011.648-.559c1.08-.327 2.14-.578 3.2-.81 2.12-.452 4.23-.809 6.34-1.136 8.461-1.253 16.884-2.062 25.383-2.727l.241 4.635c-8.384.308-16.835.77-25.151 1.657-2.082.232-4.154.492-6.177.839-1.012.183-2.024.376-2.978.616-.482.126-.964.26-1.378.415-.338.11-.661.258-.964.443a.896.896 0 00.116-.424.723.723 0 00-.135-.501c.29.25.615.457.964.617.85.399 1.746.69 2.669.867a37.65 37.65 0 006.07.655c4.154.174 8.365 0 12.625 0 1.07 0 2.14 0 3.247.087.581.032 1.158.113 1.725.241.145 0 .318.096.482.145.233.077.449.198.636.356.096.082.177.18.241.29.105.17.158.367.154.568a1.176 1.176 0 01-.144.51 1.532 1.532 0 01-.203.26 2.245 2.245 0 01-.559.386c-1.046.424-2.13.747-3.238.964-1.05.221-2.09.424-3.131.616-2.082.396-4.163.762-6.226 1.176a61.277 61.277 0 00-3.054.694c-.484.131-.96.289-1.427.472-.139.066-.274.14-.404.222a.308.308 0 000-.212c-.058-.087 0 0 0 0s.096.144.202.193c.853.48 1.8.772 2.775.857 1.031.154 2.082.25 3.142.405a8.875 8.875 0 011.61.337c.294.081.57.222.809.415l.192.173.135.27a.858.858 0 01-.048.588 3.084 3.084 0 01-1.31 1.137c-.478.259-.974.48-1.485.665l-.154-.453z" fill="#FFF" fill-rule="nonzero"/><path d="M235.393 81.615l-35.116 13.79s-4.818 22.164-2.563 22.356c2.255.193 46.66 12.104 46.66 12.104l15.418-24.092-24.4-24.158z" fill="#F2FF5C" fill-rule="nonzero"/><path d="M208.198 118.812a10.138 10.138 0 01-1.474-.665 3.055 3.055 0 01-1.301-1.108.858.858 0 010-.588 1.84 1.84 0 01.144-.27l.184-.174c.238-.192.514-.333.81-.414a9.771 9.771 0 011.608-.337c1.06-.154 2.11-.25 3.142-.405a6.958 6.958 0 002.785-.848c.096-.058.125-.135.193-.202.067-.068.086-.097 0 0a.27.27 0 000 .212c.048.048-.203-.145-.405-.222a11.776 11.776 0 00-1.426-.463c-.964-.27-2.024-.491-3.055-.703-2.062-.414-4.134-.78-6.225-1.176-1.041-.192-2.082-.395-3.132-.616a17.596 17.596 0 01-3.238-.964c-.205-.1-.393-.23-.56-.386a1.532 1.532 0 01-.201-.26 1.32 1.32 0 01-.145-.51.964.964 0 01.154-.56 1.06 1.06 0 01.241-.298c.187-.158.403-.28.636-.357.164 0 .337-.115.492-.144a10.33 10.33 0 011.715-.241 46.277 46.277 0 013.247-.087c4.26 0 8.471.212 12.624 0a37.881 37.881 0 006.081-.655c.917-.18 1.81-.468 2.66-.858.348-.163.672-.374.963-.626.116-.077-.135 0-.135.501a.896.896 0 00.116.424c.048.048 0 0 0 .048a4.481 4.481 0 00-.964-.453 16.61 16.61 0 00-1.378-.414 41.537 41.537 0 00-2.977-.617c-2.024-.347-4.096-.607-6.177-.838-8.317-.887-16.768-1.35-25.152-1.658l.241-4.635c8.5.665 16.922 1.474 25.383 2.727 2.11.328 4.22.684 6.34 1.137 1.07.232 2.13.482 3.2.81a17.5 17.5 0 011.648.559 6.938 6.938 0 011.763 1.07c.1.076.19.163.27.26.105.105.199.222.28.346.233.343.367.743.385 1.157a2.332 2.332 0 01-.858 1.85 7.198 7.198 0 01-1.724 1.06 14.079 14.079 0 01-3.393.964 39.867 39.867 0 01-6.543.443c-4.307 0-8.538-.366-12.73-.559-1.04 0-2.081-.077-3.093 0a9.241 9.241 0 00-1.426.125l-.27.068c-.087 0-.154.077-.068 0a.964.964 0 00.116-.145.752.752 0 000-.703s-.067-.087-.077-.106c-.01-.02 0 0 .087.058.91.403 1.856.725 2.823.963.964.26 2.034.501 3.055.742 2.053.473 4.125.964 6.187 1.427 1.03.26 2.062.52 3.093.848.534.159 1.055.355 1.561.587.14.07.274.147.405.232.188.117.344.28.453.472a.694.694 0 010 .588.77.77 0 01-.203.308 2.477 2.477 0 01-.385.337c-.5.32-1.055.539-1.638.646-.531.116-1.069.2-1.61.25-1.07.126-2.13.174-3.16.28-.507.044-1.009.124-1.504.24-.472.126-.905.386-.751.618.256.407.615.74 1.04.963.442.266.902.498 1.379.694l-.126.25z" fill="#00CBFF" fill-rule="nonzero"/><path stroke="#240200" stroke-width="3.385" d="M143.845 250.958l24.583-5.059"/></g></g><g class="uk-icon-alternate-default" version="1.1"><g stroke="none" stroke-width="1" fill="none" fill-rule="evenodd"><path fill="#2D61E8" fill-rule="nonzero" d="M247.92 371.444H-7.468v-375H247.92z"/><path d="M138.69 71.872a1489.436 1489.436 0 00-15.785 11.439 4434.216 4434.216 0 00-15.698 11.563 2874.841 2874.841 0 00-31.193 23.35c-10.38 7.815-20.661 15.746-30.982 23.629a3609.133 3609.133 0 00-30.837 23.85l-.212-3.536a4683.905 4683.905 0 0035.405 21.2l35.453 21.2 35.443 21.2 17.683 10.582 17.645 10.706 1.927 1.195-1.118 1.927-24.236 43.066-12.22 21.46-12.305 21.413v-1.233c4.703 8.673 9.473 17.288 14.108 26.018 4.635 8.731 9.357 17.346 13.954 26.096-5.127-8.432-10.148-16.912-15.216-25.373-5.07-8.46-10.042-16.98-15.053-25.47l-.356-.587.347-.646 11.563-21.807 11.719-21.75 23.58-43.365.848 3.161-17.731-10.6-17.702-10.6-35.27-21.374-35.309-21.422a9375.546 9375.546 0 00-35.356-21.316l-2.68-1.59 2.468-1.928c10.243-7.998 20.39-16.093 30.606-24.091 10.214-7.998 20.333-16.16 30.422-24.342 10.09-8.181 20.237-16.382 30.23-24.592 5.03-4.118 10.032-8.265 15.004-12.441 4.992-4.163 9.984-8.317 14.927-12.528l5.927 7.536z" opacity=".2" fill="#FFF" fill-rule="nonzero"/><path d="M92.26 302.85c-6.59-.905-13.278-1.387-19.947-1.82a731.654 731.654 0 00-20.034-1.022c-13.366-.482-26.751-.694-40.088-.366-6.66.193-13.337.472-19.871 1.204a68.922 68.922 0 00-4.818.723 19.273 19.273 0 00-4.308 1.234 2.891 2.891 0 00-.626.366c-.126.096 0 .077.096-.318a.964.964 0 000-.405c.163.172.34.33.53.472a19.63 19.63 0 003.951 2.053 93.041 93.041 0 009.29 3.151l9.636 2.891a2202.408 2202.408 0 0119.273 5.878 1056.09 1056.09 0 0119.187 6.148c6.38 2.12 12.749 4.298 19.08 6.871 1.59.656 3.17 1.34 4.819 2.13.858.417 1.691.884 2.495 1.397a8.846 8.846 0 011.513 1.205 4.24 4.24 0 01.964 1.812c.216.79.155 1.63-.173 2.38a3.7 3.7 0 01-1.224 1.464c-.469.33-.995.569-1.552.704a8.673 8.673 0 01-.963.202c-.521.075-1.045.12-1.571.135h-2.756c-1.773-.067-3.489-.212-5.194-.376-6.804-.722-13.405-1.657-20.093-2.66-13.308-1.927-26.548-4.625-39.635-6.967a159.2 159.2 0 00-4.866-.79 35.713 35.713 0 00-4.5-.453h-.57c.02 0 .136 0 .714-.318.487-.328.868-.79 1.099-1.33.24-.582.3-1.223.173-1.84-.058-.241-.077-.27-.087-.328l-.058-.135v-.067l.116.135c.182.218.379.424.588.617a36.696 36.696 0 003.537 2.89c2.582 1.928 5.348 3.71 8.123 5.474l4.221 2.621 2.12 1.282c.665.491 1.166 1.262 1.089 3.007l-1.638 2.804c-1.523.896-2.458.81-3.219.433l-2.168-1.33a318.416 318.416 0 01-4.298-2.727 169.025 169.025 0 01-8.49-5.782 44.405 44.405 0 01-4.26-3.565 14.455 14.455 0 01-1.127-1.224 8.181 8.181 0 01-.626-.867l-.173-.28-.174-.356a3.084 3.084 0 01-.183-.424 4.924 4.924 0 01-.193-.617 4.047 4.047 0 01.222-2.457 4.124 4.124 0 011.503-1.802 5.127 5.127 0 011.88-.733 11.227 11.227 0 011.927-.144c1.838.074 3.67.267 5.483.578 1.706.26 3.382.559 5.05.867l19.754 3.807a966.91 966.91 0 0019.688 3.546c6.553 1.08 13.202 2.11 19.716 2.89 1.629.184 3.257.338 4.819.425.78.048 1.551.067 2.255.048.346 0 .684 0 .963-.058h.241a1.561 1.561 0 00-.395.222c-.35.245-.628.577-.81.964a2.573 2.573 0 00-.144 1.763c.25.742.395.742.405.79a3.46 3.46 0 00-.463-.356 19.842 19.842 0 00-1.87-1.07c-1.377-.703-2.89-1.368-4.365-2.014-6.042-2.544-12.335-4.818-18.608-7.083-6.273-2.264-12.605-4.404-18.945-6.533-6.341-2.13-12.701-4.202-19.071-6.264l-9.56-3.074a102.147 102.147 0 01-9.636-3.48 24.207 24.207 0 01-4.818-2.697 7.555 7.555 0 01-1.282-1.272l-.318-.473c-.107-.199-.2-.405-.28-.616a3.334 3.334 0 01-.192-1.638c.074-.54.279-1.052.597-1.494.234-.33.513-.625.829-.877a6.813 6.813 0 011.532-.916 23.128 23.128 0 015.339-1.464c1.725-.299 3.43-.501 5.126-.675 6.794-.655 13.492-.77 20.237-.78 13.491 0 26.867.568 40.262 1.397 6.697.434 13.385.915 20.073 1.561 6.687.646 13.346 1.35 19.996 2.486l-.27 1.31z" fill="#FFF" fill-rule="nonzero"/><path d="M128.658 160.075c5.406-3.854 10.6-8.162 15.708-12.44a624.799 624.799 0 0015.177-13.145c9.984-8.904 19.794-18.02 29.209-27.502 4.683-4.751 9.309-9.589 13.49-14.687a101.789 101.789 0 002.988-3.854 20.815 20.815 0 002.323-4.019c.111-.271.186-.556.221-.848v-.125c0 .154.145.077-.086.048a3.758 3.758 0 00-.858 0 20.497 20.497 0 00-4.423 1.301 96.221 96.221 0 00-8.933 4.221l-8.934 4.606a2129.932 2129.932 0 01-17.924 9.117 1120.221 1120.221 0 01-18.068 8.884c-6.052 2.901-12.152 5.782-18.464 8.298-1.59.626-3.18 1.243-4.818 1.792-.886.289-1.787.53-2.698.723-.59.12-1.19.178-1.793.173h-.693a3.007 3.007 0 01-1.07-.414 3.855 3.855 0 01-.318-.347 1.84 1.84 0 01-.328-.309 3.594 3.594 0 01-.559-.963 3.855 3.855 0 01-.164-.867 1.927 1.927 0 010-.415v-.26c.027-.174.07-.344.126-.51a2.63 2.63 0 01.135-.348c.081-.189.174-.372.28-.549l.269-.424.25-.347c.347-.443.665-.8.964-1.147.655-.684 1.301-1.29 1.927-1.87 1.311-1.175 2.631-2.254 3.97-3.324 5.359-4.201 10.755-8.133 16.238-12.065 5.484-3.931 11.015-7.709 16.585-11.467l16.777-11.13c1.369-.964 2.727-1.928 4.038-2.834a36.137 36.137 0 003.585-2.89 3.2 3.2 0 00.414-.463 1.686 1.686 0 00-.231.607.964.964 0 000 .231 2.4 2.4 0 000 .386 1.763 1.763 0 000 .385c.023.168.065.333.125.492.194.501.529.936.964 1.252.057 0 .212.126.202.126h.193-.222a2.14 2.14 0 00-.395 0h-.482c-1.53.046-3.055.184-4.568.414-6.379.964-12.941 2.428-19.32 3.99l-1.62-6.669c6.65-1.484 13.202-2.89 20.092-3.758a43.789 43.789 0 015.445-.376c.257-.014.514-.014.771 0 .287.01.574.035.858.077l.453.068.559.125.279.067.385.145.386.164.193.086.327.203a3.652 3.652 0 011.388 1.734c.08.203.141.413.183.627a5.31 5.31 0 01.058 1.079c0 .135 0 .26-.068.385a4.346 4.346 0 01-.79 1.725c-.37.509-.79.98-1.253 1.407a42.333 42.333 0 01-4.317 3.344c-1.407.964-2.823 1.928-4.23 2.891l-16.893 10.976a871.93 871.93 0 00-16.671 11.082c-5.474 3.778-10.976 7.632-16.238 11.564a69.196 69.196 0 00-3.797 3.055c-.597.52-1.185 1.05-1.696 1.57a7.15 7.15 0 00-.665.733l-.125.154a.964.964 0 01-.077.106c0 .058 0 0 0 0v-.058a.52.52 0 000-.212.395.395 0 000-.106 1.86 1.86 0 000-.25 1.57 1.57 0 00-.125-.559 1.686 1.686 0 00-.386-.655l-.212-.203a1.253 1.253 0 00-.193-.144 1.927 1.927 0 00-.491-.203h-.067c.236 0 .472-.025.703-.077.729-.14 1.45-.32 2.159-.54 1.513-.462 3.054-1.02 4.596-1.599 6.148-2.351 12.258-5.088 18.31-7.844 6.051-2.756 12.229-5.58 18.251-8.461 6.023-2.881 12.056-5.782 18.06-8.77l9.01-4.442a98.033 98.033 0 019.308-4.192 22.983 22.983 0 015.243-1.387 6.331 6.331 0 011.648 0c.82.1 1.565.523 2.071 1.175a3.16 3.16 0 01.511 2.275 6.746 6.746 0 01-.434 1.58 23.022 23.022 0 01-2.756 4.625 68.44 68.44 0 01-3.19 4.01c-4.403 5.155-9.144 9.925-13.953 14.628-9.637 9.357-19.63 18.309-29.806 27.05a750.616 750.616 0 01-15.418 12.883c-5.223 4.212-10.475 8.375-16.007 12.21l-.578-.78z" opacity=".3" fill="#2D61E8" fill-rule="nonzero"/><path d="M60.422 154.265c-.665.154-66.926 43.682-66.724 42.911.202-.77-2.621-69.71-2.621-69.71l48.597-23.234 20.748 50.033z" fill="#2D61E8" fill-rule="nonzero" style="mix-blend-mode:multiply"/><ellipse fill="#2CE577" fill-rule="nonzero" cx="49.744" cy="129.691" rx="27.946" ry="26.587"/><path d="M56.307 118.523l18.772 13.616.79.569-.964-.212-24.448-5.474.116-.385 34.393 13.019 1.098.404H84.87c-3.99-.096-7.95-.376-11.902-.684-3.95-.308-7.902-.713-11.843-1.127-3.941-.415-7.892-.974-11.814-1.475l-5.879-.819a7.71 7.71 0 01-5.57-2.843l.155-.713 45.715 13.154 1.417.415h-1.474l-37.255-.396v-.404l37.226.385-.058.386-45.774-12.836-.645-.183.8-.53a7.71 7.71 0 016.167-1.07l5.859.964c3.854.645 7.796 1.358 11.689 2.09 3.893.733 7.767 1.552 11.64 2.42 3.875.867 7.71 1.773 11.565 2.89l-.097.396-34.344-13.068.115-.375 24.448 5.473-.154.366L54.62 121.23l1.687-2.707z" fill="#FFF" fill-rule="nonzero"/><path fill="#2D61E8" fill-rule="nonzero" style="mix-blend-mode:multiply" d="M208.13 148.415l45.572 35.309-5.782 31.193H203.4l-7.594-38.642z"/><path fill="#141F38" fill-rule="nonzero" d="M131.684 253.396l-14.667-11.39 14.975-.357zM113.442 199.344l.559-1.29 6.196-12.789 15.525 18.84"/><path fill="#2CE577" fill-rule="nonzero" d="M154.417 195.48l-24.294-4.79-24.612 8.22-73.806 32.052 46.14 33.458 34.344-16.527 23.157-2.784-.357-1.909zM212.612 227.666l-.337-28.38 88.839 11.478a3.941 3.941 0 003.99-2.053l14.927-28.004 5.406 3.383-14.976 32.88c-1.194 2.63-4.336 9.087-7.227 9.27l-90.651 1.089"/><path fill="#2CE577" fill-rule="nonzero" style="mix-blend-mode:multiply" d="M130.123 190.69l-14.551 4.26 6.1 9.155-1.687 42.854 15.36-1.85 3.701-39.23z"/><path fill="#FAFAFB" fill-rule="nonzero" d="M253.702 201.657v32.659l-5.782.5 6.794 141.147h-114.54l14.243-126.759-22.733 4.192 1.35-51.344-12.837-16.787 39.597 1.224z"/><path fill="#E7EBF6" fill-rule="nonzero" style="mix-blend-mode:multiply" d="M200.036 199.662l11.468-4.818-10.87-2.255z"/><path d="M203.158 196.839s-4.51 7.112-17.74 4.915c-13.232-2.198-9.155-7.99-9.155-7.99l7.497-4.692 3.855-6.071 8.268 1.657 7.275 12.181z" fill="#2CE577" fill-rule="nonzero"/><path fill="#2CE577" fill-rule="nonzero" style="mix-blend-mode:multiply" d="M189.417 183.8l12.72 11.333-6.92-11.68z"/><path d="M203.37 152.694h-17.567l-2.67 24.544a6.563 6.563 0 005.782 7.228l4.404.472a7.71 7.71 0 008.48-7.16l1.571-25.084z" fill="#2CE577" fill-rule="nonzero"/><path fill="#1B1C67" fill-rule="nonzero" d="M185.803 152.675l4.731-6.756h4.057l1.35-2.033 5.406-1.35v4.732h6.755l4.057 6.756 2.698 6.755h-7.43l2.024 8.104-7.14 1.09-1.639-9.194-15.467-2.573z"/><path d="M46.853 179.908a11.699 11.699 0 00-6.63 15.187l31.714 81.13 16.122 13.154a1.677 1.677 0 002.718-1.06l2.89-20.603-31.675-81.179a11.68 11.68 0 00-15.139-6.63z" fill="#F2FF5C" fill-rule="nonzero"/><path d="M72.9 276.89l13.993 11.68c.482.395 1.85 1.416 2.785 1.165.771-.212 1.166-1.6 1.214-2.11l2.612-18.54a1.436 1.436 0 00-1.137-1.533 20.054 20.054 0 00-19.34 7.025l-.31.376a1.417 1.417 0 00.184 1.937z" fill="#F2FF5C" fill-rule="nonzero" opacity=".19" style="mix-blend-mode:multiply"/><path d="M84.88 286.642l3.18 2.65a4.732 4.732 0 001.782.25c.376-.246.687-.58.906-.973l.607-4.326a.434.434 0 00-.357-.482 6.264 6.264 0 00-6.032 2.178l-.096.125a.434.434 0 00.01.578z" fill="#240200" fill-rule="nonzero" opacity=".19" style="mix-blend-mode:multiply"/><path d="M62.66 241.398l-26.427 5.771a8.398 8.398 0 01-3.584-16.41l26.427-5.771a8.398 8.398 0 113.584 16.41zM76.814 226.072l-15.789-35.798a8.398 8.398 0 1115.368-6.778l15.789 35.798a8.398 8.398 0 01-15.368 6.778z" fill="#2CE577" fill-rule="nonzero"/><path d="M68.956 254.164l-29.675 6.48a8.398 8.398 0 01-3.584-16.409l29.675-6.48a8.398 8.398 0 113.584 16.409z" fill="#2CE577" fill-rule="nonzero"/><path fill="#F2D55C" fill-rule="nonzero" style="mix-blend-mode:multiply" d="M79.29 259.284l-5.377 18.502-1.976-1.61-5.377-13.75z"/><path d="M72.713 265.462l-29.675 6.48a8.398 8.398 0 11-3.584-16.409l29.675-6.48a8.398 8.398 0 013.584 16.409z" fill="#2CE577" fill-rule="nonzero"/><path stroke="#240200" stroke-width="3.385" d="M62.995 238.276l-27.32 5.965M66.011 250.958l-28.033 6.803"/><path fill="#2CE577" fill-rule="nonzero" style="mix-blend-mode:multiply" d="M85.997 206.996l5.59 12.672.886-14.879z"/><path fill="#E7EBF6" fill-rule="nonzero" style="mix-blend-mode:multiply" d="M165.017 276.196l28.216 34.422 29.651 6.042-33.467.058z"/><path d="M142.178 39.946c-7.998 1.61-55.381 25.759-55.381 25.759l31.8 17.712 37.38-5.715-13.799-37.756z" fill="#FF414C" fill-rule="nonzero"/><path d="M130.402 86.009c.475-.2.935-.432 1.378-.694a2.737 2.737 0 001.041-.964c.154-.24-.28-.491-.742-.616a10.774 10.774 0 00-1.513-.241c-1.031-.106-2.091-.164-3.16-.28a13.578 13.578 0 01-1.61-.25 4.645 4.645 0 01-1.638-.646 1.802 1.802 0 01-.376-.347.636.636 0 01-.212-.299.77.77 0 010-.587 1.33 1.33 0 01.453-.473c.145-.077.297-.141.453-.192a11.94 11.94 0 011.56-.588c1.032-.328 2.063-.588 3.094-.848 2.062-.501 4.134-.964 6.187-1.426 1.031-.241 2.053-.482 3.064-.742a17.21 17.21 0 002.814-.964c.058 0 .145-.096.097-.058a.299.299 0 00-.077.106.626.626 0 00-.097.328c0 .13.03.258.087.376.034.051.072.1.116.144.086.077 0 0-.058 0l-.28-.067a10.6 10.6 0 00-1.426-.135c-.964 0-2.053 0-3.093.058-4.192.192-8.423.558-12.73.558a39.866 39.866 0 01-6.543-.443 14.079 14.079 0 01-3.393-.963 7.199 7.199 0 01-1.724-1.06 2.362 2.362 0 01-.858-1.85c.018-.415.152-.815.385-1.157.081-.125.175-.241.28-.347.082-.094.172-.181.27-.26a6.813 6.813 0 011.811-1.022 17.5 17.5 0 011.648-.559c1.08-.327 2.14-.578 3.2-.81 2.12-.452 4.23-.809 6.34-1.136 8.461-1.253 16.884-2.062 25.383-2.727l.241 4.635c-8.384.308-16.835.77-25.151 1.657-2.082.232-4.154.492-6.177.839-1.012.183-2.024.376-2.978.616-.482.126-.964.26-1.378.415-.338.11-.661.258-.964.443a.896.896 0 00.116-.424.723.723 0 00-.135-.501c.29.25.615.457.964.617.85.399 1.746.69 2.669.867a37.65 37.65 0 006.07.655c4.154.174 8.365 0 12.625 0 1.07 0 2.14 0 3.247.087.581.032 1.158.113 1.725.241.145 0 .318.096.482.145.233.077.449.198.636.356.096.082.177.18.241.29.105.17.158.367.154.568a1.176 1.176 0 01-.144.51 1.532 1.532 0 01-.203.26 2.245 2.245 0 01-.559.386c-1.046.424-2.13.747-3.238.964-1.05.221-2.09.424-3.131.616-2.082.396-4.163.762-6.226 1.176a61.277 61.277 0 00-3.054.694c-.484.131-.96.289-1.427.472-.139.066-.274.14-.404.222a.308.308 0 000-.212c-.058-.087 0 0 0 0s.096.144.202.193c.853.48 1.8.772 2.775.857 1.031.154 2.082.25 3.142.405a8.875 8.875 0 011.61.337c.294.081.57.222.809.415l.192.173.135.27a.858.858 0 01-.048.588 3.084 3.084 0 01-1.31 1.137c-.478.259-.974.48-1.485.665l-.154-.453z" fill="#FFF" fill-rule="nonzero"/><path d="M235.393 81.615l-35.116 13.79s-4.818 22.164-2.563 22.356c2.255.193 46.66 12.104 46.66 12.104l15.418-24.092-24.4-24.158z" fill="#F2FF5C" fill-rule="nonzero"/><path d="M208.198 118.812a10.138 10.138 0 01-1.474-.665 3.055 3.055 0 01-1.301-1.108.858.858 0 010-.588 1.84 1.84 0 01.144-.27l.184-.174c.238-.192.514-.333.81-.414a9.771 9.771 0 011.608-.337c1.06-.154 2.11-.25 3.142-.405a6.958 6.958 0 002.785-.848c.096-.058.125-.135.193-.202.067-.068.086-.097 0 0a.27.27 0 000 .212c.048.048-.203-.145-.405-.222a11.776 11.776 0 00-1.426-.463c-.964-.27-2.024-.491-3.055-.703-2.062-.414-4.134-.78-6.225-1.176-1.041-.192-2.082-.395-3.132-.616a17.596 17.596 0 01-3.238-.964c-.205-.1-.393-.23-.56-.386a1.532 1.532 0 01-.201-.26 1.32 1.32 0 01-.145-.51.964.964 0 01.154-.56 1.06 1.06 0 01.241-.298c.187-.158.403-.28.636-.357.164 0 .337-.115.492-.144a10.33 10.33 0 011.715-.241 46.277 46.277 0 013.247-.087c4.26 0 8.471.212 12.624 0a37.881 37.881 0 006.081-.655c.917-.18 1.81-.468 2.66-.858.348-.163.672-.374.963-.626.116-.077-.135 0-.135.501a.896.896 0 00.116.424c.048.048 0 0 0 .048a4.481 4.481 0 00-.964-.453 16.61 16.61 0 00-1.378-.414 41.537 41.537 0 00-2.977-.617c-2.024-.347-4.096-.607-6.177-.838-8.317-.887-16.768-1.35-25.152-1.658l.241-4.635c8.5.665 16.922 1.474 25.383 2.727 2.11.328 4.22.684 6.34 1.137 1.07.232 2.13.482 3.2.81a17.5 17.5 0 011.648.559 6.938 6.938 0 011.763 1.07c.1.076.19.163.27.26.105.105.199.222.28.346.233.343.367.743.385 1.157a2.332 2.332 0 01-.858 1.85 7.198 7.198 0 01-1.724 1.06 14.079 14.079 0 01-3.393.964 39.867 39.867 0 01-6.543.443c-4.307 0-8.538-.366-12.73-.559-1.04 0-2.081-.077-3.093 0a9.241 9.241 0 00-1.426.125l-.27.068c-.087 0-.154.077-.068 0a.964.964 0 00.116-.145.752.752 0 000-.703s-.067-.087-.077-.106c-.01-.02 0 0 .087.058.91.403 1.856.725 2.823.963.964.26 2.034.501 3.055.742 2.053.473 4.125.964 6.187 1.427 1.03.26 2.062.52 3.093.848.534.159 1.055.355 1.561.587.14.07.274.147.405.232.188.117.344.28.453.472a.694.694 0 010 .588.77.77 0 01-.203.308 2.477 2.477 0 01-.385.337c-.5.32-1.055.539-1.638.646-.531.116-1.069.2-1.61.25-1.07.126-2.13.174-3.16.28-.507.044-1.009.124-1.504.24-.472.126-.905.386-.751.618.256.407.615.74 1.04.963.442.266.902.498 1.379.694l-.126.25z" fill="#00CBFF" fill-rule="nonzero"/><path stroke="#240200" stroke-width="3.385" d="M143.845 250.958l24.583-5.059"/></g></g></svg>