<svg xmlns="http://www.w3.org/2000/svg" viewBox="0 0 310 560" width="310" height="560"><g class="uk-icon-alternate-dark" version="1.1"><g stroke="none" stroke-width="1" fill="none" fill-rule="evenodd"><path fill="#0D0D0D" fill-rule="nonzero" d="M0 0h310v560H0z"/><g transform="translate(-71 -133)"><ellipse fill="#0B3581" fill-rule="nonzero" transform="rotate(-69.04 137.587 534.935)" cx="137.587" cy="534.935" rx="36.901" ry="130.312"/><path fill="#696A6D" fill-rule="nonzero" d="M256.432 458.534L277 442.054l-21-.52z"/><path fill="#AFAA8B" fill-rule="nonzero" d="M224 376.036l41.423-.502 28.923 5.419L358 464.859l-62.3 30.675-17.9-15.595-26.365-32.77.517-2.722z"/><path d="M140.521 421.534l.479-41-127.541 16.575a5.651 5.651 0 01-5.723-2.966L0 406.083c1.72 3.807 6.238 13.127 10.377 13.399l130.169 1.57" fill="#FFAA8B" fill-rule="nonzero"/><path fill="#E2F244" fill-rule="nonzero" style="mix-blend-mode:multiply" d="M270.138 375.534L291 381.658l-22.494 22.3 4.54 44.576-21.745-1.338L246 390.912z"/><path d="M67 388.228l3.055 46.578 40.68-2.455-37.82 113.654 4.908 3.19a262.282 262.282 0 00129.509 42.688l11.694.65 17.18-142.373 19.854 8.432-5.804-59.073L268 379.317l-57.502-13.783-95.653 9.438L67 388.228z" fill="#E7EBF6" fill-rule="nonzero"/><path d="M175 456.454c0 31.09 22.676 57.138 53.182 64.08l15.818-130c-38.15.22-69 29.642-69 65.92z" fill="#F2F4F9" fill-rule="nonzero" style="mix-blend-mode:multiply"/><path d="M221 577.249a135.042 135.042 0 01-27.686 1.646c-30.05-1.21-77.784-7.505-99.314-20.361a255.154 255.154 0 0024.883 12.105c25.937 11.125 67.32 25.204 100.293 21.197L221 577.25z" fill="#D0D7E9" fill-rule="nonzero" style="mix-blend-mode:multiply"/><g opacity=".1" fill-rule="nonzero"><path fill="#DBE0F0" d="M362.371 292.954l-64.54 140.728-2.986 6.505-5.693-4.292-201.797-152.32.747-1.026L295.983 426.48l-8.68 2.226 68.14-139.029z"/><path d="M208.275 365.754l44.547 30.843-2.566 2.922.745 7.579-53.381-40.293 10.655-1.051z" fill="#000"/></g><path fill="#D0D7E9" fill-rule="nonzero" style="mix-blend-mode:multiply" d="M167 384.534l-26-11.775 23.532-2.225z"/><path d="M154 377.019s6.406 10.026 25.176 6.917c18.77-3.11 12.982-11.207 12.982-11.207l-10.64-6.603-5.448-8.592-11.733 2.337L154 377.02z" fill="#FFAA8B" fill-rule="nonzero"/><path fill="#FFAA8B" fill-rule="nonzero" style="mix-blend-mode:multiply" d="M174.89 356.534l5.11 7.96-25 11.04 9.975-16.862z"/><path fill="#1B1C67" fill-rule="nonzero" d="M182.43 350.534l10.57-3.428-5.87-14.844-4.103-19.727-11.179-8.001L168 309.65l11.24 11.503z"/><path d="M156.172 314.534h21.274c1.083 0 1.991.807 2.105 1.87l3.381 31.117a11.36 11.36 0 01-2.502 8.43 11.658 11.658 0 01-7.813 4.208l-2.836.305a12.594 12.594 0 01-9.378-2.838 12.265 12.265 0 01-4.405-8.65l-1.994-32.217a2.074 2.074 0 01.587-1.584 2.132 2.132 0 011.58-.64z" fill="#FFAA8B" fill-rule="nonzero"/><path d="M180 324.08s-17.693.829-22.114 3.953c-4.42 3.124-3.068 21.5-3.068 21.5L147 319.724l9.425-10.19h11.07l9.254 6.102 3.251 8.444z" fill="#FFAA8B" fill-rule="nonzero" style="mix-blend-mode:multiply"/><path d="M178.963 314.315l-6.83-9.781-21.512 1.949-6.483 4.329-6.323 16.725-.815 28.035 19.339.962-1.778-26.74a3.701 3.701 0 013.062-3.848l11.176-2.714.704-6.389 2.161 6.685 8.336.247-1.037-9.46z" fill="#1B1C67" fill-rule="nonzero"/><ellipse fill="#0F66DE" fill-rule="nonzero" cx="280.5" cy="427.534" rx="69.5" ry="66"/><path d="M225.06 364.487l27.958 46.767-.55.173-2.446-52.922-.428-8.836 2.226 8.553 5.002 19.237 5.149 19.199c1.7 6.4 3.498 12.775 5.247 19.163l2.63 9.587 1.32 4.787.66 2.388c.15.882.626 1.673 1.333 2.215l-1.956.185c0-8.418.33-16.8.672-25.18.196-4.185.355-8.382.6-12.567l.721-12.553.856-12.553c.282-4.173.6-8.357.954-12.53l1.028-12.528c.28-4.185 1.015-8.332 3.987-12.308l.93-1.23.158 1.23 12.94 100.256h-.612l24.986-77.278.575.185-24.962 77.29-.428 1.317-.183-1.379-13.453-100.194h1.088c2.275 4.406 2.312 8.616 1.896 12.788l-1.064 12.516a707.54 707.54 0 01-1.138 12.53l-1.223 12.516-1.382 12.492c-.452 4.172-.99 8.332-1.492 12.492-1.051 8.32-2.14 16.639-3.51 24.934l-1.957.185a3.454 3.454 0 000-2.572l-.66-2.4-1.345-4.776-2.679-9.575c-1.798-6.375-3.546-12.762-5.393-19.125l-5.48-19.101-5.637-19.064 1.81-.283 1.223 52.921v.985l-.575-.813L221 367.133l4.06-2.646z" fill="#FFF" fill-rule="nonzero"/><path d="M327.63 440.793l30.326 24.165c5.202 4.145 6.058 11.722 1.913 16.924-4.145 5.201-11.722 6.058-16.923 1.913l-30.326-24.166c-5.202-4.145-6.058-11.722-1.914-16.923 4.145-5.202 11.722-6.058 16.924-1.913z" fill="#FFAA8B" fill-rule="nonzero"/><path d="M310.056 454.985l34.057 27.138c5.202 4.145 6.058 11.722 1.914 16.924-4.145 5.201-11.722 6.058-16.924 1.913l-34.057-27.139c-5.201-4.145-6.058-11.722-1.913-16.923 4.145-5.202 11.722-6.058 16.923-1.913z" fill="#FFAA8B" fill-rule="nonzero"/><path d="M282.534 477.534L266 492.268a89.536 89.536 0 0011.412 1.198c4.496.204 9-.053 13.44-.767 7.31-1.521-.399-8.47-.399-8.47l-7.919-6.695z" fill="#0F66DE" fill-rule="nonzero" opacity=".6" style="mix-blend-mode:multiply"/><path d="M301.914 470.739l26.874 21.414c5.201 4.145 6.058 11.722 1.913 16.923-4.145 5.202-11.722 6.058-16.923 1.914l-26.874-21.415c-5.201-4.145-6.058-11.722-1.913-16.923 4.145-5.202 11.722-6.058 16.923-1.913z" fill="#FFAA8B" fill-rule="nonzero"/><path stroke="#2B2B2B" stroke-width="3.557" d="M314 458.534l29 23M304 475.534l25 20"/><path fill="#F5F5F5" fill-rule="nonzero" style="mix-blend-mode:multiply" d="M521.046 20.22L628.109.534 730 27.166 369.494 289.534 323 236.367z"/><circle fill="#FF1C8B" fill-rule="nonzero" cx="342.5" cy="266.5" r="35.5"/><ellipse fill="#35AAD0" fill-rule="nonzero" cx="81.5" cy="266.534" rx="44.5" ry="37"/><path d="M73.67 260.59a388.84 388.84 0 0029.808-5.63 439.521 439.521 0 0029.354-7.875c2.455-.724 4.909-1.472 7.363-2.171l1.007-.233a3.88 3.88 0 01.589-.11c.337-.05.68-.05 1.018 0l.344.073.233.074c.132.058.26.128.38.208.15.092.282.208.393.344.168.192.3.412.393.65.065.202.102.413.11.625.026.171.026.345 0 .515-.09.409-.294.783-.589 1.08-.18.184-.373.356-.577.515-.319.245-.601.442-.883.638a85.481 85.481 0 01-3.326 2.073l-13.18 7.752c-4.356 2.588-8.7 5.225-12.946 7.96-2.11 1.386-4.222 2.772-6.246 4.244-1.007.736-2 1.484-2.921 2.27-.437.379-.848.789-1.227 1.226-.172.171-.307.392-.295.355.012-.036 0 0 0 0a.331.331 0 000-.16 1.116 1.116 0 00-.233-.747 1.227 1.227 0 00-.552-.405 1.142 1.142 0 00-.295 0h-.024l36.508-4.93v2.244l-44.693-4.33.552-.184-33.318 30.873-.417-.43 32.778-31.486.22-.22h.332l44.853 3.532 9.817.76-9.817 1.473-36.447 5.482h-.11a1.989 1.989 0 01-.761-.086 1.792 1.792 0 01-.945-.65 1.815 1.815 0 01-.344-1.226c.014-.132.034-.263.061-.393a2.17 2.17 0 01.099-.27 4.33 4.33 0 01.773-1.226c.464-.532.965-1.032 1.497-1.497 1.006-.895 2.037-1.692 3.068-2.453 2.074-1.57 4.184-3.017 6.307-4.452 4.259-2.858 8.59-5.581 12.91-8.267l13.008-8.047c1.068-.674 2.148-1.349 3.117-2.036.246-.16.479-.343.65-.478l.136-.123-.062.086a.675.675 0 00-.11.172c-.067.133-.12.273-.16.417a2.844 2.844 0 000 .454c.002.197.04.392.11.576.078.222.199.427.356.601.104.114.22.217.344.307.104.069.215.127.331.172h.467l-.344.073-.847.221c-2.343.675-4.798 1.496-7.215 2.27-9.707 3.127-19.55 6.01-29.452 8.475-9.904 2.465-20.04 4.759-30.152 6.427l-.797-5.103z" fill="#2EFF91" fill-rule="nonzero"/><path d="M302.378 248.62c1.984.224 3.968.385 5.965.558 1.996.174 3.968.348 5.952.472 3.98.273 7.961.508 11.93.67l2.575.111-2.144 1.24c-4.05 2.482-8.072 5.02-12.065 7.617-3.919 2.68-7.616 5.93-11.424 8.671-.468.347-.974.682-1.454 1.017l-.727.509-.185.136h-.099a.473.473 0 00.136-.285.41.41 0 00-.308-.434h.443l1.775-.137c2.366-.198 4.732-.335 7.098-.496 4.745-.285 9.49-.471 14.259-.52h1.38l-1.331.346c-1.947.509-3.857 1.179-5.767 1.836l-5.73 1.973a1103.92 1103.92 0 00-11.462 3.981l-.283-2.034 45.437.633H348l-1.454.744c-6.68 3.399-13.137 7.207-19.718 10.891l-1.54.881.431-1.786 4.486-18.607L334.64 248l3.697 1.005-5.484 18.247-5.508 18.334-1.122-.906c6.692-3.349 13.458-6.574 20.001-10.221l.185.77-45.437.632-7.973.111 7.678-2.146c3.927-.967 7.85-1.955 11.769-2.964l5.866-1.501c1.959-.496 3.918-.98 5.84-1.625v.285c-4.694.794-9.402 1.439-14.122 1.997-2.366.248-4.72.546-7.086.757l-1.762.173H300.48c-.19.01-.382-.01-.566-.062a1.724 1.724 0 01-1.233-1.823c.042-.408.236-.784.542-1.054l.198-.174h.098l.185-.124.74-.484c.505-.322.985-.67 1.503-.98 4.017-2.48 8.306-4.689 12.2-7.443a549.932 549.932 0 0011.56-8.398l.419 1.415a429.58 429.58 0 00-11.93.67c-1.984.124-3.968.297-5.952.47-1.984.174-3.98.336-5.964.571l.098-4.912z" fill="#FBFF73" fill-rule="nonzero"/><path fill="#D0D7E9" fill-rule="nonzero" style="mix-blend-mode:multiply" d="M115 420.534l-4.266 11.817L71 434.828v-5.178z"/><path d="M220 394.534s-13.674 18.893-7.312 47" stroke="#2B2B2B" stroke-width="3.456"/><path d="M327.836 380.2c5.29-1.805 9.688-3.255 15.064-4.668 2.694-.7 5.412-1.351 8.191-1.892a53.448 53.448 0 018.657-1.08c1.748-.102 3.5.101 5.18.601.592.2 1.156.477 1.677.823a5.336 5.336 0 011.69 1.77c.228.383.401.796.514 1.228.063.213.112.431.147.651.059.407.059.821 0 1.229a5.92 5.92 0 01-.845 2.113 15.337 15.337 0 01-1.604 2.04c-.514.589-1.04 1.105-1.555 1.62-1.04 1.02-2.106 1.966-3.16 2.888-4.26 3.685-8.656 6.99-13.1 10.258a597.035 597.035 0 01-55.431 35.456 520.259 520.259 0 01-58.896 29.092 284.408 284.408 0 01-31.027 10.811A135.609 135.609 0 01171 478.534v-.602a134.998 134.998 0 0031.958-6.143 282.158 282.158 0 0030.525-11.536 518.365 518.365 0 0057.745-30.456 594.057 594.057 0 0054.023-36.574c4.285-3.305 8.57-6.708 12.452-10.283.98-.897 1.935-1.793 2.816-2.715.441-.454.882-.909 1.225-1.363.333-.386.636-.797.906-1.229.086-.098.073-.283 0 .246a2.589 2.589 0 000 .7 1.516 1.516 0 000 .16c.03.104.075.204.135.295.281.43.38.344.098.27a9.764 9.764 0 00-2.927-.209c-2.539.17-5.06.54-7.542 1.106-2.584.553-5.167 1.228-7.739 1.94-5.142 1.45-6.52 1.804-11.528 3.597l-5.311-5.537z" fill="#D2DB1F" fill-rule="nonzero"/></g></g></g><g class="uk-icon-alternate-default" version="1.1"><g stroke="none" stroke-width="1" fill="none" fill-rule="evenodd"><path fill="#FAFAFB" fill-rule="nonzero" d="M0 0h310v560H0z"/><g transform="translate(-71 -133)"><ellipse fill="#0B3581" fill-rule="nonzero" transform="rotate(-69.04 137.587 534.935)" cx="137.587" cy="534.935" rx="36.901" ry="130.312"/><path fill="#696A6D" fill-rule="nonzero" d="M256.432 458.534L277 442.054l-21-.52z"/><path fill="#AFAA8B" fill-rule="nonzero" d="M224 376.036l41.423-.502 28.923 5.419L358 464.859l-62.3 30.675-17.9-15.595-26.365-32.77.517-2.722z"/><path d="M140.521 421.534l.479-41-127.541 16.575a5.651 5.651 0 01-5.723-2.966L0 406.083c1.72 3.807 6.238 13.127 10.377 13.399l130.169 1.57" fill="#FFAA8B" fill-rule="nonzero"/><path fill="#E2F244" fill-rule="nonzero" style="mix-blend-mode:multiply" d="M270.138 375.534L291 381.658l-22.494 22.3 4.54 44.576-21.745-1.338L246 390.912z"/><path d="M67 388.228l3.055 46.578 40.68-2.455-37.82 113.654 4.908 3.19a262.282 262.282 0 00129.509 42.688l11.694.65 17.18-142.373 19.854 8.432-5.804-59.073L268 379.317l-57.502-13.783-95.653 9.438L67 388.228z" fill="#E7EBF6" fill-rule="nonzero"/><path d="M175 456.454c0 31.09 22.676 57.138 53.182 64.08l15.818-130c-38.15.22-69 29.642-69 65.92z" fill="#F2F4F9" fill-rule="nonzero" style="mix-blend-mode:multiply"/><path d="M221 577.249a135.042 135.042 0 01-27.686 1.646c-30.05-1.21-77.784-7.505-99.314-20.361a255.154 255.154 0 0024.883 12.105c25.937 11.125 67.32 25.204 100.293 21.197L221 577.25z" fill="#E7EBF6" fill-rule="nonzero" style="mix-blend-mode:multiply"/><path d="M362.371 292.954l-64.54 140.728-2.986 6.505-5.693-4.292-201.797-152.32.747-1.026L295.983 426.48l-8.68 2.226 68.14-139.029z" opacity=".1" fill="#000" fill-rule="nonzero"/><path fill="#E7EBF6" fill-rule="nonzero" style="mix-blend-mode:multiply" d="M167 384.534l-26-11.775 23.532-2.225z"/><path d="M154 377.019s6.406 10.026 25.176 6.917c18.77-3.11 12.982-11.207 12.982-11.207l-10.64-6.603-5.448-8.592-11.733 2.337L154 377.02z" fill="#FFAA8B" fill-rule="nonzero"/><path fill="#FFAA8B" fill-rule="nonzero" style="mix-blend-mode:multiply" d="M174.89 356.534l5.11 7.96-25 11.04 9.975-16.862z"/><path fill="#1B1C67" fill-rule="nonzero" d="M182.43 350.534l10.57-3.428-5.87-14.844-4.103-19.727-11.179-8.001L168 309.65l11.24 11.503z"/><path d="M156.172 314.534h21.274c1.083 0 1.991.807 2.105 1.87l3.381 31.117a11.36 11.36 0 01-2.502 8.43 11.658 11.658 0 01-7.813 4.208l-2.836.305a12.594 12.594 0 01-9.378-2.838 12.265 12.265 0 01-4.405-8.65l-1.994-32.217a2.074 2.074 0 01.587-1.584 2.132 2.132 0 011.58-.64z" fill="#FFAA8B" fill-rule="nonzero"/><path d="M180 324.08s-17.693.829-22.114 3.953c-4.42 3.124-3.068 21.5-3.068 21.5L147 319.724l9.425-10.19h11.07l9.254 6.102 3.251 8.444z" fill="#FFAA8B" fill-rule="nonzero" style="mix-blend-mode:multiply"/><path d="M178.963 314.315l-6.83-9.781-21.512 1.949-6.483 4.329-6.323 16.725-.815 28.035 19.339.962-1.778-26.74a3.701 3.701 0 013.062-3.848l11.176-2.714.704-6.389 2.161 6.685 8.336.247-1.037-9.46z" fill="#1B1C67" fill-rule="nonzero"/><ellipse fill="#0F66DE" fill-rule="nonzero" cx="280.5" cy="427.534" rx="69.5" ry="66"/><path d="M225.06 364.487l27.958 46.767-.55.173-2.446-52.922-.428-8.836 2.226 8.553 5.002 19.237 5.149 19.199c1.7 6.4 3.498 12.775 5.247 19.163l2.63 9.587 1.32 4.787.66 2.388c.15.882.626 1.673 1.333 2.215l-1.956.185c0-8.418.33-16.8.672-25.18.196-4.185.355-8.382.6-12.567l.721-12.553.856-12.553c.282-4.173.6-8.357.954-12.53l1.028-12.528c.28-4.185 1.015-8.332 3.987-12.308l.93-1.23.158 1.23 12.94 100.256h-.612l24.986-77.278.575.185-24.962 77.29-.428 1.317-.183-1.379-13.453-100.194h1.088c2.275 4.406 2.312 8.616 1.896 12.788l-1.064 12.516a707.54 707.54 0 01-1.138 12.53l-1.223 12.516-1.382 12.492c-.452 4.172-.99 8.332-1.492 12.492-1.051 8.32-2.14 16.639-3.51 24.934l-1.957.185a3.454 3.454 0 000-2.572l-.66-2.4-1.345-4.776-2.679-9.575c-1.798-6.375-3.546-12.762-5.393-19.125l-5.48-19.101-5.637-19.064 1.81-.283 1.223 52.921v.985l-.575-.813L221 367.133l4.06-2.646z" fill="#FFF" fill-rule="nonzero"/><path d="M327.63 440.793l30.326 24.165c5.202 4.145 6.058 11.722 1.913 16.924-4.145 5.201-11.722 6.058-16.923 1.913l-30.326-24.166c-5.202-4.145-6.058-11.722-1.914-16.923 4.145-5.202 11.722-6.058 16.924-1.913z" fill="#FFAA8B" fill-rule="nonzero"/><path d="M310.056 454.985l34.057 27.138c5.202 4.145 6.058 11.722 1.914 16.924-4.145 5.201-11.722 6.058-16.924 1.913l-34.057-27.139c-5.201-4.145-6.058-11.722-1.913-16.923 4.145-5.202 11.722-6.058 16.923-1.913z" fill="#FFAA8B" fill-rule="nonzero"/><path d="M282.534 477.534L266 492.268a89.536 89.536 0 0011.412 1.198c4.496.204 9-.053 13.44-.767 7.31-1.521-.399-8.47-.399-8.47l-7.919-6.695z" fill="#0F66DE" fill-rule="nonzero" opacity=".6" style="mix-blend-mode:multiply"/><path d="M301.914 470.739l26.874 21.414c5.201 4.145 6.058 11.722 1.913 16.923-4.145 5.202-11.722 6.058-16.923 1.914l-26.874-21.415c-5.201-4.145-6.058-11.722-1.913-16.923 4.145-5.202 11.722-6.058 16.923-1.913z" fill="#FFAA8B" fill-rule="nonzero"/><path stroke="#2B2B2B" stroke-width="3.557" d="M314 458.534l29 23M304 475.534l25 20"/><path d="M245 590.93s-44.768 12.535-120-17.396M115 420.534l-14 42" stroke="#2B2B2B" stroke-width="3.456"/><path fill="#F5F5F5" fill-rule="nonzero" style="mix-blend-mode:multiply" d="M521.046 20.22L628.109.534 730 27.166 369.494 289.534 323 236.367z"/><circle fill="#FF1C8B" fill-rule="nonzero" cx="342.5" cy="266.5" r="35.5"/><ellipse fill="#35AAD0" fill-rule="nonzero" cx="81.5" cy="266.534" rx="44.5" ry="37"/><path d="M73.67 260.59a388.84 388.84 0 0029.808-5.63 439.521 439.521 0 0029.354-7.875c2.455-.724 4.909-1.472 7.363-2.171l1.007-.233a3.88 3.88 0 01.589-.11c.337-.05.68-.05 1.018 0l.344.073.233.074c.132.058.26.128.38.208.15.092.282.208.393.344.168.192.3.412.393.65.065.202.102.413.11.625.026.171.026.345 0 .515-.09.409-.294.783-.589 1.08-.18.184-.373.356-.577.515-.319.245-.601.442-.883.638a85.481 85.481 0 01-3.326 2.073l-13.18 7.752c-4.356 2.588-8.7 5.225-12.946 7.96-2.11 1.386-4.222 2.772-6.246 4.244-1.007.736-2 1.484-2.921 2.27-.437.379-.848.789-1.227 1.226-.172.171-.307.392-.295.355.012-.036 0 0 0 0a.331.331 0 000-.16 1.116 1.116 0 00-.233-.747 1.227 1.227 0 00-.552-.405 1.142 1.142 0 00-.295 0h-.024l36.508-4.93v2.244l-44.693-4.33.552-.184-33.318 30.873-.417-.43 32.778-31.486.22-.22h.332l44.853 3.532 9.817.76-9.817 1.473-36.447 5.482h-.11a1.989 1.989 0 01-.761-.086 1.792 1.792 0 01-.945-.65 1.815 1.815 0 01-.344-1.226c.014-.132.034-.263.061-.393a2.17 2.17 0 01.099-.27 4.33 4.33 0 01.773-1.226c.464-.532.965-1.032 1.497-1.497 1.006-.895 2.037-1.692 3.068-2.453 2.074-1.57 4.184-3.017 6.307-4.452 4.259-2.858 8.59-5.581 12.91-8.267l13.008-8.047c1.068-.674 2.148-1.349 3.117-2.036.246-.16.479-.343.65-.478l.136-.123-.062.086a.675.675 0 00-.11.172c-.067.133-.12.273-.16.417a2.844 2.844 0 000 .454c.002.197.04.392.11.576.078.222.199.427.356.601.104.114.22.217.344.307.104.069.215.127.331.172h.467l-.344.073-.847.221c-2.343.675-4.798 1.496-7.215 2.27-9.707 3.127-19.55 6.01-29.452 8.475-9.904 2.465-20.04 4.759-30.152 6.427l-.797-5.103z" fill="#2EFF91" fill-rule="nonzero"/><path d="M302.378 248.62c1.984.224 3.968.385 5.965.558 1.996.174 3.968.348 5.952.472 3.98.273 7.961.508 11.93.67l2.575.111-2.144 1.24c-4.05 2.482-8.072 5.02-12.065 7.617-3.919 2.68-7.616 5.93-11.424 8.671-.468.347-.974.682-1.454 1.017l-.727.509-.185.136h-.099a.473.473 0 00.136-.285.41.41 0 00-.308-.434h.443l1.775-.137c2.366-.198 4.732-.335 7.098-.496 4.745-.285 9.49-.471 14.259-.52h1.38l-1.331.346c-1.947.509-3.857 1.179-5.767 1.836l-5.73 1.973a1103.92 1103.92 0 00-11.462 3.981l-.283-2.034 45.437.633H348l-1.454.744c-6.68 3.399-13.137 7.207-19.718 10.891l-1.54.881.431-1.786 4.486-18.607L334.64 248l3.697 1.005-5.484 18.247-5.508 18.334-1.122-.906c6.692-3.349 13.458-6.574 20.001-10.221l.185.77-45.437.632-7.973.111 7.678-2.146c3.927-.967 7.85-1.955 11.769-2.964l5.866-1.501c1.959-.496 3.918-.98 5.84-1.625v.285c-4.694.794-9.402 1.439-14.122 1.997-2.366.248-4.72.546-7.086.757l-1.762.173H300.48c-.19.01-.382-.01-.566-.062a1.724 1.724 0 01-1.233-1.823c.042-.408.236-.784.542-1.054l.198-.174h.098l.185-.124.74-.484c.505-.322.985-.67 1.503-.98 4.017-2.48 8.306-4.689 12.2-7.443a549.932 549.932 0 0011.56-8.398l.419 1.415a429.58 429.58 0 00-11.93.67c-1.984.124-3.968.297-5.952.47-1.984.174-3.98.336-5.964.571l.098-4.912z" fill="#FBFF73" fill-rule="nonzero"/><path fill="#E7EBF6" fill-rule="nonzero" style="mix-blend-mode:multiply" d="M115 420.534l-3.01 11.962L71 434.702v-5.177z"/><path d="M220 394.534s-13.674 18.893-7.312 47" stroke="#2B2B2B" stroke-width="3.456"/><path d="M327.836 380.2c5.29-1.805 9.688-3.255 15.064-4.668 2.694-.7 5.412-1.351 8.191-1.892a53.448 53.448 0 018.657-1.08c1.748-.102 3.5.101 5.18.601.592.2 1.156.477 1.677.823a5.336 5.336 0 011.69 1.77c.228.383.401.796.514 1.228.063.213.112.431.147.651.059.407.059.821 0 1.229a5.92 5.92 0 01-.845 2.113 15.337 15.337 0 01-1.604 2.04c-.514.589-1.04 1.105-1.555 1.62-1.04 1.02-2.106 1.966-3.16 2.888-4.26 3.685-8.656 6.99-13.1 10.258a597.035 597.035 0 01-55.431 35.456 520.259 520.259 0 01-58.896 29.092 284.408 284.408 0 01-31.027 10.811A135.609 135.609 0 01171 478.534v-.602a134.998 134.998 0 0031.958-6.143 282.158 282.158 0 0030.525-11.536 518.365 518.365 0 0057.745-30.456 594.057 594.057 0 0054.023-36.574c4.285-3.305 8.57-6.708 12.452-10.283.98-.897 1.935-1.793 2.816-2.715.441-.454.882-.909 1.225-1.363.333-.386.636-.797.906-1.229.086-.098.073-.283 0 .246a2.589 2.589 0 000 .7 1.516 1.516 0 000 .16c.03.104.075.204.135.295.281.43.38.344.098.27a9.764 9.764 0 00-2.927-.209c-2.539.17-5.06.54-7.542 1.106-2.584.553-5.167 1.228-7.739 1.94-5.142 1.45-6.52 1.804-11.528 3.597l-5.311-5.537z" fill="#D2DB1F" fill-rule="nonzero"/></g></g></g></svg>