<svg xmlns="http://www.w3.org/2000/svg" viewBox="0 0 240 455" width="240" height="455"><g class="uk-icon-alternate-dark" version="1.1"><g stroke="none" stroke-width="1" fill="none" fill-rule="evenodd"><path fill="#0D0D0D" fill-rule="nonzero" d="M0 0h240v455H0z"/><ellipse fill="#0B3581" fill-rule="nonzero" transform="rotate(-69.04 30.929 347.409)" cx="30.929" cy="347.409" rx="32.165" ry="113.587"/><path fill="#696A6D" fill-rule="nonzero" d="M134.455 280.932l18.322-14.239-18.707-.449z"/><path fill="#AFAA8B" fill-rule="nonzero" d="M106.031 208.542l35.992-.439 25.131 4.725 55.308 73.16-54.132 26.745-15.553-13.597-22.908-28.573.449-2.373z"/><path d="M33.32 248.767l.418-35.458-111.022 14.335a4.928 4.928 0 01-4.982-2.565L-89 235.405c1.497 3.292 5.43 11.352 9.033 11.587l113.31 1.358" fill="#FFAA8B" fill-rule="nonzero"/><path fill="#E2F244" fill-rule="nonzero" style="mix-blend-mode:multiply" d="M146.277 208.146l18.173 5.334-19.594 19.423 3.955 38.825-18.942-1.165-4.618-49.023z"/><path d="M-30.293 219.659l2.662 40.567 35.436-2.138-32.946 98.985 4.276 2.78A228.511 228.511 0 0091.953 397.03l10.187.566 14.966-123.999 17.295 7.344-5.056-51.449 15.457-17.595-50.091-12.004-83.325 8.22-41.679 11.545z" fill="#E7EBF6" fill-rule="nonzero"/><path d="M63.55 278.57c0 27.097 19.723 49.802 46.255 55.852l13.757-113.31c-33.18.193-60.011 25.837-60.011 57.457z" fill="#F2F4F9" fill-rule="nonzero" style="mix-blend-mode:multiply"/><path d="M103.712 384.674a116.666 116.666 0 01-24.18 1.454c-26.243-1.07-67.932-6.628-86.735-17.98a221.809 221.809 0 0021.731 10.69c22.652 9.823 58.793 22.255 87.59 18.717l1.594-12.881z" fill="#D0D7E9" fill-rule="nonzero" style="mix-blend-mode:multiply"/><g opacity=".1" fill-rule="nonzero"><path fill="#DBE0F0" d="M226.984 136.248l-56.356 123.026-2.608 5.687-4.97-3.752-176.207-133.16.652-.898 181.52 125.827-7.58 1.946 59.498-121.54z"/><path d="M92.72 200.09l38.816 26.907-2.19 2.496.662 6.746-46.617-35.229 9.328-.92z" fill="#000"/></g><path fill="#D0D7E9" fill-rule="nonzero" style="mix-blend-mode:multiply" d="M55.972 216.43l-22.298-10.518 20.181-1.988z"/><path d="M45.122 210.241s5.644 8.894 22.18 6.136c16.538-2.758 11.439-9.941 11.439-9.941l-9.375-5.858-4.8-7.622-10.336 2.074-9.108 15.211z" fill="#FFAA8B" fill-rule="nonzero"/><path fill="#FFAA8B" fill-rule="nonzero" style="mix-blend-mode:multiply" d="M63.668 191.674l4.437 6.884-21.7 9.545 8.658-14.58z"/><path fill="#1B1C67" fill-rule="nonzero" d="M70.2 186.49l9.278-2.973-5.152-12.87-3.602-17.103-9.813-6.938-3.378 4.437 9.866 9.973z"/><path d="M46.811 155.051h18.365c.935 0 1.718.706 1.817 1.636l2.918 27.215a10.027 10.027 0 01-8.904 11.053l-2.448.268a10.775 10.775 0 01-11.898-10.049l-1.72-28.177a1.828 1.828 0 011.87-1.946z" fill="#FFAA8B" fill-rule="nonzero"/><path d="M68.34 164.02s-15.532.727-19.412 3.463c-3.88 2.737-2.694 18.835-2.694 18.835l-6.863-26.115 8.274-8.925h9.717l8.124 5.344 2.854 7.398z" fill="#FFAA8B" fill-rule="nonzero" style="mix-blend-mode:multiply"/><path d="M66.811 155.051l-5.911-8.477-18.621 1.69-5.612 3.751-5.473 14.495-.706 24.298 16.74.834-1.54-23.175a3.207 3.207 0 012.652-3.336l9.674-2.351.609-5.538 1.87 5.794 7.216.214-.898-8.199z" fill="#1B1C67" fill-rule="nonzero"/><ellipse fill="#0F66DE" fill-rule="nonzero" cx="155.128" cy="253.598" rx="60.385" ry="57.456"/><path d="M106.662 198.878l24.436 40.62-.48.15-2.139-45.965-.374-7.675 1.946 7.43 4.372 16.707 4.5 16.676c1.486 5.558 3.057 11.096 4.586 16.644l2.298 8.327 1.155 4.158.577 2.074c.13.766.547 1.453 1.165 1.924l-1.71.16c0-7.311.288-14.591.588-21.87.17-3.635.31-7.28.523-10.915l.631-10.903.748-10.903c.246-3.624.524-7.259.834-10.882l.898-10.882c.246-3.635.887-7.237 3.485-10.69l.812-1.069.14 1.07 11.309 87.076h-.535l21.84-67.12.501.16-21.817 67.131-.374 1.144-.16-1.197-11.759-87.024h.951c1.989 3.827 2.02 7.483 1.657 11.107l-.93 10.87c-.299 3.635-.63 7.263-.994 10.883l-1.069 10.871-1.208 10.85c-.395 3.624-.866 7.237-1.304 10.85-.92 7.226-1.87 14.452-3.068 21.657l-1.71.16c.29-.716.29-1.517 0-2.234l-.577-2.084-1.176-4.148-2.341-8.316c-1.572-5.537-3.1-11.085-4.714-16.612l-4.79-16.59-4.927-16.558 1.582-.246 1.069 45.965v.855l-.502-.705-27.494-38.632 3.549-2.299z" fill="#FFF" fill-rule="nonzero"/><path d="M196.581 265.349l26.434 21.064c4.534 3.613 5.28 10.217 1.668 14.751-3.613 4.534-10.218 5.28-14.752 1.668l-26.434-21.064c-4.534-3.613-5.28-10.218-1.667-14.752 3.613-4.534 10.217-5.28 14.751-1.667z" fill="#FFAA8B" fill-rule="nonzero"/><path d="M181.263 277.72l29.686 23.655c4.534 3.613 5.28 10.217 1.668 14.751-3.613 4.534-10.218 5.28-14.752 1.668l-29.686-23.656c-4.534-3.613-5.28-10.217-1.667-14.751 3.613-4.534 10.217-5.28 14.75-1.668z" fill="#FFAA8B" fill-rule="nonzero"/><path d="M157.64 296.827l-14.217 13.148c3.244.574 6.522.93 9.813 1.069a54.517 54.517 0 0011.556-.684c6.285-1.358-.342-7.558-.342-7.558l-6.81-5.975z" fill="#0F66DE" fill-rule="nonzero" opacity=".6" style="mix-blend-mode:multiply"/><path d="M174.166 291.451l23.424 18.666c4.534 3.613 5.281 10.218 1.668 14.752-3.613 4.534-10.217 5.28-14.751 1.667l-23.425-18.666c-4.534-3.613-5.28-10.217-1.667-14.751 3.613-4.534 10.217-5.28 14.75-1.668z" fill="#FFAA8B" fill-rule="nonzero"/><path stroke="#2B2B2B" stroke-width="3.557" d="M184.792 280.483l25.302 20.224M176.251 295.843l21.572 17.189"/><path fill="#191919" fill-rule="nonzero" d="M380.22-100.86L473.44-118l88.716 23.187-313.893 228.427-40.483-46.289z"/><circle fill="#FF1C8B" fill-rule="nonzero" cx="227.026" cy="111.16" r="31.043"/><ellipse fill="#35AAD0" fill-rule="nonzero" cx="-17.733" cy="113.789" rx="38.632" ry="32.165"/><path d="M-24.766 108.306a338.564 338.564 0 0025.965-4.907 382.71 382.71 0 0025.569-6.863c2.138-.63 4.276-1.282 6.414-1.892l.876-.203c.169-.045.34-.077.513-.096a3.09 3.09 0 01.888 0l.299.064.203.064c.116.051.226.112.331.182.13.08.246.181.343.3.146.167.261.359.342.566.057.176.089.36.096.545.023.149.023.3 0 .449a1.924 1.924 0 01-.513.94 4.97 4.97 0 01-.503.45c-.278.213-.524.385-.77.556a74.455 74.455 0 01-2.896 1.806l-11.48 6.756c-3.796 2.255-7.58 4.554-11.278 6.937-1.839 1.208-3.678 2.416-5.441 3.699-.877.641-1.743 1.293-2.544 1.978-.381.33-.739.688-1.07 1.069-.15.15-.267.342-.256.31.01-.033 0 0 0 0a.289.289 0 000-.14.973.973 0 00-.203-.651 1.069 1.069 0 00-.481-.353.994.994 0 00-.257 0H-.64l31.801-4.297v1.956l-38.931-3.774.481-.16-29.022 26.906-.364-.375 28.552-27.44.193-.192h.288l39.07 3.079 8.552.662-8.551 1.283-31.748 4.778h-.097a1.732 1.732 0 01-.662-.075 1.56 1.56 0 01-.823-.566 1.582 1.582 0 01-.3-1.07c.012-.114.03-.228.054-.341.023-.08.052-.159.085-.235.163-.392.39-.753.674-1.07.405-.463.84-.899 1.304-1.303a37.134 37.134 0 012.672-2.138c1.807-1.369 3.645-2.63 5.495-3.88 3.709-2.491 7.482-4.864 11.245-7.205l11.331-7.013c.93-.588 1.87-1.176 2.715-1.774.214-.14.417-.3.567-.417l.117-.107-.053.075a.588.588 0 00-.096.15 2.01 2.01 0 00-.14.363 2.48 2.48 0 000 .395c.003.172.035.342.097.503.067.193.173.371.31.524.09.099.19.188.3.267.09.06.187.11.288.15H35.17l-.3.064-.737.192c-2.042.588-4.18 1.304-6.285 1.978-8.456 2.726-17.029 5.238-25.655 7.386-8.627 2.149-17.456 4.148-26.265 5.601l-.694-4.446z" fill="#2EFF91" fill-rule="nonzero"/><path d="M192.06 95.927c1.722.193 3.443.331 5.175.481 1.731.15 3.442.3 5.163.406 3.452.236 6.905.439 10.347.578l2.234.096-1.86 1.069a458.157 458.157 0 00-10.465 6.563c-3.399 2.31-6.606 5.11-9.909 7.472-.406.3-.844.588-1.261.877l-.631.438-.16.118h-.086a.406.406 0 00.118-.246.353.353 0 00-.268-.374h.385l1.54-.118c2.052-.171 4.104-.289 6.157-.428 4.115-.245 8.23-.406 12.368-.449h1.197l-1.155.3c-1.689.438-3.345 1.015-5.002 1.582l-4.971 1.7a961.8 961.8 0 00-9.941 3.43l-.246-1.752 39.412.545h1.433l-1.262.641c-5.793 2.93-11.395 6.21-17.103 9.386l-1.336.759.374-1.54 3.89-16.034 3.85-16.034 3.206.865-4.757 15.725-4.778 15.799-.973-.78c5.805-2.886 11.673-5.666 17.35-8.809l.16.663-39.413.545-6.916.097 6.66-1.85c3.406-.833 6.809-1.685 10.208-2.554l5.088-1.294c1.7-.428 3.4-.844 5.067-1.4v.246c-4.072.684-8.156 1.24-12.25 1.72-2.052.214-4.094.471-6.146.653l-1.529.15h-.609a1.486 1.486 0 01-1.56-1.625 1.4 1.4 0 01.47-.91l.17-.149h.086l.16-.107.642-.417c.438-.277.855-.577 1.304-.844 3.485-2.138 7.205-4.04 10.582-6.414a476.916 476.916 0 0010.027-7.237l.364 1.219c-3.442.139-6.895.342-10.348.577-1.72.107-3.442.257-5.163.406-1.72.15-3.453.29-5.174.492l.086-4.233z" fill="#FBFF73" fill-rule="nonzero"/><path fill="#E7EBF6" fill-rule="nonzero" style="mix-blend-mode:multiply" d="M-23.088 255.448l34.655-7.451-2.608 10.102-32.047 1.72z"/><path d="M102.578 225.292s-11.993 16.462-6.413 40.952" stroke="#2B2B2B" stroke-width="3.456"/><path d="M197.084 212.103c4.618-1.572 8.5-2.482 13.192-3.71 2.352-.61 4.725-1.177 7.151-1.647a46.81 46.81 0 017.558-.94 13.212 13.212 0 014.521.523c.517.175 1.01.415 1.465.716a4.65 4.65 0 011.475 1.54c.2.333.35.693.449 1.068a3.73 3.73 0 01.128 1.636 5.142 5.142 0 01-.737 1.839c-.416.63-.885 1.223-1.4 1.774-.45.513-.91.962-1.358 1.411a65.88 65.88 0 01-2.758 2.512c-3.72 3.207-7.558 6.082-11.438 8.926a521.448 521.448 0 01-48.392 30.85 454.82 454.82 0 01-51.416 25.313 248.853 248.853 0 01-27.088 9.407 118.75 118.75 0 01-28.231 4.692v-.523a118.205 118.205 0 0027.9-5.345 246.843 246.843 0 0026.649-10.038 453.067 453.067 0 0050.412-26.5 518.722 518.722 0 0047.162-31.822c3.742-2.875 7.483-5.836 10.872-8.947.855-.78 1.689-1.56 2.458-2.363.385-.395.77-.79 1.07-1.186.29-.336.554-.693.79-1.069.075-.086.064-.246 0 .214a2.245 2.245 0 000 .61 1.315 1.315 0 000 .138.92.92 0 00.118.257c.246.374.331.299.085.235a8.552 8.552 0 00-2.555-.182c-2.216.148-4.418.47-6.584.962-2.256.481-4.511 1.07-6.756 1.69-4.49 1.26-5.448 1.607-9.82 3.168l-4.922-5.21z" fill="#D2DB1F" fill-rule="nonzero"/></g></g><g class="uk-icon-alternate-default" version="1.1"><g stroke="none" stroke-width="1" fill="none" fill-rule="evenodd"><path fill="#FAFAFB" fill-rule="nonzero" d="M0 0h240v455H0z"/><g transform="translate(-89 -118)"><ellipse fill="#0B3581" fill-rule="nonzero" transform="rotate(-69.04 119.929 465.409)" cx="119.929" cy="465.409" rx="32.165" ry="113.587"/><path fill="#696A6D" fill-rule="nonzero" d="M223.455 398.932l18.322-14.239-18.707-.449z"/><path fill="#AFAA8B" fill-rule="nonzero" d="M195.031 326.542l35.992-.439 25.131 4.725 55.308 73.16-54.132 26.745-15.553-13.597-22.908-28.573.449-2.373z"/><path d="M122.32 366.767l.418-35.458-111.022 14.335a4.928 4.928 0 01-4.982-2.565L0 353.405c1.497 3.292 5.43 11.352 9.033 11.587l113.31 1.358" fill="#FFAA8B" fill-rule="nonzero"/><path fill="#E2F244" fill-rule="nonzero" style="mix-blend-mode:multiply" d="M235.277 326.146l18.173 5.334-19.594 19.423 3.955 38.825-18.942-1.165-4.618-49.023z"/><path d="M58.707 337.659l2.662 40.567 35.436-2.138-32.946 98.985 4.276 2.78a228.511 228.511 0 00112.818 37.178l10.187.566 14.966-123.999 17.295 7.344-5.056-51.449 15.457-17.595-50.091-12.004-83.325 8.22-41.679 11.545z" fill="#E7EBF6" fill-rule="nonzero"/><path d="M152.55 396.57c0 27.097 19.723 49.802 46.255 55.852l13.757-113.31c-33.18.193-60.011 25.837-60.011 57.457z" fill="#F2F4F9" fill-rule="nonzero" style="mix-blend-mode:multiply"/><path d="M192.712 502.674a116.666 116.666 0 01-24.18 1.454c-26.243-1.07-67.932-6.628-86.735-17.98a221.808 221.808 0 0021.731 10.69c22.652 9.823 58.793 22.255 87.59 18.717l1.594-12.881z" fill="#E7EBF6" fill-rule="nonzero" style="mix-blend-mode:multiply"/><path d="M315.984 254.248l-56.356 123.026-2.608 5.687-4.97-3.752L75.842 246.05l.652-.898 181.52 125.827-7.58 1.946 59.498-121.54z" opacity=".1" fill="#000" fill-rule="nonzero"/><path fill="#E7EBF6" fill-rule="nonzero" style="mix-blend-mode:multiply" d="M144.972 334.43l-22.298-10.518 20.181-1.988z"/><path d="M134.122 328.241s5.644 8.894 22.18 6.136c16.538-2.758 11.439-9.941 11.439-9.941l-9.375-5.858-4.8-7.622-10.336 2.074-9.108 15.211z" fill="#FFAA8B" fill-rule="nonzero"/><path fill="#FFAA8B" fill-rule="nonzero" style="mix-blend-mode:multiply" d="M152.668 309.674l4.437 6.884-21.7 9.545 8.658-14.58z"/><path fill="#1B1C67" fill-rule="nonzero" d="M159.2 304.49l9.278-2.973-5.152-12.87-3.602-17.103-9.813-6.938-3.378 4.437 9.866 9.973z"/><path d="M135.811 273.051h18.365c.935 0 1.718.706 1.817 1.636l2.918 27.215a10.027 10.027 0 01-8.904 11.053l-2.448.268a10.775 10.775 0 01-11.898-10.049l-1.72-28.177a1.828 1.828 0 011.87-1.946z" fill="#FFAA8B" fill-rule="nonzero"/><path d="M157.34 282.02s-15.532.727-19.412 3.463c-3.88 2.737-2.694 18.835-2.694 18.835l-6.863-26.115 8.274-8.925h9.717l8.124 5.344 2.854 7.398z" fill="#FFAA8B" fill-rule="nonzero" style="mix-blend-mode:multiply"/><path d="M155.811 273.051l-5.911-8.477-18.621 1.69-5.612 3.751-5.473 14.495-.706 24.298 16.74.834-1.54-23.175a3.207 3.207 0 012.652-3.336l9.674-2.351.609-5.538 1.87 5.794 7.216.214-.898-8.199z" fill="#1B1C67" fill-rule="nonzero"/><ellipse fill="#0F66DE" fill-rule="nonzero" cx="244.128" cy="371.598" rx="60.385" ry="57.456"/><path d="M195.662 316.878l24.436 40.62-.48.15-2.139-45.965-.374-7.675 1.946 7.43 4.372 16.707 4.5 16.676c1.486 5.558 3.057 11.096 4.586 16.644l2.298 8.327 1.155 4.158.577 2.074c.13.766.547 1.453 1.165 1.924l-1.71.16c0-7.311.288-14.591.588-21.87.17-3.635.31-7.28.523-10.915l.631-10.903.748-10.903c.246-3.624.524-7.259.834-10.882l.898-10.882c.246-3.635.887-7.237 3.485-10.69l.812-1.069.14 1.069 11.309 87.077h-.535l21.84-67.12.501.16-21.817 67.131-.374 1.144-.16-1.197-11.759-87.024h.951c1.989 3.827 2.02 7.483 1.657 11.107l-.93 10.87c-.299 3.635-.63 7.263-.994 10.883l-1.069 10.871-1.208 10.85c-.395 3.624-.866 7.237-1.304 10.85-.92 7.226-1.87 14.452-3.068 21.657l-1.71.16c.29-.716.29-1.517 0-2.234l-.577-2.084-1.176-4.148-2.341-8.316c-1.572-5.537-3.1-11.085-4.714-16.612l-4.79-16.59-4.927-16.558 1.582-.246 1.069 45.965v.855l-.502-.705-27.494-38.632 3.549-2.299z" fill="#FFF" fill-rule="nonzero"/><path d="M285.581 383.349l26.434 21.064c4.534 3.613 5.28 10.217 1.668 14.751-3.613 4.534-10.218 5.28-14.752 1.668l-26.434-21.064c-4.534-3.613-5.28-10.218-1.667-14.752 3.613-4.534 10.217-5.28 14.751-1.667z" fill="#FFAA8B" fill-rule="nonzero"/><path d="M270.263 395.72l29.686 23.655c4.534 3.613 5.28 10.217 1.668 14.751-3.613 4.534-10.218 5.28-14.752 1.668l-29.686-23.656c-4.534-3.613-5.28-10.217-1.667-14.751 3.613-4.534 10.217-5.28 14.75-1.668z" fill="#FFAA8B" fill-rule="nonzero"/><path d="M246.64 414.827l-14.217 13.148c3.244.574 6.522.93 9.813 1.069a54.517 54.517 0 0011.556-.684c6.285-1.358-.342-7.558-.342-7.558l-6.81-5.975z" fill="#0F66DE" fill-rule="nonzero" opacity=".6" style="mix-blend-mode:multiply"/><path d="M263.166 409.451l23.424 18.666c4.534 3.613 5.281 10.218 1.668 14.752-3.613 4.534-10.217 5.28-14.751 1.667l-23.425-18.666c-4.534-3.613-5.28-10.217-1.667-14.751 3.613-4.534 10.217-5.28 14.75-1.668z" fill="#FFAA8B" fill-rule="nonzero"/><path stroke="#2B2B2B" stroke-width="3.557" d="M273.792 398.483l25.302 20.224M265.251 413.843l21.572 17.189"/><path d="M213.182 514.55s-38.878 11.085-104.213-15.382M99.99 365.73l-12.571 37.028" stroke="#2B2B2B" stroke-width="3.456"/><path fill="#F5F5F5" fill-rule="nonzero" style="mix-blend-mode:multiply" d="M469.22 17.14L562.44 0l88.716 23.187-313.893 228.427-40.483-46.289z"/><circle fill="#FF1C8B" fill-rule="nonzero" cx="316.026" cy="229.16" r="31.043"/><ellipse fill="#35AAD0" fill-rule="nonzero" cx="71.267" cy="231.789" rx="38.632" ry="32.165"/><path d="M64.234 226.306a338.564 338.564 0 0025.965-4.907 382.71 382.71 0 0025.569-6.863c2.138-.63 4.276-1.282 6.414-1.892l.876-.203c.169-.045.34-.077.513-.096a3.09 3.09 0 01.888 0l.299.064.203.064c.116.051.226.112.331.182.13.08.246.181.343.3.146.167.261.359.342.566.057.176.089.36.096.545.023.149.023.3 0 .449a1.924 1.924 0 01-.513.94 4.97 4.97 0 01-.503.45c-.278.213-.524.385-.77.556a74.455 74.455 0 01-2.896 1.806l-11.48 6.756c-3.796 2.255-7.58 4.554-11.278 6.937-1.839 1.208-3.678 2.416-5.441 3.699-.877.641-1.743 1.293-2.544 1.978-.381.33-.739.688-1.07 1.069-.15.15-.267.342-.256.31.01-.033 0 0 0 0a.289.289 0 000-.14.973.973 0 00-.203-.651 1.069 1.069 0 00-.481-.353.994.994 0 00-.257 0h-.021l31.801-4.297v1.956l-38.931-3.774.481-.16-29.022 26.906-.364-.375 28.552-27.44.193-.192h.288l39.07 3.079 8.552.662-8.551 1.283-31.748 4.778h-.097a1.732 1.732 0 01-.662-.075 1.56 1.56 0 01-.823-.566 1.582 1.582 0 01-.3-1.07c.012-.114.03-.228.054-.341.023-.08.052-.159.085-.235.163-.392.39-.753.674-1.07.405-.463.84-.899 1.304-1.303a37.134 37.134 0 012.672-2.138c1.807-1.369 3.645-2.63 5.495-3.88 3.709-2.491 7.482-4.864 11.245-7.205l11.331-7.013c.93-.588 1.87-1.176 2.715-1.774.214-.14.417-.3.567-.417l.117-.107-.053.075a.588.588 0 00-.096.15 2.01 2.01 0 00-.14.363 2.48 2.48 0 000 .395c.003.172.035.342.097.503.067.193.173.371.31.524.09.099.19.188.3.267.09.06.187.11.288.15H124.17l-.3.064-.737.192c-2.042.588-4.18 1.304-6.285 1.978-8.456 2.726-17.029 5.238-25.655 7.386-8.627 2.149-17.456 4.148-26.265 5.601l-.694-4.446z" fill="#2EFF91" fill-rule="nonzero"/><path d="M281.06 213.927c1.722.193 3.443.331 5.175.481 1.731.15 3.442.3 5.163.406 3.452.236 6.905.439 10.347.578l2.234.096-1.86 1.069a458.156 458.156 0 00-10.465 6.563c-3.399 2.31-6.606 5.11-9.909 7.472-.406.3-.844.588-1.261.877l-.631.438-.16.118h-.086a.406.406 0 00.118-.246.353.353 0 00-.268-.374h.385l1.54-.118c2.052-.171 4.104-.289 6.157-.428 4.115-.245 8.23-.406 12.368-.449h1.197l-1.155.3c-1.689.438-3.345 1.015-5.002 1.582l-4.971 1.7a961.8 961.8 0 00-9.941 3.43l-.246-1.752 39.412.545h1.433l-1.262.641c-5.793 2.93-11.395 6.21-17.103 9.386l-1.336.759.374-1.54 3.89-16.034 3.85-16.034 3.206.865-4.757 15.725-4.778 15.799-.973-.78c5.805-2.886 11.673-5.666 17.35-8.809l.16.663-39.413.545-6.916.097 6.66-1.85c3.406-.833 6.809-1.685 10.208-2.554l5.088-1.294c1.7-.428 3.4-.844 5.067-1.4v.246c-4.072.684-8.156 1.24-12.25 1.72-2.052.214-4.094.471-6.146.653l-1.529.15h-.609a1.486 1.486 0 01-1.56-1.625 1.4 1.4 0 01.47-.91l.17-.149h.086l.16-.107.642-.417c.438-.277.855-.577 1.304-.844 3.485-2.138 7.205-4.04 10.582-6.414a476.914 476.914 0 0010.027-7.237l.364 1.219c-3.442.139-6.895.342-10.348.577-1.72.107-3.442.257-5.163.406-1.72.15-3.453.29-5.174.492l.086-4.233z" fill="#FBFF73" fill-rule="nonzero"/><path fill="#E7EBF6" fill-rule="nonzero" style="mix-blend-mode:multiply" d="M65.912 373.448l34.655-7.451-2.608 10.102-32.047 1.72z"/><path d="M191.578 343.292s-11.993 16.462-6.413 40.952" stroke="#2B2B2B" stroke-width="3.456"/><path d="M286.125 330.454c4.618-1.571 8.458-2.833 13.15-4.062 2.353-.61 4.726-1.176 7.152-1.646a46.81 46.81 0 017.558-.94 13.212 13.212 0 014.521.523c.517.175 1.01.415 1.465.716a4.65 4.65 0 011.475 1.54c.2.333.35.693.449 1.068a3.73 3.73 0 01.128 1.636 5.142 5.142 0 01-.737 1.839c-.416.63-.885 1.223-1.4 1.774-.45.513-.91.962-1.358 1.411a65.88 65.88 0 01-2.758 2.512c-3.72 3.207-7.558 6.082-11.438 8.926a521.448 521.448 0 01-48.392 30.85 454.82 454.82 0 01-51.416 25.313 248.853 248.853 0 01-27.088 9.407 118.75 118.75 0 01-28.231 4.692v-.523a118.205 118.205 0 0027.9-5.345 246.843 246.843 0 0026.649-10.038 453.067 453.067 0 0050.412-26.5 518.722 518.722 0 0047.162-31.822c3.742-2.875 7.483-5.836 10.872-8.947.855-.78 1.689-1.56 2.458-2.363.385-.395.77-.79 1.07-1.186.29-.336.554-.693.79-1.069.075-.086.064-.246 0 .214a2.245 2.245 0 000 .61 1.315 1.315 0 000 .138.92.92 0 00.118.257c.246.374.331.299.085.235a8.552 8.552 0 00-2.555-.182c-2.216.148-4.418.47-6.584.962-2.256.481-4.511 1.07-6.756 1.69-4.49 1.26-5.692 1.568-10.064 3.128l-4.637-4.818z" fill="#D2DB1F" fill-rule="nonzero"/></g></g></g></svg>