<svg xmlns="http://www.w3.org/2000/svg" viewBox="0 0 240 455" width="240" height="455"><g class="uk-icon-alternate-dark" version="1.1"><g stroke="none" stroke-width="1" fill="none" fill-rule="evenodd"><path fill="#0D0D0D" fill-rule="nonzero" d="M0 0h240v455H0z"/><path d="M-7.977 152.781a49.15 49.15 0 01.204-6.229c.106-1.09.268-2.175.485-3.25.25-1.299.667-2.56 1.243-3.752a8.126 8.126 0 011.737-2.39c.24-.232.5-.443.777-.628l.476-.28.524-.262a6.007 6.007 0 012.271-.57 8.515 8.515 0 011.117 0c.32.048.63.106.97.184.272.07.538.16.796.27.249.086.49.192.719.32.758.392 1.46.883 2.087 1.46.895.837 1.705 1.76 2.417 2.757.64.88 1.223 1.75 1.747 2.601 2.107 3.386 3.883 6.674 5.718 9.672a39.952 39.952 0 002.912 4.179c.42.582.888 1.128 1.398 1.634.33.33.714.601 1.135.803h.126c.04 0 0 0 0 0h-.058a1.461 1.461 0 00-.291 0 2.298 2.298 0 00-.573.107c-.404.094-.78.283-1.097.55a2.073 2.073 0 00-.572.59.889.889 0 00-.185.32c-.107.213 0 .097 0-.184a4.23 4.23 0 000-.435c.01-.174.01-.348 0-.522a37.5 37.5 0 00-.3-5.05c-.399-3.558-.971-7.214-1.66-10.851-1.32-7.303-2.855-14.634-4.3-22.004-.729-3.685-1.447-7.38-2.088-11.123-.33-1.876-.63-3.753-.893-5.668a59.293 59.293 0 01-.553-5.948v-1.673c.034-.724.151-1.441.35-2.138.067-.263.161-.52.28-.764.16-.349.365-.674.612-.967.169-.196.35-.38.544-.551.258-.213.541-.392.844-.532a3.817 3.817 0 011.942-.358c.243.008.484.047.718.116.212.05.42.114.621.193.272.116.535.251.787.406.198.117.386.25.563.397.155.126.34.261.456.377.446.464.97.967 1.3 1.412l.971 1.354c.554.89 1.126 1.78 1.573 2.66 1.883 3.511 3.359 7.003 4.853 10.504 5.708 14.005 10.678 28.049 16.89 41.59a120.328 120.328 0 0010.679 19.238 33.758 33.758 0 007.231 7.621l1.049.668.524.338.553.242 1.097.503c.253.099.517.164.786.193a.799.799 0 00.36 0 .882.882 0 00.31-.28c.34-.56.568-1.181.67-1.828.27-1.705.352-3.433.243-5.155-.078-1.79-.262-3.608-.495-5.426-.486-3.647-1.165-7.293-1.942-10.93-1.543-7.273-3.417-14.508-5.416-21.704-4.029-14.402-8.562-28.678-13.29-42.886-4.727-14.208-9.706-28.349-14.87-42.402l.776-.3c5.5 13.96 10.785 27.994 15.852 42.102 5.067 14.112 9.94 28.31 14.308 42.683 2.174 7.187 4.242 14.421 5.97 21.772.864 3.675 1.65 7.38 2.232 11.152.292 1.886.534 3.791.66 5.735.173 2.019.114 4.05-.174 6.055a8.685 8.685 0 01-1.262 3.405 4.616 4.616 0 01-4.126 2.089 7.264 7.264 0 01-1.941-.387l-1.36-.658-.747-.329-.67-.396-1.339-.822a37.508 37.508 0 01-8.426-8.415 94.614 94.614 0 01-6.29-9.653c-1.941-3.307-3.65-6.683-5.32-10.088-6.688-13.608-12.026-27.73-17.977-41.348-1.495-3.375-3.038-6.77-4.766-9.817-.427-.783-.893-1.45-1.34-2.147l-.689-.91c-.223-.25-.427-.425-.621-.657a.34.34 0 00-.088-.058c.059 0 0 0 .175.078.088.04.179.073.272.096h.379a2.61 2.61 0 001.232-.232c.197-.094.38-.214.544-.358.116-.079.218-.177.3-.29a2.04 2.04 0 00.263-.387c.049-.135.049-.106.049-.106s0 .338-.059.638c-.058.3 0 .735 0 1.132a50.12 50.12 0 00.622 5.223c.281 1.789.611 3.598.97 5.406.709 3.627 1.505 7.274 2.31 10.91 1.612 7.303 3.31 14.605 4.854 22.014.757 3.714 1.476 7.448 2.01 11.316a46.31 46.31 0 01.475 6.152v.88c0 .31 0 .61-.087.967a8.41 8.41 0 01-.69 2.554c-.154.333-.329.656-.524.967a6.78 6.78 0 01-1.058 1.112 5.308 5.308 0 01-1.728.842c-.318.078-.643.13-.97.154H20.416c-.456-.035-.91-.097-1.359-.183a14.795 14.795 0 01-1.213-.358 12.025 12.025 0 01-3.592-2.196 21.51 21.51 0 01-2.436-2.466 47.12 47.12 0 01-3.63-4.981c-2.146-3.289-3.99-6.597-5.922-9.537a17.942 17.942 0 00-1.436-2.06 9.781 9.781 0 00-1.301-1.441c-.165-.155-.272-.194-.204-.155.273.126.575.176.874.145a2.539 2.539 0 001.601-.61c.233-.241.175-.202.136-.096a7.494 7.494 0 00-.437 1.596 22.497 22.497 0 00-.281 2.311 40.842 40.842 0 00-.058 4.991l-9.135.445z" fill="#FFB0B0" fill-rule="nonzero"/><path fill="#1062C4" fill-rule="nonzero" d="M2 248.75l32.307-13.464L119.82 190 142 214.493l-96.39 72.826L15.527 306z"/><path d="M110.945 203.77l-6.196-31.04a8.07 8.07 0 016.326-9.486l.746-.15a8.055 8.055 0 019.483 6.32l-.002.004 6.195 31.04a8.07 8.07 0 01-6.326 9.485l-.745.15a8.055 8.055 0 01-9.484-6.32s0-.002.003-.004z" fill="#1062C4" fill-rule="nonzero"/><path fill="#4261E8" fill-rule="nonzero" style="mix-blend-mode:multiply" d="M18 243.232L39.604 233 55 280.773 34.715 295z"/><path d="M-66.875 283.306L-49.192 455H46L14.004 310.106l28.461-13.666-9.711-38.6L24.109 229l-74.165 30.25c-11.508 3.76-17.934 11.879-16.82 24.056z" fill="#F5F2FF" fill-rule="nonzero"/><path fill="#2C2C2C" fill-rule="nonzero" opacity=".8" d="M129.228 194.035l-13.935-44.479L138.753 126l2.973 36.826 21.772-15.39 9.342 14.247-16.262 8.01-2.77 24.342 17.806 47.248 38.96 32.264L222 348.595 158.74 391l-81.085-12.524L51 324.97l4.845-40.652 79.27-48.11z"/><circle fill="#0F66DE" fill-rule="nonzero" cx="226.5" cy="82.5" r="23.5"/><path fill="#FFF" fill-rule="nonzero" d="M219 81.442l34.277-10.414L260 69l-5.681 4.078-21.447 15.369-.805-2.074 24.548-1.89.19 2.305-24.549 1.89-4.142.322 3.361-2.396 21.423-15.392 1.042 2.028-34.585 9.378z"/><path d="M125.43 181.231l29.47-9.506c4.403-1.426 9.126.992 10.547 5.397 0 .002 0 .004-.004.007l.472 1.465a8.397 8.397 0 01-5.408 10.55l-29.47 9.507c-4.403 1.426-9.126-.993-10.547-5.398 0-.002 0-.003.004-.007l-.472-1.465a8.397 8.397 0 015.408-10.55z" fill="#4261E8" fill-rule="nonzero"/><path d="M126.8 196.616l32.31-10.422c4.572-1.481 9.475 1.03 10.95 5.603 0 .002 0 .004-.004.007l.276.856a8.717 8.717 0 01-5.615 10.953l-32.31 10.422c-4.57 1.481-9.474-1.03-10.949-5.603 0-.002 0-.004.004-.007l-.276-.856a8.717 8.717 0 015.615-10.953z" fill="#4261E8" fill-rule="nonzero"/><path fill="#000" fill-rule="nonzero" opacity=".4" d="M165 224.731L133.765 233 132 220.662 160.373 212z"/><path d="M130.657 208.61l32.31-10.423c4.57-1.48 9.473 1.03 10.949 5.603 0 .002 0 .004-.004.007l.275.856a8.717 8.717 0 01-5.614 10.953l-32.31 10.423c-4.57 1.48-9.474-1.031-10.949-5.604 0-.002-.001-.004.004-.007l-.276-.856a8.717 8.717 0 015.615-10.953z" fill="#4261E8" fill-rule="nonzero"/><path stroke="#240200" stroke-width="2.57" d="M129 197l30-9M132 211l32-9"/><path stroke="#6D7278" stroke-width="3" d="M87 266l-31.069 18.484L51 324.908 66.854 356"/><path d="M114 277.643c1.384 0 57.669-13.643 57.669-13.643L205 293.452 148.464 323 114 277.643z" fill="#DD1B3A" fill-rule="nonzero"/><path fill="#2CE577" fill-rule="nonzero" d="M69 312.375L106.997 292 126 308.775 92.128 354z"/><path fill="#C5FF27" fill-rule="nonzero" d="M125.923 336.856L180.012 333 190 386l-72-10.53z"/><path d="M197.933 280.962c-2.859-.403-5.823-.623-8.749-.815a299.546 299.546 0 00-8.787-.45c-5.87-.22-11.741-.317-17.593-.163-2.926.076-5.852.21-8.72.536-.715.087-1.42.192-2.116.326a8.54 8.54 0 00-1.906.547.953.953 0 00-.248.163c-.057.048 0 0 .048-.173.047-.172-.048-.192 0-.134.071.079.15.15.238.21a8.912 8.912 0 001.734.911c2.602 1.074 5.509 1.793 8.301 2.684l8.444 2.627c2.802.881 5.614 1.792 8.406 2.731 2.793.94 5.585 1.917 8.359 3.077.695.288 1.391.594 2.096.959.376.188.742.396 1.096.623.242.157.465.34.667.546.23.24.391.538.467.863.08.349.036.715-.124 1.035-.13.242-.316.45-.543.604-.2.135-.423.232-.657.287-.14.04-.284.069-.43.087a6.198 6.198 0 01-.685.057h-1.21c-.782 0-1.535-.096-2.279-.172-2.983-.326-5.88-.748-8.815-1.199-5.833-.9-11.647-2.05-17.393-3.096-.715-.124-1.43-.249-2.126-.354a16.017 16.017 0 00-1.973-.192h-.21c.048 0 .087 0 .41-.22.1-.076.185-.17.248-.278.095-.135.16-.289.191-.45a1.234 1.234 0 000-.413.964.964 0 000-.259c0-.077-.076-.153-.048-.124l.058.076c.081.097.17.187.266.269.49.455 1.005.88 1.544 1.274a70.515 70.515 0 003.565 2.425l1.84 1.16c.561.48 1.457.403 1.4 1.917l-.724 1.237c-1.315.747-1.678-.106-2.364-.403l-1.906-1.217c-1.248-.824-2.487-1.658-3.707-2.588a18.84 18.84 0 01-1.85-1.562 5.634 5.634 0 01-.485-.537 3.065 3.065 0 01-.572-.987 2.052 2.052 0 01-.076-.393 2.198 2.198 0 010-.547c.047-.203.128-.398.238-.575.097-.143.212-.272.343-.383.277-.224.604-.376.953-.441.292-.058.59-.084.886-.077.81.03 1.615.117 2.412.259.753.115 1.486.25 2.22.383 5.814 1.131 11.523 2.33 17.308 3.288 2.859.48 5.785.958 8.644 1.275.715.086 1.43.153 2.116.191h1c.137.011.274.011.41 0h.105l-.153.087c-.147.101-.266.24-.343.402-.12.237-.156.507-.105.767.115.374.182.364.191.393a2.46 2.46 0 00-.2-.153c-.26-.173-.53-.33-.81-.47a29.017 29.017 0 00-1.906-.891c-5.328-2.234-10.913-4.16-16.46-6.058l-8.358-2.799-4.193-1.37a44.2 44.2 0 01-4.232-1.544 10.467 10.467 0 01-2.134-1.198 2.943 2.943 0 01-.553-.546 1.558 1.558 0 01.19-2.253c.207-.172.434-.317.677-.431a9.944 9.944 0 012.354-.662 30.85 30.85 0 012.25-.306c2.982-.297 5.937-.345 8.891-.355 5.9 0 11.79.25 17.66.623 5.871.374 11.751.844 17.584 1.802l-.067.537zM96.153 287.49c-2.07 2.888-3.904 5.948-5.718 9.028a274.913 274.913 0 00-5.25 9.325c-3.386 6.274-6.616 12.645-9.465 19.15a82.343 82.343 0 00-3.698 9.864c-.23.805-.402 1.625-.517 2.454a5.315 5.315 0 000 1.097c0 .308.146.539.078.423-.068-.115-.137-.077-.117-.077a.99.99 0 00.244 0c.325-.095.636-.231.927-.404a15.945 15.945 0 002.039-1.424c1.356-1.078 2.605-2.271 3.903-3.532l3.903-3.714a654.886 654.886 0 017.874-7.372 439.305 439.305 0 018.011-7.256c2.713-2.386 5.445-4.744 8.431-6.948a28.598 28.598 0 012.4-1.597 7.943 7.943 0 011.571-.741c.21-.073.425-.125.644-.154a2.48 2.48 0 011.24.144c.33.133.622.344.849.616.193.243.335.52.42.818.078.314.098.64.058.962a6.252 6.252 0 01-.596 1.8c-.214.471-.448.895-.683 1.318a55.461 55.461 0 01-1.473 2.377c-2.04 3.041-4.137 5.938-6.303 8.834-4.294 5.774-8.958 11.346-13.32 16.899a50.423 50.423 0 00-1.522 2.069c-.224.337-.439.674-.595.962a1.712 1.712 0 00-.156.328v-.077a1.34 1.34 0 00-.146-.847 1.671 1.671 0 00-.566-.655 1.117 1.117 0 00-.313-.173l-.214-.077h-.127.293c.302-.058.683-.173 1.053-.279.771-.25 1.571-.558 2.372-.885 1.6-.664 3.21-1.415 4.8-2.194l2.381-1.184 1.19-.606c.42-.164.918-.164 1.737.423l.908 1.665c0 .962-.283 1.414-.664 1.674l-1.22.616-2.468 1.193c-1.659.78-3.327 1.54-5.074 2.233-.868.347-1.756.683-2.713.962-.528.158-1.066.283-1.61.376a6.24 6.24 0 01-1.053.096h-.371a4.556 4.556 0 01-.459-.077 2.956 2.956 0 01-.38-.125 3.038 3.038 0 01-.459-.25 2.415 2.415 0 01-.78-.905 2.566 2.566 0 01-.215-1.501c.04-.247.105-.489.195-.722.114-.305.251-.6.41-.885.283-.491.556-.905.83-1.3a48.535 48.535 0 011.687-2.242c4.557-5.658 9.172-11.038 13.505-16.706 2.156-2.81 4.293-5.697 6.284-8.574.487-.722.975-1.453 1.375-2.165.215-.357.41-.722.576-1.059.078-.164.146-.327.205-.472.031-.078.057-.158.078-.24a1.262 1.262 0 000 .327c.051.191.144.368.273.52.154.185.352.33.576.423.177.08.373.11.566.087-.3.116-.59.255-.868.414-.684.394-1.396.885-2.098 1.385-5.64 4.158-11.075 8.921-16.452 13.637a800.239 800.239 0 00-8.02 7.169l-3.942 3.541c-1.318 1.194-2.684 2.464-4.167 3.59-.76.601-1.57 1.139-2.42 1.607a6.639 6.639 0 01-1.561.626c-.36.09-.733.12-1.103.086a2.288 2.288 0 01-1.336-.606 3 3 0 01-.82-2.03 8.202 8.202 0 01.088-1.579c.146-.934.358-1.857.634-2.762a75.774 75.774 0 014.06-10.085c3.073-6.505 6.498-12.809 10.079-19.016A182.074 182.074 0 0195.518 287l.635.49z" fill="#FFF" fill-rule="nonzero"/><path d="M195.69 365.398c-3.236-1.512-6.627-2.759-9.998-3.927-3.371-1.168-6.8-2.356-10.22-3.446-6.85-2.17-13.767-4.163-20.743-5.763a85.165 85.165 0 00-10.464-1.806 18.268 18.268 0 00-2.526 0c-.37.02-.737.076-1.097.166-.311.07-.506.246-.408.158a.345.345 0 00.058-.128.82.82 0 00.078.226 3.8 3.8 0 00.582.844c.547.632 1.141 1.22 1.778 1.757 1.322 1.13 2.73 2.15 4.217 3.2l4.401 3.172a888.003 888.003 0 018.744 6.401c2.914 2.16 5.83 4.34 8.666 6.568 2.837 2.229 5.713 4.497 8.443 7.04.71.652 1.388 1.34 2.03 2.061.383.438.725.911 1.02 1.414.105.198.193.405.263.618.137.4.167.83.087 1.247-.062.363-.22.702-.457.982-.199.24-.447.435-.728.57-.307.14-.636.223-.972.245a6.205 6.205 0 01-1.943-.246 17.563 17.563 0 01-1.428-.432c-.904-.314-1.778-.658-2.633-.982a182.317 182.317 0 01-9.92-4.575c-6.518-3.16-12.901-6.725-19.207-10.004-.787-.392-1.574-.785-2.331-1.109a11.004 11.004 0 00-1.07-.412l-.359-.099h.078c.297-.019.582-.128.816-.314.238-.173.425-.407.544-.677.058-.107.097-.223.117-.344a.992.992 0 000-.226v-.127c0-.05 0-.069 0 0 .02.1.05.199.087.294.14.336.3.664.476.982a30.88 30.88 0 001.312 2.18c.972 1.453 1.943 2.945 3.05 4.339l1.613 2.13.826 1.06c.233.384.32.884-.107 1.797l-1.486 1.208c-.61.24-1.302.11-1.788-.334l-.826-1.1-1.641-2.208c-1.079-1.493-2.138-3.005-3.148-4.595a52.919 52.919 0 01-1.458-2.504c-.255-.478-.479-.973-.67-1.482a5.551 5.551 0 01-.291-.982 3.313 3.313 0 01-.049-.834v-.403c.04-.171.096-.339.165-.5.163-.39.424-.728.758-.982a2.644 2.644 0 011.457-.5c.251-.006.502.014.748.058.33.059.654.14.972.245.534.177.971.373 1.448.57.884.402 1.71.825 2.526 1.247 6.45 3.455 12.63 7.01 19.051 10.22 3.187 1.61 6.442 3.19 9.658 4.604.806.344 1.612.678 2.409.982.389.137.777.265 1.146.363l.506.118h.252a.964.964 0 00-.32.098 1.45 1.45 0 00-.768.982c-.053.19-.053.39 0 .58 0 .058 0 0 0 0a6.17 6.17 0 00-.573-.776c-.515-.61-1.127-1.228-1.749-1.826-5.168-4.791-10.89-9.278-16.516-13.745a609.797 609.797 0 00-8.579-6.588l-4.313-3.269c-1.438-1.07-2.915-2.18-4.334-3.436a17.985 17.985 0 01-2.04-2.091 6.44 6.44 0 01-.903-1.434 3.049 3.049 0 01-.282-1.07 2.257 2.257 0 01.35-1.433 3.008 3.008 0 011.865-1.188 8.658 8.658 0 011.574-.216c.973-.031 1.947.005 2.915.108a78.988 78.988 0 0110.755 2.12c7.014 1.827 13.893 4.026 20.713 6.402A180.635 180.635 0 01196 364.77l-.31.628z" fill="#0055E7" fill-rule="nonzero"/><path d="M203 319.52c0 2.248-.859 4.406-2.387 5.996-1.528 1.59-3.6 2.484-5.761 2.484-4.494 0-10.852-2.007-10.852-6.723 0-4.716 6.358-10.277 10.852-10.277 2.167 0 4.245.899 5.774 2.498 1.53 1.598 2.384 3.765 2.374 6.021z" fill="#EBA0A4" fill-rule="nonzero" opacity=".7"/><path fill="#FFF" fill-rule="nonzero" d="M195.342 319L207 320.538l-.664 3.462L195 320.778z"/><path fill="#FFF" fill-rule="nonzero" opacity=".1" d="M414 425.638L235.386 598.964 104.1 719 37 665.65 328.105 376z"/><path fill="#FFB0B0" fill-rule="nonzero" d="M132.208 247.452L154 243l-5.023 16.237L115 265z"/><path fill="#D0D7E9" fill-rule="nonzero" d="M7.292 314.817l24.355 75.212-17.579-79.937z"/><path stroke="#6D7278" stroke-width="3" d="M219 328l3 20-15 11.5"/></g></g><g class="uk-icon-alternate-default" version="1.1"><g stroke="none" stroke-width="1" fill="none" fill-rule="evenodd"><path fill="#F5F5F5" fill-rule="nonzero" d="M0 0h240v455H0z"/><path d="M-7.977 152.781a49.15 49.15 0 01.204-6.229c.106-1.09.268-2.175.485-3.25.25-1.299.667-2.56 1.243-3.752a8.126 8.126 0 011.737-2.39c.24-.232.5-.443.777-.628l.476-.28.524-.262a6.007 6.007 0 012.271-.57 8.515 8.515 0 011.117 0c.32.048.63.106.97.184.272.07.538.16.796.27.249.086.49.192.719.32.758.392 1.46.883 2.087 1.46.895.837 1.705 1.76 2.417 2.757.64.88 1.223 1.75 1.747 2.601 2.107 3.386 3.883 6.674 5.718 9.672a39.952 39.952 0 002.912 4.179c.42.582.888 1.128 1.398 1.634.33.33.714.601 1.135.803h.126c.04 0 0 0 0 0h-.058a1.461 1.461 0 00-.291 0 2.298 2.298 0 00-.573.107c-.404.094-.78.283-1.097.55a2.073 2.073 0 00-.572.59.889.889 0 00-.185.32c-.107.213 0 .097 0-.184a4.23 4.23 0 000-.435c.01-.174.01-.348 0-.522a37.5 37.5 0 00-.3-5.05c-.399-3.558-.971-7.214-1.66-10.851-1.32-7.303-2.855-14.634-4.3-22.004-.729-3.685-1.447-7.38-2.088-11.123-.33-1.876-.63-3.753-.893-5.668a59.293 59.293 0 01-.553-5.948v-1.673c.034-.724.151-1.441.35-2.138.067-.263.161-.52.28-.764.16-.349.365-.674.612-.967.169-.196.35-.38.544-.551.258-.213.541-.392.844-.532a3.817 3.817 0 011.942-.358c.243.008.484.047.718.116.212.05.42.114.621.193.272.116.535.251.787.406.198.117.386.25.563.397.155.126.34.261.456.377.446.464.97.967 1.3 1.412l.971 1.354c.554.89 1.126 1.78 1.573 2.66 1.883 3.511 3.359 7.003 4.853 10.504 5.708 14.005 10.678 28.049 16.89 41.59a120.328 120.328 0 0010.679 19.238 33.758 33.758 0 007.231 7.621l1.049.668.524.338.553.242 1.097.503c.253.099.517.164.786.193a.799.799 0 00.36 0 .882.882 0 00.31-.28c.34-.56.568-1.181.67-1.828.27-1.705.352-3.433.243-5.155-.078-1.79-.262-3.608-.495-5.426-.486-3.647-1.165-7.293-1.942-10.93-1.543-7.273-3.417-14.508-5.416-21.704-4.029-14.402-8.562-28.678-13.29-42.886-4.727-14.208-9.706-28.349-14.87-42.402l.776-.3c5.5 13.96 10.785 27.994 15.852 42.102 5.067 14.112 9.94 28.31 14.308 42.683 2.174 7.187 4.242 14.421 5.97 21.772.864 3.675 1.65 7.38 2.232 11.152.292 1.886.534 3.791.66 5.735.173 2.019.114 4.05-.174 6.055a8.685 8.685 0 01-1.262 3.405 4.616 4.616 0 01-4.126 2.089 7.264 7.264 0 01-1.941-.387l-1.36-.658-.747-.329-.67-.396-1.339-.822a37.508 37.508 0 01-8.426-8.415 94.614 94.614 0 01-6.29-9.653c-1.941-3.307-3.65-6.683-5.32-10.088-6.688-13.608-12.026-27.73-17.977-41.348-1.495-3.375-3.038-6.77-4.766-9.817-.427-.783-.893-1.45-1.34-2.147l-.689-.91c-.223-.25-.427-.425-.621-.657a.34.34 0 00-.088-.058c.059 0 0 0 .175.078.088.04.179.073.272.096h.379a2.61 2.61 0 001.232-.232c.197-.094.38-.214.544-.358.116-.079.218-.177.3-.29a2.04 2.04 0 00.263-.387c.049-.135.049-.106.049-.106s0 .338-.059.638c-.058.3 0 .735 0 1.132a50.12 50.12 0 00.622 5.223c.281 1.789.611 3.598.97 5.406.709 3.627 1.505 7.274 2.31 10.91 1.612 7.303 3.31 14.605 4.854 22.014.757 3.714 1.476 7.448 2.01 11.316a46.31 46.31 0 01.475 6.152v.88c0 .31 0 .61-.087.967a8.41 8.41 0 01-.69 2.554c-.154.333-.329.656-.524.967a6.78 6.78 0 01-1.058 1.112 5.308 5.308 0 01-1.728.842c-.318.078-.643.13-.97.154H20.416c-.456-.035-.91-.097-1.359-.183a14.795 14.795 0 01-1.213-.358 12.025 12.025 0 01-3.592-2.196 21.51 21.51 0 01-2.436-2.466 47.12 47.12 0 01-3.63-4.981c-2.146-3.289-3.99-6.597-5.922-9.537a17.942 17.942 0 00-1.436-2.06 9.781 9.781 0 00-1.301-1.441c-.165-.155-.272-.194-.204-.155.273.126.575.176.874.145a2.539 2.539 0 001.601-.61c.233-.241.175-.202.136-.096a7.494 7.494 0 00-.437 1.596 22.497 22.497 0 00-.281 2.311 40.842 40.842 0 00-.058 4.991l-9.135.445z" fill="#FFB0B0" fill-rule="nonzero"/><path fill="#1062C4" fill-rule="nonzero" d="M2 248.75l32.307-13.464L119.82 190 142 214.493l-96.39 72.826L15.527 306z"/><path d="M110.945 203.77l-6.196-31.04a8.07 8.07 0 016.326-9.486l.746-.15a8.055 8.055 0 019.483 6.32l-.002.004 6.195 31.04a8.07 8.07 0 01-6.326 9.485l-.745.15a8.055 8.055 0 01-9.484-6.32s0-.002.003-.004z" fill="#1062C4" fill-rule="nonzero"/><path fill="#4261E8" fill-rule="nonzero" style="mix-blend-mode:multiply" d="M18 243.232L39.604 233 55 280.773 34.715 295z"/><path d="M-66.875 283.306L-49.192 455H46L14.004 310.106l28.461-13.666-9.711-38.6L24.109 229l-74.165 30.25c-11.508 3.76-17.934 11.879-16.82 24.056z" fill="#F5F2FF" fill-rule="nonzero"/><path stroke="#240200" stroke-width="3" d="M33.603 404L56 493l-82-26.86"/><path fill="#E8E6ED" fill-rule="nonzero" opacity=".8" d="M129.228 194.035l-13.935-44.479L138.753 126l2.973 36.826 21.772-15.39 9.342 14.247-16.262 8.01-2.77 24.342 17.806 47.248 38.96 32.264L222 348.595 158.74 391l-81.085-12.524L51 324.97l4.845-40.652 79.27-48.11z"/><circle fill="#0F66DE" fill-rule="nonzero" cx="226.5" cy="82.5" r="23.5"/><path fill="#FFF" fill-rule="nonzero" d="M219 81.442l34.277-10.414L260 69l-5.681 4.078-21.447 15.369-.805-2.074 24.548-1.89.19 2.305-24.549 1.89-4.142.322 3.361-2.396 21.423-15.392 1.042 2.028-34.585 9.378z"/><path d="M125.43 181.231l29.47-9.506c4.403-1.426 9.126.992 10.547 5.397 0 .002 0 .004-.004.007l.472 1.465a8.397 8.397 0 01-5.408 10.55l-29.47 9.507c-4.403 1.426-9.126-.993-10.547-5.398 0-.002 0-.003.004-.007l-.472-1.465a8.397 8.397 0 015.408-10.55z" fill="#4261E8" fill-rule="nonzero"/><path d="M126.8 196.616l32.31-10.422c4.572-1.481 9.475 1.03 10.95 5.603 0 .002 0 .004-.004.007l.276.856a8.717 8.717 0 01-5.615 10.953l-32.31 10.422c-4.57 1.481-9.474-1.03-10.949-5.603 0-.002 0-.004.004-.007l-.276-.856a8.717 8.717 0 015.615-10.953z" fill="#4261E8" fill-rule="nonzero"/><path fill="#1062C4" fill-rule="nonzero" opacity=".2" d="M165 224.731L133.765 233 132 220.662 160.373 212z"/><path d="M130.657 208.61l32.31-10.423c4.57-1.48 9.473 1.03 10.949 5.603 0 .002 0 .004-.004.007l.275.856a8.717 8.717 0 01-5.614 10.953l-32.31 10.423c-4.57 1.48-9.474-1.031-10.949-5.604 0-.002-.001-.004.004-.007l-.276-.856a8.717 8.717 0 015.615-10.953z" fill="#4261E8" fill-rule="nonzero"/><path stroke="#240200" stroke-width="2.57" d="M129 197l30-9M132 211l32-9"/><path stroke="#240200" stroke-width="3" d="M87 266l-31.069 18.484L51 324.908 66.854 356"/><path d="M114 277.643c1.384 0 57.669-13.643 57.669-13.643L205 293.452 148.464 323 114 277.643z" fill="#DD1B3A" fill-rule="nonzero"/><path fill="#2CE577" fill-rule="nonzero" d="M69 312.375L106.997 292 126 308.775 92.128 354z"/><path fill="#C5FF27" fill-rule="nonzero" d="M125.923 336.856L180.012 333 190 386l-72-10.53z"/><path d="M197.933 280.962c-2.859-.403-5.823-.623-8.749-.815a299.546 299.546 0 00-8.787-.45c-5.87-.22-11.741-.317-17.593-.163-2.926.076-5.852.21-8.72.536-.715.087-1.42.192-2.116.326a8.54 8.54 0 00-1.906.547.953.953 0 00-.248.163c-.057.048 0 0 .048-.173.047-.172-.048-.192 0-.134.071.079.15.15.238.21a8.912 8.912 0 001.734.911c2.602 1.074 5.509 1.793 8.301 2.684l8.444 2.627c2.802.881 5.614 1.792 8.406 2.731 2.793.94 5.585 1.917 8.359 3.077.695.288 1.391.594 2.096.959.376.188.742.396 1.096.623.242.157.465.34.667.546.23.24.391.538.467.863.08.349.036.715-.124 1.035-.13.242-.316.45-.543.604-.2.135-.423.232-.657.287-.14.04-.284.069-.43.087a6.198 6.198 0 01-.685.057h-1.21c-.782 0-1.535-.096-2.279-.172-2.983-.326-5.88-.748-8.815-1.199-5.833-.9-11.647-2.05-17.393-3.096-.715-.124-1.43-.249-2.126-.354a16.017 16.017 0 00-1.973-.192h-.21c.048 0 .087 0 .41-.22.1-.076.185-.17.248-.278.095-.135.16-.289.191-.45a1.234 1.234 0 000-.413.964.964 0 000-.259c0-.077-.076-.153-.048-.124l.058.076c.081.097.17.187.266.269.49.455 1.005.88 1.544 1.274a70.515 70.515 0 003.565 2.425l1.84 1.16c.561.48 1.457.403 1.4 1.917l-.724 1.237c-1.315.747-1.678-.106-2.364-.403l-1.906-1.217c-1.248-.824-2.487-1.658-3.707-2.588a18.84 18.84 0 01-1.85-1.562 5.634 5.634 0 01-.485-.537 3.065 3.065 0 01-.572-.987 2.052 2.052 0 01-.076-.393 2.198 2.198 0 010-.547c.047-.203.128-.398.238-.575.097-.143.212-.272.343-.383.277-.224.604-.376.953-.441.292-.058.59-.084.886-.077.81.03 1.615.117 2.412.259.753.115 1.486.25 2.22.383 5.814 1.131 11.523 2.33 17.308 3.288 2.859.48 5.785.958 8.644 1.275.715.086 1.43.153 2.116.191h1c.137.011.274.011.41 0h.105l-.153.087c-.147.101-.266.24-.343.402-.12.237-.156.507-.105.767.115.374.182.364.191.393a2.46 2.46 0 00-.2-.153c-.26-.173-.53-.33-.81-.47a29.017 29.017 0 00-1.906-.891c-5.328-2.234-10.913-4.16-16.46-6.058l-8.358-2.799-4.193-1.37a44.2 44.2 0 01-4.232-1.544 10.467 10.467 0 01-2.134-1.198 2.943 2.943 0 01-.553-.546 1.558 1.558 0 01.19-2.253c.207-.172.434-.317.677-.431a9.944 9.944 0 012.354-.662 30.85 30.85 0 012.25-.306c2.982-.297 5.937-.345 8.891-.355 5.9 0 11.79.25 17.66.623 5.871.374 11.751.844 17.584 1.802l-.067.537zM96.153 287.49c-2.07 2.888-3.904 5.948-5.718 9.028a274.913 274.913 0 00-5.25 9.325c-3.386 6.274-6.616 12.645-9.465 19.15a82.343 82.343 0 00-3.698 9.864c-.23.805-.402 1.625-.517 2.454a5.315 5.315 0 000 1.097c0 .308.146.539.078.423-.068-.115-.137-.077-.117-.077a.99.99 0 00.244 0c.325-.095.636-.231.927-.404a15.945 15.945 0 002.039-1.424c1.356-1.078 2.605-2.271 3.903-3.532l3.903-3.714a654.886 654.886 0 017.874-7.372 439.305 439.305 0 018.011-7.256c2.713-2.386 5.445-4.744 8.431-6.948a28.598 28.598 0 012.4-1.597 7.943 7.943 0 011.571-.741c.21-.073.425-.125.644-.154a2.48 2.48 0 011.24.144c.33.133.622.344.849.616.193.243.335.52.42.818.078.314.098.64.058.962a6.252 6.252 0 01-.596 1.8c-.214.471-.448.895-.683 1.318a55.461 55.461 0 01-1.473 2.377c-2.04 3.041-4.137 5.938-6.303 8.834-4.294 5.774-8.958 11.346-13.32 16.899a50.423 50.423 0 00-1.522 2.069c-.224.337-.439.674-.595.962a1.712 1.712 0 00-.156.328v-.077a1.34 1.34 0 00-.146-.847 1.671 1.671 0 00-.566-.655 1.117 1.117 0 00-.313-.173l-.214-.077h-.127.293c.302-.058.683-.173 1.053-.279.771-.25 1.571-.558 2.372-.885 1.6-.664 3.21-1.415 4.8-2.194l2.381-1.184 1.19-.606c.42-.164.918-.164 1.737.423l.908 1.665c0 .962-.283 1.414-.664 1.674l-1.22.616-2.468 1.193c-1.659.78-3.327 1.54-5.074 2.233-.868.347-1.756.683-2.713.962-.528.158-1.066.283-1.61.376a6.24 6.24 0 01-1.053.096h-.371a4.556 4.556 0 01-.459-.077 2.956 2.956 0 01-.38-.125 3.038 3.038 0 01-.459-.25 2.415 2.415 0 01-.78-.905 2.566 2.566 0 01-.215-1.501c.04-.247.105-.489.195-.722.114-.305.251-.6.41-.885.283-.491.556-.905.83-1.3a48.535 48.535 0 011.687-2.242c4.557-5.658 9.172-11.038 13.505-16.706 2.156-2.81 4.293-5.697 6.284-8.574.487-.722.975-1.453 1.375-2.165.215-.357.41-.722.576-1.059.078-.164.146-.327.205-.472.031-.078.057-.158.078-.24a1.262 1.262 0 000 .327c.051.191.144.368.273.52.154.185.352.33.576.423.177.08.373.11.566.087-.3.116-.59.255-.868.414-.684.394-1.396.885-2.098 1.385-5.64 4.158-11.075 8.921-16.452 13.637a800.239 800.239 0 00-8.02 7.169l-3.942 3.541c-1.318 1.194-2.684 2.464-4.167 3.59-.76.601-1.57 1.139-2.42 1.607a6.639 6.639 0 01-1.561.626c-.36.09-.733.12-1.103.086a2.288 2.288 0 01-1.336-.606 3 3 0 01-.82-2.03 8.202 8.202 0 01.088-1.579c.146-.934.358-1.857.634-2.762a75.774 75.774 0 014.06-10.085c3.073-6.505 6.498-12.809 10.079-19.016A182.074 182.074 0 0195.518 287l.635.49z" fill="#FFF" fill-rule="nonzero"/><path d="M195.69 365.398c-3.236-1.512-6.627-2.759-9.998-3.927-3.371-1.168-6.8-2.356-10.22-3.446-6.85-2.17-13.767-4.163-20.743-5.763a85.165 85.165 0 00-10.464-1.806 18.268 18.268 0 00-2.526 0c-.37.02-.737.076-1.097.166-.311.07-.506.246-.408.158a.345.345 0 00.058-.128.82.82 0 00.078.226 3.8 3.8 0 00.582.844c.547.632 1.141 1.22 1.778 1.757 1.322 1.13 2.73 2.15 4.217 3.2l4.401 3.172a888.003 888.003 0 018.744 6.401c2.914 2.16 5.83 4.34 8.666 6.568 2.837 2.229 5.713 4.497 8.443 7.04.71.652 1.388 1.34 2.03 2.061.383.438.725.911 1.02 1.414.105.198.193.405.263.618.137.4.167.83.087 1.247-.062.363-.22.702-.457.982-.199.24-.447.435-.728.57-.307.14-.636.223-.972.245a6.205 6.205 0 01-1.943-.246 17.563 17.563 0 01-1.428-.432c-.904-.314-1.778-.658-2.633-.982a182.317 182.317 0 01-9.92-4.575c-6.518-3.16-12.901-6.725-19.207-10.004-.787-.392-1.574-.785-2.331-1.109a11.004 11.004 0 00-1.07-.412l-.359-.099h.078c.297-.019.582-.128.816-.314.238-.173.425-.407.544-.677.058-.107.097-.223.117-.344a.992.992 0 000-.226v-.127c0-.05 0-.069 0 0 .02.1.05.199.087.294.14.336.3.664.476.982a30.88 30.88 0 001.312 2.18c.972 1.453 1.943 2.945 3.05 4.339l1.613 2.13.826 1.06c.233.384.32.884-.107 1.797l-1.486 1.208c-.61.24-1.302.11-1.788-.334l-.826-1.1-1.641-2.208c-1.079-1.493-2.138-3.005-3.148-4.595a52.919 52.919 0 01-1.458-2.504c-.255-.478-.479-.973-.67-1.482a5.551 5.551 0 01-.291-.982 3.313 3.313 0 01-.049-.834v-.403c.04-.171.096-.339.165-.5.163-.39.424-.728.758-.982a2.644 2.644 0 011.457-.5c.251-.006.502.014.748.058.33.059.654.14.972.245.534.177.971.373 1.448.57.884.402 1.71.825 2.526 1.247 6.45 3.455 12.63 7.01 19.051 10.22 3.187 1.61 6.442 3.19 9.658 4.604.806.344 1.612.678 2.409.982.389.137.777.265 1.146.363l.506.118h.252a.964.964 0 00-.32.098 1.45 1.45 0 00-.768.982c-.053.19-.053.39 0 .58 0 .058 0 0 0 0a6.17 6.17 0 00-.573-.776c-.515-.61-1.127-1.228-1.749-1.826-5.168-4.791-10.89-9.278-16.516-13.745a609.797 609.797 0 00-8.579-6.588l-4.313-3.269c-1.438-1.07-2.915-2.18-4.334-3.436a17.985 17.985 0 01-2.04-2.091 6.44 6.44 0 01-.903-1.434 3.049 3.049 0 01-.282-1.07 2.257 2.257 0 01.35-1.433 3.008 3.008 0 011.865-1.188 8.658 8.658 0 011.574-.216c.973-.031 1.947.005 2.915.108a78.988 78.988 0 0110.755 2.12c7.014 1.827 13.893 4.026 20.713 6.402A180.635 180.635 0 01196 364.77l-.31.628z" fill="#0055E7" fill-rule="nonzero"/><path d="M203 319.52c0 2.248-.859 4.406-2.387 5.996-1.528 1.59-3.6 2.484-5.761 2.484-4.494 0-10.852-2.007-10.852-6.723 0-4.716 6.358-10.277 10.852-10.277 2.167 0 4.245.899 5.774 2.498 1.53 1.598 2.384 3.765 2.374 6.021z" fill="#FFB0B0" fill-rule="nonzero" style="mix-blend-mode:multiply"/><path fill="#FFF" fill-rule="nonzero" d="M195.342 319L207 320.538l-.664 3.462L195 320.778z"/><path fill="#FFF" fill-rule="nonzero" opacity=".1" d="M414 425.638L235.386 598.964 104.1 719 37 665.65 328.105 376z"/><path fill="#FFB0B0" fill-rule="nonzero" d="M132.208 247.452L154 243l-5.023 16.237L115 265z"/><path fill="#E7EBF6" fill-rule="nonzero" d="M14.777 311L8 315.726 32 391z"/><path stroke="#000" stroke-width="3" d="M219 328l3 20-15 11.5"/></g></g></svg>