<svg xmlns="http://www.w3.org/2000/svg" viewBox="0 0 150 97" width="150" height="97"><g class="uk-icon-alternate-dark" version="1.1"><g stroke="none" stroke-width="1" fill="none" fill-rule="evenodd"><path d="M138.568 116.785l-2.394 1.823c-3.097 2.09-6.35 2.07-9.999 1.353a13.94 13.94 0 01-8.923-5.965l-35.22-55.73c-4.3-6.462-2.592-12.665 3.87-17.013l1.318-.899c6.447-4.35 13.83-2.344 18.127 4.118l36.573 52.865c4.297 6.462 3.095 15.095-3.352 19.448z" fill="#2CE577" fill-rule="nonzero"/><path d="M88.78 33.492l12.24 18.291a4.998 4.998 0 01-1.368 6.93 4.986 4.986 0 01-6.922-1.367L80.489 39.055a4.998 4.998 0 011.369-6.93 4.986 4.986 0 016.922 1.367z" fill="#2CE577" fill-rule="nonzero"/><path d="M96.325 30.53l13.741 20.533a5.65 5.65 0 01-1.547 7.833 5.636 5.636 0 01-7.825-1.546L86.953 36.817a5.65 5.65 0 011.547-7.833 5.636 5.636 0 017.825 1.546zM82.768 38.699l14.298 21.364a5.65 5.65 0 01-1.547 7.833 5.636 5.636 0 01-7.825-1.546L73.396 44.986a5.65 5.65 0 011.548-7.833 5.636 5.636 0 017.824 1.546z" fill="#2CE577" fill-rule="nonzero"/><path d="M107.07 58.936l1.473-11.617a5.65 5.65 0 016.309-4.895 5.636 5.636 0 014.889 6.3l-1.473 11.618a5.65 5.65 0 01-6.308 4.895 5.636 5.636 0 01-4.89-6.301z" fill="#2CE577" fill-rule="nonzero"/><path stroke="#240200" stroke-width="2" d="M92.38 41.729l7.977 12.703M85.093 45.24l8.911 13.061"/><path d="M14.975 114.003l2.394 1.823c3.097 2.09 6.35 2.069 10 1.352a13.94 13.94 0 008.922-5.965l35.22-55.73c4.3-6.462 2.593-12.665-3.87-17.013l-1.317-.898c-6.448-4.351-13.83-2.344-18.128 4.117L11.623 94.554c-4.296 6.462-3.095 15.095 3.352 19.449z" fill="#E2F244" fill-rule="nonzero"/><path d="M64.764 30.71L52.523 49a4.998 4.998 0 001.369 6.93 4.986 4.986 0 006.922-1.367l12.24-18.291a4.998 4.998 0 00-1.368-6.93 4.986 4.986 0 00-6.922 1.367z" fill="#E2F244" fill-rule="nonzero"/><path d="M56.662 28.577L43.477 48.28a5.65 5.65 0 001.548 7.833 5.636 5.636 0 007.824-1.546l13.185-19.702a5.65 5.65 0 00-1.548-7.833 5.636 5.636 0 00-7.824 1.545zM70.219 36.747L56.477 57.28a5.65 5.65 0 001.548 7.833 5.636 5.636 0 007.824-1.546l13.742-20.533a5.65 5.65 0 00-1.548-7.833 5.636 5.636 0 00-7.824 1.546z" fill="#E2F244" fill-rule="nonzero"/><path d="M46.573 56.208L45.1 44.59a5.65 5.65 0 00-6.308-4.895 5.636 5.636 0 00-4.89 6.3l1.473 11.618a5.65 5.65 0 006.309 4.895 5.636 5.636 0 004.889-6.301z" fill="#E2F244" fill-rule="nonzero"/><path stroke="#240200" stroke-width="2" d="M61.164 38.946L53.186 51.65M68.45 42.457l-8.91 13.061"/><path fill="#4261E8" d="M130.969 30L124 36.942l8 2.719 8-6.16z"/><path fill="#FF5E45" d="M13.969 45.66L7 51.41l8 2.25 8-5.1z"/><path stroke="#979797" stroke-linecap="square" d="M15.898 27.141l8.204 5.718"/><path stroke="#739FFF" stroke-linecap="square" d="M119.473 24.123l9.054-4.246"/><circle fill="#FF1C8B" cx="37" cy="23" r="4"/><circle fill="#F5D945" cx="132.5" cy="51.5" r="3.5"/><path d="M36.002 96.466a3.813 3.813 0 00-.405-.614c-.415-.52-.86-1.017-1.334-1.486-.965-.99-2.033-1.944-3.1-2.89-2.126-1.893-4.326-3.744-6.512-5.623a175.482 175.482 0 01-3.267-2.884 41.647 41.647 0 01-3.205-3.185 8.608 8.608 0 01-.804-1.064 3.255 3.255 0 01-.44-1 2.364 2.364 0 01-.045-.516 2.239 2.239 0 01.023-.34c.033-.152.08-.3.137-.445.13-.309.335-.58.599-.789a1.82 1.82 0 01.332-.22l.33-.141c.264-.083.54-.125.816-.123.169-.009.338.003.504.034.27.026.536.078.796.155.427.118.848.26 1.258.427a40.36 40.36 0 014.075 2.069c5.08 2.916 9.863 6.066 14.871 8.668a41.342 41.342 0 007.521 3.196 8.942 8.942 0 003.36.425l.322-.028.256-.083.122-.01a.142.142 0 00-.078.006 1.002 1.002 0 00-.158.11l-.088.094a.496.496 0 00-.112.122c-.07.101-.114.21-.167.3-.054.092-.05.23-.073.275-.022.046.014.164.015.172a.077.077 0 00.005.06s-.015-.171-.172-.366a15.404 15.404 0 00-2.327-2.793 68.994 68.994 0 00-3.023-2.81 135.312 135.312 0 00-6.616-5.311c-4.521-3.459-9.173-6.802-13.877-10.046a554.453 554.453 0 00-7.102-4.844c-1.425-1.167-1.686-2.393-.782-3.677.904-1.284 2.143-1.498 3.717-.642a606.208 606.208 0 017.146 4.936c4.738 3.335 9.43 6.736 14.015 10.328 2.285 1.81 4.539 3.665 6.741 5.637 1.098.996 2.18 2.01 3.235 3.121a18.95 18.95 0 013.04 3.91c.28.507.484 1.052.607 1.618l.052.593c.01.235.002.47-.026.704-.03.27-.095.534-.195.788a2.67 2.67 0 01-.416.772c-.086.12-.172.24-.268.353l-.293.268c-.182.16-.382.3-.596.416-.184.103-.379.189-.565.275l-.402.121-.79.208-.76.066a13.532 13.532 0 01-5.2-.68 45.817 45.817 0 01-8.293-3.795c-5.076-2.873-9.845-6.154-14.655-9.198a36.233 36.233 0 00-3.56-2.01 6.91 6.91 0 00-.782-.313 1.466 1.466 0 00-.261-.072c.096.005.193-.003.287-.025.155-.055.3-.135.428-.237.19-.156.341-.353.442-.575.041-.103.07-.21.086-.32a1.7 1.7 0 00-.018-.206 1.53 1.53 0 00-.022-.25c.14.23.294.451.462.662a38.575 38.575 0 002.811 3.002c.966.998 2.037 1.987 3.072 2.97 2.072 1.985 4.17 3.966 6.229 6.004 1.03 1.027 2.052 2.063 3.04 3.198a17.77 17.77 0 011.431 1.703c.273.384.488.806.637 1.252.046.185.14.593.08 1.211-.08.272-.245.36-.934.474-.872-.128-1.191-1.136-1.177-1.092z" fill="#84FF2E" fill-rule="nonzero"/><path d="M49.963 89.611l-4.048 6.387c-13.635-8.91-20.83-13.761-21.585-14.556-.754-.794-1.388-1.47-1.9-2.029L26 73.619 49.963 89.61zM32.983 99.346l-5.698 4.512-14.858-6.731 4.754-7.087z" fill="#E2F244"/><path fill="#2CE577" d="M128.332 77.658l-3.966-5.693-26.287 11.659 1.646 2.626 15.7-3.506z"/></g></g><g class="uk-icon-alternate-default" version="1.1"><g stroke="none" stroke-width="1" fill="none" fill-rule="evenodd"><path d="M138.568 116.785l-2.394 1.823c-3.097 2.09-6.35 2.07-9.999 1.353a13.94 13.94 0 01-8.923-5.965l-35.22-55.73c-4.3-6.462-2.592-12.665 3.87-17.013l1.318-.899c6.447-4.35 13.83-2.344 18.127 4.118l36.573 52.865c4.297 6.462 3.095 15.095-3.352 19.448z" fill="#2CE577" fill-rule="nonzero"/><path d="M88.78 33.492l12.24 18.291a4.998 4.998 0 01-1.368 6.93 4.986 4.986 0 01-6.922-1.367L80.489 39.055a4.998 4.998 0 011.369-6.93 4.986 4.986 0 016.922 1.367z" fill="#2CE577" fill-rule="nonzero"/><path d="M96.325 30.53l13.741 20.533a5.65 5.65 0 01-1.547 7.833 5.636 5.636 0 01-7.825-1.546L86.953 36.817a5.65 5.65 0 011.547-7.833 5.636 5.636 0 017.825 1.546zM82.768 38.699l14.298 21.364a5.65 5.65 0 01-1.547 7.833 5.636 5.636 0 01-7.825-1.546L73.396 44.986a5.65 5.65 0 011.548-7.833 5.636 5.636 0 017.824 1.546z" fill="#2CE577" fill-rule="nonzero"/><path d="M107.07 58.936l1.473-11.617a5.65 5.65 0 016.309-4.895 5.636 5.636 0 014.889 6.3l-1.473 11.618a5.65 5.65 0 01-6.308 4.895 5.636 5.636 0 01-4.89-6.301z" fill="#2CE577" fill-rule="nonzero"/><path stroke="#240200" stroke-width="2" d="M92.38 41.729l7.977 12.703M85.093 45.24l8.911 13.061"/><path d="M14.975 114.003l2.394 1.823c3.097 2.09 6.35 2.069 10 1.352a13.94 13.94 0 008.922-5.965l35.22-55.73c4.3-6.462 2.593-12.665-3.87-17.013l-1.317-.898c-6.448-4.351-13.83-2.344-18.128 4.117L11.623 94.554c-4.296 6.462-3.095 15.095 3.352 19.449z" fill="#E2F244" fill-rule="nonzero"/><path d="M64.764 30.71L52.523 49a4.998 4.998 0 001.369 6.93 4.986 4.986 0 006.922-1.367l12.24-18.291a4.998 4.998 0 00-1.368-6.93 4.986 4.986 0 00-6.922 1.367z" fill="#E2F244" fill-rule="nonzero"/><path d="M56.662 28.577L43.477 48.28a5.65 5.65 0 001.548 7.833 5.636 5.636 0 007.824-1.546l13.185-19.702a5.65 5.65 0 00-1.548-7.833 5.636 5.636 0 00-7.824 1.545zM70.219 36.747L56.477 57.28a5.65 5.65 0 001.548 7.833 5.636 5.636 0 007.824-1.546l13.742-20.533a5.65 5.65 0 00-1.548-7.833 5.636 5.636 0 00-7.824 1.546z" fill="#E2F244" fill-rule="nonzero"/><path d="M46.573 56.208L45.1 44.59a5.65 5.65 0 00-6.308-4.895 5.636 5.636 0 00-4.89 6.3l1.473 11.618a5.65 5.65 0 006.309 4.895 5.636 5.636 0 004.889-6.301z" fill="#E2F244" fill-rule="nonzero"/><path stroke="#240200" stroke-width="2" d="M61.164 38.946L53.186 51.65M68.45 42.457l-8.91 13.061"/><path fill="#4261E8" d="M130.969 30L124 36.942l8 2.719 8-6.16z"/><path fill="#FF5E45" d="M13.969 45.66L7 51.41l8 2.25 8-5.1z"/><path stroke="#979797" stroke-linecap="square" d="M15.898 27.141l8.204 5.718"/><path stroke="#739FFF" stroke-linecap="square" d="M119.473 24.123l9.054-4.246"/><circle fill="#FF1C8B" cx="37" cy="23" r="4"/><circle fill="#F5D945" cx="132.5" cy="51.5" r="3.5"/><path d="M36.002 96.466a3.813 3.813 0 00-.405-.614c-.415-.52-.86-1.017-1.334-1.486-.965-.99-2.033-1.944-3.1-2.89-2.126-1.893-4.326-3.744-6.512-5.623a175.482 175.482 0 01-3.267-2.884 41.647 41.647 0 01-3.205-3.185 8.608 8.608 0 01-.804-1.064 3.255 3.255 0 01-.44-1 2.364 2.364 0 01-.045-.516 2.239 2.239 0 01.023-.34c.033-.152.08-.3.137-.445.13-.309.335-.58.599-.789a1.82 1.82 0 01.332-.22l.33-.141c.264-.083.54-.125.816-.123.169-.009.338.003.504.034.27.026.536.078.796.155.427.118.848.26 1.258.427a40.36 40.36 0 014.075 2.069c5.08 2.916 9.863 6.066 14.871 8.668a41.342 41.342 0 007.521 3.196 8.942 8.942 0 003.36.425l.322-.028.256-.083.122-.01a.142.142 0 00-.078.006 1.002 1.002 0 00-.158.11l-.088.094a.496.496 0 00-.112.122c-.07.101-.114.21-.167.3-.054.092-.05.23-.073.275-.022.046.014.164.015.172a.077.077 0 00.005.06s-.015-.171-.172-.366a15.404 15.404 0 00-2.327-2.793 68.994 68.994 0 00-3.023-2.81 135.312 135.312 0 00-6.616-5.311c-4.521-3.459-9.173-6.802-13.877-10.046a554.453 554.453 0 00-7.102-4.844c-1.425-1.167-1.686-2.393-.782-3.677.904-1.284 2.143-1.498 3.717-.642a606.208 606.208 0 017.146 4.936c4.738 3.335 9.43 6.736 14.015 10.328 2.285 1.81 4.539 3.665 6.741 5.637 1.098.996 2.18 2.01 3.235 3.121a18.95 18.95 0 013.04 3.91c.28.507.484 1.052.607 1.618l.052.593c.01.235.002.47-.026.704-.03.27-.095.534-.195.788a2.67 2.67 0 01-.416.772c-.086.12-.172.24-.268.353l-.293.268c-.182.16-.382.3-.596.416-.184.103-.379.189-.565.275l-.402.121-.79.208-.76.066a13.532 13.532 0 01-5.2-.68 45.817 45.817 0 01-8.293-3.795c-5.076-2.873-9.845-6.154-14.655-9.198a36.233 36.233 0 00-3.56-2.01 6.91 6.91 0 00-.782-.313 1.466 1.466 0 00-.261-.072c.096.005.193-.003.287-.025.155-.055.3-.135.428-.237.19-.156.341-.353.442-.575.041-.103.07-.21.086-.32a1.7 1.7 0 00-.018-.206 1.53 1.53 0 00-.022-.25c.14.23.294.451.462.662a38.575 38.575 0 002.811 3.002c.966.998 2.037 1.987 3.072 2.97 2.072 1.985 4.17 3.966 6.229 6.004 1.03 1.027 2.052 2.063 3.04 3.198a17.77 17.77 0 011.431 1.703c.273.384.488.806.637 1.252.046.185.14.593.08 1.211-.08.272-.245.36-.934.474-.872-.128-1.191-1.136-1.177-1.092z" fill="#84FF2E" fill-rule="nonzero"/><path d="M49.963 89.611l-4.048 6.387c-13.635-8.91-20.83-13.761-21.585-14.556-.754-.794-1.388-1.47-1.9-2.029L26 73.619 49.963 89.61zM32.983 99.346l-5.698 4.512-14.858-6.731 4.754-7.087z" fill="#E2F244"/><path fill="#2CE577" d="M128.332 77.658l-3.966-5.693-26.287 11.659 1.646 2.626 15.7-3.506z"/></g></g></svg>