<?xml version="1.0" encoding="UTF-8"?>
<svg width="50px" height="56px" viewBox="0 0 50 56" version="1.1" xmlns="http://www.w3.org/2000/svg" xmlns:xlink="http://www.w3.org/1999/xlink">
    <title>ic_NewOutliner</title>
    <g id="ic_NewOutliner" stroke="none" stroke-width="1" fill="none" fill-rule="evenodd">
        <g id="编组">
            <rect id="frame" x="0" y="0" width="50" height="56"></rect>
            <path d="M14.2075377,32.4491428 C14.8713121,32.4491428 14.9738392,36.0740604 16.0232298,37.0799178 C17.0726205,38.0857752 20.5816644,38.1995585 20.5816644,38.7245714 C20.5816644,39.2495843 16.8823083,39.4914034 15.90692,40.475574 C14.9315316,41.4597446 14.5471477,45 14.2075377,45 C13.8679278,45 13.5437634,41.1997221 12.0877005,40.2196639 C10.6316375,39.2396058 8,39.1396807 8,38.7245714 C8,38.3094621 10.9835897,38.1351741 12.4882964,36.9982679 C13.9930032,35.8613618 13.5437634,32.4491428 14.2075377,32.4491428 Z M39.8167225,32.9709214 C40.561222,32.9709214 41.164758,33.5729796 41.164758,34.3156561 C41.164758,35.0146457 40.6301379,35.5890738 39.9465474,35.6542349 L39.8167225,35.6603907 L22.2922613,35.6603907 C21.5477619,35.6603907 20.9442259,35.0583325 20.9442259,34.3156561 C20.9442259,33.6166664 21.478846,33.0422383 22.1624365,32.9770772 L22.2922613,32.9709214 L39.8167225,32.9709214 Z M15.552084,23.5577785 C17.0410828,23.5577785 18.2481549,24.7618949 18.2481549,26.2472479 C18.2481549,27.7326008 17.0410828,28.9367173 15.552084,28.9367173 C14.0630851,28.9367173 12.856013,27.7326008 12.856013,26.2472479 C12.856013,24.7618949 14.0630851,23.5577785 15.552084,23.5577785 Z M39.8167225,24.9025132 C40.561222,24.9025132 41.164758,25.5045714 41.164758,26.2472479 C41.164758,26.9462375 40.6301379,27.5206656 39.9465474,27.5858267 L39.8167225,27.5919826 L22.2922613,27.5919826 C21.5477619,27.5919826 20.9442259,26.9899243 20.9442259,26.2472479 C20.9442259,25.5482583 21.478846,24.9738301 22.1624365,24.908669 L22.2922613,24.9025132 L39.8167225,24.9025132 Z M37.9917576,12 C38.5132945,12 38.5938516,14.8481496 39.4183728,15.6384661 C40.242894,16.4287826 43,16.5181837 43,16.9306939 C43,17.343204 40.093363,17.5332048 39.3269865,18.3064816 C38.5606099,19.0797585 38.258594,21.8613878 37.9917576,21.8613878 C37.7249212,21.8613878 37.4702206,18.8754551 36.3261712,18.1054094 C35.1821217,17.3353638 33.1144065,17.2568512 33.1144065,16.9306939 C33.1144065,16.8177933 33.3953003,16.7275651 33.8116599,16.6207903 L34.107706,16.5467254 C34.8900144,16.3532829 35.9588465,16.0896684 36.6409251,15.5743126 C37.8231947,14.6810292 37.4702206,12 37.9917576,12 Z M28.7111483,16.834105 C29.4556477,16.834105 30.0591837,17.4361632 30.0591837,18.1788397 C30.0591837,18.8778293 29.5245636,19.4522574 28.8409731,19.5174186 L28.7111483,19.5235744 L11.0586324,19.5235744 C10.3141329,19.5235744 9.71059691,18.9215162 9.71059691,18.1788397 C9.71059691,17.4798501 10.2452171,16.9054219 10.9288076,16.8402608 L11.0586324,16.834105 L28.7111483,16.834105 Z" id="形状结合" fill="#8157CC" fill-rule="nonzero"></path>
        </g>
    </g>
</svg>