<?xml version="1.0" encoding="UTF-8"?>
<svg width="50px" height="56px" viewBox="0 0 50 56" version="1.1" xmlns="http://www.w3.org/2000/svg" xmlns:xlink="http://www.w3.org/1999/xlink">
    <title>ic_NoteView</title>
    <g id="ic_NoteView" stroke="none" stroke-width="1" fill="none" fill-rule="evenodd">
        <g id="编组-2">
            <rect id="frame" x="0" y="0" width="50" height="56"></rect>
            <path d="M34.8551324,24.7488782 L34.8541771,24.6067326 C35.7370023,25.018409 36.5685616,25.5849906 37.3091913,26.3062728 L37.167897,26.3053799 C37.2676362,26.3968984 37.3658869,26.4909953 37.4625608,26.5876693 C40.7406417,29.8657502 41.0556554,34.9567751 38.3549639,38.416583 L40.6373963,40.6995596 C41.1681075,41.2302708 41.1768236,42.0820074 40.6568644,42.6019666 C40.167491,43.09134 39.3842248,43.1124058 38.8513118,42.6707335 L38.7544574,42.5824986 L36.4095804,40.2385289 C34.634844,41.4442014 32.4984086,41.914957 30.4150816,41.6571354 L30.4153968,41.7102268 L29.9903179,41.7105442 C28.1804149,41.4273712 26.4349606,40.5710105 25.0357976,39.1429151 L24.8917005,38.991379 L25.013,38.991 L24.8316573,38.8039073 C21.4956895,35.2556425 21.4786585,29.7590712 24.842929,26.3948007 C27.5163847,23.7213449 31.53636,23.183136 34.8551324,24.7488782 Z M33.9659006,10 C35.9267897,10 37.5165203,11.6224853 37.5165203,13.6239224 L37.5165203,22.7677201 C36.5976,22.2159726 35.6736539,21.9198271 34.8544698,21.6871605 L34.8535265,13.6239224 C34.8535265,13.1593031 34.5108673,12.776371 34.0694165,12.724037 L33.9659006,12.7179418 L13.5505038,12.7179418 C13.0952974,12.7179418 12.7201234,13.0676867 12.6688496,13.5182659 L12.6628778,13.6239224 L12.6628778,38.0853985 C12.6628778,38.5500178 13.0055371,38.9329498 13.4469879,38.9852839 L13.5505038,38.991379 L22.0226891,38.9923299 C22.0774672,39.4345395 22.1642692,39.8560841 22.2795172,40.3897702 C22.3947652,40.9234563 22.5804409,41.3531439 22.7274012,41.7102444 L13.5505038,41.7093208 C11.5896147,41.7093208 10,40.0868355 10,38.0853985 L10,13.6239224 C10,11.6224853 11.5896147,10 13.5505038,10 L33.9659006,10 Z M26.764804,28.3166758 C24.3774481,30.7040317 24.4377631,34.6505201 26.9187366,37.1314936 C29.39971,39.612467 33.3461984,39.6727821 35.7335544,37.2854261 C38.1209104,34.8980701 38.0605953,30.9515817 35.5796219,28.4706083 C33.0986484,25.9896348 29.15216,25.9293198 26.764804,28.3166758 Z M21.9816161,22.5160596 C22.7169495,22.5160596 23.313055,23.1244916 23.313055,23.8750305 C23.313055,24.5814201 22.7850169,25.1619295 22.1098425,25.2277804 L21.9816161,25.2340014 L16.5763393,25.2340014 C15.8410059,25.2340014 15.2449004,24.6255694 15.2449004,23.8750305 C15.2449004,23.168641 15.7729385,22.5881316 16.4481129,22.5222806 L16.5763393,22.5160596 L21.9816161,22.5160596 Z M31.2491792,16.1741955 C31.9845126,16.1741955 32.5806181,16.7826275 32.5806181,17.5331664 C32.5806181,18.2395559 32.05258,18.8200653 31.3774057,18.8859163 L31.2491792,18.8921373 L16.5763393,18.8921373 C15.8410059,18.8921373 15.2449004,18.2837053 15.2449004,17.5331664 C15.2449004,16.8267768 15.7729385,16.2462674 16.4481129,16.1804165 L16.5763393,16.1741955 L31.2491792,16.1741955 Z" id="形状结合" fill="#F57E16" fill-rule="nonzero"></path>
        </g>
    </g>
</svg>