<?xml version="1.0" encoding="UTF-8"?>
<svg width="50px" height="56px" viewBox="0 0 50 56" version="1.1" xmlns="http://www.w3.org/2000/svg" xmlns:xlink="http://www.w3.org/1999/xlink">
    <title>ic_MapShot</title>
    <g id="ic_MapShot" stroke="none" stroke-width="1" fill="none" fill-rule="evenodd">
        <g id="编组">
            <rect id="frame" x="0" y="0" width="50" height="56"></rect>
            <path d="M40.4982381,32.1664801 L40.4982381,36.7150633 L45,36.7150633 L45,39.4514168 L40.4982381,39.4514168 L40.4982381,44 L37.7900516,44 L37.7900516,39.4514168 L33.2882897,39.4514168 L33.2882897,36.7150633 L37.7900516,36.7150633 L37.7900516,32.1664801 L40.4982381,32.1664801 Z M10.7081865,32.1664801 L10.7081865,36.7150633 L15.2099484,36.7150633 L15.2099484,39.4514168 L10.7081865,39.4514168 L10.7081865,39.4634226 L8,39.4634226 L8,32.1664801 L10.7081865,32.1664801 Z M30.5616144,36.7150933 L30.5616144,39.4514467 L17.9234107,39.4514467 L17.9234107,36.7150933 L30.5616144,36.7150933 Z M25.9773481,19.247346 L31.2640951,28.4994984 L22.1071807,33.8412311 L16.8204337,24.5890787 L25.9773481,19.247346 Z M24.9854584,22.9849837 L20.5196588,25.5899922 L23.0978524,30.1031512 L27.5645547,27.4972306 L24.9854584,22.9849837 Z M10.7081865,23.033326 L10.7081865,29.3281378 L8,29.3281378 L8,23.033326 L10.7081865,23.033326 Z M40.4916316,23.033326 L40.4916316,29.3281378 L37.7834451,29.3281378 L37.7834451,23.033326 L40.4916316,23.033326 Z M40.5101204,13 L40.5101204,15.7363535 L40.4982381,15.7363535 L40.4982381,20.2849367 L37.7900516,20.2849367 L37.7900516,15.7363535 L33.2882897,15.7363535 L33.2882897,13 L40.5101204,13 Z M15.2099484,13 L15.2099484,15.7363535 L10.7081865,15.7363535 L10.7081865,20.2849367 L8,20.2849367 L8,13.0120059 L8.01173547,13.0118575 L8.01188228,13 L15.2099484,13 Z M30.5616144,13.0000299 L30.5616144,15.7363834 L17.9234107,15.7363834 L17.9234107,13.0000299 L30.5616144,13.0000299 Z" id="形状结合" fill="#1A7CD8" fill-rule="nonzero"></path>
        </g>
    </g>
</svg>