<?xml version="1.0" encoding="UTF-8"?>
<svg width="50px" height="56px" viewBox="0 0 50 56" version="1.1" xmlns="http://www.w3.org/2000/svg" xmlns:xlink="http://www.w3.org/1999/xlink">
    <title>ic_Filter</title>
    <g id="ic_Filter" stroke="none" stroke-width="1" fill="none" fill-rule="evenodd">
        <g id="编组">
            <rect id="frame" x="0" y="0" width="50" height="56"></rect>
            <path d="M40.662232,42.3061203 C41.4010608,42.3061203 42,42.9091658 42,43.6530601 C42,44.353196 41.4694518,44.9285661 40.7910679,44.9938341 L40.662232,45 L10.337768,45 C9.59893915,45 9,44.3969545 9,43.6530601 C9,42.9529243 9.53054818,42.3775542 10.2089321,42.3122862 L10.337768,42.3061203 L40.662232,42.3061203 Z M34.1289703,10.0716276 L39.8447604,15.7874178 C41.1814724,17.1241297 41.2362151,19.2786473 39.9695628,20.6992795 L25.6038577,36.8113444 C24.3157383,38.2560534 22.129764,38.4227336 20.6573604,37.2129323 L16.8653852,39.686876 L14.62,37.441 L12.5908289,39.4714358 C12.0648162,39.9974486 11.2148847,40.0003522 10.6924538,39.4779213 C10.2007541,38.9862216 10.1744026,38.2044176 10.6115441,37.6756018 L10.6989392,37.5795461 L12.728,35.549 L10.4620661,33.2835569 L12.927,29.506 L12.7933714,29.3644324 C11.5464603,27.963022 11.6019675,25.8072315 12.9545716,24.4546273 C13.0033635,24.4058355 13.0535417,24.3584501 13.1050437,24.3125304 L29.2171085,9.94682523 C30.6377408,8.68017292 32.7922583,8.7349157 34.1289703,10.0716276 Z M14.86,31.44 L13.9004596,32.9110457 L17.2371224,36.2477085 L18.707,35.287 L14.86,31.44 Z M27.434,15.121 L14.8650163,26.3284857 L14.8464614,26.346517 C14.5864399,26.6065385 14.5181569,26.9852881 14.6422175,27.3057214 L22.6099199,35.2738992 C22.9171376,35.3933032 23.2754417,35.3343688 23.5312234,35.1064811 L23.6053955,35.032309 L34.772,22.508 L27.434,15.121 Z M31.0749164,11.8824841 L30.9961442,11.9452877 L29.441,13.331 L36.562,20.5 L37.9711004,18.9202438 C38.2651447,18.5904542 38.2743474,18.1024674 38.0066003,17.766876 L37.9398998,17.6922784 L32.2241097,11.9764883 C31.9138015,11.6661801 31.4272062,11.6322149 31.0749164,11.8824841 Z" id="形状结合" fill="#E65000" fill-rule="nonzero"></path>
        </g>
    </g>
</svg>