<?xml version="1.0" encoding="UTF-8"?>
<svg width="65px" height="65px" viewBox="0 0 65 65" version="1.1" xmlns="http://www.w3.org/2000/svg" xmlns:xlink="http://www.w3.org/1999/xlink">
    <title>zen-mode-bulb</title>
    <g id="zen-mode-bulb" stroke="none" stroke-width="1" fill="none" fill-rule="evenodd" opacity="0.3">
        <path d="M40.4892578,47.0654297 C40.9124349,47.0654297 41.2542318,46.9352214 41.5146484,46.6748047 C41.7750651,46.414388 41.9052734,46.0725911 41.9052734,45.6494141 L41.9052734,42.0361328 C41.9052734,40.9130859 42.1778971,39.8510742 42.7231445,38.8500977 C43.2683919,37.8491211 43.9479167,36.8196615 44.7617188,35.7617188 C45.5755208,34.703776 46.3852539,33.5563151 47.190918,32.3193359 C47.996582,31.0823568 48.6761068,29.6907552 49.2294922,28.1445312 C49.7828776,26.5983073 50.0595703,24.8160807 50.0595703,22.7978516 C50.0595703,20.1285807 49.6323242,17.7034505 48.777832,15.5224609 C47.9233398,13.3414714 46.6985677,11.4615885 45.1035156,9.8828125 C43.5084635,8.30403646 41.6041667,7.09554036 39.390625,6.25732422 C37.1770833,5.41910807 34.719401,5 32.0175781,5 C29.3157552,5 26.8621419,5.41910807 24.6567383,6.25732422 C22.4513346,7.09554036 20.5511068,8.30403646 18.9560547,9.8828125 C17.3610026,11.4615885 16.1362305,13.3414714 15.2817383,15.5224609 C14.4272461,17.7034505 14,20.1285807 14,22.7978516 C14,24.8160807 14.2726237,26.5983073 14.8178711,28.1445312 C15.3631185,29.6907552 16.0426432,31.0823568 16.8564453,32.3193359 C17.6702474,33.5563151 18.4799805,34.703776 19.2856445,35.7617188 C20.0913086,36.8196615 20.7708333,37.8491211 21.3242188,38.8500977 C21.8776042,39.8510742 22.1542969,40.9130859 22.1542969,42.0361328 L22.1542969,45.6494141 C22.1542969,46.0725911 22.2804362,46.414388 22.5327148,46.6748047 C22.7849935,46.9352214 23.1308594,47.0654297 23.5703125,47.0654297 L40.4892578,47.0654297 Z M38.1452969,43.2818047 L25.9132969,43.2818047 L25.9140625,42.0361328 L25.9140625,42.0361328 C25.9140625,40.6363932 25.6373698,39.3546549 25.0839844,38.190918 C24.530599,37.027181 23.8551432,35.8919271 23.0576172,34.7851562 C22.2600911,33.6783854 21.4544271,32.5390625 20.640625,31.3671875 C19.8268229,30.1953125 19.1472982,28.9135742 18.6020508,27.5219727 C18.0568034,26.1303711 17.7841797,24.5556641 17.7841797,22.7978516 C17.7841797,19.9983724 18.3782552,17.5447591 19.5664062,15.4370117 C20.7545573,13.3292643 22.4147135,11.6975911 24.546875,10.5419922 C26.6790365,9.38639323 29.1692708,8.80859375 32.0175781,8.80859375 C34.8821615,8.80859375 37.3764648,9.38639323 39.5004883,10.5419922 C41.6245117,11.6975911 43.280599,13.3292643 44.46875,15.4370117 C45.656901,17.5447591 46.2509766,19.9983724 46.2509766,22.7978516 C46.2509766,24.5556641 45.9783529,26.1303711 45.4331055,27.5219727 C44.8878581,28.9135742 44.2124023,30.1953125 43.4067383,31.3671875 C42.6010742,32.5390625 41.7954102,33.6783854 40.9897461,34.7851562 C40.184082,35.8919271 39.5086263,37.027181 38.9633789,38.190918 C38.4181315,39.3546549 38.1455078,40.6363932 38.1455078,42.0361328 L38.1452969,43.2818047 Z M39.7324219,53.4130859 C40.3346354,53.4130859 40.8513997,53.1933594 41.2827148,52.7539062 C41.7140299,52.3144531 41.9296875,51.7854818 41.9296875,51.1669922 C41.9296875,50.5485026 41.7140299,50.0236003 41.2827148,49.5922852 C40.8513997,49.1609701 40.3346354,48.9453125 39.7324219,48.9453125 L24.3271484,48.9453125 C23.7086589,48.9453125 23.1878255,49.1609701 22.7646484,49.5922852 C22.3414714,50.0236003 22.1298828,50.5485026 22.1298828,51.1669922 C22.1298828,51.7854818 22.3414714,52.3144531 22.7646484,52.7539062 C23.1878255,53.1933594 23.7086589,53.4130859 24.3271484,53.4130859 L39.7324219,53.4130859 Z M32.0175781,59.1015625 C33.6614583,59.1015625 35.0205078,58.7516276 36.0947266,58.0517578 C37.1689453,57.351888 37.7630208,56.4241536 37.8769531,55.2685547 L26.1826172,55.2685547 C26.2802734,56.4241536 26.8621419,57.351888 27.9282227,58.0517578 C28.9943034,58.7516276 30.3574219,59.1015625 32.0175781,59.1015625 Z" fill="#000000" fill-rule="nonzero"></path>
    </g>
</svg>