<?xml version="1.0" encoding="UTF-8"?>
<svg width="102px" height="8px" viewBox="0 0 102 8" version="1.1" xmlns="http://www.w3.org/2000/svg" xmlns:xlink="http://www.w3.org/1999/xlink">
    <defs>
        <path d="M2.35025189,6.99269521 L2.35025189,4.87789673 L3.35623426,4.87789673 C3.83910579,4.87789673 4.26534425,4.78549538 4.63494962,4.6006927 C5.004555,4.41589001 5.29070109,4.15657011 5.49338791,3.822733 C5.69607473,3.48889589 5.79741814,3.10140638 5.79741814,2.66026448 C5.79741814,2.23998741 5.69532955,1.86963686 5.49115239,1.54921285 C5.28697523,1.22878883 5.00008396,0.980646516 4.63047859,0.804785894 C4.26087322,0.628925273 3.83463476,0.540994962 3.35176322,0.540994962 L3.35176322,0.540994962 L1,0.540994962 L1,6.99269521 L2.35025189,6.99269521 Z M3.31152393,3.72437028 L2.37260705,3.72437028 L2.37260705,1.69452141 L3.28469773,1.69452141 C3.51421075,1.69452141 3.71689757,1.73774139 3.89275819,1.82418136 C4.06861881,1.91062133 4.20498531,2.03282955 4.30185768,2.19080605 C4.39873006,2.34878254 4.44716625,2.53060453 4.44716625,2.73627204 C4.44716625,2.9270361 4.4002204,3.09693535 4.30632872,3.24596977 C4.21243703,3.3950042 4.07905122,3.51199622 3.90617128,3.59694584 C3.73329135,3.68189547 3.53507557,3.72437028 3.31152393,3.72437028 L3.31152393,3.72437028 Z M8.17153652,6.99269521 L8.17153652,4.95390428 C8.17451721,4.53958858 8.2095403,4.2050063 8.27660579,3.95015743 C8.34367128,3.69530856 8.48599916,3.49262175 8.70358942,3.34209698 C8.92117968,3.19157221 9.24607473,3.11630982 9.67827456,3.11630982 L9.67827456,3.11630982 L9.67827456,1.97172544 C9.34741814,1.97470613 9.06276238,2.05145886 8.8243073,2.20198363 C8.58585223,2.3525084 8.39061713,2.56041142 8.23860202,2.8256927 L8.23860202,2.8256927 L8.17153652,2.8256927 L8.17153652,2.07455919 L6.87046599,2.07455919 L6.87046599,6.99269521 L8.17153652,6.99269521 Z M12.7141058,7.1 C13.0419815,7.1 13.3482473,7.06423174 13.632903,6.99269521 C13.9175588,6.92115869 14.2089211,6.79596977 14.5069899,6.61712846 L14.5069899,6.61712846 L14.2923804,5.62455919 C14.0539253,5.74378673 13.8020571,5.83320739 13.5367758,5.89282116 C13.2714945,5.95243493 13.0121746,5.98224181 12.7588161,5.98224181 C12.377288,5.98224181 12.0687867,5.89282116 11.8333123,5.71397985 C11.597838,5.53513854 11.4741394,5.28178002 11.4622166,4.95390428 L11.4622166,4.95390428 L14.7126574,4.95390428 C14.7305416,4.75419815 14.7394836,4.56790512 14.7394836,4.39502519 C14.7394836,3.90917296 14.6470823,3.48517003 14.4622796,3.12301637 C14.2774769,2.76086272 14.0121956,2.480678 13.6664358,2.28246222 C13.3206759,2.08424643 12.9093409,1.98066751 12.4324307,1.97172544 C11.9793661,1.96874475 11.5814442,2.07381402 11.238665,2.28693325 C10.8958858,2.50005248 10.6313497,2.80259236 10.4450567,3.1945529 C10.2587636,3.58651343 10.1671075,4.04032326 10.1700882,4.55598237 C10.1730688,5.08356423 10.2744123,5.53811923 10.4741184,5.91964736 C10.6738245,6.30117548 10.9636965,6.59328296 11.3437343,6.79596977 C11.723772,6.99865659 12.1805626,7.1 12.7141058,7.1 Z M13.4607683,4.07758186 L11.4577456,4.07758186 C11.4577456,3.88979849 11.5002204,3.72213476 11.58517,3.57459068 C11.6701196,3.4270466 11.788602,3.31229009 11.9406171,3.23032116 C12.0926322,3.14835223 12.2670025,3.10736776 12.463728,3.10736776 C12.6634341,3.10736776 12.8385495,3.14760705 12.9890743,3.22808564 C13.1395991,3.30856423 13.2558459,3.42183039 13.3378149,3.56788413 C13.4197838,3.71393787 13.4607683,3.88383711 13.4607683,4.07758186 L13.4607683,4.07758186 Z M17.5651763,7.1 C17.9616079,7.1 18.3036419,7.04262175 18.5912783,6.92786524 C18.8789148,6.81310873 19.1002309,6.64768052 19.2552267,6.4315806 C19.4102225,6.21548069 19.4877204,5.95988665 19.4877204,5.66479849 C19.4877204,5.31307725 19.3550798,5.0015953 19.0897985,4.73035264 C18.8245172,4.45910999 18.434047,4.23555835 17.9183879,4.05969773 C17.5845508,3.94345088 17.3475861,3.83018472 17.2074937,3.71989924 C17.0674013,3.60961377 16.9973552,3.47846348 16.9973552,3.32644836 C16.9973552,3.09097397 17.2194165,2.97323678 17.663539,2.97323678 C18.1434299,2.97323678 18.6337531,3.10438707 19.1345088,3.36668766 L19.1345088,3.36668766 L19.1345088,2.44118388 C18.9169186,2.28320739 18.6747376,2.16547019 18.407966,2.08797229 C18.1411944,2.01047439 17.8393997,1.97172544 17.5025819,1.97172544 C17.1448992,1.97172544 16.8296914,2.02686818 16.5569584,2.13715365 C16.2842254,2.24743913 16.0733417,2.40168976 15.9243073,2.59990554 C15.7752729,2.79812133 15.7007557,3.02837951 15.7007557,3.2906801 C15.7007557,3.57086482 15.7491919,3.80484887 15.8460642,3.99263224 C15.9429366,4.18041562 16.0897355,4.3413728 16.286461,4.47550378 C16.4831864,4.60963476 16.749958,4.74376574 17.0867758,4.87789673 C17.390806,4.99712427 17.6180835,5.09325147 17.7686083,5.16627834 C17.9191331,5.23930521 18.0286734,5.31307725 18.0972292,5.38759446 C18.1657851,5.46211167 18.200063,5.54855164 18.200063,5.64691436 C18.200063,5.72441226 18.1680206,5.79594878 18.1039358,5.86152393 C18.039851,5.92709908 17.9541562,5.97851595 17.8468514,6.01577456 C17.7395466,6.05303317 17.6247901,6.07166247 17.5025819,6.07166247 C17.2402813,6.07166247 16.9593514,6.02322628 16.6597922,5.9263539 C16.360233,5.82948153 16.0927162,5.70801847 15.8572418,5.56196474 L15.8572418,5.56196474 L15.4101385,6.42934509 C15.6664777,6.63203191 15.9913728,6.79447943 16.3848237,6.91668766 C16.7782746,7.03889589 17.1717254,7.1 17.5651763,7.1 Z M22.7023929,7.1 C23.0302687,7.1 23.3365344,7.06423174 23.6211902,6.99269521 C23.9058459,6.92115869 24.1972082,6.79596977 24.4952771,6.61712846 L24.4952771,6.61712846 L24.2806675,5.62455919 C24.0422124,5.74378673 23.7903442,5.83320739 23.525063,5.89282116 C23.2597817,5.95243493 23.0004618,5.98224181 22.7471033,5.98224181 C22.3655751,5.98224181 22.0570739,5.89282116 21.8215995,5.71397985 C21.5861251,5.53513854 21.4624265,5.28178002 21.4505038,4.95390428 L21.4505038,4.95390428 L24.7009446,4.95390428 C24.7188287,4.75419815 24.7277708,4.56790512 24.7277708,4.39502519 C24.7277708,3.90917296 24.6353694,3.48517003 24.4505668,3.12301637 C24.2657641,2.76086272 24.0004828,2.480678 23.6547229,2.28246222 C23.3089631,2.08424643 22.897628,1.98066751 22.4207179,1.97172544 C21.9676532,1.96874475 21.5697313,2.07381402 21.2269521,2.28693325 C20.884173,2.50005248 20.6196369,2.80259236 20.4333438,3.1945529 C20.2470508,3.58651343 20.1553946,4.04032326 20.1583753,4.55598237 C20.161356,5.08356423 20.2626994,5.53811923 20.4624055,5.91964736 C20.6621117,6.30117548 20.9519836,6.59328296 21.3320214,6.79596977 C21.7120592,6.99865659 22.1688497,7.1 22.7023929,7.1 Z M23.4490554,4.07758186 L21.4460327,4.07758186 C21.4460327,3.88979849 21.4885076,3.72213476 21.5734572,3.57459068 C21.6584068,3.4270466 21.7768892,3.31229009 21.9289043,3.23032116 C22.0809194,3.14835223 22.2552897,3.10736776 22.4520151,3.10736776 C22.6517212,3.10736776 22.8268367,3.14760705 22.9773615,3.22808564 C23.1278862,3.30856423 23.2441331,3.42183039 23.326102,3.56788413 C23.4080709,3.71393787 23.4490554,3.88383711 23.4490554,4.07758186 L23.4490554,4.07758186 Z M27.0169395,6.99269521 L27.0169395,4.11782116 C27.0497271,3.7959068 27.1525609,3.54105793 27.3254408,3.35327456 C27.4983207,3.16549118 27.7174013,3.07308984 27.9826826,3.07607053 C28.2956549,3.07607053 28.53411,3.17592359 28.6980479,3.37562972 C28.8619857,3.57533585 28.9439547,3.86744332 28.9439547,4.25195214 L28.9439547,4.25195214 L28.9439547,6.99269521 L30.2494962,6.99269521 L30.2494962,3.97921914 C30.2494962,3.32346767 30.0915197,2.82420235 29.7755668,2.48142317 C29.4596138,2.138644 28.9990974,1.96725441 28.3940176,1.96725441 C28.0929681,1.96725441 27.8247061,2.03581024 27.5892317,2.17292191 C27.3537573,2.31003359 27.1793871,2.50526868 27.0661209,2.7586272 L27.0661209,2.7586272 L27.0169395,2.7586272 L27.0169395,2.07455919 L25.711398,2.07455919 L25.711398,6.99269521 L27.0169395,6.99269521 Z M34.2823678,6.99269521 L34.2823678,5.89729219 L33.8665617,5.89729219 C33.72945,5.89729219 33.6199097,5.87791772 33.5379408,5.83916877 C33.4559719,5.80041982 33.3956129,5.73260915 33.356864,5.63573678 C33.318115,5.5388644 33.2987406,5.40100756 33.2987406,5.22216625 L33.2987406,5.22216625 L33.2987406,3.21020151 L34.3270781,3.21020151 L34.3270781,2.07455919 L33.2987406,2.07455919 L33.2987406,0.532052897 L31.993199,0.979156171 L31.993199,2.07455919 L31.1884131,2.07455919 L31.1884131,3.21020151 L31.993199,3.21020151 L31.993199,5.38312343 C31.993199,5.9077246 32.1265848,6.30713686 32.3933564,6.5813602 C32.660128,6.85558354 33.0468724,6.99269521 33.5535894,6.99269521 L33.5535894,6.99269521 L33.5580605,6.97481108 L33.5580605,6.99269521 L34.2823678,6.99269521 Z M37.6758816,7.1 C38.0037573,7.1 38.3100231,7.06423174 38.5946788,6.99269521 C38.8793346,6.92115869 39.1706969,6.79596977 39.4687657,6.61712846 L39.4687657,6.61712846 L39.2541562,5.62455919 C39.0157011,5.74378673 38.7638329,5.83320739 38.4985516,5.89282116 C38.2332704,5.95243493 37.9739505,5.98224181 37.7205919,5.98224181 C37.3390638,5.98224181 37.0305626,5.89282116 36.7950882,5.71397985 C36.5596138,5.53513854 36.4359152,5.28178002 36.4239924,4.95390428 L36.4239924,4.95390428 L39.6744332,4.95390428 C39.6923174,4.75419815 39.7012594,4.56790512 39.7012594,4.39502519 C39.7012594,3.90917296 39.6088581,3.48517003 39.4240554,3.12301637 C39.2392527,2.76086272 38.9739715,2.480678 38.6282116,2.28246222 C38.2824517,2.08424643 37.8711167,1.98066751 37.3942065,1.97172544 C36.9411419,1.96874475 36.54322,2.07381402 36.2004408,2.28693325 C35.8576616,2.50005248 35.5931255,2.80259236 35.4068325,3.1945529 C35.2205395,3.58651343 35.1288833,4.04032326 35.131864,4.55598237 C35.1348447,5.08356423 35.2361881,5.53811923 35.4358942,5.91964736 C35.6356003,6.30117548 35.9254723,6.59328296 36.3055101,6.79596977 C36.6855479,6.99865659 37.1423384,7.1 37.6758816,7.1 Z M38.4225441,4.07758186 L36.4195214,4.07758186 C36.4195214,3.88979849 36.4619962,3.72213476 36.5469458,3.57459068 C36.6318955,3.4270466 36.7503778,3.31229009 36.9023929,3.23032116 C37.0544081,3.14835223 37.2287783,3.10736776 37.4255038,3.10736776 C37.6252099,3.10736776 37.8003254,3.14760705 37.9508501,3.22808564 C38.1013749,3.30856423 38.2176217,3.42183039 38.2995907,3.56788413 C38.3815596,3.71393787 38.4225441,3.88383711 38.4225441,4.07758186 L38.4225441,4.07758186 Z M42.5806045,7.09552897 C42.9144416,7.09552897 43.2005877,7.03218934 43.4390428,6.90551008 C43.6774979,6.77883081 43.8712427,6.60967674 44.0202771,6.39804786 L44.0202771,6.39804786 L44.0739295,6.39804786 L44.0739295,6.99269521 L45.379471,6.99269521 L45.379471,0.17884131 L44.0739295,0.17884131 L44.0739295,2.64685139 L44.015806,2.64685139 C43.8578296,2.43224181 43.6573783,2.26532326 43.4144521,2.14609572 C43.171526,2.02686818 42.9025189,1.96725441 42.6074307,1.96725441 C42.1811923,1.96725441 41.8018997,2.07753988 41.4695529,2.29811083 C41.1372061,2.51868178 40.8786314,2.82941856 40.6938287,3.23032116 C40.509026,3.63122376 40.4166247,4.09397565 40.4166247,4.61857683 C40.4166247,5.10740974 40.5082809,5.5388644 40.6915932,5.91294081 C40.8749055,6.28701721 41.1304996,6.57763434 41.4583753,6.78479219 C41.786251,6.99195004 42.1603275,7.09552897 42.5806045,7.09552897 Z M42.8488665,6.13425693 C42.6491604,6.13425693 42.4636125,6.07017212 42.2922229,5.94200252 C42.1208333,5.81383291 41.9829765,5.63424643 41.8786524,5.40324307 C41.7743283,5.17223971 41.7221662,4.9106843 41.7221662,4.61857683 C41.7221662,4.30560453 41.7750735,4.02541982 41.8808879,3.77802267 C41.9867024,3.53062552 42.1290302,3.33911629 42.3078715,3.20349496 C42.4867128,3.06787364 42.6789673,3.00006297 42.8846348,3.00006297 C43.1052057,3.00006297 43.3064022,3.05222502 43.4882242,3.15654912 C43.6700462,3.26087322 43.8131192,3.40618178 43.9174433,3.59247481 C44.0217674,3.77876784 44.0739295,3.98965155 44.0739295,4.22512594 L44.0739295,4.22512594 L44.0739295,4.93154912 C44.0739295,5.11039043 44.0307095,5.2929576 43.9442695,5.47925063 C43.8578296,5.66554366 43.7222082,5.82128463 43.5374055,5.94647355 C43.3526029,6.07166247 43.1230898,6.13425693 42.8488665,6.13425693 Z M51.9965995,6.99269521 L52.7119647,5.36971033 L53.2350756,6.99269521 L54.5808564,6.99269521 L56.2038413,2.07903023 L54.8401763,2.07903023 L53.9146725,5.52619647 L53.8520781,5.52619647 L52.9534005,2.07455919 L51.6433879,2.07455919 L52.2112091,3.82720403 L51.518199,5.52619647 L51.4287783,5.52619647 L50.2037154,2.07903023 L48.8221662,2.07903023 L50.7223552,6.99269521 L51.9965995,6.99269521 Z M58.2873426,1.32342569 L58.2873426,2.27373675e-13 L56.9639169,2.27373675e-13 L56.9639169,1.32342569 L58.2873426,1.32342569 Z M58.2784005,6.99269521 L58.2784005,2.07455919 L56.9728589,2.07455919 L56.9728589,6.99269521 L58.2784005,6.99269521 Z M62.3649244,6.99269521 L62.3649244,5.89729219 L61.9491184,5.89729219 C61.8120067,5.89729219 61.7024664,5.87791772 61.6204975,5.83916877 C61.5385285,5.80041982 61.4781696,5.73260915 61.4394207,5.63573678 C61.4006717,5.5388644 61.3812972,5.40100756 61.3812972,5.22216625 L61.3812972,5.22216625 L61.3812972,3.21020151 L62.4096348,3.21020151 L62.4096348,2.07455919 L61.3812972,2.07455919 L61.3812972,0.532052897 L60.0757557,0.979156171 L60.0757557,2.07455919 L59.2709698,2.07455919 L59.2709698,3.21020151 L60.0757557,3.21020151 L60.0757557,5.38312343 C60.0757557,5.9077246 60.2091415,6.30713686 60.4759131,6.5813602 C60.7426847,6.85558354 61.1294291,6.99269521 61.6361461,6.99269521 L61.6361461,6.99269521 L61.6406171,6.97481108 L61.6406171,6.99269521 L62.3649244,6.99269521 Z M64.7882242,6.99269521 L64.7882242,4.11782116 C64.8210118,3.7959068 64.9238455,3.54105793 65.0967254,3.35327456 C65.2696054,3.16549118 65.488686,3.07308984 65.7539673,3.07607053 C66.0669395,3.07607053 66.3053946,3.17592359 66.4693325,3.37562972 C66.6332704,3.57533585 66.7152393,3.86744332 66.7152393,4.25195214 L66.7152393,4.25195214 L66.7152393,6.99269521 L68.0207809,6.99269521 L68.0207809,3.97921914 C68.0207809,3.32346767 67.8628044,2.82420235 67.5468514,2.48142317 C67.2308984,2.138644 66.770382,1.96725441 66.1653023,1.96725441 C65.861272,1.96725441 65.5907746,2.03730059 65.3538098,2.17739295 C65.1168451,2.31748531 64.94322,2.51570109 64.8329345,2.7720403 L64.8329345,2.7720403 L64.7882242,2.7720403 L64.7882242,0.375566751 L63.4826826,0.375566751 L63.4826826,6.99269521 L64.7882242,6.99269521 Z M73.3189547,6.99269521 L75.1520781,4.45314861 L76.9941436,6.99269521 L78.6707809,6.99269521 L76.0596977,3.51423174 L78.3891058,0.540994962 L76.7035264,0.540994962 L75.1520781,2.69156171 L73.6006297,0.540994962 L71.9329345,0.540994962 L74.2534005,3.53211587 L71.6423174,6.99269521 L73.3189547,6.99269521 Z M80.736398,6.99269521 L80.736398,2.49036524 L80.7855793,2.49036524 L82.8333123,4.95837531 L82.922733,4.95837531 L84.9838791,2.49036524 L85.0330605,2.49036524 L85.0330605,6.99269521 L86.3833123,6.99269521 L86.3833123,0.540994962 L85.0330605,0.540994962 L82.8780227,3.16549118 L80.736398,0.540994962 L79.3861461,0.540994962 L79.3861461,6.99269521 L80.736398,6.99269521 Z M88.9586272,1.32342569 L88.9586272,2.27373675e-13 L87.6352015,2.27373675e-13 L87.6352015,1.32342569 L88.9586272,1.32342569 Z M88.9496851,6.99269521 L88.9496851,2.07455919 L87.6441436,2.07455919 L87.6441436,6.99269521 L88.9496851,6.99269521 Z M91.5160579,6.99269521 L91.5160579,4.11782116 C91.5488455,3.7959068 91.6516793,3.54105793 91.8245592,3.35327456 C91.9974391,3.16549118 92.2165197,3.07308984 92.481801,3.07607053 C92.7947733,3.07607053 93.0332284,3.17592359 93.1971662,3.37562972 C93.3611041,3.57533585 93.443073,3.86744332 93.443073,4.25195214 L93.443073,4.25195214 L93.443073,6.99269521 L94.7486146,6.99269521 L94.7486146,3.97921914 C94.7486146,3.32346767 94.5906381,2.82420235 94.2746851,2.48142317 C93.9587322,2.138644 93.4982158,1.96725441 92.893136,1.96725441 C92.5920865,1.96725441 92.3238245,2.03581024 92.0883501,2.17292191 C91.8528757,2.31003359 91.6785055,2.50526868 91.5652393,2.7586272 L91.5652393,2.7586272 L91.5160579,2.7586272 L91.5160579,2.07455919 L90.2105164,2.07455919 L90.2105164,6.99269521 L91.5160579,6.99269521 Z M97.8515113,7.09552897 C98.1853484,7.09552897 98.4714945,7.03218934 98.7099496,6.90551008 C98.9484047,6.77883081 99.1421495,6.60967674 99.2911839,6.39804786 L99.2911839,6.39804786 L99.3448363,6.39804786 L99.3448363,6.99269521 L100.650378,6.99269521 L100.650378,0.17884131 L99.3448363,0.17884131 L99.3448363,2.64685139 L99.2867128,2.64685139 C99.1287364,2.43224181 98.9282851,2.26532326 98.6853589,2.14609572 C98.4424328,2.02686818 98.1734257,1.96725441 97.8783375,1.96725441 C97.4520991,1.96725441 97.0728065,2.07753988 96.7404597,2.29811083 C96.4081129,2.51868178 96.1495382,2.82941856 95.9647355,3.23032116 C95.7799328,3.63122376 95.6875315,4.09397565 95.6875315,4.61857683 C95.6875315,5.10740974 95.7791877,5.5388644 95.9625,5.91294081 C96.1458123,6.28701721 96.4014064,6.57763434 96.7292821,6.78479219 C97.0571579,6.99195004 97.4312343,7.09552897 97.8515113,7.09552897 Z M98.1197733,6.13425693 C97.9200672,6.13425693 97.7345193,6.07017212 97.5631297,5.94200252 C97.3917401,5.81383291 97.2538833,5.63424643 97.1495592,5.40324307 C97.0452351,5.17223971 96.993073,4.9106843 96.993073,4.61857683 C96.993073,4.30560453 97.0459803,4.02541982 97.1517947,3.77802267 C97.2576092,3.53062552 97.399937,3.33911629 97.5787783,3.20349496 C97.7576196,3.06787364 97.9498741,3.00006297 98.1555416,3.00006297 C98.3761125,3.00006297 98.577309,3.05222502 98.759131,3.15654912 C98.940953,3.26087322 99.084026,3.40618178 99.1883501,3.59247481 C99.2926742,3.77876784 99.3448363,3.98965155 99.3448363,4.22512594 L99.3448363,4.22512594 L99.3448363,4.93154912 C99.3448363,5.11039043 99.3016163,5.2929576 99.2151763,5.47925063 C99.1287364,5.66554366 98.993115,5.82128463 98.8083123,5.94647355 C98.6235097,6.07166247 98.3939966,6.13425693 98.1197733,6.13425693 Z" id="path-1"></path>
        <filter x="-1.0%" y="-7.0%" width="102.0%" height="128.2%" filterUnits="objectBoundingBox" id="filter-2">
            <feOffset dx="0" dy="0.5" in="SourceAlpha" result="shadowOffsetOuter1"></feOffset>
            <feGaussianBlur stdDeviation="0.25" in="shadowOffsetOuter1" result="shadowBlurOuter1"></feGaussianBlur>
            <feColorMatrix values="0 0 0 0 0   0 0 0 0 0   0 0 0 0 0  0 0 0 0.15 0" type="matrix" in="shadowBlurOuter1"></feColorMatrix>
        </filter>
    </defs>
    <g id="Map-shot" stroke="none" stroke-width="1" fill="none" fill-rule="evenodd">
        <g id="mapshot" transform="translate(-651.000000, -243.000000)" fill-rule="nonzero">
            <g id="Normal" transform="translate(578.000000, 93.000000)">
                <g id="PresentedwithXMind" transform="translate(73.000000, 150.000000)">
                    <use fill="black" fill-opacity="1" filter="url(#filter-2)" xlink:href="#path-1"></use>
                    <use fill="#FFFFFF" xlink:href="#path-1"></use>
                </g>
            </g>
        </g>
    </g>
</svg>