<?xml version="1.0" encoding="UTF-8"?>
<svg width="48px" height="48px" viewBox="0 0 48 48" version="1.1" xmlns="http://www.w3.org/2000/svg" xmlns:xlink="http://www.w3.org/1999/xlink">
    <!-- Generator: Sketch 51.2 (57519) - http://www.bohemiancoding.com/sketch -->
    <title>structure-balance-map</title>
    <desc>Created with Sketch.</desc>
    <defs></defs>
    <g id="structure-balance-map" stroke="none" stroke-width="1" fill="none" fill-rule="evenodd">
        <path d="M8.08510638,22.5714286 L8.1,22.5714286 L8.1,25.7586207 L7.6,25.7586207 L7.6,23.4359085 L5.68085106,23.4357025 L8.08510638,21.7068966 L8.08510638,22.5714286 Z M39.9148936,24.8940887 L39.8989362,24.8940887 L39.8989362,21.7068966 L40.3989362,21.7068966 L40.3989362,24.0296086 L42.3191489,24.0298147 L39.9148936,25.7586207 L39.9148936,24.8940887 Z M19.8165669,23.4055486 C19.1914744,21.6672263 18.255723,20.3962785 17.0913376,19.520536 C16.3191502,18.9397683 15.4919525,18.5664836 14.6653668,18.3592566 C14.17336,18.2359093 13.7956462,18.1953263 13.590826,18.1953263 L13.590826,17.4953263 C13.8498669,17.4953263 14.2839099,17.5419615 14.8355906,17.6802692 C15.748484,17.9091337 16.6607653,18.3208137 17.5120917,18.9611023 C18.8374533,19.9579163 19.8861388,21.415041 20.5551953,23.398086 L20.5597104,23.3996036 L20.5577105,23.4055486 L20.5597104,23.4114937 L20.5551953,23.4130113 C19.8861388,25.3960563 18.8374533,26.853181 17.5120917,27.8499949 C16.6607653,28.4902836 15.748484,28.9019635 14.8355906,29.1308281 C14.2839099,29.2691357 13.8498669,29.315771 13.590826,29.315771 L13.590826,28.615771 C13.7956462,28.615771 14.17336,28.575188 14.6653668,28.4518407 C15.4919525,28.2446137 16.3191502,27.8713289 17.0913376,27.2905613 C18.255723,26.4148187 19.1914744,25.143871 19.8165669,23.4055486 Z M27.0726516,23.4130113 L27.0681365,23.4114937 L27.0701364,23.4055486 L27.0681365,23.3996036 L27.0726507,23.3980863 C27.7417081,21.415041 28.7903936,19.9579163 30.1157553,18.9611023 C30.9670816,18.3208137 31.879363,17.9091337 32.7922564,17.6802692 C33.343937,17.5419615 33.7779801,17.4953263 34.037021,17.4953263 L34.037021,18.1953263 C33.8322008,18.1953263 33.4544869,18.2359093 32.9624801,18.3592566 C32.1358944,18.5664836 31.3086967,18.9397683 30.5365093,19.520536 C29.3721239,20.3962785 28.4363725,21.6672263 27.81128,23.4055486 C28.4363725,25.143871 29.3721239,26.4148187 30.5365093,27.2905613 C31.3086967,27.8713289 32.1358944,28.2446137 32.9624801,28.4518407 C33.4544869,28.575188 33.8322008,28.615771 34.037021,28.615771 L34.037021,29.315771 C33.7779801,29.315771 33.343937,29.2691357 32.7922564,29.1308281 C31.879363,28.9019635 30.9670816,28.4902836 30.1157553,27.8499949 C28.7903936,26.853181 27.7417081,25.3960563 27.0726516,23.4130113 Z" id="-" fill="#9496A8" fill-rule="nonzero"></path>
        <path d="M34.0968858,27.4142281 L42.0660749,27.4142281 C42.1920905,27.4142281 42.2942463,27.5163839 42.2942463,27.6423995 L42.2942463,30.9101946 C42.2942463,31.0362102 42.1920905,31.138366 42.0660749,31.138366 L34.0968858,31.138366 C33.9708702,31.138366 33.8687144,31.0362102 33.8687144,30.9101946 L33.8687144,27.6423995 C33.8687144,27.5163839 33.9708702,27.4142281 34.0968858,27.4142281 Z M34.0968858,16.0517241 L42.0660749,16.0517241 C42.1920905,16.0517241 42.2942463,16.15388 42.2942463,16.2798956 L42.2942463,19.5476906 C42.2942463,19.6737062 42.1920905,19.7758621 42.0660749,19.7758621 L34.0968858,19.7758621 C33.9708702,19.7758621 33.8687144,19.6737062 33.8687144,19.5476906 L33.8687144,16.2798956 C33.8687144,16.15388 33.9708702,16.0517241 34.0968858,16.0517241 Z M13.5309611,27.4142281 C13.6569767,27.4142281 13.7591325,27.5163839 13.7591325,27.6423995 L13.7591325,30.9101946 C13.7591325,31.0362102 13.6569767,31.138366 13.5309611,31.138366 L5.56177204,31.138366 C5.43575644,31.138366 5.33360061,31.0362102 5.33360061,30.9101946 L5.33360061,27.6423995 C5.33360061,27.5163839 5.43575644,27.4142281 5.56177204,27.4142281 L13.5309611,27.4142281 Z M13.5309611,16.0517241 C13.6569767,16.0517241 13.7591325,16.15388 13.7591325,16.2798956 L13.7591325,19.5476906 C13.7591325,19.6737062 13.6569767,19.7758621 13.5309611,19.7758621 L5.56177204,19.7758621 C5.43575644,19.7758621 5.33360061,19.6737062 5.33360061,19.5476906 L5.33360061,16.2798956 C5.33360061,16.15388 5.43575644,16.0517241 5.56177204,16.0517241 L13.5309611,16.0517241 Z" id="-" fill="#B3B6C8"></path>
        <path d="M17.5364635,20.2413793 L30.6428465,20.2413793 C30.9013628,20.2413793 31.1109316,20.4509482 31.1109316,20.7094644 L31.1109316,26.2905356 C31.1109316,26.5490518 30.9013628,26.7586207 30.6428465,26.7586207 L17.5364635,26.7586207 C17.2779473,26.7586207 17.0683784,26.5490518 17.0683784,26.2905356 L17.0683784,20.7094644 C17.0683784,20.4509482 17.2779473,20.2413793 17.5364635,20.2413793 Z" id="-" fill="#55ADF6"></path>
    </g>
</svg>