<?xml version="1.0" encoding="UTF-8"?>
<svg width="48px" height="48px" viewBox="0 0 48 48" version="1.1" xmlns="http://www.w3.org/2000/svg" xmlns:xlink="http://www.w3.org/1999/xlink">
    <!-- Generator: Sketch 51.2 (57519) - http://www.bohemiancoding.com/sketch -->
    <title>structure-logic-char-right</title>
    <desc>Created with Sketch.</desc>
    <defs></defs>
    <g id="structure-logic-char-right" stroke="none" stroke-width="1" fill="none" fill-rule="evenodd">
        <path d="M26.25,24.9327586 L23.9313646,24.9327586 L23.9313646,24.2327586 L26.25,24.2327586 L26.25,19.785848 C26.25,19.2183474 26.7300729,18.7675066 27.311676,18.7675066 L31.1072815,18.7675066 L31.1072815,19.4675066 L27.311676,19.4675066 C27.1071836,19.4675066 26.95,19.6151191 26.95,19.785848 L26.95,24.2327586 L29.5175715,24.2327586 L29.5175715,24.9327586 L26.95,24.9327586 L26.95,29.8109689 C26.95,29.9816978 27.1071836,30.1293103 27.311676,30.1293103 L31.1072815,30.1293103 L31.1072815,30.8293103 L27.311676,30.8293103 C26.7300729,30.8293103 26.25,30.3784696 26.25,29.8109689 L26.25,24.9327586 Z" id="-" fill="#9496A8" fill-rule="nonzero"></path>
        <path d="M29.7337949,28.4135279 L37.6444332,28.4135279 C37.7866171,28.4135279 37.90188,28.5287907 37.90188,28.6709747 L37.90188,31.880219 C37.90188,32.0224029 37.7866171,32.1376658 37.6444332,32.1376658 L29.7337949,32.1376658 C29.5916109,32.1376658 29.4763481,32.0224029 29.4763481,31.880219 L29.4763481,28.6709747 C29.4763481,28.5287907 29.5916109,28.4135279 29.7337949,28.4135279 Z M29.7859845,22.732626 L37.6966228,22.732626 C37.8388067,22.732626 37.9540696,22.8478889 37.9540696,22.9900728 L37.9540696,26.1993171 C37.9540696,26.3415011 37.8388067,26.4567639 37.6966228,26.4567639 L29.7859845,26.4567639 C29.6438005,26.4567639 29.5285377,26.3415011 29.5285377,26.1993171 L29.5285377,22.9900728 C29.5285377,22.8478889 29.6438005,22.732626 29.7859845,22.732626 Z M29.8744681,17.0517241 L37.7851064,17.0517241 C37.9272903,17.0517241 38.0425532,17.166987 38.0425532,17.3091709 L38.0425532,20.5184153 C38.0425532,20.6605992 37.9272903,20.7758621 37.7851064,20.7758621 L29.8744681,20.7758621 C29.7322841,20.7758621 29.6170213,20.6605992 29.6170213,20.5184153 L29.6170213,17.3091709 C29.6170213,17.166987 29.7322841,17.0517241 29.8744681,17.0517241 Z" id="-" fill="#B3B6C8"></path>
        <rect id="-" fill="#50A7FD" x="9.95744681" y="21.2413793" width="14.0425532" height="6.51724138" rx="0.468085106"></rect>
    </g>
</svg>