<?xml version="1.0" encoding="UTF-8"?>
<svg width="48px" height="48px" viewBox="0 0 48 48" version="1.1" xmlns="http://www.w3.org/2000/svg" xmlns:xlink="http://www.w3.org/1999/xlink">
    <!-- Generator: Sketch 51.2 (57519) - http://www.bohemiancoding.com/sketch -->
    <title>structure-logic-chart-left</title>
    <desc>Created with Sketch.</desc>
    <defs></defs>
    <g id="structure-logic-chart-left" stroke="none" stroke-width="1" fill="none" fill-rule="evenodd">
        <path d="M20.8072815,24.3982759 L18.3143434,24.3982759 L18.3143434,23.6982759 L20.8072815,23.6982759 L20.8072815,18.785848 C20.8072815,18.6151191 20.650098,18.4675066 20.4456055,18.4675066 L16.65,18.4675066 L16.65,17.7675066 L20.4456055,17.7675066 C21.0272087,17.7675066 21.5072815,18.2183474 21.5072815,18.785848 L21.5072815,23.6982759 L23.9005503,23.6982759 L23.9005503,24.3982759 L21.5072815,24.3982759 L21.5072815,28.8109689 C21.5072815,29.3784696 21.0272087,29.8293103 20.4456055,29.8293103 L16.65,29.8293103 L16.65,29.1293103 L20.4456055,29.1293103 C20.650098,29.1293103 20.8072815,28.9816978 20.8072815,28.8109689 L20.8072815,24.3982759 Z" id="-" fill="#9496A8" fill-rule="nonzero"></path>
        <path d="M18.2896094,27.4135279 C18.4188675,27.4135279 18.5236519,27.5183123 18.5236519,27.6475704 L18.5236519,30.9036232 C18.5236519,31.0328814 18.4188675,31.1376658 18.2896094,31.1376658 L10.3321626,31.1376658 C10.2029044,31.1376658 10.09812,31.0328814 10.09812,30.9036232 L10.09812,27.6475704 C10.09812,27.5183123 10.2029044,27.4135279 10.3321626,27.4135279 L18.2896094,27.4135279 Z M18.2374198,21.732626 C18.3666779,21.732626 18.4714623,21.8374104 18.4714623,21.9666685 L18.4714623,25.2227214 C18.4714623,25.3519795 18.3666779,25.4567639 18.2374198,25.4567639 L10.279973,25.4567639 C10.1507148,25.4567639 10.0459304,25.3519795 10.0459304,25.2227214 L10.0459304,21.9666685 C10.0459304,21.8374104 10.1507148,21.732626 10.279973,21.732626 L18.2374198,21.732626 Z M18.1489362,16.0517241 C18.2781943,16.0517241 18.3829787,16.1565086 18.3829787,16.2857667 L18.3829787,19.5418195 C18.3829787,19.6710776 18.2781943,19.7758621 18.1489362,19.7758621 L10.1914894,19.7758621 C10.0622312,19.7758621 9.95744681,19.6710776 9.95744681,19.5418195 L9.95744681,16.2857667 C9.95744681,16.1565086 10.0622312,16.0517241 10.1914894,16.0517241 L18.1489362,16.0517241 Z" id="-" fill="#B3B6C8"></path>
        <rect id="-" fill="#50A7FD" transform="translate(31.021277, 23.965517) scale(-1, 1) translate(-31.021277, -23.965517) " x="24" y="20.7068966" width="14.0425532" height="6.51724138" rx="0.468085106"></rect>
    </g>
</svg>