<?xml version="1.0" encoding="UTF-8"?>
<svg width="48px" height="48px" viewBox="0 0 48 48" version="1.1" xmlns="http://www.w3.org/2000/svg" xmlns:xlink="http://www.w3.org/1999/xlink">
    <!-- Generator: Sketch 51.2 (57519) - http://www.bohemiancoding.com/sketch -->
    <title>structure-map</title>
    <desc>Created with Sketch.</desc>
    <defs></defs>
    <g id="structure-map" stroke="none" stroke-width="1" fill="none" fill-rule="evenodd">
        <path d="M19.8431905,23.1881052 C19.2198498,21.5113333 18.2877994,20.2846487 17.1279005,19.4384602 C16.3565243,18.8757132 15.5297897,18.5138334 14.7035022,18.3128978 C14.211363,18.1932199 13.8333499,18.1538236 13.6280344,18.1538236 L13.6280344,17.4538236 C13.8859869,17.4538236 14.318693,17.49892 14.8689069,17.6327204 C15.7798747,17.8542485 16.6903954,18.2528033 17.5404575,18.8729545 C18.8673319,19.8409577 19.9172967,21.257484 20.5862988,23.1863571 L20.5873808,23.1867321 L20.5869049,23.1881052 L20.5873808,23.1894784 L20.5862988,23.1898533 C19.9172967,25.1187265 18.8673319,26.5352528 17.5404575,27.503256 C16.6903954,28.1234072 15.7798747,28.521962 14.8689069,28.7434901 C14.318693,28.8772905 13.8859869,28.9223869 13.6280344,28.9223869 L13.6280344,28.2223869 C13.8333499,28.2223869 14.211363,28.1829905 14.7035022,28.0633127 C15.5297897,27.8623771 16.3565243,27.5004973 17.1279005,26.9377503 C18.2877994,26.0915617 19.2198498,24.8648771 19.8431905,23.1881052 Z M27.4205336,23.1898533 L27.4194516,23.1894784 L27.4199275,23.1881052 L27.4194516,23.1867321 L27.4205336,23.1863572 C28.0895357,21.257484 29.1395005,19.8409577 30.4663749,18.8729545 C31.316437,18.2528033 32.2269577,17.8542485 33.1379255,17.6327204 C33.6881395,17.49892 34.1208455,17.4538236 34.3787981,17.4538236 L34.3787981,18.1538236 C34.1734825,18.1538236 33.7954694,18.1932199 33.3033302,18.3128978 C32.4770427,18.5138334 31.6503081,18.8757132 30.8789319,19.4384602 C29.719033,20.2846487 28.7869826,21.5113333 28.1636419,23.1881052 C28.7869826,24.8648771 29.719033,26.0915617 30.8789319,26.9377503 C31.6503081,27.5004973 32.4770427,27.8623771 33.3033302,28.0633127 C33.7954694,28.1829905 34.1734825,28.2223869 34.3787981,28.2223869 L34.3787981,28.9223869 C34.1208455,28.9223869 33.6881395,28.8772905 33.1379255,28.7434901 C32.2269577,28.521962 31.316437,28.1234072 30.4663749,27.503256 C29.1395005,26.5352528 28.0895357,25.1187265 27.4205336,23.1898533 Z" id="-" fill="#9496A8" fill-rule="nonzero"></path>
        <path d="M34.4388781,27.0591499 L42.4080672,27.0591499 C42.5340828,27.0591499 42.6362386,27.1613057 42.6362386,27.2873213 L42.6362386,30.5551164 C42.6362386,30.681132 42.5340828,30.7832878 42.4080672,30.7832878 L34.4388781,30.7832878 C34.3128625,30.7832878 34.2107067,30.681132 34.2107067,30.5551164 L34.2107067,27.2873213 C34.2107067,27.1613057 34.3128625,27.0591499 34.4388781,27.0591499 Z M34.4447492,16.0517241 L42.402196,16.0517241 C42.5314542,16.0517241 42.6362386,16.1565086 42.6362386,16.2857667 L42.6362386,19.5418195 C42.6362386,19.6710776 42.5314542,19.7758621 42.402196,19.7758621 L34.4447492,19.7758621 C34.3154911,19.7758621 34.2107067,19.6710776 34.2107067,19.5418195 L34.2107067,16.2857667 C34.2107067,16.1565086 34.3154911,16.0517241 34.4447492,16.0517241 Z M13.9361702,27.2241379 C14.0654283,27.2241379 14.1702128,27.3289224 14.1702128,27.4581805 L14.1702128,30.7142333 C14.1702128,30.8434914 14.0654283,30.9482759 13.9361702,30.9482759 L5.9787234,30.9482759 C5.84946527,30.9482759 5.74468085,30.8434914 5.74468085,30.7142333 L5.74468085,27.4581805 C5.74468085,27.3289224 5.84946527,27.2241379 5.9787234,27.2241379 L13.9361702,27.2241379 Z M13.9361702,16.0517241 C14.0654283,16.0517241 14.1702128,16.1565086 14.1702128,16.2857667 L14.1702128,19.5418195 C14.1702128,19.6710776 14.0654283,19.7758621 13.9361702,19.7758621 L5.9787234,19.7758621 C5.84946527,19.7758621 5.74468085,19.6710776 5.74468085,19.5418195 L5.74468085,16.2857667 C5.74468085,16.1565086 5.84946527,16.0517241 5.9787234,16.0517241 L13.9361702,16.0517241 Z" id="-" fill="#B3B6C8"></path>
        <rect id="-" fill="#50A7FD" x="16.9787234" y="20.2413793" width="14.0425532" height="6.51724138" rx="0.468085106"></rect>
    </g>
</svg>