<?xml version="1.0" encoding="UTF-8"?>
<svg width="48px" height="48px" viewBox="0 0 48 48" version="1.1" xmlns="http://www.w3.org/2000/svg" xmlns:xlink="http://www.w3.org/1999/xlink">
    <!-- Generator: Sketch 51.2 (57519) - http://www.bohemiancoding.com/sketch -->
    <title>structure-org-chart-down-to-up</title>
    <desc>Created with Sketch.</desc>
    <defs></defs>
    <g id="structure-org-chart-down-to-up" stroke="none" stroke-width="1" fill="none" fill-rule="evenodd">
        <path d="M23.901379,22.4564987 L23.901379,19.8479578 L24.601379,19.8479578 L24.601379,22.4564987 L35.4742767,22.4564987 C35.618269,22.4564987 35.7595351,22.2906797 35.7595351,22.0608285 L35.7595351,19.3267046 C35.7595351,19.0968535 35.618269,18.9310345 35.4742767,18.9310345 L35.4742767,18.2310345 C36.0319714,18.2310345 36.4595351,18.7329113 36.4595351,19.3267046 L36.4595351,22.0608285 C36.4595351,22.6546219 36.0319714,23.1564987 35.4742767,23.1564987 L24.601379,23.1564987 L24.601379,25.1734748 L23.901379,25.1734748 L23.901379,23.1564987 L13.0284814,23.1564987 C12.4707866,23.1564987 12.043223,22.6546219 12.043223,22.0608285 L12.043223,19.3267046 C12.043223,18.7329113 12.4707866,18.2310345 13.0284814,18.2310345 L13.0284814,18.9310345 C12.8844891,18.9310345 12.743223,19.0968535 12.743223,19.3267046 L12.743223,22.0608285 C12.743223,22.2906797 12.8844891,22.4564987 13.0284814,22.4564987 L23.901379,22.4564987 Z" id="-" fill="#9496A8" fill-rule="nonzero"></path>
        <path d="M32.1914894,19.7758621 C32.0622312,19.7758621 31.9574468,19.6710776 31.9574468,19.5418195 L31.9574468,16.2857667 C31.9574468,16.1565086 32.0622312,16.0517241 32.1914894,16.0517241 L40.1489362,16.0517241 C40.2781943,16.0517241 40.3829787,16.1565086 40.3829787,16.2857667 L40.3829787,19.5418195 C40.3829787,19.6710776 40.2781943,19.7758621 40.1489362,19.7758621 L32.1914894,19.7758621 Z M20.0212766,19.7758621 C19.8920185,19.7758621 19.787234,19.6710776 19.787234,19.5418195 L19.787234,16.2857667 C19.787234,16.1565086 19.8920185,16.0517241 20.0212766,16.0517241 L27.9787234,16.0517241 C28.1079815,16.0517241 28.212766,16.1565086 28.212766,16.2857667 L28.212766,19.5418195 C28.212766,19.6710776 28.1079815,19.7758621 27.9787234,19.7758621 L20.0212766,19.7758621 Z M15.8085106,19.7758621 L7.85106383,19.7758621 C7.7218057,19.7758621 7.61702128,19.6710776 7.61702128,19.5418195 L7.61702128,16.2857667 C7.61702128,16.1565086 7.7218057,16.0517241 7.85106383,16.0517241 L15.8085106,16.0517241 C15.9377688,16.0517241 16.0425532,16.1565086 16.0425532,16.2857667 L16.0425532,19.5418195 C16.0425532,19.6710776 15.9377688,19.7758621 15.8085106,19.7758621 Z" id="-" fill="#B3B6C8"></path>
        <rect id="-" fill="#50A7FD" transform="translate(24.000000, 28.155172) scale(1, -1) translate(-24.000000, -28.155172) " x="16.9787234" y="24.8965517" width="14.0425532" height="6.51724138" rx="0.468085106"></rect>
    </g>
</svg>