<?xml version="1.0" encoding="UTF-8"?>
<svg width="48px" height="48px" viewBox="0 0 48 48" version="1.1" xmlns="http://www.w3.org/2000/svg" xmlns:xlink="http://www.w3.org/1999/xlink">
    <!-- Generator: Sketch 51.2 (57519) - http://www.bohemiancoding.com/sketch -->
    <title>structure-org-chart-up-to-down</title>
    <desc>Created with Sketch.</desc>
    <defs></defs>
    <g id="structure-org-chart-up-to-down" stroke="none" stroke-width="1" fill="none" fill-rule="evenodd">
        <path d="M23.901379,24.3090186 L23.901379,22.2920424 L24.601379,22.2920424 L24.601379,24.3090186 L35.4742767,24.3090186 C36.0319714,24.3090186 36.4595351,24.8108954 36.4595351,25.4046887 L36.4595351,28.1388126 C36.4595351,28.732606 36.0319714,29.2344828 35.4742767,29.2344828 L35.4742767,28.5344828 C35.618269,28.5344828 35.7595351,28.3686638 35.7595351,28.1388126 L35.7595351,25.4046887 C35.7595351,25.1748376 35.618269,25.0090186 35.4742767,25.0090186 L24.601379,25.0090186 L24.601379,27.6175595 L23.901379,27.6175595 L23.901379,25.0090186 L13.0284814,25.0090186 C12.8844891,25.0090186 12.743223,25.1748376 12.743223,25.4046887 L12.743223,28.1388126 C12.743223,28.3686638 12.8844891,28.5344828 13.0284814,28.5344828 L13.0284814,29.2344828 C12.4707866,29.2344828 12.043223,28.732606 12.043223,28.1388126 L12.043223,25.4046887 C12.043223,24.8108954 12.4707866,24.3090186 13.0284814,24.3090186 L23.901379,24.3090186 Z" id="-" fill="#9496A8" fill-rule="nonzero"></path>
        <path d="M32.1914894,27.6896552 L40.1489362,27.6896552 C40.2781943,27.6896552 40.3829787,27.7944396 40.3829787,27.9236977 L40.3829787,31.1797506 C40.3829787,31.3090087 40.2781943,31.4137931 40.1489362,31.4137931 L32.1914894,31.4137931 C32.0622312,31.4137931 31.9574468,31.3090087 31.9574468,31.1797506 L31.9574468,27.9236977 C31.9574468,27.7944396 32.0622312,27.6896552 32.1914894,27.6896552 Z M20.1562535,27.6637931 L28.1137003,27.6637931 C28.2429585,27.6637931 28.3477429,27.7685775 28.3477429,27.8978357 L28.3477429,31.1538885 C28.3477429,31.2831466 28.2429585,31.387931 28.1137003,31.387931 L20.1562535,31.387931 C20.0269954,31.387931 19.922211,31.2831466 19.922211,31.1538885 L19.922211,27.8978357 C19.922211,27.7685775 20.0269954,27.6637931 20.1562535,27.6637931 Z M15.8790949,27.6637931 C16.008353,27.6637931 16.1131375,27.7685775 16.1131375,27.8978357 L16.1131375,31.1538885 C16.1131375,31.2831466 16.008353,31.387931 15.8790949,31.387931 L7.92164809,31.387931 C7.79238996,31.387931 7.68760554,31.2831466 7.68760554,31.1538885 L7.68760554,27.8978357 C7.68760554,27.7685775 7.79238996,27.6637931 7.92164809,27.6637931 L15.8790949,27.6637931 Z" id="-" fill="#B3B6C8"></path>
        <rect id="-" fill="#50A7FD" x="16.9787234" y="16.0517241" width="14.0425532" height="6.51724138" rx="0.468085106"></rect>
    </g>
</svg>