<?xml version="1.0" encoding="UTF-8"?>
<svg width="48px" height="48px" viewBox="0 0 48 48" version="1.1" xmlns="http://www.w3.org/2000/svg" xmlns:xlink="http://www.w3.org/1999/xlink">
    <!-- Generator: Sketch 51.2 (57519) - http://www.bohemiancoding.com/sketch -->
    <title>structure-timeline-vertical</title>
    <desc>Created with Sketch.</desc>
    <defs></defs>
    <g id="structure-timeline-vertical" stroke="none" stroke-width="1" fill="none" fill-rule="evenodd">
        <path d="M24.5313367,24.9860582 L24.5840426,24.9860582 C24.5840426,25.1343407 24.7067813,25.2559113 24.859852,25.2559113 L28.4061055,25.2559113 L28.4061055,25.9559113 L24.859852,25.9559113 C24.744636,25.9559113 24.6340284,25.9360447 24.5313367,25.8995546 L24.5313367,29.5656892 C24.5313367,30.1007696 24.1031994,30.5372446 23.5716545,30.5372446 L20.1167891,30.5372446 C19.5852442,30.5372446 19.157107,30.1007696 19.157107,29.5656892 L19.857107,29.5656892 C19.857107,29.7171599 19.9748977,29.8372446 20.1167891,29.8372446 L23.5716545,29.8372446 C23.7135459,29.8372446 23.8313367,29.7171599 23.8313367,29.5656892 L23.8313367,19.2064331 L24.5313367,19.2064331 L24.5313367,24.9860582 Z" id="-" fill="#9496A8" fill-rule="nonzero"></path>
        <path d="M21.8569563,28.4786166 C21.9842448,28.4786166 22.0874325,28.5818043 22.0874325,28.7090928 L22.0874325,31.9722783 C22.0874325,32.0995668 21.9842448,32.2027545 21.8569563,32.2027545 L13.8923768,32.2027545 C13.7650883,32.2027545 13.6619006,32.0995668 13.6619006,31.9722783 L13.6619006,28.7090928 C13.6619006,28.5818043 13.7650883,28.4786166 13.8923768,28.4786166 L21.8569563,28.4786166 Z M34.599311,23.9211823 C34.7265995,23.9211823 34.8297872,24.02437 34.8297872,24.1516585 L34.8297872,27.414844 C34.8297872,27.5421325 34.7265995,27.6453202 34.599311,27.6453202 L26.6347315,27.6453202 C26.507443,27.6453202 26.4042553,27.5421325 26.4042553,27.414844 L26.4042553,24.1516585 C26.4042553,24.02437 26.507443,23.9211823 26.6347315,23.9211823 L34.599311,23.9211823 Z" id="-" fill="#B3B6C8"></path>
        <rect id="-" fill="#55ADF6" transform="translate(24.000000, 18.844828) scale(-1, 1) translate(-24.000000, -18.844828) " x="16.9787234" y="15.5862069" width="14.0425532" height="6.51724138" rx="0.23047619"></rect>
    </g>
</svg>