<?xml version="1.0" encoding="UTF-8"?>
<svg width="48px" height="48px" viewBox="0 0 48 48" version="1.1" xmlns="http://www.w3.org/2000/svg" xmlns:xlink="http://www.w3.org/1999/xlink">
    <!-- Generator: Sketch 51.2 (57519) - http://www.bohemiancoding.com/sketch -->
    <title>structure-timeline-horizontal</title>
    <desc>Created with Sketch.</desc>
    <defs></defs>
    <g id="structure-timeline-horizontal" stroke="none" stroke-width="1" fill="none" fill-rule="evenodd">
        <polygon id="-" fill="#9496A8" fill-rule="nonzero" points="17.9620528 24.11205 17.9620528 23.41205 32.2543605 23.41205 32.2543605 24.11205"></polygon>
        <path d="M21.6782168,21.5679045 L29.6356636,21.5679045 C29.7649218,21.5679045 29.8697062,21.6726889 29.8697062,21.8019471 L29.8697062,25.0579999 C29.8697062,25.187258 29.7649218,25.2920424 29.6356636,25.2920424 L21.6782168,25.2920424 C21.5489587,25.2920424 21.4441743,25.187258 21.4441743,25.0579999 L21.4441743,21.8019471 C21.4441743,21.6726889 21.5489587,21.5679045 21.6782168,21.5679045 Z M33.0399189,21.5679045 L40.9973658,21.5679045 C41.1266239,21.5679045 41.2314083,21.6726889 41.2314083,21.8019471 L41.2314083,25.0579999 C41.2314083,25.187258 41.1266239,25.2920424 40.9973658,25.2920424 L33.0399189,25.2920424 C32.9106608,25.2920424 32.8058764,25.187258 32.8058764,25.0579999 L32.8058764,21.8019471 C32.8058764,21.6726889 32.9106608,21.5679045 33.0399189,21.5679045 Z" id="-" fill="#B3B6C8"></path>
        <rect id="-" fill="#50A7FD" x="5.14893617" y="20.2413793" width="14.0425532" height="6.51724138" rx="0.419047619"></rect>
    </g>
</svg>