<?xml version="1.0" encoding="UTF-8"?>
<svg width="48px" height="48px" viewBox="0 0 48 48" version="1.1" xmlns="http://www.w3.org/2000/svg" xmlns:xlink="http://www.w3.org/1999/xlink">
    <!-- Generator: Sketch 51.2 (57519) - http://www.bohemiancoding.com/sketch -->
    <title>structure-tree-chart-right</title>
    <desc>Created with Sketch.</desc>
    <defs></defs>
    <g id="structure-tree-chart-right" stroke="none" stroke-width="1" fill="none" fill-rule="evenodd">
        <path d="M21.536793,25.1738421 C21.536793,25.3602884 21.6866828,25.5108243 21.8708266,25.5108243 L25.7470171,25.5108243 L25.7470171,26.2108243 L21.8708266,26.2108243 C21.7539177,26.2108243 21.6415631,26.1913764 21.536793,26.1555365 L21.536793,30.6697001 C21.536793,30.8561464 21.6866828,31.0066823 21.8708266,31.0066823 L25.7470171,31.0066823 C25.931161,31.0066823 26.0810507,30.8561464 26.0810507,30.6697001 L26.7810507,30.6697001 C26.7810507,31.2420733 26.3184359,31.7066823 25.7470171,31.7066823 L21.8708266,31.7066823 C21.2994078,31.7066823 20.836793,31.2420733 20.836793,30.6697001 L20.836793,19.2199959 L21.536793,19.2199959 L21.536793,25.1738421 Z" id="-" fill="#9496A8" fill-rule="nonzero"></path>
        <path d="M24.2669673,29.9827178 L32.1803299,29.9827178 C32.3217616,29.9827178 32.4364146,30.0973708 32.4364146,30.2388025 L32.4364146,33.4507711 C32.4364146,33.5922027 32.3217616,33.7068557 32.1803299,33.7068557 L24.2669673,33.7068557 C24.1255357,33.7068557 24.0108827,33.5922027 24.0108827,33.4507711 L24.0108827,30.2388025 C24.0108827,30.0973708 24.1255357,29.9827178 24.2669673,29.9827178 Z M24.2669673,24.4868598 L32.1803299,24.4868598 C32.3217616,24.4868598 32.4364146,24.6015128 32.4364146,24.7429445 L32.4364146,27.9549131 C32.4364146,28.0963447 32.3217616,28.2109978 32.1803299,28.2109978 L24.2669673,28.2109978 C24.1255357,28.2109978 24.0108827,28.0963447 24.0108827,27.9549131 L24.0108827,24.7429445 C24.0108827,24.6015128 24.1255357,24.4868598 24.2669673,24.4868598 Z" id="-" fill="#B3B6C8"></path>
        <rect id="-" fill="#50A7FD" x="14.5744681" y="15.3270965" width="14.0425532" height="6.51724138" rx="0.468085106"></rect>
    </g>
</svg>