<?xml version="1.0" encoding="UTF-8"?>
<svg width="48px" height="48px" viewBox="0 0 48 48" version="1.1" xmlns="http://www.w3.org/2000/svg" xmlns:xlink="http://www.w3.org/1999/xlink">
    <!-- Generator: Sketch 51.2 (57519) - http://www.bohemiancoding.com/sketch -->
    <title>structure-tree-chart-left</title>
    <desc>Created with Sketch.</desc>
    <defs></defs>
    <g id="structure-tree-chart-left" stroke="none" stroke-width="1" fill="none" fill-rule="evenodd">
        <path d="M21.3870344,25.1738421 C21.3870344,25.3602884 21.5369241,25.5108243 21.721068,25.5108243 L25.5972585,25.5108243 L25.5972585,26.2108243 L21.721068,26.2108243 C21.604159,26.2108243 21.4918045,26.1913764 21.3870344,26.1555365 L21.3870344,30.6697001 C21.3870344,30.8561464 21.5369241,31.0066823 21.721068,31.0066823 L25.5972585,31.0066823 C25.7814023,31.0066823 25.9312921,30.8561464 25.9312921,30.6697001 L26.6312921,30.6697001 C26.6312921,31.2420733 26.1686773,31.7066823 25.5972585,31.7066823 L21.721068,31.7066823 C21.1496492,31.7066823 20.6870344,31.2420733 20.6870344,30.6697001 L20.6870344,19.2199959 L21.3870344,19.2199959 L21.3870344,25.1738421 Z" id="-" fill="#9496A8" fill-rule="nonzero" transform="translate(23.659163, 25.463339) scale(-1, 1) translate(-23.659163, -25.463339) "></path>
        <path d="M23.2011178,29.9827178 C23.3425494,29.9827178 23.4572025,30.0973708 23.4572025,30.2388025 L23.4572025,33.4507711 C23.4572025,33.5922027 23.3425494,33.7068557 23.2011178,33.7068557 L15.2877552,33.7068557 C15.1463235,33.7068557 15.0316705,33.5922027 15.0316705,33.4507711 L15.0316705,30.2388025 C15.0316705,30.0973708 15.1463235,29.9827178 15.2877552,29.9827178 L23.2011178,29.9827178 Z M23.2011178,24.4868598 C23.3425494,24.4868598 23.4572025,24.6015128 23.4572025,24.7429445 L23.4572025,27.9549131 C23.4572025,28.0963447 23.3425494,28.2109978 23.2011178,28.2109978 L15.2877552,28.2109978 C15.1463235,28.2109978 15.0316705,28.0963447 15.0316705,27.9549131 L15.0316705,24.7429445 C15.0316705,24.6015128 15.1463235,24.4868598 15.2877552,24.4868598 L23.2011178,24.4868598 Z" id="-" fill="#B3B6C8"></path>
        <rect id="-" fill="#55ADF6" transform="translate(25.872340, 18.585717) scale(-1, 1) translate(-25.872340, -18.585717) " x="18.8510638" y="15.3270965" width="14.0425532" height="6.51724138" rx="0.468085106"></rect>
    </g>
</svg>