<?xml version="1.0" encoding="UTF-8"?>
<svg width="64px" height="64px" viewBox="0 0 64 64" version="1.1" xmlns="http://www.w3.org/2000/svg" xmlns:xlink="http://www.w3.org/1999/xlink">
    <title>cat</title>
    <g id="cat" stroke="none" stroke-width="1" fill="none" fill-rule="evenodd">
        <rect id="矩形-" x="0" y="1.13686838e-13" width="64" height="64"></rect>
        <g id="编组-" transform="translate(5.593115, 5.736691)">
            <path d="M7.4984062,39.7059574 L3.21201665,41.8677906 C2.8784117,42.0778368 2.65157071,42.4027614 2.55878576,42.7642127 C2.47179811,43.1030802 2.50215409,43.4737296 2.67171207,43.810856 C2.85043672,44.1662082 3.14887796,44.4210491 3.51800577,44.5431254 C3.84402739,44.6509459 4.23493431,44.65631 4.65012969,44.4948406 L9.42815138,42.0922494 C13.2692264,46.1570492 18.6202907,48.2815516 26.4004688,48.3916265 C33.2363389,48.2804248 38.5911708,46.1418539 42.443349,42.0268491 L47.4462458,44.5355967 C47.8137686,44.6781748 48.2098593,44.6665572 48.5553503,44.5255461 C48.8792639,44.3933417 49.15873,44.1479824 49.3282879,43.810856 C49.5144029,43.4408099 49.5329075,43.0303581 49.4123719,42.665889 C49.2918363,42.30142 49.0322605,41.9829337 48.6622144,41.7968187 L44.3607216,39.6334441 L44.3607211,39.6334438 C45.3624482,38.1433842 46.0518646,36.3529559 46.4159023,34.4009957 L51.1443672,34.3944307 C51.5367293,34.3566507 51.8853318,34.1683069 52.130606,33.8871159 C52.3605785,33.6234672 52.5,33.2787005 52.5,32.9013358 C52.5,32.5035699 52.3478869,32.1418066 52.0729706,31.8668903 C51.8301492,31.6240689 51.4833175,31.4436294 51.0398181,31.4013343 L46.7163316,31.4014901 C46.7760786,28.2944099 46.0978429,24.9856957 44.6632861,21.9706958 C44.017654,20.6137745 43.2462387,19.357322 42.3556382,18.2134661 C36.1012946,6.38002692 32.7584074,0.514603041 31.9978949,-0.0557831367 C31.6099629,-0.346732994 31.226855,-0.465739687 30.8509986,-0.458035876 C30.4828333,-0.45048971 30.1039546,-0.319770278 29.7186576,-0.0188144333 C29.1796545,0.402201371 28.5861717,1.23216486 27.91833,2.51307412 L27.5395079,3.25552458 C26.6801441,4.9782806 25.5890072,7.44929986 24.2395884,10.7547254 C23.9943844,10.7703596 23.7511273,10.7894518 23.5098397,10.8119579 L21.5167772,9.65411132 L21.0797239,9.40170189 C16.2109496,6.59278158 12.7504341,4.69650174 10.4002282,3.607244 C9.22526661,3.06268063 8.3146816,2.71538442 7.63675424,2.54578213 C6.63051269,2.29404296 6.03470006,2.44202845 5.68975504,2.70073801 C5.34027369,2.96284984 5.0239008,3.51629854 4.98614982,4.61334996 C4.96040103,5.3616154 5.04431599,6.40751087 5.24689477,7.79095218 C5.64988858,10.5430583 6.52455048,14.6838593 7.88588275,20.5542822 C7.59050833,21.0720101 7.31493614,21.6056192 7.05995853,22.1552832 C5.68387818,25.1217468 5.03477427,28.3595504 5.09370789,31.4031194 L0.85571236,31.4082331 C0.463317803,31.4459954 0.114684737,31.6343456 -0.130605956,31.9155556 C-0.360578476,32.1792043 -0.5,32.5239711 -0.5,32.9013358 C-0.5,33.3155493 -0.332106781,33.6905493 -0.0606601718,33.9619959 C0.210786438,34.2334425 0.585786438,34.4013358 1,34.4013358 L5.39444954,34.4022628 C5.76460297,36.3860047 6.47066683,38.2025013 7.4984062,39.7059574 Z" id="wb" stroke="#FFFFFF" stroke-width="1.5" fill-rule="nonzero"></path>
            <path d="M6.58975682,3.90073668 C7.19749251,3.44493351 12.6403226,6.21211714 22.9182472,12.2022876 L9.7763654,22.0518393 C7.04422399,10.4069074 5.98202112,4.35653985 6.58975682,3.90073668 Z" id="路径-" stroke="#000000" stroke-width="1.5" fill="#FFC55D"></path>
            <path d="M35.1291339,1.0372995 C35.7368696,0.58149633 37.6915467,4.43357673 40.9931651,12.5935407 L25.142994,18.9022152 C31.1926849,7.44807458 34.5213983,1.49310267 35.1291339,1.0372995 Z" id="路径-" stroke="#000000" stroke-width="1.5" fill="#FFC55D" transform="translate(33.068080, 9.951672) scale(-1, 1) translate(-33.068080, -9.951672) "></path>
            <path d="M25.4269085,46.8918701 C17.9776853,46.7709186 12.4381178,44.1278238 8.8082059,38.9625859 C3.24748981,31.0498808 7.85124712,12.2022876 25.9049843,12.2022876 L25.9049843,12.2022876 C43.9587216,12.2022876 48.5624789,31.0498808 43.0017628,38.9625859 C39.2946187,44.2377225 33.5956926,46.882249 25.9049843,46.8961651 Z" id="形状结合" fill="#FFC55D"></path>
            <path d="M9.7763654,40.4793137 C15.239084,38.0608187 21.0618655,33.2511697 23.1101334,31.1893544 C23.2374963,31.0278237 23.3794802,30.8779528 23.5333671,30.7411823 C23.5415164,30.7337425 23.5477563,30.7266943 23.5539121,30.719711 C24.1844946,30.1723044 25.0059455,29.8401113 25.9049843,29.8401113 C26.8040232,29.8401113 27.6254741,30.1723044 28.2532883,30.720642 C28.2622124,30.7266943 28.2684523,30.7337425 28.2747758,30.7408552 C28.4304885,30.8779528 28.5724724,31.0278237 28.700804,31.1890459 C30.7481032,33.2511697 36.5708847,38.0608187 42.0336033,40.4793137 C39.6570425,43.2492973 35.1260256,46.8961651 25.9049843,46.8961651 L25.9049843,46.8961651 C16.6839431,46.8961651 12.1529262,43.2492973 9.7763654,40.4793137 Z" id="形状结合" fill="#FFFFFF"></path>
            <path d="M12.6075285,17.842427 L9.7763654,8.47698722 L18.7621272,13.6465479 C16.879374,14.4680394 15.6035361,15.1022787 14.9346136,15.5492659 C14.2656911,15.9962531 13.489996,16.7606401 12.6075285,17.842427 Z" id="路径-" fill="#FFFFFF"></path>
            <polygon id="路径-" fill="#FFFFFF" points="28.8663819 12.2022876 31.3789425 6.67977276 34.4173275 14.1018323"></polygon>
            <path d="M26.8415523,31.9217439 C26.5514882,31.9217439 26.2399323,32.0630372 25.9068847,32.3456238 C25.6032427,32.0630372 25.3005599,31.9217439 24.9988361,31.9217439 C24.5462505,31.9217439 23.4068847,32.2280123 23.4068847,33.5211037 C23.4068847,34.8448701 24.5283291,35.9217439 25.9068847,35.9217439 C27.2854402,35.9217439 28.4068847,34.8448701 28.4068847,33.5211037 C28.4068847,32.2195833 27.2766485,31.9217439 26.8415523,31.9217439 Z" id="路径" fill="#000000" fill-rule="nonzero"></path>
            <circle id="椭圆形" fill="#000000" cx="18.7621272" cy="25.7584786" r="2.04081633"></circle>
            <circle id="椭圆形" fill="#000000" cx="33.0478415" cy="25.7584786" r="2.04081633"></circle>
            <path d="M25.4269085,46.8918701 C17.9776853,46.7709186 12.4381178,44.1278238 8.8082059,38.9625859 C3.24748981,31.0498808 7.85124712,12.2022876 25.9049843,12.2022876 L25.9049843,12.2022876 C43.9587216,12.2022876 48.5624789,31.0498808 43.0017628,38.9625859 C39.2946187,44.2377225 33.5956926,46.882249 25.9049843,46.8961651 Z" id="形状结合" stroke="#000000" stroke-width="1.5"></path>
            <line x1="16.2473706" y1="43.1368741" x2="4.01176746" y2="36.9829684" id="路径-" stroke="#000000" stroke-width="1.5" stroke-linecap="round" transform="translate(10.129569, 40.059921) scale(-1, 1) translate(-10.129569, -40.059921) "></line>
            <line x1="15.632708" y1="32.9013358" x2="1" y2="32.9013358" id="路径-" stroke="#000000" stroke-width="1.5" stroke-linecap="round"></line>
            <line x1="47.9882325" y1="43.1368741" x2="35.7526294" y2="36.9829684" id="路径-" stroke="#000000" stroke-width="1.5" stroke-linecap="round"></line>
            <line x1="51" y1="32.9013358" x2="36.367292" y2="32.9013358" id="路径-" stroke="#000000" stroke-width="1.5" stroke-linecap="round" transform="translate(43.683646, 32.901336) scale(-1, 1) translate(-43.683646, -32.901336) "></line>
            <line x1="25.9049843" y1="34.9421521" x2="25.9049843" y2="39.1520327" id="路径-" stroke="#000000" stroke-width="1.5" stroke-linecap="round"></line>
        </g>
    </g>
</svg>