<?xml version="1.0" encoding="UTF-8"?>
<svg width="64px" height="64px" viewBox="0 0 64 64" version="1.1" xmlns="http://www.w3.org/2000/svg" xmlns:xlink="http://www.w3.org/1999/xlink">
    <title>camera</title>
    <defs>
        <rect id="path-1" x="6.2" y="0.333333333" width="39" height="22"></rect>
    </defs>
    <g id="camera" stroke="none" stroke-width="1" fill="none" fill-rule="evenodd">
        <rect id="Rectangle" x="0" y="0" width="64" height="64"></rect>
        <g id="Group" transform="translate(6.800000, 8.666667)">
            <path d="M45.9500434,-0.416666667 L5.45004341,-0.416666667 L5.44937673,11.1005424 L3.97312422,11.100954 C2.93779943,11.100954 2.00029943,11.520687 1.3216829,12.1993036 C0.64306638,12.8779201 0.223333333,13.8154201 0.223333333,14.850954 L0.223333333,41.5333333 C0.223333333,42.5688672 0.64306638,43.5063672 1.3216829,44.1849838 C2.00029943,44.8636003 2.93779943,45.2833333 3.97333333,45.2833333 L47.3066667,45.2833333 C48.3422006,45.2833333 49.2797006,44.8636003 49.9583171,44.1849838 C50.6369336,43.5063672 51.0566667,42.5688672 51.0566667,41.5333333 L51.0566667,14.850954 C51.0566667,13.8154201 50.6369336,12.8779201 49.9583171,12.1993036 C49.2797006,11.520687 48.3422006,11.100954 47.3066667,11.100954 L45.9493767,11.1005542 L45.9500434,-0.416666667 Z" id="wb" stroke="#FFFFFF" stroke-width="1.5" fill="#000000" fill-rule="nonzero"></path>
            <g id="矩形" stroke-linejoin="square">
                <rect stroke="#FFFFFF" stroke-width="4" fill="#FFC55D" fill-rule="evenodd" x="8.2" y="2.33333333" width="35" height="18"></rect>
                <rect stroke="#000000" stroke-width="1.5" x="6.95" y="1.08333333" width="37.5" height="20.5"></rect>
            </g>
            <path d="M17.7,11.9758698 C17.7,10.2402948 19.1069615,8.83333333 20.8425365,8.83333333 L30.3694293,8.83333333 C32.1050043,8.83333333 33.5119658,10.2402948 33.5119658,11.9758698 L33.5119658,11.9758698 L33.5119658,11.9758698" id="Rectangle-" stroke="#000000" stroke-width="1.5" fill="#BDCFD1"></path>
            <path d="M47.3066667,12.600954 L3.97333333,12.600954 C3.35201299,12.600954 2.78951299,12.8527938 2.38234308,13.2599637 C1.97517316,13.6671336 1.72333333,14.2296336 1.72333333,14.850954 L1.72333333,41.5333333 C1.72333333,42.1546537 1.97517316,42.7171537 2.38234308,43.1243236 C2.78951299,43.5314935 3.35201299,43.7833333 3.97333333,43.7833333 L47.3066667,43.7833333 C47.927987,43.7833333 48.490487,43.5314935 48.8976569,43.1243236 C49.3048268,42.7171537 49.5566667,42.1546537 49.5566667,41.5333333 L49.5566667,14.850954 C49.5566667,14.2296336 49.3048268,13.6671336 48.8976569,13.2599637 C48.490487,12.8527938 47.927987,12.600954 47.3066667,12.600954 Z" id="Rectangle-" stroke="#000000" stroke-width="1.5" fill="#E9F4F5"></path>
            <path d="M47.0177778,15.1191919 L47.0177778,31.4603816 L4.26222222,31.4603816 L4.26222222,15.1191919 L47.0177778,15.1191919 Z M12.4844444,16.7533109 L5.90666667,16.7533109 L5.90666667,20.0215488 L12.4844444,20.0215488 L12.4844444,16.7533109 Z" id="Combined-Shape" fill="#BDCFD1"></path>
            <circle id="椭圆形" fill="#E9F4F5" cx="43" cy="19" r="2"></circle>
            <ellipse id="Oval" stroke="#000000" stroke-width="1.5" fill="#FFFFFF" cx="25.64" cy="28.1921437" rx="10.7611111" ry="10.6888328"></ellipse>
            <path d="M25.64,20.0215488 C30.1810079,20.0215488 33.8622222,23.6796487 33.8622222,28.1921437 C33.8622222,32.7046386 30.1810079,36.3627385 25.64,36.3627385 C21.0989921,36.3627385 17.4177778,32.7046386 17.4177778,28.1921437 C17.4177778,27.0653677 17.6473042,25.991864 18.0624303,25.0152835 C18.5900958,26.1208364 19.7230396,26.8848485 21.0355556,26.8848485 C22.8519587,26.8848485 24.3244444,25.4216085 24.3244444,23.6166105 C24.3244444,22.3123181 23.5555839,21.1864752 22.4436793,20.6622245 C23.4257939,20.2496391 24.506092,20.0215488 25.64,20.0215488 Z" id="Combined-Shape" fill="#94E8F4"></path>
            <line x1="4.26222222" y1="39.5" x2="9.62244226" y2="39.5" id="路径" stroke="#000000" stroke-width="1.5"></line>
        </g>
    </g>
</svg>