<?xml version="1.0" encoding="UTF-8"?>
<svg width="64px" height="64px" viewBox="0 0 64 64" version="1.1" xmlns="http://www.w3.org/2000/svg" xmlns:xlink="http://www.w3.org/1999/xlink">
    <title>presentation</title>
    <g id="presentation" stroke="none" stroke-width="1" fill="none" fill-rule="evenodd">
        <rect id="Rectangle" x="0" y="0" width="64" height="64"></rect>
        <g id="编组" transform="translate(5.500000, 10.000000)">
            <path d="M28.1920701,-0.75 L24.8081858,-0.75 L24.8080379,2.18103069 L3.20354754,2.18191489 C2.11182775,2.18191489 1.12343319,2.62443421 0.407976255,3.33989115 C-0.307480683,4.05534809 -0.75,5.04374264 -0.75,6.13549313 C-0.75,7.10064957 -0.404062013,7.98496668 0.170366213,8.67143799 C0.621282449,9.2103061 1.2132185,9.62692953 1.8892541,9.86515141 L1.88974855,37.3138433 C1.88974855,38.3493637 2.3094816,39.2868637 2.98809812,39.9654802 C3.66671464,40.6440967 4.60421464,41.0638298 5.63974855,41.0638298 L11.8030625,41.0631444 L9.13773928,45.6809279 L11.7358095,47.1809244 L15.2670694,41.063 L37.0739949,41.063 L40.6062767,47.1808761 L43.2043592,45.6808725 L40.5381522,41.0631327 L47.3601748,41.0638298 C48.3957854,41.0638298 49.3332854,40.6440967 50.0119019,39.9654802 C50.6905184,39.2868637 51.1102515,38.3493637 51.1102515,37.3138298 L51.1107459,9.86515141 C51.7867815,9.62692953 52.3787176,9.2103061 52.8296338,8.67143799 C53.404062,7.98496668 53.75,7.10064957 53.75,6.13549313 C53.75,5.04374264 53.3074807,4.05534809 52.5920237,3.33989115 C51.8765668,2.62443421 50.8881722,2.18191489 49.7964218,2.18191489 L28.191218,2.1810307 L28.1920701,-0.75 Z" id="wb" stroke="#FFFFFF" stroke-width="1.5"></path>
            <rect id="Rectangle-" stroke="#000000" stroke-width="1.5" fill="#BDF3FB" x="0.75" y="3.68191489" width="51.5" height="4.90715647" rx="2.45357823"></rect>
            <path d="M49.6102515,8.41295938 L3.38974855,8.41295938 L3.38974855,37.3138298 C3.38974855,37.9351501 3.64158838,38.4976501 4.04875829,38.90482 C4.45592821,39.31199 5.01842821,39.5638298 5.63974855,39.5638298 L47.3602515,39.5638298 C47.9815718,39.5638298 48.5440718,39.31199 48.9512417,38.90482 C49.3584116,38.4976501 49.6102515,37.9351501 49.6102515,37.3138298 L49.6102515,8.41295938 Z" id="Rectangle--" stroke="#000000" stroke-width="1.5" fill="#E9F4F5"></path>
            <rect id="Rectangle-" fill="#000000" x="25.558148" y="0" width="1.88370406" height="3.76740812"></rect>
            <circle id="Oval-" fill="#8497DD" cx="17.2907801" cy="23.5697937" r="7.53481625"></circle>
            <path d="M24.8255964,23.5697937 C24.8255964,19.4084296 21.4521442,16.0349774 17.2907801,16.0349774 C17.2907801,17.4303138 17.2907801,19.9419192 17.2907801,23.5697937 C19.8023856,23.5697937 22.313991,23.5697937 24.8255964,23.5697937 Z" id="Oval-" fill="#FFFFFF"></path>
            <rect id="Rectangle-" fill="#8497DD" x="29.1632415" y="19.3837847" width="15.0696325" height="2.09300451"></rect>
            <rect id="Rectangle--" fill="#8497DD" x="29.1632415" y="26.0813991" width="8.37201805" height="2.09300451"></rect>
            <line x1="14.4664751" y1="39.4511027" x2="10.8116977" y2="45.7813628" id="路径" stroke="#000000" stroke-width="1.5"></line>
            <line x1="41.5303049" y1="39.4511027" x2="37.8755275" y2="45.7813628" id="路径" stroke="#000000" stroke-width="1.5" transform="translate(39.702916, 42.616233) scale(-1, 1) translate(-39.702916, -42.616233) "></line>
        </g>
    </g>
</svg>