<?xml version="1.0" encoding="UTF-8"?>
<svg width="64px" height="64px" viewBox="0 0 64 64" version="1.1" xmlns="http://www.w3.org/2000/svg" xmlns:xlink="http://www.w3.org/1999/xlink">
    <title>fire</title>
    <g id="fire" stroke="none" stroke-width="1" fill="none" fill-rule="evenodd">
        <rect id="Rectangle-" x="0" y="0" width="64" height="64"></rect>
        <path d="M23.5868186,23.8725982 C23.4802356,23.7442016 23.3748466,23.6160302 23.2700442,23.4886061 C22.5532217,22.6170567 21.8588494,21.7817631 21.0287938,21.1173665 C19.5490988,19.9328666 17.5532618,18.627033 15.9180288,18.1053436 C15.499231,17.9717343 15.1547602,17.8862108 13.8992084,18.3876133 C13.5887942,18.7444099 13.4214888,19.3879954 13.7423695,20.4502401 C14.8283645,24.0449661 14.4312223,27.4900674 12.819684,31.2166379 C11.9255911,33.2807623 11.0157855,35.3981535 10.6170051,37.5811899 C9.61948112,43.0426423 10.6911601,48.03948 13.3704766,51.9738255 C16.0548719,55.9156289 20.3615252,58.8008046 25.8690308,59.9952493 C31.108403,61.1317474 36.3360752,60.9481581 41.4902653,59.5055476 C45.312971,58.4355249 48.3622605,56.5640278 50.5565802,53.9638613 C52.7280962,51.390716 54.0679352,48.098142 54.4642858,44.128997 C55.0968623,37.7950986 54.3288769,31.5611856 51.970366,25.5869692 C51.7868701,25.1217256 51.5838597,24.6618983 51.3582152,24.2157217 C50.8692864,23.2487491 50.3433102,22.9196398 49.8601631,22.8649181 C49.3771894,22.8102161 48.7872412,23.0217975 48.0836992,23.8312261 C47.3258942,24.7031916 46.547682,25.5574515 45.5362938,26.6678332 C42.7868888,18.1950315 38.7379179,10.9214752 30.812165,6.3332474 C30.4831362,6.16377396 30.2172153,6.01262772 29.0117226,6.54739393 C28.559936,7.03134758 28.4410597,8.00541555 28.4765084,8.40085145 C28.9512936,13.6964668 27.2158062,18.3476516 24.3885946,22.6884143 C24.129458,23.0861344 23.8603026,23.477398 23.5868186,23.8725982 Z" id="路径" stroke="#FFFFFF" stroke-width="1.5" fill="#ECAA5F"></path>
        <path d="M35.1923335,57.6973755 C19.0993802,58.9316242 14.588044,46.9318419 22.6978609,32.1684659 C25.0340167,32.5655387 25.720097,33.4918729 26.697152,34.5144588 C28.7065142,33.0530988 30.837085,29.4012264 32.2518502,25.18298 C36.8326677,27.6273452 40.2645902,33.2310129 40.8742964,36.3158041 C42.7030186,35.4926719 43.3430166,34 44.2999719,33.0530988 C46.4611154,36.3158041 51.2852869,56.4631267 35.1923335,57.6973755 Z" id="路径-" fill="#FFDC64"></path>
        <path d="M42.6083644,11.0685096 C45.6508401,13.7649368 46.1212072,17.9097429 46.1212072,19.9298676 C46.1212072,20.267336 46.1080808,20.6640973 46.0720298,21.1034944 C46.572895,20.9564568 46.9973046,20.7621046 47.3079538,20.5395827 C48.3530619,19.7909586 49.5106186,17.7206454 49.6411665,15.4328731 C49.7373265,13.7477278 49.2881444,11.9753739 47.9079172,10.5797816 C46.3472607,9.00175144 44.3055401,8.07627669 43.0844936,7.90466979 C42.5728195,7.8327587 42.1419441,7.8095685 41.2557237,9.09800377 C41.2827657,9.49811845 41.5946222,10.1700696 42.6083644,11.0685096 Z" id="路径-" stroke="#FFFFFF" stroke-width="1.5" fill="#ECAA5F" transform="translate(45.453271, 14.275663) rotate(-8.000000) translate(-45.453271, -14.275663) "></path>
    </g>
</svg>