<?xml version="1.0" encoding="UTF-8"?>
<svg width="64px" height="64px" viewBox="0 0 64 64" version="1.1" xmlns="http://www.w3.org/2000/svg" xmlns:xlink="http://www.w3.org/1999/xlink">
    <title>butterfly</title>
    <g id="butterfly" stroke="none" stroke-width="1" fill="none" fill-rule="evenodd">
        <rect id="矩形-" x="0" y="1.13686838e-13" width="64" height="64"></rect>
        <g id="编组" transform="translate(3.692531, 9.580026)">
            <path d="M14.5276426,22.9035663 L14.3414612,22.7254013 C13.4107608,21.8663176 12.7424519,21.4240682 11.9372553,21.1992987 C11.71759,20.1447505 11.7504941,19.0306776 11.9878601,18.03918 C12.2406072,16.9834339 12.7190609,16.0545814 13.4126417,15.5451294 C13.7464759,15.2999201 13.9493153,14.9426117 14.0073938,14.563147 C14.0654724,14.1836824 13.97879,13.7820616 13.7335807,13.4482274 C13.4883714,13.1143932 13.131063,12.9115538 12.7515983,12.8534752 C12.3721337,12.7953967 11.9705129,12.8820791 11.6366787,13.1272884 C10.4652082,13.9877619 9.59922651,15.39948 9.12035116,17.0632576 C8.81600099,18.1206748 8.66721748,19.2778048 8.68678794,20.4425787 C7.70948456,19.7364416 6.60810763,19.2058917 5.4927274,18.8862034 C3.71021258,18.3753022 1.90031639,18.4088597 0.47849908,19.0628771 C0.102188147,19.2359753 -0.168335588,19.5452163 -0.301507062,19.9052606 C-0.434678536,20.2653049 -0.430497749,20.6761524 -0.257399635,21.0524633 C-0.0843015208,21.4287742 0.224939552,21.699298 0.58498383,21.8324694 C0.945028108,21.9656409 1.35587559,21.9614601 1.73218652,21.788362 C2.57498099,21.4006876 3.72042918,21.4655624 4.84671897,21.8237182 C5.9012063,22.1590411 6.94871339,22.7637963 7.76051193,23.5830176 C7.60170116,24.2916793 7.69621113,25.1143585 8.07794845,26.0434642 C8.49039116,27.0473033 9.24690028,28.1943848 10.3269142,29.4552707 C12.7429599,32.2759359 16.9261157,35.8804875 22.698682,40.0702184 C28.2039622,44.065953 33.7242335,45.7284693 37.2004083,45.0954342 C38.4973321,44.8592555 39.3407385,44.3496389 39.8073387,43.7492267 C40.096416,43.3772477 40.2562646,42.9622171 40.2940725,42.5219529 C43.1975191,43.3700041 46.1750588,43.7971879 49.3673681,43.4160761 C50.2262431,42.7051626 50.774467,41.5597135 50.8689438,40.1306043 C50.9506412,38.8948044 50.6918549,37.4409559 49.9896285,35.8762134 C48.8294658,33.6769126 46.6937448,31.9017404 43.533116,30.5068947 C45.6159469,27.3507167 46.7364594,24.2605492 46.9867821,21.5157408 C47.2611989,18.5067391 46.4986944,15.9027541 44.8327505,14.0115712 C45.9943804,11.7602038 46.580761,9.73289513 46.6182533,7.99502692 C46.6615177,5.98960748 45.9936266,4.34581802 44.6470774,3.12672822 C43.4688888,2.06006268 42.2858419,1.57638 40.9500519,1.5552574 C39.6233716,1.53427885 38.121577,1.9949681 35.8856804,3.09315379 C35.2101631,2.07986598 34.3288251,1.19579567 33.2907743,0.558398068 C31.3626519,-0.625533046 28.9883482,-0.798798716 27.1259716,-0.0832219965 C26.1873298,0.277430175 25.3768423,0.861109557 24.7983618,1.64569563 C24.2623859,2.37263337 23.9214038,3.27365955 23.8730744,4.34355792 C23.8245859,5.18942211 23.1791453,6.73222567 21.9885413,9.06387643 L21.3978581,10.1889015 C20.5095948,11.8457823 18.8284178,14.915172 16.3574165,19.3913594 C15.7175767,20.5807947 15.1490573,21.6651753 14.5276426,22.9035663 Z" id="wb" stroke="#FFFFFF" stroke-width="1.5" fill-rule="nonzero"></path>
            <path d="M9.76976111,22.178324 C7.09120931,20.0655484 2.99662008,19.9061299 1.02040816,21.4894768" id="路径-" stroke="#000000" stroke-width="1.5" stroke-linecap="round" transform="translate(5.395085, 21.303944) rotate(14.000000) translate(-5.395085, -21.303944) "></path>
            <path d="M15.5873645,19.3885751 C12.9088127,17.2757994 8.81422349,17.1163809 6.83801157,18.6997279" id="路径-" stroke="#000000" stroke-width="1.5" stroke-linecap="round" transform="translate(11.212688, 18.514195) scale(-1, 1) rotate(75.000000) translate(-11.212688, -18.514195) "></path>
            <path d="M14.2456926,26.9387492 C18.427506,17.7212787 25.3756924,7.5612179 25.3756924,4.2634224 C25.3756924,0.965626914 29.8205254,0.187758254 32.5058815,1.836656 C35.1912377,3.48555375 36.5383879,7.12103954 35.5743802,9.62369146 C34.9317084,11.2921261 30.8470325,18.8827462 23.3203524,32.3955517 C16.4048168,31.5422217 13.3799302,29.7232875 14.2456926,26.9387492 Z" id="路径-" stroke="#000000" stroke-width="1.5" fill="#ED6969"></path>
            <path d="M16.6585107,28.7004022 C19.701441,23.3062121 31.7014627,6.76344984 36.9259705,4.23870999 C39.2958404,3.09347199 41.5372202,2.33465312 43.6403517,4.23870999 C45.7434833,6.14276685 45.7434833,9.67907699 42.7249718,14.7089035 C46.1963496,16.8866066 47.3059885,23.5036326 40.8364023,31.6714792 C50.0934977,33.3738548 50.5578581,40.7254711 48.3024812,42.3442346 C45.4536417,42.3442346 41.4790326,41.5376747 37.6985458,40.0465604 C33.918059,38.5554461 20.4648716,34.1572047 16.6585107,28.7004022 Z" id="路径-" stroke="#000000" stroke-width="1.5" fill="#ED6969"></path>
            <path d="M22.1440298,31.0390403 C23.9554247,27.827988 33.0764659,14.7682188 36.7857356,17.8961161 C40.2302972,20.8007944 36.8979667,27.9350989 33.0467528,32.7972529 C38.5573146,33.8106427 40.3310162,38.6687868 38.9884359,39.632404 C37.2925794,39.632404 32.5912018,36.9261027 30.3407544,36.0384724 C28.090307,35.1508422 24.4098795,34.2873646 22.1440298,31.0390403 Z" id="路径-" fill="#FFC55D"></path>
            <path d="M17.7815341,27.9591573 C13.4681271,24.552859 12.0975008,21.2776031 9.78921201,23.0739076 C7.48092326,24.8702121 11.9724342,30.4316556 23.5797701,38.8562646 C35.187106,47.2808737 43.512126,42.9293237 35.7758769,39.4707778 C28.0396278,36.0122318 22.0949411,31.3654557 17.7815341,27.9591573 Z" id="路径-" fill="#FFC55D"></path>
            <path d="M18.2780735,34.3724531 C21.3665173,34.3724531 26.2666416,34.3724531 27.864764,40.547862 C26.2766479,41.067264 15.1896297,34.3724531 18.2780735,34.3724531 Z" id="路径-" fill="#ED6969"></path>
            <path d="M17.7815341,27.9591573 C13.4681271,24.552859 12.0975008,21.2776031 9.78921201,23.0739076 C7.48092326,24.8702121 11.9724342,30.4316556 23.5797701,38.8562646 C35.187106,47.2808737 43.512126,42.9293237 35.7758769,39.4707778 C28.0396278,36.0122318 22.0949411,31.3654557 17.7815341,27.9591573 Z" id="路径-" stroke="#000000" stroke-width="1.5"></path>
            <circle id="椭圆形" fill="#000000" cx="12.5586416" cy="24.8979328" r="1.02040816"></circle>
        </g>
    </g>
</svg>