<?xml version="1.0" encoding="UTF-8"?>
<svg width="64px" height="64px" viewBox="0 0 64 64" version="1.1" xmlns="http://www.w3.org/2000/svg" xmlns:xlink="http://www.w3.org/1999/xlink">
    <title>notebook</title>
    <g id="notebook" stroke="none" stroke-width="1" fill="none" fill-rule="evenodd">
        <rect id="Rectangle" x="0" y="0" width="64" height="64"></rect>
        <g id="编组" transform="translate(13.800000, 7.333333)">
            <path d="M6.00545932,-0.17905786 C4.1393341,-0.180534658 2.44973141,0.575267022 1.22702923,1.79796921 C0.00551948466,3.01947895 -0.75,4.70697895 -0.75,6.57093998 L-0.75,43.2058824 C-0.75,44.8343102 -0.0899492084,46.3085749 0.97720854,47.3757326 C2.04436629,48.4428904 3.51863099,49.1029412 5.14705882,49.1029412 L33.3137255,49.1029412 C34.3492594,49.1029412 35.2867594,48.6832081 35.9653759,48.0045916 C36.6439924,47.3259751 37.0637255,46.3884751 37.0637255,45.3529412 L37.0637255,3.95777973 C37.0637255,2.93260854 36.6520463,2.00246729 35.9841,1.32498654 C35.3161537,0.647505788 34.3919404,0.222685542 33.3668721,0.208156362 L6.00545932,-0.17905786 Z" id="形状结合" stroke="#FFFFFF" stroke-width="1.5"></path>
            <path d="M5.99486686,1.32094244 C4.54715457,1.32232772 3.23663111,1.90968767 2.2876894,2.85862938 C1.33762627,3.80869251 0.75,5.12119251 0.75,6.57093998 L0.75,42.4664374 L35.5637255,42.9598825 L35.5637255,3.95777973 C35.5637255,3.34267702 35.316718,2.78459227 34.9159502,2.37810382 C34.5151824,1.97161537 33.9606544,1.71672322 33.3456135,1.70800571 L5.99486686,1.32094244 Z" id="Rectangle-" stroke="#000000" stroke-width="1.5" fill="#ED6969"></path>
            <path d="M35.5637255,38.8088235 L5.14705882,38.8088235 C3.93284456,38.8088235 2.83357985,39.3009811 2.03786871,40.0966922 C1.24215757,40.8924034 0.75,41.9916681 0.75,43.2058824 C0.75,44.4200966 1.24215757,45.5193613 2.03786871,46.3150725 C2.83357985,47.1107836 3.93284456,47.6029412 5.14705882,47.6029412 L33.3137255,47.6029412 C33.9350458,47.6029412 34.4975458,47.3511013 34.9047157,46.9439314 C35.3118857,46.5367615 35.5637255,45.9742615 35.5637255,45.3529412 L35.5637255,38.8088235 Z" id="Rectangle" stroke="#000000" stroke-width="1.5" fill="#FFF9ED"></path>
            <rect id="Rectangle-" fill="#000000" x="5.49019608" y="2.37254902" width="1.54411765" height="35.6862745"></rect>
            <rect id="Rectangle-" fill="#000000" x="12.3529412" y="16.1862745" width="17.098039" height="1.54411765"></rect>
            <rect id="Rectangle-" fill="#000000" x="14.7254902" y="21.6764706" width="12.3529412" height="1.54411765"></rect>
            <path d="M29.8431373,1.75 L23.1764706,1.75 C22.9233401,1.75 22.6941734,1.85260141 22.5282894,2.01848545 C22.3624053,2.18436949 22.2598039,2.41353616 22.2598039,2.66666667 L22.2598039,9.94390318 L26.5098039,8.46072343 L30.7598039,9.94390318 L30.7598039,2.66666667 C30.7598039,2.41353616 30.6572025,2.18436949 30.4913185,2.01848545 C30.3254344,1.85260141 30.0962678,1.75 29.8431373,1.75 Z" id="Rectangle-" stroke="#000000" stroke-width="1.5" fill="#FFC55D"></path>
            <rect id="Rectangle-" fill="#000000" x="5.49019608" y="42.1764706" width="30.8235294" height="1.54411765"></rect>
        </g>
    </g>
</svg>