<?xml version="1.0" encoding="UTF-8"?>
<svg width="64px" height="64px" viewBox="0 0 64 64" version="1.1" xmlns="http://www.w3.org/2000/svg" xmlns:xlink="http://www.w3.org/1999/xlink">
    <title>billiards</title>
    <defs>
        <path d="M51.6896957,21.5004874 C51.2584435,25.6098373 48.2046398,27.6196912 46.4516005,28.0481064" id="path-1"></path>
        <path d="M53.9502803,24.4768994 C53.7227081,26.7512554 52.3016236,28.6349376 50.6209783,29.9989307 M48.4668056,31.4164379 C47.6064339,31.8683918 46.7772811,32.1794995 46.0931374,32.3340422" id="path-2"></path>
    </defs>
    <g id="billiards" stroke="none" stroke-width="1" fill="none" fill-rule="evenodd">
        <rect id="Rectangle" x="0" y="0" width="64" height="64"></rect>
        <g id="编组" transform="translate(5.870000, 9.666667)">
            <path d="M3.17801647,37.2273037 C2.10503947,37.252323 1.13577327,37.6975103 0.428546523,38.404737 C-0.299619778,39.1329033 -0.75,40.1388557 -0.75,41.25 C-0.75,42.3611443 -0.299619778,43.3670967 0.428546523,44.095263 C1.15671282,44.8234293 2.16266521,45.2738095 3.27380952,45.2738095 L49.1071429,45.2738095 C50.2182872,45.2738095 51.2242396,44.8234293 51.9524059,44.095263 C52.6805722,43.3670967 53.1309524,42.3611443 53.1309524,41.25 C53.1309524,40.28535 52.7913944,39.4000524 52.225529,38.7068669 C51.777616,38.1581733 51.187655,37.7301887 50.5119174,37.4784154 L50.5119048,11.9999996 C50.5119048,8.47918472 49.0848124,5.29168472 46.7775162,2.98438854 C44.47022,0.67709236 41.28272,-0.75 37.7619048,-0.75 L15.9285714,-0.75 C12.4077561,-0.75 9.22025615,0.67709236 6.91295997,2.98438854 C4.60566379,5.29168472 3.17857143,8.47918472 3.17857143,12 L3.17801647,37.2273037 Z" id="wb" stroke="#FFFFFF" stroke-width="1.5"></path>
            <path d="M37.7619048,0.75 L15.9285714,0.75 C12.8219697,0.75 10.0094697,2.00919914 7.97362014,4.04504871 C5.93777057,6.08089828 4.67857143,8.89339828 4.67857143,12 L4.67857143,38.5357143 L49.0119048,38.5357143 L49.0119048,12 C49.0119048,8.89339828 47.7527056,6.08089828 45.7168561,4.04504871 C43.6810065,2.00919914 40.8685065,0.75 37.7619048,0.75 Z" id="Rectangle-" stroke="#000000" stroke-width="1.5" fill="#FFFFFF"></path>
            <rect id="Rectangle-" stroke="#000000" stroke-width="1.5" fill="#BDCFD1" x="0.75" y="38.7261905" width="50.8809524" height="5.04761905" rx="2.52380952"></rect>
            <polygon id="Rectangle-" fill="#000000" points="13.6190476 0.675853584 15.0922619 0.675853584 15.0922619 19.4117647 13.6190476 19.4117647"></polygon>
            <ellipse id="Oval-" stroke="#000000" stroke-width="1.5" fill="#07EBF5" cx="14.4047619" cy="23.4558824" rx="3.92857143" ry="4.04411765"></ellipse>
            <rect id="Rectangle-" fill="#000000" x="24.0952381" y="-1.04678171e-14" width="1.47321429" height="19.4117647"></rect>
            <ellipse id="Oval-" stroke="#000000" stroke-width="1.5" fill="#07EBF5" cx="24.8809524" cy="23.4558824" rx="3.92857143" ry="4.04411765"></ellipse>
            <polygon id="Rectangle-" fill="#000000" transform="translate(36.880389, 9.843682) rotate(-15.000000) translate(-36.880389, -9.843682) " points="36.1437815 0.137799967 37.6169958 0.137799967 37.6169958 19.5495647 36.1437815 19.5495647"></polygon>
            <ellipse id="Oval-" stroke="#000000" stroke-width="1.5" fill="#07EBF5" transform="translate(40.488258, 23.125162) rotate(-15.000000) translate(-40.488258, -23.125162) " cx="40.4882577" cy="23.1251624" rx="3.92857143" ry="4.04411765"></ellipse>
            <g id="Path-" stroke-linecap="round">
                <use stroke="#FFFFFF" stroke-width="3.75" xlink:href="#path-1"></use>
                <use stroke="#000000" stroke-width="1.5" xlink:href="#path-1"></use>
            </g>
            <g id="Path--" stroke-linecap="round" transform="translate(50.021709, 28.405471) scale(-1, 1) rotate(80.000000) translate(-50.021709, -28.405471) ">
                <use stroke="#FFFFFF" stroke-width="3.75" xlink:href="#path-2"></use>
                <use stroke="#000000" stroke-width="1.5" xlink:href="#path-2"></use>
            </g>
        </g>
    </g>
</svg>