<?xml version="1.0" encoding="UTF-8"?>
<svg width="64px" height="64px" viewBox="0 0 64 64" version="1.1" xmlns="http://www.w3.org/2000/svg" xmlns:xlink="http://www.w3.org/1999/xlink">
    <title>map</title>
    <g id="map" stroke="none" stroke-width="1" fill="none" fill-rule="evenodd">
        <rect id="Rectangle" x="0" y="0" width="64" height="64"></rect>
        <g id="Group" transform="translate(6.333333, 12.000000)">
            <path d="M52.8912037,-0.978615989 L34.8380942,3.88157768 L16.7985431,2.35566011 L-0.75,7.21525666 L-0.75,43.0209887 L17.3530513,38.1645313 L35.2648918,39.704467 L52.8912037,34.8281632 L52.8912037,-0.978615989 Z" id="wb" stroke="#FFFFFF" stroke-width="1.5"></path>
            <path d="M1.55476979,3.94570383 L0.75,4.15623537 L0.75,36.516809 L17.7075708,41.065572 L17.7075708,8.35838531 L1.55476979,3.94570383 Z" id="Rectangle-" stroke="#000000" stroke-width="1.5" fill="#FFF9ED" transform="translate(9.228785, 22.606318) scale(-1, 1) translate(-9.228785, -22.606318) "></path>
            <polygon id="Rectangle--" fill="#FFF9ED" points="16.869213 3.11431624 35.2719907 4.67147436 35.2719907 38.928953 16.869213 37.3717949"></polygon>
            <path d="M51.3912037,0.978654147 L34.4874674,5.53010024 L34.4874674,37.9607911 L35.1991975,38.1662984 L51.3912037,33.686794 L51.3912037,0.978654147 Z" id="Rectangle---" stroke="#000000" stroke-width="1.5" fill="#FFF9ED"></path>
            <path d="M3.06653058,19.1531969 L3.06653058,38.0034019 L16.6881505,34.2244042 L29.1187866,35.2817207 C29.1187866,35.2817207 28.345789,29.0635047 23.627082,27.3031861 C18.9083749,25.5428675 19.5164094,25.103092 15.4919999,19.0149687 C11.4675903,12.9268455 3.06653058,19.1531969 3.06653058,19.1531969 Z" id="Path-" fill="#8BCB76"></path>
            <path d="M11.4624235,7.83832948 L17.2204802,6.23866885 L35.496634,7.83832948 L39.2645009,6.80002131 C39.2645009,6.80002131 36.66418,12.2413309 32.9632568,12.2413309 C29.2623336,12.2413309 25.7607439,11.0488276 21.7832099,12.7200354 C17.8056759,14.3912432 11.4624235,7.83832948 11.4624235,7.83832948 Z" id="Path-" fill="#FFC55D"></path>
            <path d="M39.6794171,34.4784309 L49.0846323,31.8726241 L49.0846323,23.355471 C49.0846323,23.355471 44.2963607,23.8528035 43.0784946,28.2992199 C41.8606285,32.7456362 39.6794171,34.4784309 39.6794171,34.4784309 Z" id="Path-" fill="#FFC55D"></path>
            <polygon id="Star" fill="#ED6969" points="42.6331019 16.8173077 40.4697256 17.9721597 40.8828937 15.5261439 39.1326855 13.793866 41.5514137 13.4369971 42.6331019 11.2115385 43.71479 13.4369971 46.1335182 13.793866 44.38331 15.5261439 44.7964781 17.9721597"></polygon>
            <path d="M17.650463,3.9644638 L17.650463,36.6538588 L34.4907407,38.0788054 L34.4907407,5.38941038 L17.650463,3.9644638 Z" id="Rectangle--" stroke="#2B2B2B" stroke-width="1.5625"></path>
            <path d="M17.619213,3.9304579 L17.619213,36.6825763 L34.5219907,38.1128113 L34.5219907,5.36069294 L17.619213,3.9304579 Z" id="Rectangle--" stroke="#000000" stroke-width="1.5"></path>
            <path d="M5.40581597,23.6621125 C7.43898745,22.3269711 12.8825435,16.4523488 18.2679918,16.4523488 C23.6534401,16.4523488 29.7817089,27.4211895 34.5920704,27.4211895 C39.4024319,27.4211895 40.7101553,21.4498531 41.9010643,19.8598487" id="Path-" stroke="#000000" stroke-width="1.5" stroke-linecap="round" stroke-dasharray="0.78125,2.5"></path>
        </g>
    </g>
</svg>