<?xml version="1.0" encoding="UTF-8"?>
<svg width="64px" height="64px" viewBox="0 0 64 64" version="1.1" xmlns="http://www.w3.org/2000/svg" xmlns:xlink="http://www.w3.org/1999/xlink">
    <title>eyes</title>
    <g id="eyes" stroke="none" stroke-width="1" fill="none" fill-rule="evenodd">
        <rect id="Rectangle-" x="0" y="0" width="64" height="64"></rect>
        <path d="M44.5,8.75 C40.8264739,8.75 37.5765342,11.0324424 35.2733625,14.9670274 C33.0787765,18.7161118 31.75,23.96823 31.75,30 C31.75,36.03177 33.0787765,41.2838882 35.2733625,45.0329726 C37.5765342,48.9675576 40.8264739,51.25 44.5,51.25 C48.1735261,51.25 51.4234658,48.9675576 53.7266375,45.0329726 C55.9212235,41.2838882 57.25,36.03177 57.25,30 C57.25,23.96823 55.9212235,18.7161118 53.7266375,14.9670274 C51.4234658,11.0324424 48.1735261,8.75 44.5,8.75 Z M19.5,8.75 C15.8264739,8.75 12.5765342,11.0324424 10.2733625,14.9670274 C8.07877649,18.7161118 6.75,23.96823 6.75,30 C6.75,36.03177 8.07877649,41.2838882 10.2733625,45.0329726 C12.5765342,48.9675576 15.8264739,51.25 19.5,51.25 C23.1735261,51.25 26.4234658,48.9675576 28.7266375,45.0329726 C30.9212235,41.2838882 32.25,36.03177 32.25,30 C32.25,23.96823 30.9212235,18.7161118 28.7266375,14.9670274 C26.4234658,11.0324424 23.1735261,8.75 19.5,8.75 Z" id="å½¢çŠ¶ç»“åˆ" stroke="#FFFFFF" stroke-width="1.5" fill="#C9C9C9" fill-rule="nonzero"></path>
        <path d="M44.5,10.25 C42.9195041,10.25 41.3721791,10.7927246 39.9515978,11.8365718 C38.5943643,12.8338709 37.3498374,14.2946654 36.3131194,16.1706313 C34.4515054,19.5392661 33.25,24.2684121 33.25,30 C33.25,35.7315879 34.4515054,40.4607339 36.3131194,43.8293687 C37.3498374,45.7053346 38.5943643,47.1661291 39.9515978,48.1634282 C41.3721791,49.2072754 42.9195041,49.75 44.5,49.75 C46.0804959,49.75 47.6278209,49.2072754 49.0484022,48.1634282 C50.4056357,47.1661291 51.6501626,45.7053346 52.6868806,43.8293687 C54.5484946,40.4607339 55.75,35.7315879 55.75,30 C55.75,24.2684121 54.5484946,19.5392661 52.6868806,16.1706313 C51.6501626,14.2946654 50.4056357,12.8338709 49.0484022,11.8365718 C47.6278209,10.7927246 46.0804959,10.25 44.5,10.25 Z" id="Oval--" stroke="#C9C9C9" stroke-width="1.5" fill="#FFFFFF"></path>
        <circle id="Oval--" stroke="#C9C9C9" stroke-width="1.5" fill="#4C4023" cx="42.5" cy="29.5" r="6.25"></circle>
        <circle id="Oval--" fill="#FFFFFF" cx="44.5" cy="27.5" r="1.5"></circle>
        <path d="M19.5,10.25 C17.9195041,10.25 16.3721791,10.7927246 14.9515978,11.8365718 C13.5943643,12.8338709 12.3498374,14.2946654 11.3131194,16.1706313 C9.45150544,19.5392661 8.25,24.2684121 8.25,30 C8.25,35.7315879 9.45150544,40.4607339 11.3131194,43.8293687 C12.3498374,45.7053346 13.5943643,47.1661291 14.9515978,48.1634282 C16.3721791,49.2072754 17.9195041,49.75 19.5,49.75 C21.0804959,49.75 22.6278209,49.2072754 24.0484022,48.1634282 C25.4056357,47.1661291 26.6501626,45.7053346 27.6868806,43.8293687 C29.5484946,40.4607339 30.75,35.7315879 30.75,30 C30.75,24.2684121 29.5484946,19.5392661 27.6868806,16.1706313 C26.6501626,14.2946654 25.4056357,12.8338709 24.0484022,11.8365718 C22.6278209,10.7927246 21.0804959,10.25 19.5,10.25 Z" id="Oval--" stroke="#C9C9C9" stroke-width="1.5" fill="#FFFFFF"></path>
        <circle id="Oval--" stroke="#C9C9C9" stroke-width="1.5" fill="#4C4023" cx="17.5" cy="29.5" r="6.25"></circle>
        <circle id="Oval--" fill="#FFFFFF" cx="19.5" cy="27.5" r="1.5"></circle>
    </g>
</svg>