<?xml version="1.0" encoding="UTF-8"?>
<svg width="64px" height="64px" viewBox="0 0 64 64" version="1.1" xmlns="http://www.w3.org/2000/svg" xmlns:xlink="http://www.w3.org/1999/xlink">
    <title>fog</title>
    <g id="fog" stroke="none" stroke-width="1" fill="none" fill-rule="evenodd">
        <rect id="矩形-" x="0" y="1.13686838e-13" width="64" height="64"></rect>
        <g id="编组-" transform="translate(9.000000, 9.000000)">
            <g id="编组" fill-rule="nonzero" stroke="#FFFFFF" stroke-width="1.5">
                <path d="M21.7699807,38.7348522 C15.3205541,36.6811908 11.8868109,36.7647378 6.67883371,38.2308429 L5.9790039,38.4283229 C5.58300623,38.5395818 5.2732512,38.6247807 4.99216172,38.6987049 L4.34237882,38.86227 C3.94738917,38.9572284 3.62204843,39.2081597 3.42160568,39.5355574 C3.22116294,39.8629551 3.14561819,40.2668191 3.24248153,40.6695477 C3.33934487,41.0722764 3.5902762,41.3976171 3.91767387,41.5980598 C4.24507153,41.7985026 4.64893552,41.8740473 5.05166418,41.777184 C5.40453415,41.6923126 5.72699933,41.6093477 6.12612354,41.5007031 L7.30176586,41.172197 L8.24868942,40.9127064 C12.5897518,39.7761802 15.5668376,39.8583313 21.3268344,41.7443055 L21.8376628,41.9080384 C29.9785569,44.4603888 36.4830297,43.802172 41.7751076,41.0723969 C42.1432323,40.8825098 42.3995396,40.5613872 42.516344,40.1957053 C42.6331484,39.8300234 42.6104499,39.4197822 42.4205628,39.0516575 C42.2306756,38.6835329 41.9095531,38.4272255 41.5438712,38.3104211 C41.1781893,38.1936167 40.767948,38.2163152 40.3998234,38.4062024 C35.648098,40.8572512 29.7645523,41.3503174 22.260347,38.8932436 L21.7699807,38.7348522 Z M42.4205628,34.0516575 C42.2306756,33.6835329 41.9095531,33.4272255 41.5438712,33.3104211 C41.1781893,33.1936167 40.767948,33.2163152 40.3998234,33.4062024 C38.2251868,34.5279298 35.7693637,35.2472804 32.9294409,35.4378908 C32.5161571,35.4656297 32.1532424,35.6582588 31.9005832,35.9472742 C31.6479241,36.2362895 31.5055205,36.6216911 31.5332594,37.0349748 C31.5609982,37.4482585 31.7536274,37.8111733 32.0426427,38.0638325 C32.3316581,38.3164916 32.7170597,38.4588952 33.1303434,38.4311563 C36.4062149,38.2112858 39.2527032,37.3735109 41.7751076,36.0723969 C42.1432323,35.8825098 42.3995396,35.5613872 42.516344,35.1957053 C42.6331484,34.8300234 42.6104499,34.4197822 42.4205628,34.0516575 Z M22.260347,33.8932436 C15.4903557,31.6765706 12.0171756,31.7280387 6.67883371,33.2308429 L5.9790039,33.4283229 C5.58300623,33.5395818 5.2732512,33.6247807 4.99216172,33.6987049 L4.34237882,33.86227 C3.94738917,33.9572284 3.62204843,34.2081597 3.42160568,34.5355574 C3.22116294,34.8629551 3.14561819,35.2668191 3.24248153,35.6695477 C3.33934487,36.0722764 3.5902762,36.3976171 3.91767387,36.5980598 C4.24507153,36.7985026 4.64893552,36.8740473 5.05166418,36.777184 C5.40453415,36.6923126 5.72699933,36.6093477 6.12612354,36.5007031 L7.30176586,36.172197 L8.24868942,35.9127064 C12.5897518,34.7761802 15.5668376,34.8583313 21.3268344,36.7443055 L21.9922303,36.9559739 C24.6842575,37.7868866 27.2265527,38.2660047 29.6309176,38.4264737 C30.0442117,38.4540572 30.4295597,38.3115089 30.7184801,38.0587411 C31.0074005,37.8059734 31.1998932,37.4429862 31.2274768,37.0296921 C31.2550603,36.616398 31.112512,36.23105 30.8597442,35.9421296 C30.6069765,35.6532092 30.2439893,35.4607165 29.8306952,35.4331329 C27.4684577,35.2754756 24.9483569,34.7733686 22.260347,33.8932436 Z M18.3541067,27.8087149 C17.9496642,27.7192772 17.5472584,27.8022392 17.2236038,28.0086714 C16.8999492,28.2151035 16.6550458,28.5450057 16.565608,28.9494482 C16.4761703,29.3538908 16.5591324,29.7562966 16.7655645,30.0799512 C16.9719966,30.4036058 17.3018988,30.6485092 17.7063413,30.7379469 C18.8236769,30.9850326 20.0255212,31.3182214 21.3268344,31.7443055 L21.8376628,31.9080384 C29.9785569,34.4603888 36.4830297,33.802172 41.7751076,31.0723969 C42.1432323,30.8825098 42.3995396,30.5613872 42.516344,30.1957053 C42.6331484,29.8300234 42.6104499,29.4197822 42.4205628,29.0516575 C42.2306756,28.6835329 41.9095531,28.4272255 41.5438712,28.3104211 C41.1781893,28.1936167 40.767948,28.2163152 40.3998234,28.4062024 C35.648098,30.8572512 29.7645523,31.3503174 22.260347,28.8932436 L21.6738163,28.705139 C20.4948251,28.3351471 19.3930574,28.0384667 18.3541067,27.8087149 Z M14.8541716,27.2601539 C11.9348429,27.012499 9.9813961,27.3011339 6.67883371,28.2308429 L5.9790039,28.4283229 C5.58300623,28.5395818 5.2732512,28.6247807 4.99216172,28.6987049 L4.34237882,28.86227 C3.94738917,28.9572284 3.62204843,29.2081597 3.42160568,29.5355574 C3.22116294,29.8629551 3.14561819,30.2668191 3.24248153,30.6695477 C3.33934487,31.0722764 3.5902762,31.3976171 3.91767387,31.5980598 C4.24507153,31.7985026 4.64893552,31.8740473 5.05166418,31.777184 C5.40453415,31.6923126 5.72699933,31.6093477 6.12612354,31.5007031 L7.95911505,30.9889795 C10.602776,30.2676234 12.2200182,30.0474668 14.6005839,30.249417 C15.013315,30.2844301 15.4011648,30.1488362 15.6945851,29.9013063 C15.9880053,29.6537764 16.1869961,29.2943104 16.2220093,28.8815793 C16.2570224,28.4688482 16.1214285,28.0809984 15.8738986,27.7875781 C15.6263687,27.4941579 15.2669027,27.2951671 14.8541716,27.2601539 Z M34.5129598,8.34594758 C33.3002055,5.02446201 31.3221292,2.69313677 28.986815,1.22058235 C26.1982871,-0.537750294 22.8884564,-1.0734477 19.7144854,-0.568977306 C16.4046686,-0.0429155854 13.247672,1.6150223 10.9969682,4.17329807 C9.09783407,6.33196014 7.83931595,9.13024241 7.67724272,12.4355808 C4.59497112,12.660543 2.10130523,14.0788638 0.649799131,16.1661688 C-0.946469497,18.4616461 -1.31505365,21.5910253 0.252604372,24.9398134 L45.4581693,24.5882127 C47.0485311,19.3507183 46.3588343,15.4390748 44.3801481,12.7652348 C42.2763348,9.92230794 38.6627704,8.43949072 34.5129598,8.34594758 Z" id="形状结合"></path>
            </g>
            <path d="M0.791502477,24.1860088 C8.46087846,24.1860088 39.4788339,24.1860088 44.8483319,24.1860088 C47.3062622,18.3004243 43.3472264,13.2281928 37.1777232,13.1554664 C37.1679013,-0.880267199 16.561181,-5.84510081 11.6090276,9.09158241 C3.83995752,9.04291912 -2.23125654,13.9373887 0.791502477,24.1860088 Z" id="Path-" fill="#FFFFFF" transform="translate(22.793591, 12.093004) scale(-1, 1) translate(-22.793591, -12.093004) "></path>
            <path d="M36.4277234,13.1559913 C36.4254706,9.93669552 35.2751358,7.22271568 33.4640166,5.16409629 C31.4435146,2.86748084 28.6072537,1.38448105 25.6372417,0.912427866 C22.8201849,0.464685344 19.8781685,0.927038583 17.400431,2.48939938 C15.2060049,3.87311553 13.3849867,6.11817258 12.3209214,9.32760588 C12.2624706,9.50390532 12.2075899,9.6792357 12.1562182,9.85357275 C11.9734989,9.8467788 11.7894092,9.84272698 11.6043299,9.8415677 C7.7266579,9.81727904 4.2674284,11.0680417 2.34255093,13.7539538 C0.728994549,16.0054584 0.233094918,19.2320665 1.35944981,23.4360088 L44.3352978,23.4360088 C45.2110696,20.9977214 44.8945121,18.7318427 43.7058774,17.0225539 C42.3874109,15.1265635 40.028582,13.9391246 37.1688828,13.9054143 C36.9107349,13.9023713 36.6564457,13.9088234 36.4064198,13.9244526 C36.4206186,13.6718439 36.427905,13.4155549 36.4277234,13.1559913 Z" id="Path" stroke="#000000" stroke-width="1.5" fill-rule="nonzero" transform="translate(22.793591, 12.093004) scale(-1, 1) translate(-22.793591, -12.093004) "></path>
            <path d="M3.71491308,20.6061139 C8.96158395,20.6061139 38.4308973,20.6061139 42.0734417,20.6061139 C42.3778223,17.2851804 37.6700863,15.8739346 33.5291249,17.0224419 C36.5056462,1.10222411 15.6757671,-1.43688098 14.6225515,12.9012192 C9.61496196,11.8372856 2.74132113,13.1579207 3.71491308,20.6061139 Z" id="Path-" fill="#E9F4F5" transform="translate(22.854661, 12.042105) scale(-1, 1) translate(-22.854661, -12.042105) "></path>
            <path d="M4.700891,40.3187745 C9.26123757,39.2219308 12.4750121,37.2676272 21.7935907,40.3187745 C31.1121694,43.3699219 37.3564207,41.6638581 41.0874655,39.7392996" id="路径-" stroke="#000000" stroke-width="1.5" stroke-linecap="round"></path>
            <path d="M4.700891,35.3187745 C9.26123757,34.2219308 12.4750121,32.2676272 21.7935907,35.3187745 C24.740965,36.2838223 27.3807853,36.7729613 29.7308064,36.9298033 M33.0298921,36.9345236 C36.4658801,36.7039063 39.1244994,35.7518425 41.0874655,34.7392996" id="形状" stroke="#000000" stroke-width="1.5" stroke-linecap="round"></path>
            <path d="M4.700891,30.3187745 C7.86258849,29.5583306 10.3770323,28.3857333 14.7273778,28.7547854 M18.030224,29.2733309 C19.1668759,29.5246882 20.4132588,29.8668176 21.7935907,30.3187745 C31.1121694,33.3699219 37.3564207,31.6638581 41.0874655,29.7392996" id="形状" stroke="#000000" stroke-width="1.5" stroke-linecap="round"></path>
        </g>
    </g>
</svg>