<?xml version="1.0" encoding="UTF-8"?>
<svg width="64px" height="65px" viewBox="0 0 64 65" version="1.1" xmlns="http://www.w3.org/2000/svg" xmlns:xlink="http://www.w3.org/1999/xlink">
    <title>rollingEyes</title>
    <g id="rollingEyes" stroke="none" stroke-width="1" fill="none" fill-rule="evenodd" transform="translate(0.000000, 1.000000)">
        <rect id="Rectangle-" x="0" y="0" width="64" height="64"></rect>
        <circle id="Oval-" stroke="#FFFFFF" stroke-width="1.5" fill="#FBDC67" cx="32" cy="32" r="25.75"></circle>
        <path d="M31,39.7980121 C33.9475098,37.7677386 37.5681152,36.6918109 42.2971191,40.8236468" id="Path-" stroke="#4C4023" stroke-width="3" stroke-linecap="round" transform="translate(36.648560, 39.411823) scale(-1, 1) rotate(5.000000) translate(-36.648560, -39.411823) "></path>
        <path d="M55.672689,23.9412235 C56.5332091,26.4697498 57,29.1803625 57,32 C57,45.8071187 45.8071187,57 32,57 C19.5735931,57 9.26471863,47.9337662 7.32720779,36.0551299 L7.40137137,36.2731744 C10.816298,46.0145228 20.0923762,53 31,53 C44.8071187,53 56,41.8071187 56,28 C56,26.6192881 55.8880712,25.2647186 55.6727922,23.9448701 Z" id="Combined-Shape" fill="#F2CC5B"></path>
        <g id="Group" transform="translate(17.000000, 18.000000)">
            <g id="Group-">
                <circle id="Oval-" stroke="#FFFFFF" stroke-width="3.52941176" fill="#FFFFFF" cx="4.11764706" cy="6.64705882" r="5.29411765"></circle>
                <circle id="Oval-" fill="#4C4023" cx="4.11764706" cy="3.64705882" r="3.52941176"></circle>
                <circle id="Oval--" stroke="#FFFFFF" stroke-width="3.52941176" fill="#FFFFFF" cx="25.2941176" cy="6.64705882" r="5.29411765"></circle>
                <circle id="Oval--" fill="#4C4023" cx="25.2941176" cy="3.64705882" r="3.52941176"></circle>
            </g>
        </g>
    </g>
</svg>