<?xml version="1.0" encoding="UTF-8"?>
<svg width="64px" height="64px" viewBox="0 0 64 64" version="1.1" xmlns="http://www.w3.org/2000/svg" xmlns:xlink="http://www.w3.org/1999/xlink">
    <title>unicorn</title>
    <g id="unicorn" stroke="none" stroke-width="1" fill="none" fill-rule="evenodd">
        <rect id="矩形-" x="0" y="1.13686838e-13" width="64" height="64"></rect>
        <g id="编组-" transform="translate(7.000000, 9.362087)">
            <g id="编组" fill-rule="nonzero" stroke="#FFFFFF" stroke-width="1.5">
                <path d="M6.42806578,20.0567559 C4.11934164,22.9239379 2.5136858,25.5862488 0.661939993,29.6641631 L-0.222576119,31.6120443 L3.8186359,32.2925099 C2.74916041,35.4932402 1.54420077,39.9278588 0.658235251,43.8975669 L0.136666082,46.2796412 L13.6583108,46.2609885 L41.7925578,45.6350511 C41.8731875,45.366965 41.9184319,45.1283143 41.925796,44.9258356 C41.9444129,44.4139544 41.7383641,43.6539169 41.3399497,42.7572063 C40.3401594,40.5069801 38.1584384,37.2378449 36.7847905,35.1851087 C36.0790804,34.1305174 35.3973864,33.1860801 34.7930192,32.3489659 C33.9902193,31.2370009 33.2972756,30.3438243 32.9322603,29.6490354 C34.4460906,29.8190269 35.6358509,30.4106484 36.8480452,30.9984044 C38.8227209,31.9558643 40.8472371,32.9160721 44.0583791,32.5649744 C46.1665633,32.3344711 48.0105622,31.4246496 49.2125677,30.0286436 C50.3528473,28.7043258 50.9348743,26.9400645 50.6131172,24.8583517 C50.1907581,22.1257615 46.7938484,17.8435192 43.1860156,14.1398945 C43.5740811,13.6432385 43.943766,13.1319593 44.2941183,12.6070452 C44.8478776,11.7783672 45.3498884,10.9147778 45.796514,10.0223751 C46.7110747,8.2670576 47.349402,6.3526194 47.6753173,4.37378919 L48.2927651,0.624888653 L44.7086257,1.88561932 L44.1490132,2.08976524 C42.0685805,2.87642772 40.1044328,3.92252619 38.29666,5.20610159 C37.6502254,5.66561495 37.0316594,6.13258365 36.4578125,6.59327763 C36.3038807,6.71800808 36.1535584,6.84296287 36.0012448,6.96271567 C35.8709762,6.51358152 35.6962045,5.94714651 35.4805379,5.32885551 C35.0133569,3.89396507 34.3582856,2.52699727 33.5323787,1.26382241 C33.0269965,0.428950054 32.2744512,-0.228223543 31.3135466,-0.641135209 C30.5987323,-0.874688394 29.9603057,-0.73433384 29.3968244,-0.320150993 C28.8939779,0.0494626743 28.4488078,0.677114574 28.0780109,1.48687999 C27.4612603,3.01479425 27.0220316,4.60723393 26.7994988,5.97012119 C21.1961663,5.72203578 16.0073826,7.09844501 11.450485,9.7137066 C7.52159211,11.9685484 4.29459109,15.09755 2.90351385,17.5593628 L1.6890786,19.7085693 L6.42806578,20.0567559 Z" id="形状结合"></path>
            </g>
            <path d="M45.2063602,3.30063183 C43.0566256,4.05680676 41.0231767,5.1098428 39.1650683,6.42915797 C38.5322562,6.87898813 37.9379011,7.32861711 37.3968628,7.76297184 C36.508826,8.4825778 35.753354,9.15440358 34.9772986,10.5072982 C35.3441444,11.557484 35.5460171,12.3989594 35.8011767,12.8054286 C35.8011767,12.8054286 37.1671408,13.9206404 38.909849,15.5378145 C39.0871619,15.7023549 39.2590019,15.8633938 39.424647,16.0199404 C39.60094,15.8570047 39.7746928,15.6911983 39.9459574,15.522729 C41.1049825,14.3826209 42.1439373,13.1265711 43.0464923,11.7743211 C43.5658362,10.9971439 44.0362721,10.1878974 44.4548206,9.35165974 C45.3077202,7.71423426 45.8952187,5.95173872 46.1952574,4.13002179 C46.2609092,3.73141002 46.3126155,3.33107005 46.350374,2.9297294 C45.9663893,3.04376245 45.5848993,3.16747969 45.2063602,3.30063183 Z" id="形状结合" stroke="#000000" stroke-width="1.5" fill="#FFEB3A" fill-rule="nonzero"></path>
            <path d="M37.3942003,7.76511933 C36.508826,8.4825778 35.753354,9.15440358 34.9772986,10.5072982 C35.3441444,11.557484 35.5460171,12.3989594 35.8011767,12.8054286 C35.8011767,12.8054286 37.1671408,13.9206404 38.909849,15.5378145 C39.0871619,15.7023549 39.2590019,15.8633938 39.424647,16.0199404 C39.60094,15.8570047 39.7746928,15.6911983 39.9459574,15.522729 C41.1049825,14.3826209 42.1439373,13.1265711 43.0464923,11.7743211 C43.5740944,10.9847858 44.0512282,10.1622412 44.4759424,9.19793979 C44.7315642,8.61755792 44.9364829,8.05783189 45.1084777,7.50307014 C44.6266363,7.78425107 44.1080793,8.0110007 43.5666669,8.17952296 C41.7886554,8.73295427 39.85719,8.62945518 38.2408665,7.69799915 C38.0944661,7.61363143 37.9526465,7.523621 37.8154723,7.42833285 C37.6770279,7.53747272 37.5365389,7.64977597 37.3942003,7.76511933 Z" id="Shape" stroke="#000000" stroke-width="1.5" fill="#FDD834" fill-rule="nonzero"></path>
            <path d="M28.7226225,7.62749235 C15.2775239,6.08158872 6.27079616,14.6492871 4.20944494,18.297295 C5.11212696,18.297295 8.31995063,18.297295 9.91223446,18.297295 C7.04165701,21.4836307 4.72095596,24.3533169 2.02772323,30.2843535 C3.15432245,30.2843535 3.87688886,30.2843535 6.15069628,30.2843535 C4.80603641,33.5344905 3.03887938,40.0117218 2,44.7783544 C3.98789664,44.7783544 7.69849674,44.7783544 13.1318003,44.7783544 L22.6388691,20.6185461 C26.6947047,14.1616017 28.7226225,9.83125046 28.7226225,7.62749235 Z" id="路径-" stroke="#000000" stroke-width="1.5" fill="#8497DD"></path>
            <path d="M30.8188932,0.776026091 C30.6187087,0.72028019 30.44212,0.773137025 30.2852128,0.888470514 C29.9559688,1.13047898 29.6947811,1.56162191 29.4634567,2.06236412 C28.7926387,3.72739101 28.3469197,5.47471475 28.138064,7.25787635 C28.1141369,7.46216067 28.093343,7.66670574 28.0756814,7.87143951 C27.6947395,7.89089994 27.4809133,7.9154759 27.4809133,7.9154759 C27.4809133,7.9154759 17.802986,9.02780192 14.2710838,16.9471731 C12.1921859,21.8759487 10.9874966,27.1282524 10.7105257,32.4695463 C10.6733805,33.0939558 10.6647575,33.5200071 10.6627963,33.7011331 L10.6622708,44.7463656 L40.2896951,44.1658056 C40.2091704,43.9250848 40.0980543,43.6563533 39.9691623,43.3662562 C38.9983906,41.1813423 36.8716813,38.0120946 35.5381624,36.019326 C34.8433174,34.980971 34.1719127,34.0512199 33.576852,33.2269962 C32.1405639,31.2375813 31.1962764,29.7885051 31.1594333,28.8821659 C31.1506791,28.6668108 31.1905015,28.4167563 31.2733485,28.1324868 C31.4754386,28.1157986 31.6829181,28.1053789 31.8962639,28.1018083 C34.1883674,28.0634467 35.830176,28.837846 37.5024784,29.6486943 C39.2521658,30.4970643 41.0411911,31.3859263 43.8953447,31.0738608 C45.595227,30.8880001 47.1017364,30.1812667 48.0758699,29.0499107 C48.9504216,28.0342086 49.3765054,26.6776665 49.1307198,25.0874764 C48.7374095,22.542826 45.4586243,18.6224901 42.2564684,15.3350697 C41.2103897,14.2596619 40.1548147,13.25312 39.1872808,12.3539977 C36.8808804,10.2137365 35.0727319,8.7376067 34.8175723,8.33113751 C34.8175723,8.33113751 34.5487744,7.21001035 34.0548705,5.79556259 C33.6268771,4.48004868 33.0258128,3.22730443 32.252296,2.04611094 C31.9150622,1.48619063 31.4147597,1.04314014 30.8188932,0.776026091 Z" id="Shape" stroke="#000000" stroke-width="1.5" fill="#FFFFFF" fill-rule="nonzero"></path>
            <circle id="Oval" fill="#000000" fill-rule="nonzero" cx="46.3894854" cy="26.8896596" r="1"></circle>
            <path d="M34.726084,28.4141555 C32.8753758,27.9310461 27.8043183,27.4761787 25.7844545,26.1976563" id="路径" stroke="#000000" stroke-width="1.5" stroke-linecap="round"></path>
            <circle id="椭圆形" fill="#000000" cx="32.6395349" cy="15.2774475" r="1.63953488"></circle>
        </g>
    </g>
</svg>