<?xml version="1.0" encoding="UTF-8"?>
<svg width="64px" height="64px" viewBox="0 0 64 64" version="1.1" xmlns="http://www.w3.org/2000/svg" xmlns:xlink="http://www.w3.org/1999/xlink">
    <title>brownHeard</title>
    <g id="brownHeard" stroke="none" stroke-width="1" fill="none" fill-rule="evenodd">
        <rect id="Rectangle-" x="0" y="0" width="64" height="64"></rect>
        <path d="M43.5094505,10.25 C38.7852139,10.25 34.5935713,12.6841428 32.0006307,16.4430998 C29.4077028,12.684681 25.2155622,10.25 20.4905495,10.25 C16.5533176,10.25 12.9865196,11.9392461 10.4055367,14.6772815 C7.84012461,17.3987985 6.25,21.1576302 6.25,25.3114476 C6.25,29.0297764 7.64227697,32.3388955 9.63262309,35.0562704 C12.864109,39.4683814 21.3540457,46.0076714 27.0792487,50.4037359 C28.961742,51.8491977 30.5396326,53.0602722 31.5175367,53.8819128 C31.6649027,54.0057306 31.8233287,54.1414452 31.9921178,54.2881525 C32.1639482,54.1441315 32.324926,54.0106549 32.4743828,53.8886062 C33.3476715,53.1754658 34.6818697,52.1548975 36.2766662,50.9346885 C41.9956845,46.5589593 51.0083098,39.6427261 54.3673952,35.0562454 C56.3575865,32.33888 57.75,29.0297665 57.75,25.3114476 C57.75,21.1575742 56.1598877,17.3987584 53.5944962,14.6772632 C51.013511,11.9392254 47.4466999,10.25 43.5094505,10.25 Z" id="路径" stroke="#FFFFFF" stroke-width="1.5" fill="#BB6D55" fill-rule="nonzero"></path>
        <path d="M43.4375736,17.8122898 C46.0803099,19.6441344 48.4708072,22.9313776 49.6177046,26.1241607 C50.7646021,29.3169437 52.379617,22.4004648 49.6177046,19.0359534 C46.8557923,15.671442 40.7948372,15.9804453 43.4375736,17.8122898 Z" id="路径-" fill="#FFFFFF" opacity="0.5"></path>
    </g>
</svg>