<?xml version="1.0" encoding="UTF-8"?>
<svg width="64px" height="64px" viewBox="0 0 64 64" version="1.1" xmlns="http://www.w3.org/2000/svg" xmlns:xlink="http://www.w3.org/1999/xlink">
    <title>moon</title>
    <g id="moon" stroke="none" stroke-width="1" fill="none" fill-rule="evenodd">
        <rect id="Rectangle" x="0" y="0" width="64" height="64"></rect>
        <g id="Group-" transform="translate(2.666667, 11.333333)">
            <path d="M26.4284184,-0.0744288873 C22.2267766,-0.0744288873 18.2395075,1.34606233 15.017388,3.91241319 C14.7201753,4.14913687 14.550088,4.43159855 14.4687185,4.71689153 C14.3736989,5.05004367 14.4001342,5.39543426 14.5258317,5.70554012 C14.6512803,6.01503197 14.8766907,6.28733429 15.168134,6.46941898 C15.4421767,6.64063229 15.7734106,6.73384589 16.134156,6.70580388 C16.4413878,6.68192168 16.7505749,6.66992209 17.0612816,6.66992209 C20.323883,6.66992209 23.2777069,7.99671481 25.4159042,10.1416289 C27.5547968,12.2872405 28.8775964,15.251442 28.8775964,18.5257121 C28.8775964,21.6372397 27.6829227,24.4685468 25.7287957,26.5913745 C25.4353463,24.8035732 24.6676443,23.2670942 23.6030587,22.0335965 C22.0812518,20.2703327 19.946662,19.127665 17.708739,18.7650827 C15.5553938,18.4162035 13.3105509,18.7885213 11.4191369,20.0042632 C9.8784274,20.9945832 8.5640504,22.5465788 7.73972449,24.7503487 C4.9540004,24.8552865 2.54958359,25.9185312 1.15882098,27.8967324 C-0.182559303,29.8046928 -0.624496109,32.6047757 0.598351263,36.3728657 L22.7477231,36.3742306 C23.9462937,36.618839 25.1780067,36.7446573 26.4284184,36.7446573 C26.8673775,36.7446573 27.3027369,36.7291974 27.7338084,36.6985327 C27.7089212,37.9681999 27.9287269,39.4119583 28.4543641,41.0323022 L58.7850344,40.8078904 C59.8097675,38.426793 59.4877596,36.2118795 58.3277895,34.6137804 C57.3467718,33.2622252 55.7474889,32.3348606 53.7775969,32.1514093 C53.5943682,29.4507293 52.3814109,27.2514411 50.6535234,25.7036217 C48.8559517,24.0933801 46.4957942,23.1931128 44.1478547,23.171335 C44.5651103,21.6302803 44.7879826,20.0087853 44.7879826,18.3351142 C44.7879826,13.2518332 42.73322,8.64965869 39.4112845,5.31829495 C36.088749,1.98632955 31.4986462,-0.0744288873 26.4284184,-0.0744288873 Z" id="wb" stroke="#FFFFFF" stroke-width="1.5"></path>
            <path d="M8.27012705,26.2420813 C5.81289649,26.2263919 3.60885268,27.0199367 2.38591144,28.7594311 C1.3786397,30.1921602 1.0709321,32.2326724 1.72718881,34.8728999 L29.6359652,34.8728999 C30.1123448,33.3835393 29.9112392,32.0020653 29.193761,30.9503348 C28.368236,29.7402215 26.887799,28.9910411 25.1006708,28.9695664 C24.8353939,28.9663788 24.5764874,28.9793829 24.3251107,29.007734 C24.3480889,28.7507609 24.3598665,28.4881206 24.3596825,28.2201354 C24.3582431,26.1233497 23.6249801,24.3547821 22.4675019,23.013653 C21.1770905,21.518499 19.3656405,20.5530892 17.4688413,20.2457748 C15.6776148,19.9555651 13.8061589,20.2531008 12.2301944,21.2660816 C10.8272832,22.1678292 9.66794855,23.6339286 8.98813979,25.7240695 C8.92951126,25.9043288 8.87649737,26.0829328 8.82895319,26.2598234 C8.64442941,26.2491948 8.4580488,26.2432812 8.27012705,26.2420813 Z" id="Path-" stroke="#000000" stroke-width="1.5" fill="#FFFFFF"></path>
            <path d="M3.71804963,32.5284093 C7.13524827,32.5284093 25.1464079,32.5284093 27.5388634,32.5284093 C27.5388634,31.5464594 24.2946708,30.8298167 21.8367906,31.6962523 C24.1600683,20.6665915 11.3154813,19.2981068 10.6815621,28.8847778 C7.43573085,28.2712059 3.71804963,28.6621232 3.71804963,32.5284093 Z" id="Path-" fill="#E9F4F5"></path>
            <polygon id="Path-" fill="#FFFFFF" points="16.2329373 31.1351499 19.9275216 31.6275727 26.6440678 28.3615541 32.7881829 30.5766742 29.640748 34.644093 24.2941037 35.3994752 18.8301018 33.5215067"></polygon>
            <path d="M25.1455992,30.6003655 C25.1455992,29.3993847 25.1678944,26.8100965 24.9048161,26.3058615 C22.9693921,28.2708153 20.3062657,29.512062 17.3550057,29.5895165 L17.0612816,29.5933666 C16.9904261,29.5933666 16.9196634,29.592699 16.8489987,29.5913655 C16.341784,29.5817942 15.8303285,29.7167395 15.3997382,29.9771113 C14.9975534,30.2203067 14.6513315,30.5548238 14.4223229,31.0966662 C13.9880196,32.1242431 14.3449232,33.2655958 15.2015128,33.888108 C16.1168842,34.553339 17.0847801,35.1335508 18.0945991,35.6236987 C20.180472,35.6236987 21.5779378,35.6228999 24.5105601,35.6228999 C25.4972605,34.1650244 25.0047148,32.3543396 25.1455992,30.6003655 Z" id="路径" fill="#FFFFFF" fill-rule="nonzero"></path>
            <path d="M26.4284184,35.2446573 C35.7396986,35.2446573 43.2879826,27.673997 43.2879826,18.3351142 C43.2879826,8.99623144 35.7396986,1.42557111 26.4284184,1.42557111 C22.4692614,1.42557111 18.8288455,2.79430941 15.9519094,5.08572888 C15.8912867,5.13401363 15.935412,5.21672791 16.0179064,5.21031532 C16.3621924,5.18355276 16.7101499,5.16992209 17.0612816,5.16992209 C24.4156792,5.16992209 30.3775964,11.149513 30.3775964,18.5257121 C30.3775964,25.9019113 24.4156792,31.8815022 17.0612816,31.8815022 C16.9759408,31.8815022 16.8907874,31.880697 16.8058287,31.8790938 C16.6391338,31.8759483 16.4665998,31.9789412 16.5466763,32.0371354 C19.3233019,34.0550019 22.7373413,35.2446573 26.4284184,35.2446573 Z" id="Combined-Shape" stroke="#000000" stroke-width="1.5" fill="#FFC55D"></path>
            <path d="M35.2363454,28.2607618 L35.1088136,28.5542373 L35.0657275,28.5578871 C30.4619016,28.9397459 27.3732454,31.6740804 27.001021,35.9953293 C27.9696242,35.9953293 28.6718936,35.9001642 29.665155,35.6674308 C29.4605992,35.2627385 29.9146324,34.3649214 31.0272547,32.9739795 C32.1398769,31.5830377 33.9791717,30.9072174 36.5451391,30.9465186 L38.9181201,27.2162438 C39.1698296,25.2070163 42.3217087,25.8897346 42.8930403,24.5789529 C43.3745138,23.474329 43.4996307,22.6654373 43.5880131,22.4266648 C40.223037,22.6058244 36.9570904,24.4403901 35.2363454,28.2607618 Z" id="路径" fill="#FFFFFF" fill-rule="nonzero"></path>
            <path d="M36.1861448,30.787799 C33.699498,30.787799 31.4757742,31.5962578 30.2431544,33.3545617 C29.2276777,34.8031159 28.9188801,36.8627221 29.582021,39.5281902 L57.6594012,39.5281902 C58.1163451,38.020748 57.897914,36.623535 57.1642314,35.5658824 C56.3266257,34.3584177 54.8433089,33.6180563 53.0516393,33.6180563 C52.7825171,33.6180563 52.520352,33.6347605 52.2662873,33.667243 C52.2896027,33.4065679 52.3016393,33.1400411 52.3016393,32.8680563 C52.3016393,30.7460569 51.5689746,28.9562793 50.4107471,27.5973044 C49.1197894,26.0825942 47.306215,25.1018158 45.4063841,24.7829986 C43.6081308,24.4812275 41.7285321,24.7733763 40.147319,25.7877327 C38.7390749,26.6911286 37.5771876,28.164646 36.9000508,30.2676647 C36.8422313,30.4472377 36.7899603,30.6251453 36.7430955,30.8013312 C36.5592288,30.7923851 36.3734326,30.787799 36.1861448,30.787799 Z" id="Path-" stroke="#000000" stroke-width="1.5" fill="#FFFFFF"></path>
        </g>
    </g>
</svg>