<?xml version="1.0" encoding="UTF-8"?>
<svg width="64px" height="64px" viewBox="0 0 64 64" version="1.1" xmlns="http://www.w3.org/2000/svg" xmlns:xlink="http://www.w3.org/1999/xlink">
    <title>box</title>
    <g id="box" stroke="none" stroke-width="1" fill="none" fill-rule="evenodd">
        <rect id="Rectangle" x="0" y="0" width="64" height="64"></rect>
        <path d="M27.5731558,10.7530386 L7.35120821,13.0728811 L7.24807642,44.9302165 L31.5416384,50.6707105 L33.3945449,51.1060929 L38.6907214,49.7171197 L48.0940806,51.5640916 L48.9715824,51.7647843 L58.1173535,48.5891737 L58.0329695,33.4514747 L52.6390174,32.9115176 L52.5833267,13.873172 L27.5731558,10.7530386 Z" id="形状结合" stroke="#FFFFFF" stroke-width="1.5" fill-rule="nonzero"></path>
        <polygon id="Path-" stroke="#000000" stroke-width="1.5" fill="#BDCFD1" points="8.84904597 14.4108887 8.84904597 15.4818522 32.4872296 19.4739583 51.0852614 15.9055379 51.0852614 15.1973267 27.6548978 12.2534993"></polygon>
        <path d="M51.1760442,15.5239956 L32.4423077,19.2811837 L32.4423077,48.280721 L32.4563248,49.3447844 L33.3721451,49.5599768 L51.1760442,44.7658967 L51.1760442,15.5239956 Z" id="Rectangle--" stroke="#000000" stroke-width="1.5" fill="#BDCFD1"></path>
        <path d="M8.75,14.5788044 L8.75,43.7437577 L32.6346154,49.3855369 L32.6346154,19.2833499 L8.75,14.5788044 Z" id="Rectangle-" stroke="#000000" stroke-width="1.5" fill="#E9F4F5"></path>
        <polygon id="Path-" stroke="#000000" stroke-width="1.5" fill="#E9F4F5" points="39.5453695 34.8092744 39.5453695 35.2626035 48.9950196 37.0930731 56.5367432 35.3708909 56.5367432 34.8092744 47.513916 33.9071378"></polygon>
        <path d="M56.6143736,35.2195904 L48.9172207,36.8044767 L48.682931,50.2771606 L56.6143736,47.5231913 L56.6143736,35.2195904 Z" id="Rectangle--" stroke="#000000" stroke-width="1.5" fill="#BDCFD1"></path>
        <path d="M39.4166667,35.0279593 L39.4166667,48.331049 L48.8121523,50.1765137 L49.4551282,49.9541319 L49.4551282,37.0579593 L39.4166667,35.0279593 Z" id="Rectangle-" stroke="#000000" stroke-width="1.5" fill="#E9F4F5"></path>
    </g>
</svg>