<?xml version="1.0" encoding="UTF-8"?>
<svg width="64px" height="64px" viewBox="0 0 64 64" version="1.1" xmlns="http://www.w3.org/2000/svg" xmlns:xlink="http://www.w3.org/1999/xlink">
    <title>time</title>
    <g id="time" stroke="none" stroke-width="1" fill="none" fill-rule="evenodd">
        <rect id="Rectangle" x="0" y="0" width="64" height="64"></rect>
        <g id="编组" transform="translate(7.500000, 7.500000)">
            <path d="M24.5,-0.25 C17.6654762,-0.25 11.4779762,2.52023811 6.99910717,6.99910717 C2.52023811,11.4779762 -0.25,17.6654762 -0.25,24.5 C-0.25,31.3345238 2.52023811,37.5220238 6.99910717,42.0008928 C11.4779762,46.4797619 17.6654762,49.25 24.5,49.25 C31.3345238,49.25 37.5220238,46.4797619 42.0008928,42.0008928 C46.4797619,37.5220238 49.25,31.3345238 49.25,24.5 C49.25,17.6654762 46.4797619,11.4779762 42.0008928,6.99910717 C37.5220238,2.52023811 31.3345238,-0.25 24.5,-0.25 Z" id="Oval-" stroke="#FFFFFF" stroke-width="1.5" fill-rule="nonzero"></path>
            <circle id="Oval-" stroke="#000000" stroke-width="1.5" fill="#94E8F4" cx="24.5" cy="24.5" r="23.25"></circle>
            <circle id="Oval-" fill="#FFFFFF" cx="24.5" cy="24.5" r="16.6136364"></circle>
            <g id="Group-" transform="translate(16.961039, 14.206061)">
                <circle id="Oval-" fill="#FFC55D" cx="7.53896104" cy="10.2939389" r="7.16666667"></circle>
                <g id="Group" transform="translate(3.629870, 0.000000)" fill="#000000">
                    <rect id="Rectangle" x="3.15909091" y="0" width="1.5" height="14.3333333" rx="0.75"></rect>
                    <rect id="Rectangle-" x="0" y="9.5439389" width="13.030303" height="1.5" rx="0.75"></rect>
                </g>
            </g>
            <path d="M24.5,37.8095238 C24.9142136,37.8095238 25.25,38.1453102 25.25,38.5595238 L25.25,41.0670996 L23.75,41.0670996 L23.75,38.5595238 C23.75,38.1453102 24.0857864,37.8095238 24.5,37.8095238 Z M41.0818182,23.75 L41.0818182,25.25 L38.5742424,25.25 C38.1600289,25.25 37.8242424,24.9142136 37.8242424,24.5 C37.8242424,24.0857864 38.1600289,23.75 38.5742424,23.75 L41.0818182,23.75 Z M10.3295455,23.75 C10.743759,23.75 11.0795455,24.0857864 11.0795455,24.5 C11.0795455,24.9142136 10.743759,25.25 10.3295455,25.25 L7.8219697,25.25 L7.8219697,23.75 L10.3295455,23.75 Z M25.25,7.91428571 L25.25,10.4218615 C25.25,10.836075 24.9142136,11.1718615 24.5,11.1718615 C24.0857864,11.1718615 23.75,10.836075 23.75,10.4218615 L23.75,7.91428571 L25.25,7.91428571 Z" id="Rectangle-" fill="#000000"></path>
        </g>
    </g>
</svg>