<?xml version="1.0" encoding="UTF-8"?>
<svg width="64px" height="64px" viewBox="0 0 64 64" version="1.1" xmlns="http://www.w3.org/2000/svg" xmlns:xlink="http://www.w3.org/1999/xlink">
    <title>bill</title>
    <g id="bill" stroke="none" stroke-width="1" fill="none" fill-rule="evenodd">
        <rect id="Rectangle" x="0" y="0" width="64" height="64"></rect>
        <g id="money" transform="translate(9.500000, 9.000000)">
            <path d="M37.008054,26.431002 C32.4379922,26.431002 27.6797226,27.7783045 22.974054,29.1216818 C18.2909084,30.4616339 13.4492862,31.8512694 8.58987164,31.8512694 C5.52501197,31.8512694 1.77782141,30.6810915 -0.569901229,29.7479919 L-0.569901229,43.5099461 C2.06065225,44.6479769 4.21166098,45.4825878 8.69550995,45.9755784 C12.9023162,46.4381087 17.9644518,45.5476059 22.6250409,44.2089199 C23.1154046,44.0686164 23.6082403,43.9256422 24.1026448,43.782211 C28.3225913,42.5579671 32.6579505,41.2894653 37.008054,41.2894653 C38.6074,41.2894653 40.392545,41.9190802 42.1525409,42.5225403 C43.5369839,42.9972324 44.9064926,43.4645385 46.1678269,43.6659136 L46.1678269,28.5451845 C43.6853346,27.4080868 40.0494849,26.431002 37.008054,26.431002 Z" id="Shape" stroke="#FFFFFF" stroke-width="1.5" fill="#FFFFFF" fill-rule="nonzero"></path>
            <path d="M37.008054,-0.449871987 C34.6603789,-0.449871987 32.169004,-0.114740544 29.286712,0.537037434 L28.4890741,0.722369676 C27.5091132,0.956357086 26.516821,1.21648065 25.2424541,1.57009223 L21.2714828,2.6937568 C15.2863192,4.37106946 12.2475238,4.97039543 8.58987164,4.97039543 C6.02757943,4.97039543 3.676834,4.57475382 1.44069245,3.76523821 L-0.589296186,3.03035293 L-0.105509251,30.0416854 C2.42008925,31.1910244 5.09263602,31.792947 8.00373672,31.8638741 L8.57163646,31.8708624 C12.1430053,31.8709183 15.1710509,31.3032119 20.8599273,29.7177165 L24.3276467,28.7350865 C30.3116139,27.0581155 33.3504061,26.4587917 37.008054,26.4587917 C39.5703462,26.4587917 41.9210917,26.8544334 44.1572332,27.663949 L46.1872156,28.398832 L45.7034376,1.37941533 C43.009898,0.153673146 40.1487675,-0.449871987 37.008054,-0.449871987 Z" id="Shape" stroke="#FFFFFF" stroke-width="1.5" fill-rule="nonzero"></path>
            <path d="M23.1799391,29.8428693 C18.4300549,31.2019169 13.5180505,32.6012694 8.58987164,32.6012694 C5.8501277,32.6012694 3.32930248,32.175082 0.930098771,31.3065355 L0.930098771,42.6325429 C3.30497818,43.6457642 5.8258034,44.1444755 8.58987164,44.1444755 C13.1371369,44.1444755 17.8545469,43.9433241 22.4179866,42.6325429 C27.1678708,41.2734953 32.0798752,39.6839409 37.008054,39.6839409 C39.747798,39.6839409 42.2686232,41.0635035 44.6678269,41.93205 L44.6678269,28.6929346 C42.2929475,27.6797133 39.7721223,27.181002 37.008054,27.181002 C32.4689386,27.181002 27.7433787,28.540174 23.1799391,29.8428693 Z" id="Shape" fill="#F9FBB1" fill-rule="nonzero"></path>
            <path d="M23.1799391,3.71199532 C18.4300549,5.0710429 13.5180505,6.47039543 8.58987164,6.47039543 C5.8501277,6.47039543 3.32930248,6.04420806 0.930098771,5.17566158 L0.930098771,28.8590406 C3.30497818,29.8722619 5.8258034,30.3709733 8.58987164,30.3709733 L8.58987164,30.3709733 C13.1371369,30.3709733 17.8545469,29.027973 22.4179866,27.7171919 C27.1678708,26.3581443 32.0798752,24.9587917 37.008054,24.9587917 C39.747798,24.9587917 42.2686232,25.3849791 44.6678269,26.2535256 L44.6678269,2.56206068 C42.2929475,1.54883939 39.7721223,1.05012801 37.008054,1.05012801 C32.4689386,1.05012801 27.7433787,2.4093 23.1799391,3.71199532 Z" id="Shape" stroke="#000000" stroke-width="1.5" fill="#FFFFFF" fill-rule="nonzero"></path>
            <path d="M9.62726518,26.7522567 C8.5984069,26.7522567 7.59963492,26.6628222 6.64593428,26.4914444 C6.63838367,25.567595 5.97009625,24.7777822 5.05391636,24.6287631 L5.05391636,11.3967179 C6.16536674,11.5010198 7.13405244,10.6292637 7.12650183,9.52666049 C7.94498838,9.60860372 8.77114172,9.64582969 9.61971457,9.64582969 C14.5459675,9.64582969 19.2695154,8.28979026 23.8353136,6.99345068 C28.0781779,5.77905433 32.0958015,4.63161862 35.9406903,4.63161862 C36.9845337,4.63161862 37.9683206,4.72105314 38.9220212,4.89243089 C38.9370063,5.81628029 39.5978593,6.59860187 40.5140392,6.75511228 L40.5140392,19.9871574 C39.4025888,19.8828555 38.4339031,20.7546116 38.4414537,21.8572148 C37.6229671,21.7752716 36.7968138,21.7305544 35.948241,21.7305544 C31.0219881,21.7305544 26.2984401,23.0865938 21.7326419,24.3829334 C17.4972121,25.604821 13.4795885,26.7522567 9.62726518,26.7522567 L9.62726518,26.7522567 Z" id="Shape" fill="#FFC55D" fill-rule="nonzero"></path>
            <path d="M37.5177232,15.941513 C36.8193495,15.941513 36.2486392,15.3827777 36.2486392,14.6823994 L36.2486392,11.7766994 C36.2486392,11.0838123 36.8117989,10.5175858 37.5177232,10.5175858 C38.2160969,10.5175858 38.7868072,11.0763211 38.7868072,11.7766994 L38.7868072,14.6823994 C38.7868072,15.3826625 38.2236475,15.941513 37.5177232,15.941513 Z" id="Shape" fill="#FFFFFF" fill-rule="nonzero"></path>
            <path d="M8.08031862,20.8589135 C7.38194491,20.8589135 6.81123465,20.3001782 6.81123465,19.5997999 L6.81123465,16.6940999 C6.81123465,16.0012129 7.37439429,15.4349863 8.08031862,15.4349863 C8.78624295,15.4349863 9.34940259,15.9937216 9.34940259,16.6940999 L9.34940259,19.5997999 C9.34185197,20.2851957 8.77869233,20.8589135 8.08031862,20.8589135 Z" id="Shape" fill="#FFFFFF" fill-rule="nonzero"></path>
            <path d="M23.0768835,12.0746224 C23.3998175,11.9851879 23.6776801,12.0001705 23.8578493,12.1490743 C24.0605543,12.2980934 24.1056256,12.5737731 24.1056256,12.7748855 C24.1056256,13.3262447 24.556223,13.7733021 25.1119482,13.7733021 C25.6676734,13.7733021 26.1182708,13.3262447 26.1182708,12.7748855 C26.1182708,11.8659034 25.7352805,11.0538472 25.0668769,10.5545813 C24.6988716,10.2789016 24.2708098,10.1150152 23.7977929,10.0554306 L23.7977929,9.72016637 C23.7977929,9.16880715 23.3471955,8.72174978 22.7914703,8.72174978 C22.2357451,8.72174978 21.7851477,9.16880715 21.7851477,9.72016637 L21.7851477,10.4577707 C20.4409061,11.158149 19.4722204,12.6183751 19.4722204,14.0713403 C19.4722204,14.9803224 19.8552108,15.7923786 20.5236143,16.2916445 C21.2144374,16.8057778 22.2658314,16.9025884 23.1894457,16.6417761 C23.1593594,16.6492674 23.1894457,16.6417761 23.1969963,16.6417761 C23.4673083,16.5895675 23.6926651,16.6269088 23.8502987,16.7385867 C24.0530037,16.8876058 24.098075,17.1632854 24.098075,17.3643978 C24.098075,18.1839454 23.3546299,19.1152861 22.4985065,19.3611157 C22.1755725,19.4505503 21.8977099,19.4355677 21.7175407,19.2866638 C21.5148357,19.1376447 21.4697644,18.8619651 21.4697644,18.6608527 C21.4697644,18.1094934 21.0191669,17.6624361 20.4634418,17.6624361 C19.9077166,17.6624361 19.4571192,18.1094934 19.4571192,18.6608527 C19.4571192,19.5698347 19.8401095,20.381891 20.5085131,20.8811569 C20.8765184,21.1568365 21.3045802,21.320723 21.7775971,21.3729315 L21.7775971,21.7007044 C21.7775971,22.2520637 22.2281945,22.699121 22.7839197,22.699121 C23.3396449,22.699121 23.7902423,22.2520637 23.7902423,21.7007044 L23.7902423,20.9705914 C25.1344839,20.2702131 26.1031696,18.809987 26.1031696,17.3570218 C26.1031696,16.4480397 25.7201792,15.6359835 25.0518918,15.1367175 C24.3610687,14.6225843 23.4373382,14.4810565 22.5061732,14.7418687 C22.5362595,14.7343774 22.5061732,14.7418687 22.4986226,14.7418687 C22.2283107,14.7940773 21.882841,14.8014533 21.7250913,14.6896602 C21.5223863,14.5406411 21.477315,14.2649614 21.477315,14.063849 C21.4848656,13.2517928 22.2357451,12.313076 23.0768835,12.0746224 Z" id="Shape" fill="#000000" fill-rule="nonzero"></path>
            <path d="M0.526756188,35.2446674 C3.59649794,36.5393025 9.23678939,38.5305842 15.4594358,37.2631687 C21.6820823,35.9957533 31.0280549,32.6687878 35.934026,32.7162095 C40.8399972,32.7636313 43.2755143,34.0363382 44.9057653,34.6211605" id="Path-" stroke="#000000" stroke-width="1.5" stroke-linecap="round"></path>
            <path d="M0.526756188,33.7489596 C3.59649794,35.0435947 9.23678939,37.0348764 15.4594358,35.7674609 C21.6820823,34.5000455 31.0280549,31.17308 35.934026,31.2205017 C40.8399972,31.2679235 43.2755143,32.5406304 44.9057653,33.1254526" id="Path-" stroke="#FFFFFF" stroke-width="1.5" stroke-linecap="round"></path>
            <path d="M0.526756188,42.2129005 C3.59649794,43.5075356 9.23678939,45.4988172 15.4594358,44.2314018 C21.6820823,42.9639864 31.0280549,39.6370208 35.934026,39.6844426 C40.8399972,39.7318643 43.2755143,41.0045712 44.9057653,41.5893935" id="Path-" stroke="#000000" stroke-width="1.5" stroke-linecap="round"></path>
        </g>
    </g>
</svg>