<?xml version="1.0" encoding="UTF-8"?>
<svg width="64px" height="64px" viewBox="0 0 64 64" version="1.1" xmlns="http://www.w3.org/2000/svg" xmlns:xlink="http://www.w3.org/1999/xlink">
    <title>smileThroughTears</title>
    <g id="smileThroughTears" stroke="none" stroke-width="1" fill="none" fill-rule="evenodd">
        <rect id="Rectangle-" x="0" y="0" width="64" height="64"></rect>
        <path d="M32,6.25 C24.8893338,6.25 18.4518338,9.13216692 13.7920004,13.7920004 C9.13216692,18.4518338 6.25,24.8893338 6.25132132,32.2630625 C4.86156461,33.3695743 3.85163139,34.3879573 3.45732583,35.1474491 C2.61316015,36.7735928 2.50876804,38.5915267 3.02233355,40.2140277 C3.53589324,41.8365103 4.66728601,43.263224 6.29338457,44.1073662 C7.35430032,44.6579967 8.51781444,44.908183 9.67980037,44.8489028 C11.9021591,48.7011273 15.093322,51.9243489 18.9204623,54.1853922 C22.7538393,56.45012 27.2250965,57.75 32,57.75 C36.7817359,57.75 41.2589558,56.4463974 45.095874,54.1758387 C48.9243394,51.910282 52.1151464,48.6815581 54.3345111,44.8236163 C55.5261914,44.8989045 56.7192485,44.6500716 57.8057919,44.0859099 C59.4318309,43.2417986 60.5632387,41.8150387 61.0768055,40.1925335 C61.5903838,38.5699921 61.485982,36.7520442 60.641795,35.1260202 C60.2379875,34.3482188 59.1891809,33.3000027 57.75,32 C57.75,24.8893338 54.8678331,18.4518338 50.2079996,13.7920004 C45.5481662,9.13216692 39.1106662,6.25 32,6.25 Z" id="wb" stroke="#FFFFFF" stroke-width="1.5"></path>
        <g id="编组" transform="translate(1.029259, 7.000000)">
            <circle id="Oval-" fill="#FBDC67" cx="30.9707409" cy="25" r="25"></circle>
            <path d="M40.9707409,11 C43.8335339,11 49.2114635,14.4472656 51.0947643,17.3154297" id="Path-" stroke="#4C4023" stroke-width="2" stroke-linecap="round" transform="translate(46.032753, 14.157715) rotate(5.000000) translate(-46.032753, -14.157715) "></path>
            <path d="M10.9707409,11 C13.8335339,11 19.2114635,14.4472656 21.0947643,17.3154297" id="Path--" stroke="#4C4023" stroke-width="2" stroke-linecap="round" transform="translate(16.032753, 14.157715) scale(-1, 1) rotate(5.000000) translate(-16.032753, -14.157715) "></path>
            <path d="M20.8629385,20.007937 C25.5094684,20.007937 27.9707409,21.752955 27.9707409,20.9587402 C27.9707409,20.1645254 25.5094684,15.722878 20.8629385,15.722878 C16.2164085,15.722878 13.9707409,20.1328567 13.9707409,20.9587402 C13.9707409,21.7846238 16.2164085,20.007937 20.8629385,20.007937 Z" id="Oval---" fill="#4C4023" transform="translate(20.970741, 18.450281) rotate(3.000000) translate(-20.970741, -18.450281) "></path>
            <path d="M40.8629385,20.007937 C45.5094684,20.007937 47.9707409,21.752955 47.9707409,20.9587402 C47.9707409,20.1645254 45.5094684,15.722878 40.8629385,15.722878 C36.2164085,15.722878 33.9707409,20.1328567 33.9707409,20.9587402 C33.9707409,21.7846238 36.2164085,20.007937 40.8629385,20.007937 Z" id="Oval---" fill="#4C4023" transform="translate(40.970741, 18.450281) scale(-1, 1) rotate(3.000000) translate(-40.970741, -18.450281) "></path>
            <path d="M54.6434299,16.9412235 C55.50395,19.4697498 55.9707409,22.1803625 55.9707409,25 C55.9707409,38.8071187 44.7778596,50 30.9707409,50 C18.544334,50 8.23545952,40.9337662 6.29794868,29.0551299 L6.37211226,29.2731744 C9.78703889,39.0145228 19.0631171,46 29.9707409,46 C43.7778596,46 54.9707409,34.8071187 54.9707409,21 C54.9707409,19.6192881 54.8588121,18.2647186 54.6435331,16.9448701 Z" id="Combined-Shape" fill="#F2CC5B"></path>
            <path d="M30.5789313,41.7273147 C39.0503273,41.7273147 46.0508927,35.4299402 47.1547236,27.2610948 C47.2546442,26.5216374 46.9353053,24.5493935 45.2316669,25 C41.9244036,25.8747598 40.2682899,26.7097838 30.5757404,26.7097838 C20.8831909,26.7097838 19.5709458,25.6262242 15.9193042,25 C14.0975084,24.6875782 13.900417,26.480081 13.9949987,27.2000054 C15.0720971,35.398523 22.08643,41.7273147 30.5789313,41.7273147 Z" id="Oval-" fill="#4C4023"></path>
            <path d="M44.7822034,27.5885398 C41.5135524,28.4681604 36.7878135,28.9079707 30.6049865,28.9079707 C24.4221595,28.9079707 19.7503402,28.4681604 16.5895284,27.5885398 C16.1045671,27.5885398 17.1072659,29.8464908 17.8885093,30.3750553 C18.6697526,30.9036197 22.0404066,33.1615708 30.6968434,33.1615708 C39.3532802,33.1615708 42.544727,30.9568909 43.4832225,30.3750553 C44.421718,29.7932196 45.2958512,27.5885398 44.7822034,27.5885398 Z" id="Combined-Shape" fill="#FFFFFF"></path>
            <path d="M8.15619206,36.8552731 C6.58526601,36.9267142 5.07702127,36.3791287 3.91469172,35.316661 C1.5154769,33.1232044 1.34826185,29.3868532 3.54171845,26.9876383 C4.98942316,25.4042539 11.0206502,23.3567941 16.0699997,22.0221883 C15.1918773,27.1702317 13.6916138,33.3601086 12.2437144,34.9440771 C11.1808574,36.106212 9.72925939,36.7849999 8.15619206,36.8552731 Z" id="Shape" fill="#69CDFF" fill-rule="nonzero" transform="translate(9.035000, 29.441833) rotate(-15.000000) translate(-9.035000, -29.441833) "></path>
            <path d="M53.8843539,36.8336688 C52.3110919,36.7632009 50.8596886,36.084413 49.7970262,34.9222781 C49.5455223,34.64722 49.2926558,34.2306423 49.0417359,33.7073897 C49.0068913,33.6157036 48.9665961,33.5265482 48.9187092,33.4422594 C48.7625899,33.0942029 48.6074439,32.7072139 48.4540499,32.2851857 C48.4413968,32.2431386 48.4254345,32.2020649 48.4098615,32.1613804 C47.4505649,29.4730918 46.566992,25.4969164 45.9707409,22 C51.0191171,23.3340218 57.0493708,25.3807029 58.4990221,26.9662287 C60.6924787,29.3652488 60.5252637,33.1017947 58.1260489,35.2952513 C56.9641086,36.357719 55.4583945,36.9045259 53.8843539,36.8336688 Z" id="Path" fill="#69CDFF" transform="translate(53.005741, 29.419892) rotate(-345.000000) translate(-53.005741, -29.419892) "></path>
        </g>
    </g>
</svg>