<?xml version="1.0" encoding="UTF-8"?>
<svg width="64px" height="64px" viewBox="0 0 64 64" version="1.1" xmlns="http://www.w3.org/2000/svg" xmlns:xlink="http://www.w3.org/1999/xlink">
    <title>target</title>
    <defs>
        <path d="M0,31.2564103 L19.025641,12.2307692" id="path-1"></path>
    </defs>
    <g id="target" stroke="none" stroke-width="1" fill="none" fill-rule="evenodd">
        <rect id="Rectangle" x="0" y="0" width="64" height="64"></rect>
        <g id="编组" transform="translate(8.666667, 0.500000)">
            <path d="M38.8743459,12.9918151 C34.705914,9.46197268 29.3130935,7.33333333 23.4230769,7.33333333 C16.8169016,7.33333333 10.8361324,10.0110149 6.506907,14.3402403 C2.17768159,18.6694657 -0.5,24.650235 -0.5,31.2564103 C-0.5,37.8625855 2.17768159,43.8433548 6.506907,48.1725802 C10.8361324,52.5018056 16.8169016,55.1794872 23.4230769,55.1794872 C30.0292522,55.1794872 36.0100214,52.5018056 40.3392468,48.1725802 C44.6684723,43.8433548 47.3461538,37.8625855 47.3461538,31.2564103 C47.3461538,25.2850713 45.1583714,19.8247222 41.8091923,15.3647294 C41.827827,15.3644667 41.8464825,15.3639628 41.8651547,15.3632159 L45.0062721,15.230154 C45.5430381,15.1663507 46.0450142,14.9240238 46.4298126,14.5392254 L52.2845673,8.67413282 C52.662679,8.22801278 52.8337275,7.66676182 52.7744715,7.09522029 C52.7229228,6.59801787 52.4954256,6.08589139 51.9964715,5.60032928 C51.5906678,5.2712901 51.0768534,5.09877674 50.5497565,5.11986061 L48.9631138,5.18322054 L49.0265378,3.59417615 C49.0506305,2.99185795 48.8218879,2.40681435 48.3955981,1.98052456 C47.9738228,1.55874921 47.4210186,1.34786153 46.8682145,1.34786153 C46.3154103,1.34786153 45.7626062,1.55874921 45.3408308,1.98052456 L39.6071704,7.71418498 C39.1775847,8.14377065 38.9255577,8.7193965 38.9012761,9.32643694 L38.7831799,12.2788428 C38.7734354,12.5224542 38.8050434,12.7632293 38.8743459,12.9918151 Z" id="wb" stroke="#FFFFFF" stroke-width="1.5" fill-rule="nonzero"></path>
            <circle id="Oval-" stroke="#000000" stroke-width="1.5" fill="#ED6969" cx="23.4230769" cy="31.2564103" r="22.4230769"></circle>
            <circle id="Oval--" fill="#FFFFFF" cx="23.4230769" cy="31.2564103" r="16.9871795"></circle>
            <circle id="Oval--" fill="#ED6969" cx="23.4230769" cy="31.2564103" r="10.1923077"></circle>
            <circle id="Oval--" fill="#FFFFFF" cx="23.4230769" cy="31.2564103" r="5.43589744"></circle>
            <g id="Group" transform="translate(22.743590, 0.000000)">
                <g id="Path-" stroke-linecap="round">
                    <use stroke="#FFFFFF" stroke-width="3" xlink:href="#path-1"></use>
                    <use stroke="#000000" stroke-width="1.5" xlink:href="#path-1"></use>
                </g>
                <g transform="translate(22.624044, 9.388164) rotate(-315.000000) translate(-22.624044, -9.388164) translate(18.124044, 1.888164)" fill="#FFC55D" stroke="#000000" stroke-width="1.5">
                    <path d="M1.41004668,1.58738557 C1.22777983,1.58738557 1.06276815,1.66126381 0.943323198,1.78070876 C0.823878242,1.90015372 0.75,2.06516539 0.75,2.24743225 L0.75,10.3560526 C0.75,10.5864934 0.836793397,10.8084806 0.993096842,10.9778093 L2.99725643,13.1489822 C3.12220766,13.2843461 3.29804327,13.3613324 3.48226101,13.3613324 C3.66452787,13.3613324 3.82953954,13.2874541 3.94898449,13.1680092 C4.06842945,13.0485642 4.14230769,12.8835526 4.14230769,12.7012857 L4.14230769,4.59266537 C4.14230769,4.36222451 4.0555143,4.14023734 3.89921085,3.9709086 L1.89505126,1.79973572 C1.77010004,1.66437189 1.59426442,1.58738557 1.41004668,1.58738557 Z" id="Rectangle-"></path>
                    <path d="M4.67158515,1.58738557 C4.48931829,1.58738557 4.32430662,1.66126381 4.20486166,1.78070876 C4.0854167,1.90015372 4.01153846,2.06516539 4.01153846,2.24743225 L4.01153846,10.3560526 C4.01153846,10.5864934 4.09833186,10.8084806 4.2546353,10.9778093 L6.25879489,13.1489822 C6.38374612,13.2843461 6.55958173,13.3613324 6.74379947,13.3613324 C6.92606633,13.3613324 7.091078,13.2874541 7.21052296,13.1680092 C7.32996791,13.0485642 7.40384615,12.8835526 7.40384615,12.7012857 L7.40384615,4.59266537 C7.40384615,4.36222451 7.31705276,4.14023734 7.16074931,3.9709086 L5.15658972,1.79973572 C5.0316385,1.66437189 4.85580289,1.58738557 4.67158515,1.58738557 Z" id="Rectangle--" transform="translate(5.707692, 7.474359) scale(-1, 1) translate(-5.707692, -7.474359) "></path>
                </g>
            </g>
        </g>
    </g>
</svg>