<?xml version="1.0" encoding="UTF-8"?>
<svg width="64px" height="64px" viewBox="0 0 64 64" version="1.1" xmlns="http://www.w3.org/2000/svg" xmlns:xlink="http://www.w3.org/1999/xlink">
    <title>pen</title>
    <g id="pen" stroke="none" stroke-width="1" fill="none" fill-rule="evenodd">
        <rect id="Rectangle" x="0" y="0" width="64" height="64"></rect>
        <g id="Group-" transform="translate(14.800000, 9.333333)">
            <path d="M31.1575978,0.838540892 C30.6240633,0.368723194 29.9487067,0.171806581 29.2972924,0.232377635 C28.6686,0.290835902 28.0622088,0.589132203 27.6271349,1.11341042 L23.0705712,6.60421799 L23.0705977,34.804515 C22.7430022,34.9571125 22.4544495,35.1794584 22.2242103,35.4526889 C21.8624372,35.882014 21.6442857,36.4364345 21.6442857,37.041847 L21.6442857,39.2594517 C21.6442857,39.8648642 21.8624372,40.4192847 22.2242103,40.8486098 C22.4544481,41.1218386 22.7429987,41.3441835 23.0705917,41.4967809 L23.0705714,43.194219 C23.0705714,44.3497025 23.53892,45.3957884 24.2961372,46.1530056 C25.0533545,46.9102228 26.0994403,47.3785714 27.2549149,47.3785714 L31.7965137,47.3785714 C32.9519882,47.3785714 33.9980741,46.9102228 34.7552913,46.1530056 C35.5125086,45.3957884 35.9808571,44.3497025 35.9808571,43.194228 L35.9808368,41.4967809 C36.3084299,41.3441835 36.5969805,41.1218386 36.8272183,40.8486098 C37.1889914,40.4192847 37.4071429,39.8648642 37.4071429,39.2594517 L37.4071429,37.041847 C37.4071429,36.4364345 37.1889914,35.882014 36.8272183,35.4526889 C36.5969791,35.1794584 36.3084263,34.9571125 35.9808308,34.804515 L35.9808574,6.6024792 L31.1575978,0.838540892 Z M11.2692866,-0.087012987 L1.96325699,-0.0818328647 C1.23867805,-0.0392572534 0.623396232,0.258485508 0.18827006,0.719370247 C-0.239339323,1.17229322 -0.5,1.78857677 -0.5,2.50801901 L-0.494616788,44.2972517 C-0.450338861,45.0171436 -0.142513747,45.6234782 0.333907953,46.0512716 C0.793930044,46.4643393 1.41857787,46.7155844 2.14099915,46.7155844 L11.4470287,46.7104043 C12.1716077,46.6678287 12.7868895,46.3700859 13.2220157,45.9092012 C13.649625,45.4562782 13.9102857,44.8399947 13.9102857,44.1205524 L13.904902,2.33132037 C13.8606215,1.61144973 13.552785,1.00511491 13.0763596,0.577317329 C12.6163236,0.164236242 11.9916675,-0.087012987 11.2692866,-0.087012987 Z" id="wb" stroke="#FFFFFF" stroke-width="1.5" fill-rule="nonzero"></path>
            <path d="M2.14099915,45.2155844 L11.2692866,45.2155844 C11.9539253,45.2155844 12.4102857,44.7775152 12.4102857,44.1205524 L12.4102857,2.50801901 C12.4102857,1.85096217 11.9538272,1.41298701 11.2692866,1.41298701 L2.14099915,1.41298701 C1.45636044,1.41298701 1,1.85105628 1,2.50801901 L1,44.1205524 C1,44.7776093 1.45636044,45.2155844 2.14099915,45.2155844 Z" id="Shape" stroke="#000000" stroke-width="1.5" fill="#BDF3FB" fill-rule="nonzero"></path>
            <path d="M12.0125714,36.7896104 L12.0125714,38.3324675 L5.65257143,38.3324675 C5.22652319,38.3324675 4.88114286,37.9870872 4.88114286,37.561039 C4.88114286,37.1349907 5.22652319,36.7896104 5.65257143,36.7896104 L12.0125714,36.7896104 Z M12.0125714,33.2987013 L12.0125714,34.8415584 L9.21828571,34.8415584 C8.79223748,34.8415584 8.44685714,34.4961781 8.44685714,34.0701299 C8.44685714,33.6440816 8.79223748,33.2987013 9.21828571,33.2987013 L12.0125714,33.2987013 Z M12.0125714,29.8077922 L12.0125714,31.3506494 L9.21828571,31.3506494 C8.79223748,31.3506494 8.44685714,31.005269 8.44685714,30.5792208 C8.44685714,30.1531725 8.79223748,29.8077922 9.21828571,29.8077922 L12.0125714,29.8077922 Z M12.0125714,26.3168831 L12.0125714,27.8597403 L9.21828571,27.8597403 C8.79223748,27.8597403 8.44685714,27.5143599 8.44685714,27.0883117 C8.44685714,26.6622635 8.79223748,26.3168831 9.21828571,26.3168831 L12.0125714,26.3168831 Z M12.0125714,22.825974 L12.0125714,24.3688312 L5.65257143,24.3688312 C5.22652319,24.3688312 4.88114286,24.0234508 4.88114286,23.5974026 C4.88114286,23.1713544 5.22652319,22.825974 5.65257143,22.825974 L12.0125714,22.825974 Z M12.0125714,19.3350649 L12.0125714,20.8779221 L9.21828571,20.8779221 C8.79223748,20.8779221 8.44685714,20.5325417 8.44685714,20.1064935 C8.44685714,19.6804453 8.79223748,19.3350649 9.21828571,19.3350649 L12.0125714,19.3350649 Z M12.0125714,15.8441558 L12.0125714,17.387013 L9.21828571,17.387013 C8.79223748,17.387013 8.44685714,17.0416327 8.44685714,16.6155844 C8.44685714,16.1895362 8.79223748,15.8441558 9.21828571,15.8441558 L12.0125714,15.8441558 Z M12.0125714,12.3532468 L12.0125714,13.8961039 L9.21828571,13.8961039 C8.79223748,13.8961039 8.44685714,13.5507236 8.44685714,13.1246753 C8.44685714,12.6986271 8.79223748,12.3532468 9.21828571,12.3532468 L12.0125714,12.3532468 Z M12.0125714,8.86233766 L12.0125714,10.4051948 L5.65257143,10.4051948 C5.22652319,10.4051948 4.88114286,10.0598145 4.88114286,9.63376623 C4.88114286,9.207718 5.22652319,8.86233766 5.65257143,8.86233766 L12.0125714,8.86233766 Z" id="å½¢çŠ¶ç»“åˆ" fill="#000000"></path>
            <path d="M30.0724652,1.95450657 C29.8749556,1.81885534 29.6420677,1.76607316 29.4179189,1.79121213 C29.1719402,1.81879938 28.9364857,1.94022433 28.7698587,2.14894809 L24.5705714,7.40914514 L24.5705714,43.194228 C24.5705714,43.935489 24.8710268,44.6065748 25.3567974,45.0923454 C25.842568,45.5781161 26.5136539,45.8785714 27.2549149,45.8785714 L31.7965137,45.8785714 C32.5377747,45.8785714 33.2088605,45.5781161 33.6946312,45.0923454 C34.1804018,44.6065748 34.4808571,43.935489 34.4808571,43.194228 L34.4808571,7.41158324 L30.0724652,1.95450657 Z" id="Rectangle-" stroke="#000000" stroke-width="1.5" fill="#FFC55D"></path>
            <path d="M34.4808571,38.9006494 L24.5705714,38.9006494 L24.5705714,43.194228 C24.5705714,43.935489 24.8710268,44.6065748 25.3567974,45.0923454 C25.842568,45.5781161 26.5136539,45.8785714 27.2549149,45.8785714 L31.7965137,45.8785714 C32.5377747,45.8785714 33.2088605,45.5781161 33.6946312,45.0923454 C34.1804018,44.6065748 34.4808571,43.935489 34.4808571,43.194228 L34.4808571,38.9006494 Z" id="Rectangle-" stroke="#000000" stroke-width="1.5" fill="#ED6969"></path>
            <path d="M30.0971034,1.90857101 C29.9002409,1.76414781 29.6644547,1.704708 29.4361692,1.72593488 C29.1897115,1.74885148 28.9519962,1.86578851 28.7814401,2.07131416 L24.5705714,7.1455479 L24.5705714,7.72792208 L34.4808571,7.72792208 L34.4808571,7.1472867 L30.0971034,1.90857101 Z" id="Rectangle-" stroke="#000000" stroke-width="1.5" fill="#EFC9AE"></path>
            <rect id="Rectangle-" fill="#2B2B2B" x="25.2468571" y="38.1506494" width="7.13142857" height="1.41298701"></rect>
            <rect id="Rectangle-" stroke="#000000" stroke-width="1.5" fill="#FFC55D" x="23.1442857" y="36.0746753" width="12.7628571" height="4.15194805" rx="1.71717172"></rect>
            <rect id="Rectangle" fill="#2B2B2B" x="25.2468571" y="7.06493506" width="7.13142857" height="1.41298701"></rect>
            <rect id="Rectangle-" fill="#000000" x="28.0994286" y="12.7168831" width="1.54285714" height="19.7818182" rx="0.771428571"></rect>
        </g>
    </g>
</svg>