<?xml version="1.0" encoding="UTF-8"?>
<svg width="64px" height="64px" viewBox="0 0 64 64" version="1.1" xmlns="http://www.w3.org/2000/svg" xmlns:xlink="http://www.w3.org/1999/xlink">
    <title>lightening</title>
    <defs>
        <path d="M0.643384682,23.4936577 C6.84467095,23.4936577 31.9517026,23.4936577 36.3745337,23.4936577 C38.2875004,18.6636057 35.0829166,14.5010386 30.081152,14.5010386 C30.081152,2.92281834 13.4013427,-1.15161196 9.43248895,11.0663603 C3.10433388,11.0663603 -1.80992181,15.0830458 0.643384682,23.4936577 Z" id="path-1"></path>
    </defs>
    <g id="lightening" stroke="none" stroke-width="1" fill="none" fill-rule="evenodd">
        <rect id="Rectangle" x="0" y="0" width="64" height="64"></rect>
        <g id="Group" transform="translate(6.000000, 8.000000)">
            <path d="M47.7559666,8.78130914 C47.6035386,6.43525661 46.710005,4.44524108 45.3802181,2.89868072 C43.7588916,1.01305583 41.4828604,-0.211882704 39.095886,-0.608929664 C36.7933092,-0.991938031 34.3918622,-0.605433983 32.3706018,0.679822292 C30.7131769,1.73372689 29.3029765,3.3936915 28.4271157,5.75557237 C27.4260773,5.79557431 26.4692925,5.94745956 25.584954,6.21073057 C24.0872016,4.59099581 22.2385912,3.59739948 20.2805175,3.15757248 C18.0120672,2.64802797 15.5944747,2.88496862 13.410169,3.76182643 C11.2836034,4.6155053 9.38020939,6.07451366 8.04971392,8.02924178 C6.95937318,9.63114102 6.25138567,11.5662541 6.12423983,13.7782899 C3.6442538,13.9688707 1.63931365,15.1261674 0.449565974,16.826199 C-0.899969792,18.7545519 -1.22937471,21.4071791 0.0648585818,24.2436802 L13.9849849,24.2430468 L10.1297809,36.2317924 L15.0758769,36.2311451 L8.42001577,52.8188007 L31.6379737,29.7366203 L23.654787,29.7361075 L28.5540206,24.2430274 L36.8458835,24.2437028 C37.6027214,21.88621 37.8147737,19.8424814 37.6118337,18.1054191 L53.1309125,17.8886005 C54.2077154,15.3879413 53.8663354,13.0621447 52.6377786,11.3817865 C51.5882698,9.94632112 49.8709882,8.96484423 47.7559666,8.78130914 Z" id="wb" stroke="#FFFFFF" stroke-width="1.5" fill-rule="nonzero"></path>
            <polygon id="Path-" fill="#FFC55D" points="16.8429286 21.1062409 29.9104519 21.1062409 20.4151793 31.7521539 28.1086088 31.7521539 12.6279558 47.1422768 17.4013773 35.2473081 12.2947906 35.2473081"></polygon>
            <polygon id="Path-" stroke="#000000" stroke-width="1.5" points="16.7360188 20.5905905 29.8035421 20.5905905 20.3082695 31.2365035 28.001699 31.2365035 12.521046 46.6266263 17.2944675 34.7316577 12.1878808 34.7316577"></polygon>
            <g id="Path-" transform="translate(18.467385, 13.567887) scale(-1, 1) translate(-18.467385, -13.567887) " stroke-linejoin="square">
                <path stroke="#FFFFFF" stroke-width="3" d="M9.43248895,12.5663603 C6.60177503,12.5663603 4.04023945,13.4399628 2.62918409,15.4351154 C1.52246493,16.9999538 1.18721984,19.1951181 1.805712,21.9936577 L35.2785783,21.9936577 C35.6221463,20.5236763 35.3766726,19.1663592 34.6417933,18.1162896 C33.7129341,16.7890418 32.0585167,16.0010386 30.081152,16.0010386 C29.5020872,16.0010386 28.9507182,16.0686171 28.4371562,16.1975267 C28.5314276,15.6556933 28.581152,15.0895325 28.581152,14.5010386 C28.581152,12.0827078 27.7414658,10.0415132 26.4093526,8.49224731 C24.9177459,6.75748821 22.8213857,5.6364597 20.6267986,5.27141424 C18.5641893,4.92832184 16.4062438,5.25427259 14.5912745,6.40835482 C12.9682138,7.44040828 11.6386011,9.13013898 10.8591082,11.5297796 C10.7396913,11.8974003 10.6405121,12.2591276 10.5607137,12.6145712 C10.1912483,12.5822553 9.81431743,12.5663603 9.43248895,12.5663603 Z" fill="#E9F4F5" fill-rule="evenodd"></path>
                <path stroke="#000000" stroke-width="1.5" d="M9.43248895,11.8163603 C6.32535024,11.8163603 3.55490844,12.8273207 2.01685064,15.0020476 C0.73752349,16.810944 0.347462268,19.3915366 1.2146955,22.7436576 L35.847727,22.7436576 C36.4707643,20.818275 36.1978659,19.0317154 35.2562638,17.6862594 C34.2022563,16.180187 32.3379653,15.2510386 30.081152,15.2510386 C29.8162684,15.2510386 29.5567922,15.2638384 29.3033988,15.2888685 C29.3216478,15.0307644 29.331152,14.7680377 29.331152,14.5010386 C29.331152,11.8847027 28.418554,9.67861183 26.9780379,8.00327177 C25.3713791,6.13470555 23.1142812,4.92487469 20.749862,4.53157952 C18.5061228,4.15835816 16.1614239,4.52116302 14.1888408,5.77546686 C12.4370985,6.88934495 10.9884177,8.70409747 10.1457986,11.2980699 C10.0880948,11.4757089 10.0348382,11.6520615 9.98593532,11.8270908 C9.80298793,11.8199773 9.61834075,11.8163603 9.43248895,11.8163603 Z"></path>
            </g>
            <path d="M26.1012653,8.24748235 C25.6377777,7.34183964 24.996143,6.56131357 24.1763611,5.90590413 C20.0969868,7.69871656 18.145378,11.9964464 19.8345997,17.7875649 L20.1496171,18.8675316 L36.925,18.8675316 C36.8541504,17.810136 36.7276917,17.143453 36.5456238,16.8674825 C36.272522,16.4535268 29.3407146,10.5626264 26.1012653,8.24748235 Z" id="路径" fill="#FFFFFF" fill-rule="nonzero"></path>
            <path d="M28.9639199,7.24525311 C26.2801641,7.24525311 23.882526,8.11252521 22.552816,9.9926601 C21.4549981,11.5449127 21.121093,13.7545813 21.847243,16.6175316 L52.005169,16.6175316 C52.5128885,14.9900574 52.2775384,13.4809418 51.479496,12.3406183 C50.5730354,11.0453759 48.9682831,10.2501525 47.0288304,10.2501525 C46.761185,10.2501525 46.4999136,10.2652969 46.2459719,10.2948097 C46.267604,10.0351707 46.2788304,9.77018465 46.2788304,9.50015252 C46.2788304,7.23597313 45.4895486,5.32656219 44.2428476,3.8766318 C42.8516252,2.25862114 40.8970694,1.21128732 38.8497593,0.870739765 C36.9094422,0.547989341 34.8815021,0.860785159 33.1754691,1.9455982 C31.6590229,2.90985886 30.4065134,4.48188879 29.6772296,6.72696272 C29.619275,6.90537375 29.5664917,7.08228758 29.5187551,7.25765424 C29.3353562,7.24943719 29.1503282,7.24525311 28.9639199,7.24525311 Z" id="Path-" stroke="#000000" stroke-width="1.5" fill="#FFFFFF"></path>
        </g>
    </g>
</svg>