<?xml version="1.0" encoding="UTF-8"?>
<svg width="64px" height="64px" viewBox="0 0 64 64" version="1.1" xmlns="http://www.w3.org/2000/svg" xmlns:xlink="http://www.w3.org/1999/xlink">
    <!-- Generator: Sketch 49.1 (51147) - http://www.bohemiancoding.com/sketch -->
    <title>stopwatch</title>
    <desc>Created with Sketch.</desc>
    <defs>
        <rect id="path-1" x="0.90986804" y="0.800000191" width="13.5964912" height="5.17473118"></rect>
        <rect id="path-2" x="3.37938596" y="4.44982079" width="8.66776316" height="6.89964158"></rect>
        <rect id="path-3" x="0.808213917" y="0.808213917" width="13.5964912" height="5.17473118"></rect>
        <rect id="path-4" x="3.37938596" y="4.44982079" width="8.66776316" height="6.89964158"></rect>
        <ellipse id="path-5" cx="28.1217105" cy="30.2885305" rx="19.5449561" ry="19.8364695"></ellipse>
        <path d="M31.5208333,35.1182796 C32.4189277,35.1182796 35.0899123,34.5263839 35.0899123,31.1509857 C35.0899123,27.7755874 32.6255482,13.3844086 31.5208333,13.3844086 C30.4161184,13.3844086 27.9517544,27.7755874 27.9517544,31.1509857 C27.9517544,34.5263839 30.622739,35.1182796 31.5208333,35.1182796 Z" id="path-6"></path>
    </defs>
    <g id="stopwatch" stroke="none" stroke-width="1" fill="none" fill-rule="evenodd">
        <rect id="Rectangle" x="0" y="0" width="64" height="64"></rect>
        <g id="Group-3" transform="translate(5.666667, 6.000000)">
            <path d="M9.49588073,21.4837014 L7.61051422,19.5983349 L5.79242103,21.4164281 L0.719119962,16.343127 L11.7475047,5.31474228 L16.8208057,10.3880433 L15.1537619,12.0550872 L16.3253726,13.2266979 C18.2372635,11.8645009 20.3886102,10.824438 22.7028509,10.1843752 L22.7028509,7.97473137 L20.233333,7.97473137 L20.233333,0.800000191 L35.8298242,0.800000191 L35.8298242,7.97473137 L33.370614,7.97473137 L33.370614,10.1381676 C42.1763737,12.4910126 48.6666667,20.6231131 48.6666667,30.2885305 C48.6666667,41.792908 39.4717175,51.125 28.1217105,51.125 C16.7717035,51.125 7.57675439,41.792908 7.57675439,30.2885305 C7.57675439,27.1423023 8.26446148,24.1585434 9.49588073,21.4837014 Z" id="Combined-Shape" fill="#FFFFFF" fill-rule="nonzero"></path>
            <g id="Group-2" transform="translate(20.323465, 1.000000)">
                <g id="Rectangle-46">
                    <use fill="#BDCFD1" fill-rule="evenodd" xlink:href="#path-1"></use>
                    <rect stroke="#2B2B2B" stroke-width="1.5625" x="1.69111804" y="1.58125019" width="12.0339912" height="3.61223118"></rect>
                </g>
                <g id="Rectangle-46-Copy">
                    <use fill="#FFFFFF" fill-rule="evenodd" xlink:href="#path-2"></use>
                    <rect stroke="#2B2B2B" stroke-width="1.5625" x="4.16063596" y="5.23107079" width="7.10526316" height="5.33714158"></rect>
                </g>
            </g>
            <g id="Group-2" transform="translate(10.536288, 15.282467) rotate(-45.000000) translate(-10.536288, -15.282467) translate(3.036288, 9.282467)">
                <g id="Rectangle-46">
                    <use fill="#BDCFD1" fill-rule="evenodd" xlink:href="#path-3"></use>
                    <rect stroke="#2B2B2B" stroke-width="1.5625" x="1.58946392" y="1.58946392" width="12.0339912" height="3.61223118"></rect>
                </g>
                <g id="Rectangle-46-Copy">
                    <use fill="#FFFFFF" fill-rule="evenodd" xlink:href="#path-4"></use>
                    <rect stroke="#2B2B2B" stroke-width="1.5625" x="4.16063596" y="5.23107079" width="7.10526316" height="5.33714158"></rect>
                </g>
            </g>
            <g id="Oval-23">
                <use fill="#FFFFFF" fill-rule="evenodd" xlink:href="#path-5"></use>
                <ellipse stroke="#2B2B2B" stroke-width="1.5625" cx="28.1217105" cy="30.2885305" rx="18.7637061" ry="19.0552195"></ellipse>
            </g>
            <path d="M28.1217105,46.6751792 C19.204613,46.6751792 11.9758772,39.3386267 11.9758772,30.2885305 C11.9758772,21.2384343 19.204613,13.9018817 28.1217105,13.9018817 C37.038808,13.9018817 44.2675439,21.2384343 44.2675439,30.2885305 C44.2675439,39.3386267 37.038808,46.6751792 28.1217105,46.6751792 Z M28.1217105,43.2253584 C35.1615244,43.2253584 40.8684211,37.4333433 40.8684211,30.2885305 C40.8684211,23.1437177 35.1615244,17.3517025 28.1217105,17.3517025 C21.0818967,17.3517025 15.375,23.1437177 15.375,30.2885305 C15.375,37.4333433 21.0818967,43.2253584 28.1217105,43.2253584 Z" id="Combined-Shape" fill="#E9F4F5"></path>
            <path d="M28.0531798,13.9018817 L28.1902412,13.9018817 C28.6217137,13.9018817 28.9714912,14.2516593 28.9714912,14.6831317 L28.9714912,16.5704525 C28.9714912,17.001925 28.6217137,17.3517025 28.1902412,17.3517025 L28.0531798,17.3517025 C27.6217074,17.3517025 27.2719298,17.001925 27.2719298,16.5704525 L27.2719298,14.6831317 C27.2719298,14.2516593 27.6217074,13.9018817 28.0531798,13.9018817 Z M28.0531798,43.2253584 L28.1902412,43.2253584 C28.6217137,43.2253584 28.9714912,43.575136 28.9714912,44.0066084 L28.9714912,45.8939292 C28.9714912,46.3254017 28.6217137,46.6751792 28.1902412,46.6751792 L28.0531798,46.6751792 C27.6217074,46.6751792 27.2719298,46.3254017 27.2719298,45.8939292 L27.2719298,44.0066084 C27.2719298,43.575136 27.6217074,43.2253584 28.0531798,43.2253584 Z M36.2556856,16.063011 L36.3743842,16.1315417 C36.7480503,16.347278 36.8760778,16.825083 36.6603416,17.1987491 L35.7166812,18.8332168 C35.5009449,19.2068829 35.0231399,19.3349104 34.6494738,19.1191742 L34.5307752,19.0506435 C34.1571091,18.8349072 34.0290816,18.3571022 34.2448178,17.9834361 L35.1884782,16.3489684 C35.4042145,15.9753023 35.8820195,15.8472748 36.2556856,16.063011 Z M21.5939472,41.4578868 L21.7126459,41.5264175 C22.086312,41.7421537 22.2143395,42.2199587 21.9986032,42.5936248 L21.0549428,44.2280926 C20.8392066,44.6017587 20.3614016,44.7297861 19.9877355,44.5140499 L19.8690368,44.4455192 C19.4953707,44.229783 19.3673432,43.751978 19.5830795,43.3783119 L20.5267399,41.7438441 C20.7424761,41.370178 21.2202811,41.2421505 21.5939472,41.4578868 Z M42.2786993,22.0358568 L42.34723,22.1545554 C42.5629662,22.5282215 42.4349387,23.0060265 42.0612726,23.2217628 L40.4268049,24.1654232 C40.0531388,24.3811594 39.5753338,24.2531319 39.3595975,23.8794658 L39.2910668,23.7607672 C39.0753306,23.387101 39.2033581,22.909296 39.5770242,22.6935598 L41.2114919,21.7498994 C41.585158,21.5341632 42.062963,21.6621907 42.2786993,22.0358568 Z M16.8838235,36.6975951 L16.9523542,36.8162938 C17.1680905,37.1899599 17.040063,37.6677649 16.6663969,37.8835011 L15.0319291,38.8271615 C14.658263,39.0428977 14.180458,38.9148703 13.9647218,38.5412042 L13.8961911,38.4225055 C13.6804548,38.0488394 13.8084823,37.5710344 14.1821484,37.3552982 L15.8166162,36.4116378 C16.1902823,36.1959015 16.6680873,36.323929 16.8838235,36.6975951 Z M44.5083593,30.2199998 L44.5083593,30.3570612 C44.5083593,30.7885336 44.1585817,31.1383112 43.7271093,31.1383112 L41.8397885,31.1383112 C41.408316,31.1383112 41.0585385,30.7885336 41.0585385,30.3570612 L41.0585385,30.2199998 C41.0585385,29.7885273 41.408316,29.4387498 41.8397885,29.4387498 L43.7271093,29.4387498 C44.1585817,29.4387498 44.5083593,29.7885273 44.5083593,30.2199998 Z M15.1848826,30.2199998 L15.1848826,30.3570612 C15.1848826,30.7885336 14.835105,31.1383112 14.4036326,31.1383112 L12.5163118,31.1383112 C12.0848393,31.1383112 11.7350618,30.7885336 11.7350618,30.3570612 L11.7350618,30.2199998 C11.7350618,29.7885273 12.0848393,29.4387498 12.5163118,29.4387498 L14.4036326,29.4387498 C14.835105,29.4387498 15.1848826,29.7885273 15.1848826,30.2199998 Z M42.34723,38.4225055 L42.2786993,38.5412042 C42.062963,38.9148703 41.585158,39.0428977 41.2114919,38.8271615 L39.5770242,37.8835011 C39.2033581,37.6677649 39.0753306,37.1899599 39.2910668,36.8162938 L39.3595975,36.6975951 C39.5753338,36.323929 40.0531388,36.1959015 40.4268049,36.4116378 L42.0612726,37.3552982 C42.4349387,37.5710344 42.5629662,38.0488394 42.34723,38.4225055 Z M16.9523542,23.7607672 L16.8838235,23.8794658 C16.6680873,24.2531319 16.1902823,24.3811594 15.8166162,24.1654232 L14.1821484,23.2217628 C13.8084823,23.0060265 13.6804548,22.5282215 13.8961911,22.1545554 L13.9647218,22.0358568 C14.180458,21.6621907 14.658263,21.5341632 15.0319291,21.7498994 L16.6663969,22.6935598 C17.040063,22.909296 17.1680905,23.387101 16.9523542,23.7607672 Z M36.3743842,44.4455192 L36.2556856,44.5140499 C35.8820195,44.7297861 35.4042145,44.6017587 35.1884782,44.2280926 L34.2448178,42.5936248 C34.0290816,42.2199587 34.1571091,41.7421537 34.5307752,41.5264175 L34.6494738,41.4578868 C35.0231399,41.2421505 35.5009449,41.370178 35.7166812,41.7438441 L36.6603416,43.3783119 C36.8760778,43.751978 36.7480503,44.229783 36.3743842,44.4455192 Z M21.7126459,19.0506435 L21.5939472,19.1191742 C21.2202811,19.3349104 20.7424761,19.2068829 20.5267399,18.8332168 L19.5830795,17.1987491 C19.3673432,16.825083 19.4953707,16.347278 19.8690368,16.1315417 L19.9877355,16.063011 C20.3614016,15.8472748 20.8392066,15.9753023 21.0549428,16.3489684 L21.9986032,17.9834361 C22.2143395,18.3571022 22.086312,18.8349072 21.7126459,19.0506435 Z" id="Combined-Shape" fill="#2B2B2B"></path>
            <g id="Oval-24" transform="translate(31.520833, 24.251344) rotate(30.000000) translate(-31.520833, -24.251344) ">
                <use fill="#ED6969" fill-rule="evenodd" xlink:href="#path-6"></use>
                <path stroke="#2B2B2B" stroke-width="1.5625" d="M31.5208333,14.9865922 C31.434999,15.2483542 31.3444284,15.5517581 31.2502806,15.8933531 C30.8875336,17.2095026 30.483362,19.0487497 30.0898779,21.1459873 C29.3234983,25.2307281 28.7330044,29.5681659 28.7330044,31.1509857 C28.7330044,33.3526481 30.0803059,34.3370296 31.5208333,34.3370296 C32.9613607,34.3370296 34.3086623,33.3526481 34.3086623,31.1509857 C34.3086623,29.5681659 33.7181684,25.2307281 32.9517887,21.1459873 C32.5583047,19.0487497 32.1541331,17.2095026 31.7913861,15.8933531 C31.6972383,15.5517581 31.6066676,15.2483542 31.5208333,14.9865922 Z"></path>
            </g>
        </g>
    </g>
</svg>