<?xml version="1.0" encoding="UTF-8"?>
<svg width="64px" height="64px" viewBox="0 0 64 64" version="1.1" xmlns="http://www.w3.org/2000/svg" xmlns:xlink="http://www.w3.org/1999/xlink">
    <title>sunny</title>
    <g id="sunny" stroke="none" stroke-width="1" fill="none" fill-rule="evenodd">
        <rect id="Rectangle" x="0" y="0" width="64" height="64"></rect>
        <g id="Group" transform="translate(4.333333, 7.333333)">
            <path d="M20.813317,38.3206699 C20.3991034,38.3206699 20.0241034,38.4885632 19.7526568,38.7600098 C19.4812102,39.0314564 19.313317,39.4064564 19.313317,39.8206699 L19.313317,43.375817 C19.313317,43.7900306 19.4812102,44.1650306 19.7526568,44.4364772 C20.0241034,44.7079238 20.3991034,44.875817 20.813317,44.875817 C21.2275306,44.875817 21.6025306,44.7079238 21.8739772,44.4364772 C22.1454238,44.1650306 22.313317,43.7900306 22.313317,43.375817 L22.313317,39.8206699 C22.313317,39.4064564 22.1454238,39.0314564 21.8739772,38.7600098 C21.6025306,38.4885632 21.2275306,38.3206699 20.813317,38.3206699 Z M13.219427,6.06717665 C13.0124787,5.70873149 12.6795789,5.46791857 12.308776,5.36856222 C11.937973,5.26920586 11.5292669,5.31130607 11.1705474,5.51841285 C10.8118279,5.72551963 10.571015,6.05841943 10.4716586,6.42922239 C10.3723023,6.80002535 10.4144025,7.20873149 10.6215093,7.56745096 L11.6187947,9.29392952 C7.77407604,12.049452 5.47612264,16.2798209 5.0573944,20.748137 L3.09011831,20.7483699 C2.67599352,20.7483699 2.30099352,20.9162631 2.02954691,21.1877097 C1.75810031,21.4591563 1.59020709,21.8341563 1.59020709,22.2483699 C1.59020709,22.6625834 1.75810031,23.0375834 2.02954691,23.30903 C2.30099352,23.5804766 2.67599352,23.7483699 3.09020709,23.7483699 L5.06020824,23.7483115 C5.27103252,25.948106 5.94557056,28.1391127 7.12266513,30.1779003 C8.30270649,32.2217919 9.86777184,33.9047663 11.6730893,35.1884357 L10.6839951,36.9010007 C10.4768318,37.2598181 10.4347316,37.6685243 10.534088,38.0393272 C10.6334443,38.4101302 10.8742572,38.74303 11.2329767,38.9501368 C11.5916962,39.1572435 12.0004023,39.1993437 12.3712053,39.0999874 C12.7420082,39.000631 13.074908,38.7598181 13.2820148,38.4010986 L14.270848,36.6879635 C16.8523214,37.86924 19.7267088,38.3512974 22.5804768,38.0504995 C22.7023993,38.681403 22.873097,39.3435908 23.0974967,40.0369068 L55.0179957,39.8096501 C56.0835764,37.3283269 55.7475277,35.020181 54.5358363,33.3531417 C53.5022962,31.9312021 51.812127,30.9585395 49.7305403,30.7743212 C49.510001,27.379051 47.7344207,24.7363119 45.3280075,23.1200802 C42.8291557,21.4417635 39.6496118,20.881989 36.8165842,21.7258902 C36.7397489,19.1823987 36.0505049,16.6206238 34.6890179,14.2624592 C33.5047916,12.2113191 31.932807,10.5236594 30.1193221,9.23825743 L31.0675768,7.59560161 C31.2746608,7.23692162 31.316761,6.82821548 31.2174046,6.45741252 C31.1180483,6.08660955 30.8772354,5.75370976 30.5185159,5.54660298 C30.1597964,5.3394962 29.7510903,5.29739599 29.3802873,5.39675235 C29.0094844,5.4961087 28.6765846,5.73692162 28.4694778,6.09564109 L27.5190633,7.74245669 C23.4018634,5.86582308 18.5426216,5.76564689 14.2097808,7.78084778 L13.219427,6.06717665 Z M6.86988347,30.2704248 C6.66277669,29.9117054 6.3298769,29.6708925 5.95907393,29.5715361 C5.58827097,29.4721797 5.17956483,29.5142799 4.82084536,29.7213867 L1.7419977,31.4989603 C1.38327823,31.706067 1.14246531,32.0389668 1.04310896,32.4097698 C0.943752603,32.7805728 0.985852811,33.1892789 1.19295959,33.5479984 C1.40006637,33.9067178 1.73296617,34.1475308 2.10376913,34.2468871 C2.47457209,34.3462435 2.88327823,34.3041433 3.2419977,34.0970365 L6.32084536,32.3194629 C6.67956483,32.1123562 6.92037775,31.7794564 7.0197341,31.4086534 C7.11909046,31.0378504 7.07699025,30.6291443 6.86988347,30.2704248 Z M40.4336744,10.8923611 C40.2265676,10.5336416 39.8936678,10.2928287 39.5228649,10.1934724 C39.1520619,10.094116 38.7433558,10.1362162 38.3846363,10.343323 L35.3057886,12.1208965 C34.9470692,12.3280033 34.7062562,12.6609031 34.6068999,13.0317061 C34.5075435,13.402509 34.5496437,13.8112152 34.7567505,14.1699346 C34.9638573,14.5286541 35.2967571,14.769467 35.6675601,14.8688234 C36.038363,14.9681797 36.4470692,14.9260795 36.8057886,14.7189727 L39.8846363,12.9413992 C40.2433558,12.7342924 40.4841687,12.4013926 40.583525,12.0305897 C40.6828814,11.6597867 40.6407812,11.2510806 40.4336744,10.8923611 Z M3.2419977,10.343323 C2.88327823,10.1362162 2.47457209,10.094116 2.10376913,10.1934724 C1.73296617,10.2928287 1.40006637,10.5336416 1.19295959,10.8923611 C0.985852811,11.2510806 0.943752603,11.6597867 1.04310896,12.0305897 C1.14246531,12.4013926 1.38327823,12.7342924 1.7419977,12.9413992 L4.82084536,14.7189727 C5.17956483,14.9260795 5.58827097,14.9681797 5.95907393,14.8688234 C6.3298769,14.769467 6.66277669,14.5286541 6.86988347,14.1699346 C7.07699025,13.8112152 7.11909046,13.402509 7.0197341,13.0317061 C6.92037775,12.6609031 6.67956483,12.3280033 6.32084536,12.1208965 L3.2419977,10.343323 Z M20.813317,-0.435457516 C20.3991034,-0.435457516 20.0241034,-0.267564298 19.7526568,0.00388231188 C19.4812102,0.275328921 19.313317,0.650328921 19.313317,1.06454248 L19.313317,4.61968954 C19.313317,5.0339031 19.4812102,5.4089031 19.7526568,5.68034971 C20.0241034,5.95179632 20.3991034,6.11968954 20.813317,6.11968954 C21.2275306,6.11968954 21.6025306,5.95179632 21.8739772,5.68034971 C22.1454238,5.4089031 22.313317,5.0339031 22.313317,4.61968954 L22.313317,1.06454248 C22.313317,0.650328921 22.1454238,0.275328921 21.8739772,0.00388231188 C21.6025306,-0.267564298 21.2275306,-0.435457516 20.813317,-0.435457516 Z" id="wb" stroke="#FFFFFF" stroke-width="1.5" fill="#000000"></path>
            <path d="M20.813317,39.0706699 C21.2275306,39.0706699 21.563317,39.4064564 21.563317,39.8206699 L21.563317,43.375817 C21.563317,43.7900306 21.2275306,44.125817 20.813317,44.125817 C20.3991034,44.125817 20.063317,43.7900306 20.063317,43.375817 L20.063317,39.8206699 C20.063317,39.4064564 20.3991034,39.0706699 20.813317,39.0706699 Z M20.813317,0.314542484 C21.2275306,0.314542484 21.563317,0.650328921 21.563317,1.06454248 L21.563317,4.61968954 C21.563317,5.0339031 21.2275306,5.36968954 20.813317,5.36968954 C20.3991034,5.36968954 20.063317,5.0339031 20.063317,4.61968954 L20.063317,1.06454248 C20.063317,0.650328921 20.3991034,0.314542484 20.813317,0.314542484 Z" id="Combined-Shape" fill="#000000" transform="translate(20.813317, 22.220180) rotate(60.000000) translate(-20.813317, -22.220180) "></path>
            <path d="M20.813317,39.0706699 C21.2275306,39.0706699 21.563317,39.4064564 21.563317,39.8206699 L21.563317,43.375817 C21.563317,43.7900306 21.2275306,44.125817 20.813317,44.125817 C20.3991034,44.125817 20.063317,43.7900306 20.063317,43.375817 L20.063317,39.8206699 C20.063317,39.4064564 20.3991034,39.0706699 20.813317,39.0706699 Z M20.813317,0.314542484 C21.2275306,0.314542484 21.563317,0.650328921 21.563317,1.06454248 L21.563317,4.61968954 C21.563317,5.0339031 21.2275306,5.36968954 20.813317,5.36968954 C20.3991034,5.36968954 20.063317,5.0339031 20.063317,4.61968954 L20.063317,1.06454248 C20.063317,0.650328921 20.3991034,0.314542484 20.813317,0.314542484 Z" id="Combined-Shape" fill="#000000" transform="translate(20.813317, 22.220180) rotate(120.000000) translate(-20.813317, -22.220180) "></path>
            <path d="M20.813317,39.0706699 C21.2275306,39.0706699 21.563317,39.4064564 21.563317,39.8206699 L21.563317,43.375817 C21.563317,43.7900306 21.2275306,44.125817 20.813317,44.125817 C20.3991034,44.125817 20.063317,43.7900306 20.063317,43.375817 L20.063317,39.8206699 C20.063317,39.4064564 20.3991034,39.0706699 20.813317,39.0706699 Z M20.813317,0.314542484 C21.2275306,0.314542484 21.563317,0.650328921 21.563317,1.06454248 L21.563317,4.61968954 C21.563317,5.0339031 21.2275306,5.36968954 20.813317,5.36968954 C20.3991034,5.36968954 20.063317,5.0339031 20.063317,4.61968954 L20.063317,1.06454248 C20.063317,0.650328921 20.3991034,0.314542484 20.813317,0.314542484 Z" id="Combined-Shape" fill="#000000" transform="translate(20.813317, 22.220180) rotate(180.000000) translate(-20.813317, -22.220180) "></path>
            <rect id="Combined-Shape" fill="#000000" transform="translate(9.080403, 22.248370) rotate(90.000000) translate(-9.080403, -22.248370) " x="8.33040317" y="15.5081738" width="1.5" height="13.4803922" rx="0.75"></rect>
            <path d="M20.813317,27.2753268 C21.2275306,27.2753268 21.563317,27.6111132 21.563317,28.0253268 L21.563317,40.005719 C21.563317,40.4199325 21.2275306,40.755719 20.813317,40.755719 C20.3991034,40.755719 20.063317,40.4199325 20.063317,40.005719 L20.063317,28.0253268 C20.063317,27.6111132 20.3991034,27.2753268 20.813317,27.2753268 Z M20.813317,3.68464052 C21.2275306,3.68464052 21.563317,4.02042696 21.563317,4.43464052 L21.563317,16.4150327 C21.563317,16.8292462 21.2275306,17.1650327 20.813317,17.1650327 C20.3991034,17.1650327 20.063317,16.8292462 20.063317,16.4150327 L20.063317,4.43464052 C20.063317,4.02042696 20.3991034,3.68464052 20.813317,3.68464052 Z" id="Combined-Shape" fill="#000000" transform="translate(20.813317, 22.220180) rotate(150.000000) translate(-20.813317, -22.220180) "></path>
            <path d="M20.8757463,27.3035169 C21.2899599,27.3035169 21.6257463,27.6393034 21.6257463,28.0535169 L21.6257463,40.0339091 C21.6257463,40.4481226 21.2899599,40.7839091 20.8757463,40.7839091 C20.4615327,40.7839091 20.1257463,40.4481226 20.1257463,40.0339091 L20.1257463,28.0535169 C20.1257463,27.6393034 20.4615327,27.3035169 20.8757463,27.3035169 Z M20.8757463,3.71283065 C21.2899599,3.71283065 21.6257463,4.04861709 21.6257463,4.46283065 L21.6257463,16.4432228 C21.6257463,16.8574364 21.2899599,17.1932228 20.8757463,17.1932228 C20.4615327,17.1932228 20.1257463,16.8574364 20.1257463,16.4432228 L20.1257463,4.46283065 C20.1257463,4.04861709 20.4615327,3.71283065 20.8757463,3.71283065 Z" id="Combined-Shape" fill="#000000" transform="translate(20.875746, 22.248370) rotate(210.000000) translate(-20.875746, -22.248370) "></path>
            <circle id="Oval-" stroke="#000000" stroke-width="1.5" fill="#FFFFFF" transform="translate(20.905842, 22.220180) rotate(60.000000) translate(-20.905842, -22.220180) " cx="20.9058415" cy="22.2201797" r="14.4154412"></circle>
            <circle id="Oval-" fill="#FFC55D" transform="translate(20.905842, 22.220180) rotate(60.000000) translate(-20.905842, -22.220180) " cx="20.9058415" cy="22.2201797" r="11.7953431"></circle>
            <path d="M36.0375301,21.0996048 C36.096047,21.993484 36.096047,22.6106358 36.0375301,22.95106 C35.9790131,23.2914842 34.546137,25.4761864 31.7389015,29.5051668 L23.2111169,37.2094971 C22.990053,37.2466044 22.8114146,37.2720873 22.5698768,37.302109 C22.4088515,37.3221234 22.0854834,37.3455451 21.5997723,37.3723742 C20.8225842,31.4568481 24.189901,27.5607754 29.7384765,26.9754955 L30.0785294,26.9435294 L30.2107988,26.6417522 C31.4532504,23.8912018 33.4587072,22.1186469 35.7386322,21.2128464 L36.0375301,21.0996048 Z" id="形状" fill="#FFFFFF" fill-rule="nonzero"></path>
            <path d="M31.220072,29.2670671 C28.5828057,29.2670671 26.2263352,30.1242234 24.9195635,31.9827937 C23.8402264,33.5178925 23.5118268,35.7026354 24.2241766,38.5329506 L53.892863,38.5329506 C54.3897144,36.9251782 54.1581135,35.4344996 53.3741789,34.3077454 C52.4840279,33.0283258 50.9081743,32.2425609 49.0035923,32.2425609 C48.7356442,32.2425609 48.4742025,32.2581132 48.2202612,32.2884044 C48.2422781,32.0284727 48.2535923,31.7630745 48.2535923,31.4925609 C48.2535923,29.2518655 47.4773235,27.3621394 46.2507328,25.9272062 C44.8831439,24.3273255 42.9618943,23.2914589 40.9493023,22.9547171 C39.0428347,22.6357317 37.0502535,22.9448891 35.3739695,24.0170557 C33.8824673,24.9710341 32.6510285,26.5265352 31.933779,28.74755 C31.8759928,28.9264891 31.8234403,29.1038765 31.7759942,29.2796615 C31.592425,29.2713712 31.4069535,29.2670671 31.220072,29.2670671 Z" id="Path-" stroke="#000000" stroke-width="1.5" fill="#FFFFFF"></path>
        </g>
    </g>
</svg>