<?xml version="1.0" encoding="UTF-8"?>
<svg width="64px" height="65px" viewBox="0 0 64 65" version="1.1" xmlns="http://www.w3.org/2000/svg" xmlns:xlink="http://www.w3.org/1999/xlink">
    <title>thinking</title>
    <g id="thinking" stroke="none" stroke-width="1" fill="none" fill-rule="evenodd" transform="translate(0.000000, 1.000000)">
        <rect id="Rectangle-" x="0" y="0" width="64" height="64"></rect>
        <path d="M32,6.25 C24.8893338,6.25 18.4518338,9.13216692 13.7920004,13.7920004 C9.13216692,18.4518338 6.25,24.8893338 6.25,32 C6.25,39.2115789 9.21452092,45.7307782 13.9919224,50.4054235 C13.9142607,50.677286 13.878278,51.030856 13.878278,51.5368965 C13.878278,53.5294007 13.8979845,54.7593104 14.7185237,56.5325216 C15.22302,57.6221692 16.6458109,59.1923459 17.8204136,59.8863948 C18.3184903,60.1807585 19.3135072,60.6331292 19.9519852,60.4333251 C20.1585006,60.3686594 20.3651613,60.3020965 20.5721803,60.2354094 C21.5206179,59.9298888 22.4761871,59.6168879 23.451198,59.5034637 C25.6627413,59.2461534 27.7053072,58.5968038 29.6329159,57.6427035 C30.412587,57.7136832 31.2020532,57.75 32,57.75 C39.1106662,57.75 45.5481662,54.8678331 50.2079996,50.2079996 C54.8678331,45.5481662 57.75,39.1106662 57.75,32 C57.75,24.8893338 54.8678331,18.4518338 50.2079996,13.7920004 C45.5481662,9.13216692 39.1106662,6.25 32,6.25 Z" id="形状结合" stroke="#FFFFFF" stroke-width="1.5"></path>
        <circle id="Oval-" fill="#FBDC67" cx="32" cy="32" r="25"></circle>
        <path d="M55.672689,23.9412235 C56.5332091,26.4697498 57,29.1803625 57,32 C57,45.8071187 45.8071187,57 32,57 C19.5735931,57 9.26471863,47.9337662 7.32720779,36.0551299 L7.40137137,36.2731744 C10.816298,46.0145228 20.0923762,53 31,53 C44.8071187,53 56,41.8071187 56,28 C56,26.6192881 55.8880712,25.2647186 55.6727922,23.9448701 Z" id="Combined-Shape" fill="#F2CC5B"></path>
        <path d="M18,20 C20.7926457,20.4924188 24.4168281,22.1615677 26.4402274,24.7976334" id="Path-" stroke="#4C4023" stroke-width="3" stroke-linecap="round" transform="translate(22.220114, 22.398817) scale(-1, 1) rotate(-19.000000) translate(-22.220114, -22.398817) "></path>
        <ellipse id="Oval-" fill="#4C4023" transform="translate(25.000000, 26.500000) scale(-1, 1) translate(-25.000000, -26.500000) " cx="25" cy="26.5" rx="3" ry="4.5"></ellipse>
        <path d="M29,33 C31.7926457,33.4924188 37.1447971,35.4901144 38.9527904,39.8373458" id="Path-" stroke="#4C4023" stroke-width="3" stroke-linecap="round" transform="translate(33.976395, 36.418673) rotate(-29.000000) translate(-33.976395, -36.418673) "></path>
        <path d="M37.0814147,13.4032479 C39.9442076,13.4032479 45.3221373,16.8505136 47.2054381,19.7186776" id="Path--" stroke="#4C4023" stroke-width="3" stroke-linecap="round" transform="translate(42.143426, 16.560963) rotate(-16.000000) translate(-42.143426, -16.560963) "></path>
        <ellipse id="Oval-" fill="#4C4023" transform="translate(39.000000, 24.500000) scale(-1, 1) translate(-39.000000, -24.500000) " cx="39" cy="24.5" rx="3" ry="4.5"></ellipse>
        <path d="M27.6991452,42.1946858 C28.5464794,41.2574536 29.1719043,40.2105336 29.3992438,38.945807 C29.6164471,37.7380359 29.2751965,36.6683096 28.4751643,36.1566752 C27.8374313,35.7489363 27.2018703,35.8219407 26.8652051,36.4077863 C25.6921866,38.4486528 23.9459927,39.8650597 21.9786134,41.0863456 C20.8632744,41.7787415 19.7090801,42.4938231 18.8117891,43.4280386 C17.8367876,44.4432228 16.7335154,44.8625458 15.4195561,44.9487031 C14.2611384,45.0246036 14.1271259,45.042679 13.6292737,46.1103265 C12.8414809,47.7997536 12.3551875,48.8475777 12.3498184,50.6782396 C12.3468614,51.7620841 12.9166439,53.5874135 13.6055914,54.5927656 C13.8328468,54.9243898 14.3007177,55.6137476 14.7938899,55.6797533 C16.0370168,55.8459138 17.3162237,55.9560842 18.4950343,56.3474121 C21.4591354,57.3313431 24.4491803,57.4382554 27.4994388,56.9821285 C29.0776622,56.7462215 29.9551636,55.636916 29.8332884,54.0498838 C29.8118094,53.7692089 29.9210144,53.428441 30.0827102,53.1928961 C30.6695211,52.3380804 30.8324236,51.459131 30.4756068,50.4671152 C30.3997063,50.256066 30.4553345,49.9178322 30.5834845,49.7276586 C31.0309233,49.0636198 31.2157874,48.3567437 31.124562,47.5686577 C31.0341813,46.7869671 31.0352673,46.7856398 31.8480904,46.7851571 C33.9899564,46.7838298 36.1320637,46.801568 38.2735676,46.7767103 C39.8189692,46.7588514 40.7847999,45.4101395 40.224898,44.0861647 C39.8256059,43.1419336 39.0244877,42.8730842 38.0753093,42.8738082 C34.7524606,42.8758595 31.4294914,42.8748942 28.1065221,42.8698261 C27.8579449,42.8694641 27.6093678,42.8285575 27.2286587,42.7947703 C27.4393459,42.5244729 27.558687,42.3499862 27.6991452,42.1946858 Z" id="Fill-" fill="#D1AD40" transform="translate(26.367614, 46.570503) rotate(-25.000000) translate(-26.367614, -46.570503) "></path>
    </g>
</svg>