<?xml version="1.0" encoding="UTF-8"?>
<svg width="64px" height="64px" viewBox="0 0 64 64" version="1.1" xmlns="http://www.w3.org/2000/svg" xmlns:xlink="http://www.w3.org/1999/xlink">
    <title>cherry</title>
    <g id="cherry" stroke="none" stroke-width="1" fill="none" fill-rule="evenodd">
        <rect id="Rectangle" x="0" y="0" width="64" height="64"></rect>
        <g id="Group" transform="translate(7.000000, 4.000000)" fill-rule="nonzero">
            <path d="M28.4902638,2.6674965 C26.468837,1.35476656 24.1644019,0.88901343 21.5725609,1.28925109 C21.3014174,1.33112166 21.0361316,1.38107946 20.7766923,1.43910525 C20.8289639,1.69967136 20.8912573,1.96249364 20.9633326,2.22738033 C21.6518941,4.75793628 23.0146789,6.67370359 25.0361057,7.98643352 C26.5663165,8.980164 28.2596199,9.48438198 30.0747966,9.67089495 C29.1090309,15.8437626 25.933516,20.6417266 21.2718276,23.3661618 C18.9983588,20.7404803 15.6405437,19.0789474 11.8947368,19.0789474 C8.47202477,19.0789474 5.37334056,20.4662755 3.13033437,22.7092817 C0.887328177,24.9522879 -0.5,28.0509721 -0.5,31.4736842 C-0.5,34.8963963 0.887328177,37.9950805 3.13033437,40.2380867 C5.37334056,42.4810929 8.47202477,43.8684211 11.8947368,43.8684211 C15.3174489,43.8684211 18.4161331,42.4810929 20.6591393,40.2380867 C22.9021455,37.9950805 24.2894737,34.8963963 24.2894737,31.4736842 C24.2894737,29.7395353 23.9331634,28.0886271 23.2896615,26.589553 C27.7861894,23.9285026 31.1467706,19.6797363 32.8771164,14.2962475 C34.9610406,18.6604683 35.9853384,23.5011228 35.4573781,27.5691307 C32.2926112,27.732205 29.4414886,29.0823381 27.3408607,31.1829659 C25.0978545,33.4259721 23.7105263,36.5246564 23.7105263,39.9473684 C23.7105263,43.3700805 25.0978545,46.4687647 27.3408607,48.7117709 C29.5838669,50.9547771 32.6825511,52.3421053 36.1052632,52.3421053 C39.5279752,52.3421053 42.6266594,50.9547771 44.8696656,48.7117709 C47.1126718,46.4687647 48.5,43.3700805 48.5,39.9473684 C48.5,36.9711788 47.4509311,34.2400568 45.7027956,32.1034499 C44.0677933,30.1051167 41.8209327,28.6273165 39.2487412,27.9552147 C39.9228862,22.4561422 38.3027218,15.9745023 35.1728215,10.4897965 C36.2220504,10.6298348 37.2798831,10.5865465 38.346189,10.3598962 C40.7037939,9.85877178 42.6626127,8.55862732 44.2123103,6.44290817 C44.3744308,6.22157378 44.5266907,5.99866294 44.6691115,5.77418123 C44.4479018,5.62689477 44.2180104,5.48509939 43.9797422,5.3487612 C41.7034825,4.04627439 39.385196,3.65525673 37.0275912,4.15638111 C35.2242197,4.53969954 33.6551378,5.39187549 31.9816582,6.77947525 C31.2130952,5.04818675 30.0475585,3.67881549 28.4902638,2.6674965 Z" id="形状结合" stroke="#FFFFFF" stroke-width="1.5"></path>
            <path d="M26.7631848,11.3795966 C28.3772199,9.57302628 29.1842374,7.55548242 29.1842374,5.32696501 C29.1842374,3.0984476 28.3772199,1.08090374 26.7631848,-0.725666571 C25.1491497,1.08090374 24.3421322,3.0984476 24.3421322,5.32696501 C24.3421322,7.55548242 25.1491497,9.57302628 26.7631848,11.3795966 Z" id="Oval-" fill="#8BCB76" transform="translate(26.763185, 5.326965) rotate(-57.000000) translate(-26.763185, -5.326965) "></path>
            <path d="M37.6868901,13.3107702 C39.3009252,11.5041999 40.1079427,9.48665605 40.1079427,7.25813864 C40.1079427,5.02962122 39.3009252,3.01207736 37.6868901,1.20550706 C36.072855,3.01207736 35.2658375,5.02962122 35.2658375,7.25813864 C35.2658375,9.48665605 36.072855,11.5041999 37.6868901,13.3107702 Z" id="Oval-" fill="#7CB061" transform="translate(37.686890, 7.258139) rotate(78.000000) translate(-37.686890, -7.258139) "></path>
            <circle id="Oval" stroke="#000000" stroke-width="1.5" fill="#F6816C" cx="11.8947368" cy="31.4736842" r="10.8947368"></circle>
            <path d="M10.8301255,23.9912724 C13.2759222,23.9912724 15.0794613,25.1660395 15.0794613,23.9912724 C15.0794613,22.8165053 13.2315914,21.7894737 10.8301255,21.7894737 C8.42865954,21.7894737 6.57267681,22.9945065 6.57267681,24.2105263 C6.57267681,25.4265462 8.38432874,23.9912724 10.8301255,23.9912724 Z" id="Oval-" fill="#FF927E"></path>
            <circle id="Oval" stroke="#000000" stroke-width="1.5" fill="#E06E59" cx="36.1052632" cy="39.9473684" r="10.8947368"></circle>
            <path d="M18.3871299,26.7273335 C25.5350278,24.3996711 30.9398386,18.2235043 32.0699784,9.12623355" id="Path-" stroke="#543D24" stroke-width="2.3" stroke-linecap="round" stroke-linejoin="round"></path>
            <path d="M36.2087017,31.9560033 C39.4058388,24.9659231 36.2087017,15.0736534 32.0699784,9.12623355" id="Path-" stroke="#543D24" stroke-width="2.3" stroke-linecap="round" stroke-linejoin="round"></path>
            <path d="M29.9141186,35.7411318 C31.9096592,36.1202717 33.4240888,36.8081638 33.4364176,35.4758247 C33.4486465,34.1434857 31.1930678,32.6045319 28.7265826,33.274026 C26.2600973,33.9435202 27.918578,35.361992 29.9141186,35.7411318 Z" id="Oval-" fill="#F98772" transform="translate(30.463106, 34.685856) rotate(-52.000000) translate(-30.463106, -34.685856) "></path>
        </g>
    </g>
</svg>