<?xml version="1.0" encoding="UTF-8"?>
<svg width="64px" height="64px" viewBox="0 0 64 64" version="1.1" xmlns="http://www.w3.org/2000/svg" xmlns:xlink="http://www.w3.org/1999/xlink">
    <title>surprise</title>
    <g id="surprise" stroke="none" stroke-width="1" fill="none" fill-rule="evenodd">
        <rect id="Rectangle-" x="0" y="0" width="64" height="64"></rect>
        <circle id="Oval-" stroke="#FFFFFF" stroke-width="1.5" fill="#FBDC67" cx="32" cy="32" r="25.75"></circle>
        <path d="M55.672689,23.9412235 C56.5332091,26.4697498 57,29.1803625 57,32 C57,45.8071187 45.8071187,57 32,57 C19.5735931,57 9.26471863,47.9337662 7.32720779,36.0551299 L7.40137137,36.2731744 C10.816298,46.0145228 20.0923762,53 31,53 C44.8071187,53 56,41.8071187 56,28 C56,26.6192881 55.8880712,25.2647186 55.6727922,23.9448701 Z" id="Combined-Shape" fill="#F2CC5B"></path>
        <g id="Group--Copy-" transform="translate(17.000000, 21.000000)">
            <g id="Group-">
                <circle id="Oval--" fill="#4C4023" cx="14.7058824" cy="21.2941176" r="7.05882353"></circle>
                <path d="M14.7058824,21.2941176 C17.3185439,21.2941176 19.5996831,22.7135339 20.8202213,24.8232879 C19.5995656,26.933598 17.3184767,28.3529412 14.7058824,28.3529412 C12.093288,28.3529412 9.81219908,26.933598 8.59163769,24.8239338 C9.81208163,22.7135339 12.0932208,21.2941176 14.7058824,21.2941176 Z" id="Combined-Shape" fill="#E74643"></path>
                <circle id="Oval-" stroke="#FFFFFF" stroke-width="3.52941176" fill="#4C4023" cx="4.11764706" cy="3.64705882" r="5.29411765"></circle>
                <circle id="Oval--" stroke="#FFFFFF" stroke-width="3.52941176" fill="#4C4023" cx="25.2941176" cy="3.64705882" r="5.29411765"></circle>
            </g>
        </g>
    </g>
</svg>