<?xml version="1.0" encoding="UTF-8"?>
<svg width="64px" height="64px" viewBox="0 0 64 64" version="1.1" xmlns="http://www.w3.org/2000/svg" xmlns:xlink="http://www.w3.org/1999/xlink">
    <title>orange</title>
    <g id="orange" stroke="none" stroke-width="1" fill="none" fill-rule="evenodd">
        <rect id="Rectangle" x="0" y="0" width="64" height="64"></rect>
        <g id="Group" transform="translate(8.000000, 3.000000)" fill-rule="nonzero">
            <path d="M26.6177226,3.16090339 C23.9331522,4.18260232 22.0054802,4.36913676 20.3637692,4.53052786 C18.2137167,4.74189228 16.5164416,4.93028419 14.3859862,6.5356975 C12.3074371,8.10199655 10.8256549,10.5044696 9.98257697,13.7729341 C7.47415038,12.3914208 4.90556515,11.5380685 1.95508675,11.0360144 C1.43785096,10.9480015 0.933907531,11.0779719 0.537269815,11.3592545 C0.1406321,11.6405372 -0.148699907,12.073132 -0.236712864,12.5903678 C-0.324725822,13.1076036 -0.194755371,13.611547 0.0865272668,14.0081847 C0.367809905,14.4048224 0.800404731,14.6941545 1.31764052,14.7821674 C3.70470852,15.1883514 5.78592787,15.8521746 7.81729721,16.9239117 C4.47412997,20.8321933 2.45454545,25.9075109 2.45454545,31.4545455 C2.45454545,37.6300931 4.95768072,43.2210022 9.00470289,47.2680244 C13.0517251,51.3150466 18.6426342,53.8181818 24.8181818,53.8181818 C30.9937295,53.8181818 36.5846386,51.3150466 40.6316607,47.2680244 C44.6786829,43.2210022 47.1818182,37.6300931 47.1818182,31.4545455 C47.1818182,25.2550275 44.6595619,19.6446926 40.5336118,15.593752 C36.6979205,11.8277932 31.4751236,9.4086245 25.6025845,9.12249133 C25.9820651,8.26941333 26.2878825,7.42979628 26.5800473,6.62487099 C26.893359,5.76168545 27.1896595,4.94059639 27.5574696,4.19291695 C27.8746788,3.54809819 28.2676014,2.91208966 28.6856713,2.25216905 C28.0758137,2.56028529 27.3935674,2.8656309 26.6177226,3.16090339 Z" id="wb" stroke="#FFFFFF" stroke-width="1.5"></path>
            <circle id="Oval" stroke="#000000" stroke-width="1.5" fill="#F5A84E" cx="24.8181818" cy="31.4545455" r="20.8636364"></circle>
            <path d="M38.7272727,21.0227273 C39.367421,21.0227273 39.8863636,21.5416699 39.8863636,22.1818182 C39.8863636,22.8219664 39.367421,23.3409091 38.7272727,23.3409091 C38.0871245,23.3409091 37.5681818,22.8219664 37.5681818,22.1818182 C37.5681818,21.5416699 38.0871245,21.0227273 38.7272727,21.0227273 Z M30.6136364,18.7045455 C31.2537846,18.7045455 31.7727273,19.2234881 31.7727273,19.8636364 C31.7727273,20.5037846 31.2537846,21.0227273 30.6136364,21.0227273 C29.9734881,21.0227273 29.4545455,20.5037846 29.4545455,19.8636364 C29.4545455,19.2234881 29.9734881,18.7045455 30.6136364,18.7045455 Z M35.25,17.5454545 C35.8901482,17.5454545 36.4090909,18.0643972 36.4090909,18.7045455 C36.4090909,19.3446937 35.8901482,19.8636364 35.25,19.8636364 C34.6098518,19.8636364 34.0909091,19.3446937 34.0909091,18.7045455 C34.0909091,18.0643972 34.6098518,17.5454545 35.25,17.5454545 Z M25.9772727,16.3863636 C26.617421,16.3863636 27.1363636,16.9053063 27.1363636,17.5454545 C27.1363636,18.1856028 26.617421,18.7045455 25.9772727,18.7045455 C25.3371245,18.7045455 24.8181818,18.1856028 24.8181818,17.5454545 C24.8181818,16.9053063 25.3371245,16.3863636 25.9772727,16.3863636 Z M30.6136364,14.0681818 C31.2537846,14.0681818 31.7727273,14.5871245 31.7727273,15.2272727 C31.7727273,15.867421 31.2537846,16.3863636 30.6136364,16.3863636 C29.9734881,16.3863636 29.4545455,15.867421 29.4545455,15.2272727 C29.4545455,14.5871245 29.9734881,14.0681818 30.6136364,14.0681818 Z" id="Combined-Shape" fill="#EF771D"></path>
            <path d="M14.6172763,19.4685946 C10.0994818,15.4519598 6.33441717,13.7085127 1.63636364,12.9090909" id="Path-" stroke="#543D24" stroke-width="2.3" stroke-linecap="round" stroke-linejoin="round"></path>
            <path d="M12.0681818,22.2553933 C13.8464355,21.8422408 15.9721902,19.9004239 16.3714766,17.5454545" id="Path-" stroke="#543D24" stroke-width="2.3" stroke-linecap="round" stroke-linejoin="round"></path>
            <path d="M18.5532719,20.5716986 C21.644181,18.2307698 23.1896355,15.1398608 23.1896355,11.2989714 C23.1896355,5.53763726 20.0745787,2.71898201 18.5532719,-0.291937735 C16.7501158,5.9291205 13.9169083,6.69672817 13.9169083,11.2989714 C13.9169083,14.3671335 15.4623628,17.4580426 18.5532719,20.5716986 Z" id="Oval-" fill="#7CB061" transform="translate(18.553272, 10.139880) rotate(53.000000) translate(-18.553272, -10.139880) "></path>
            <path d="M10.2271778,16.3825429 C13.7738902,11.5554726 18.2647867,7.79921127 24.2012106,4.6985569 C25.0111721,4.50359433 25.8982583,4.23719835 26.8844923,3.86185555 C26.7243889,4.18731173 26.5771483,4.52614438 26.4361365,4.87602431 C19.9541687,7.98291801 15.1607349,11.7587015 11.4322973,16.704809 C11.032832,16.6292827 10.6294168,16.5336482 10.2220515,16.4179053 C10.2237535,16.4061087 10.2254623,16.3943212 10.2271778,16.3825429 L10.2271778,16.3825429 Z" id="Combined-Shape" fill="#8FD26C"></path>
        </g>
    </g>
</svg>