<?xml version="1.0" encoding="UTF-8"?>
<svg width="64px" height="64px" viewBox="0 0 64 64" version="1.1" xmlns="http://www.w3.org/2000/svg" xmlns:xlink="http://www.w3.org/1999/xlink">
    <title>eiffelTower</title>
    <g id="eiffelTower" stroke="none" stroke-width="1" fill="none" fill-rule="evenodd">
        <rect id="矩形-" x="0" y="0" width="64" height="64"></rect>
        <g id="eiffel-tower" transform="translate(7.500000, 5.000000)" stroke-width="1.5">
            <g id="编组" transform="translate(0.018402, 0.018119)" fill-rule="nonzero" stroke="#FFFFFF">
                <path d="M26.005324,-0.75 L26.0050544,2.96800504 L27.7998859,2.9680171 L27.7991448,6.3566996 C28.2255991,6.46343089 28.579595,6.66307885 28.8700714,6.9306186 C29.3230376,7.34781754 29.6211402,7.930287 29.669745,8.5821121 L29.669745,8.5821121 L29.6767189,11.2200457 C29.6767189,11.4395243 29.6483125,11.6523708 29.5951441,11.8551693 L29.5951441,11.8551693 L29.5941741,15.3791789 C29.5941741,19.6698279 30.0572089,23.9378595 30.9656385,28.0900975 L30.9656385,28.0900975 L32.4775308,28.0903434 C33.1307943,28.0903434 33.7255035,28.3409463 34.1708833,28.7511578 C34.6238495,29.1683567 34.9219521,29.7508262 34.9705569,30.4026513 L34.9705569,30.4026513 L34.9775308,32.1792478 C34.9775308,32.8325113 34.7269279,33.4272206 34.3167164,33.8726003 C33.9286086,34.2939814 33.3974751,34.581343 32.8005332,34.6584991 C33.0378123,35.3525901 33.287287,36.0405739 33.5481977,36.7205621 L33.5481977,36.7205621 L36.1204607,37.0631768 C36.7524559,37.076578 37.3267167,37.3245442 37.7597878,37.723419 C38.212754,38.1406179 38.5108566,38.7230874 38.5594614,39.3749125 L38.5594614,39.3749125 L38.5664353,41.151509 C38.5664353,41.8047725 38.3158324,42.3994818 37.9056208,42.8448615 C37.5838799,43.194186 37.1638461,43.451407 36.6895117,43.5731198 C38.4889722,46.9223297 40.6080101,50.0965336 43.0189548,53.0491405 L43.0189548,53.0491405 L49.6599793,53.2155191 L49.6599793,56.2154623 L-0.75,56.2154623 L-0.75,53.215335 L5.85458304,53.2164563 C8.32706098,50.2110754 10.4934153,46.9776579 12.3220345,43.5734895 C11.915959,43.4694881 11.5497129,43.2660494 11.2507514,42.9906946 C10.7977852,42.5734956 10.4996826,41.9910262 10.4510779,41.3392011 L10.4510779,41.3392011 L10.444104,39.5626045 C10.444104,38.9093411 10.6947069,38.3146318 11.1049184,37.869252 C11.5221173,37.4162858 12.1045868,37.1181832 12.7564119,37.0695785 L12.7564119,37.0695785 L15.3289083,37.0629637 C15.6405194,36.2656666 15.9345171,35.4632343 16.2099706,34.658566 C15.68463,34.5907804 15.2104045,34.3599068 14.8396559,34.0184334 C14.3866897,33.6012345 14.0885871,33.018765 14.0399823,32.3669399 L14.0399823,32.3669399 L14.0330084,30.5903434 C14.0330084,29.9370799 14.2836113,29.3423706 14.6938229,28.8969909 C15.1110218,28.4440246 15.6934913,28.145922 16.3453164,28.0973173 L16.3453164,28.0973173 L18.0440656,28.0909411 C18.8912763,24.2150592 19.3497634,20.2580448 19.4095639,16.2813445 L19.4095639,16.2813445 L19.4163652,15.3793853 L19.4153951,11.8551583 L19.3338203,8.76980417 C19.3338203,8.11654071 19.5844232,7.52183142 19.9946348,7.07645166 C20.3162451,6.72726908 20.7360684,6.4701151 21.210166,6.3483417 L21.210166,6.3483417 L21.2110031,2.9680171 L23.0050544,2.96800504 L23.005324,-0.75 L26.005324,-0.75 Z M24.49275,47.2404361 C22.958403,47.2437854 21.567035,47.8565007 20.5479016,48.8756341 C19.5305649,49.8929708 18.8857382,51.3128229 18.8273301,53.215 L30.1830786,52.9181662 C30.1830786,51.3790227 29.5697982,49.9827947 28.5478579,48.9608544 C27.5306859,47.9436824 26.1111289,47.2988999 24.49275,47.2404361 Z" id="形状结合"></path>
            </g>
            <path d="M34.3931588,42.3706062 L32.6848403,38.5807231 C31.9607788,36.8176738 31.3201593,35.0205298 30.7647764,33.1973664 L29.7894916,29.6084619 C28.6823146,24.9850557 28.112576,20.2162989 28.112576,15.3972974 L28.112576,10.4316682 L20.934767,10.4316682 L20.934767,15.3972974 C20.934767,20.2171961 20.3650284,24.9850557 19.2578514,29.6084619 L18.2825666,33.1973664 C17.7271837,35.0205298 17.085667,36.8176738 16.3625027,38.5807231 L14.7528791,42.1696276 C12.5699279,46.6458887 9.83249104,50.8682348 6.57914914,54.7307932 L17.3458626,54.7307932 L17.3458626,52.936341 C17.3458626,48.972396 20.5597265,45.758532 24.5236715,45.758532 C28.4876165,45.758532 31.7014804,48.972396 31.7014804,52.936341 L31.7014804,54.7307932 L42.4681939,54.7307932 C39.2641994,50.9256572 36.5599599,46.7723975 34.3931588,42.3706062 Z" id="路径" stroke="#000000" fill="#E8D6A8" fill-rule="nonzero"></path>
            <polygon id="路径" stroke="#000000" fill="#E8D6A8" fill-rule="nonzero" points="22.7292193 4.48613059 26.3181237 4.48613059 26.3181237 8.07503506 22.7292193 8.07503506"></polygon>
            <rect id="矩形" stroke="#000000" fill="#D3B66D" fill-rule="nonzero" x="20.8522222" y="7.78792271" width="7.34289855" height="4.45024155" rx="1"></rect>
            <path d="M12.9625058,38.5807231 L36.0848372,38.5807231 C36.6371219,38.5807231 37.0848372,39.0284383 37.0848372,39.5807231 L37.0848372,41.1696276 C37.0848372,41.7219123 36.6371219,42.1696276 36.0848372,42.1696276 L12.9625058,42.1696276 C12.4102211,42.1696276 11.9625058,41.7219123 11.9625058,41.1696276 L11.9625058,39.5807231 C11.9625058,39.0284383 12.4102211,38.5807231 12.9625058,38.5807231 Z" id="路径" stroke="#000000" fill="#D3B66D" fill-rule="nonzero"></path>
            <path d="M16.5514103,29.6084619 L32.4959327,29.6084619 C33.0482174,29.6084619 33.4959327,30.0561771 33.4959327,30.6084619 L33.4959327,32.1973664 C33.4959327,32.7496511 33.0482174,33.1973664 32.4959327,33.1973664 L16.5514103,33.1973664 C15.9991256,33.1973664 15.5514103,32.7496511 15.5514103,32.1973664 L15.5514103,30.6084619 C15.5514103,30.0561771 15.9991256,29.6084619 16.5514103,29.6084619 Z" id="路径" stroke="#000000" fill="#D3B66D" fill-rule="nonzero"></path>
            <line x1="20.7108743" y1="16.7955229" x2="28.9529828" y2="24.9078943" id="路径-" stroke="#000000"></line>
            <line x1="28.4052993" y1="16.875326" x2="20.1631908" y2="24.9876974" id="路径-" stroke="#000000"></line>
            <path d="M22.305095,33.9330918 C22.2284521,35.6276428 21.8070985,37.1768532 21.0410342,38.5807231" id="路径-" stroke="#000000"></path>
            <path d="M27.8678969,33.9330918 C27.791254,35.6276428 27.3699004,37.1768532 26.6038362,38.5807231" id="路径-" stroke="#000000" transform="translate(27.235867, 36.256907) scale(-1, 1) translate(-27.235867, -36.256907) "></path>
            <line x1="0.0184018838" y1="54.7335808" x2="48.9283812" y2="54.7335808" id="路径-" stroke="#000000"></line>
            <line x1="24.5236715" y1="4.48613059" x2="24.5236715" y2="0.0181185318" id="路径-" stroke="#000000"></line>
        </g>
    </g>
</svg>