<?xml version="1.0" encoding="UTF-8"?>
<svg width="64px" height="64px" viewBox="0 0 64 64" version="1.1" xmlns="http://www.w3.org/2000/svg" xmlns:xlink="http://www.w3.org/1999/xlink">
    <title>mouse</title>
    <g id="mouse" stroke="none" stroke-width="1" fill="none" fill-rule="evenodd">
        <rect id="Rectangle" x="0" y="0" width="64" height="64"></rect>
        <g id="Group" transform="translate(8.300000, 1.500000)">
            <path d="M39.3732271,-0.149531781 C38.9590136,-0.149531781 38.5840136,0.0183614383 38.312567,0.289808048 C38.0411204,0.561254657 37.8732271,0.936254657 37.8732271,1.35046822 L37.8681749,5.59905609 C37.8333138,6.0712325 37.6192615,6.49346259 37.2942054,6.79856186 C36.9662935,7.10634167 36.5250921,7.29479255 36.0398938,7.29479255 L27.9069252,7.29980072 C26.6173486,7.35818446 25.4592435,7.92159211 24.6262046,8.79731909 C23.801499,9.66428586 23.2952869,10.8370825 23.2952869,12.1281259 L23.2950623,14.8220629 L22.7351638,14.8240034 C19.0869706,14.9095859 15.7987205,16.4577061 13.4247966,18.9092282 C11.0595771,21.3517614 9.60212795,24.691098 9.60212795,28.3723173 L9.60595071,47.4859028 C9.67900053,50.1282374 10.7927298,52.509711 12.5494274,54.2280583 C14.2993344,55.9397634 16.6869144,56.993697 19.3200783,56.993697 L30.7973692,56.9898387 C33.4243459,56.9161503 35.7899416,55.7934686 37.4965329,54.0227258 C39.1946103,52.260817 40.2401178,49.8573196 40.2401178,47.2090721 L40.2364423,28.0525801 C40.1519161,24.379506 38.6164802,21.0667548 36.1849507,18.6748957 C33.7603788,16.2898807 30.4451465,14.820266 26.2961172,14.8199502 L26.3003316,11.9906319 C26.3351691,11.5184139 26.5492289,11.0961447 26.8743086,10.7910232 C27.2022206,10.4832434 27.6434219,10.2947926 28.1286202,10.2947926 L36.2615888,10.2897844 C37.5511654,10.2314006 38.7092705,9.66799299 39.5423094,8.79226601 C40.367015,7.92529925 40.8732271,6.75250258 40.8732271,5.46145922 L40.8663121,1.2059974 C40.8285089,0.813677521 40.6401736,0.465114786 40.3590073,0.219862264 C40.0953586,-0.0101102562 39.7505918,-0.149531781 39.3732271,-0.149531781 Z M8.98465947,16.1413413 L6.03725955,16.1475669 C5.61996584,16.1831002 5.25224875,16.367363 4.99088949,16.6348366 C4.71842954,16.9136705 4.55892449,17.2813188 4.55892449,17.6808149 C4.55892449,18.1140205 4.74652724,18.5105899 5.06288828,18.795968 C5.34981935,19.0547983 5.74479665,19.2202886 6.18410988,19.2202886 L9.13140043,19.214063 C9.54869422,19.1785298 9.91641139,18.9942669 10.1777707,18.7267933 C10.4502306,18.4479594 10.6097357,18.0803111 10.6097357,17.6808149 C10.6098441,17.2476886 10.4222619,16.8511058 10.1059267,16.5657153 C9.81897968,16.3068383 9.42394518,16.1413413 8.98465947,16.1413413 Z M3.67573499,16.1413413 L0.728335066,16.1475669 C0.311041354,16.1831002 -0.0566757363,16.367363 -0.318034993,16.6348366 C-0.590494946,16.9136705 -0.75,17.2813188 -0.75,17.6808149 C-0.75,18.1140205 -0.562397249,18.5105899 -0.246036201,18.795968 C0.0408948682,19.0547983 0.43587216,19.2202886 0.875185394,19.2202886 L3.82247594,19.214063 C4.23976974,19.1785298 4.60748691,18.9942669 4.86884621,18.7267933 C5.14130616,18.4479594 5.30081122,18.0803111 5.30081122,17.6808149 C5.30091965,17.2476886 5.11333746,16.8511058 4.7970022,16.5657153 C4.5100552,16.3068383 4.11502069,16.1413413 3.67573499,16.1413413 Z M8.5986642,10.8849074 C8.27702719,10.6173594 7.88724931,10.4892613 7.51506648,10.4938585 C7.12560017,10.4986693 6.75453925,10.6456028 6.47354031,10.9266017 C6.16676632,11.2333757 6.01918006,11.6480896 6.04313403,12.0764276 C6.06468108,12.4617257 6.22807295,12.8582789 6.53967604,13.169882 L8.65574599,15.2756256 C8.97742737,15.5432144 9.36718569,15.6712905 9.73933653,15.6666879 C10.1287936,15.6618714 10.499847,15.5149278 10.7808567,15.2339181 C11.0875755,14.9271992 11.2351914,14.5124676 11.2112348,14.0840821 C11.1896876,13.6987817 11.0263091,13.3022259 10.7147209,12.9906378 L8.5986642,10.8849074 Z M13.1769641,9.07852292 C12.7431202,9.07852292 12.345514,9.26741066 12.0595713,9.58722938 C11.8023605,9.87491235 11.6374905,10.2708533 11.6374905,10.7115267 L11.6437165,13.6846054 C11.6791753,14.1032192 11.8627864,14.4717232 12.1285943,14.733761 C12.4080867,15.0092892 12.7767683,15.1699882 13.1769641,15.1699882 C13.6107301,15.1699882 14.0083699,14.9811088 14.2943443,14.6612546 C14.5515566,14.37357 14.7164378,13.9776366 14.7164378,13.5369844 L14.7102118,10.5639231 C14.6747554,10.1453707 14.4911462,9.77683704 14.2253187,9.51477256 C13.9458238,9.23923421 13.5771442,9.07852292 13.1769641,9.07852292 Z M4.85303914,7.13928239 C4.53140213,6.87173433 4.14162425,6.7436362 3.76944142,6.74823349 C3.37997511,6.75304426 3.00891419,6.89997773 2.72791525,7.18097667 C2.42114126,7.48775066 2.273555,7.90246453 2.29750897,8.33080253 C2.31905602,8.71610063 2.48244789,9.11265388 2.79405099,9.42425697 L4.91012093,11.5300005 C5.23180232,11.7975894 5.62156064,11.9256654 5.99371148,11.9210629 C6.38316851,11.9162463 6.7542219,11.7693028 7.03523162,11.488293 C7.34195049,11.1815742 7.48956639,10.7668426 7.46560976,10.338457 C7.44406259,9.95315667 7.28068401,9.55660087 6.96909589,9.24501275 L4.85303914,7.13928239 Z M13.1769641,3.78140917 C12.7431202,3.78140917 12.345514,3.97029691 12.0595713,4.29011563 C11.8023605,4.5777986 11.6374905,4.97373959 11.6374905,5.4144129 L11.6437165,8.38749163 C11.6791753,8.80610544 11.8627864,9.17460947 12.1285943,9.43664725 C12.4080867,9.71217548 12.7767683,9.8728744 13.1769641,9.8728744 C13.6107301,9.8728744 14.0083699,9.68399508 14.2943443,9.36414087 C14.5515566,9.07645621 14.7164378,8.68052281 14.7164378,8.23987066 L14.7102118,5.26680937 C14.6747554,4.84825693 14.4911462,4.47972329 14.2253187,4.21765881 C13.9458238,3.94212046 13.5771442,3.78140917 13.1769641,3.78140917 Z" id="wb" stroke="#FFFFFF" stroke-width="1.5" fill-rule="nonzero"></path>
            <path d="M26.7881377,16.320266 L23.054108,16.320266 C19.7529109,16.320266 16.7639223,17.6697851 14.6004349,19.8525997 C12.4393509,22.0329894 11.1021279,25.0450122 11.1021279,28.3723173 L11.1021279,47.2090328 C11.1021279,49.4959964 12.0214078,51.5661728 13.506767,53.0648013 C14.9945296,54.5658547 17.0500113,55.493697 19.3200783,55.493697 L30.5219491,55.493697 C32.7920114,55.493697 34.8475196,54.5658576 36.3353237,53.0648062 C37.8207232,51.566181 38.7400578,49.4960093 38.7401178,47.2090525 L38.7401178,28.3723173 C38.7401178,25.0450122 37.4028948,22.0329894 35.2418109,19.8525997 C33.0783234,17.6697851 30.0893348,16.320266 26.7881377,16.320266 Z" id="Shape" stroke="#000000" stroke-width="1.5" fill="#ED6969" fill-rule="nonzero"></path>
            <path d="M13.1769641,14.4199882 C13.6129128,14.4199882 13.9664378,14.0248007 13.9664378,13.5369844 L13.9664378,10.7115267 C13.9664378,10.2238205 13.6130112,9.82852292 13.1769641,9.82852292 C12.7409171,9.82852292 12.3874905,10.2237103 12.3874905,10.7115267 L12.3874905,13.5369844 C12.3874905,14.0248007 12.7409171,14.4199882 13.1769641,14.4199882 Z" id="Shape" fill="#000000" fill-rule="nonzero"></path>
            <path d="M13.1769641,9.1228744 C13.6129128,9.1228744 13.9664378,8.727687 13.9664378,8.23987066 L13.9664378,5.4144129 C13.9664378,4.92670671 13.6130112,4.53140917 13.1769641,4.53140917 C12.7409171,4.53140917 12.3874905,4.92659657 12.3874905,5.4144129 L12.3874905,8.23987066 C12.3874905,8.727687 12.7409171,9.1228744 13.1769641,9.1228744 Z" id="Shape-" fill="#000000" fill-rule="nonzero"></path>
            <path d="M6.75438596,11.5602716 C7.19043305,11.5602716 7.54385965,11.9555692 7.54385965,12.4432754 L7.54385965,12.4432754 L7.54385965,15.2687331 C7.54385965,15.7565495 7.19033457,16.1517369 6.75438596,16.1517369 C6.31833888,16.1517369 5.96491228,15.7565495 5.96491228,15.2687331 L5.96491228,15.2687331 L5.96491228,12.4432754 C5.96491228,11.955459 6.31833888,11.5602716 6.75438596,11.5602716 Z M6.75438596,6.26315789 C7.19043305,6.26315789 7.54385965,6.65845544 7.54385965,7.14616163 L7.54385965,7.14616163 L7.54385965,9.97161939 C7.54385965,10.4594357 7.19033457,10.8546231 6.75438596,10.8546231 C6.31833888,10.8546231 5.96491228,10.4594357 5.96491228,9.97161939 L5.96491228,9.97161939 L5.96491228,7.14616163 C5.96491228,6.6583453 6.31833888,6.26315789 6.75438596,6.26315789 Z" id="形状结合" fill="#000000" fill-rule="nonzero" transform="translate(6.754386, 11.207447) rotate(-45.000000) translate(-6.754386, -11.207447) "></path>
            <path d="M8.98465947,16.8913413 L6.18410988,16.8913413 C5.70083113,16.8913413 5.30892449,17.2446694 5.30892449,17.6808149 C5.30892449,18.116862 5.70072196,18.4702886 6.18410988,18.4702886 L8.98455031,18.4702886 C9.46782906,18.4702886 9.8597357,18.1169605 9.8597357,17.6808149 C9.85984487,17.2446694 9.46793823,16.8913413 8.98465947,16.8913413 Z" id="Shape" fill="#000000" fill-rule="nonzero"></path>
            <path d="M3.67573499,16.8913413 L0.875185394,16.8913413 C0.391906644,16.8913413 0,17.2446694 0,17.6808149 C0,18.116862 0.391797478,18.4702886 0.875185394,18.4702886 L3.67562582,18.4702886 C4.15890457,18.4702886 4.55081122,18.1169605 4.55081122,17.6808149 C4.55092038,17.2446694 4.15901374,16.8913413 3.67573499,16.8913413 Z" id="Shape--" fill="#000000" fill-rule="nonzero"></path>
            <path d="M24.7952869,32.5761457 L24.7952869,12.1281259 C24.7952869,10.2871767 26.287671,8.79479255 28.1286202,8.79479255 L36.0398938,8.79479255 C37.880843,8.79479255 39.3732271,7.30240838 39.3732271,5.46145922 L39.3732271,1.35046822 L39.3732271,1.35046822" id="Path-" stroke="#000000" stroke-width="1.5" stroke-linecap="round"></path>
            <path d="M24.7167402,20.0955895 C24.0385518,20.1484723 23.4322419,20.4610271 22.9968999,20.9360637 C22.5671482,21.4050002 22.3039988,22.0320293 22.3039988,22.7212916 L22.3039988,26.4886788 C22.3039988,27.2152332 22.5963457,27.8726425 23.0681019,28.3486131 C23.5301327,28.8147713 24.1615186,29.1244337 25.1251782,29.114381 C25.803381,29.0614976 26.4097312,28.7489304 26.8450854,28.2738804 C27.2748547,27.8049245 27.5379917,27.1778767 27.5379194,26.4886001 L27.5379194,22.7212916 C27.5379194,21.9778696 27.2333685,21.3068755 26.718631,20.8266354 C26.2357854,20.3761499 25.5628032,20.0895187 24.7167402,20.0955895 Z" id="Shape" stroke="#000000" stroke-width="1.5" fill="#FFDC64" fill-rule="nonzero"></path>
            <line x1="11.0526316" y1="33.0580765" x2="38.9321129" y2="33.0580765" id="路径" stroke="#000000" stroke-width="1.5"></line>
        </g>
    </g>
</svg>