<?xml version="1.0" encoding="UTF-8"?>
<svg width="64px" height="64px" viewBox="0 0 64 64" version="1.1" xmlns="http://www.w3.org/2000/svg" xmlns:xlink="http://www.w3.org/1999/xlink">
    <title>bigBen</title>
    <g id="bigBen" stroke="none" stroke-width="1" fill="none" fill-rule="evenodd">
        <rect id="矩形-" x="0" y="0" width="64" height="64"></rect>
        <g id="编组" transform="translate(17.000000, 3.000000)" stroke-width="1.5">
            <path d="M15,-0.960468636 L8.89294426,3.92517595 L8.89218124,7.08205976 L2.46432836,7.08257209 L2.46404265,12.1070333 L-0.75,12.1071762 L-0.75,43.6071929 L1.39204616,43.60705 L1.39290329,57.5357143 L28.6071505,57.5357143 L28.6070077,43.60705 L30.75,43.6071929 L30.75,12.1071762 L27.5351066,12.1070333 L27.5358209,7.08257209 L21.1070302,7.08205977 L21.1071574,3.92525727 L15,-0.960468636 Z" id="wb" stroke="#FFFFFF"></path>
            <path d="M15,0.960468636 L10.3928571,4.64618292 L10.3928571,9.96428571 L19.6071429,9.96428571 L19.6071429,4.64618292 L15,0.960468636 Z" id="矩形" stroke="#000000" fill="#FFC55D"></path>
            <path d="M27.1071429,35.0357143 L2.89285714,35.0357143 L2.89285714,56.0357143 L27.1071429,56.0357143 L27.1071429,35.0357143 Z" id="矩形" stroke="#000000" fill="#FFC55D"></path>
            <path d="M26.0357143,8.58251232 L3.96428571,8.58251232 L3.96428571,16.3928571 L26.0357143,16.3928571 L26.0357143,8.58251232 Z" id="矩形" stroke="#000000" fill="#F9FBB1"></path>
            <rect id="矩形" stroke="#000000" fill="#FFC55D" x="0.75" y="13.6071429" width="28.5" height="28.5"></rect>
            <circle id="椭圆形" stroke="#000000" fill="#FFFFFF" cx="15" cy="26.7857143" r="8.89285714"></circle>
            <line x1="15" y1="27.2863972" x2="15" y2="22.5613646" id="路径-" stroke="#000000" stroke-linecap="round"></line>
            <line x1="15.10254" y1="27.2877523" x2="18.3942072" y2="27.2877523" id="路径-" stroke="#000000" stroke-linecap="round"></line>
            <line x1="11.7923419" y1="56.7857143" x2="11.7923419" y2="47.287246" id="路径-" stroke="#000000"></line>
            <line x1="18.2209133" y1="56.7857143" x2="18.2209133" y2="47.287246" id="路径-" stroke="#000000"></line>
            <line x1="11.7923419" y1="14.1419442" x2="11.7923419" y2="11.0850521" id="路径-" stroke="#000000"></line>
            <line x1="18.2209133" y1="14.1419442" x2="18.2209133" y2="11.0850521" id="路径-" stroke="#000000"></line>
        </g>
    </g>
</svg>