<?xml version="1.0" encoding="UTF-8"?>
<svg width="64px" height="64px" viewBox="0 0 64 64" version="1.1" xmlns="http://www.w3.org/2000/svg" xmlns:xlink="http://www.w3.org/1999/xlink">
    <title>paperboat</title>
    <g id="paperboat" stroke="none" stroke-width="1" fill="none" fill-rule="evenodd">
        <rect id="Rectangle" x="0" y="0" width="64" height="64"></rect>
        <g id="编组" transform="translate(4.830000, 13.000000)">
            <path d="M33.0214932,36.803323 C33.4284055,37.0569447 33.8531943,37.2702219 34.2901633,37.4431507 C34.2774517,37.4821089 34.2662245,37.5218968 34.2565608,37.5624658 C34.1605789,37.9654054 34.2370071,38.3691031 34.4381658,38.6960614 C34.6393244,39.0230197 34.9652134,39.2732386 35.368153,39.3692205 C37.7634489,39.9397902 40.3010947,39.3770103 42.6525798,37.7756536 C44.1202775,38.9870914 45.9195229,39.5907709 47.7169686,39.5859617 C49.7101159,39.5806289 51.7011242,38.8271621 53.235078,37.3249148 C53.5310137,37.035096 53.6814609,36.6527627 53.6854695,36.2689001 C53.6883208,35.9958631 54.1493874,35.5545409 52.584286,35.0497542 L52.7504905,28.6433866 C52.7787885,28.3973433 52.9504016,28.2036636 53.0015383,28.1070329 L54.5954879,25.095017 L51.88427,27.1595297 C50.9610673,27.8625214 49.6260963,28.3151405 48.2785334,28.4323378 L56.2048612,11.8423314 C56.5307001,11.0418418 56.515634,10.1781397 56.219282,9.42248199 C55.9280591,8.67990275 55.3655756,8.04168083 54.5891463,7.67050964 C53.9334534,7.3570563 53.1935503,7.25807149 52.2183112,7.49684941 L40.8293961,11.1189296 L29.5866683,0.292599139 C29.1026072,-0.173533838 28.4775856,-0.406600327 27.8525641,-0.406600327 C27.2275426,-0.406600327 26.6025211,-0.173533838 26.1184599,0.292599139 L14.8631788,11.131018 L3.40366359,7.49619012 C2.68001444,7.32393173 1.91640433,7.40368012 1.24091156,7.72659872 C0.428018875,8.1152012 -0.150405055,8.79650459 -0.428455192,9.58388052 C-0.706505329,10.3712565 -0.684181673,11.2647049 -0.295579189,12.0775976 L7.50198607,28.3900179 C6.79464172,28.6351726 6.02548231,28.7295624 5.26772743,28.6809561 C4.24434918,28.6153113 3.2430214,28.2824189 1.82901055,27.3647789 C1.17911404,27.6049718 1.14573087,27.7156329 1.11090738,27.7650529 C1.06295942,27.8330986 0.904758904,27.9376332 1.01100098,29.657627 L0.6135688,36.1707385 C0.471431602,36.4538434 0.426544241,36.7676445 0.472150313,37.0676909 C0.529836782,37.4472154 0.732306941,37.8047332 1.06588761,38.0502872 C2.61641906,39.1916583 4.47323175,39.691797 6.2908687,39.5677093 C7.89651098,39.4580942 9.47645802,38.8612465 11.1829645,37.7624745 C12.646655,38.9775158 14.4429457,39.5852814 16.2393067,39.5853157 C18.0205122,39.5853497 19.808424,38.9890881 21.6774011,37.7632477 C23.0451318,38.8578158 24.8600514,39.4380839 26.7160256,39.4866254 C28.8015624,39.5411708 30.9242957,38.9241078 32.4900967,37.6703648 C32.7739604,37.4430741 32.9533502,37.1336616 33.0214932,36.803323 Z" id="wb" stroke="#FFFFFF" stroke-width="1.5" fill-rule="nonzero"></path>
            <polygon id="Path-" fill="#E9F4F5" points="8.81410256 30.085176 27.8525641 16.2179487 46.8910256 30.3205128"></polygon>
            <path d="M28.5462058,1.37307946 L46.8910256,19.0384615 L46.8910256,19.0384615 C38.374318,18.0352606 32.0281642,17.5336601 27.8525641,17.5336601 C23.676964,17.5336601 17.3308102,18.0352606 8.81410256,19.0384615 L27.1589224,1.37307946 C27.5461714,1.00017308 28.1589569,1.00017308 28.5462058,1.37307946 Z" id="Triangle-" stroke="#000000" stroke-width="1.5" fill="#E9F4F5"></path>
            <path d="M36.9507728,30.6332298 L27.7572389,11.4018643 C27.3373345,10.523493 27.7089953,9.47103257 28.5873666,9.05112812 C28.9917754,8.85780092 29.4546432,8.82579158 29.8818139,8.96161139 L54.9865073,16.9436999 L54.9865073,16.9436999 L45.3458827,24.2611517" id="路径" stroke="#000000" stroke-width="1.5" fill="#E9F4F5" stroke-linecap="round" transform="translate(41.285474, 19.755984) scale(-1, 1) translate(-41.285474, -19.755984) "></path>
            <path d="M10.2512676,30.6620134 L1.05773376,11.4306478 C0.637829309,10.5522765 1.0094901,9.49981612 1.88786138,9.07991167 C2.29227018,8.88658447 2.75513797,8.85457513 3.18230873,8.99039495 L28.2870021,16.9724834 L18.8321518,24.1489284" id="路径" stroke="#000000" stroke-width="1.5" fill="#E9F4F5" stroke-linecap="round"></path>
            <polygon id="Path-" fill="#2B2B2B" fill-rule="nonzero" points="8.3472097 31.9910951 8.3472097 30.2282746 47.5315922 30.2282746 47.5315922 31.9910951"></polygon>
            <path d="M1.76282051,29.6199242 L11.1368708,29.0956176 L51.8041068,29.0956176 L51.8041068,36.4994638 L42.6333852,35.9615385 L33.8565637,35.9615385 L32.1583,34.9896831 C30.1903006,35.8702214 28.5200126,36.3734816 27.1474359,36.4994638 C25.7748592,36.6254459 23.9156886,36.4461374 21.5699242,35.9615385 L11.1368708,36.4994638 L1.76282051,37.4419361 L1.76282051,29.6199242 Z" id="矩形" fill="#94E8F4" fill-rule="nonzero"></path>
            <path d="M1.76282051,29.3019463 C4.2447518,31.0544584 7.9772031,31.0451689 10.2222436,28.8730829 C10.6567436,28.4526502 11.3375801,28.4526502 11.7720801,28.8729772 C14.2630513,31.2834579 18.2138494,31.2850445 20.7068301,28.8731887 C21.1413301,28.4529675 21.8222724,28.4525445 22.2567724,28.8731887 C24.7479551,31.2834579 28.6986474,31.2849387 31.1916282,28.8730829 C31.6258109,28.4526502 32.3066474,28.4524387 32.7414647,28.8731887 C35.2326474,31.2834579 39.1835513,31.2849387 41.6763205,28.8730829 C42.1108205,28.4526502 42.7916571,28.4525445 43.2261571,28.8730829 C45.5279507,31.0998859 49.5116314,30.9945508 52.0054023,29.0956176" id="路径" stroke="#000000" stroke-width="1.5" stroke-linecap="round" fill-rule="nonzero"></path>
            <path d="M1.95511763,36.8422848 C4.44417416,38.6745193 7.9460873,38.4791197 10.2222436,36.2769291 C10.6567436,35.8564964 11.3375801,35.8564964 11.7720801,36.2768233 C14.2630513,38.6873041 18.2138494,38.6888906 20.7068301,36.2770349 C21.1413301,35.8568137 21.8222724,35.8563906 22.2567724,36.2770349 C24.6004831,38.5446219 29.0543978,38.4997453 31.5525517,36.4994638 M35.7157343,37.9100471 C37.7811916,38.4020477 40.0421018,37.8581022 41.6763205,36.2769291 C42.1108205,35.8564964 42.7916571,35.8563906 43.2261571,36.2769291 C45.722734,38.6921695 49.6935224,38.693756 52.1855513,36.2532368" id="形状" stroke="#000000" stroke-width="1.5" stroke-linecap="round" fill-rule="nonzero"></path>
            <path d="M1.76233493,27.7931952 C4.2603039,29.7758859 7.88174155,29.6272516 10.2150711,27.3697457 C10.6495711,26.949313 11.3304076,26.949313 11.7649076,27.3696399 C14.2558788,29.7801207 18.2066768,29.7817072 20.6996576,27.3698514 C21.1341576,26.9496303 21.8150999,26.9492072 22.2495999,27.3698514 C24.7407826,29.7801207 28.6914749,29.7816014 31.1844557,27.3697457 C31.6186384,26.949313 32.2994749,26.9491014 32.7342922,27.3698514 C35.2254749,29.7801207 39.1763788,29.7816014 41.669148,27.3697457 C42.103648,26.949313 42.7844845,26.9492072 43.2189845,27.3697457 C45.5938673,29.6672566 49.3027451,29.780683 51.8037626,27.6855343" id="路径" stroke="#FFFFFF" stroke-width="1.5" stroke-linecap="round" fill-rule="nonzero"></path>
            <path d="M1.69188942,35.0512487 C4.19196355,37.099396 7.86463215,36.9713894 10.2222436,34.6903906 C10.6567436,34.2699579 11.3375801,34.2699579 11.7720801,34.6902849 C14.2630513,37.1007656 18.2138494,37.1023522 20.7068301,34.6904964 C21.1413301,34.2702752 21.8222724,34.2698522 22.2567724,34.6904964 C24.7479551,37.1007656 28.6986474,37.1022464 31.1916282,34.6903906 C31.6258109,34.2699579 32.3066474,34.2697464 32.7414647,34.6904964 C35.2326474,37.1007656 39.1835513,37.1022464 41.6763205,34.6903906 C42.1108205,34.2699579 42.7916571,34.2698522 43.2261571,34.6903906 C45.722734,37.105631 49.6935224,37.1072175 52.1855513,34.6666983" id="路径" stroke="#FFFFFF" stroke-width="1.5" stroke-linecap="round" fill-rule="nonzero"></path>
        </g>
    </g>
</svg>