<?xml version="1.0" encoding="UTF-8"?>
<svg width="64px" height="64px" viewBox="0 0 64 64" version="1.1" xmlns="http://www.w3.org/2000/svg" xmlns:xlink="http://www.w3.org/1999/xlink">
    <!-- Generator: Sketch 49.1 (51147) - http://www.bohemiancoding.com/sketch -->
    <title>basketball</title>
    <desc>Created with Sketch.</desc>
    <defs>
        <rect id="path-1" x="9.05821087" y="32.6459302" width="40.4210526" height="1.73684211"></rect>
    </defs>
    <g id="basketball" stroke="none" stroke-width="1" fill="none" fill-rule="evenodd">
        <rect id="Rectangle" x="0" y="0" width="64" height="64"></rect>
        <g id="Group" transform="translate(0.000000, 1.000000)">
            <path d="M46.9710856,6.87756007 L46.9827156,6.88919012 C47.678337,7.58481151 47.678337,8.71263663 46.9827156,9.40825803 L43.6216324,12.7693412 C42.926011,13.4649626 41.7981859,13.4649626 41.1025645,12.7693412 L41.0909344,12.7577112 C40.395313,12.0620898 40.395313,10.9342647 41.0909344,10.2386433 L44.4520176,6.87756007 C45.147639,6.18193868 46.2754642,6.18193868 46.9710856,6.87756007 Z M62.601867,9.11052886 L62.6134971,9.1221589 C63.3091185,9.8177803 63.3091185,10.9456054 62.6134971,11.6412268 L52.5535075,21.7012164 C51.8578861,22.3968378 50.730061,22.3968378 50.0344396,21.7012164 L50.0228096,21.6895863 C49.3271882,20.9939649 49.3271882,19.8661398 50.0228096,19.1705184 L60.0827991,9.11052886 C60.7784205,8.41490746 61.9062456,8.41490746 62.601867,9.11052886 Z M53.0107982,10.9820331 C53.1942996,11.5901818 53.045746,12.2771027 52.5651376,12.7577112 L48.0875699,17.2352788 C47.3919486,17.9309002 46.2641234,17.9309002 45.568502,17.2352788 L45.556872,17.2236488 C44.8612506,16.5280274 44.8612506,15.4002023 45.556872,14.7045809 L50.0344396,10.2270132 C50.5150481,9.74640479 51.201969,9.59785123 51.8101177,9.78135256 C51.6266163,9.1732039 51.7751699,8.48628297 52.2557783,8.00567451 L53.3838928,6.87756007 C54.0795142,6.18193868 55.2073393,6.18193868 55.9029607,6.87756007 L55.9145907,6.88919012 C56.6102121,7.58481151 56.6102121,8.71263663 55.9145907,9.40825803 L54.7864763,10.5363725 C54.3058678,11.0169809 53.6189469,11.1655345 53.0107982,10.9820331 Z M29.3245614,55.0175439 C17.4795069,55.0175439 7.87719298,45.4152299 7.87719298,33.5701754 C7.87719298,21.7251209 17.4795069,12.122807 29.3245614,12.122807 C41.1696159,12.122807 50.7719298,21.7251209 50.7719298,33.5701754 C50.7719298,45.4152299 41.1696159,55.0175439 29.3245614,55.0175439 Z" id="Combined-Shape" fill="#FFFFFF" fill-rule="nonzero"></path>
            <circle id="Oval-25" fill="#F89A69" transform="translate(29.324561, 33.681824) rotate(45.000000) translate(-29.324561, -33.681824) " cx="29.3245614" cy="33.6818239" r="16.5789474"></circle>
            <path d="M37.2976669,54.5387702 C40.2288258,51.5484034 42.0361715,47.4523759 42.0361715,42.9342201 C42.0361715,38.4621743 40.2655272,34.4036847 37.3870567,31.4215691 C34.3719966,28.2979458 34.2886655,57.608552 37.2976669,54.5387702 Z" id="Oval-25" fill="#F89A69" transform="translate(38.559523, 42.976311) rotate(45.000000) translate(-38.559523, -42.976311) "></path>
            <path d="M21.585368,12.6831416 C18.5330802,15.6900337 16.6407968,19.8711714 16.6407968,24.4942755 C16.6407968,28.9978556 18.4365003,33.0820268 21.3509687,36.0698503 C24.361952,39.1566179 24.578296,9.73472632 21.585368,12.6831416 Z" id="Oval-25" fill="#F89A69" transform="translate(20.181801, 24.386148) rotate(45.000000) translate(-20.181801, -24.386148) "></path>
            <rect id="Rectangle-2" transform="translate(29.547858, 33.681824) rotate(45.000000) translate(-29.547858, -33.681824) " x="12.337332" y="31.3134028" width="34.4210526" height="4.73684211"></rect>
            <path d="M18.582783,40.2114632 C22.2449904,36.5164665 24.5069809,31.4313799 24.5069809,25.817977 C24.5069809,20.2714687 22.2985812,15.2407599 18.713112,11.5571808" id="Oval-25-Copy" stroke="#FFFFFF" stroke-width="3.56" transform="translate(21.544882, 25.884322) rotate(45.000000) translate(-21.544882, -25.884322) "></path>
            <path d="M18.582783,40.2114632 C22.2449904,36.5164665 24.5069809,31.4313799 24.5069809,25.817977 C24.5069809,20.2714687 22.2985812,15.2407599 18.713112,11.5571808" id="Oval-25-Copy" stroke="#2B2B2B" stroke-width="1.5625" transform="translate(21.544882, 25.884322) rotate(45.000000) translate(-21.544882, -25.884322) "></path>
            <path d="M34.2135645,55.8422447 C37.8757718,52.147248 40.1377624,47.0621613 40.1377624,41.4487585 C40.1377624,35.9022502 37.9293626,30.8715414 34.3438935,27.1879622" id="Oval-25-Copy" stroke="#FFFFFF" stroke-width="3.56" transform="translate(37.175663, 41.515103) scale(-1, 1) rotate(-45.000000) translate(-37.175663, -41.515103) "></path>
            <path d="M34.2135645,55.8422447 C37.8757718,52.147248 40.1377624,47.0621613 40.1377624,41.4487585 C40.1377624,35.9022502 37.9293626,30.8715414 34.3438935,27.1879622" id="Oval-25-Copy" stroke="#2B2B2B" stroke-width="1.5625" transform="translate(37.175663, 41.515103) scale(-1, 1) rotate(-45.000000) translate(-37.175663, -41.515103) "></path>
            <g id="Rectangle" transform="translate(29.268737, 33.514351) rotate(135.000000) translate(-29.268737, -33.514351) ">
                <use fill="#2B2B2B" fill-rule="evenodd" xlink:href="#path-1"></use>
                <rect stroke="#FFFFFF" stroke-width="1" x="8.55821087" y="32.1459302" width="41.4210526" height="2.73684211"></rect>
            </g>
            <path d="M29.3245614,52.4550439 C39.7543862,52.4550439 48.2094298,44.0000003 48.2094298,33.5701754 C48.2094298,23.1403506 39.7543862,14.685307 29.3245614,14.685307 C18.8947366,14.685307 10.439693,23.1403506 10.439693,33.5701754 C10.439693,44.0000003 18.8947366,52.4550439 29.3245614,52.4550439 Z M29.3245614,54.0175439 C18.0317917,54.0175439 8.87719298,44.8629452 8.87719298,33.5701754 C8.87719298,22.2774057 18.0317917,13.122807 29.3245614,13.122807 C40.6173312,13.122807 49.7719298,22.2774057 49.7719298,33.5701754 C49.7719298,44.8629452 40.6173312,54.0175439 29.3245614,54.0175439 Z" id="Oval-25" fill="#2B2B2B" fill-rule="nonzero" transform="translate(29.324561, 33.570175) rotate(45.000000) translate(-29.324561, -33.570175) "></path>
            <rect id="Rectangle" fill="#2B2B2B" transform="translate(29.324561, 33.458527) rotate(45.000000) translate(-29.324561, -33.458527) " x="9.11403509" y="32.6690533" width="40.4210526" height="1.57894737"></rect>
            <path d="M45.5282026,12.5188824 L45.54465,12.5188824 C45.9761224,12.5188824 46.3259,12.86866 46.3259,13.3001324 L46.3259,18.0534219 C46.3259,18.4848944 45.9761224,18.8346719 45.54465,18.8346719 L45.5282026,18.8346719 C45.0967301,18.8346719 44.7469526,18.4848944 44.7469526,18.0534219 L44.7469526,13.3001324 C44.7469526,12.86866 45.0967301,12.5188824 45.5282026,12.5188824 Z M51.8439921,10.9399351 L51.8604394,10.9399351 C52.2919119,10.9399351 52.6416894,11.2897126 52.6416894,11.7211851 L52.6416894,18.0534219 C52.6416894,18.4848944 52.2919119,18.8346719 51.8604394,18.8346719 L51.8439921,18.8346719 C51.4125196,18.8346719 51.0627421,18.4848944 51.0627421,18.0534219 L51.0627421,11.7211851 C51.0627421,11.2897126 51.4125196,10.9399351 51.8439921,10.9399351 Z M51.8439921,6.20309295 L51.8604394,6.20309295 C52.2919119,6.20309295 52.6416894,6.55287049 52.6416894,6.98434295 L52.6416894,8.57973768 C52.6416894,9.01121014 52.2919119,9.36098768 51.8604394,9.36098768 L51.8439921,9.36098768 C51.4125196,9.36098768 51.0627421,9.01121014 51.0627421,8.57973768 L51.0627421,6.98434295 C51.0627421,6.55287049 51.4125196,6.20309295 51.8439921,6.20309295 Z M58.1597815,3.04519821 L58.1762289,3.04519821 C58.6077014,3.04519821 58.9574789,3.39497575 58.9574789,3.82644821 L58.9574789,18.0534219 C58.9574789,18.4848944 58.6077014,18.8346719 58.1762289,18.8346719 L58.1597815,18.8346719 C57.7283091,18.8346719 57.3785315,18.4848944 57.3785315,18.0534219 L57.3785315,3.82644821 C57.3785315,3.39497575 57.7283091,3.04519821 58.1597815,3.04519821 Z" id="Combined-Shape" fill="#2B2B2B" transform="translate(51.852216, 10.939935) rotate(45.000000) translate(-51.852216, -10.939935) "></path>
        </g>
    </g>
</svg>