<?xml version="1.0" encoding="UTF-8"?>
<svg width="64px" height="64px" viewBox="0 0 64 64" version="1.1" xmlns="http://www.w3.org/2000/svg" xmlns:xlink="http://www.w3.org/1999/xlink">
    <title>coffee</title>
    <g id="coffee" stroke="none" stroke-width="1" fill="none" fill-rule="evenodd">
        <rect id="Rectangle" x="0" y="0" width="64" height="64"></rect>
        <g id="编组" transform="translate(11.666667, 4.000000)">
            <path d="M34.1190347,11.2047522 L2.74141859,11.2047522 L2.00618341,12.4578025 C0.886874059,14.4994114 0.261760552,19.0031953 0.070453541,26.3222615 C-0.127806586,33.9073416 2.07485459,43.019405 6.29736325,51.5662442 L6.91659405,52.819638 L29.9451946,52.819638 L30.5644254,51.5662442 L30.955075,50.7618652 C32.6742629,47.1597977 34.0348025,43.4740156 35.0094049,39.8553909 L42.6341168,39.8556911 C43.3014904,39.8556911 43.9056571,39.5851964 44.3429877,39.1478658 C44.7803184,38.7105351 45.050813,38.1063685 45.050813,37.4390244 L45.050813,18.398374 C45.050813,17.7310299 44.7803184,17.1268632 44.3429877,16.6895326 C43.9056571,16.2522019 43.3014904,15.9817073 42.6341463,15.9817073 L35.9533357,15.980226 C35.6454791,14.3294355 35.2476922,13.1165337 34.7720625,12.3108862 L34.1190347,11.2047522 Z M11.3022954,0.175974762 C11.1448513,-0.207149538 10.8470206,-0.490186661 10.4927699,-0.638081682 C10.1385191,-0.785976704 9.72784835,-0.798729625 9.34472405,-0.64128552 C8.96159975,-0.483841415 8.67856263,-0.186010725 8.53066761,0.168240014 C8.38277258,0.522490753 8.37001966,0.933161541 8.52746377,1.31628584 C8.70306527,1.74359433 8.80917487,2.05454033 8.74056186,2.3493379 C8.6667866,2.66631521 8.41418084,2.94041396 8.0168595,3.33646507 C7.46983874,3.92371024 7.11254655,4.57775669 6.97388784,5.34363314 C6.85027674,6.02639464 6.90188428,6.80701459 7.1878319,7.72556057 C7.31095068,8.12105348 7.58271899,8.42920136 7.92258083,8.60769633 C8.26244268,8.78619129 8.67039805,8.83503333 9.06589096,8.71191455 C9.46138387,8.58879577 9.76953175,8.31702746 9.94802672,7.97716562 C10.1265217,7.63730378 10.1753637,7.2293484 10.0522449,6.83385549 C9.933977,6.45394486 9.87563341,6.16247819 9.95844357,5.88479718 C10.0507355,5.57532171 10.2920154,5.29818513 10.6744062,4.91845897 C11.2823863,4.26828503 11.64935,3.56637808 11.7498478,2.74378831 C11.8387228,2.01633301 11.7149694,1.18017515 11.3022954,0.175974762 Z M20.3022954,0.175974762 C20.1448513,-0.207149538 19.8470206,-0.490186661 19.4927699,-0.638081682 C19.1385191,-0.785976704 18.7278483,-0.798729625 18.3447241,-0.64128552 C17.9615998,-0.483841415 17.6785626,-0.186010725 17.5306676,0.168240014 C17.3827726,0.522490753 17.3700197,0.933161541 17.5274638,1.31628584 C17.7030653,1.74359433 17.8091749,2.05454033 17.7405619,2.3493379 C17.6667866,2.66631521 17.4141808,2.94041396 17.0168595,3.33646507 C16.4698387,3.92371024 16.1125466,4.57775669 15.9738878,5.34363314 C15.8502767,6.02639464 15.9018843,6.80701459 16.1878319,7.72556057 C16.3109507,8.12105348 16.582719,8.42920136 16.9225808,8.60769633 C17.2624427,8.78619129 17.6703981,8.83503333 18.065891,8.71191455 C18.4613839,8.58879577 18.7695318,8.31702746 18.9480267,7.97716562 C19.1265217,7.63730378 19.1753637,7.2293484 19.0522449,6.83385549 C18.933977,6.45394486 18.8756334,6.16247819 18.9584436,5.88479718 C19.0507355,5.57532171 19.2920154,5.29818513 19.6744062,4.91845897 C20.2823863,4.26828503 20.64935,3.56637808 20.7498478,2.74378831 C20.8387228,2.01633301 20.7149694,1.18017515 20.3022954,0.175974762 Z M29.3022954,0.175974762 C29.1448513,-0.207149538 28.8470206,-0.490186661 28.4927699,-0.638081682 C28.1385191,-0.785976704 27.7278483,-0.798729625 27.3447241,-0.64128552 C26.9615998,-0.483841415 26.6785626,-0.186010725 26.5306676,0.168240014 C26.3827726,0.522490753 26.3700197,0.933161541 26.5274638,1.31628584 C26.7030653,1.74359433 26.8091749,2.05454033 26.7405619,2.3493379 C26.6667866,2.66631521 26.4141808,2.94041396 26.0168595,3.33646507 C25.4698387,3.92371024 25.1125466,4.57775669 24.9738878,5.34363314 C24.8502767,6.02639464 24.9018843,6.80701459 25.1878319,7.72556057 C25.3109507,8.12105348 25.582719,8.42920136 25.9225808,8.60769633 C26.2624427,8.78619129 26.6703981,8.83503333 27.065891,8.71191455 C27.4613839,8.58879577 27.7695318,8.31702746 27.9480267,7.97716562 C28.1265217,7.63730378 28.1753637,7.2293484 28.0522449,6.83385549 C27.933977,6.45394486 27.8756334,6.16247819 27.9584436,5.88479718 C28.0507355,5.57532171 28.2920154,5.29818513 28.6744062,4.91845897 C29.2823863,4.26828503 29.64935,3.56637808 29.7498478,2.74378831 C29.8387228,2.01633301 29.7149694,1.18017515 29.3022954,0.175974762 Z" id="wb" stroke="#FFFFFF" stroke-width="1.5"></path>
            <rect id="wb" stroke="#FFFFFF" stroke-width="3" x="33.2154472" y="23.3949343" width="4.19163763" height="9.04752971"></rect>
            <path d="M42.6341463,17.4817073 L33.3821138,17.4817073 C33.1289833,17.4817073 32.8998166,17.5843087 32.7339326,17.7501928 C32.5680486,17.9160768 32.4654472,18.1452435 32.4654472,18.398374 L32.4654472,21.1449343 L39.6570848,21.1449343 L39.6570848,34.692464 L32.4654472,34.692464 L32.4654472,37.4390244 C32.4654472,37.6921549 32.5680486,37.9213216 32.7339326,38.0872056 C32.8998166,38.2530896 33.1289833,38.3556911 33.3821138,38.3556911 L42.6341463,38.3556911 C42.8872769,38.3556911 43.1164435,38.2530896 43.2823276,38.0872056 C43.4482116,37.9213216 43.550813,37.6921549 43.550813,37.4390244 L43.550813,18.398374 C43.550813,18.1452435 43.4482116,17.9160768 43.2823276,17.7501928 C43.1164435,17.5843087 42.8872769,17.4817073 42.6341463,17.4817073 Z" id="Combined-Shape" stroke="#000000" stroke-width="1.5" fill="#FFC55D"></path>
            <path d="M33.2190854,12.7047522 L3.64270319,12.7047522 C2.51282834,13.9981464 1.77467201,18.5288261 1.5699414,26.3614554 C1.38135579,33.5764058 3.46788516,42.6068644 7.85047259,51.319638 L29.011316,51.319638 C33.3939035,42.6068644 35.4804328,33.5764058 35.2918472,26.3614554 C35.0871166,18.5288261 34.3489603,13.9981464 33.2190854,12.7047522 Z" id="Combined-Shape" stroke="#000000" stroke-width="1.5" fill="#FFC55D"></path>
            <path d="M33.6879167,38.9856438 L3.17387192,38.9856438 C4.22166081,43.0173706 5.78031083,47.2039664 7.85046992,51.319638 L29.0113187,51.319638 C31.0814778,47.2039664 32.6401278,43.0173706 33.6879167,38.9856438 Z" id="形状结合" stroke="#000000" stroke-width="1.5" fill="#FFF9ED"></path>
            <polygon id="Rectangle-" fill="#000000" points="6.05874146 46.6416298 21.9268293 46.6416298 21.9268293 48.1416298 6.05874146 48.1416298"></polygon>
            <rect id="Rectangle-" fill="#000000" x="5.14634146" y="43.0821324" width="26.5691053" height="1.5"></rect>
            <polygon id="Rectangle-" fill="#000000" points="23.6747967 46.6416298 30.8784522 46.6416298 30.8784522 48.1416298 23.6747967 48.1416298"></polygon>
            <path d="M9.77638323,7.30413236 C8.6998529,5.89055484 9.00097424,4.89227605 9.30752147,4.24428936 C9.64384058,3.53337019 10.3296336,2.44592022 8.75852073,0.721715816" id="Path-" stroke="#000000" stroke-width="1.5" stroke-linecap="round" transform="translate(9.267452, 4.012924) rotate(20.000000) translate(-9.267452, -4.012924) "></path>
            <path d="M18.7763832,7.30413236 C17.6998529,5.89055484 18.0009742,4.89227605 18.3075215,4.24428936 C18.6438406,3.53337019 19.3296336,2.44592022 17.7585207,0.721715816" id="Path-" stroke="#000000" stroke-width="1.5" stroke-linecap="round" transform="translate(18.267452, 4.012924) rotate(20.000000) translate(-18.267452, -4.012924) "></path>
            <path d="M27.7763832,7.30413236 C26.6998529,5.89055484 27.0009742,4.89227605 27.3075215,4.24428936 C27.6438406,3.53337019 28.3296336,2.44592022 26.7585207,0.721715816" id="Path-" stroke="#000000" stroke-width="1.5" stroke-linecap="round" transform="translate(27.267452, 4.012924) rotate(20.000000) translate(-27.267452, -4.012924) "></path>
            <g id="coffee-cup" transform="translate(7.943089, 16.130081)">
                <ellipse id="Oval-" stroke="#000000" stroke-width="1.5" fill="#A17B53" transform="translate(10.462218, 10.470692) rotate(43.000000) translate(-10.462218, -10.470692) " cx="10.462218" cy="10.4706922" rx="5.36788618" ry="6.91876359"></ellipse>
                <path d="M7.64956045,15.747169 C8.80134312,14.5225117 9.78668517,13.1489219 10.5780739,11.6652812 C10.7106352,11.4167572 10.8378531,11.1650499 10.9650711,10.9131152 C11.293291,10.2628145 11.6034345,9.64843942 12.0013458,9.10227774 C13.1476714,7.52848172 14.8293999,6.67367018 16.7722302,6.70925482 C16.5476945,6.16116043 16.2287971,5.65876899 15.8141735,5.22118026 C13.7263898,5.46572517 11.9999815,6.49152489 10.7579298,8.19640426 C10.2863481,8.8436354 9.93323022,9.54327715 9.59170864,10.21984 C9.46983409,10.4612017 9.34784586,10.7029044 9.22074162,10.9411964 C8.49324608,12.3051226 7.58759997,13.5674109 6.52870117,14.6931588 C5.90056977,15.3609677 5.58144491,15.5838014 5.10599775,15.6561076 C5.16,15.7159079 5.21422963,15.7754809 5.27175623,15.8330075 C5.64442858,16.2056799 6.06814727,16.5046818 6.52870117,16.7329692 C7.17013418,16.3533618 7.42502479,15.9858021 7.64956045,15.747169 Z" id="Shape" fill="#000000" fill-rule="nonzero"></path>
            </g>
        </g>
    </g>
</svg>