<?xml version="1.0" encoding="UTF-8"?>
<svg width="64px" height="64px" viewBox="0 0 64 64" version="1.1" xmlns="http://www.w3.org/2000/svg" xmlns:xlink="http://www.w3.org/1999/xlink">
    <title>embarrass</title>
    <g id="embarrass" stroke="none" stroke-width="1" fill="none" fill-rule="evenodd">
        <rect id="Rectangle-" x="0" y="0" width="64" height="64"></rect>
        <circle id="Oval-" stroke="#FFFFFF" stroke-width="1.5" fill="#FBDC67" cx="32" cy="32" r="25.75"></circle>
        <path d="M55.672689,23.9412235 C56.5332091,26.4697498 57,29.1803625 57,32 C57,45.8071187 45.8071187,57 32,57 C19.5735931,57 9.26471863,47.9337662 7.32720779,36.0551299 L7.40137137,36.2731744 C10.816298,46.0145228 20.0923762,53 31,53 C44.8071187,53 56,41.8071187 56,28 C56,26.6192881 55.8880712,25.2647186 55.6727922,23.9448701 Z" id="Combined-Shape" fill="#F2CC5B"></path>
        <circle id="Oval-" fill="#4C4023" cx="21.1176471" cy="24.6470588" r="3.52941176"></circle>
        <path d="M19.3529412,38.7647059 L44.0588235,38.7647059 C45.0334437,38.7647059 45.8235294,39.5547916 45.8235294,40.5294118 C45.8235294,41.5040319 45.0334437,42.2941176 44.0588235,42.2941176 L19.3529412,42.2941176 C18.378321,42.2941176 17.5882353,41.5040319 17.5882353,40.5294118 C17.5882353,39.5547916 18.378321,38.7647059 19.3529412,38.7647059 Z" id="Rectangle-" fill="#4C4023"></path>
        <circle id="Oval--" fill="#4C4023" cx="42.2941176" cy="24.6470588" r="3.52941176"></circle>
    </g>
</svg>