<?xml version="1.0" encoding="UTF-8"?>
<svg width="64px" height="64px" viewBox="0 0 64 64" version="1.1" xmlns="http://www.w3.org/2000/svg" xmlns:xlink="http://www.w3.org/1999/xlink">
    <title>motel</title>
    <g id="motel" stroke="none" stroke-width="1" fill="none" fill-rule="evenodd">
        <rect id="Rectangle" x="0" y="0" width="64" height="64"></rect>
        <g id="Group" transform="translate(8.000000, 6.666667)">
            <path d="M43.7187653,9.09375 L4.71876529,9.09375 L4.71801529,45.88283 L-0.75,45.8834133 L-0.75,48.8833333 L49.1875,48.8833333 L49.1875,45.8834133 L43.7180153,45.88283 L43.7187653,9.09375 Z M34.34375,-0.28125 L14.09375,-0.28125 L14.09375,7.46875 L34.34375,7.46875 L34.34375,-0.28125 Z" id="wb" stroke="#FFFFFF" stroke-width="1.5"></path>
            <path d="M22.7371631,4.14080115 L15.9804046,4.14080115 L15.9804046,12.5658012 L22.7371631,12.5658012 L22.7371631,4.14080115 Z M32.4246631,4.14080115 L25.6679046,4.14080115 L25.6679046,12.5658012 L32.4246631,12.5658012 L32.4246631,4.14080115 Z" id="wb" stroke="#FFFFFF" stroke-width="5.3"></path>
            <rect id="Rectangle-" stroke="#000000" stroke-width="1.5" fill="#FFFAF1" x="6.21875" y="10.59375" width="36" height="36.78125"></rect>
            <rect id="Rectangle-" fill="#000000" x="0" y="46.6333333" width="48.4375" height="1.5"></rect>
            <path d="M14.53125,14.8125 C13.7891174,14.8125 13.1172424,15.1133087 12.6309005,15.5996505 C12.1445587,16.0859924 11.84375,16.7578674 11.84375,17.5 L11.84375,22.6875 L17.21875,22.6875 L17.21875,17.5 C17.21875,16.7578674 16.9179413,16.0859924 16.4315995,15.5996505 C15.9452576,15.1133087 15.2733826,14.8125 14.53125,14.8125 Z" id="Rectangle-" stroke="#000000" stroke-width="1.5" fill="#FFC55D"></path>
            <path d="M14.53125,25.75 C13.7891174,25.75 13.1172424,26.0508087 12.6309005,26.5371505 C12.1445587,27.0234924 11.84375,27.6953674 11.84375,28.4375 L11.84375,33.625 L17.21875,33.625 L17.21875,28.4375 C17.21875,27.6953674 16.9179413,27.0234924 16.4315995,26.5371505 C15.9452576,26.0508087 15.2733826,25.75 14.53125,25.75 Z" id="Rectangle---" stroke="#000000" stroke-width="1.5" fill="#FFC55D"></path>
            <path d="M24.21875,14.8125 C23.4766174,14.8125 22.8047424,15.1133087 22.3184005,15.5996505 C21.8320587,16.0859924 21.53125,16.7578674 21.53125,17.5 L21.53125,22.6875 L26.90625,22.6875 L26.90625,17.5 C26.90625,16.7578674 26.6054413,16.0859924 26.1190995,15.5996505 C25.6327576,15.1133087 24.9608826,14.8125 24.21875,14.8125 Z" id="Rectangle--" stroke="#000000" stroke-width="1.5" fill="#FFC55D"></path>
            <path d="M24.21875,25.75 C23.4766174,25.75 22.8047424,26.0508087 22.3184005,26.5371505 C21.8320587,27.0234924 21.53125,27.6953674 21.53125,28.4375 L21.53125,33.625 L26.90625,33.625 L26.90625,28.4375 C26.90625,27.6953674 26.6054413,27.0234924 26.1190995,26.5371505 C25.6327576,26.0508087 24.9608826,25.75 24.21875,25.75 Z" id="Rectangle---" stroke="#000000" stroke-width="1.5" fill="#FFC55D"></path>
            <path d="M33.75,14.8125 C33.0078674,14.8125 32.3359924,15.1133087 31.8496505,15.5996505 C31.3633087,16.0859924 31.0625,16.7578674 31.0625,17.5 L31.0625,22.6875 L36.59375,22.6875 L36.59375,17.5 C36.59375,16.7547785 36.2895469,16.0804298 35.7822608,15.5951997 C35.2719873,15.107112 34.5596155,14.8125 33.75,14.8125 Z" id="Rectangle---" stroke="#000000" stroke-width="1.5" fill="#FFC55D"></path>
            <path d="M33.75,25.75 C33.0078674,25.75 32.3359924,26.0508087 31.8496505,26.5371505 C31.3633087,27.0234924 31.0625,27.6953674 31.0625,28.4375 L31.0625,33.625 L36.59375,33.625 L36.59375,28.4375 C36.59375,27.6922785 36.2895469,27.0179298 35.7822608,26.5326997 C35.2719873,26.044612 34.5596155,25.75 33.75,25.75 Z" id="Rectangle---" stroke="#000000" stroke-width="1.5" fill="#FFC55D"></path>
            <rect id="Rectangle-" stroke="#000000" stroke-width="1.5" fill="#ED6969" x="16.375" y="37.8135986" width="15.6875" height="9.56140137"></rect>
            <rect id="Rectangle" fill="#000000" x="23.4375" y="37.0635986" width="1.5" height="11.0614014"></rect>
            <rect id="Rectangle-" fill="#000000" x="14.84375" y="0.46875" width="18.75" height="6.25"></rect>
            <rect id="Rectangle-" fill="#000000" x="18.59375" y="6.71875" width="1.5" height="3.125"></rect>
            <rect id="Rectangle-" fill="#000000" x="28.28125" y="6.71875" width="1.5" height="3.125"></rect>
            <path d="M19.709082,5.33333333 L18.7398438,5.33333333 L18.7398438,3.87825521 L17.6192383,3.87825521 L17.6192383,5.33333333 L16.65,5.33333333 L16.65,1.7639974 L17.6192383,1.7639974 L17.6192383,3.08723958 L18.7398438,3.08723958 L18.7398438,1.7639974 L19.709082,1.7639974 L19.709082,5.33333333 Z M23.8204102,3.54378255 C23.8204102,4.14437149 23.6731135,4.6009099 23.3785156,4.91341146 C23.0839178,5.22591302 22.652607,5.38216146 22.0845703,5.38216146 C21.5246717,5.38216146 21.0953954,5.22509923 20.7967285,4.91097005 C20.4980617,4.59684088 20.3487305,4.13948868 20.3487305,3.53889974 C20.3487305,2.94482125 20.4972479,2.49113112 20.7942871,2.17781576 C21.0913264,1.86450039 21.523044,1.70784505 22.0894531,1.70784505 C22.6574898,1.70784505 23.0879868,1.8632797 23.380957,2.17415365 C23.6739272,2.4850276 23.8204102,2.941566 23.8204102,3.54378255 Z M21.3643555,3.54378255 C21.3643555,4.23389017 21.6044247,4.5789388 22.0845703,4.5789388 C22.3287122,4.5789388 22.5097813,4.49511803 22.6277832,4.32747396 C22.7457851,4.15982989 22.8047852,3.89860203 22.8047852,3.54378255 C22.8047852,3.18733546 22.7449713,2.92407312 22.6253418,2.75398763 C22.5057123,2.58390214 22.3270845,2.49886068 22.0894531,2.49886068 C21.6060523,2.49886068 21.3643555,2.84716449 21.3643555,3.54378255 Z M25.8907227,5.33333333 L24.9263672,5.33333333 L24.9263672,2.55257161 L24.0547852,2.55257161 L24.0547852,1.7639974 L26.7598633,1.7639974 L26.7598633,2.55257161 L25.8907227,2.55257161 L25.8907227,5.33333333 Z M29.3892578,5.33333333 L27.2701172,5.33333333 L27.2701172,1.7639974 L29.3892578,1.7639974 L29.3892578,2.53792318 L28.2344727,2.53792318 L28.2344727,3.09944661 L29.3038086,3.09944661 L29.3038086,3.8733724 L28.2344727,3.8733724 L28.2344727,4.54720052 L29.3892578,4.54720052 L29.3892578,5.33333333 Z M30.0142578,5.33333333 L30.0142578,1.7639974 L30.9786133,1.7639974 L30.9786133,4.55452474 L32.353125,4.55452474 L32.353125,5.33333333 L30.0142578,5.33333333 Z" id="HOTEL" fill="#FFEECF"></path>
        </g>
    </g>
</svg>