<?xml version="1.0" encoding="UTF-8"?>
<svg width="64px" height="64px" viewBox="0 0 64 64" version="1.1" xmlns="http://www.w3.org/2000/svg" xmlns:xlink="http://www.w3.org/1999/xlink">
    <title>dna</title>
    <g id="dna" stroke="none" stroke-width="1" fill="none" fill-rule="evenodd">
        <rect id="Rectangle" x="0" y="0" width="64" height="64"></rect>
        <g id="编组" transform="translate(3.513025, 4.456269)">
            <path d="M16.476798,35.0841909 C7.66134811,33.6505619 3.5442116,34.1603131 0.0396044504,37.6649203 C-0.253288768,37.9578135 -0.399735378,38.341697 -0.399735378,38.7255804 C-0.399735378,39.1094639 -0.253288768,39.4933474 0.0396044504,39.7862406 C0.355634351,40.1022705 0.773779729,40.2534246 1.5884496,40.1149734 C4.22957011,43.4451957 12.4999362,52.1192182 15.256319,54.1645226 C15.3047584,54.4880122 15.4581324,54.797866 15.7149093,55.0385798 C16.0186532,55.3221596 16.407158,55.4554973 16.7906991,55.4426159 C17.1743459,55.429731 17.5530131,55.2705756 17.8359132,54.968178 C21.1202582,51.4574758 21.5779193,47.3997392 20.5616053,38.8491416 C29.4978197,40.3915695 33.6150183,39.9669264 36.8320429,36.5202253 C39.9621452,33.1666523 40.4033303,29.2354965 38.9931099,19.8960424 C48.3660346,21.3731516 52.4590552,20.9559825 55.740752,17.620729 C56.0312601,17.3254799 56.1745957,16.9404314 56.1714952,16.5565621 C56.1683947,16.1726983 56.0188606,15.7900144 55.723633,15.4994922 C55.4005927,15.1816778 54.9749921,15.0317816 54.1510655,15.1982865 C51.7349581,12.0348644 42.5254386,2.41025124 39.8747602,0.587387913 C39.8137271,0.284830478 39.6595866,-0.00146057037 39.4142972,-0.22502885 C39.1081633,-0.504053747 38.7179139,-0.632578089 38.3344417,-0.614812725 C37.9509695,-0.597047361 37.5742746,-0.432992291 37.2952497,-0.126858362 C34.2817007,3.17947589 33.9364203,7.18193202 35.3883695,16.2700447 C26.1579386,14.8456086 22.1480975,15.2436675 18.7382023,18.4263388 C15.242648,21.6889611 14.8579081,25.8772686 16.476798,35.0841909 Z" id="形状结合" stroke="#FFFFFF" stroke-width="1.5" fill="#07EBF5"></path>
            <path d="M35.8551999,12.1627521 C38.4445266,8.34415589 46.1838745,0.873400165 48.4109706,2.21299015 C49.4270856,2.8241795 48.8124358,23.6570605 48.0820334,23.8911368 C46.7387619,24.3216229 33.2658732,15.9813482 35.8551999,12.1627521 Z" id="Path-" fill="#07EBF5" transform="translate(42.235792, 12.980722) rotate(-45.000000) translate(-42.235792, -12.980722) "></path>
            <path d="M6.8551999,41.1627521 C9.44452659,37.3441559 17.1838745,29.8734002 19.4109706,31.2129902 C20.4270856,31.8241795 19.8124358,52.6570605 19.0820334,52.8911368 C17.7387619,53.3216229 4.26587321,44.9813482 6.8551999,41.1627521 Z" id="Path-" fill="#FFFFFF" transform="translate(13.235792, 41.980722) scale(-1, -1) rotate(-45.000000) translate(-13.235792, -41.980722) "></path>
            <path d="M15.0114345,25.9236886 C17.3987821,22.4510108 20.8390842,16.5472335 26.9836856,15.9813489 C33.128287,15.4154644 39.6226894,26.4295211 40.8310123,27.5387987 C38.6332142,31.0672554 31.7705884,38.8067838 27.4611107,38.863912 C23.151633,38.9210403 12.6240868,29.3963665 15.0114345,25.9236886 Z" id="Path-" fill="#FFC55D" transform="translate(27.747278, 27.412226) rotate(-45.000000) translate(-27.747278, -27.412226) "></path>
            <path d="M1.22959407,16.4967124 C12.6666785,16.8777054 16.9395318,39.0704469 27.7048622,38.6994017 C38.5633926,38.3251442 43.8219991,16.0171061 54.4787971,16.1033607" id="路径" stroke="#000000" stroke-width="1.5" stroke-linecap="round" transform="translate(27.854196, 27.403557) scale(1, -1) rotate(45.000000) translate(-27.854196, -27.403557) "></path>
            <path d="M1.03779205,16.7418163 C12.7000461,16.7418163 16.9531965,39.3237251 27.8117269,38.9494676 C38.5294378,38.5800637 43.7915289,16.8420895 54.1737514,16.3611056" id="路径" stroke="#000000" stroke-width="1.5" stroke-linecap="round" transform="translate(27.605772, 27.657587) rotate(-45.000000) translate(-27.605772, -27.657587) "></path>
            <line x1="9.21887867" y1="36.0713355" x2="19.3839525" y2="46.2364093" id="Path-" stroke="#000000" stroke-width="1.5"></line>
            <line x1="3.45303948" y1="37.5496984" x2="17.7690567" y2="51.8657156" id="Path-" stroke="#000000" stroke-width="1.5"></line>
            <line x1="43.1071541" y1="2.66415984" x2="43.1071541" y2="21.4424855" id="Path---" stroke="#000000" stroke-width="1.5" transform="translate(43.107154, 12.053323) rotate(-45.000000) translate(-43.107154, -12.053323) "></line>
            <line x1="33.3253721" y1="14.7325827" x2="33.3253721" y2="29.4541468" id="Path--" stroke="#000000" stroke-width="1.5" transform="translate(33.325372, 22.093365) rotate(-45.000000) translate(-33.325372, -22.093365) "></line>
            <line x1="28.0522857" y1="15.8758535" x2="28.0522857" y2="38.3359115" id="Path--" stroke="#000000" stroke-width="1.5" transform="translate(28.052286, 27.105883) rotate(-45.000000) translate(-28.052286, -27.105883) "></line>
            <line x1="22.720571" y1="23.8606536" x2="22.720571" y2="40.2588904" id="Path--" stroke="#000000" stroke-width="1.5" transform="translate(22.720571, 32.059772) rotate(-45.000000) translate(-22.720571, -32.059772) "></line>
        </g>
    </g>
</svg>