<?xml version="1.0" encoding="UTF-8"?>
<svg width="64px" height="64px" viewBox="0 0 64 64" version="1.1" xmlns="http://www.w3.org/2000/svg" xmlns:xlink="http://www.w3.org/1999/xlink">
    <title>fish</title>
    <g id="fish" stroke="none" stroke-width="1" fill="none" fill-rule="evenodd">
        <rect id="矩形-" x="0" y="1.13686838e-13" width="64" height="64"></rect>
        <g id="Group" transform="translate(32.700000, 32.000000) scale(-1, 1) translate(-32.700000, -32.000000) translate(1.700000, 17.000000)" fill-rule="nonzero">
            <path d="M20.1824609,6.79571793 C17.253717,7.52376448 14.5614761,8.51592268 12.0678825,9.70887771 L11.7518632,8.79981059 C11.6418011,8.56397239 11.5501521,8.35459623 11.2043438,7.81360517 C10.7391635,7.08187774 10.2716127,6.35386077 9.62963383,5.67130192 C8.8937446,4.88889662 8.12345455,4.36944041 7.36221919,4.15674204 C6.56198931,3.93314812 5.75708779,4.02105375 4.96815644,4.50624324 C3.90589469,5.15952979 3.34040479,6.31373343 3.0729988,8.03845439 C2.77564234,9.95635044 2.84775724,12.7864627 3.17219137,15.6845285 C3.27646155,16.6159405 2.98116005,17.3876915 2.09241206,18.75661 C1.98153908,18.9149819 1.84547175,19.1073162 1.55211986,19.5228283 C1.18774352,20.0516512 0.961968981,20.447953 0.80011611,20.8771977 C0.476176943,21.7363061 0.501707285,22.5533248 0.811175976,23.2690841 C1.11085532,23.962202 1.68838271,24.5733425 2.54450997,25.0143176 C3.6016582,25.5588347 4.87863568,25.4830711 6.41169513,24.8227315 C7.98577531,24.144723 9.8603496,22.8421297 12.3159029,21.0340497 C13.1361208,21.4591865 13.9991787,21.9035237 14.9734516,22.6610985 C15.415445,24.3623287 15.8815428,25.5542672 16.48921,26.3272298 C17.1859618,27.2135091 18.0593889,27.6345353 19.2963222,27.6345353 C20.2024578,27.6345353 21.2305042,27.3834247 23.1088667,26.64216 C23.3980942,26.5223833 24.0214934,26.2551726 24.7189777,25.9561615 C25.4283926,25.6520358 26.215071,25.3147755 26.8010034,25.0680905 C28.9007759,25.2899881 31.0993317,25.4009434 33.3962264,25.4009434 C33.855905,25.4009434 34.3116398,25.3965001 34.7633501,25.38782 C35.2797347,26.7758166 35.8279958,27.8298421 36.4116043,28.5570651 C37.1891238,29.5259166 38.0446231,29.9590949 38.9650314,29.9590949 C39.6464359,29.9590949 40.3049705,29.7623403 40.9510125,29.3716705 C41.7633358,28.8804483 42.5399408,28.1061823 43.6115017,26.7436629 L45.5712658,24.1660802 C51.468128,22.8513504 56.4319771,20.4869598 60.4553909,17.0743977 L62.478447,15.3584906 L60.4553909,13.6425834 L60.024863,13.284397 C55.1017291,9.26792193 48.823955,6.76972518 41.1991519,5.79017292 L38.7929699,4.13033713 C35.0761689,1.6887159 29.0820587,-0.25 25.0675524,-0.25 C23.9314172,-0.25 22.9718849,0.000799309144 22.2074761,0.462388986 C21.407749,0.945305778 20.8102351,1.65905352 20.4509668,2.59642814 C20.0260168,3.70517431 19.9772549,4.88377218 20.1824609,6.79571793 Z" id="wb" stroke="#FFFFFF" stroke-width="1.5"></path>
            <path d="M4.66287945,15.5176482 C4.88530639,17.5045165 3.83638575,18.8987672 3.08145414,19.9570036 C2.50152084,20.7699336 2.09704108,21.4492573 2.0718499,22.0126661 C2.05569504,22.3739745 2.15111504,22.7127967 2.40019936,23.0326706 C2.57363474,23.2553962 2.83674431,23.4775529 3.23137073,23.6808175 C4.01195026,24.0828794 5.54558599,23.8003655 7.37584156,22.8125174 C9.09832309,21.8828384 11.0667496,20.431115 12.6228853,18.9531025 C14.0215814,17.6246257 15.0744924,16.2629549 15.4132756,15.2246597 C15.6323889,14.5531262 15.5838767,13.9848911 15.3312046,13.540624 C15.096838,13.1285429 14.6696733,12.7773776 13.9269211,12.6083848 C11.5600239,12.0698624 11.2354931,11.3886145 10.7757881,10.260807 C10.3952184,9.327144 9.92031478,8.16974923 8.53699083,6.6989844 C7.6495473,5.75544494 6.93042954,5.51883411 6.39828703,5.56811818 C5.99587248,5.60538756 5.64001311,5.79233533 5.3438127,6.1398443 C5.12372122,6.39806057 4.93386638,6.76160572 4.7904484,7.21818608 C4.20108712,9.09445562 4.36188554,12.8289663 4.66287945,15.5176482 Z" id="Path-" stroke="#000000" stroke-width="1.5" fill="#F9FBB1"></path>
            <path d="M13.7605316,13.3396949 C12.6962784,13.4505058 9.50107362,14.1905449 8.44798423,14.9130445 C5.9574056,16.6217713 6.74726335,19.6000253 4.47955539,19.2202654 C3.37084279,21.0683689 1.90449108,22.1537223 3.57480111,23.0140675 C6.15497738,24.3430677 18.4095864,14.3974595 13.7605316,13.3396949 Z" id="Path-" fill="#FFC55D"></path>
            <path d="M45.8142765,21.4100274 C42.6430953,25.3118924 40.9992232,28.4590949 38.9650314,28.4590949 C37.6089035,28.4590949 36.3267099,26.1094058 35.1184506,21.4100274 C44.363122,18.8087841 47.9283973,18.8087841 45.8142765,21.4100274 Z" id="Path-" stroke="#000000" stroke-width="1.5" fill="#FFC55D"></path>
            <path d="M38.490999,20.7266731 C28.8752234,21.0540751 22.6055056,26.1345353 19.2963222,26.1345353 C15.9871389,26.1345353 16.6051647,19.1112176 14.6369399,17.6360001 C12.668715,16.1607827 48.1067747,20.399271 38.490999,20.7266731 Z" id="Path-" stroke="#000000" stroke-width="1.5" fill="#FFC55D"></path>
            <path d="M33.3962264,6.81603774 C22.2357929,6.81603774 13.5482468,9.49312073 7.30732254,14.7865215 C7.08677229,14.9735869 6.86894704,15.1642 6.65384924,15.3583626 C6.86819463,15.5521227 7.08639138,15.7430712 7.30732254,15.9304596 C13.5482468,21.2238604 22.2357929,23.9009434 33.3962264,23.9009434 C44.5566599,23.9009434 53.244206,21.2238604 59.4851303,15.9304596 C59.7056805,15.7433942 59.9235058,15.5527811 60.1386036,15.3586186 C59.9242582,15.1648585 59.7060615,14.97391 59.4851303,14.7865215 C53.244206,9.49312073 44.5566599,6.81603774 33.3962264,6.81603774 Z" id="Oval" stroke="#000000" stroke-width="1.5" fill="#B5AEFF"></path>
            <path d="M25.0675524,1.25 C24.3046382,1.25 23.7093736,1.38415494 23.2436495,1.6093984 C22.6777346,1.88309826 22.2827079,2.29132732 22.0164209,2.81069341 C21.4983207,3.82119606 21.5300653,5.34728035 21.7310756,7.13748596 C21.7623976,7.41644073 21.7963049,7.68823068 21.8339906,7.95160877 C22.0971897,7.89530362 22.3597093,7.84118798 22.6213215,7.78966305 C25.9235203,7.13928983 29.516024,6.81603774 33.3962264,6.81603774 C34.9111311,6.81603774 36.3822383,6.86532924 37.8102314,6.96439098 C38.6158307,7.02027646 39.4328331,7.09374489 40.2613719,7.18472808 C39.5985555,6.58288673 38.9336606,6.04593918 38.2891203,5.59959881 C34.8913894,3.24669 28.9376969,1.25 25.0675524,1.25 Z" id="形状结合" stroke="#000000" stroke-width="1.5" fill="#FFC55D"></path>
            <path d="M59,15.3584906 C52.8751274,10.163522 44.3405362,7.56603774 33.3962264,7.56603774 C22.4519166,7.56603774 13.9173254,10.163522 7.79245283,15.3584906 L59,15.3584906 Z" id="Oval" fill="#9086F9"></path>
            <path d="M47.5285571,9.37245421 C52.0002733,10.6694132 55.8240876,12.6647586 59,15.3584906 C55.824324,18.052022 52.0008426,20.0472709 47.5295557,21.3442373 C46.2702888,18.7197158 45.6415094,16.7247135 45.6415094,15.3584906 C45.6415094,14.0032814 46.2601919,12.0293897 47.4975568,9.43681564 Z" id="Combined-Shape" fill="#6A60D4"></path>
            <circle id="Oval-" stroke="#FFFFFF" stroke-width="1.5" fill="#414141" cx="50.0943396" cy="15.3584906" r="1.86320755"></circle>
        </g>
    </g>
</svg>