<?xml version="1.0" encoding="UTF-8"?>
<svg width="64px" height="64px" viewBox="0 0 64 64" version="1.1" xmlns="http://www.w3.org/2000/svg" xmlns:xlink="http://www.w3.org/1999/xlink">
    <title>contact</title>
    <g id="contact" stroke="none" stroke-width="1" fill="none" fill-rule="evenodd">
        <rect id="Rectangle" x="0" y="0" width="64" height="64"></rect>
        <g id="编组" transform="translate(12.000000, 8.666667)">
            <path d="M33.833333,-0.416666667 L3.5,-0.416666667 C2.46446609,-0.416666667 1.52696609,0.00306638037 0.848349571,0.681682904 C0.169733047,1.36029943 -0.25,2.29779943 -0.25,3.33333333 L-0.25,42.3333333 C-0.25,43.3688672 0.169733047,44.3063672 0.848349571,44.9849838 C1.52696609,45.6636003 2.46446609,46.0833333 3.5,46.0833333 L33.833333,46.0833333 C34.8688669,46.0833333 35.8063669,45.6636003 36.4849834,44.9849838 C37.1636,44.3063672 37.583333,43.3688672 37.583333,42.3333333 L37.583022,31.7494638 L40.6665362,31.75 C41.7022006,31.75 42.6397006,31.330267 43.3183171,30.6516504 C43.9969336,29.9730339 44.4166667,29.0355339 44.4166667,28 L44.4166667,23.3333333 C44.4166667,22.7345966 44.2762182,22.1687215 44.0264397,21.6673361 C44.2761336,21.1650376 44.4166667,20.5989459 44.4166667,20 L44.4166667,15.3333333 C44.4166667,14.7343549 44.2760806,14.1682581 44.0267854,13.6667797 C44.2762415,13.1646016 44.4166667,12.5987153 44.4166667,12 L44.4166667,7.33333333 C44.4166667,6.29779943 43.9969336,5.36029943 43.3183171,4.6816829 C42.6397006,4.00306638 41.7022006,3.58333333 40.6666667,3.58333333 L37.583333,3.33358308 C37.583333,2.29779943 37.1636,1.36029943 36.4849834,0.681682904 C35.8063669,0.00306638037 34.8688669,-0.416666667 33.833333,-0.416666667 Z" id="形状结合" stroke="#FFFFFF" stroke-width="1.5"></path>
            <rect id="Rectangle" stroke="#000000" stroke-width="1.5" fill="#FFC55D" x="29.75" y="5.08333333" width="13.1666667" height="9.16666667" rx="3"></rect>
            <rect id="Rectangle-" stroke="#000000" stroke-width="1.5" fill="#8BCB76" x="29.75" y="13.0833333" width="13.1666667" height="9.16666667" rx="3"></rect>
            <rect id="Rectangle--" stroke="#000000" stroke-width="1.5" fill="#BDCFD1" x="29.75" y="21.0833333" width="13.1666667" height="9.16666667" rx="3"></rect>
            <rect id="Rectangle-" stroke="#000000" stroke-width="1.5" fill="#FFEECF" x="1.25" y="1.08333333" width="34.833333" height="43.5" rx="3"></rect>
            <g id="编组-" transform="translate(8.666667, 5.333333)">
                <path d="M18.6666667,31.6666667 L18.6666667,33.1666667 L1.33333333,33.1666667 L1.33333333,31.6666667 L18.6666667,31.6666667 Z M20,27.6666667 L20,29.1666667 L0,29.1666667 L0,27.6666667 L20,27.6666667 Z" id="形状结合" fill="#000000"></path>
                <g id="Group" fill="#FFC55D" fill-rule="nonzero" stroke="#000000" stroke-width="1.5">
                    <ellipse id="Oval" cx="9.94526316" cy="6.58424466" rx="5.01526316" ry="4.9771018"></ellipse>
                    <path d="M5.85158365,14.464795 C5.57542315,14.4734009 3.46157051,14.5713445 2.02430171,15.90854 C1.28440311,16.5969214 0.75,17.6290696 0.75,19.1486016 L0.75,22.9894671 L19.1394737,22.9894671 L19.1394737,19.1486016 C19.1394737,17.6389517 18.6045969,16.6108719 17.8651782,15.9229526 C16.42968,14.5874349 14.3199121,14.4754655 14.0357512,14.4649186 L5.85158365,14.464795 Z" id="Shape"></path>
                </g>
            </g>
        </g>
    </g>
</svg>