<?xml version="1.0" encoding="UTF-8"?>
<svg width="64px" height="64px" viewBox="0 0 64 64" version="1.1" xmlns="http://www.w3.org/2000/svg" xmlns:xlink="http://www.w3.org/1999/xlink">
    <title>worried</title>
    <g id="worried" stroke="none" stroke-width="1" fill="none" fill-rule="evenodd">
        <rect id="Rectangle" x="0" y="0" width="64" height="64"></rect>
        <path d="M32,6.25 C24.8973186,6.25 18.4662609,9.1256615 13.80749,13.7770599 C13.3257571,13.0261651 12.837283,12.2865503 12.3560994,11.5784585 C12.1427622,11.2645194 11.9241915,10.9469664 11.7015773,10.6275861 C11.4950855,10.9573023 11.2925642,11.2856128 11.0950917,11.6100958 C9.22816189,14.6777982 7.26471359,18.3035022 6.16378603,21.1183402 C5.99492161,21.5576293 5.85266683,21.9664822 5.64960593,22.6515124 C5.47194096,23.2973804 5.38518188,23.8522162 5.39596809,24.2816673 C5.42902815,25.5968417 5.84046896,26.8438062 6.57480088,27.8991168 C6.36109889,29.2345881 6.25,30.6043221 6.25,32 C6.25,39.1106662 9.13216692,45.5481662 13.7920004,50.2079996 C18.4518338,54.8678331 24.8893338,57.75 32,57.75 C39.1106662,57.75 45.5481662,54.8678331 50.2079996,50.2079996 C54.8678331,45.5481662 57.75,39.1106662 57.75,32 C57.75,24.8893338 54.8678331,18.4518338 50.2079996,13.7920004 C45.5481662,9.13216692 39.1106662,6.25 32,6.25 Z" id="wb" stroke="#FFFFFF" stroke-width="1.5"></path>
        <circle id="Oval-" fill="#FBDC67" cx="32" cy="32" r="25"></circle>
        <path d="M55.672689,23.9412235 C56.5332091,26.4697498 57,29.1803625 57,32 C57,45.8071187 45.8071187,57 32,57 C19.5735931,57 9.26471863,47.9337662 7.32720779,36.0551299 L7.40137137,36.2731744 C10.816298,46.0145228 20.0923762,53 31,53 C44.8071187,53 56,41.8071187 56,28 C56,26.6192881 55.8880712,25.2647186 55.6727922,23.9448701 Z" id="Combined-Shape" fill="#F2CC5B"></path>
        <path d="M32.0299997,45.6032715 C37.8286133,45.5568848 40.3361816,47.8725586 41.1376953,46.9916992 C41.939209,46.1108398 38.6574167,40.8483887 32.0299997,40.8483887 C25.4025827,40.8483887 22.0856934,45.6962891 22.7822266,46.6813965 C23.4787598,47.6665039 26.2313862,45.6496582 32.0299997,45.6032715 Z" id="Oval--" fill="#4C4023"></path>
        <path d="M42,32.5 C46.64653,32.5 49,33.752955 49,32.9587402 C49,32.1645254 46.5387276,29 41.8921976,29 C37.2456676,29 35,32.1328567 35,32.9587402 C35,33.7846238 37.35347,32.5 42,32.5 Z" id="Oval---" fill="#4C4023"></path>
        <path d="M22,32.5 C26.64653,32.5 29,33.752955 29,32.9587402 C29,32.1645254 26.5387276,29 21.8921976,29 C17.2456676,29 15,32.1328567 15,32.9587402 C15,33.7846238 17.35347,32.5 22,32.5 Z" id="Oval---" fill="#4C4023"></path>
        <path d="M13.0558822,29.6290154 C11.4826202,29.5585476 10.0312169,28.8797596 8.96855458,27.7176247 C8.71705068,27.4425667 8.46418414,27.025989 8.21326423,26.5027363 C8.17841965,26.4110503 8.13812452,26.3218949 8.09023756,26.2376061 C7.93411826,25.8895496 7.77897228,25.5025606 7.62557827,25.0805324 C7.61292521,25.0384853 7.59696288,24.9974115 7.58138989,24.9567271 C6.62209329,22.2684385 5.73852038,18.2922631 5.14226927,14.7953467 C10.1906455,16.1293685 16.2208992,18.1760496 17.6705505,19.7615753 C19.8640071,22.1605955 19.6967921,25.8971414 17.2975772,28.090598 C16.135637,29.1530657 14.6299229,29.6998726 13.0558822,29.6290154 Z" id="Path" fill="#69CDFF" transform="translate(12.177269, 22.215239) rotate(41.000000) translate(-12.177269, -22.215239) "></path>
    </g>
</svg>