<?xml version="1.0" encoding="UTF-8"?>
<svg width="64px" height="64px" viewBox="0 0 64 64" version="1.1" xmlns="http://www.w3.org/2000/svg" xmlns:xlink="http://www.w3.org/1999/xlink">
    <title>plane</title>
    <g id="plane" stroke="none" stroke-width="1" fill="none" fill-rule="evenodd">
        <rect id="Rectangle" x="0" y="0" width="64" height="64"></rect>
        <g id="Group-" transform="translate(5.333333, 6.333333)">
            <path d="M9.32721467,1.86527634 C11.1773128,1.80406879 12.9922525,2.48791046 14.3690781,3.874491 L14.3690781,3.874491 L22.4314024,13.0597361 L46.3489498,8.82867406 L50.8965905,13.3763147 L30.4179865,22.1795417 L37.8070899,30.6163868 L46.1931011,29.2434239 L51.2707865,34.3211093 L43.0381688,37.8423986 L41.9587763,39.0416516 L45.0423527,42.1251547 L42.8137056,44.3538019 L39.7572858,41.2974769 L38.6339439,42.4208357 L35.0382889,50.4945038 L29.9883212,45.4264987 L31.3333255,37.1420993 L22.9203686,29.7748957 L14.1251795,50.1896487 L9.53258176,45.6083576 L13.7544428,21.7571144 L4.88005591,13.9761906 C3.43958669,12.7146976 2.64680767,10.9887644 2.52951922,9.21808723 C2.41223078,7.44741004 2.9704329,5.63198882 4.23192599,4.19151961 C5.74218761,2.66845392 7.55363868,1.92395228 9.32721467,1.86527634 Z M33.7793515,39.2845251 L32.9560904,44.3151465 L33.810209,45.169265 L35.6335245,40.9074917 L33.7793515,39.2845251 Z M9.40017453,4.85498519 C8.37297435,4.88896847 7.33138221,5.33032771 6.47539468,6.18368986 C5.79047378,6.97364277 5.47606042,7.95986064 5.51799722,8.92916346 C5.5606905,9.91595098 5.97990664,10.8789721 6.86867247,11.7299352 L35.0085358,35.9313598 L36.8542413,34.0856543 L12.2132764,5.96136629 C11.4411146,5.19827841 10.430669,4.82089292 9.40017453,4.85498519 Z" id="wb" stroke="#FFFFFF" stroke-width="1.5" fill-rule="nonzero"></path>
            <polyline id="Path-" fill="#FFFFFF" transform="translate(14.762300, 34.130323) rotate(-45.000000) translate(-14.762300, -34.130323) " points="24.2916838 25.4906032 4.49800011 39.3330337 4.49800011 42.7700419 25.0265994 34.5846826"></polyline>
            <polygon id="Rectangle-" fill="#BDCFD1" transform="translate(14.271063, 39.979076) rotate(-45.000000) translate(-14.271063, -39.979076) " points="10.9674918 39.0647323 17.5746347 35.9060918 17.5746347 40.893419 10.9674918 44.0520595"></polygon>
            <polygon id="Path-" fill="#FFFFFF" transform="translate(34.819005, 14.073617) rotate(-45.000000) translate(-34.819005, -14.073617) " points="25.2896209 5.43389798 45.0833046 19.2763285 45.0833046 22.7133367 24.5547053 14.5279774"></polygon>
            <polygon id="Rectangle-" fill="#BDCFD1" transform="translate(40.667612, 13.582527) rotate(-45.000000) translate(-40.667612, -13.582527) " points="43.9711834 12.6681837 37.3640405 9.50954311 37.3640405 14.4968703 43.9711834 17.6555108"></polygon>
            <polygon id="Path-" stroke="#000000" stroke-width="1.5" transform="translate(34.819005, 14.073617) rotate(-45.000000) translate(-34.819005, -14.073617) " points="25.2896209 5.43389798 45.0833046 19.2763285 45.0833046 22.7133367 24.5547053 14.5279774"></polygon>
            <polyline id="Path-" stroke="#000000" stroke-width="1.5625" transform="translate(14.762300, 34.130323) rotate(-45.000000) translate(-14.762300, -34.130323) " points="24.2916838 25.4906032 4.49800011 39.3330337 4.49800011 42.7700419 25.0265994 34.5846826"></polyline>
            <polyline id="Path-" stroke="#000000" stroke-width="1.5" fill="#BDCFD1" transform="translate(34.058658, 42.110876) rotate(-45.000000) translate(-34.058658, -42.110876) " points="37.7887258 43.5651885 30.3285905 46.5549873 30.3285905 42.3604658 36.8602416 37.666765"></polyline>
            <polygon id="Path-" stroke="#000000" stroke-width="1.5" fill="#BDCFD1" transform="translate(42.799886, 33.369648) rotate(-45.000000) translate(-42.799886, -33.369648) " points="39.0698188 34.8239602 39.9983031 28.9255366 46.5299542 33.6192375 46.5299542 37.8137589"></polygon>
            <path d="M22.3263703,-2.15315285 C20.8385982,-2.04841293 19.5320555,-1.35352535 18.6205425,-0.312690037 C17.704332,0.733509086 17.1872331,2.12923071 17.2864111,3.62649875 L20.1068909,46.206646 L25.3098883,46.206646 L28.1424159,3.24342978 C28.135917,1.73849025 27.516119,0.378000463 26.4730076,-0.598301794 C25.4390032,-1.56608045 23.993971,-2.15343052 22.3263703,-2.15315285 Z" id="Rectangle-" stroke="#000000" stroke-width="1.5" fill="#FFFFFF" transform="translate(22.708382, 22.020010) rotate(-45.000000) translate(-22.708382, -22.020010) "></path>
            <path d="M21.8253368,0.802925988 C23.5855897,0.802925988 25.0125566,2.22989291 25.0125566,3.99014581 C25.0125566,4.05443777 25.0106113,4.118715 25.0067233,4.18288929 L22.7338189,41.6990089 L22.7338189,41.6990089 L21.0820332,41.6990089 L18.6575469,4.18203809 C18.5444862,2.43251603 19.8711003,0.922594428 21.6206224,0.809533799 C21.6887717,0.805129739 21.7570453,0.802925988 21.8253368,0.802925988 Z" id="Rectangle-" fill="#BDF3FB" transform="translate(21.831691, 21.250967) rotate(-45.000000) translate(-21.831691, -21.250967) "></path>
            <path d="M11.9057442,9.57607883 C11.9057442,7.73979567 10.4266849,6.25119404 8.60217273,6.25119404 C6.77766061,6.25119404 5.29860131,7.73979567 5.29860131,9.57607883" id="Oval" stroke="#000000" stroke-width="1.5" transform="translate(8.602173, 7.913636) rotate(-45.000000) translate(-8.602173, -7.913636) "></path>
            <rect id="Rectangle-" fill="#000000" transform="translate(39.871119, 39.182583) rotate(-45.000000) translate(-39.871119, -39.182583) " x="39.045226" y="34.1952554" width="1.65178571" height="9.97465438"></rect>
        </g>
    </g>
</svg>