<?xml version="1.0" encoding="UTF-8"?>
<svg width="64px" height="64px" viewBox="0 0 64 64" version="1.1" xmlns="http://www.w3.org/2000/svg" xmlns:xlink="http://www.w3.org/1999/xlink">
    <title>twoHeards</title>
    <g id="twoHeards" stroke="none" stroke-width="1" fill="none" fill-rule="evenodd">
        <rect id="Rectangle--" x="0" y="0" width="64" height="64"></rect>
        <path d="M51.3741538,13.25 C50.2371647,13.25 49.1693099,13.5649366 48.2434653,14.1181879 C47.6132727,14.4947681 47.0489341,14.9821555 46.5745076,15.5560173 C46.1000653,14.9821507 45.5357376,14.4947642 44.9055489,14.1181862 C43.9796979,13.5649312 42.9118168,13.25 41.7747824,13.25 C40.0089768,13.25 38.4078403,14.0086769 37.2497932,15.2427751 C36.1084689,16.4590524 35.3989362,18.1383554 35.3989362,19.9953062 C35.3989362,21.6496373 36.0109934,23.1239901 36.893104,24.3337903 C38.2577002,26.2054113 41.8365103,28.9862241 44.2548231,30.8515522 C45.0334534,31.4521366 45.6862439,31.9551549 46.0907229,32.2965452 C46.2271703,32.4117103 46.386496,32.5516421 46.5654857,32.7121189 C46.7487249,32.5547658 46.911402,32.4170735 47.050141,32.3032622 C47.4118117,32.0065741 47.9644402,31.5820786 48.6249206,31.0744355 C51.0397396,29.2184135 54.8378748,26.2786634 56.2558503,24.3337653 C57.1378886,23.1239747 57.75,21.6496274 57.75,19.9953062 C57.75,18.1383302 57.0404717,16.4590348 55.8991567,15.2427674 C54.7411088,14.0086684 53.1399671,13.25 51.3741538,13.25 Z" id="路径" stroke="#FFFFFF" stroke-width="1.5" fill="#ED6969" fill-rule="nonzero"></path>
        <path d="M30.8378265,25.7606383 C27.9241697,25.7606383 25.3239295,27.1730892 23.638645,29.3839028 C21.9531347,27.1732284 19.3527241,25.7606383 16.4387693,25.7606383 C13.897742,25.7606383 11.5956247,26.8340084 9.92984327,28.5743775 C8.27569743,30.30259 7.25,32.6893933 7.25,35.3272651 C7.25,37.6836312 8.14223747,39.7824351 9.42346372,41.505161 C11.4560184,44.238263 16.7920512,48.2937195 20.3935577,51.0172158 C21.5669689,51.9045615 22.5506038,52.6479024 23.1601601,53.1522953 C23.3010158,53.2688499 23.4581436,53.4026387 23.6299669,53.551647 C23.8053466,53.4055066 23.9653194,53.2739229 24.1083292,53.1589084 C24.6529766,52.7208802 25.4851258,52.0940829 26.479758,51.3446014 C30.0767927,48.6341415 35.7406696,44.3458058 37.8531506,41.5051361 C39.1342746,39.7824196 40.0265957,37.6836213 40.0265957,35.3272651 C40.0265957,32.6893576 39.0009056,30.3025648 37.346773,28.5743662 C35.6809903,26.8339958 33.3788649,25.7606383 30.8378265,25.7606383 Z" id="路径" stroke="#FFFFFF" stroke-width="1.5" fill="#ED6969" fill-rule="nonzero"></path>
    </g>
</svg>