<?xml version="1.0" encoding="UTF-8"?>
<svg width="64px" height="64px" viewBox="0 0 64 64" version="1.1" xmlns="http://www.w3.org/2000/svg" xmlns:xlink="http://www.w3.org/1999/xlink">
    <title>keyboard</title>
    <g id="keyboard" stroke="none" stroke-width="1" fill="none" fill-rule="evenodd">
        <rect id="矩形-" x="0" y="1.13686838e-13" width="64" height="64"></rect>
        <rect id="wb" stroke="#FFFFFF" stroke-width="1.5" x="3.25" y="15.25" width="57.5" height="33.5" rx="3"></rect>
        <rect id="矩形" stroke="#000000" stroke-width="1.5" fill="#E9F4F5" x="4.75" y="16.75" width="54.5" height="30.5" rx="3"></rect>
        <rect id="形状结合" fill="#9086F9" x="42" y="28" width="10" height="5"></rect>
        <rect id="矩形" fill="#BEDCDF" x="12" y="35" width="10" height="5"></rect>
        <rect id="矩形" fill="#BEDCDF" x="24" y="35" width="21" height="5"></rect>
        <rect id="矩形" fill="#BEDCDF" x="47" y="35" width="5" height="5"></rect>
        <rect id="矩形-" fill="#BEDCDF" x="35" y="28" width="5" height="5"></rect>
        <rect id="矩形-" fill="#BEDCDF" x="40" y="23" width="5" height="3"></rect>
        <rect id="矩形-" fill="#BEDCDF" x="47" y="23" width="5" height="3"></rect>
        <rect id="矩形-" fill="#BEDCDF" x="28" y="28" width="5" height="5"></rect>
        <rect id="矩形-" fill="#BEDCDF" x="21" y="28" width="5" height="5"></rect>
        <rect id="矩形-" fill="#BEDCDF" x="12" y="28" width="7" height="5"></rect>
        <rect id="矩形-" fill="#BEDCDF" x="33" y="23" width="5" height="3"></rect>
        <rect id="矩形-" fill="#BEDCDF" x="26" y="23" width="5" height="3"></rect>
        <rect id="矩形-" fill="#BEDCDF" x="19" y="23" width="5" height="3"></rect>
        <rect id="矩形-" fill="#BEDCDF" x="12" y="23" width="5" height="3"></rect>
    </g>
</svg>