<?xml version="1.0" encoding="UTF-8"?>
<svg width="64px" height="64px" viewBox="0 0 64 64" version="1.1" xmlns="http://www.w3.org/2000/svg" xmlns:xlink="http://www.w3.org/1999/xlink">
    <title>folder</title>
    <g id="folder" stroke="none" stroke-width="1" fill="none" fill-rule="evenodd">
        <rect id="Rectangle" x="0" y="0" width="64" height="64"></rect>
        <g id="编组" transform="translate(7.666667, 11.000000)">
            <path d="M3.87546875,-0.233671111 C2.64766461,-0.233671111 1.5372978,0.265869404 0.733659933,1.07320308 C-0.0697136943,1.88027129 -0.56640625,2.9950875 -0.56640625,4.22518222 L-0.56640625,38.0948178 C-0.56640625,39.3249125 -0.0697136943,40.4397287 0.733659933,41.2467969 C1.5372978,42.0541306 2.64766461,42.5536711 3.87546875,42.5536711 L44.7911068,42.5536711 C46.0189259,42.5536711 47.1292813,42.0541271 47.9329101,41.2468026 C48.7362928,40.4397253 49.2329818,39.3248976 49.2329818,38.0948178 L49.227869,8.42754207 C49.1714226,7.24084755 48.6527978,6.17460314 47.8480306,5.40796053 C47.051943,4.64958645 45.9762504,4.18412741 44.7911068,4.18412741 L32.5763848,4.18400318 L29.7090217,1.29409969 C28.7385996,0.316160729 27.4204436,-0.233671111 26.0453255,-0.233671111 L3.87546875,-0.233671111 Z" id="Shape" stroke="#FFFFFF" stroke-width="1.5" fill-rule="nonzero"></path>
            <path d="M3.87546875,1.26632889 C3.06244127,1.26632889 2.32610023,1.59797504 1.79319625,2.13500691 C1.2623978,2.66991694 0.93359375,3.40875744 0.93359375,4.22518222 L0.93359375,38.0948178 C0.93359375,38.9112426 1.2623978,39.6500831 1.79319625,40.1849931 C2.32610023,40.722025 3.06244127,41.0536711 3.87546875,41.0536711 L44.7911068,41.0536711 C45.6041669,41.0536711 46.3404838,40.7220164 46.8733687,40.1850038 C47.4041862,39.6500745 47.7329818,38.9112098 47.7329818,38.0948178 L47.7329818,8.64298074 C47.7329818,7.82655596 47.4041777,7.08771546 46.8733793,6.55280543 C46.3404753,6.01577356 45.6041343,5.68412741 44.7911068,5.68412741 L31.9520332,5.68403774 L28.6442472,2.35062953 C27.9549994,1.65604277 27.0199762,1.26632889 26.0453255,1.26632889 L3.87546875,1.26632889 Z" id="Shape" stroke="#000000" stroke-width="1.5" fill="#FFDC64" fill-rule="nonzero"></path>
            <path d="M21.588112,6.43403556 L31.6397656,6.43403556 L28.1119661,2.87890963 C27.5639062,2.32660444 26.8205208,2.01632889 26.0454167,2.01632889 L15.0857682,2.01632889 C15.8608724,2.01632889 16.6042578,2.32660444 17.1523177,2.87890963 L20.0381771,5.78712296 C20.4492448,6.20137481 21.0066927,6.43403556 21.588112,6.43403556 Z" id="Shape" fill="#FFC850" fill-rule="nonzero"></path>
            <path d="M26.0453255,2.01632889 L20.6801172,2.01632889 C21.4552214,2.01632889 22.1986068,2.32660444 22.7466667,2.87890963 L25.632526,5.78703111 C26.0435937,6.20128296 26.6011328,6.43403556 27.1823698,6.43403556 L31.6396745,6.43403556 L28.111875,2.87890963 C27.5638151,2.32660444 26.8204297,2.01632889 26.0453255,2.01632889 Z" id="Shape" fill="#FFAF3C" fill-rule="nonzero"></path>
            <path d="M13.3431496,1.26329398 C16.2315366,1.29401206 17.3694255,2.84194661 18.366333,4.06458984 C19.3632406,5.28723307 20.7505697,5.67695357 22.6666667,5.67695357 C23.9440647,5.67695357 27.4632161,5.67695357 33.2241211,5.67695357" id="Path-" stroke="#000000" stroke-width="1.5"></path>
            <polygon id="Rectangle-" stroke="#000000" stroke-width="1.5" fill="#FFFFFF" points="15.6666667 11.6666667 26.8320313 11.6666667 29.6666667 14.2799479 33 16.922526 33 34.3951823 15.6666667 34.3951823"></polygon>
            <polyline id="Path-" stroke="#000000" stroke-width="1.5" fill="#E9F4F5" points="26.2132161 12.0852865 26.2132161 17.6298828 32.5364583 17.6298828"></polyline>
            <rect id="Rectangle" fill="#BDCFD1" x="18.6666667" y="20.6666667" width="6.66666667" height="1.5"></rect>
            <rect id="Rectangle-" fill="#BDCFD1" x="18.6666667" y="25" width="11" height="1.5"></rect>
        </g>
    </g>
</svg>