<?xml version="1.0" encoding="UTF-8"?>
<svg width="64px" height="64px" viewBox="0 0 64 64" version="1.1" xmlns="http://www.w3.org/2000/svg" xmlns:xlink="http://www.w3.org/1999/xlink">
    <title>bus</title>
    <g id="bus" stroke="none" stroke-width="1" fill="none" fill-rule="evenodd">
        <rect id="矩形" x="0" y="0" width="64" height="64"></rect>
        <g id="编组" transform="translate(3.000000, 15.000000)">
            <path d="M20.2189279,31.5980426 C20.7910579,30.8116409 21.1984085,29.8976483 21.3904507,28.9068676 L35.5115101,28.9068676 C35.7036636,29.8982225 36.1113751,30.8127002 36.6840278,31.5994098 L24.8662891,31.6049054 C24.4737622,31.6425949 24.1250044,31.8309715 23.879646,32.1122591 C23.6496735,32.3759078 23.510252,32.7206745 23.510252,33.0980392 C23.510252,33.5122528 23.6781452,33.8872528 23.9495918,34.1586994 C24.2210384,34.430146 24.5960384,34.5980392 25.010252,34.5980392 L57.1438527,34.5911836 C57.5364246,34.5535188 57.8852246,34.3651333 58.130606,34.0838194 C58.3605785,33.8201707 58.5,33.4754039 58.5,33.0980392 C58.5,32.6838257 58.3321068,32.3088257 58.0606602,32.037379 C57.7892136,31.7659324 57.4142136,31.5980392 57,31.5980392 L47.6695425,31.5985453 C48.2418648,30.8120302 48.6493481,29.897859 48.8414312,28.906867 L53.8039222,28.9068627 C54.2871707,28.9068627 54.7246707,28.7109873 55.0413584,28.3942996 C55.3580461,28.0776119 55.5539216,27.6401119 55.5539216,27.1568627 L55.5539216,10 C55.5539216,8.13603897 54.7984021,6.44853897 53.5768923,5.22702923 C52.3553826,4.00551948 50.6678826,3.25 48.8039216,3.25 L35.75,3 C35.75,1.96446609 35.330267,1.02696609 34.6516504,0.348349571 C33.9730339,-0.330266953 33.0355339,-0.75 32,-0.75 L15,-0.75 C13.9644661,-0.75 13.0269661,-0.330266953 12.3483496,0.348349571 C11.669733,1.02696609 11.25,1.96446609 11.25,3.25 L8.09803922,3.25 C6.23407819,3.25 4.54657819,4.00551948 3.32506844,5.22702923 C2.1035587,6.44853897 1.34803922,8.13603897 1.34803922,10 L1.34803922,27.1568627 C1.34803922,27.6401119 1.54391464,28.0776119 1.86060235,28.3942996 C2.17729006,28.7109873 2.61479006,28.9068627 3.09803922,28.9068627 L8.06052958,28.9068671 C8.25270561,29.8983387 8.66049053,30.8129152 9.23324946,31.5996873 L0.855967637,31.604912 C0.463469009,31.6426171 0.114737928,31.8309881 -0.130605956,32.1122591 C-0.360578476,32.3759078 -0.5,32.7206745 -0.5,33.0980392 C-0.5,33.5122528 -0.332106781,33.8872528 -0.0606601718,34.1586994 C0.210786438,34.430146 0.585786438,34.5980392 1,34.5980392 L20.3596007,34.5911777 C20.7521474,34.553499 21.1009238,34.3651185 21.3462922,34.0838194 C21.5762648,33.8201707 21.7156863,33.4754039 21.7156863,33.0980392 C21.7156863,32.6838257 21.5477931,32.3088257 21.2763464,32.037379 C21.0056081,31.7666407 20.6318561,31.5989161 20.2189279,31.5980426 Z" id="wb" stroke="#FFFFFF" stroke-width="1.5"></path>
            <rect id="矩形" stroke="#000000" stroke-width="1.5" fill="#FFC55D" x="12.75" y="0.75" width="21.5" height="5.5" rx="2.75"></rect>
            <path d="M57,33.0980392 L25.010252,33.0980392 M20.2156863,33.0980392 L1,33.0980392" id="形状" stroke="#000000" stroke-width="1.5" stroke-linecap="round"></path>
            <path d="M48.8039216,4.75 L8.09803922,4.75 C6.64829175,4.75 5.33579175,5.33762627 4.38572861,6.2876894 C3.43566548,7.23775253 2.84803922,8.55025253 2.84803922,10 L3.09803922,27.4068627 L54.0539216,27.1568627 L54.0539216,10 C54.0539216,8.55025253 53.4662953,7.23775253 52.5162322,6.2876894 C51.566169,5.33762627 50.253669,4.75 48.8039216,4.75 Z" id="矩形" stroke="#000000" stroke-width="1.5" fill="#FFC55D"></path>
            <rect id="矩形" fill="#ED6969" x="48.193159" y="20.2874679" width="5.09090909" height="3.05454545"></rect>
            <circle id="椭圆形" stroke="#000000" stroke-width="1.5" fill="#FFFFFF" cx="14.7254902" cy="27.6078431" r="5.28921569"></circle>
            <circle id="椭圆形" fill="#000000" cx="14.7254902" cy="27.6078431" r="1.64705882"></circle>
            <circle id="椭圆形" stroke="#000000" stroke-width="1.5" fill="#FFFFFF" cx="42.1764706" cy="27.6078431" r="5.28921569"></circle>
            <circle id="椭圆形" fill="#000000" cx="42.1764706" cy="27.6078431" r="1.64705882"></circle>
            <path d="M38.2352941,9.49019608 L53.2309437,9.49019608 L53.2309437,9.49019608 L53.2825719,9.87581454 L53.2825719,18.2745098 L38.2352941,18.2745098 C37.6830094,18.2745098 37.2352941,17.8267946 37.2352941,17.2745098 L37.2352941,10.4901961 C37.2352941,9.93791133 37.6830094,9.49019608 38.2352941,9.49019608 Z" id="矩形" fill="#FFFFFF"></path>
            <path d="M37.2352941,15.2 L53.2840681,15.2 L53.2840681,18.2745098 L38.2352941,18.2745098 C37.6830094,18.2745098 37.2352941,17.8267946 37.2352941,17.2745098 L37.2352941,15.2 L37.2352941,15.2 Z" id="矩形" fill="#FFEECF"></path>
            <rect id="矩形" fill="#FFFFFF" x="16.372549" y="9.49019608" width="7.68627451" height="8.78431373" rx="1"></rect>
            <rect id="矩形-" fill="#FFFFFF" x="6.49019608" y="9.49019608" width="7.68627451" height="8.78431373" rx="1"></rect>
            <path d="M27.254902,9.49019608 L34.0392157,9.49019608 C34.5915004,9.49019608 35.0392157,9.93791133 35.0392157,10.4901961 L35.0392157,26.6465597 L35.0392157,26.6465597 L26.254902,26.6465597 L26.254902,10.4901961 C26.254902,9.93791133 26.7026172,9.49019608 27.254902,9.49019608 Z" id="矩形" fill="#FFEECF"></path>
            <line x1="30.6470588" y1="26.8617754" x2="30.6470588" y2="18.2493594" id="路径-" stroke="#000000" stroke-width="1.5"></line>
        </g>
    </g>
</svg>