<?xml version="1.0" encoding="UTF-8"?>
<svg width="64px" height="64px" viewBox="0 0 64 64" version="1.1" xmlns="http://www.w3.org/2000/svg" xmlns:xlink="http://www.w3.org/1999/xlink">
    <title>gamepad</title>
    <g id="gamepad" stroke="none" stroke-width="1" fill="none" fill-rule="evenodd">
        <rect id="矩形-" x="0" y="1.13686838e-13" width="64" height="64"></rect>
        <g id="game-controller" transform="translate(7.500000, 14.000000)" fill-rule="nonzero">
            <path d="M13.7944444,-0.75 L8.57222222,-0.75 C7.99151697,-0.75 7.45657878,-0.481732507 7.07287549,-0.0212885602 C6.73422598,0.385090851 6.51666667,0.944459948 6.51666667,1.56666667 L6.51659413,2.29729688 C4.51462135,3.27200817 2.81230001,4.76910592 1.58497496,6.64700714 C0.321844236,8.57969378 -0.439088569,10.9165206 -0.500001905,13.5036311 L-0.496507349,29.9230192 C-0.433075954,32.4035504 0.49042835,34.6442074 1.94168008,36.2618507 C3.41286389,37.9017114 5.42320034,38.9041667 7.64680714,38.9041667 C9.86205805,38.9041667 11.9851947,37.8890441 13.6162291,35.9348397 L18.3431322,27.6499378 C18.5003358,27.3847901 18.7034535,27.0449837 18.901801,26.7131535 C19.0591171,26.4499677 19.2134521,26.1917515 19.3399717,25.9790187 L29.6064822,25.9794665 C29.9967071,26.7069567 30.4259524,27.491426 30.821712,28.215792 L35.6715487,36.2875767 C37.1920127,37.9669062 39.228481,38.9041667 41.3531929,38.9041667 C43.62227,38.9041667 45.6695096,37.8602472 47.148055,36.1602638 C48.5998607,34.4910249 49.5,32.1866407 49.5,29.6495583 L49.5,13.5125 C49.5,10.9986628 48.755757,8.65870653 47.4760202,6.70061129 C46.2455687,4.81792639 44.5195911,3.28853365 42.4834059,2.29729002 L42.4833333,1.5665922 C42.4833333,0.944459948 42.265774,0.385090851 41.9271245,-0.0212885602 C41.5434212,-0.481732507 41.008483,-0.75 40.4277778,-0.75 L35.2055556,-0.75 C34.6248503,-0.75 34.0899121,-0.481732507 33.7062088,-0.0212885602 C33.3675593,0.385090851 33.15,0.944459948 33.149919,1.6630346 C31.9670078,2.05068557 30.8405855,2.61983779 29.7545422,3.39291585 L19.1208451,3.30196218 C18.1146465,2.59556347 17.0135635,2.04393112 15.8499999,1.56713505 C15.85,0.944459948 15.6324407,0.385090851 15.2937912,-0.0212885602 C14.9100879,-0.481732507 14.3751497,-0.75 13.7944444,-0.75 Z" id="wb" stroke="#FFFFFF" stroke-width="1.5"></path>
            <path d="M15.1,3.13333333 L7.26666667,3.13333333 L7.26666667,1.56666667 C7.26666667,0.701377083 7.85114757,0 8.57222222,0 L13.7944444,0 C14.5155191,0 15.1,0.701377083 15.1,1.56666667 L15.1,3.13333333 Z" id="路径" fill="#000000"></path>
            <path d="M41.7333333,3.13333333 L33.9,3.13333333 L33.9,1.56666667 C33.9,0.701377083 34.4844809,0 35.2055556,0 L40.4277778,0 C41.1488524,0 41.7333333,0.701377083 41.7333333,1.56666667 L41.7333333,3.13333333 Z" id="路径" fill="#000000"></path>
            <path d="M1,13.5125 L1,29.6495583 C1,33.9323354 3.97585536,37.4041667 7.64680714,37.4041667 C9.40964286,37.4041667 11.1003,36.58715 12.3468071,35.1328917 L16.8625,27.2083099 C18.6043676,24.2156467 19.8,22.786775 19.8,19.7743687 L19.8,13.5125 L1,13.5125 Z" id="路径" stroke="#000000" stroke-width="1.5" fill="#413B44"></path>
            <path d="M48,13.5125 L48,29.6495583 C48,33.9323354 45.0241446,37.4041667 41.3531929,37.4041667 C39.5903571,37.4041667 37.8997,36.58715 36.6531929,35.1328917 L32.1375,27.4958727 C30.5262533,24.4065769 29.2,22.786775 29.2,19.7743687 L29.2,13.5125 L48,13.5125 Z" id="路径" stroke="#000000" stroke-width="1.5" fill="#413B44"></path>
            <path d="M37.0333333,2.54583333 C34.4718333,2.54583333 32.1156646,3.42414583 30.2490792,4.89583333 L18.7509208,4.89583333 C16.8843354,3.42414583 14.5281667,2.54583333 11.9666667,2.54583333 C5.90993333,2.54583333 1,7.45576667 1,13.5125 C1,19.5692333 5.90993333,24.4791667 11.9666667,24.4791667 C12.7671028,24.4791667 13.9128257,24.4791667 15.4038354,24.4791667 L33.5961646,24.4791667 C35.0871743,24.4791667 36.2328972,24.4791667 37.0333333,24.4791667 C43.0900667,24.4791667 48,19.5692333 48,13.5125 C48,7.45576667 43.0900667,2.54583333 37.0333333,2.54583333 Z" id="路径" stroke="#000000" stroke-width="1.5" fill="#6A6C75"></path>
            <path d="M28.1352398,11.3583333 L20.8761534,11.3583333 C19.578268,11.3583333 18.5261534,10.3062187 18.5261534,9.00833333 L18.5261534,5.63448435 L30.4852398,5.63448435 L30.4852398,9.00833333 C30.4852398,10.3062188 29.4331253,11.3583333 28.1352398,11.3583333 Z" id="路径" fill="#413B44"></path>
            <g id="编组-" transform="translate(32.137500, 7.637500)">
                <circle id="椭圆形" fill="#ED6969" cx="9.69375" cy="5.875" r="2.05625"></circle>
                <circle id="椭圆形" fill="#ED6969" cx="2.05625" cy="5.875" r="2.05625"></circle>
                <path d="M5.875,7.6375 C7.01063552,7.6375 7.93125,8.55811448 7.93125,9.69375 C7.93125,10.8293855 7.01063552,11.75 5.875,11.75 C4.73936448,11.75 3.81875,10.8293855 3.81875,9.69375 C3.81875,8.55811448 4.73936448,7.6375 5.875,7.6375 Z M5.875,1.56115861e-13 C7.01063552,1.56115861e-13 7.93125,0.920614483 7.93125,2.05625 C7.93125,3.19188552 7.01063552,4.1125 5.875,4.1125 C4.73936448,4.1125 3.81875,3.19188552 3.81875,2.05625 C3.81875,0.920614483 4.73936448,1.56115861e-13 5.875,1.56115861e-13 Z" id="形状结合" fill="#07EBF5"></path>
            </g>
            <g id="编组-" transform="translate(18.690310, 16.319477)" fill="#413B44">
                <path d="M9.1761625,4.00610761e-13 C10.5358195,4.00610761e-13 11.6380393,1.10221978 11.6380393,2.46187679 C11.6380393,3.82153379 10.5358195,4.92375357 9.1761625,4.92375357 C7.8165055,4.92375357 6.71428571,3.82153379 6.71428571,2.46187679 C6.71428571,1.10221978 7.8165055,4.00610761e-13 9.1761625,4.00610761e-13 Z M2.46187679,4.00610761e-13 C3.82153379,4.00610761e-13 4.92375357,1.10221978 4.92375357,2.46187679 C4.92375357,3.82153379 3.82153379,4.92375357 2.46187679,4.92375357 C1.10221978,4.92375357 -3.04624051e-14,3.82153379 -3.04624051e-14,2.46187679 C-3.04624051e-14,1.10221978 1.10221978,4.00610761e-13 2.46187679,4.00610761e-13 Z" id="形状结合"></path>
            </g>
            <g id="编组" transform="translate(5.112500, 7.637500)" fill="#413B44">
                <path d="M6.04934063,7.05 C6.18953281,7.05 6.32517188,7.10015781 6.43165625,7.19144063 L6.43165625,7.19144063 L7.43231563,8.04911719 C7.56252031,8.16074219 7.6375,8.3237 7.6375,8.49517656 L7.6375,8.49517656 L7.6375,11.1625 C7.6375,11.4869469 7.37444688,11.75 7.05,11.75 L7.05,11.75 L4.7,11.75 C4.37555313,11.75 4.1125,11.4869469 4.1125,11.1625 L4.1125,11.1625 L4.1125,8.49517656 C4.1125,8.3237 4.18747969,8.16074219 4.31768438,8.04911719 L4.31768438,8.04911719 L5.31834375,7.19144063 C5.42482813,7.10015781 5.56039375,7.05 5.70065938,7.05 L5.70065938,7.05 Z M3.25482344,4.1125 C3.4263,4.1125 3.58925781,4.18747969 3.70088281,4.31768438 L4.55855938,5.31834375 C4.64984219,5.42482813 4.7,5.56046719 4.7,5.70065938 L4.7,6.04934063 C4.7,6.18960625 4.64984219,6.32517188 4.55855938,6.43165625 L3.70088281,7.43231563 C3.58925781,7.56252031 3.4263,7.6375 3.25482344,7.6375 L0.5875,7.6375 C0.263053125,7.6375 5.5788707e-14,7.37444688 5.5788707e-14,7.05 L5.5788707e-14,4.7 C5.5788707e-14,4.37555313 0.263053125,4.1125 0.5875,4.1125 L3.25482344,4.1125 Z M11.1625,4.1125 C11.4869469,4.1125 11.75,4.37555313 11.75,4.7 L11.75,4.7 L11.75,7.05 C11.75,7.37444688 11.4869469,7.6375 11.1625,7.6375 L11.1625,7.6375 L8.49517656,7.6375 C8.3237,7.6375 8.16074219,7.56252031 8.04911719,7.43231563 L8.04911719,7.43231563 L7.19144063,6.43165625 C7.10015781,6.32517188 7.05,6.18960625 7.05,6.04934063 L7.05,6.04934063 L7.05,5.70065938 C7.05,5.56046719 7.10015781,5.42482813 7.19144063,5.31834375 L7.19144063,5.31834375 L8.04911719,4.31768438 C8.16074219,4.18747969 8.3237,4.1125 8.49517656,4.1125 L8.49517656,4.1125 Z M7.05,6.54323817e-13 C7.37444688,6.54323817e-13 7.6375,0.263053125 7.6375,0.5875 L7.6375,3.25482344 C7.6375,3.4263 7.56252031,3.58925781 7.43231563,3.70088281 L6.43165625,4.55855938 C6.32517188,4.64984219 6.18953281,4.7 6.04934063,4.7 L5.70065938,4.7 C5.56039375,4.7 5.42482813,4.64984219 5.31834375,4.55855938 L4.31768438,3.70088281 C4.18747969,3.58925781 4.1125,3.4263 4.1125,3.25482344 L4.1125,0.5875 C4.1125,0.263053125 4.37555313,6.54323817e-13 4.7,6.54323817e-13 L7.05,6.54323817e-13 Z" id="形状结合"></path>
            </g>
        </g>
    </g>
</svg>