<?xml version="1.0" encoding="UTF-8"?>
<svg width="64px" height="65px" viewBox="0 0 64 65" version="1.1" xmlns="http://www.w3.org/2000/svg" xmlns:xlink="http://www.w3.org/1999/xlink">
    <title>RollingOnTheFloorLaughing</title>
    <g id="RollingOnTheFloorLaughing" stroke="none" stroke-width="1" fill="none" fill-rule="evenodd" transform="translate(0.000000, 1.000000)">
        <rect id="Rectangle-" x="0" y="0" width="64" height="64"></rect>
        <g id="编组-" transform="translate(32.003920, 32.014630) rotate(-360.000000) translate(-32.003920, -32.014630) translate(-2.996080, -2.985370)">
            <path d="M57.3010413,22.121992 C53.7457082,15.9639745 48.0309285,11.8300194 41.6654776,10.124402 C35.3000267,8.41878453 28.2839047,9.14150475 22.1258872,12.6968378 C15.9678696,16.2521709 11.8339146,21.9669507 10.1282971,28.3324016 C8.42267972,34.6978525 9.14539994,41.7139745 12.9144323,48.2355821 C12.2402176,49.2472435 11.7971808,50.1234154 11.656105,50.7630952 C11.2615805,52.5523155 11.6312614,54.3353234 12.5472617,55.7696185 C13.4632517,57.2038974 14.9253539,58.289171 16.7145246,58.6836845 C18.4482516,59.0658195 20.2293257,58.7500078 21.7226943,57.7948173 C21.9182801,57.6699378 22.1060825,57.5359248 22.2854871,57.3934829 C26.114065,59.5621869 30.4492676,60.7207639 34.849952,60.750576 C39.2751115,60.7805539 43.7665736,59.6696594 47.8758872,57.2971461 C55.8214505,52.709773 60.397464,44.5272908 61.0654757,35.8307631 C62.6419008,35.0128361 63.8036773,33.6303808 64.3391708,31.9382431 C64.8920772,30.191583 64.6832317,28.3826853 63.8990939,26.8722543 C63.1149386,25.3617896 61.755632,24.1501295 60.0089291,23.5972872 C59.5252639,23.4442012 58.8331136,23.3744625 57.9864906,23.3881645 C57.7709606,22.9625283 57.5425395,22.5402791 57.3010413,22.121992 Z" id="形状结合" stroke="#FFFFFF" stroke-width="1.5"></path>
            <circle id="Oval-" fill="#FBDC67" transform="translate(35.000000, 35.000000) rotate(-30.000000) translate(-35.000000, -35.000000) " cx="35" cy="35" r="25"></circle>
            <path d="M62.8853114,25.7244987 C63.7458315,28.2530249 64.2126224,30.9636376 64.2126224,33.7832752 C64.2126224,47.5903939 53.0197411,58.7832752 39.2126224,58.7832752 C26.7862155,58.7832752 16.477341,49.7170413 14.5398302,37.838405 L14.6139937,38.0564495 C18.0289204,47.797798 27.3049986,54.7832752 38.2126224,54.7832752 C52.0197411,54.7832752 63.2126224,43.5903939 63.2126224,29.7832752 C63.2126224,28.4025633 63.1006936,27.0479938 62.8854146,25.7281453 Z" id="Combined-Shape" fill="#F2CC5B" transform="translate(39.376751, 42.252498) rotate(-30.000000) translate(-39.376751, -42.252498) "></path>
            <path d="M38.8266992,50.8098436 C47.2980952,50.8098436 54.2986605,44.5124691 55.4024915,36.3436237 C55.5024121,35.6041663 55.1830732,33.6319224 53.4794348,34.0825289 C50.1721715,34.9572886 48.5160578,35.7923127 38.8235083,35.7923127 C29.1309588,35.7923127 27.8187137,34.7087531 24.1670721,34.0825289 C22.3452763,33.770107 22.1481849,35.5626099 22.2427666,36.2825342 C23.319865,44.4810519 30.3341978,50.8098436 38.8266992,50.8098436 Z" id="Oval-" fill="#4C4023" transform="translate(38.821279, 42.413109) rotate(-30.000000) translate(-38.821279, -42.413109) "></path>
            <path d="M51.5354768,37.004589 C48.2668258,37.8842096 43.5410869,38.3240199 37.3582599,38.3240199 C31.1754329,38.3240199 26.5036135,37.8842096 23.3428018,37.004589 C22.8578405,37.004589 23.8605393,39.26254 24.6417827,39.7911045 C25.423026,40.3196689 28.79368,42.57762 37.4501168,42.57762 C46.1065536,42.57762 49.2980004,40.3729401 50.2364959,39.7911045 C51.1749914,39.2092688 52.0491246,37.004589 51.5354768,37.004589 Z" id="Combined-Shape" fill="#FFFFFF" transform="translate(37.451674, 39.791104) rotate(-30.000000) translate(-37.451674, -39.791104) "></path>
            <path d="M39.4063903,16.3153224 L34.556979,26.9978662 C34.5346157,27.0481189 34.5567855,27.1071506 34.6068691,27.1298864 C34.6299393,27.1403593 34.6561338,27.1416457 34.6801192,27.1334836 C39.7352326,25.4132675 45.0590735,24.5150894 50.6516418,24.4389494" id="路径-" stroke="#4C4023" stroke-width="3" stroke-linecap="round"></path>
            <path d="M17.0341846,29.2319214 L12.1862221,39.9112738 C12.1633432,39.961567 12.1856138,40.0208671 12.235925,40.0437062 C12.259425,40.0543742 12.2861385,40.055548 12.3104836,40.0469822 C18.8632147,37.7414241 23.9759441,36.5755617 27.6486717,36.549395" id="路径-" stroke="#4C4023" stroke-width="3" stroke-linecap="round" transform="translate(19.868914, 34.678508) scale(-1, 1) rotate(-300.000000) translate(-19.868914, -34.678508) "></path>
            <path d="M17.4932285,57.719822 C15.9223024,57.7912631 14.4140577,57.2436776 13.2517281,56.1812099 C10.8525133,53.9877533 10.6852983,50.2514021 12.8787549,47.8521872 C14.3264596,46.2688028 20.3576866,44.221343 25.4070361,42.8867372 C24.5289138,48.0347806 23.0286502,54.2246575 21.5807508,55.808626 C20.5178938,56.9707608 19.0662958,57.6495488 17.4932285,57.719822 Z" id="Shape" fill="#69CDFF" fill-rule="nonzero" transform="translate(18.372036, 50.306382) rotate(-30.000000) translate(-18.372036, -50.306382) "></path>
            <path d="M57.1298511,36.6006871 C55.5565891,36.5302193 54.1051858,35.8514313 53.0425235,34.6892964 C52.7910196,34.4142384 52.538153,33.9976607 52.2872331,33.474408 C52.2523885,33.382722 52.2120934,33.2935666 52.1642064,33.2092777 C52.0080872,32.8612213 51.8529412,32.4742323 51.6995472,32.0522041 C51.6868941,32.010157 51.6709318,31.9690832 51.6553588,31.9283988 C50.6960622,29.2401102 49.8124893,25.2639348 49.2162382,21.7670184 C54.2646144,23.1010402 60.2948681,25.1477213 61.7445194,26.733247 C63.937976,29.1322672 63.7707609,32.8688131 61.3715461,35.0622697 C60.2096059,36.1247374 58.7038918,36.6715443 57.1298511,36.6006871 Z" id="Path" fill="#69CDFF" transform="translate(56.251238, 29.186911) rotate(-30.000000) translate(-56.251238, -29.186911) "></path>
        </g>
    </g>
</svg>