<?xml version="1.0" encoding="UTF-8"?>
<svg width="64px" height="64px" viewBox="0 0 64 64" version="1.1" xmlns="http://www.w3.org/2000/svg" xmlns:xlink="http://www.w3.org/1999/xlink">
    <title>cow</title>
    <g id="cow" stroke="none" stroke-width="1" fill="none" fill-rule="evenodd">
        <rect id="矩形-" x="0" y="1.13686838e-13" width="64" height="64"></rect>
        <g id="Group-" transform="translate(1.400000, 12.000000)">
            <path d="M56.190841,13.7833292 C56.8892129,15.9571277 57.1126203,19.3018842 57.0123397,24.2031161 C56.919178,24.5767012 56.8851333,25.0706795 56.984238,25.7758462 C57.1490252,26.9483684 57.5902327,27.8024069 58.1069488,28.3743446 C58.4493682,28.7533586 58.8300893,29.0143955 59.2031958,29.1709779 C59.6679357,29.3660163 60.1262999,29.4017288 60.5195393,29.3141761 C60.8331419,29.2443542 61.150991,29.0859707 61.4383447,28.8351054 C61.2662878,28.6433509 61.1253377,28.4525604 61.0339867,28.2602705 C60.7878197,27.7420998 60.7776238,26.9516094 60.7383574,26.1382436 C60.6773823,24.8752013 60.5835233,23.5620768 60.02617,22.5070041 C60.0163954,17.6360423 59.5484661,14.2244561 58.6080006,11.9124114 C57.5680677,9.35583538 55.966804,8.05547827 53.778621,7.57349768 C53.0373001,6.83779586 52.1168928,6.23863036 50.998916,5.78741342 C48.4203219,4.74668937 43.6403553,4.53479679 36.0876088,4.91376153 L34.4996469,4.99927497 L33.9399881,5.03191542 C33.1912598,5.07637093 32.4208223,5.1251986 31.5749122,5.18149905 L23.0794465,5.75455032 C20.1530679,5.93244394 19.2206024,5.95273065 18.6727856,5.83356567 L16.461151,4.81088331 C16.3798744,4.15444682 16.217278,3.53950025 15.9325829,2.86906319 C15.476153,1.7942028 14.7357146,1.01413803 13.9054782,0.516954192 C12.9340378,-0.0647891779 11.8393968,-0.255020979 10.9122597,-0.0911907265 C10.3308822,0.0115418873 9.88562405,0.288862069 9.56802501,0.652411876 C9.21724473,1.05394364 9.02249991,1.56844839 8.99331422,2.09460649 C8.98396435,2.26316552 9.16636107,3.09813759 9.34281332,3.79671149 C9.42701033,4.13004717 9.50641851,4.421266 9.52707179,4.62486418 C9.50936367,4.76003462 9.29999454,5.10512819 9.06941974,5.46245987 C8.94211565,5.6597485 8.79616202,5.83169891 8.33780474,6.11787978 C7.28983867,6.55521044 6.44953723,7.21240683 5.17751153,8.46690872 L4.28193093,9.35091249 C4.03437054,9.58723473 3.84682301,9.7514306 3.24529603,10.2143337 L1.2389985,11.693183 L0.628075052,12.1738466 C-0.330124817,12.9620138 -0.541471252,13.4022442 -0.541471252,14.3748175 C-0.541471252,15.4524441 -0.4340652,16.1672805 0.00248353896,17.0590791 C0.532368925,18.1415495 1.44235348,19.0213876 2.75966802,19.6093792 C3.86616549,20.1032713 4.75249035,20.2038853 6.51381056,20.0919372 L7.9883226,19.9904382 C8.71690618,19.9582975 9.19182897,19.9909491 9.58270931,20.1627499 C9.87531896,20.2913584 9.86169851,20.3949219 9.96161116,20.7988885 C10.3726214,22.4606841 10.5990672,23.091806 11.3334745,24.2248717 C11.6004898,24.6368309 11.8882321,25.0426099 12.2160858,25.4744225 L14.6638103,28.6366966 L14.6815669,31.1044979 C14.6817038,31.2785108 14.6810968,31.4479235 14.6732403,32.1162815 C14.6629858,32.6670192 14.6416169,33.1476655 14.5070026,34.2702584 L13.6711474,35.3087405 C13.1142466,36.0555379 12.7942115,36.663261 12.6782864,37.3320269 C12.5219477,38.2339362 12.7819235,38.9979572 13.2825011,39.5478789 C13.7846895,40.0995701 14.5513802,40.4449642 15.4515767,40.4449642 L20.2479304,40.4375635 C21.1193464,40.3708629 21.7345349,39.8917959 22.1275919,39.2444028 C22.2961389,38.9667937 22.4130857,38.6701752 22.5057023,38.3239532 C22.6137656,37.9199878 22.6953729,37.4077865 22.7579316,36.7689593 C22.852806,35.8001356 22.9071743,34.5136151 22.9289449,32.9615856 L22.9388423,31.8836095 L22.9401901,31.3297722 C22.9403698,30.7848162 22.9373452,30.2249315 22.931667,29.6370022 L23.4544489,28.8119541 C25.0700217,28.6794521 27.2914238,28.9806346 29.9429582,29.7686986 L31.1406869,30.1159195 C35.5904463,31.2439842 41.8932169,30.7608922 46.4155287,29.5102741 L46.4155287,34.7017241 L45.6982496,35.7253838 C44.6178624,37.2870392 44.7024323,37.4124838 44.8054891,38.2221704 C44.8452981,38.670937 45.0015322,39.0757745 45.2425661,39.4146879 C45.4933362,39.7672912 45.8369655,40.0489944 46.2421565,40.2312268 C46.591881,40.3885135 46.9091837,40.4654954 47.8630348,40.4798167 C48.060479,40.4764382 48.2808194,40.4710488 48.6871795,40.4616153 L50.1696925,40.4599742 L51.3216461,40.4615439 C52.2078062,40.4508956 52.8342699,40.1445699 53.3008744,39.6338031 C53.7443571,39.1483466 54.0489385,38.4415373 54.307024,37.0869322 C54.428921,36.3313199 54.506993,35.3944527 54.5879433,33.8247937 L54.7824235,29.7443868 L54.8289184,28.8882241 C54.892487,27.7660447 54.9634212,26.7080932 55.048934,25.6387397 L55.1406196,24.6244525 C55.2145706,23.8910869 55.3110369,23.0978333 55.4473276,22.0708849 L55.8045609,19.3905159 C56.1581633,16.6347239 56.2703439,15.1667321 56.190841,13.7833292 Z" id="wb" stroke="#FFFFFF" stroke-width="1.5" fill-rule="nonzero"></path>
            <path d="M9.75394537,8.00130798 C10.2709542,7.84818645 11.7782881,5.76846735 11.7782881,4.60783572 C11.7782881,3.44720409 11.0177075,2.17503399 11.3037815,2.12448314 C11.6629226,2.06102092 13.1916192,2.17081086 13.8615709,3.74850003 C14.6265055,5.54986734 14.0346072,7.26344508 14.3717153,7.2749256 C15.5706261,7.31575561 16.4503772,7.5974897 18.0626442,8.00130798 C21.2679901,8.80413856 44.2102891,4.87490044 50.1568134,7.2749256 C56.1033376,9.67495076 53.3099742,22.1599125 52.8060938,25.4593868 C52.3022134,28.7588611 53.1834467,37.8741692 52.5342093,37.8574368 C51.8849718,37.8407044 50.6914486,38.2350467 49.3935724,38.2350467 C48.0956962,38.2350467 46.1780038,39.2268625 48.4354918,36.5523237 C49.1408852,33.0577339 49.0069874,26.6619681 47.8301334,27.7518367 C46.6532794,28.8417052 33.0821531,29.1338806 28.5231512,27.7518367 C23.9641492,26.3697927 20.6591965,26.7448122 20.6591965,27.7518367 C20.6591965,28.7588611 20.6591965,39.3341516 19.812539,39.3341516 C18.9658814,39.3341516 16.7346897,39.3341516 15.2136943,39.3341516 C13.6926989,39.3341516 15.6544374,37.3097952 16.2429,36.5523237 C16.8313627,35.7948522 16.9124878,30.3824515 16.9124878,28.7588611 C16.9124878,27.1352708 14.7913616,25.4230304 13.2215589,23.0010917 C11.6517562,20.5791531 12.6579808,19.0566636 10.4880473,18.1029287 C8.31811375,17.1491939 5.5106969,17.8150651 3.54246709,16.9365334 C1.57423729,16.0580017 1.57423729,14.5096144 1.57423729,13.7565872 C1.57423729,13.0035601 5.86778718,9.15226423 9.75394537,8.00130798 Z" id="Path-" fill="#FFFFFF" fill-rule="nonzero"></path>
            <path d="M36.4322934,6.91935484 C36.5404663,7.21662605 36.6054599,7.52737451 36.6222905,7.84852301 C36.752589,10.3347653 33.9469424,12.5028364 30.3557035,12.6910452 C26.7644646,12.8792541 23.7475625,11.0163299 23.617264,8.53008756 C23.6019739,8.23833464 23.6271126,7.95096303 23.6892055,7.67065787 L24.3836406,7.6550332 C25.1470301,7.64445278 27.60547,6.71153363 28.7213172,6.91935484 C29.852319,7.12999852 31.5905102,7.4282506 35.4880838,7.01399803 L36.4322934,6.91935484 Z" id="路径" fill="#000000" fill-rule="nonzero"></path>
            <path d="M51.1544018,7.54219591 C55.1387375,9.14982377 54.8691951,16.3221012 54.5152405,20.7976179 C53.4640515,21.1265619 52.3345535,21.305676 51.1585729,21.305676 C45.5254157,21.305676 40.9588395,17.1957574 40.9588395,12.125916 C40.9588395,10.0334854 41.7367042,8.10456686 43.0463755,6.56061254 L43.917883,6.5765575 C46.9353173,6.64956156 49.5852686,6.90907099 51.1544018,7.54219591 Z" id="路径" fill="#000000" fill-rule="nonzero"></path>
            <circle id="Oval-" fill="#000000" fill-rule="nonzero" cx="23.8610664" cy="19.8495335" r="3.56990669"></circle>
            <circle id="Oval-" fill="#000000" fill-rule="nonzero" cx="33.5238176" cy="22.7334951" r="2.03994668"></circle>
            <path d="M21.2974162,34.7557421 C21.0136795,37.1292821 20.8009397,38.316052 20.6591965,38.316052 C19.812539,38.316052 16.2833951,38.8441197 14.7623997,38.8441197 C13.9404564,38.8441197 14.3203802,37.4813272 15.9021711,34.7557421 L21.2974162,34.7557421 Z" id="Path-" fill="#000000" fill-rule="nonzero"></path>
            <circle id="Oval-" fill="#000000" fill-rule="nonzero" cx="10.163631" cy="10.6697734" r="1.01997334"></circle>
            <path d="M6.2708813,18.7143271 C4.85542813,18.6270397 3.45459429,18.537545 2.31513788,18.0289415 C0.346908071,17.1504098 0.354844736,15.2064835 0.354844736,14.4534563 C0.354844736,14.037388 1.21918814,13.8068737 3.04776394,12.4771903 C4.62480505,13.5424337 6.0155717,16.1995557 6.2708813,18.7143271 Z" id="Path-" fill="#E39999" fill-rule="nonzero"></path>
            <path d="M52.7487471,8.35440294 C56.5630897,8.89047383 59.7909639,10.6853396 57.2564478,25.6132963" id="路径-" stroke="#000000" stroke-width="1.5" transform="translate(55.453299, 16.983850) rotate(-8.000000) translate(-55.453299, -16.983850) "></path>
            <path d="M59.2755025,22.5796254 C60.7611375,23.8008044 59.4360347,27.1626711 59.9370568,28.7603637 C59.0112118,28.8340727 57.7381223,27.7397895 57.7381223,25.5120841 C57.7381223,23.2843787 58.8211759,23.7590827 59.2755025,22.5796254 Z" id="Path-" fill="#000000" fill-rule="nonzero" transform="translate(58.872167, 25.671739) rotate(-8.000000) translate(-58.872167, -25.671739) "></path>
            <path d="M15.0189502,6.49820654 C15.0437082,5.75064917 15.0464179,4.61989004 14.5519082,3.45535442 C14.2279011,2.69234034 13.743218,2.20167887 13.2462309,1.8861269 C12.2105144,1.22851952 11.2084399,1.38510237 10.5016351,2.40325691 C10.5240504,2.56493679 10.5975968,2.80938422 10.6947427,3.10364865 C10.8315441,3.51803359 11.0282881,4.07510201 11.0282881,4.60783572 C11.0282881,5.01877592 10.7604156,5.56272102 10.4646194,6.0585738 C10.131157,6.61756776 9.75700671,7.21819929 9.54096384,7.2821843 C8.09758104,7.7096683 7.02609447,8.73760887 5.97236699,9.79179027 C5.5141265,10.2502282 5.05789546,10.7094595 4.55898664,11.0980477 C4.0910977,11.4624752 3.59398363,11.8238044 3.1325497,12.1593553 C1.73074741,13.1787342 0.958528748,14.0598115 0.958528748,14.3748175 C0.958528748,14.9297838 0.979943005,15.8342895 1.5148068,16.6984356 C1.86341776,17.2616646 2.42705166,17.8182707 3.37106171,18.2396355 C4.44129163,18.7173394 5.69553341,18.6549154 6.98990213,18.554218 C8.07242214,18.4700016 9.18977419,18.3515542 10.186268,18.7895358 C11.1702722,19.2220279 11.2699684,19.8319119 11.4576624,20.6017411 C11.6490017,21.3865218 11.8812203,22.3121015 12.5921975,23.4090184 C13.1652185,24.2930924 13.8086774,25.0859403 14.4016094,25.8146082 C15.3038483,26.9233904 16.1624878,27.8401019 16.1624878,28.7588611 C16.1624878,29.0072201 16.166097,29.3169794 16.1701957,29.6664956 C16.1907258,31.417182 16.3472712,34.3625332 15.8885099,34.9530526 C15.8056584,35.0596995 15.6939002,35.1926919 15.5686943,35.3421026 C15.0340915,35.9800546 14.3382445,36.8691456 14.4161184,38.559693 C14.6022006,38.761167 14.9135999,38.9564927 15.5030134,38.9444332 L20.9705439,38.2529557 C21.0270248,38.0604346 21.0727136,37.8850963 21.1060104,37.7302763 C21.2073928,37.2588791 21.2822531,36.5668493 21.3330508,35.758577 C21.483954,33.3574633 21.4369673,29.8820416 21.4163686,28.3828212 C21.4132069,28.152708 21.4106736,27.9702836 21.4184589,27.8394564 C21.5350149,27.7399622 21.7115293,27.6561205 21.9367314,27.5787027 C22.4676504,27.3961887 23.2253835,27.2831219 24.2043415,27.2831219 C25.835382,27.2831219 28.0430655,27.6019169 30.8200592,28.4678354 C33.6334767,29.3451115 36.8802808,29.445533 39.8541105,29.1663728 C43.2175735,28.8506368 46.2077379,28.0337007 47.8842976,27.3443928 L47.6787961,35.5136606 C46.4324754,37.3148758 46.3076382,38.0098298 47.1247612,38.9467415 C47.3308237,38.9875644 47.6506711,38.988455 48.0799131,38.9750873 C48.2550338,38.9696336 48.4526401,38.9634281 48.6719806,38.9616496 C49.7718019,38.9527316 50.0857754,38.9581774 50.3342938,38.9625513 C50.5538178,38.9664149 50.7240649,38.9694833 51.3072566,38.9616058 C51.724168,38.9559743 52.1064146,38.7713843 52.3992193,38.2671421 C52.5587099,37.9924815 52.6946903,37.5840379 52.7934419,37.0395447 C52.9883976,35.964604 53.0694601,34.2672851 53.1705071,32.0474433 C53.2538899,30.2156569 53.3537456,28.0197267 53.5537072,25.5191711 C53.6848846,23.8787739 53.9057357,22.2628045 54.117412,20.7113144 C54.5897289,17.2494484 54.9941155,14.0995278 54.3796296,11.6671547 C53.8726766,9.66043859 52.7174106,8.09856362 50.4375142,7.17839438 C46.6751126,5.65988402 36.2144838,6.35116372 28.0681276,6.92838747 C23.340601,7.26336431 19.4241159,7.56914336 18.2448651,7.27378097 C17.9712195,7.20524201 17.71881,7.14023766 17.4824273,7.07936526 C16.5347828,6.83533136 15.8377846,6.65637105 15.0189502,6.49820654 Z" id="Path-" stroke="#000000" stroke-width="1.5" fill-rule="nonzero"></path>
            <line x1="1.89632216" y1="16.9234077" x2="3.63235226" y2="16.4582991" id="路径-" stroke="#000000" stroke-width="1.5" stroke-linecap="round"></line>
            <path d="M52.5342093,34.8229034 C52.7288667,36.2279714 52.7288667,37.2394825 52.5342093,37.8574368 C52.3395519,38.475391 51.8196338,38.8868359 50.9744551,39.0917714 L46.6074766,39.0917714 L46.1069425,38.316052 L46.1069425,37.0326922 L47.6534754,34.8229034 L52.5342093,34.8229034 Z" id="路径" fill="#000000"></path>
        </g>
    </g>
</svg>