<?xml version="1.0" encoding="UTF-8"?>
<svg width="64px" height="64px" viewBox="0 0 64 64" version="1.1" xmlns="http://www.w3.org/2000/svg" xmlns:xlink="http://www.w3.org/1999/xlink">
    <title>organizationchart</title>
    <g id="organizationchart" stroke="none" stroke-width="1" fill="none" fill-rule="evenodd">
        <rect id="Rectangle" x="0" y="0" width="64" height="64"></rect>
        <g id="编组" transform="translate(7.820000, 9.666667)" stroke-width="1.5">
            <path d="M33.0638944,-0.75 L15.9805611,-0.75 C15.313217,-0.75 14.7090504,-0.47950537 14.2717197,-0.0421747212 C13.8343891,0.395155927 13.5638944,0.999322594 13.5638944,1.66666667 L13.5638944,7.22222233 C13.5638944,7.88956641 13.8343891,8.49373307 14.2717197,8.93106372 C14.7090504,9.36839437 15.313217,9.638889 15.9805611,9.638889 L22.92,9.63808671 L22.92,12.3886821 L14.1102647,17.3055023 C13.7197851,17.5234407 13.3974381,17.8454389 13.179082,18.2356734 C12.8532146,18.8180466 12.7942504,19.4773704 12.9623464,20.0725678 C13.1304424,20.6677652 13.5255985,21.1988361 14.1079717,21.5247035 L22.9190456,26.4548123 L22.91972,28.7081043 L7.007077,28.7089818 L7.00613254,34.052085 L1.66658163,34.0526904 C0.999322594,34.0526904 0.395155927,34.3231851 -0.0421747212,34.7605157 C-0.47950537,35.1978464 -0.75,35.802013 -0.75,36.4693571 L-0.75,41.9832468 C-0.75,42.6505908 -0.47950537,43.2547575 -0.0421747212,43.6920882 C0.395155927,44.1294188 0.999322594,44.3999134 1.66666667,44.3999134 L15.3472226,44.3999134 C16.0145666,44.3999134 16.6187333,44.1294188 17.056064,43.6920882 C17.4933946,43.2547575 17.7638892,42.6505908 17.7638892,41.9832468 L17.7638892,36.4693571 C17.7638892,35.802013 17.4933946,35.1978464 17.056064,34.7605157 C16.6187333,34.3231851 16.0145666,34.0526904 15.3472226,34.0526904 L10.006,34.052085 L10.006,31.708 L38.312,31.708 L38.312,34.052085 L32.9721372,34.0526904 C32.3048781,34.0526904 31.7007115,34.3231851 31.2633808,34.7605157 C30.8260502,35.1978464 30.5555556,35.802013 30.5555556,36.4693571 L30.5555556,41.9832468 C30.5555556,42.6505908 30.8260502,43.2547575 31.2633808,43.6920882 C31.7007115,44.1294188 32.3048781,44.3999134 32.9722222,44.3999134 L46.6527781,44.3999134 C47.3201222,44.3999134 47.9242889,44.1294188 48.3616195,43.6920882 C48.7989502,43.2547575 49.0694448,42.6505908 49.0694448,41.9832468 L49.0694448,36.4693571 C49.0694448,35.802013 48.7989502,35.1978464 48.3616195,34.7605157 C47.9242889,34.3231851 47.3201222,34.0526904 46.6527781,34.0526904 L41.3120702,34.052085 L41.3125702,28.7089832 L25.9436225,28.708107 L26.0137034,26.4539333 L34.8383326,21.5286431 C35.2288033,21.3107097 35.5511503,20.9887115 35.7695064,20.598477 C36.0953738,20.0161038 36.1543379,19.35678 35.986242,18.7615826 C35.818146,18.1663852 35.4229899,17.6353142 34.8406167,17.3094468 L25.9210354,12.3250673 L25.920226,9.63808449 L33.06381,9.638889 C33.7312385,9.638889 34.3354052,9.36839437 34.7727358,8.93106372 C35.2100665,8.49373307 35.4805611,7.88956641 35.4805611,7.22222233 L35.4805611,1.66666667 C35.4805611,0.999322594 35.2100665,0.395155927 34.7727358,-0.0421747212 C34.3354052,-0.47950537 33.7312385,-0.75 33.0638944,-0.75 Z" id="wb" stroke="#FFFFFF"></path>
            <rect id="Rectangle" stroke="#000000" fill="#ED6969" x="15.0638944" y="0.75" width="18.9166667" height="7.388889" rx="1.66666667"></rect>
            <rect id="Rectangle-" stroke="#000000" fill="#FFC55D" x="32.0555556" y="35.5526904" width="15.5138892" height="7.347223" rx="1.66666667"></rect>
            <rect id="Rectangle--" stroke="#000000" fill="#FFC55D" x="0.75" y="35.5526904" width="15.5138892" height="7.347223" rx="1.66666667"></rect>
            <polyline id="路径-" stroke="#000000" points="8.50694444 35.5428744 8.50694444 30.2089404 39.8125 30.2089404 39.8125 35.5428744"></polyline>
            <line x1="24.4201434" y1="8.07006292" x2="24.4201434" y2="29.9177527" id="路径-" stroke="#000000"></line>
            <path d="M31.8530574,12.6732153 C31.7842592,12.4296134 31.623235,12.2369593 31.4185099,12.1224052 C31.2137847,12.007851 30.9653587,11.9713969 30.7217568,12.0401951 L20.6016934,14.8983088 C20.2953322,14.9848315 20.0557978,15.2241067 19.9689434,15.530374 L17.095531,26.1609351 C17.1643292,26.404537 17.3253534,26.5971911 17.5300785,26.7117452 C17.7348037,26.8262993 17.9832297,26.8627534 18.2268316,26.7939553 L28.346895,23.9358416 C28.6532562,23.8493189 28.8927906,23.6100437 28.9796449,23.3037764 L31.8530574,12.6732153 Z" id="Rectangle-" stroke="#000000" fill="#BDF3FB" transform="translate(24.474294, 19.417075) rotate(-315.000000) translate(-24.474294, -19.417075) "></path>
        </g>
    </g>
</svg>