<?xml version="1.0" encoding="UTF-8"?>
<svg width="64px" height="64px" viewBox="0 0 64 64" version="1.1" xmlns="http://www.w3.org/2000/svg" xmlns:xlink="http://www.w3.org/1999/xlink">
    <title>global</title>
    <defs>
        <path d="M9.48846861,0.00534712852 C4.27851486,-0.170231125 0,4.00083883 0,9.17113138 C0,15.0388417 5.6309919,19.2972263 8.78715461,25.4213358 C8.94739787,25.7322817 9.39501002,25.7326813 9.55580274,25.4217854 C12.4110098,19.9113256 17.2909364,16.21624 18.1953018,10.9075329 C19.1316858,5.41405646 15.0579207,0.19311346 9.48846861,0.00534712852 Z" id="path-1"></path>
    </defs>
    <g id="global" stroke="none" stroke-width="1" fill="none" fill-rule="evenodd">
        <rect id="Rectangle" x="0" y="0" width="64" height="64"></rect>
        <g id="编组" transform="translate(8.000000, 6.000000)">
            <g id="Group" transform="translate(0.000000, 3.576087)">
                <circle id="wb" stroke="#FFFFFF" stroke-width="1.5" cx="23.5" cy="23.5" r="24.25"></circle>
                <circle id="Oval-" fill="#BDF3FB" cx="23.5" cy="23.5" r="23.5"></circle>
                <path d="M19.5170467,23.9285865 C24.6363146,24.2487753 29.5609129,29.9097606 29.5609129,31.2559636 C29.5609129,32.6021666 24.5814314,36.1966497 24.5814314,38.6923269 C24.5814314,41.1880041 25.0494587,45.344433 24.5814314,45.7926974 C24.3483305,46.0159553 17.1641213,46.3663737 16.055506,44.9522028 C14.9382086,43.5269567 13.2463624,39.9854877 12.4194172,38.6923269 C10.7719527,36.1160539 7.71365838,35.5596289 6.19117963,34.7031987 C4.66870089,33.8467685 2.66093628,24.978037 6.63341883,22.7848446 C10.6059014,20.5916522 14.3977789,23.6083977 19.5170467,23.9285865 Z M33.3854375,3.84704374 C35.9606937,3.84704374 43.0818183,12.8146524 43.0818183,12.8146524 C43.0818183,12.8146524 47.102552,21.6798201 46.0599399,22.9988959 C45.5587454,23.6329895 46.2905073,28.2380389 44.2208567,28.5606773 C41.9851077,28.9092088 39.5439413,30.1943387 37.4189162,29.4371506 C34.6577885,28.4533066 32.7613106,23.1930697 29.9125688,22.4579237 C27.0638269,21.7227777 27.0332926,17.4189118 28.0885666,14.9848402 C29.1438406,12.5507685 30.0733635,13.5146109 31.7738734,12.007582 C33.4743833,10.500553 30.8101814,3.84704374 33.3854375,3.84704374 Z M18.262474,7.36715974 C15.9713166,9.9771118 11.0267821,16.7340623 8.39886981,17.1610267 C5.77095749,17.587991 1.31885441,19.3917724 1.31885441,19.3917724 L2.27278903,14.6931239 C2.27278903,14.6931239 3.52015106,12.6269665 6.19424812,9.13564858 C8.91097134,5.58867765 16.4154012,2.01255368 18.7783997,1.55252616 C21.6559868,0.992318759 20.5536315,4.75720768 18.262474,7.36715974 Z" id="Combined-Shape" fill="#8BCB76"></path>
                <circle id="Oval-" stroke="#000000" stroke-width="1.5" cx="23.5" cy="23.5" r="22.75"></circle>
            </g>
            <g id="tool" transform="translate(27.586957, -0.000000)" fill-rule="nonzero">
                <g id="路径">
                    <use fill="#FFC55D" xlink:href="#path-1"></use>
                    <use stroke="#FFFFFF" stroke-width="2.25" xlink:href="#path-1"></use>
                    <path stroke="#000000" stroke-width="1.5" d="M9.46319776,0.754921264 C7.07548367,0.67445401 4.90065129,1.58791772 3.32105232,3.1137976 C1.73580401,4.6451347 0.75,6.79301282 0.75,9.17113138 C0.75,12.766898 3.00838772,15.709787 5.38165597,18.9033038 C6.59870372,20.5409873 7.86025985,22.2391794 9.42212358,24.1060191 C10.4757944,22.2840584 11.721321,20.6474722 12.9286144,19.0652221 C14.9746041,16.3837967 16.9291399,13.8740242 17.4559533,10.7815811 C17.8888619,8.24184002 17.1578255,5.76572964 15.6741045,3.90790133 C14.208724,2.07303783 12.0068257,0.840676141 9.46319776,0.754921264 Z" stroke-linejoin="square"></path>
                </g>
                <path d="M9.17103722,12.4166557 C7.37861918,12.4166557 5.9255298,10.963525 5.9255298,9.17113138 C5.9255298,7.37873776 7.37865292,5.92560708 9.17103722,5.92560708 C10.9634553,5.92560708 12.4165784,7.37873776 12.4165784,9.17113138 C12.4165784,10.963525 10.9634553,12.4166557 9.17103722,12.4166557 Z" id="路径" stroke="#000000" stroke-width="1.5" fill="#FFFFFF"></path>
            </g>
        </g>
    </g>
</svg>