<?xml version="1.0" encoding="UTF-8"?>
<svg width="64px" height="64px" viewBox="0 0 64 64" version="1.1" xmlns="http://www.w3.org/2000/svg" xmlns:xlink="http://www.w3.org/1999/xlink">
    <title>beakerFlask</title>
    <g id="beakerFlask" stroke="none" stroke-width="1" fill="none" fill-rule="evenodd">
        <rect id="Rectangle" x="0" y="0" width="64" height="64"></rect>
        <g id="Group" transform="translate(9.333333, 4.333333)">
            <path d="M37.0625,13.53125 L19.8125,13.53125 C19.3982864,13.53125 19.0232864,13.6991432 18.7518398,13.9705898 C18.4803932,14.2420364 18.3125,14.6170364 18.3125,15.03125 C18.3125,15.4454636 18.4803932,15.8204636 18.7518398,16.0919102 C19.0232864,16.3633568 19.3982864,16.53125 19.8125,16.53125 L21.43736,16.53125 L21.4370448,21.8122587 L0.749991253,21.8125 C0.335786438,21.8125 -0.0392135624,21.9803932 -0.310660172,22.2518398 C-0.582106781,22.5232864 -0.75,22.8982864 -0.75,23.3125 C-0.75,23.7267136 -0.582106781,24.1017136 -0.310660172,24.3731602 C-0.0392135624,24.6446068 0.335786438,24.8125 0.75,24.8125 L1.7501805,24.8125 L1.75495169,44.6347747 C1.80681922,45.6655192 2.26109389,46.5903012 2.96427689,47.2546331 C3.65838882,47.9103952 4.59472793,48.3125 5.625,48.3125 L12.3274047,48.65625 C12.3274047,50.1577742 12.9360177,51.5171492 13.9200116,52.5011431 C14.9040056,53.4851371 16.2633806,54.09375 17.7649047,54.09375 L39.1100953,54.09375 C40.0563667,54.09375 40.986257,53.8468042 41.8078507,53.3773221 C43.1115388,52.6323575 43.9898502,51.4294946 44.3559985,50.0869509 C44.7221468,48.7444072 44.5761319,47.2621826 43.8311673,45.9584945 L35.4374988,31.2695746 L35.4374093,16.53125 L37.0625,16.53125 C37.4767136,16.53125 37.8517136,16.3633568 38.1231602,16.0919102 C38.3946068,15.8204636 38.5625,15.4454636 38.5625,15.03125 C38.5625,14.6170364 38.3946068,14.2420364 38.1231602,13.9705898 C37.8517136,13.6991432 37.4767136,13.53125 37.0625,13.53125 Z M9.0625,12.75 C8.20818453,12.75 7.43474703,13.0962798 6.8748884,13.6561384 C6.31502976,14.215997 5.96875,14.9894345 5.96875,15.84375 C5.96875,16.6980655 6.31502976,17.471503 6.8748884,18.0313616 C7.43474703,18.5912202 8.20818453,18.9375 9.0625,18.9375 C9.91681547,18.9375 10.690253,18.5912202 11.2501116,18.0313616 C11.8099702,17.471503 12.15625,16.6980655 12.15625,15.84375 C12.15625,14.9894345 11.8099702,14.215997 11.2501116,13.6561384 C10.690253,13.0962798 9.91681547,12.75 9.0625,12.75 Z M15.1666667,3.91666667 C13.9930616,3.91666667 12.9305616,4.39236412 12.1614628,5.16146285 C11.3923641,5.93056157 10.9166667,6.99306157 10.9166667,8.16666667 C10.9166667,9.34027176 11.3923641,10.4027718 12.1614628,11.1718705 C12.9305616,11.9409692 13.9930616,12.4166667 15.1666667,12.4166667 C16.3402718,12.4166667 17.4027718,11.9409692 18.1718705,11.1718705 C18.9409692,10.4027718 19.4166667,9.34027176 19.4166667,8.16666667 C19.4166667,6.99306157 18.9409692,5.93056157 18.1718705,5.16146285 C17.4027718,4.39236412 16.3402718,3.91666667 15.1666667,3.91666667 Z M33.8937572,5.875 C33.4709142,5.875 33.0881017,6.04639099 32.8109999,6.32349274 C32.5338982,6.60059449 32.3625072,6.98340699 32.3625072,7.40625 L32.3625072,8.96875 C32.3625072,9.39159301 32.5338982,9.77440551 32.8109999,10.0515073 C33.0881017,10.328609 33.4709142,10.5 33.8937572,10.5 C34.3166002,10.5 34.6994127,10.328609 34.9765144,10.0515073 C35.2536162,9.77440551 35.4250072,9.39159301 35.4250072,8.96875 L35.4250072,7.40625 C35.4250072,6.98340699 35.2536162,6.60059449 34.9765144,6.32349274 C34.6994127,6.04639099 34.3166002,5.875 33.8937572,5.875 Z M36.4184963,5.0645236 C36.0523035,4.85310209 35.6350826,4.8101248 35.2565546,4.91155108 C34.8780266,5.01297736 34.5381914,5.25880721 34.3267699,5.625 C34.1153484,5.99119279 34.0723711,6.40841364 34.1737974,6.78694166 C34.2752236,7.16546969 34.5210535,7.50530489 34.8872463,7.7167264 L36.240411,8.4979764 C36.6066038,8.70939791 37.0238246,8.7523752 37.4023526,8.65094892 C37.7808807,8.54952264 38.1207159,8.30369279 38.3321374,7.9375 C38.5435589,7.57130721 38.5865362,7.15408636 38.4851099,6.77555834 C38.3836836,6.39703031 38.1378538,6.05719511 37.771661,5.8457736 L36.4184963,5.0645236 Z M33.4607445,5.625 C33.249323,5.25880721 32.9094878,5.01297736 32.5309597,4.91155108 C32.1524317,4.8101248 31.7352109,4.85310209 31.3690181,5.0645236 L30.0158534,5.8457736 C29.6496606,6.05719511 29.4038307,6.39703031 29.3024045,6.77555834 C29.2009782,7.15408636 29.2439555,7.57130721 29.455377,7.9375 C29.6667985,8.30369279 30.0066337,8.54952264 30.3851617,8.65094892 C30.7636897,8.7523752 31.1809106,8.70939791 31.5471034,8.4979764 L32.9002681,7.7167264 C33.2664609,7.50530489 33.5122907,7.16546969 33.613717,6.78694166 C33.7151433,6.40841364 33.672166,5.99119279 33.4607445,5.625 Z M31.5471034,2.2520236 C31.1809106,2.04060209 30.7636897,1.9976248 30.3851617,2.09905108 C30.0066337,2.20047736 29.6667985,2.44630721 29.455377,2.8125 C29.2439555,3.17869279 29.2009782,3.59591364 29.3024045,3.97444166 C29.4038307,4.35296969 29.6496606,4.69280489 30.0158534,4.9042264 L31.3690181,5.6854764 C31.7352109,5.89689791 32.1524317,5.9398752 32.5309597,5.83844892 C32.9094878,5.73702264 33.249323,5.49119279 33.4607445,5.125 C33.672166,4.75880721 33.7151433,4.34158636 33.613717,3.96305834 C33.5122907,3.58453031 33.2664609,3.24469511 32.9002681,3.0332736 L31.5471034,2.2520236 Z M38.3321374,2.8125 C38.1207159,2.44630721 37.7808807,2.20047736 37.4023526,2.09905108 C37.0238246,1.9976248 36.6066038,2.04060209 36.240411,2.2520236 L34.8872463,3.0332736 C34.5210535,3.24469511 34.2752236,3.58453031 34.1737974,3.96305834 C34.0723711,4.34158636 34.1153484,4.75880721 34.3267699,5.125 C34.5381914,5.49119279 34.8780266,5.73702264 35.2565546,5.83844892 C35.6350826,5.9398752 36.0523035,5.89689791 36.4184963,5.6854764 L37.771661,4.9042264 C38.1378538,4.69280489 38.3836836,4.35296969 38.4851099,3.97444166 C38.5865362,3.59591364 38.5435589,3.17869279 38.3321374,2.8125 Z M33.8937572,0.25 C33.4709142,0.25 33.0881017,0.421390994 32.8109999,0.698492741 C32.5338982,0.975594488 32.3625072,1.35840699 32.3625072,1.78125 L32.3625072,3.34375 C32.3625072,3.76659301 32.5338982,4.14940551 32.8109999,4.42650726 C33.0881017,4.70360901 33.4709142,4.875 33.8937572,4.875 C34.3166002,4.875 34.6994127,4.70360901 34.9765144,4.42650726 C35.2536162,4.14940551 35.4250072,3.76659301 35.4250072,3.34375 L35.4250072,1.78125 C35.4250072,1.35840699 35.2536162,0.975594488 34.9765144,0.698492741 C34.6994127,0.421390994 34.3166002,0.25 33.8937572,0.25 Z" id="wb" stroke="#FFFFFF" stroke-width="1.5"></path>
            <path d="M23.6507161,23.3125 L3.57399177,23.3125 L3.25569234,32.7124286 L9.24356046,45.448028 C9.43934344,45.8644389 9.74659644,46.2055569 10.1199388,46.4425722 C10.4932811,46.6795875 10.9327127,46.8125 11.3928529,46.8125 L21.2757161,46.8125 C21.9315543,46.8125 22.5253043,46.5466691 22.9550948,46.1168786 C23.3848852,45.6870881 23.6507161,45.0933381 23.6507161,44.4375 L23.6507161,23.3125 Z" id="Rectangle-" stroke="#000000" stroke-width="1.5" fill="#FFFDFE" transform="translate(13.450358, 35.062500) scale(-1, 1) translate(-13.450358, -35.062500) "></path>
            <polygon id="Rectangle-" fill="#BDF3FB" points="5.625 34.4375 21.5560913 34.4375 15.8370972 44.4375 5.625 44.4375"></polygon>
            <path d="M33.9375,15.03125 L22.9375,15.03125 L22.9375,31.6679233 L14.3461974,46.7027029 C14.0062276,47.2976501 13.8274047,47.9710189 13.8274047,48.65625 C13.8274047,49.7435606 14.2681244,50.7279356 14.9806718,51.440483 C15.6932191,52.1530303 16.6775941,52.59375 17.7649047,52.59375 L39.1100953,52.59375 C39.7953263,52.59375 40.4686951,52.4149272 41.0636423,52.0749574 C42.0076923,51.5355002 42.6437109,50.6644616 42.9088528,49.6922748 C43.1739947,48.7200879 43.0682598,47.6467529 42.5288026,46.7027029 L33.9375,31.6679233 L33.9375,15.03125 Z" id="Combined-Shape" stroke="#000000" stroke-width="1.5" fill="#FFFCF8"></path>
            <rect id="Rectangle-" fill="#000000" x="19.0625" y="14.28125" width="18.75" height="1.5" rx="0.75"></rect>
            <path d="M31.5625,26.46875 L31.56225,32.02075 L41.875,50.21875 L15.15625,50.21875 L25.31225,32.02775 L25.3125,26.46875 L31.5625,26.46875 Z" id="Combined-Shape" fill="#FFC55D"></path>
            <path d="M24.156593,39.0399408 C24.5708066,39.0399408 24.906593,39.3757272 24.906593,39.7899408 C24.906593,40.2041543 24.5708066,40.5399408 24.156593,40.5399408 L18.656593,40.5399408 L18.656593,39.0399408 L24.156593,39.0399408 Z M26.812843,34.3524408 C27.2270566,34.3524408 27.562843,34.6882272 27.562843,35.1024408 C27.562843,35.5166543 27.2270566,35.8524408 26.812843,35.8524408 L21.312843,35.8524408 L21.312843,34.3524408 L26.812843,34.3524408 Z M28.375343,29.6649408 C28.7895566,29.6649408 29.125343,30.0007272 29.125343,30.4149408 C29.125343,30.8291543 28.7895566,31.1649408 28.375343,31.1649408 L22.875343,31.1649408 L22.875343,29.6649408 L28.375343,29.6649408 Z M28.375343,24.9774408 C28.7895566,24.9774408 29.125343,25.3132272 29.125343,25.7274408 C29.125343,26.1416543 28.7895566,26.4774408 28.375343,26.4774408 L22.875343,26.4774408 L22.875343,24.9774408 L28.375343,24.9774408 Z" id="Combined-Shape" fill="#000000"></path>
            <path d="M9.48381393,37.6230433 C9.89802749,37.6230433 10.2338139,37.9588298 10.2338139,38.3730433 C10.2338139,38.7872569 9.89802749,39.1230433 9.48381393,39.1230433 L3.98381393,39.1230433 L3.98381393,37.6230433 L9.48381393,37.6230433 Z M9.48381393,32.9355433 C9.89802749,32.9355433 10.2338139,33.2713298 10.2338139,33.6855433 C10.2338139,34.0997569 9.89802749,34.4355433 9.48381393,34.4355433 L3.98381393,34.4355433 L3.98381393,32.9355433 L9.48381393,32.9355433 Z M9.48381393,28.2480433 C9.89802749,28.2480433 10.2338139,28.5838298 10.2338139,28.9980433 C10.2338139,29.4122569 9.89802749,29.7480433 9.48381393,29.7480433 L3.98381393,29.7480433 L3.98381393,28.2480433 L9.48381393,28.2480433 Z" id="Combined-Shape" fill="#000000"></path>
            <rect id="Rectangle--" fill="#000000" x="0" y="22.5625" width="23.125" height="1.5" rx="0.75"></rect>
            <circle id="Oval-" stroke="#000000" stroke-width="1.5" fill="#BDCFD1" cx="9.0625" cy="15.84375" r="1.59375"></circle>
            <circle id="Oval--" stroke="#000000" stroke-width="1.5" fill="#FFD3BD" cx="15.1666667" cy="8.16666667" r="2.75"></circle>
            <path d="M33.8937572,6.625 C34.3252296,6.625 34.6750072,6.97477754 34.6750072,7.40625 L34.6750072,8.96875 C34.6750072,9.40022246 34.3252296,9.75 33.8937572,9.75 C33.4622847,9.75 33.1125072,9.40022246 33.1125072,8.96875 L33.1125072,7.40625 C33.1125072,6.97477754 33.4622847,6.625 33.8937572,6.625 Z M36.0434963,5.71404265 L37.396661,6.49529265 C37.7703271,6.71102888 37.8983546,7.18883389 37.6826183,7.5625 C37.4668821,7.93616611 36.9890771,8.06419358 36.615411,7.84845735 L35.2622463,7.06720735 C34.8885802,6.85147112 34.7605527,6.37366611 34.9762889,6 C35.1920252,5.62633389 35.6698302,5.49830642 36.0434963,5.71404265 Z M32.8112254,6 C33.0269617,6.37366611 32.8989342,6.85147112 32.5252681,7.06720735 L31.1721034,7.84845735 C30.7984373,8.06419358 30.3206323,7.93616611 30.104896,7.5625 C29.8891598,7.18883389 30.0171873,6.71102888 30.3908534,6.49529265 L31.7440181,5.71404265 C32.1176842,5.49830642 32.5954892,5.62633389 32.8112254,6 Z M31.1721034,2.90154265 L32.5252681,3.68279265 C32.8989342,3.89852888 33.0269617,4.37633389 32.8112254,4.75 C32.5954892,5.12366611 32.1176842,5.25169358 31.7440181,5.03595735 L30.3908534,4.25470735 C30.0171873,4.03897112 29.8891598,3.56116611 30.104896,3.1875 C30.3206323,2.81383389 30.7984373,2.68580642 31.1721034,2.90154265 Z M37.6826183,3.1875 C37.8983546,3.56116611 37.7703271,4.03897112 37.396661,4.25470735 L36.0434963,5.03595735 C35.6698302,5.25169358 35.1920252,5.12366611 34.9762889,4.75 C34.7605527,4.37633389 34.8885802,3.89852888 35.2622463,3.68279265 L36.615411,2.90154265 C36.9890771,2.68580642 37.4668821,2.81383389 37.6826183,3.1875 Z M33.8937572,1 C34.3252296,1 34.6750072,1.34977754 34.6750072,1.78125 L34.6750072,3.34375 C34.6750072,3.77522246 34.3252296,4.125 33.8937572,4.125 C33.4622847,4.125 33.1125072,3.77522246 33.1125072,3.34375 L33.1125072,1.78125 C33.1125072,1.34977754 33.4622847,1 33.8937572,1 Z" id="Combined-Shape" fill="#000000"></path>
        </g>
    </g>
</svg>