<?xml version="1.0" encoding="UTF-8"?>
<svg width="64px" height="64px" viewBox="0 0 64 64" version="1.1" xmlns="http://www.w3.org/2000/svg" xmlns:xlink="http://www.w3.org/1999/xlink">
    <title>hurricane</title>
    <defs>
        <path d="M24.1178638,53.6847826 L16.9042367,53.6847826 L16.5674122,52.6177375 C11.191991,35.6000983 14.5245065,31.8849799 18.3829149,27.5754872 C21.2029362,24.4290625 24.1178638,21.174333 24.1178638,11 L54.6069942,11 C54.6069942,27.0708087 45.5227816,31.3561097 37.5071029,35.1382207 C30.3225061,38.5269357 24.1178638,41.4556341 24.1178638,52.1603261 L24.1178638,53.6847826 Z" id="path-1"></path>
        <path d="M42.5652174,28.2173913 L52.6903004,28.2173913" id="path-2"></path>
        <path d="M18.6521739,18.6521739 L28.777257,18.6521739" id="path-3"></path>
        <path d="M17.6956522,24.3913043 L24.95117,24.3913043" id="path-4"></path>
    </defs>
    <g id="hurricane" stroke="none" stroke-width="1" fill="none" fill-rule="evenodd">
        <rect id="矩形-" x="0" y="1.13686838e-13" width="64" height="64"></rect>
        <g id="编组" transform="translate(10.000000, 10.000000)" fill-rule="nonzero" stroke="#FFFFFF" stroke-width="1.5">
            <path d="M5.12466217,42.1917372 L1.77670771,42.1974408 C1.38440187,42.2352517 1.03585235,42.4235843 0.790607005,42.7047423 C0.560634485,42.968391 0.421212961,43.3131577 0.421212961,43.6905224 C0.421212961,44.104736 0.589106179,44.479736 0.860552789,44.7511826 C1.1319994,45.0226292 1.5069994,45.1905224 1.92121296,45.1905224 L31.6610564,45.1836661 C32.0536252,45.1459996 32.4024224,44.9576147 32.6478021,44.6763026 C32.8777747,44.4126539 33.0171962,44.0678872 33.0171962,43.6905224 C33.0171962,43.2763089 32.849303,42.9013089 32.5778564,42.6298623 C32.3064097,42.3584157 31.9314097,42.1905224 31.5171962,42.1905224 L15.3716404,41.7098122 C15.4457207,37.3151831 16.6463239,34.1884709 19.0100844,31.7816521 C20.9005483,29.8567516 22.8456075,28.7312465 27.6149628,26.4699223 L30.0070731,25.3325729 L30.6127251,25.0361483 L31.2352494,24.7242392 C34.2475758,23.1918302 36.7592029,21.570738 38.8034735,19.7173194 L42.8348033,19.7104732 C43.2271101,19.6726628 43.5756606,19.4843301 43.8209064,19.2031715 C44.0508789,18.9395228 44.1903004,18.594756 44.1903004,18.2173913 C44.1903004,17.8031777 44.0224072,17.4281777 43.7509606,17.1567311 C43.479514,16.8852845 43.104514,16.7173913 42.6903004,16.7173913 L41.5457491,16.7176552 C44.3869514,12.9086022 45.7904155,8.11723077 45.8546773,1.4818679 L45.8587677,-0.25 L12.8678638,-0.25 L12.8678638,1 L12.8657439,1.54788267 C12.848516,3.74106951 12.7251621,5.56511632 12.4635573,7.15384938 L8.50783606,7.15907612 C8.11546197,7.19684959 7.76684819,7.38519574 7.52156796,7.66639375 C7.29159544,7.93004246 7.15217391,8.27480921 7.15217391,8.65217391 C7.15217391,9.06638748 7.32006713,9.44138748 7.59151374,9.71283408 C7.86296035,9.98428069 8.23796035,10.1521739 8.65217391,10.1521739 L11.711771,10.1526581 C11.3679361,11.1239868 10.937347,12.0182396 10.4082951,12.8921649 L7.55096182,12.8982405 C7.15873145,12.9360928 6.81025299,13.1244104 6.56504622,13.4055242 C6.3350737,13.6691729 6.19565217,14.0139396 6.19565217,14.3913043 C6.19565217,14.8055179 6.36354539,15.1805179 6.634992,15.4519645 C6.90643861,15.7234111 7.28143861,15.8913043 8.19556639,15.8913157 C8.02994868,16.0858569 7.85923252,16.2823744 7.68331299,16.4814197 L6.77204805,17.5064852 C1.79319055,23.2290626 0.890015788,28.4892923 5.12466217,42.1917372 Z M26.8254515,35.0380342 L19.425767,35.04492 C19.0333231,35.0826551 18.6846436,35.2710152 18.4393278,35.5522541 C18.2093552,35.8159028 18.0699337,36.1606695 18.0699337,36.5380342 C18.0699337,36.9522478 18.2378269,37.3272478 18.5092735,37.5986944 C18.7807202,37.870141 19.1557202,38.0380342 19.5699337,38.0380342 L26.9696183,38.0311485 C27.3620621,37.9934133 27.7107416,37.8050533 27.9560575,37.5238144 C28.18603,37.2601657 28.3254515,36.9153989 28.3254515,36.5380342 C28.3254515,36.1238207 28.1575583,35.7488207 27.8861117,35.477374 C27.6146651,35.2059274 27.2396651,35.0380342 26.8254515,35.0380342 Z M32.9427195,35.0380342 L29.9468983,35.0449785 C29.5547022,35.0828497 29.2062561,35.2711604 28.9610669,35.5522541 C28.7310944,35.8159028 28.5916728,36.1606695 28.5916728,36.5380342 C28.5916728,36.9522478 28.7595661,37.3272478 29.0310127,37.5986944 C29.3024593,37.870141 29.6774593,38.0380342 30.0916728,38.0380342 L33.0874938,38.0310899 C33.47969,37.9932189 33.8281362,37.8049081 34.0733255,37.5238144 C34.303298,37.2601657 34.4427195,36.9153989 34.4427195,36.5380342 C34.4427195,36.1238207 34.2748263,35.7488207 34.0033797,35.477374 C33.7319331,35.2059274 33.3569331,35.0380342 32.9427195,35.0380342 Z M34.4776255,31.2119473 L24.20849,31.218822 C23.8159995,31.2565316 23.4672762,31.4449009 23.2219365,31.7261671 C22.9919639,31.9898158 22.8525424,32.3345826 22.8525424,32.7119473 C22.8525424,33.1261608 23.0204356,33.5011608 23.2918822,33.7726074 C23.5633288,34.044054 23.9383288,34.2119473 24.3525424,34.2119473 L34.6216779,34.2050725 C35.0141683,34.1673629 35.3628917,33.9789936 35.6082314,33.6977274 C35.8382039,33.4340787 35.9776255,33.089312 35.9776255,32.7119473 C35.9776255,32.2977337 35.8097322,31.9227337 35.5382856,31.6512871 C35.266839,31.3798405 34.891839,31.2119473 34.4776255,31.2119473 Z M4.61486584,12.8913043 L0.85543408,12.8982285 C0.463152974,12.936053 0.11462675,13.1243807 -0.130605956,13.4055242 C-0.360578476,13.6691729 -0.5,14.0139396 -0.5,14.3913043 C-0.5,14.8055179 -0.332106781,15.1805179 -0.0606601718,15.4519645 C0.210786438,15.7234111 0.585786438,15.8913043 1,15.8913043 L4.75943161,15.8843802 C5.15171278,15.8465557 5.50023906,15.6582281 5.7454718,15.3770845 C5.97544432,15.1134358 6.11486584,14.7686691 6.11486584,14.3913043 C6.11486584,13.9770908 5.94697262,13.6020908 5.67552601,13.3306442 C5.4040794,13.0591976 5.0290794,12.8913043 4.61486584,12.8913043 Z" id="形状结合"></path>
        </g>
        <line x1="11.921213" y1="53.6905224" x2="41.5171962" y2="53.6905224" id="路径-" stroke="#000000" stroke-width="1.5" stroke-linecap="round"></line>
        <g id="路径" fill-rule="nonzero">
            <path stroke="#FFFFFF" stroke-width="2.25" d="M53.4663226,12.125 L25.2309947,12.125 C25.0210589,21.8912721 22.0620246,25.1561204 19.2171594,28.3302688 C15.5206676,32.4589135 12.5282738,36.0955274 17.728836,52.5597826 L22.9928638,52.1603261 C22.9928638,47.2412267 24.2479348,43.8721764 26.2490242,41.3281369 C28.8414554,38.0323083 32.7514757,36.1374197 37.0286609,34.1200255 C41.5312623,31.9955219 46.4167615,29.7397456 49.6858747,25.1247976 C51.8642662,22.0496016 53.3024239,17.9262179 53.4663226,12.125 Z" stroke-linejoin="square" fill="#E9F4F5" fill-rule="evenodd"></path>
            <use stroke="#000000" stroke-width="1.5" xlink:href="#path-1"></use>
        </g>
        <g id="路径--" stroke-linecap="round">
            <use stroke="#FFFFFF" stroke-width="4.5" xlink:href="#path-2"></use>
            <use stroke="#000000" stroke-width="1.5" xlink:href="#path-2"></use>
        </g>
        <line x1="36.826087" y1="28.2173913" x2="39.6771336" y2="28.2173913" id="路径--" stroke="#000000" stroke-width="1.5" stroke-linecap="round"></line>
        <g id="路径--" stroke-linecap="round">
            <use stroke="#FFFFFF" stroke-width="4.5" xlink:href="#path-3"></use>
            <use stroke="#000000" stroke-width="1.5" xlink:href="#path-3"></use>
        </g>
        <line x1="32.0434783" y1="18.6521739" x2="34.8945249" y2="18.6521739" id="路径--" stroke="#000000" stroke-width="1.5" stroke-linecap="round"></line>
        <g id="路径--" stroke-linecap="round">
            <use stroke="#FFFFFF" stroke-width="3" xlink:href="#path-4"></use>
            <use stroke="#000000" stroke-width="1.5" xlink:href="#path-4"></use>
        </g>
        <line x1="11" y1="24.3913043" x2="14.6148658" y2="24.3913043" id="路径-" stroke="#000000" stroke-width="1.5" stroke-linecap="round"></line>
        <line x1="29.5699337" y1="46.5380342" x2="36.8254515" y2="46.5380342" id="路径-" stroke="#000000" stroke-width="1.5" stroke-linecap="round"></line>
        <line x1="34.3525424" y1="42.7119473" x2="44.4776255" y2="42.7119473" id="路径-" stroke="#000000" stroke-width="1.5" stroke-linecap="round"></line>
        <line x1="40.0916728" y1="46.5380342" x2="42.9427195" y2="46.5380342" id="路径-" stroke="#000000" stroke-width="1.5" stroke-linecap="round"></line>
    </g>
</svg>