<?xml version="1.0" encoding="UTF-8"?>
<svg width="64px" height="64px" viewBox="0 0 64 64" version="1.1" xmlns="http://www.w3.org/2000/svg" xmlns:xlink="http://www.w3.org/1999/xlink">
    <title>news</title>
    <g id="news" stroke="none" stroke-width="1" fill="none" fill-rule="evenodd">
        <rect id="Rectangle" x="0" y="0" width="64" height="64"></rect>
        <g id="Group" transform="translate(12.333333, 7.666667)">
            <path d="M32,-0.0833333333 L3,-0.0833333333 C1.96446609,-0.0833333333 1.02696609,0.336399714 0.348349571,1.01501624 C-0.330266953,1.69363276 -0.75,2.63113276 -0.75,3.66666667 L-0.75,41 C-0.75,43.0480559 0.080138693,44.9022226 1.42229137,46.2443753 C2.76444405,47.586528 4.61861072,48.4166667 6.66666667,48.4166667 L37.4481371,48.1375755 C38.0502544,48.3190087 38.6887241,48.4166667 39.35,48.4166667 C41.1679373,48.4166667 42.8137706,47.679802 44.0051196,46.488453 C45.1964687,45.297104 45.9333333,43.6512706 45.9333333,41.8333333 L45.9279999,32.9732152 L45.8798519,22.2560478 C45.6523234,21.0371527 45.1136087,20.1177741 44.3102722,19.4975077 C43.5482463,18.9091378 42.5312954,18.5818983 41.2491603,18.5833338 L35.7492813,18.5827467 L35.7499999,16.666948 L35.75,3.66666667 C35.75,2.63113276 35.330267,1.69363276 34.6516504,1.01501624 C33.9730339,0.336399714 33.0355339,-0.0833333333 32,-0.0833333333 Z" id="形状结合" stroke="#FFFFFF" stroke-width="1.5"></path>
            <path d="M34.25,5.08333333 L0.75,5.08333333 L0.75,41 C0.75,42.6338424 1.41224547,44.1130091 2.48295154,45.1837151 C3.55365762,46.2544212 5.03282428,46.9166667 6.66666667,46.9166667 L38.7544159,46.9166667 L34.25,25.7574946 L34.25,5.08333333 Z" id="Rectangle-" stroke="#000000" stroke-width="1.5" fill="#FFFFFF"></path>
            <path d="M40.6855082,20.0833333 L34.2666667,20.0833333 L34.2666667,41.8333333 C34.2666667,43.2370571 34.8356381,44.5078904 35.7555405,45.4277928 C36.6754429,46.3476952 37.9462763,46.9166667 39.35,46.9166667 C40.7537237,46.9166667 42.0245571,46.3476952 42.9444595,45.4277928 C43.8643619,44.5078904 44.4333333,43.2370571 44.4333333,41.8333333 L44.4333333,33.097226 L40.6855082,20.0833333 Z" id="Rectangle-" stroke="#000000" stroke-width="1.5" fill="#E9F4F5"></path>
            <path d="M40.1732492,20.0833333 L34.2666667,20.0833333 L34.2666667,32.75 L38.6,32.75 L38.6,24.3403755 L40.1732492,20.0833333 Z" id="Rectangle-" stroke="#000000" stroke-width="1.5" fill="#FFFFFF"></path>
            <path d="M45,19.3333333 L45,29.75 C45,31.8210678 43.3210678,33.5 41.25,33.5 C39.1789322,33.5 37.5,31.8210678 37.5,29.75 L37.5,19.3333333" id="Rectangle" fill="#E9F4F5" transform="translate(41.250000, 26.416667) scale(1, -1) translate(-41.250000, -26.416667) "></path>
            <rect id="Rectangle-" fill="#000000" x="34.3333337" y="31.8333333" width="4" height="1.66666667"></rect>
            <path d="M32,1.41666667 L3,1.41666667 C2.37867966,1.41666667 1.81617966,1.66850649 1.40900974,2.07567641 C1.00183983,2.48284632 0.75,3.04534632 0.75,3.66666667 L0.75,15.9166667 L34.25,15.9166667 L34.25,3.66666667 C34.25,3.04534632 33.9981602,2.48284632 33.5909903,2.07567641 C33.1838203,1.66850649 32.6213203,1.41666667 32,1.41666667 Z" id="Rectangle-" stroke="#000000" stroke-width="1.5" fill="#ED6969"></path>
            <rect id="Rectangle-" fill="#BDCFD1" x="5.66666667" y="24.3333333" width="6" height="1.5"></rect>
            <rect id="Rectangle--" fill="#BDCFD1" x="14.6666667" y="24.3333333" width="15" height="1.5"></rect>
            <rect id="Rectangle---" fill="#BDCFD1" x="5.66666667" y="30.3333333" width="24" height="1.5"></rect>
            <rect id="Rectangle---" fill="#BDCFD1" x="5.66666667" y="36.3333333" width="24" height="1.5"></rect>
            <path d="M38.3333333,33.5 L38.3333333,22.6666667 C38.6061293,20.9428158 39.6220128,20.0808904 41.3809839,20.0808904 C43.1399551,20.0808904 44.1558386,20.9428158 44.4286346,22.6666667 L44.4286346,33.925146" id="路径" stroke="#000000" stroke-width="1.5"></path>
            <line x1="5.66666667" y1="6.5" x2="14.6666667" y2="6.5" id="路径-3备份" stroke="#FFFFFF" stroke-width="1.5"></line>
            <line x1="5.66666667" y1="10.5" x2="25.6666667" y2="10.5" id="路径-3备份" stroke="#FFFFFF" stroke-width="1.5"></line>
        </g>
    </g>
</svg>