<?xml version="1.0" encoding="UTF-8"?>
<svg width="64px" height="64px" viewBox="0 0 64 64" version="1.1" xmlns="http://www.w3.org/2000/svg" xmlns:xlink="http://www.w3.org/1999/xlink">
    <title>pig</title>
    <g id="pig" stroke="none" stroke-width="1" fill="none" fill-rule="evenodd">
        <rect id="矩形-" x="0" y="1.13686838e-13" width="64" height="64"></rect>
        <g id="编组" transform="translate(3.600000, 14.000000)">
            <path d="M17.7278539,1.55999005 C23.2503837,-0.454700668 29.5512878,-1.18468065 35.2559156,-0.434955177 C40.6113408,0.268876671 45.4347508,2.27942774 48.6484823,5.70980498 C49.6046242,6.73040285 50.3915331,7.74137746 51.0259045,8.75063523 C50.9996886,8.69379935 50.9747667,8.63611035 50.951175,8.57754249 C50.4876625,7.24249322 50.6004508,5.90789395 51.1431284,4.96720457 C51.4339319,4.46311925 51.8458964,4.06371238 52.3634668,3.81374466 C52.8310522,3.58791788 53.3895034,3.48134543 54.0362291,3.55277055 C55.5403716,3.71888978 56.4980477,4.35104862 57.0294286,5.22478847 C57.3546926,5.75961414 57.5234109,6.40544381 57.5251899,7.13502371 C57.7019238,6.9413855 57.8627148,6.7146592 58.0041575,6.45878764 C58.230195,6.01964254 58.533626,5.75221279 58.8384547,5.60798603 C59.2551559,5.41082791 59.7000643,5.42134464 60.1005491,5.62041449 C60.4714663,5.80478713 60.7325371,6.12204915 60.8547854,6.48594732 C60.9770337,6.84984549 60.9604595,7.26037981 60.7760869,7.63129706 C59.7884413,9.61822299 58.1373611,10.7123193 56.471766,11.0671447 C55.3878224,12.6312046 54.1615483,13.9518604 53.1075994,14.5827505 C53.3362089,16.709057 53.0466686,18.9018291 52.3558945,21.2361226 L52.3558945,21.2361226 L51.7209768,23.2184286 L51.1629771,26.5765183 C50.8268048,28.4954887 50.5802962,29.4311458 50.2198461,30.4408275 C49.646484,32.046912 47.991972,33.8519455 46.1207161,35.1020411 C44.2448837,36.3551942 42.1988286,36.9865159 40.8202058,36.5686673 C39.990301,36.3171304 39.4283356,35.8275015 39.0973693,35.2215756 C38.7522423,34.5897246 38.6581599,33.8127493 38.8361009,33.0008595 C38.9012029,32.7038193 38.9979947,32.4038264 39.1350421,32.0612353 L39.1350421,32.0612353 L39.8272531,30.5034896 C39.9202713,30.2872778 39.9896826,30.1101938 40.0464241,29.9405869 C39.9951257,28.914704 39.7388873,28.3763389 39.4636829,27.9505835 C39.0606554,28.0960714 38.7429343,28.226135 38.4393255,28.3502847 C38.278625,28.4159973 38.1216853,28.4801471 37.958998,28.5440746 C35.1316537,29.5495772 32.8161453,30.019043 30.1916986,30.1666786 C26.7874579,30.3581808 24.5128994,30.2228583 22.5811502,29.8169455 L22.5811502,29.8169455 L22.0977302,30.4554073 L21.8608901,30.9348828 C21.6745136,31.303791 21.49381,31.6413262 21.3165867,31.9490932 C19.1745662,35.229961 16.69684,36.6653988 14.0340255,36.6653988 C13.1649576,36.6653988 12.4842442,36.3410004 12.0121027,35.839549 C11.5195403,35.3164089 11.2464371,34.5822961 11.2717759,33.7549 C11.2801036,33.4829741 11.3158168,33.2088288 11.3813644,32.8838213 L11.3813644,32.8838213 L11.7053269,31.5102276 C11.8654556,30.7962857 11.9272371,30.2969032 11.8656598,29.8299536 C11.8104025,29.4109289 11.6355947,29.0694704 11.2928499,28.7570054 C10.4668552,28.0039832 9.56915057,27.52353 7.76496581,26.7521245 L7.76496581,26.7521245 L6.46678871,26.19967 C3.28179825,24.812319 1.77978051,23.7624478 0.48109562,21.7275608 L0.48109562,21.7275608 L0.0480840131,20.6740012 C-0.56563726,17.9101337 -0.638903158,13.6283412 0.251123758,11.8821197 L0.251123758,11.8821197 L1.00993267,10.5957031 L2.28752056,10.5957031 C4.00112453,10.5957031 5.28336245,10.1139347 6.82139048,8.99004759 C5.80840884,7.42825412 5.14074451,5.28536985 5.07184258,3.42745225 L5.07184258,3.42745225 L5.06313882,-0.269861872 L8.22709706,1.04540524 C8.4450377,1.11940733 8.77940085,1.16046821 9.36119722,1.20822939 L9.36119722,1.20822939 L10.6770094,1.29580551 L11.6867055,1.36985783 C13.4536048,1.52757664 14.7217351,1.84280365 15.6384479,2.44613679 C16.3024339,2.12110023 16.9938325,1.8277706 17.7278539,1.55999005 Z M51.443,9.452 L51.6507968,9.83707693 C51.9205184,10.353488 52.1518566,10.8701927 52.3470495,11.3882508 C52.5169717,11.2050284 52.6946145,10.9936146 52.8721319,10.7636163 C52.3039128,10.3837989 51.8143883,9.95477392 51.4412739,9.44980712 L51.443,9.452 Z M53.6806814,6.59833739 C53.5912324,6.81240306 53.6131175,7.10947161 53.7177153,7.41324568 C53.7824445,7.60123282 53.9107873,7.75294103 54.385721,8.03645949 C54.5284592,7.61165495 54.5827063,7.25634142 54.3019394,6.73785825 C54.1442467,6.63188473 53.9160368,6.61476204 53.6806814,6.59833739 Z" id="wb" stroke="#FFFFFF" stroke-width="1.5" fill-rule="nonzero"></path>
            <path d="M6.56578947,3.10526316 C6.56578947,4.26371714 6.91034392,5.78077146 7.4789496,7.06148833 C8.02815253,8.2985028 8.79762002,9.28657581 9.60811033,9.67570166 C10.1295978,9.92607386 10.9564384,9.94363972 11.8767719,9.68449614 C12.6799362,9.45834454 13.5518261,9.0391439 14.2709131,8.50640847 C14.921949,8.02408875 15.4436832,7.44707928 15.7221934,6.84627546 C16.0183119,6.20748699 16.061784,5.53841087 15.7732906,4.88035286 C15.4364735,4.11206763 14.7561353,3.59644064 13.8383669,3.2842643 C12.8212474,2.93829396 11.4992995,2.84768824 10.2505162,2.77261734 C9.21119766,2.71013847 8.22621551,2.67211439 7.6042577,2.41295825 C7.31601761,2.29285495 7.00660144,2.08394603 6.68028638,1.82526112 C6.60548337,2.27755432 6.56578947,2.71206476 6.56578947,3.10526316 Z" id="Path-" stroke="#000000" stroke-width="1.5" fill="#BF7871" fill-rule="nonzero"></path>
            <path d="M47.5538187,6.73533495 C44.4303489,3.40130405 39.9162058,1.68018589 35.1254197,1.07949992 C29.1485334,0.330096457 22.7566302,1.3221265 18.2419327,2.9691469 C14.5564794,4.31364818 12.2015991,6.36915138 10.0894171,8.22562405 C7.7614584,10.2717507 5.76445013,12.0957031 1.64442277,12.4597948 C0.788184866,13.8866744 1.11979533,18.7111098 1.64852967,20.7656153 C3.08613025,23.105012 5.42404796,24.1384818 7.82439587,25.1485372 C9.41031153,25.8158832 11.0178865,26.4765531 12.3034143,27.6485111 C12.9255748,28.2157068 13.2230968,28.8547518 13.3326568,29.5001877 C13.5117678,30.5553604 13.2283895,31.6192659 13.0212592,32.4544102 C12.8191329,33.2693787 12.6951757,33.9297437 14.0340255,35.1653988 C16.2748461,35.1653988 18.3740055,33.8546847 19.7961926,31.5694965 C20.4355259,30.5422076 21.0835389,29.1014873 21.5699366,28.0153545 C22.975096,28.4437838 25.345139,28.9369455 30.1074508,28.6690464 C35.6005376,28.3600382 38.7525683,26.5922079 39.7119654,26.0504721 C39.8947707,26.1339921 40.0808334,26.3098341 40.2727119,26.5302503 C40.7848491,27.1185568 41.2797863,28.0256107 41.6029725,28.9943712 C41.8873625,29.8468386 41.3104984,30.8825904 40.904305,31.7645893 C40.5286821,32.5802082 40.2094626,33.3159158 41.2552971,35.133155 C42.2038673,35.4206584 43.9199552,34.8349018 45.5306748,33.6851719 C47.0260625,32.6177657 48.3721735,31.1549991 48.8071666,29.9365098 C49.4307794,28.1896643 49.6199814,26.8333412 49.8452942,25.1838418 C49.9123274,24.6930964 49.9830043,24.1753912 50.0710835,23.6112263 C50.1322256,23.2195987 50.3055749,22.7106595 50.5074372,22.0993359 C51.1537513,20.1420268 52.0830542,17.2652591 51.4433834,13.9127177 C51.0193521,11.6903524 49.9119898,9.25247639 47.5538187,6.73533495 Z" id="Path-" stroke="#000000" stroke-width="1.5" fill="#F5AAA2" fill-rule="nonzero"></path>
            <path d="M18.7944283,12.1305219 C16.2853245,11.1673672 16.1882698,8.80707667 15.7433213,5.2454556 C18.5307298,6.73633493 22.6297786,6.31985881 23.0355933,8.67039366 C23.4414081,11.0209285 21.3035322,13.0936766 18.7944283,12.1305219 Z" id="Path-" fill="#FFD4CF" fill-rule="nonzero" transform="translate(19.414317, 8.808779) rotate(-21.000000) translate(-19.414317, -8.808779) "></path>
            <path d="M2.28752056,12.8457031 C4.26274671,13.8263775 4.26274671,21.2066201 2.28752056,20.3729441 C1.88224712,18.6750103 1.48853824,14.177169 2.28752056,12.8457031 Z" id="Path-" fill="#BF7871" fill-rule="nonzero"></path>
            <circle id="Oval" fill="#000000" fill-rule="nonzero" cx="11.5263158" cy="14.1578947" r="1.05263158"></circle>
            <path d="M50.2989934,12.1895176 C52.1210327,12.680441 59.6757138,7.05659425 55.0424582,4.86623966 C53.5659346,4.16821855 52.6255403,5.79259546 52.6255403,7.05659425 C52.6255403,8.95627762 56.3287452,11.7891686 59.6757138,8.49214376" id="路径-" stroke="#000000" stroke-width="1.5" stroke-linecap="round" transform="translate(54.987354, 8.459034) rotate(-19.000000) translate(-54.987354, -8.459034) "></path>
        </g>
    </g>
</svg>