<?xml version="1.0" encoding="UTF-8"?>
<svg width="64px" height="64px" viewBox="0 0 64 64" version="1.1" xmlns="http://www.w3.org/2000/svg" xmlns:xlink="http://www.w3.org/1999/xlink">
    <title>rain</title>
    <g id="rain" stroke="none" stroke-width="1" fill="none" fill-rule="evenodd">
        <rect id="Rectangle" x="0" y="0" width="64" height="64"></rect>
        <g id="Group-" transform="translate(6.666667, 13.666667)">
            <path d="M17.7069609,29.1065495 L14.8987743,39.5868447 C14.7915679,39.9869443 14.8566832,40.3926205 15.0486249,40.7250733 C15.2405666,41.0575261 15.5593349,41.3167557 15.9594344,41.423962 C16.359534,41.5311684 16.7652102,41.4660531 17.097663,41.2741114 C17.4301158,41.0821697 17.6893454,40.7634014 17.7965517,40.3633019 L20.6047384,29.8830067 L17.7069609,29.1065495 Z M30.9166383,29.1065495 L28.1084517,39.5868447 C28.0012453,39.9869443 28.0663606,40.3926205 28.2583023,40.7250733 C28.4502441,41.0575261 28.7690123,41.3167557 29.1691119,41.423962 C29.5692114,41.5311684 29.9748876,41.4660531 30.3073404,41.2741114 C30.6397933,41.0821697 30.8990228,40.7634014 31.0062292,40.3633019 L33.8144158,29.8830067 L30.9166383,29.1065495 Z M24.9408319,27.5565495 L22.1326452,38.0368447 C22.0254389,38.4369443 22.0905541,38.8426205 22.2824959,39.1750733 C22.4744376,39.5075261 22.7932058,39.7667557 23.1933054,39.873962 C23.593405,39.9811684 23.9990811,39.9160531 24.331534,39.7241114 C24.6639868,39.5321697 24.9232163,39.2134014 25.0304227,38.8133019 L27.8386093,28.3330067 L24.9408319,27.5565495 Z M37.9714882,27.5713714 L35.1462032,38.1154787 C35.0437184,38.4979571 35.1059659,38.8857664 35.2894541,39.2035773 C35.4729423,39.5213882 35.7776713,39.7692007 36.1601496,39.8716855 C36.5426279,39.9741702 36.9304372,39.9119228 37.2482481,39.7284346 C37.566059,39.5449464 37.8138716,39.2402174 37.9163563,38.857739 L40.7416414,28.3136317 L37.9714882,27.5713714 Z M18.9104695,24.6149944 L17.7199019,29.0582532 L20.6176793,29.8347104 L21.8082469,25.3914516 L18.9104695,24.6149944 Z M32.1201469,24.6149944 L30.9295793,29.0582532 L33.8273568,29.8347104 L35.0179244,25.3914516 L32.1201469,24.6149944 Z M26.1443404,23.0649944 L24.9537728,27.5082532 L27.8515503,28.2847104 L29.0421179,23.8414516 L26.1443404,23.0649944 Z M39.1786597,23.0991913 L37.9880921,27.5424501 L40.7582453,28.2847104 L41.9488129,23.8414516 L39.1786597,23.0991913 Z M41.1443691,7.6014137 C39.4034058,3.56718505 36.2801211,1.24420621 32.8386712,0.382747578 C29.0494499,-0.565764666 24.8623859,0.272395114 21.6898461,2.58757146 C19.3641084,0.616522152 16.1361659,-0.198619599 13.2290025,0.493999434 C10.6389882,1.11105906 8.28218014,2.90778067 7.04682913,6.17719858 C4.27780662,6.29606036 1.89537555,7.34142843 0.518323663,9.271833 C-0.815437307,11.1415507 -1.25337475,13.8805866 -0.0341316081,17.5693074 L9.5177429,17.5686135 C9.13617526,19.241527 9.31514892,21.2328378 10.4422526,23.89 L50.6774971,23.89 L50.9947548,22.8143423 C52.2912787,18.4184969 51.8040106,14.8183165 50.0488413,12.2192962 C48.2774904,9.59631453 45.1861572,7.95300433 41.1443691,7.6014137 Z" id="wb" stroke="#FFFFFF" stroke-width="1.5"></path>
            <path d="M7.58145374,7.66622043 C5.13773467,7.66622043 2.95113613,8.44436478 1.73946473,10.1429326 C0.746739384,11.5345734 0.445534814,13.5123339 1.08952091,16.0692673 L28.7062064,16.0692673 C29.146407,14.6284725 28.9328938,13.293051 28.2187218,12.2813064 C27.395757,11.1154385 25.9375789,10.4032419 24.1780153,10.4032419 C23.9080237,10.4032419 23.645128,10.4200103 23.3905344,10.452613 C23.4152583,10.1921864 23.4280153,9.92555642 23.4280153,9.65324192 C23.4280153,7.60944863 22.7094231,5.88585823 21.5743433,4.57704647 C20.3052981,3.11376494 18.5221514,2.16719787 16.6547767,1.85923982 C14.885717,1.56749539 13.0365329,1.84944122 11.4809286,2.830133 C10.0991989,3.70120997 8.95859843,5.1218411 8.29417368,7.14973765 C8.23577698,7.32797075 8.18312137,7.50459907 8.13605503,7.67955977 C7.95283904,7.67074983 7.76789471,7.66622043 7.58145374,7.66622043 Z" id="Path-" stroke="#000000" stroke-width="1.5" fill="#BDCFD1"></path>
            <path d="M11.4831609,22.39 C8.86837003,13.5245897 14.1201798,9.29070458 20.8406936,9.3328 C25.1244773,-3.58794669 42.9500018,0.706805801 42.9584981,12.8482 C48.2953314,12.9111108 51.7200341,17.2987661 49.5938395,22.39 L11.4831609,22.39 Z" id="Path" fill="#FFFFFF" fill-rule="nonzero" transform="translate(30.515727, 11.929134) scale(-1, 1) translate(-30.515727, -11.929134) "></path>
            <path d="M14.1653779,19.3147917 C18.7039293,19.3147917 44.1959028,19.3147917 47.3468295,19.3147917 C47.6101292,16.4420695 43.537775,15.2212931 39.9557004,16.2147917 C42.5304941,2.44325359 24.5119296,0.246840013 23.6008617,12.6497917 C19.2691238,11.7294524 13.3231872,12.8718473 14.1653779,19.3147917 Z" id="Path-" fill="#E9F4F5" transform="translate(30.721920, 11.906629) scale(-1, 1) translate(-30.721920, -11.906629) "></path>
            <path d="M22.2369415,16.8193797 C21.3216215,13.8713221 18.8275265,11.6011506 15.4374601,10.8577927 L15.2046746,10.809 L15.1875071,10.6729655 C14.683572,7.27316978 12.9913513,4.48951268 10.7065129,2.55125936 C9.8751588,3.09683054 9.26914529,3.66735258 8.88847235,4.26282545 C8.64046249,4.6507783 10.4471464,5.48778719 11.5511173,7.65945947 C11.9688404,8.48118181 12.4327744,10.2454371 12.9429194,12.9522254 C14.8115042,13.0990169 16.1696763,13.4106611 17.0174357,13.8871579 C17.8651951,14.3636546 18.8004394,15.3410619 19.8231686,16.8193797 C20.8826263,16.8193797 21.6872172,16.8193797 22.2369415,16.8193797 Z" id="路径" fill="#FFFFFF" fill-rule="nonzero" transform="translate(15.551158, 9.685320) scale(-1, 1) translate(-15.551158, -9.685320) "></path>
            <path d="M11.4831609,22.39 C8.86837003,13.5245897 14.1201798,9.29070458 20.8406936,9.3328 C25.1244773,-3.58794669 42.9500018,0.706805801 42.9584981,12.8482 C48.2953314,12.9111108 51.7200341,17.2987661 49.5938395,22.39 L11.4831609,22.39 Z" id="Path" stroke="#000000" stroke-width="1.5" fill-rule="nonzero" transform="translate(30.515727, 11.929134) scale(-1, 1) translate(-30.515727, -11.929134) "></path>
            <path d="M18.9093963,30.1135925 L18.9093963,40.2135925 C18.9093963,40.6278061 18.5736099,40.9635925 18.1593963,40.9635925 C17.7451828,40.9635925 17.4093963,40.6278061 17.4093963,40.2135925 L17.4093963,30.1135925 L18.9093963,30.1135925 Z M18.9093963,25.4635925 L18.9093963,28.5635925 L17.4093963,28.5635925 L17.4093963,25.4635925 L18.9093963,25.4635925 Z" id="Combined-Shape" fill="#000000" transform="translate(18.159396, 33.213593) rotate(15.000000) translate(-18.159396, -33.213593) "></path>
            <path d="M32.1190737,30.1135925 L32.1190737,40.2135925 C32.1190737,40.6278061 31.7832873,40.9635925 31.3690737,40.9635925 C30.9548602,40.9635925 30.6190737,40.6278061 30.6190737,40.2135925 L30.6190737,30.1135925 L32.1190737,30.1135925 Z M32.1190737,25.4635925 L32.1190737,28.5635925 L30.6190737,28.5635925 L30.6190737,25.4635925 L32.1190737,25.4635925 Z" id="Combined-Shape--" fill="#000000" transform="translate(31.369074, 33.213593) rotate(15.000000) translate(-31.369074, -33.213593) "></path>
            <path d="M26.1432673,28.5635925 L26.1432673,38.6635925 C26.1432673,39.0778061 25.8074808,39.4135925 25.3932673,39.4135925 C24.9790537,39.4135925 24.6432673,39.0778061 24.6432673,38.6635925 L24.6432673,28.5635925 L26.1432673,28.5635925 Z M26.1432673,23.9135925 L26.1432673,27.0135925 L24.6432673,27.0135925 L24.6432673,23.9135925 L26.1432673,23.9135925 Z" id="Combined-Shape-" fill="#000000" transform="translate(25.393267, 31.663593) rotate(15.000000) translate(-25.393267, -31.663593) "></path>
            <path d="M39.0416034,28.56212 L39.0416034,38.7281833 C39.0416034,39.1059111 38.7353944,39.41212 38.3576666,39.41212 C37.9799387,39.41212 37.6737298,39.1059111 37.6737298,38.7281833 L37.6737298,28.56212 L39.0416034,28.56212 Z M39.0501561,23.9298868 L39.0501561,27.0298868 L37.6822826,27.0298868 L37.6822826,23.9298868 L39.0501561,23.9298868 Z" id="Combined-Shape--" fill="#000000" transform="translate(38.361943, 31.671003) rotate(15.000000) translate(-38.361943, -31.671003) "></path>
        </g>
    </g>
</svg>