<?xml version="1.0" encoding="UTF-8"?>
<svg width="64px" height="64px" viewBox="0 0 64 64" version="1.1" xmlns="http://www.w3.org/2000/svg" xmlns:xlink="http://www.w3.org/1999/xlink">
    <title>compass</title>
    <g id="compass" stroke="none" stroke-width="1" fill="none" fill-rule="evenodd">
        <rect id="矩形-" x="0" y="0" width="64" height="64"></rect>
        <g id="Group-" transform="translate(9.000000, 3.000000)" fill-rule="nonzero">
            <path d="M23,0.0863171355 C21.4108841,0.0863171355 19.9725259,0.729892556 18.9313585,1.77015541 C17.889744,2.81086494 17.2456522,4.24859354 17.2456522,5.83631714 C17.2456522,7.04199083 17.6170438,8.16117544 18.2519287,9.08524804 C13.1524541,10.1461291 8.6641084,12.8809847 5.38572109,16.69156 C1.87372423,20.7736673 -0.25,26.0897648 -0.25,31.9028133 C-0.25,38.3375273 2.35215286,44.1633678 6.55923447,48.3804919 C10.7666741,52.5979749 16.5792613,55.2065217 23,55.2065217 C29.4207387,55.2065217 35.2333259,52.5979749 39.4407655,48.3804919 C43.6478471,44.1633678 46.25,38.3375273 46.25,31.9028133 C46.25,26.0896947 44.1262238,20.77354 40.6141824,16.6915632 C37.3360174,12.8814164 32.8480966,10.1469786 27.748517,9.0866837 C28.3827477,8.16184285 28.7543478,7.04233626 28.7543478,5.83631714 C28.7543478,4.24859354 28.110256,2.81086494 27.0686415,1.77015541 C26.0274741,0.729892556 24.5891159,0.0863171355 23,0.0863171355 Z" id="wb" stroke="#FFFFFF" stroke-width="1.5"></path>
            <path d="M23,10.8363171 C20.2355999,10.8363171 17.9956522,8.59716908 17.9956522,5.83631714 C17.9956522,3.07546519 20.2355999,0.836317136 23,0.836317136 C25.7644001,0.836317136 28.0043478,3.07546519 28.0043478,5.83631714 C28.0043478,8.59716908 25.7644001,10.8363171 23,10.8363171 Z" id="wb" fill="#FFFFFF"></path>
            <path d="M23,1.58631714 C21.8250027,1.58631714 20.7614195,2.06208336 19.9915576,2.83127643 C19.2217668,3.60039845 18.7456522,4.66290225 18.7456522,5.83631714 C18.7456522,7.00973202 19.2217668,8.07223582 19.9915576,8.84135784 C20.7614195,9.61055091 21.8250027,10.0863171 23,10.0863171 C24.1749973,10.0863171 25.2385805,9.61055091 26.0084424,8.84135784 C26.7782332,8.07223582 27.2543478,7.00973202 27.2543478,5.83631714 C27.2543478,4.66290225 26.7782332,3.60039845 26.0084424,2.83127643 C25.2385805,2.06208336 24.1749973,1.58631714 23,1.58631714 Z" id="Path" stroke="#000000" stroke-width="1.5"></path>
            <path d="M22.1,6.8516624 L23.9,6.8516624 C24.5075132,6.8516624 25,7.34414918 25,7.9516624 L25,11.8516624 L25,11.8516624 L21,11.8516624 L21,7.9516624 C21,7.34414918 21.4924868,6.8516624 22.1,6.8516624 Z" id="Mask" fill="#000000"></path>
            <ellipse id="Oval" stroke="#000000" stroke-width="1.5" fill="#BDCFD1" cx="23" cy="31.9028133" rx="21.75" ry="21.8037084"></ellipse>
            <ellipse id="Oval" fill="#FFFFFF" cx="23" cy="31.9028133" rx="18" ry="18.0460358"></ellipse>
            <g id="编组" transform="translate(4.032177, 12.227431)">
                <path d="M19.1449729,4.80677981 L19.9162299,17.2007798 L29.2153245,8.993922 L29.5364848,9.29204964 L21.3182299,18.6007798 L33.696542,19.3736202 L33.7128286,19.8115228 L21.3182299,20.5827798 L29.5256864,29.8818744 L29.2275588,30.2030347 L19.9162299,21.9837798 L19.1459882,34.363092 L18.7080855,34.3793785 L17.9342299,21.9847798 L8.63773396,30.1922363 L8.31657368,29.8941087 L16.5332299,20.5827798 L4.15651642,19.8125382 L4.14022989,19.3746355 L16.5332299,18.6007798 L8.32737207,9.30428389 L8.62549971,8.98312361 L17.9342299,17.1997798 L18.7070702,4.82306635 L19.1449729,4.80677981 Z" id="Combined-Shape" fill="#BDCFD1"></path>
                <g id="Group" transform="translate(19.187910, 19.443861) rotate(-315.000000) translate(-19.187910, -19.443861) translate(15.687910, -3.556139)">
                    <path d="M4.50799554,8.0644716 L6.84137931,23.2903372 L6.84137931,23.2903372 L5.11146681e-13,23.2903372 L2.33338377,8.0644716 C2.42541155,7.46396914 2.98681824,7.05176897 3.5873207,7.14379676 C4.06238961,7.21660169 4.43519061,7.58940269 4.50799554,8.0644716 Z" id="Mask" fill="#ED6969" transform="translate(3.420690, 12.129944) rotate(-360.000000) translate(-3.420690, -12.129944) "></path>
                    <path d="M4.50799554,30.3852581 L6.84137931,45.6111237 L6.84137931,45.6111237 L7.40740802e-13,45.6111237 L2.33338377,30.3852581 C2.42541155,29.7847556 2.98681824,29.3725555 3.5873207,29.4645833 C4.06238961,29.5373882 4.43519061,29.9101892 4.50799554,30.3852581 Z" id="Mask" fill="#9086F9" transform="translate(3.420690, 34.450730) rotate(-540.000000) translate(-3.420690, -34.450730) "></path>
                    <ellipse id="Oval" stroke="#000000" stroke-width="1.5" fill="#E9F4F5" transform="translate(3.420690, 23.290337) rotate(-360.000000) translate(-3.420690, -23.290337) " cx="3.42068966" cy="23.2903372" rx="2.67068966" ry="2.67943822"></ellipse>
                </g>
            </g>
        </g>
    </g>
</svg>