<?xml version="1.0" encoding="UTF-8"?>
<svg width="64px" height="64px" viewBox="0 0 64 64" version="1.1" xmlns="http://www.w3.org/2000/svg" xmlns:xlink="http://www.w3.org/1999/xlink">
    <title>lock</title>
    <g id="lock" stroke="none" stroke-width="1" fill="none" fill-rule="evenodd">
        <rect id="Rectangle" x="0" y="0" width="64" height="64"></rect>
        <path d="M32.3778386,4.82085523 C35.3083969,4.81847107 37.8807785,5.9729442 39.7545719,7.84405851 C41.656913,9.74367965 42.8395293,12.3851208 42.9130333,15.310323 L42.9130333,15.310323 L42.9161261,26.4997399 L45.588298,26.5 C46.6298566,26.5 47.5756769,26.9097797 48.2766364,27.578319 C48.9848907,28.2538158 49.4426635,29.1938527 49.4949949,30.2408727 L49.4949949,30.2408727 L49.5,43.7675938 C49.5,47.4986515 48.0279429,50.8825489 45.6397001,53.3573165 C43.2412913,55.8426183 39.9190919,57.4111172 36.2340098,57.4963451 L36.2340098,57.4963451 L29.4158777,57.5 C25.7224455,57.5 22.3737343,56.0099631 19.9250641,53.5913217 C17.4708241,51.1671788 15.921104,47.8099008 15.8369412,44.0870765 L15.8369412,44.0870765 L15.8333333,30.4416126 C15.8333333,29.3951469 16.2384755,28.4433273 16.89895,27.7375684 C17.5695776,27.0209602 18.5033211,26.5581581 19.5447865,26.5050895 L19.5447865,26.5050895 L22.4163548,26.5007892 L22.4166667,15.5998136 C22.4166667,12.6871109 23.5171511,10.0372768 25.3049804,8.09524934 C27.1048193,6.1401764 29.5999799,4.9015277 32.3778386,4.82085523 Z M32.6459227,12.6589847 C32.0136203,12.6651001 31.4370782,12.9493055 31.0091112,13.4192122 C30.5562506,13.916452 30.2693488,14.6159564 30.2275217,15.429054 L30.2273453,26.4996669 L35.1053695,26.4996669 L35.105905,15.4105673 C35.105905,14.6619999 34.8419321,13.986199 34.3899508,13.4899247 C33.9543548,13.0116414 33.3452393,12.703973 32.6459227,12.6589847 Z" id="wb" stroke="#FFFFFF" stroke-width="1.5" fill-rule="nonzero"></path>
        <path d="M35.9176479,56 L29.4158777,56 C22.7428869,56 17.3333333,50.5233556 17.3333333,43.7676045 L17.3333333,30.4416126 C17.3333333,29.0931098 18.4131482,28 19.7450353,28 L45.588298,28 C46.9202812,28 48,29.0932071 48,30.4416126 L48,43.7676045 C48.0000961,50.523453 42.5906387,56 35.9176479,56 Z" id="Shape" stroke="#000000" stroke-width="1.5" fill="#BDCFD1" fill-rule="nonzero"></path>
        <path d="M36,39.2606996 C36,37.4598031 34.5076791,36 32.6666667,36 C30.8256543,36 29.3333333,37.4598031 29.3333333,39.2606996 C29.3333333,40.3584325 29.888612,41.3288278 30.7385192,41.9197215 L30.7385192,44.7805337 C30.7385192,45.8178478 31.6060949,46.6666667 32.6666667,46.6666667 L32.6666667,46.6666667 C33.7270874,46.6666667 34.5948142,45.8179955 34.5948142,44.7805337 L34.5948142,41.9197215 C35.4450233,41.3288278 36,40.3584325 36,39.2606996 Z" id="Shape" stroke="#000000" stroke-width="1.5" fill="#FFF9ED" fill-rule="nonzero"></path>
        <path d="M32.6666198,6.31666692 C30.2451449,6.31666692 28.0503889,7.35945783 26.4626607,9.05300745 C24.8918686,10.7284922 23.9166667,13.0421686 23.9166667,15.5998136 L23.9166667,27.8166669 L28.727522,27.8166669 L28.727522,15.4106035 C28.727522,14.2307142 29.1725984,13.1606612 29.8980991,12.3868062 C30.6066472,11.6310336 31.5841681,11.1588794 32.6667135,11.1588794 C33.7492302,11.1588794 34.7267569,11.6310466 35.4353159,12.3868308 C36.1608141,13.1606832 36.605905,14.2307255 36.605905,15.4106035 L36.605905,27.8166669 L41.4166667,27.8166669 L41.4166667,15.5998136 C41.4166667,13.0421339 40.441454,10.7284737 38.8706585,9.05300489 C37.2829043,7.35944741 35.0881109,6.31666692 32.6666198,6.31666692 Z" id="Shape" stroke="#000000" stroke-width="1.5" fill="#FFC55D" fill-rule="nonzero"></path>
    </g>
</svg>