<?xml version="1.0" encoding="UTF-8"?>
<svg width="64px" height="64px" viewBox="0 0 64 64" version="1.1" xmlns="http://www.w3.org/2000/svg" xmlns:xlink="http://www.w3.org/1999/xlink">
    <title>like</title>
    <g id="like" stroke="none" stroke-width="1" fill="none" fill-rule="evenodd">
        <rect id="Rectangle--" x="0" y="0" width="64" height="64"></rect>
        <path d="M32,6.25 C26.4622539,6.25 21.3328872,7.99825587 17.1345079,10.9715874 C16.23502,10.8138343 15.2885027,10.8443341 14.3500682,11.0957868 C12.599778,11.5647757 11.2077526,12.7066317 10.3899056,14.2083759 C9.64148859,15.5826316 9.37251747,17.2617796 9.76545663,19.0035203 C7.5312546,22.8181136 6.25,27.2594089 6.25,32 C6.25,39.1106662 9.13216692,45.5481662 13.7920004,50.2079996 C18.4518338,54.8678331 24.8893338,57.75 32,57.75 C39.1106662,57.75 45.5481662,54.8678331 50.2079996,50.2079996 C54.8678331,45.5481662 57.75,39.1106662 57.75,32 C57.75,26.963152 56.3036438,22.2641644 53.8044992,18.2950671 C54.0318396,16.7323927 53.6760926,15.1915917 52.8817012,13.921655 C52.0412767,12.5781286 50.7102579,11.5377533 49.0608166,11.0957868 C48.2925314,10.8899254 47.5188253,10.8322172 46.7704592,10.9045196 C42.5888427,7.97168837 37.4955075,6.25 32,6.25 Z" id="wb" stroke="#FFFFFF" stroke-width="1.5"></path>
        <circle id="Oval-" fill="#FBDC67" cx="32" cy="32" r="25"></circle>
        <path d="M55.672689,23.9412235 C56.5332091,26.4697498 57,29.1803625 57,32 C57,45.8071187 45.8071187,57 32,57 C19.5735931,57 9.26471863,47.9337662 7.32720779,36.0551299 L7.40137137,36.2731744 C10.816298,46.0145228 20.0923762,53 31,53 C44.8071187,53 56,41.8071187 56,28 C56,26.6192881 55.8880712,25.2647186 55.6727922,23.9448701 Z" id="Combined-Shape" fill="#F2CC5B"></path>
        <path d="M31.9002984,47.3636574 C38.9904707,47.3636574 44.8496248,42.0930419 45.7734811,35.2560907 C45.85711,34.6371985 45.7734811,33.3636574 44.1639702,33.3636574 C38.3546016,33.3636574 26.2462147,33.3636574 19.6308587,33.3636574 C18.0203027,33.3636574 17.9411421,34.6024177 18.0203027,35.2049616 C18.921785,42.0667471 24.7924618,47.3636574 31.9002984,47.3636574 Z" id="Oval-" fill="#4C4023"></path>
        <path d="M31.9699993,40.5 C35.3088508,40.5 38.2454028,42.2224491 39.9395502,44.8272422 C37.6656284,46.4258887 34.8939482,47.3636574 31.9032403,47.3636574 C28.9524901,47.3636574 26.2149539,46.4507796 23.9576438,44.892036 C25.6460229,42.2510738 28.6035185,40.5 31.9699993,40.5 Z" id="Combined-Shape" fill="#E74643"></path>
        <path d="M25.7156823,10.3494753 C23.8803985,10.3494753 22.2550328,11.2135421 21.2054424,12.5516454 C20.155852,11.2135421 18.5244887,10.3494753 16.6952025,10.3494753 C13.5284383,10.3494753 10.9554424,12.9176736 10.9554424,16.0919187 C10.9554424,21.522338 21.2054424,28.1588503 21.2054424,28.1588503 C21.2054424,28.1588503 31.4554424,21.6123449 31.4554424,16.0919187 C31.4554424,12.9236741 28.8884442,10.3494753 25.7156823,10.3494753 Z" id="Shape" fill="#E45353" fill-rule="nonzero" transform="translate(21.205442, 19.254163) rotate(-15.000000) translate(-21.205442, -19.254163) "></path>
        <path d="M46.7156823,10.3494753 C44.8803985,10.3494753 43.2550328,11.2135421 42.2054424,12.5516454 C41.155852,11.2135421 39.5244887,10.3494753 37.6952025,10.3494753 C34.5284383,10.3494753 31.9554424,12.9176736 31.9554424,16.0919187 C31.9554424,21.522338 42.2054424,28.1588503 42.2054424,28.1588503 C42.2054424,28.1588503 52.4554424,21.6123449 52.4554424,16.0919187 C52.4554424,12.9236741 49.8884442,10.3494753 46.7156823,10.3494753 Z" id="Shape-" fill="#E45353" fill-rule="nonzero" transform="translate(42.205442, 19.254163) scale(-1, 1) rotate(-15.000000) translate(-42.205442, -19.254163) "></path>
    </g>
</svg>