<?xml version="1.0" encoding="UTF-8"?>
<svg width="64px" height="64px" viewBox="0 0 64 64" version="1.1" xmlns="http://www.w3.org/2000/svg" xmlns:xlink="http://www.w3.org/1999/xlink">
    <title>oneHundred</title>
    <g id="oneHundred" stroke="none" stroke-width="1" fill="none" fill-rule="evenodd">
        <rect id="Rectangle-" x="0" y="0" width="64" height="64"></rect>
        <g id="编组" transform="translate(8.000000, 12.225085)">
            <path d="M38.2153251,35.3189854 C31.187544,34.9907586 23.5696338,36.3521739 17.0226828,39.1365781 C16.3238662,39.4337832 15.8116728,39.9861034 15.5484848,40.6388264 C15.2852967,41.2915494 15.2711141,42.0446753 15.5683193,42.7434918 C15.8655245,43.4423084 16.4178446,43.9545018 17.0705677,44.2176899 C17.7232907,44.4808779 18.4764165,44.4950605 19.1752331,44.1978553 C24.965358,41.7353277 31.7475698,40.5229094 37.9587318,40.8129967 C38.7172964,40.8484248 39.4184079,40.5730299 39.9387353,40.0991368 C40.4590627,39.6252437 40.7986059,38.9528524 40.8340341,38.1942877 C40.8694622,37.4357231 40.5940673,36.7346116 40.1201742,36.2142842 C39.6462811,35.6939568 38.9738898,35.3544136 38.2153251,35.3189854 Z M42.5570756,28.2647168 C31.2998482,26.7850694 21.3535348,28.1510827 5.59454939,34.409146 C4.8887711,34.6894182 4.36341152,35.2292302 4.08456457,35.8754187 C3.80571761,36.5216073 3.77338327,37.2741723 4.05365545,37.9799506 C4.33392764,38.6857289 4.87373965,39.2110885 5.5199282,39.4899354 C6.16611674,39.7687824 6.91868181,39.8011167 7.62446011,39.5208446 C22.4432646,33.6361373 31.5035478,32.3591503 41.8403218,33.7178135 C42.5932373,33.8167766 43.3149871,33.6011915 43.8732488,33.1726367 C44.4315105,32.744082 44.826284,32.1025576 44.925247,31.349642 C45.0242101,30.5967265 44.808625,29.8749767 44.3800702,29.316715 C43.9515155,28.7584534 43.3099911,28.3636798 42.5570756,28.2647168 Z M4.0288527,8.39578923 L-0.699806578,26.5496625 C-0.838757254,27.2639033 -0.686154486,27.9753873 -0.318437206,28.5520309 C0.0415037659,29.1164799 0.607163199,29.5517898 1.30605388,29.7340491 C2.04086966,29.925677 2.78379306,29.8013206 3.3909195,29.4453532 C3.99804593,29.0893859 4.46937541,28.5018076 4.66100334,27.7669918 L10.2801576,6.18812804 C10.4193759,5.46346503 10.3419784,4.71178933 10.0547464,4.02813716 C9.65363754,3.07344236 8.90353511,2.37170991 8.01503619,2.00892837 C7.12653728,1.64614682 6.09964187,1.62231619 5.14494706,2.02342503 L2.27142876,3.23729832 C1.60747567,3.56957468 1.12978186,4.13913276 0.910768912,4.82420912 C0.71079888,5.44971891 0.725322315,6.17716822 1.05891173,6.95523366 C1.38546615,7.59037946 1.93230974,8.05080162 2.56503584,8.28069597 C3.02503798,8.44783289 3.53028043,8.49328342 4.0288527,8.39578923 Z M20.8651977,1.58187375 C22.2597695,1.58187375 23.4444837,1.87798254 24.4206479,2.45155997 C25.4100047,3.03288915 26.1934162,3.90038365 26.7530321,5.07028031 C27.7650195,7.18587546 28.0350974,10.3558441 27.4432331,14.6331834 C26.819831,19.1384428 25.4654776,22.5148685 23.5323182,24.6811377 C21.5087381,26.948731 18.8523526,27.9466291 15.6588484,27.5415652 C14.1565483,27.3510135 12.927912,26.7981526 11.9582765,25.9690754 C10.9428626,25.1008557 10.2083175,23.9240026 9.7608627,22.5116693 C8.88311125,19.7411604 9.12166695,16.0284911 10.4587287,12.0870082 C11.5644026,8.82762666 13.0576899,6.22602629 14.7911183,4.43899314 C16.6007486,2.57340155 18.675749,1.58187375 20.8651977,1.58187375 Z M20.8651977,7.08187375 C20.0252459,7.08187375 19.131197,7.71609035 18.2570806,8.79331329 C17.3124548,9.95742914 16.4137166,11.6532442 15.6672029,13.853869 C14.8505662,16.2612069 14.586645,18.3246873 14.8005449,19.8416117 C14.8988375,20.5386782 15.0947745,21.1103836 15.4043602,21.5163275 C15.6473542,21.8349532 15.9638208,22.0361814 16.3509233,22.0852814 C17.0601328,22.1752375 17.714413,22.1059808 18.3062814,21.8437551 C18.8873978,21.5862931 19.4033393,21.1458394 19.861049,20.5210703 C20.8589474,19.1589494 21.565979,16.9808386 21.9951426,13.8793198 C22.3799017,11.0987074 22.4348931,9.31118734 22.1637894,8.20378867 C22.0629658,7.79194644 21.9250598,7.49386138 21.7066552,7.31138991 C21.4854219,7.12655513 21.1955283,7.08187375 20.8651977,7.08187375 Z M39.1547724,-0.75 C40.6989224,-0.75 42.0104103,-0.469158594 43.0927272,0.0853725026 C44.1999855,0.652682416 45.0765007,1.50507438 45.714874,2.66238592 C46.8810401,4.77653648 47.2405953,7.97542036 46.6820245,12.3913924 C46.1250478,16.7947621 44.7095847,20.0729346 42.689985,22.183415 C40.5463175,24.423546 37.7175861,25.3937663 34.4161967,24.9856949 C32.8548085,24.792698 31.5883664,24.280719 30.6001496,23.5073299 C29.5666459,22.6984989 28.8300503,21.6005458 28.3948681,20.2451337 C27.5678434,17.6692947 27.850656,14.1090459 29.2630634,9.88270582 C30.6065135,5.86270606 31.822932,3.24368825 33.2924504,1.62369507 C34.8262352,-0.0671451021 36.6325264,-0.75 39.1547724,-0.75 Z M39.1327049,4.75005104 C38.2281664,4.75372169 37.5853648,4.98553523 36.9462518,5.88312332 C36.1775148,6.96275882 35.4262177,8.82734895 34.3705795,11.9568396 C33.5353395,14.5355785 33.2306462,16.4474265 33.4366249,17.7633902 C33.5217247,18.3070789 33.6938281,18.7333913 33.9804549,19.0310883 C34.2576028,19.3189402 34.6362404,19.4710372 35.0908948,19.5272352 C36.6828987,19.7240163 38.0351984,19.2797947 39.0638156,18.0290109 C40.1286279,16.7342144 40.8517127,14.6563216 41.2255018,11.7012037 C41.5777716,8.91621463 41.6243053,7.12497499 41.2223709,6.01185626 C41.0751778,5.60421916 40.8627064,5.30947101 40.5572014,5.11588626 C40.1889812,4.88256174 39.7123524,4.78635968 39.1327049,4.75005104 Z" id="wb" stroke="#FFFFFF" stroke-width="1.5" fill-rule="nonzero"></path>
            <path d="M6.60950475,36.9649953 C23.888432,30.1033467 33.3001863,29.8216467 42.1986987,30.9912651" id="路径-" stroke="#ED6969" stroke-width="4" stroke-linecap="round"></path>
            <path d="M18.0989579,41.6672167 C24.3254684,39.0190952 31.5312374,37.7598081 38.0870285,38.0659911" id="路径-" stroke="#ED6969" stroke-width="4" stroke-linecap="round"></path>
            <path d="M39.1547724,2 C35.6368535,2 34.1626228,3.89794231 31.8712701,10.7543466 C29.5799174,17.6107509 30.5591647,21.7380146 34.7535457,22.256465 C38.9479267,22.7749155 42.9075263,20.3176806 43.9537632,12.046298 C45,3.77491547 42.6726914,2 39.1547724,2 Z" id="路径-" stroke="#ED6969" stroke-width="4"></path>
            <path d="M20.8651977,4.33187375 C18.0654487,4.33187375 15.035101,7.15684238 13.0629658,12.9704386 C11.0908306,18.7840348 11.752879,24.2740989 16.0048858,24.8134233 C20.2568927,25.3527477 23.5926695,22.3974778 24.7191879,14.2562516 C25.8457063,6.11502537 23.6649467,4.33187375 20.8651977,4.33187375 Z" id="路径-" stroke="#ED6969" stroke-width="4"></path>
            <path d="M3.5036975,5.69584256 L6.21014569,4.55874589 C6.71931626,4.34482118 7.3055008,4.58416523 7.51942551,5.09333579 C7.60447501,5.29576545 7.62053552,5.52056018 7.56512823,5.7330248 L2,27.0730457 L2,27.0730457" id="路径-" stroke="#ED6969" stroke-width="4" stroke-linecap="round"></path>
        </g>
    </g>
</svg>