<?xml version="1.0" encoding="UTF-8"?>
<svg width="64px" height="64px" viewBox="0 0 64 64" version="1.1" xmlns="http://www.w3.org/2000/svg" xmlns:xlink="http://www.w3.org/1999/xlink">
    <title>lemon</title>
    <defs>
        <path d="M2.56595758,32.0270457 C-1.55911967,25.5277671 -0.729929684,16.7871717 8.02862101,8.02862101 C16.7871717,-0.729929684 25.5277671,-1.55911967 32.0270457,2.56595758 C33.5506163,1.97215763 35.3476856,2.29044353 36.5780573,3.52081528 C37.8084291,4.75118703 38.126715,6.54825628 37.532915,8.07182693 C41.6579923,14.5711055 40.8288023,23.3117009 32.0702516,32.0702516 C23.3117009,40.8288023 14.5711055,41.6579923 8.07182693,37.532915 C6.54825628,38.126715 4.75118703,37.8084291 3.52081528,36.5780573 C2.29044353,35.3476856 1.97215763,33.5506163 2.56595758,32.0270457 Z" id="path-1"></path>
    </defs>
    <g id="lemon" stroke="none" stroke-width="1" fill="none" fill-rule="evenodd">
        <rect id="Rectangle" x="0" y="0" width="64" height="64"></rect>
        <g id="Group-" transform="translate(8.000000, 11.000000)" fill-rule="nonzero">
            <path d="M19.8168597,24 C19.3621385,29.1116833 21.2583319,33.791079 24.5461265,37.0788735 C27.5094186,40.0421657 31.6031686,41.875 36.125,41.875 C40.6468314,41.875 44.7405814,40.0421657 47.7038735,37.0788735 C50.9916681,33.791079 52.8878615,29.1116833 52.4331403,24 L19.8168597,24 Z" id="wb" stroke="#FFFFFF" stroke-width="3"></path>
            <g id="Combined-Shape">
                <use stroke="#FFFFFF" stroke-width="4.5" fill="#CBDB45" xlink:href="#path-1"></use>
                <use stroke="#000000" stroke-width="1.5" xlink:href="#path-1"></use>
            </g>
            <path d="M23.90625,4.78125 C26.5468615,4.78125 29.5881348,6.19848901 29.5881348,4.78125 C29.5881348,3.36401099 27.5067139,2.125 23.90625,2.125 C20.3057861,2.125 17.8887024,4.00372728 17.8887024,5.47073364 C17.8887024,6.93774001 21.2656385,4.78125 23.90625,4.78125 Z" id="Oval-" fill="#E0EF60"></path>
            <path d="M16.4142294,32.7462434 C17.0010319,32.7462434 17.4767294,33.2219409 17.4767294,33.8087434 C17.4767294,34.395546 17.0010319,34.8712434 16.4142294,34.8712434 C15.8274268,34.8712434 15.3517294,34.395546 15.3517294,33.8087434 C15.3517294,33.2219409 15.8274268,32.7462434 16.4142294,32.7462434 Z M12.1642294,32.7462434 C12.7510319,32.7462434 13.2267294,33.2219409 13.2267294,33.8087434 C13.2267294,34.395546 12.7510319,34.8712434 12.1642294,34.8712434 C11.5774268,34.8712434 11.1017294,34.395546 11.1017294,33.8087434 C11.1017294,33.2219409 11.5774268,32.7462434 12.1642294,32.7462434 Z M7.91422936,31.6837434 C8.5010319,31.6837434 8.97672936,32.1594409 8.97672936,32.7462434 C8.97672936,33.333046 8.5010319,33.8087434 7.91422936,33.8087434 C7.32742681,33.8087434 6.85172936,33.333046 6.85172936,32.7462434 C6.85172936,32.1594409 7.32742681,31.6837434 7.91422936,31.6837434 Z M20.6642294,30.6212434 C21.2510319,30.6212434 21.7267294,31.0969409 21.7267294,31.6837434 C21.7267294,32.270546 21.2510319,32.7462434 20.6642294,32.7462434 C20.0774268,32.7462434 19.6017294,32.270546 19.6017294,31.6837434 C19.6017294,31.0969409 20.0774268,30.6212434 20.6642294,30.6212434 Z M15.3517294,29.5587434 C15.9385319,29.5587434 16.4142294,30.0344409 16.4142294,30.6212434 C16.4142294,31.208046 15.9385319,31.6837434 15.3517294,31.6837434 C14.7649268,31.6837434 14.2892294,31.208046 14.2892294,30.6212434 C14.2892294,30.0344409 14.7649268,29.5587434 15.3517294,29.5587434 Z M23.8517294,28.4962434 C24.4385319,28.4962434 24.9142294,28.9719409 24.9142294,29.5587434 C24.9142294,30.145546 24.4385319,30.6212434 23.8517294,30.6212434 C23.2649268,30.6212434 22.7892294,30.145546 22.7892294,29.5587434 C22.7892294,28.9719409 23.2649268,28.4962434 23.8517294,28.4962434 Z" id="Combined-Shape" fill="#BDCC40"></path>
            <path d="M39.5832257,22.3125 C37.6909844,22.3125 30.5174092,22.3125 18.0625,22.3125 L18.0625,25.5 C18.0625,30.8244545 20.3501919,35.5883705 24.0153761,38.8942022 C28.9774197,37.0835016 38.9198985,25.7246464 39.5832257,22.3125 Z" id="路径" fill="#FFFFFF"></path>
            <path d="M20.5175576,24.75 C20.3019836,29.3608557 22.0859164,33.5580033 25.0764565,36.5485435 C27.9040254,39.3761123 31.8102754,41.125 36.125,41.125 C40.4397246,41.125 44.3459746,39.3761123 47.1735435,36.5485435 C50.1640836,33.5580033 51.9480164,29.3608557 51.7324424,24.75 L20.5175576,24.75 Z" id="Oval-" stroke="#000000" stroke-width="1.5" fill="#C1C357"></path>
            <path d="M36.125,37.1875 C42.579828,37.1875 47.8125,31.954828 47.8125,25.5 C38.2438485,25.5 31.5408194,25.5 24.4375,25.5 C24.4375,31.954828 29.670172,37.1875 36.125,37.1875 Z" id="Oval-" fill="#EEE66B"></path>
            <path d="M35.59375,37.1756411 L35.59375,26.6980681 L27.8287483,33.7322461 C27.5792666,33.4808369 27.3411339,33.2181496 27.1151824,32.9450167 L35.3337073,25.5 L36.9162302,25.5 L45.1342851,32.9456602 C44.9083145,33.2187769 44.6701631,33.4814473 44.4206634,33.7328389 L36.65625,26.6981836 L36.65625,37.1756411 C36.4801526,37.183519 36.3030412,37.1875 36.125,37.1875 C35.9469588,37.1875 35.7698474,37.183519 35.59375,37.1756411 L35.59375,37.1756411 Z" id="Combined-Shape" fill="#FFFCD1"></path>
        </g>
    </g>
</svg>