<?xml version="1.0" encoding="UTF-8"?>
<svg width="64px" height="64px" viewBox="0 0 64 64" version="1.1" xmlns="http://www.w3.org/2000/svg" xmlns:xlink="http://www.w3.org/1999/xlink">
    <title>thumbsUp</title>
    <g id="thumbsUp" stroke="none" stroke-width="1" fill="none" fill-rule="evenodd">
        <rect id="Rectangle-" x="0" y="0" width="64" height="64"></rect>
        <path d="M35.1536473,9.01636448 C34.1807863,7.97175499 33.0338226,7.40984104 31.8924516,7.27956893 C30.686556,7.14193221 29.4757878,7.48283839 28.4519089,8.28899516 C26.7875174,9.59973037 26.6800009,11.3225821 26.7543761,13.2522369 C26.7658833,13.551076 26.7796265,13.8575999 26.7936034,14.1692166 C26.8631623,15.7200448 26.9425208,17.401356 26.759528,18.8760631 C26.2176655,23.2404509 24.8611089,24.6390063 22.5327111,27.0777813 C21.9001993,27.7402772 21.1992131,28.4747055 20.4262189,29.3517743 C19.9799387,29.8581721 19.1754314,30.129629 18.4955695,30.296201 C17.7969574,30.4673862 17.0616998,30.4904864 16.3289612,30.5187402 C16.0474309,30.5295958 15.7661209,30.5405182 15.4868117,30.5581277 C15.1663123,30.5783226 14.8161318,30.5573066 14.4670705,30.538275 C13.4272335,30.4815806 12.4454718,30.5225111 11.8587167,30.9946312 C11.1774819,31.5428361 10.8637998,32.6481167 10.6312174,33.7616748 C10.5776092,34.0183403 10.5250061,34.2715752 10.4641741,34.5082634 C8.98000751,40.2865864 8.6221449,46.0585668 10.7335604,51.7806334 C11.1926804,53.0247874 11.5001404,53.5658354 11.9305036,53.8375355 C12.3659628,54.1124528 12.9749835,54.1469898 14.2947345,54.0098251 C14.4993107,53.9885946 14.7036548,53.9619916 14.9079401,53.9353077 C15.2321273,53.8929621 15.5561169,53.8498211 15.881534,53.8337407 C18.2402725,53.7185054 20.5090997,53.6155358 22.8345587,54.6740531 C25.2603461,55.778198 27.9991662,56.2955069 30.6558775,56.7627192 C31.6763586,56.9422179 32.7275408,56.9516029 33.7788885,56.9573568 C34.7648174,56.9627527 35.7509839,56.9641794 36.7061263,57.1396556 C39.3645604,57.6280532 41.9743314,57.5336558 44.6087852,57.2495314 C46.0865761,57.0900605 47.1889617,56.6731674 47.9775227,55.9945313 C48.7841371,55.3003584 49.2883352,54.3263375 49.4789703,52.9881344 C49.5481535,52.5012392 49.4384004,51.9752177 49.3080712,51.4535984 C49.2243919,51.1186869 49.1031203,50.7833049 49.1807054,50.4825498 C49.2661199,50.1515569 49.5345557,49.8800298 49.7763669,49.594893 C50.1364426,49.170302 50.4806816,48.7343624 50.6472458,48.2482304 C51.1563465,46.7615991 50.9807227,45.266997 50.1415363,43.8852238 C51.5800094,42.6239791 52.3111463,41.5438621 52.4943594,40.3562317 C52.6804988,39.1496328 52.2946511,37.7887207 51.2963922,35.9226207 C51.8910814,35.2662321 52.2563699,34.5515603 52.4303567,33.7983178 C52.6525149,32.8365267 52.5604915,31.8026246 52.188985,30.7283668 C51.8326441,29.6981296 51.2419953,28.9515198 50.4940104,28.4338026 C49.7024719,27.8859398 48.7243569,27.5954419 47.6322972,27.5308424 C45.3598322,27.3963573 43.0797389,27.2884228 40.8046502,27.3138468 C39.3295349,27.3302416 38.1232926,27.0337469 37.4487709,26.2876231 C36.8598541,25.6361913 36.7628601,24.6602917 37.1335069,23.4118351 C37.5709995,21.9382203 37.71204,21.3955038 37.9802133,19.8631688 C38.3602449,17.691679 38.5021405,12.6108163 35.1536473,9.01636448 Z" id="路径" stroke="#FFFFFF" stroke-width="1.5" fill="#FBDC67"></path>
        <path d="M36.0299928,55.541539 C34.943105,53.6420867 35.0790843,52.1143897 36.0484387,50.6299697 C33.9898316,49.0861917 33.3742596,46.3021893 34.9211119,43.1310114 C33.2465574,40.1363943 33.3742596,38.7496428 35.3474954,36.2644157 C35.5409406,36.021072 35.5213123,35.4710065 35.3999952,35.1361429 C34.4803027,32.598416 35.4470558,30.234506 37.9166749,29.0965373 C38.2252886,28.9541729 38.5258618,28.7935992 38.8302188,28.641539" id="Fill-" stroke="#D1AD40" stroke-width="1.5" stroke-linecap="round"></path>
        <line x1="34.8675725" y1="43.6844833" x2="48.431418" y2="43.6844833" id="路径-" stroke="#D1AD40" stroke-width="1.5" stroke-linecap="round"></line>
        <line x1="36.151613" y1="50.6860123" x2="47.6831201" y2="50.6860123" id="路径-" stroke="#D1AD40" stroke-width="1.5" stroke-linecap="round"></line>
        <line x1="35.850844" y1="36.0490668" x2="50.0360557" y2="36.0490668" id="路径-" stroke="#D1AD40" stroke-width="1.5" stroke-linecap="round"></line>
    </g>
</svg>