<?xml version="1.0" encoding="UTF-8"?>
<svg width="64px" height="64px" viewBox="0 0 64 64" version="1.1" xmlns="http://www.w3.org/2000/svg" xmlns:xlink="http://www.w3.org/1999/xlink">
    <title>settings</title>
    <g id="settings" stroke="none" stroke-width="1" fill="none" fill-rule="evenodd">
        <rect id="Rectangle" x="0" y="0" width="64" height="64"></rect>
        <path d="M23.6981179,16.8335994 C24.2679567,16.8244513 24.7847837,17.0517677 25.1568598,17.4238431 C25.5217126,17.7886951 25.7473721,18.2927318 25.7473721,18.8494541 L25.7473721,18.8494541 L25.7473721,19.4470508 C27.0055365,19.7908052 28.1996761,20.2891037 29.3078324,20.9212229 L29.3078324,20.9212229 L29.7300501,20.4990061 C30.123675,20.1053819 30.6396506,19.9085205 31.1556515,19.9085205 C31.6716524,19.9085205 32.1876281,20.1053819 32.581253,20.4990061 L32.581253,20.4990061 L35.5010903,23.4188375 C35.8946438,23.812516 36.091409,24.3284125 36.091409,24.8443032 C36.091409,25.3601938 35.8946438,25.8760903 35.5009209,26.2699382 L35.5009209,26.2699382 L35.0787063,26.6921519 C35.7108364,27.8003237 36.2091413,28.9944814 36.5528967,30.2526653 L36.5528967,30.2526653 L37.1506093,30.2526653 C37.7074424,30.2526653 38.2115627,30.4784074 38.5764305,30.8434109 C38.9411709,31.2082872 39.1667924,31.7123491 39.1666667,32.2689148 L39.1666667,32.2689148 L39.1666667,36.397945 C39.1666667,36.9546673 38.9410072,37.4587039 38.5761544,37.8235559 C38.2113028,38.1884069 37.7072668,38.4140657 37.1505449,38.4140657 L37.1505449,38.4140657 L36.5528147,38.4140657 C36.2090642,39.6722105 35.7107735,40.8663324 35.0786653,41.9744737 L35.0786653,41.9744737 L35.5008565,42.396664 C35.8944826,42.7902894 36.0913446,43.3062657 36.0913446,43.8222669 C36.0913446,44.3382682 35.8944826,44.8542445 35.5008565,45.2478698 L35.5008565,45.2478698 L32.5811886,48.1675318 C32.1875637,48.561156 31.6715881,48.7580174 31.1555872,48.7580174 C30.6395863,48.7580174 30.1236106,48.561156 29.7299857,48.1675318 L29.7299857,48.1675318 L29.3077834,47.7453304 C28.1996213,48.377487 27.0054766,48.8757879 25.7473077,49.2195108 L25.7473077,49.2195108 L25.7473077,49.8172126 C25.7473077,50.3739349 25.5216482,50.8779715 25.1567954,51.2428235 C24.7919438,51.6076745 24.2879078,51.8333333 23.7311859,51.8333333 L23.7311859,51.8333333 L19.6021474,51.8333333 C19.0454255,51.8333333 18.5413895,51.6076745 18.1765379,51.2428235 C17.8116851,50.8779715 17.5860257,50.3739349 17.5860257,49.8172126 L17.5860257,49.8172126 L17.5860257,49.2194871 C16.3278612,48.8757327 15.1337216,48.3774342 14.0255653,47.745315 L14.0255653,47.745315 L13.6033477,48.1675318 C13.2097227,48.561156 12.6937471,48.7580174 12.1777462,48.7580174 C11.6617453,48.7580174 11.1457696,48.561156 10.7521447,48.1675318 L10.7521447,48.1675318 L7.83247683,45.2478698 C7.43885068,44.8542445 7.24198875,44.3382682 7.24198875,43.8222669 C7.24198875,43.3062657 7.43885068,42.7902894 7.83247683,42.396664 L7.83247683,42.396664 L8.25466798,41.9744737 C7.62255978,40.8663324 7.12426913,39.6722105 6.78051865,38.4140657 L6.78051865,38.4140657 L6.18278843,38.4140657 C5.62606653,38.4140657 5.12203056,38.1884069 4.75717889,37.8235559 C4.39232614,37.4587039 4.16666667,36.9546673 4.16666667,36.397945 L4.16666667,36.397945 L4.16666667,32.2689148 C4.16666667,31.7121925 4.39232614,31.2081559 4.75717889,30.8433039 C5.12203056,30.478453 5.62606653,30.2527941 6.18278843,30.2527941 L6.18278843,30.2527941 L6.78056544,30.2527941 C7.12432075,28.9946102 7.62262568,27.8004525 8.25475576,26.6922807 L8.25475576,26.6922807 L7.83237182,26.2698976 C7.43883765,25.8762385 7.24205313,25.3603119 7.24205313,24.8444078 C7.24205313,24.3283811 7.43892153,23.8124157 7.83254122,23.4187968 L7.83254122,23.4187968 L10.7522091,20.4991349 C11.145834,20.1055107 11.6618097,19.9086492 12.1778105,19.9086492 C12.6938114,19.9086492 13.2097871,20.1055107 13.603412,20.4991349 L13.603412,20.4991349 L14.0256297,20.9213517 C15.133786,20.2892325 16.3279256,19.790934 17.58609,19.4471796 L17.58609,19.4471796 L17.58609,18.8494541 C17.58609,18.0202489 18.086701,17.3079235 18.8022187,16.9982901 L18.8022187,16.9982901 Z M21.6666989,27.8730102 C19.8827155,27.8730102 18.267634,28.596104 17.0985469,29.7651887 C15.9294536,30.9342797 15.2063597,32.549365 15.2063597,34.3333333 C15.2063597,36.1173016 15.9294536,37.732387 17.0985469,38.9014779 C18.267634,40.0705627 19.8827155,40.7936565 21.6666989,40.7936565 C23.4506878,40.7936565 25.0657751,40.0705709 26.2348637,38.9014847 C27.4039511,37.7323995 28.127038,36.1173172 28.127038,34.3333333 C28.127038,32.5493494 27.4039511,30.9342671 26.2348637,29.765182 C25.0657751,28.5960958 23.4506878,27.8730102 21.6666989,27.8730102 Z" id="Shape" stroke="#FFFFFF" stroke-width="3" fill-rule="nonzero"></path>
        <path d="M48.3199245,8.6929065 C48.8370411,8.68321774 49.3061951,8.8889517 49.6436434,9.22639938 C49.9632587,9.54601402 50.1647134,9.98378113 50.176882,10.4685455 C50.7189717,10.6416838 51.2413851,10.8587364 51.7398923,11.1157098 C52.0912285,10.781647 52.5431729,10.6145707 52.9951411,10.6145707 C53.4616087,10.6145707 53.928051,10.7925388 54.2838892,11.1483762 L54.2838892,11.1483762 L56.108851,12.9733344 C56.4646177,13.3292141 56.6424895,13.7955774 56.6424895,14.2619349 C56.6424895,14.7138003 56.4755006,15.1656713 56.1413477,15.517196 C56.3983282,16.0157147 56.6153858,16.5381407 56.7885267,17.0802438 C57.2734252,17.0923966 57.7112994,17.2939347 58.0309495,17.6137037 C58.3606724,17.9435494 58.5646391,18.3992162 58.5645255,18.9023172 L58.5645255,18.9023172 L58.5645255,21.482961 C58.5645255,21.9862387 58.3605301,22.4418889 58.0307025,22.7717158 C57.7110697,23.091348 57.273271,23.2928069 56.7884735,23.3049542 C56.6153385,23.847031 56.398291,24.3694325 56.1413242,24.867929 C56.4753779,25.2192632 56.6424492,25.671201 56.6424492,26.1231622 C56.6424492,26.5896303 56.4644807,27.0560734 56.1086413,27.411912 L56.1086413,27.411912 L54.2838489,29.2367007 C53.9280108,29.5925382 53.4615684,29.7705063 52.9951008,29.7705063 C52.5431396,29.7705063 52.0912021,29.6034351 51.7398683,29.2693826 C51.2413559,29.5263686 50.7189376,29.7434236 50.1768432,29.9165544 C50.1646891,30.4013417 49.9632311,30.8391308 49.6436032,31.1587581 C49.3137767,31.4885838 48.8581272,31.6925787 48.35485,31.6925787 L48.35485,31.6925787 L45.774201,31.6925787 C45.2709239,31.6925787 44.8152743,31.4885838 44.4854479,31.1587581 C44.1658147,30.8391256 43.9643554,30.4013275 43.9522072,29.9165309 C43.4101183,29.7433927 42.8877056,29.5263403 42.3891989,29.2693672 C42.0378628,29.60343 41.5859184,29.7705063 41.1339502,29.7705063 C40.6674826,29.7705063 40.2010403,29.5925382 39.8452021,29.2367007 L39.8452021,29.2367007 L38.0204097,27.411912 C37.6645704,27.0560734 37.4866018,26.5896303 37.4866018,26.1231622 C37.4866018,25.671201 37.6536731,25.2192632 37.9877268,24.867929 C37.7307601,24.3694325 37.5137126,23.847031 37.3405775,23.3049542 C36.85578,23.2928069 36.4179813,23.091348 36.0983485,22.7717158 C35.768521,22.4418889 35.5645255,21.9862387 35.5645255,21.482961 L35.5645255,21.482961 L35.5645255,18.9023172 C35.5645255,18.3990395 35.768521,17.9433892 36.0983485,17.6135624 C36.4179874,17.2939241 36.8557967,17.0924636 37.3406051,17.0803233 C37.5137454,16.5382224 37.730802,16.0157984 37.9877812,15.5172816 C37.653699,15.1659048 37.4866421,14.7139434 37.4866421,14.2620003 C37.4866421,13.7955097 37.6646171,13.3290776 38.02045,12.9732455 L38.02045,12.9732455 L39.8452424,11.1484567 C40.2010805,10.7926193 40.6675229,10.6146512 41.1339905,10.6146512 C41.5859586,10.6146512 42.037903,10.7817275 42.3892392,11.1157903 C42.8877458,10.8588172 43.4101586,10.6417648 43.9522475,10.4686266 C43.9715478,9.69841171 44.4686862,9.0468252 45.1583938,8.79925564 L45.1583938,8.79925564 Z M47.0645456,16.7173767 C46.104887,16.7173767 45.2360853,17.1063501 44.6071978,17.7352363 C43.9783074,18.3641255 43.5893337,19.2329286 43.5893337,20.1925787 C43.5893337,21.1522289 43.9783074,22.0210319 44.6071978,22.6499211 C45.2360853,23.2788074 46.104887,23.6677807 47.0645456,23.6677807 C48.0242075,23.6677807 48.8930129,23.2788127 49.5219015,22.6499253 C50.150789,22.0210391 50.5397576,21.1522371 50.5397576,20.1925787 C50.5397576,19.2329203 50.150789,18.3641183 49.5219015,17.7352321 C48.8930129,17.1063448 48.0242075,16.7173767 47.0645456,16.7173767 Z" id="Shape" stroke="#FFFFFF" stroke-width="3" fill-rule="nonzero" transform="translate(47.064526, 20.192579) rotate(-41.000000) translate(-47.064526, -20.192579) "></path>
        <path d="M47.1344154,34.5003736 C47.6253467,34.490283 48.0708376,34.6852456 48.3910688,35.0054761 C48.6206407,35.2350476 48.7858325,35.5289945 48.8572488,35.8579083 C49.0716785,35.9355682 49.2816171,36.0225837 49.4865672,36.1184849 C49.7696193,35.9364376 50.0942625,35.8453944 50.4189194,35.8453944 C50.8606203,35.8453944 51.302296,36.0139158 51.6392408,36.3508599 L51.6392408,36.3508599 L52.9167649,37.6283814 C53.2536382,37.9653617 53.4220633,38.4069585 53.4220633,38.8485493 C53.4220633,39.1731558 53.3310549,39.4977655 53.1489618,39.7808895 C53.2448694,39.985851 53.3318903,40.1958016 53.4095545,40.4102437 C53.7385861,40.4816738 54.0326266,40.6469472 54.2622425,40.8766487 C54.5744567,41.188979 54.7675961,41.6204484 54.7674885,42.0968169 L54.7674885,42.0968169 L54.7674885,43.9032676 C54.7674885,44.3798229 54.5743251,44.81128 54.2620101,45.1235943 C54.0324242,45.3531798 53.7384547,45.5183775 53.4095155,45.5897861 C53.3318593,45.8042035 53.2448484,46.0141304 53.1489528,46.2190694 C53.3309947,46.5021185 53.4220351,46.8267567 53.4220351,47.1514085 C53.4220351,47.5931099 53.2535132,48.0347864 52.9165673,48.3717317 L52.9165673,48.3717317 L51.6392126,49.6490838 C51.3022678,49.9860279 50.8605922,50.1545493 50.4188912,50.1545493 C50.0942412,50.1545493 49.7696048,50.0635099 49.486557,49.8814703 C49.2816037,49.9773754 49.071662,50.0643926 48.8572293,50.142052 C48.7858177,50.4709819 48.6206218,50.7649432 48.3910406,50.9945239 C48.0787268,51.3068371 47.6472704,51.5 47.1707157,51.5 L47.1707157,51.5 L45.3642613,51.5 C44.8877066,51.5 44.4562502,51.3068371 44.1439364,50.9945239 C43.9143502,50.7649382 43.7491522,50.4709691 43.677743,50.1420305 C43.463318,50.0643719 43.2533838,49.977358 43.0484379,49.8814588 C42.7653859,50.0635061 42.4407427,50.1545493 42.1160858,50.1545493 C41.6743848,50.1545493 41.2327092,49.9860279 40.8957644,49.6490838 L40.8957644,49.6490838 L39.6184097,48.3717317 C39.2814637,48.0347864 39.1129419,47.5931099 39.1129419,47.1514085 C39.1129419,46.8267567 39.2039823,46.5021185 39.3860242,46.2190694 C39.2901286,46.0141304 39.2031177,45.8042035 39.1254615,45.5897861 C38.7965223,45.5183775 38.5025528,45.3531798 38.2729669,45.1235943 C37.9606519,44.81128 37.7674885,44.3798229 37.7674885,43.9032676 L37.7674885,43.9032676 L37.7674885,42.0968169 C37.7674885,41.6202616 37.9606519,41.1888045 38.2729669,40.8764902 C38.5025573,40.6469001 38.7965339,40.4817004 39.125481,40.4102942 C39.2031422,40.1958606 39.2901595,39.9859182 39.3860628,39.7809645 C39.2040056,39.4978907 39.1129701,39.173238 39.1129701,38.8485951 C39.1129701,38.4068727 39.2814984,37.9652072 39.6184379,37.6282683 L39.6184379,37.6282683 L40.8957926,36.3509162 C41.2327373,36.0139721 41.674413,35.8454507 42.1161139,35.8454507 C42.4407708,35.8454507 42.7654141,35.9364939 43.0484661,36.1185412 C43.253412,36.022642 43.4633462,35.9356281 43.6777712,35.8579695 C43.8100025,35.2488599 44.2638316,34.7596589 44.8525764,34.5771312 L44.8525764,34.5771312 Z M46.2675026,41.0173586 C45.7200063,41.0173586 45.2243445,41.2392717 44.8655568,41.5980587 C44.5067678,41.956847 44.2848542,42.4525089 44.2848542,43 C44.2848542,43.5474911 44.5067678,44.043153 44.8655568,44.4019413 C45.2243445,44.7607283 45.7200063,44.9826414 46.2675026,44.9826414 C46.8150008,44.9826414 47.3106654,44.7607321 47.6694539,44.4019443 C48.0282414,44.0431575 48.250151,43.5474956 48.250151,43 C48.250151,42.4525044 48.0282414,41.9568425 47.6694539,41.5980557 C47.3106654,41.2392679 46.8150008,41.0173586 46.2675026,41.0173586 Z" id="Shape" stroke="#FFFFFF" stroke-width="3" fill-rule="nonzero" transform="translate(46.267489, 43.000000) rotate(-305.000000) translate(-46.267489, -43.000000) "></path>
        <path d="M23.7159536,17.5834237 C24.0716323,17.579224 24.3940671,17.721711 24.6265303,17.9541737 C24.8556569,18.1833 24.9973721,18.4998333 24.9973721,18.8494541 L24.9973721,18.8494541 L24.9973721,20.0311186 C26.5878882,20.3998406 28.0794857,21.0256852 29.4252876,21.864427 L29.4252876,21.864427 L30.2603796,21.0293367 C30.5075745,20.7821423 30.8316067,20.6585205 31.1556515,20.6585205 C31.4796964,20.6585205 31.8037286,20.7821423 32.0509235,21.0293367 L32.0509235,21.0293367 L34.970676,23.9490834 C35.2178352,24.196321 35.341409,24.5203136 35.341409,24.8443032 C35.341409,25.1682927 35.2178352,25.4922853 34.9705913,25.7396076 L34.9705913,25.7396076 L34.135501,26.5746963 C34.9742551,27.9205131 35.6001061,29.412129 35.9688268,31.0026653 L35.9688268,31.0026653 L37.1506093,31.0026653 C37.500291,31.0026653 37.8168707,31.144426 38.0460017,31.3736423 C38.2750619,31.6027878 38.4167456,31.9193456 38.4166667,32.2689148 L38.4166667,32.2689148 L38.4166667,36.397945 C38.4166667,36.7475657 38.2749515,37.0640991 38.0458249,37.2932253 C37.8166987,37.522351 37.5001655,37.6640657 37.1505449,37.6640657 L37.1505449,37.6640657 L35.9687475,37.6640657 C35.6000285,39.2545623 34.9741917,40.7461424 34.1354613,42.0919307 L34.1354613,42.0919307 L34.9705269,42.9269947 C35.2177224,43.1741896 35.3413446,43.498222 35.3413446,43.8222669 C35.3413446,44.1463118 35.2177224,44.4703442 34.9705269,44.7175392 L34.9705269,44.7175392 L32.0508591,47.6372012 C31.8036642,47.8843956 31.479632,48.0080174 31.1555872,48.0080174 C30.8315423,48.0080174 30.5075101,47.8843956 30.2603152,47.6372012 L30.2603152,47.6372012 L29.4252274,46.802115 C28.079423,47.6409145 26.5878243,48.2667594 24.9973077,48.6354258 L24.9973077,48.6354258 L24.9973077,49.8172126 C24.9973077,50.1668333 24.8555926,50.4833667 24.6264659,50.7124929 C24.3973398,50.9416186 24.0808066,51.0833333 23.7311859,51.0833333 L23.7311859,51.0833333 L19.6021474,51.0833333 C19.2525268,51.0833333 18.9359936,50.9416186 18.7068674,50.7124929 C18.4777408,50.4833667 18.3360257,50.1668333 18.3360257,49.8172126 L18.3360257,49.8172126 L18.3360257,48.6354193 C16.7455095,48.2666973 15.253912,47.6408527 13.9081101,46.8021109 L13.9081101,46.8021109 L13.0730181,47.6372012 C12.8258232,47.8843956 12.501791,48.0080174 12.1777462,48.0080174 C11.8537013,48.0080174 11.5296691,47.8843956 11.2824742,47.6372012 L11.2824742,47.6372012 L8.36280638,44.7175392 C8.11561091,44.4703442 7.99198875,44.1463118 7.99198875,43.8222669 C7.99198875,43.498222 8.11561091,43.1741896 8.36280638,42.9269947 L8.36280638,42.9269947 L9.19787198,42.0919307 C8.3591416,40.7461424 7.73330486,39.2545623 7.36458584,37.6640657 L7.36458584,37.6640657 L6.18278843,37.6640657 C5.83316778,37.6640657 5.51663457,37.522351 5.28750844,37.2932253 C5.05838177,37.0640991 4.91666667,36.7475657 4.91666667,36.397945 L4.91666667,36.397945 L4.91666667,32.2689148 C4.91666667,31.9192941 5.05838177,31.6027607 5.28750844,31.3736345 C5.51663457,31.1445088 5.83316778,31.0027941 6.18278843,31.0027941 L6.18278843,31.0027941 L7.3646353,31.0027941 C7.73335598,29.4122578 8.35920697,27.9206419 9.19796109,26.574825 L9.19796109,26.574825 L8.36278607,25.7396517 C8.11563659,25.4924237 7.99205313,25.1684081 7.99205313,24.8444078 C7.99205313,24.5203461 8.11567853,24.1963192 8.36287077,23.9491275 L8.36287077,23.9491275 L11.2825386,21.0294655 C11.5297335,20.7822711 11.8537657,20.6586492 12.1778105,20.6586492 C12.5018554,20.6586492 12.8258876,20.7822711 13.0730825,21.0294655 L13.0730825,21.0294655 L13.9081745,21.8645558 C15.2539764,21.025814 16.7455739,20.3999694 18.33609,20.0312474 L18.33609,20.0312474 L18.33609,18.8494541 C18.33609,18.3734253 18.5988071,17.9587351 18.9871731,17.7424927 L18.9871731,17.7424927 Z M21.6666989,27.1230102 C19.6756076,27.1230102 17.8730271,27.930051 16.5682173,29.2348581 C15.2634002,30.5396726 14.4563597,32.3422583 14.4563597,34.3333333 C14.4563597,36.3244083 15.2634002,38.1269941 16.5682173,39.4318085 C17.8730271,40.7366157 19.6756076,41.5436565 21.6666989,41.5436565 C23.6577962,41.5436565 25.4603822,40.7366236 26.7651932,39.4318153 C28.0700036,38.1270075 28.877038,36.3244259 28.877038,34.3333333 C28.877038,32.3422407 28.0700036,30.5396592 26.7651932,29.2348514 C25.4603822,27.930043 23.6577962,27.1230102 21.6666989,27.1230102 Z" id="Shape" stroke="#000000" stroke-width="1.5" fill="#BDCFD1" fill-rule="nonzero"></path>
        <path d="M48.3387506,9.44269743 C48.6413168,9.43824914 48.9156932,9.55910972 49.1133139,9.75673 C49.3074153,9.95083106 49.4274664,10.2189781 49.4274664,10.5151542 L49.4274664,10.5151542 L49.4274664,11.0329186 C50.2964851,11.2562563 51.1172573,11.5994276 51.8708562,12.0445724 L51.8708562,12.0445724 L52.2367225,11.6787069 C52.4461306,11.4692992 52.7206295,11.3645707 52.9951411,11.3645707 C53.2696526,11.3645707 53.5441515,11.4692992 53.7535596,11.6787069 L53.7535596,11.6787069 L55.5784367,13.5035803 C55.7878091,13.7130191 55.8924895,13.9874785 55.8924895,14.2619349 C55.8924895,14.5363912 55.7878091,14.8108506 55.578352,15.0203741 L55.578352,15.0203741 L55.2124873,15.3862381 C55.6576393,16.1398466 56.0008146,16.9606302 56.2241523,17.8296612 L56.2241523,17.8296612 L56.7419897,17.8296612 C57.0382225,17.8296612 57.3064125,17.9497547 57.5005207,18.1439351 C57.6945634,18.33805 57.8145924,18.6062127 57.8145255,18.9023172 L57.8145255,18.9023172 L57.8145255,21.482961 C57.8145255,21.7791371 57.6944744,22.0472841 57.500373,22.2413852 C57.3062721,22.4354857 57.0381253,22.5555365 56.7419494,22.5555365 L56.7419494,22.5555365 L56.2241017,22.5555365 C56.0007662,23.4245429 55.6575999,24.2453041 55.212462,24.9988941 L55.212462,24.9988941 L55.5783118,25.3647431 C55.7877204,25.5741513 55.8924492,25.8486505 55.8924492,26.1231622 C55.8924492,26.3976739 55.7877204,26.6721731 55.5783118,26.8815814 L55.5783118,26.8815814 L53.7535194,28.7063701 C53.5441113,28.9157778 53.2696124,29.0205063 52.9951008,29.0205063 C52.7205893,29.0205063 52.4460904,28.9157778 52.2366823,28.7063701 L52.2366823,28.7063701 L51.8708231,28.3405116 C51.1172212,28.7856845 50.2964467,29.1288567 49.4274261,29.3521694 L49.4274261,29.3521694 L49.4274261,29.8700033 C49.4274261,30.1661793 49.3073751,30.4343264 49.1132736,30.6284275 C48.9191727,30.822528 48.6510259,30.9425787 48.35485,30.9425787 L48.35485,30.9425787 L45.774201,30.9425787 C45.4780251,30.9425787 45.2098783,30.822528 45.0157774,30.6284275 C44.821676,30.4343264 44.7016249,30.1661793 44.7016249,29.8700033 L44.7016249,29.8700033 L44.7016249,29.3521584 C43.8326062,29.1288207 43.011834,28.7856494 42.258235,28.3405046 L42.258235,28.3405046 L41.8923688,28.7063701 C41.6829607,28.9157778 41.4084618,29.0205063 41.1339502,29.0205063 C40.8594387,29.0205063 40.5849398,28.9157778 40.3755317,28.7063701 L40.3755317,28.7063701 L38.5507393,26.8815814 C38.3413306,26.6721731 38.2366018,26.3976739 38.2366018,26.1231622 C38.2366018,25.8486505 38.3413306,25.5741513 38.5507393,25.3647431 L38.5507393,25.3647431 L38.916589,24.9988941 C38.4714511,24.2453041 38.1282848,23.4245429 37.9049493,22.5555365 L37.9049493,22.5555365 L37.3871016,22.5555365 C37.0909258,22.5555365 36.822779,22.4354857 36.6286781,22.2413852 C36.4345766,22.0472841 36.3145255,21.7791371 36.3145255,21.482961 L36.3145255,21.482961 L36.3145255,18.9023172 C36.3145255,18.6061411 36.4345766,18.337994 36.6286781,18.143893 C36.822779,17.9497925 37.0909258,17.8297417 37.3871016,17.8297417 L37.3871016,17.8297417 L37.9049792,17.8297417 C38.128317,16.9607107 38.4714922,16.1399271 38.9166442,15.3863186 L38.9166442,15.3863186 L38.5506948,15.0203699 C38.3413321,14.8109408 38.2366421,14.5364644 38.2366421,14.2620003 C38.2366421,13.9874748 38.3413741,13.7129811 38.5507795,13.5035761 L38.5507795,13.5035761 L40.3755719,11.6787873 C40.58498,11.4693797 40.8594789,11.3646512 41.1339905,11.3646512 C41.408502,11.3646512 41.6830009,11.4693797 41.892409,11.6787873 L41.892409,11.6787873 L42.2582753,12.0446529 C43.0118742,11.599508 43.8326464,11.2563368 44.7016651,11.032999 L44.7016651,11.032999 L44.7016651,10.5151542 C44.7016651,10.0860759 44.9536296,9.71582511 45.3176886,9.54432141 L45.3176886,9.54432141 Z M47.0645456,15.9673767 C45.897779,15.9673767 44.8414784,16.4402971 44.0768683,17.2049057 C43.312254,17.9695184 42.8393337,19.0258219 42.8393337,20.1925787 C42.8393337,21.3593356 43.312254,22.415639 44.0768683,23.1802517 C44.8414784,23.9448603 45.897779,24.4177807 47.0645456,24.4177807 C48.2313159,24.4177807 49.2876201,23.9448654 50.052231,23.180256 C50.8168414,22.4156471 51.2897576,21.3593458 51.2897576,20.1925787 C51.2897576,19.0258116 50.8168414,17.9695104 50.052231,17.2049015 C49.2876201,16.4402921 48.2313159,15.9673767 47.0645456,15.9673767 Z" id="Shape" stroke="#000000" stroke-width="1.5" fill="#E9F4F5" fill-rule="nonzero" transform="translate(47.064526, 20.192579) rotate(-41.000000) translate(-47.064526, -20.192579) "></path>
        <path d="M47.1539181,35.2501418 C47.4300323,35.2454912 47.6804824,35.3555503 47.8607392,35.5358067 C48.037328,35.7123952 48.1465471,35.9563491 48.1465471,36.2258028 C48.6559003,36.5610039 49.141059,36.7632042 49.5945247,37.0155931 C49.9194422,36.6906762 50.1691745,36.5953944 50.4189194,36.5953944 C50.6686643,36.5953944 50.9183965,36.6906762 51.1089112,36.8811905 L51.1089112,36.8811905 L52.3863506,38.1586273 C52.5768296,38.3491668 52.6720633,38.5988595 52.6720633,38.8485493 C52.6720633,39.0982391 52.5768296,39.3479318 52.3862659,39.538556 C52.5042581,40.1264295 52.7064612,40.6115961 52.8513962,41.1209577 C53.3112218,41.1209577 53.555217,41.2302176 53.7318138,41.40688 C53.9083477,41.5834797 54.0175493,41.8274449 54.0174885,42.0968169 L54.0174885,42.0968169 L54.0174885,43.9032676 C54.0174885,44.1727213 53.9082694,44.4166752 53.7316806,44.5932637 C53.5550923,44.7698517 53.3111387,44.8790704 53.0416852,44.8790704 C52.7064275,45.388415 52.5042307,45.8735659 52.2518465,46.3270249 C52.576753,46.6519308 52.6720351,46.9016633 52.6720351,47.1514085 C52.6720351,47.4011536 52.576753,47.6508862 52.3862377,47.841401 L52.3862377,47.841401 L51.1088831,49.1187532 C50.9183684,49.3092675 50.6686361,49.4045493 50.4188912,49.4045493 C50.1691463,49.4045493 49.9194141,49.3092675 49.7288994,49.1187532 C49.1410359,49.2367617 48.6558745,49.4389632 48.1465189,49.5838862 C48.1465189,50.0436509 48.0372999,50.2876048 47.860711,50.4641933 C47.6841227,50.6407812 47.4401692,50.75 47.1707157,50.75 L47.1707157,50.75 L45.3642613,50.75 C45.0948078,50.75 44.8508543,50.6407812 44.674266,50.4641933 C44.4976771,50.2876048 44.3884581,50.0436509 44.3884581,49.7741972 C43.8791049,49.4389398 43.3939461,49.2367395 42.9404804,48.9843506 C42.6155629,49.3092675 42.3658307,49.4045493 42.1160858,49.4045493 C41.8663409,49.4045493 41.6166086,49.3092675 41.4260939,49.1187532 L41.4260939,49.1187532 L40.1487393,47.841401 C39.958224,47.6508862 39.8629419,47.4011536 39.8629419,47.1514085 C39.8629419,46.9016633 39.958224,46.6519308 40.1487393,46.4614159 C40.0307463,45.8735659 39.8285495,45.388415 39.683617,44.8790704 C39.2238383,44.8790704 38.9798847,44.7698517 38.8032964,44.5932637 C38.6267076,44.4166752 38.5174885,44.1727213 38.5174885,43.9032676 L38.5174885,43.9032676 L38.5174885,42.0968169 C38.5174885,41.8273632 38.6267076,41.5834093 38.8032964,41.4068208 C38.9798847,41.2302328 39.2238383,41.1210141 39.4932918,41.1210141 C39.8285721,40.6116524 40.0307752,40.1264858 40.2831687,39.6730133 C39.9582134,39.3479978 39.8629701,39.0982911 39.8629701,38.8485951 C39.8629701,38.5988377 39.9582554,38.3491106 40.1487674,38.158599 L40.1487674,38.158599 L41.4261221,36.8812468 C41.6166368,36.6907325 41.8663691,36.5954507 42.1161139,36.5954507 C42.3658588,36.5954507 42.6155911,36.6907325 42.8061058,36.8812468 C43.3939743,36.7632605 43.879133,36.5610602 44.3884862,36.4161259 C44.3884862,35.8180554 44.6385856,35.4686996 44.9937706,35.3228059 L44.9937706,35.3228059 Z M46.2675026,40.2673586 C45.5128983,40.2673586 44.8297376,40.5732188 44.3352273,41.0677281 C43.8407145,41.5622399 43.5348542,42.2454022 43.5348542,43 C43.5348542,43.7545978 43.8407145,44.4377601 44.3352273,44.9322719 C44.8297376,45.4267812 45.5128983,45.7326414 46.2675026,45.7326414 C47.0221092,45.7326414 47.7052725,45.4267848 48.1997835,44.9322749 C48.6942939,44.4377655 49.000151,43.7546044 49.000151,43 C49.000151,42.2453956 48.6942939,41.5622345 48.1997835,41.0677251 C47.7052725,40.5732152 47.0221092,40.2673586 46.2675026,40.2673586 Z" id="Shape" stroke="#000000" stroke-width="1.5" fill="#E9F4F5" fill-rule="nonzero" transform="translate(46.267489, 43.000000) rotate(-305.000000) translate(-46.267489, -43.000000) "></path>
    </g>
</svg>