<?xml version="1.0" encoding="UTF-8"?>
<svg width="64px" height="64px" viewBox="0 0 64 64" version="1.1" xmlns="http://www.w3.org/2000/svg" xmlns:xlink="http://www.w3.org/1999/xlink">
    <title>blackboard</title>
    <g id="blackboard" stroke="none" stroke-width="1" fill="none" fill-rule="evenodd">
        <rect id="Rectangle" x="0" y="0" width="64" height="64"></rect>
        <g id="编组" transform="translate(6.666667, 10.666667)">
            <path d="M44.1041667,-0.427083333 L9.22916667,-0.427083333 C7.36520564,-0.427083333 5.67770564,0.328436151 4.45619589,1.54994589 C3.23468615,2.77145564 2.47916667,4.45895564 2.47916667,6.32291667 L2.44743667,29.2604168 C1.59360119,29.2604167 0.820163694,29.6066964 0.260305062,30.1665551 C-0.29955357,30.7264137 -0.645833333,31.4998512 -0.645833333,32.3541667 C-0.645833333,33.2084821 -0.29955357,33.9819196 0.260305062,34.5417783 C0.820163694,35.1016369 1.59360119,35.4479167 2.44791667,35.4479167 L23.4918293,35.4479167 L15.068928,43.8795301 C14.8059575,44.1990816 14.6908129,44.5987805 14.7469519,45.0087212 C14.7912903,45.3324908 14.9446262,45.6713349 15.3189816,46.0275935 C15.614952,46.252853 15.9753916,46.3539779 16.3291389,46.3298443 C16.6781818,46.3060316 17.0205546,46.1608306 17.2873918,45.8939935 L26.8335864,36.3473523 L36.4859233,45.9909324 C36.790133,46.2418425 37.1699459,46.3552502 37.5423424,46.3298443 C37.8913853,46.3060316 38.2337581,46.1608306 38.5005952,45.8939935 C38.7934884,45.6011003 38.9399351,45.2172168 38.9399351,44.8333333 C38.9399351,44.4494499 38.7934884,44.0655664 38.5005952,43.7726732 L30.1758284,35.4479167 L50.8854167,35.4479167 C51.7397321,35.4479167 52.5131696,35.1016369 53.0730283,34.5417783 C53.6328869,33.9819196 53.9791667,33.2084821 53.9791667,32.3541667 C53.9791667,31.4998512 53.6328869,30.7264137 53.0730283,30.1665551 C52.5131696,29.6066964 51.7397321,29.2604167 50.8541667,29.2603967 L50.8541667,6.32291667 C50.8541667,4.45895564 50.0986472,2.77145564 48.8771374,1.54994589 C47.6556277,0.328436151 45.9681277,-0.427083333 44.1041667,-0.427083333 Z" id="形状结合" stroke="#FFFFFF" stroke-width="1.5" fill-rule="nonzero"></path>
            <path d="M44.1041667,1.07291667 L9.22916667,1.07291667 C7.7794192,1.07291667 6.4669192,1.66054293 5.51685607,2.61060607 C4.56679293,3.5606692 3.97916667,4.8731692 3.97916667,6.32291667 L3.97916667,30.8229167 L49.3541667,30.8229167 L49.3541667,6.32291667 C49.3541667,4.8731692 48.7665404,3.5606692 47.8164773,2.61060607 C46.8664141,1.66054293 45.5539141,1.07291667 44.1041667,1.07291667 Z" id="Rectangle" stroke="#000000" stroke-width="1.5" fill="#F5E0C7"></path>
            <path d="M50.8854167,30.7604167 L2.44791667,30.7604167 C2.00781476,30.7604167 1.60937726,30.9388032 1.32096523,31.2272152 C1.03255321,31.5156273 0.854166667,31.9140648 0.854166667,32.3541667 C0.854166667,32.7942686 1.03255321,33.1927061 1.32096523,33.4811181 C1.60937726,33.7695301 2.00781476,33.9479167 2.44791667,33.9479167 L50.8854167,33.9479167 C51.3255186,33.9479167 51.7239561,33.7695301 52.0123681,33.4811181 C52.3007801,33.1927061 52.4791667,32.7942686 52.4791667,32.3541667 C52.4791667,31.9140648 52.3007801,31.5156273 52.0123681,31.2272152 C51.7239561,30.9388032 51.3255186,30.7604167 50.8854167,30.7604167 Z" id="Rectangle-" stroke="#000000" stroke-width="1.5" fill="#F5E0C7"></path>
            <rect id="Rectangle-" fill="#8BCB76" x="8.22916667" y="5.32291667" width="36.875" height="24.6875"></rect>
            <rect id="Rectangle-" fill="#FFFFFF" x="28.8541667" y="26.2604167" width="13.75" height="3.75"></rect>
            <rect id="Rectangle-" fill="#000000" x="28.8541667" y="24.6979167" width="13.75" height="1.5625"></rect>
            <path d="M15.5727935,24.3997822 C14.5425201,19.9100361 11.811854,15.7062174 14.2560832,14.6714427 C16.7003123,13.6366679 19.8327128,21.5758158 21.9797155,20.5051829 C24.1267181,19.43455 19.6348395,13.6300525 21.4519792,12.5285746 C23.269119,11.4270967 24.7146861,16.2057139 26.3239543,15.2564646 C27.9332225,14.3072154 25.3066803,11.7941913 26.4791656,10.9705219 C27.651651,10.1468525 28.6990437,11.8060932 29.6365142,11.8060932" id="Path-" stroke="#FFFFFF" stroke-width="1.5625" stroke-linecap="round"></path>
            <polyline id="路径" stroke="#000000" stroke-width="1.5" stroke-linecap="round" transform="translate(26.833333, 44.833333) rotate(-315.000000) translate(-26.833333, -44.833333) " points="19.3333333 52.3333333 19.3333333 37.3333333 34.3333333 37.3333333"></polyline>
        </g>
    </g>
</svg>