<?xml version="1.0" encoding="UTF-8"?>
<svg width="64px" height="64px" viewBox="0 0 64 64" version="1.1" xmlns="http://www.w3.org/2000/svg" xmlns:xlink="http://www.w3.org/1999/xlink">
    <title>email</title>
    <g id="email" stroke="none" stroke-width="1" fill="none" fill-rule="evenodd">
        <rect id="Rectangle" x="0" y="0" width="64" height="64"></rect>
        <g id="编组" transform="translate(9.200000, 7.000000)" stroke-width="1.5">
            <path d="M24.9838562,0.490385075 C24.2927961,0.0190019673 23.5134393,-0.20256936 22.750165,-0.188100569 C21.9788526,-0.173479404 21.2225502,0.0819683751 20.5850736,0.570960926 L15.6850666,4.76223838 L1.35266946,4.76237553 L1.35209097,17.0259872 L-0.56592531,18.6679268 L-0.56592531,48.1700404 L46.2539539,48.1700404 L46.2539539,18.6678996 L43.8520916,16.6119902 L43.8526707,4.76237579 L30.0039937,4.76223846 L24.9838562,0.490385075 Z" id="形状结合" stroke="#FFFFFF" fill-rule="nonzero"></path>
            <path d="M0.93407469,19.3584721 L0.93407469,46.6700404 L44.7539539,46.6700404 L44.7539539,19.3584712 L24.1982676,1.76757468 C23.7997265,1.45882353 23.3218619,1.30438679 22.8439716,1.30438679 C22.3660811,1.30438679 21.8882162,1.45882371 21.4896749,1.76757521 L0.93407469,19.3584721 Z" id="Shape" stroke="#000000" fill="#F6F6F7" fill-rule="nonzero"></path>
            <rect id="Rectangle-path" stroke="#000000" fill="#F9FBB1" fill-rule="nonzero" x="2.85263409" y="6.26236835" width="39.5" height="29.5"></rect>
            <path d="M44.4403857,18.9619069 L0.922529505,44.7144793 L0.922529505,46.6700404 L44.7626421,46.6700404 L44.4403857,18.9619069 Z" id="Shape" stroke="#000000" fill="#F6F6F7" fill-rule="nonzero"></path>
            <path d="M0.93407469,19.0228194 L0.93407469,46.6700404 L44.7538686,46.6700404 L44.7538686,44.9108659 L0.93407469,19.0228194 Z" id="Shape" stroke="#000000" fill="#E9F4F5" fill-rule="nonzero"></path>
            <path d="M7.8,15.3075894 C11.9449217,10.6101495 22.3948957,10.9164388 18.1963337,16.2248623 C13.9977717,21.5332858 29.3686677,12.9363352 31.8,16.0924465" id="路径" stroke="#000000" stroke-linecap="round"></path>
        </g>
    </g>
</svg>