<?xml version="1.0" encoding="UTF-8"?>
<svg width="64px" height="64px" viewBox="0 0 64 64" version="1.1" xmlns="http://www.w3.org/2000/svg" xmlns:xlink="http://www.w3.org/1999/xlink">
    <title>customer</title>
    <defs>
        <path d="M6.65811535,18.213759 C9.35193805,19.4519795 15.4650414,22.1849646 18.6666667,22.3333333" id="path-1"></path>
    </defs>
    <g id="customer" stroke="none" stroke-width="1" fill="none" fill-rule="evenodd">
        <rect id="Rectangle" x="0" y="0" width="64" height="64"></rect>
        <g id="编组" transform="translate(12.500000, 5.666667)">
            <g id="team-" stroke-width="1.5">
                <g id="编组-" transform="translate(0.479167, 0.298005)" fill-rule="nonzero" stroke="#FFFFFF">
                    <path d="M18.7802083,-0.75 C22.2559479,-0.75 25.3608255,0.618895549 27.6901519,2.88980993 C29.916121,5.05995896 31.4338028,8.05769243 31.8749326,11.4720496 C33.1501653,11.7910508 34.2701944,12.5012034 35.099638,13.4680355 C36.0374927,14.5612359 36.6041667,15.9820859 36.6041667,17.5353282 C36.6041667,18.8325184 36.2087902,20.0373119 35.5323813,21.0361092 C34.9518319,21.8933587 34.1638695,22.5986038 33.2408204,23.0804132 C33.5666714,24.7241811 33.9416737,26.0750645 34.3797051,27.039775 L34.3797051,27.039775 L35.1430962,28.5916363 L33.7522587,29.2973824 L33.2372151,29.5350578 L32.7458496,29.7469861 C32.4863396,29.8561063 32.2021315,29.971503 31.8870621,30.0948671 L31.8870621,30.0948671 L31.1748944,30.3670041 C30.2507611,30.7120006 29.2225248,31.0658803 28.0872903,31.4247605 L28.0872903,31.4247605 L34.5576543,33.5928908 C35.6887028,34.1452344 36.5984412,34.9584797 37.2389747,35.9288313 C37.8856472,36.9084829 38.2583792,38.0489311 38.3053671,39.2475476 L38.3053671,39.2475476 L38.310738,51.7876804 L-0.75,51.7876804 L-0.75,39.5049826 C-0.75,38.3157894 -0.428344996,37.1754717 0.150465201,36.1888896 C0.743249119,35.1784892 1.60575313,34.3293799 2.66865626,33.7538192 L2.66865626,33.7538192 L9.48969186,31.5072591 C8.81958727,31.2468766 8.16041722,31.0096904 7.53203399,30.7833319 C7.13867317,30.641634 6.7570719,30.5041553 6.38713593,30.3663103 C5.44063977,30.00642 4.96787614,29.8140765 4.55612934,29.6365882 L4.55612934,29.6365882 L4.06809374,29.4200886 L2.41188073,28.5950971 L3.07701921,27.2581368 C3.56697399,26.2733042 3.97935788,24.8153004 4.33468903,23.0085741 C3.44421219,22.5164445 2.68657172,21.8132845 2.12942355,20.9663983 C1.48147254,19.9814883 1.10416667,18.8024959 1.10416667,17.5353282 C1.10416667,16.0131992 1.64838688,14.6182212 2.55264013,13.5341336 C3.35470273,12.5725599 4.44031214,11.8560044 5.68075544,11.5118496 C6.11459611,8.08528986 7.63191595,5.07623617 9.86152642,2.89844443 C12.1918071,0.62232212 15.3001143,-0.75 18.7802083,-0.75 Z M22.1065758,32.4618377 L15.7826837,32.8300448 C16.5908575,33.7339972 17.6413204,34.2053736 18.7200819,34.2053782 C19.7951944,34.2053828 20.8855823,33.7391899 22.1065758,32.4618377 Z" id="形状结合"></path>
                </g>
                <path d="M30.9495833,12.7969453 C30.491875,6.32438124 25.715625,1.04800512 19.259375,1.04800512 C12.803125,1.04800512 8.026875,6.32438124 7.56916667,12.7969453 C7.29645833,16.6558188 6.56916667,24.8674954 4.89916667,28.2242756 C4.89916667,28.2242756 7.56916667,29.5810559 13.728125,31.2640523 L24.824375,31.259446 C30.9495833,29.5810559 33.6195833,28.2242756 33.6195833,28.2242756 C31.9495833,24.8674954 31.2222917,16.6558188 30.9495833,12.7969453 Z" id="Shape" stroke="#000000" fill="#ED6969" fill-rule="nonzero"></path>
                <path d="M34.2895833,47.7998362 L34.2895833,39.8031971 C34.2895833,37.896164 33.2175,36.1526567 31.52,35.2996426 L26.115625,32.5839839 C24.9839583,32.0153078 24.2691667,30.85283 24.2691667,29.5812652 L24.269375,24.5456761 L14.249375,24.5456761 L14.249375,29.5812652 C14.249375,30.8526206 13.5345833,32.014889 12.403125,32.5835651 L6.99854167,35.2994332 C5.30125,36.1524473 4.22916667,37.8957452 4.22916667,39.8029877 L4.22916667,48.3458134" id="Shape" stroke="#000000" fill="#F2ECCB" fill-rule="nonzero"></path>
                <path d="M37.2895833,51.3356855 L37.2895833,39.8034065 C37.2895833,37.896164 36.2172917,36.1526567 34.52,35.2996426 L26.115625,32.5839839 C25.8045833,32.4277864 25.53375,32.2194533 25.2920833,31.9836914 L23.3754167,34.1277427 C21.1116667,36.6599844 17.4072917,36.6597751 15.1435417,34.1277427 L13.2266667,31.983482 C12.9847917,32.2192439 12.7139583,32.427577 12.4033333,32.5837745 L3.99854167,35.2996426 C2.30145833,36.1524473 1.22916667,37.8959546 1.22916667,39.8029877 L1.22916667,51.3356855" id="Shape" stroke="#000000" fill="#FFC55D" fill-rule="nonzero"></path>
                <path d="M17.059548,11.9456654 C16.8620343,11.895084 16.6623222,11.9230455 16.4894263,12.0074934 C16.3014305,12.0993166 16.1443075,12.2567005 16.0489694,12.4568465 C15.6243646,13.3484402 14.8332255,14.5402431 13.5461159,15.694577 C13.1359764,16.0624783 12.7190249,16.3884356 12.3154407,16.6742025 C11.4777563,17.2671358 10.9343949,18.1875202 10.7110873,19.1813095 C10.4828753,20.1969251 10.5868887,21.2965416 11.0803807,22.2236278 C11.8747128,23.7158016 13.0612776,24.9654721 14.5017086,25.8333154 C15.8924304,26.6712095 17.5199919,27.1526658 19.259375,27.1526658 C21.6302523,27.1526658 23.6646759,26.2566859 25.1646315,24.777564 C26.7429081,23.2212089 27.7286483,21.0277533 27.9171754,18.5703327 C27.9447779,18.210588 27.7155663,17.1310505 27.434811,16.8880787 C26.0315315,15.673967 22.7831277,13.4114408 17.059548,11.9456654 Z" id="Shape" stroke="#000000" fill="#F2ECCB" fill-rule="nonzero"></path>
                <line x1="7.6" y1="44.6129033" x2="7.6" y2="50.6333333" id="Path-" stroke="#000000" stroke-linecap="round"></line>
                <line x1="30.9298246" y1="44.6129032" x2="30.9298246" y2="50.6333333" id="Path--" stroke="#000000" stroke-linecap="round"></line>
            </g>
            <path d="M8.58333333,13.0833333 L7.83333333,13.0833333 C6.52165705,13.0833333 5.33415705,13.6149952 4.47457612,14.4745761 C3.61499519,15.3341571 3.08333333,16.5216571 3.08333333,17.8333333 C3.08333333,19.1450096 3.61499519,20.3325096 4.47457612,21.1920905 C5.33415705,22.0516715 6.52165705,22.5833333 7.83333333,22.5833333 L8.58333333,22.5833333 L8.58333333,13.0833333 Z" id="Rectangle-" stroke="#000000" stroke-width="1.5" fill="#E9F4F5"></path>
            <path d="M35.5833333,13.0852387 L34.628407,13.0876616 C33.3638998,13.1412001 32.2274591,13.6893683 31.4071881,14.543334 C30.5872723,15.3969299 30.0833333,16.5562869 30.0833333,17.8333333 C30.0833333,19.1450096 30.6149952,20.3325096 31.4745761,21.1920905 C32.3341571,22.0516715 33.5216571,22.5833333 34.8333333,22.5833333 L35.5833333,22.5833333 L35.5833333,13.0852387 Z" id="Rectangle--" stroke="#000000" stroke-width="1.5" fill="#E9F4F5" transform="translate(32.833333, 17.833333) scale(-1, 1) translate(-32.833333, -17.833333) "></path>
            <path d="M8.57386179,15.6666667 C9.08017615,8.1407063 12.5931358,4.37772612 19.1127409,4.37772612 C25.6323459,4.37772612 29.2864591,8.1407063 30.0750806,15.6666667" id="Path-" stroke="#000000" stroke-width="1.5"></path>
            <g id="Path-" stroke-linecap="round">
                <use stroke="#FFFFFF" stroke-width="3" xlink:href="#path-1"></use>
                <use stroke="#000000" stroke-width="1.5" xlink:href="#path-1"></use>
            </g>
            <circle id="Oval-" fill="#000000" cx="19.1127409" cy="22.472387" r="2"></circle>
        </g>
    </g>
</svg>