<?xml version="1.0" encoding="UTF-8"?>
<svg width="64px" height="64px" viewBox="0 0 64 64" version="1.1" xmlns="http://www.w3.org/2000/svg" xmlns:xlink="http://www.w3.org/1999/xlink">
    <title>lion</title>
    <g id="lion" stroke="none" stroke-width="1" fill="none" fill-rule="evenodd">
        <rect id="矩形-" x="0" y="1.13686838e-13" width="64" height="64"></rect>
        <g transform="translate(7.000000, 8.000000)" id="编组">
            <g>
                <path d="M5.3672022,9.92950009 C1.71869863,13.8394508 -0.382738413,18.967703 -0.495239018,24.3957105 L-0.492646439,25.1132748 C-0.452804067,25.6729432 -0.252862893,26.1984487 0.0698593863,26.6347307 C0.387832068,27.0645918 0.824907942,27.40787 1.34523131,27.6119237 L3.42528559,28.4272352 C2.63568172,31.3192084 2.7869815,34.3267055 3.75683697,37.0517433 C4.77027097,39.8992253 6.67713623,42.4380716 9.51747039,44.3170946 C10.0851893,44.6353753 10.7280154,44.7461325 11.3446619,44.6589355 C11.9516203,44.5731084 12.5331731,44.2957069 12.9925775,43.8362115 L13.3534741,43.4748879 C14.329047,44.6444938 15.4254622,45.7021678 16.6373015,46.6427203 C18.8422318,48.3540125 21.3260037,49.5975775 24.2297084,50.3961112 C24.4818091,50.4652359 24.7404862,50.5 25,50.5 C25.259668,50.5 25.5185015,50.4651779 25.9828085,50.3376316 C28.6739723,49.5975615 31.1578467,48.3539571 33.3626195,46.6427089 L33.808576,46.2869707 C34.8145225,45.4619317 35.7317461,44.5585276 36.6418964,43.470694 L37.0073717,43.8362546 C37.4971629,44.3261427 38.1258775,44.6091048 38.7762357,44.6734732 C39.4265586,44.7378381 40.0985152,44.5836363 40.9549657,44.007623 C43.5172282,42.2087728 45.3406104,39.6916718 46.3010438,36.8859188 C47.1988222,34.2632021 47.3423377,31.3884909 46.5652589,28.4306408 L48.6545582,27.6120062 C49.2113008,27.3936701 49.6726077,27.0161492 49.9947821,26.5437446 C50.3169569,26.0713392 50.5,25.5040485 50.4958085,24.426285 C50.3910727,19.1115575 48.3851689,14.0893653 44.6127797,9.93695616 L44.9944963,9.79109364 C45.4811849,9.60489 45.8992049,9.29572868 46.215724,8.90443695 C46.5322296,8.51316188 46.7472409,8.03976409 46.8276431,7.52519032 C46.9080524,7.01066735 46.8476702,6.4942434 46.6655499,6.02505088 C46.4834368,5.55587664 46.1795951,5.13393352 45.7731007,4.80833114 L43.3244687,2.84721302 C40.7340263,0.772480433 37.5019801,-0.406010318 34.1794513,-0.494607798 L33.2252823,-0.492959704 C30.8936378,-0.420784908 28.5949903,0.205407722 26.5482272,1.32939359 L24.9992185,2.17938451 L23.5493303,1.38282041 C21.3054699,0.150850073 18.7679955,-0.5 16.208875,-0.5 C12.7555136,-0.5 9.37109346,0.688290106 6.67562003,2.84712325 L4.22686413,4.80837798 C3.82031305,5.13402578 3.51647181,5.55595157 3.33435923,6.02511221 C3.15045513,6.49888821 3.09068447,7.02083463 3.21135695,7.72806452 C3.42717967,8.66695879 4.09678292,9.44337211 5.00491314,9.79099735 L5.3672022,9.92950009 Z" id="wb" stroke="#FFFFFF" stroke-width="1.5" fill-rule="nonzero"></path>
                <path d="M25,49 C24.8746563,49 24.7493125,48.9832188 24.62725,48.94975 L24.4150938,48.8914375 C21.9136563,48.2035 19.606375,47.0483125 17.557,45.45775 C15.9895,44.2411563 14.6313438,42.8153125 13.5033437,41.204125 L11.9318125,42.7756563 C11.4578125,43.24975 10.715125,43.32325 10.1574063,42.9513438 C5.0925625,39.57475 3.12175,33.1256875 5.29290625,27.548875 L1.892875,26.2154688 C1.35428125,26.00425 1,25.4847813 1,24.90625 L1,24.8553438 C1,18.8404375 3.6180625,13.2220938 8.1120625,9.37375 L5.54115625,8.390125 C5.0704375,8.2099375 4.73209375,7.79171875 4.65428125,7.29371875 C4.57646875,6.79571875 4.7711875,6.29425 5.1645625,5.97915625 L7.6133125,4.01790625 C10.043125,2.07184375 13.0957187,1 16.208875,1 C18.5160625,1 20.8045938,1.5870625 22.8271563,2.69753125 L25,3.890875 L27.27025,2.6441875 C29.2290625,1.5685 31.4455,1 33.6800312,1 L33.7750937,1 C36.8985625,1 39.956875,2.07184375 42.3867812,4.018 L44.8353437,5.9790625 C45.2287187,6.29415625 45.4234375,6.79571875 45.345625,7.293625 C45.2678125,7.791625 44.9294687,8.2099375 44.45875,8.39003125 L41.8879375,9.37375 C46.3819375,13.2220937 49,18.8403437 49,24.8553437 L49,24.90625 C49,25.4847812 48.6457188,26.00425 48.107125,26.2154687 L44.707,27.548875 C46.87825,33.1256875 44.9074375,39.57475 39.8425,42.9513437 C39.2847812,43.3233437 38.542,43.2496563 38.0680937,42.7756562 L36.4965625,41.204125 C35.3685625,42.8154063 34.0104063,44.24125 32.4429063,45.45775 C30.393625,47.0483125 28.08625,48.2035 25.585,48.8913438 L25.3726563,48.94975 C25.2506875,48.9832188 25.1253438,49 25,49 Z" id="路径" stroke="#000000" stroke-width="1.5" fill="#FFC55D" fill-rule="nonzero"></path>
                <path d="M24.9999982,39.0002788 C23.6848598,39.0002788 22.4361915,38.8825865 21.4839597,38.6688365 C20.446649,38.4360481 19.2260024,38.0071635 18.991764,36.74725 C18.9844508,36.7081346 18.9787306,36.6686731 18.974531,36.6289519 L18.5471092,32.5994615 C18.4906313,32.0670769 18.7141534,31.5480192 19.1094263,31.2934231 L24.4848185,27.8318846 C24.8064528,27.6247981 25.1935436,27.6247981 25.515178,27.8318846 L30.8905702,31.2934231 C31.2858431,31.5479327 31.5092928,32.0669904 31.4528873,32.5994615 L31.0254655,36.6289519 C31.0212658,36.6686731 31.0154732,36.7081346 31.0082325,36.74725 C30.773994,38.00725 29.553275,38.4360481 28.5160368,38.6688365 C27.563805,38.8825865 26.3151367,39.0002788 24.9999982,39.0002788 Z" id="路径" stroke="#000000" stroke-width="1.5" fill="#E6455A" fill-rule="nonzero"></path>
                <path d="M31.6990288,33.7458854 C31.2254904,33.7458854 30.7497885,33.6643173 30.2932981,33.4983365 L25,31.5735481 L19.7067019,33.4983365 C18.4459231,33.9569038 17.0368173,33.7711058 15.9378654,33.0013462 C14.8388269,32.2315865 14.1826923,30.9709808 14.1826923,29.6292019 C14.1826923,28.5295577 14.6109712,27.4956827 15.3885192,26.7179615 L16.1335288,25.9730385 L15.816625,25.7194808 C13.6783462,24.008875 12.4519231,21.4572019 12.4519231,18.7187788 C12.4519231,15.7143365 13.9443654,12.9257212 16.4442019,11.25925 C17.9527404,10.2535 19.86775,10.1876442 21.4417981,11.087125 C23.6365865,12.3413269 26.3635,12.3413269 28.5582019,11.087125 C30.1324231,10.1874712 32.0472596,10.2535865 33.5557981,11.25925 C36.0556346,12.9257212 37.5480769,15.7143365 37.5480769,18.7187788 C37.5480769,21.4572019 36.3216538,24.008875 34.183375,25.7194808 L33.8664712,25.9730385 L34.6113942,26.7179615 C35.3890288,27.4955962 35.8173077,28.5295577 35.8173077,29.6292019 C35.8173077,30.9709808 35.1611731,32.2315865 34.0621346,33.0013462 C33.361,33.4924519 32.5335192,33.7458854 31.6990288,33.7458854 Z" id="路径" stroke="#000000" stroke-width="1.5" fill="#FFEECF" fill-rule="nonzero"></path>
                <path d="M20.5989978,16.5770161 C21.578616,16.5770161 22.3727534,17.3711536 22.3727534,18.3507718 C22.3727534,19.33039 21.578616,20.1245274 20.5989978,20.1245274 C19.6193796,20.1245274 18.8252421,19.33039 18.8252421,18.3507718 C18.8252421,17.3711536 19.6193796,16.5770161 20.5989978,16.5770161 Z M29.467776,16.5770161 C30.4473942,16.5770161 31.2415317,17.3711536 31.2415317,18.3507718 C31.2415317,19.33039 30.4473942,20.1245274 29.467776,20.1245274 C28.4881578,20.1245274 27.6940204,19.33039 27.6940204,18.3507718 C27.6940204,17.3711536 28.4881578,16.5770161 29.467776,16.5770161 Z" id="形状结合" fill="#000000"></path>
                <polyline id="路径-" stroke="#000000" stroke-width="1.5" stroke-linecap="round" points="24.9999893 31.5735481 24.9999893 26.3256162 22.7593016 24.4981479"></polyline>
                <line x1="24.9167157" y1="26.3298353" x2="27.1574034" y2="24.5023669" id="路径-" stroke="#000000" stroke-width="1.5" stroke-linecap="round"></line>
            </g>
        </g>
    </g>
</svg>