<?xml version="1.0" encoding="UTF-8"?>
<svg width="64px" height="64px" viewBox="0 0 64 64" version="1.1" xmlns="http://www.w3.org/2000/svg" xmlns:xlink="http://www.w3.org/1999/xlink">
    <title>schoolbag</title>
    <g id="schoolbag" stroke="none" stroke-width="1" fill="none" fill-rule="evenodd">
        <g id="Group-">
            <rect id="Rectangle-" x="0" y="0" width="64" height="64"></rect>
            <line x1="29.5285174" y1="11.0884326" x2="34.9563415" y2="11.0884326" id="wb" stroke="#FFFFFF"></line>
            <path d="M31.9861111,5.88541667 C34.1737362,5.88541667 36.1587246,6.75296535 37.6158485,8.16274482 C38.9681856,9.47114218 39.8656833,11.2466435 40.0488727,13.2293317 C43.9294192,14.9112336 47.2547022,17.6437296 49.6298491,21.0652127 C52.0143782,24.5002112 53.4419171,28.6291118 53.514458,33.0873709 L53.514458,33.0873709 L53.5154516,34.4878425 L53.9419092,33.643732 C55.2469881,33.4402229 56.4570649,33.872568 57.3102665,34.6786299 C58.0312514,35.3597803 58.497089,36.3079153 58.5504433,37.364711 L58.5504433,37.364711 L58.5555556,49.1128472 C58.5555556,50.1694287 58.1431837,51.1296792 57.4706756,51.8415165 C56.7897226,52.5622926 55.8419395,53.0280691 54.7855129,53.0816469 L54.7855129,53.0816469 L53.3755896,53.085546 C53.1192132,54.1860029 52.5289361,55.1582633 51.7169564,55.8892987 C50.7534995,56.7567109 49.4783561,57.2847222 48.0798611,57.2847222 L48.0798611,57.2847222 L15.8923611,57.2847222 C14.4938661,57.2847222 13.2187227,56.7567109 12.2552658,55.8892987 C11.4436742,55.1586126 10.8535733,54.1869321 10.5970004,53.0871236 L10.5970004,53.0871236 L9.4047936,53.0868004 C8.30458124,53.0331065 7.36030711,52.6075892 6.67154913,51.9568853 C5.95162392,51.2767361 5.50724497,50.3480958 5.45511222,49.315848 L5.45511222,49.315848 L5.44999171,37.5488195 C5.50362791,36.4484891 5.92916196,35.5041147 6.57992028,34.8152991 C7.39224194,33.9554718 8.55901665,33.4886894 9.83341826,33.6137639 L9.83341826,33.6137639 L10.0216356,34.3838138 L10.4548605,33.4384465 C10.5288406,28.8044458 11.9587246,24.5884104 14.3468706,21.1398117 C16.7244339,17.7064949 20.0526392,15.0334453 23.9431662,13.465381 C24.0528008,11.4385147 24.9166688,9.61430987 26.2595564,8.26344469 C27.7197706,6.79455583 29.7467058,5.88541667 31.9861111,5.88541667 Z M31.9861111,8.88541667 C30.656176,8.88541667 29.4451691,9.39470769 28.5375994,10.2290043 C27.8845049,10.829371 27.3883359,11.5979457 27.1181559,12.4661256 C28.6824711,12.1043664 30.3119678,11.9131944 31.9861111,11.9131944 C33.660103,11.9131944 35.2894558,12.1043324 36.8535777,12.4658453 C36.5839095,11.597855 36.0877381,10.8292673 35.4345768,10.2288897 C34.5270493,9.39470202 33.3160433,8.88541667 31.9861111,8.88541667 Z" id="wb" stroke="#FFFFFF" stroke-width="1.5" fill="#000000" fill-rule="nonzero"></path>
            <path d="M54.4513889,35.09375 L54.7118056,35.09375 C56.0062229,35.09375 57.0555556,36.1430826 57.0555556,37.4375 L57.0555556,49.2430556 C57.0555556,50.5374729 56.0062229,51.5868056 54.7118056,51.5868056 L52.1076389,51.5868056 L52.1076389,51.5868056 L52.1076389,37.4375 C52.1076389,36.1430826 53.1569715,35.09375 54.4513889,35.09375 Z" id="Rectangle-" fill="#E9F4F5"></path>
            <path d="M54.5815972,35.09375 C55.9479267,35.09375 57.0555556,36.2013789 57.0555556,37.5677083 L57.0555556,49.1128472 C57.0555556,50.4791767 55.9479267,51.5868056 54.5815972,51.5868056 L52.1076389,51.5868056" id="路径" stroke="#000000" stroke-width="1.5" fill-rule="nonzero"></path>
            <path d="M31.9861111,7.38541667 C35.6296563,7.38541667 38.5833333,10.3390937 38.5833333,13.9826389 C37.9893669,14.1566427 36.9288237,13.8719074 35.2686569,13.6488688 C35.1006202,11.9837406 33.6951477,10.6840278 31.9861111,10.6840278 C30.277414,10.6840278 28.8721606,11.9832242 28.7042981,13.6476696 C26.881904,13.8846277 25.6909288,14.1972574 25.3888889,13.9826389 C25.3888889,10.3390937 28.3425659,7.38541667 31.9861111,7.38541667 Z" id="Combined-Shape" fill="#B8D3D5"></path>
            <path d="M25.3888889,13.9826389 C25.3888889,10.3390937 28.3425659,7.38541667 31.9861111,7.38541667 C35.6296563,7.38541667 38.5833333,10.3390937 38.5833333,13.9826389" id="路径" stroke="#000000" stroke-width="1.5"></path>
            <path d="M9.34375,35.09375 L9.60416667,35.09375 C10.898584,35.09375 11.9479167,36.1430826 11.9479167,37.4375 L11.9479167,49.2430556 C11.9479167,50.5374729 10.898584,51.5868056 9.60416667,51.5868056 L7,51.5868056 L7,51.5868056 L7,37.4375 C7,36.1430826 8.04933262,35.09375 9.34375,35.09375 Z" id="Rectangle-" fill="#E9F4F5" transform="translate(9.473958, 43.340278) scale(-1, 1) translate(-9.473958, -43.340278) "></path>
            <path d="M9.47395833,35.09375 C10.8402878,35.09375 11.9479167,36.2013789 11.9479167,37.5677083 L11.9479167,49.1128472 C11.9479167,50.4791767 10.8402878,51.5868056 9.47395833,51.5868056 L7,51.5868056" id="路径" stroke="#000000" stroke-width="1.5" fill-rule="nonzero" transform="translate(9.473958, 43.340278) scale(-1, 1) translate(-9.473958, -43.340278) "></path>
            <path d="M31.9861111,13.4131944 C26.498466,13.4131944 21.5262165,15.6201843 17.9085482,19.2378526 C14.3062194,22.8401815 12.0478536,27.8400887 11.9548611,33.4506068 L11.9548611,51.8472222 C11.9548611,52.9345328 12.3955808,53.9189078 13.1081282,54.6314552 C13.8206755,55.3440025 14.8050505,55.7847222 15.8923611,55.7847222 L48.0798611,55.7847222 C49.1671717,55.7847222 50.1515467,55.3440025 50.8640941,54.6314552 C51.5766414,53.9189078 52.0173611,52.9345328 52.0173611,51.8472222 L52.0144633,33.1001061 C51.9225714,27.644344 49.6493851,22.7196846 46.0295319,19.160415 C42.4145411,15.6059265 37.4563935,13.4131944 31.9861111,13.4131944 Z" id="Combined-Shape" stroke="#000000" stroke-width="1.5" fill="#E9F4F5"></path>
            <path d="M32.0685764,15.9618056 C41.7695155,15.9618056 49.6336806,23.8259706 49.6336806,33.5269097 L49.6324722,33.4438056 L49.6336806,33.4444444 L49.6336806,38.4791667 C49.6336806,39.3421116 48.9341255,40.0416667 48.0711806,40.0416667 L16.0659722,40.0416667 C15.2030273,40.0416667 14.5034722,39.3421116 14.5034722,38.4791667 L14.5034722,33.4444444 C14.5484408,23.7810812 22.3953637,15.9618056 32.0685764,15.9618056 Z M32.0673237,20.5798611 L30.5132373,23.7287841 L27.0381944,24.2337374 L29.5527591,26.6848321 L28.9591509,30.1458333 L32.0673237,28.5117702 L35.1754964,30.1458333 L34.5818883,26.6848321 L37.0964529,24.2337374 L33.6214101,23.7287841 L32.0673237,20.5798611 Z" id="Combined-Shape" fill="#ED6969"></path>
            <rect id="Rectangle-" stroke="#000000" stroke-width="1.5" fill="#B8D3D5" x="19.5416667" y="36.0086806" width="24.8888889" height="15.1579861" rx="2.34375"></rect>
            <rect id="Rectangle-" fill="#000000" x="18.7916667" y="41.1961806" width="26.3888889" height="1.5"></rect>
            <path d="M36.1840278,41.9461806 L27.7881944,41.9461806 L27.7881944,43.1059028 C27.7881944,44.1932134 28.2289141,45.1775884 28.9414615,45.8901357 C29.6540088,46.6026831 30.6383838,47.0434028 31.7256944,47.0434028 L32.2465278,47.0434028 C33.3338384,47.0434028 34.3182134,46.6026831 35.0307607,45.8901357 C35.7433081,45.1775884 36.1840278,44.1932134 36.1840278,43.1059028 L36.1840278,41.9461806 Z" id="Rectangle" stroke="#000000" stroke-width="1.5" fill="#FFFFFF"></path>
        </g>
    </g>
</svg>