<?xml version="1.0" encoding="UTF-8"?>
<svg width="64px" height="64px" viewBox="0 0 64 64" version="1.1" xmlns="http://www.w3.org/2000/svg" xmlns:xlink="http://www.w3.org/1999/xlink">
    <title>search</title>
    <defs>
        <circle id="path-1" cx="20.1918229" cy="19.4618822" r="19.4042553"></circle>
    </defs>
    <g id="search" stroke="none" stroke-width="1" fill="none" fill-rule="evenodd">
        <rect id="Rectangle" x="0" y="0" width="64" height="64"></rect>
        <g id="Group-" transform="translate(9.000000, 9.000000)">
            <path d="M20.1918229,-0.692373107 C14.6263789,-0.692373107 9.58781509,1.56346876 5.94061224,5.21067161 C2.2934094,8.85787445 0.0375675315,13.8964383 0.0375675315,19.4618822 C0.0375675315,25.0273261 2.2934094,30.06589 5.94061224,33.7130928 C9.58781509,37.3602957 14.6263789,39.6161375 20.1918229,39.6161375 C24.0771528,39.6161375 27.7056126,38.5165402 30.7832626,36.6119229 L41.6746189,48.6042947 C42.3143028,49.2093466 43.1382627,49.5046629 43.9566528,49.4892803 C44.7610323,49.4741611 45.5603707,49.159284 46.1749242,48.5424108 L48.677832,46.0204437 C49.2521117,45.36591 49.5171487,44.5358829 49.4746579,43.7195871 C49.4329374,42.9180912 49.0951536,42.1301476 48.4642836,41.5352344 L36.8302802,30.8386287 C39.048301,27.6008551 40.3460782,23.682948 40.3460782,19.4618822 C40.3460782,13.8964383 38.0902363,8.85787445 34.4430335,5.21067161 C30.7958306,1.56346876 25.7572668,-0.692373107 20.1918229,-0.692373107 Z" id="wb" stroke="#FFFFFF" stroke-width="1.5" fill-rule="nonzero"></path>
            <path d="M45.112268,47.4837505 L47.4739045,45.1128527 C48.1623874,44.4216698 48.14484,43.2957515 47.4351792,42.6265384 L34.2976616,30.5469714 L30.639031,34.2199495 L42.635565,47.4449746 C43.3022649,48.1573171 44.4237851,48.1748321 45.112268,47.4837505 Z" id="Shape" stroke="#000000" stroke-width="1.5" fill="#FFC55D" fill-rule="nonzero"></path>
            <g id="Oval-" stroke-linejoin="square">
                <circle stroke="#FFFFFF" stroke-width="3" fill="#FFF9ED" fill-rule="evenodd" cx="20.1918229" cy="19.4618822" r="17.9042553"></circle>
                <circle stroke="#000000" stroke-width="1.5" cx="20.1918229" cy="19.4618822" r="18.6542553"></circle>
            </g>
            <rect id="矩形" stroke="#000000" stroke-width="1.5" fill="#F0ECFF" x="8.92021277" y="20.1542553" width="5.64893617" height="6.67021277"></rect>
            <rect id="矩形" stroke="#000000" stroke-width="1.5" fill="#F0ECFF" x="14.537234" y="15.0478723" width="5.64893617" height="11.7765957"></rect>
            <rect id="矩形" stroke="#000000" stroke-width="1.5" fill="#F0ECFF" x="20.1542553" y="10.962766" width="5.64893617" height="15.8617021"></rect>
            <line x1="3.10661719" y1="26.8085106" x2="31.7023619" y2="26.8085106" id="路径-" stroke="#000000" stroke-width="1.5"></line>
        </g>
    </g>
</svg>