<?xml version="1.0" encoding="UTF-8"?>
<svg width="64px" height="64px" viewBox="0 0 64 64" version="1.1" xmlns="http://www.w3.org/2000/svg" xmlns:xlink="http://www.w3.org/1999/xlink">
    <!-- Generator: Sketch 49.1 (51147) - http://www.bohemiancoding.com/sketch -->
    <title>dumbbell</title>
    <desc>Created with Sketch.</desc>
    <defs>
        <path d="M3.66666667,9.87899701 C5.69171075,9.87899701 7.33333333,9.17620244 7.33333333,8.30926141 C7.33333333,7.97954974 7.33333333,1.44760251 7.33333333,1.44760251 C7.33333333,1.44760251 4.92155381,1.13365539 3.66666667,1.13365539 C2.42011581,1.13365539 9.26337196e-15,1.44760251 9.26337196e-15,1.44760251 L0,8.30926141 C0,9.17620244 1.64162258,9.87899701 3.66666667,9.87899701 Z" id="path-1"></path>
        <ellipse id="path-2" cx="3.66666667" cy="1.53853232" rx="3.66666667" ry="1.53853232"></ellipse>
        <path d="M7.33333333,11.984357 C11.3834215,11.984357 14.6666667,10.608051 14.6666667,8.91029147 C14.6666667,8.26460613 14.6666667,4.01577929 14.6666667,4.01577929 C14.6666667,4.01577929 9.84310762,3.40096618 7.33333333,3.40096618 C4.84023162,3.40096618 9.26337196e-15,4.01577929 9.26337196e-15,4.01577929 C9.26337196e-15,4.01577929 0,8.25761714 0,8.91029147 C0,10.608051 3.28324517,11.984357 7.33333333,11.984357 Z" id="path-3"></path>
        <path d="M7.33333333,6.15412928 C11.3834215,6.15412928 14.6666667,4.77648052 14.6666667,3.07706464 C14.6666667,1.37764877 11.3834215,0 7.33333333,0 C3.28324517,0 0,1.37764877 0,3.07706464 C0,4.77648052 3.28324517,6.15412928 7.33333333,6.15412928 Z" id="path-4"></path>
        <path d="M44.0343065,32.9125834 C52.1344829,32.9125834 58.7009732,30.1935398 58.7009732,26.8394295 C58.7009732,25.5638072 58.7009732,21.0092017 58.7009732,21.0092017 C58.7009732,21.0092017 49.0538551,19.794571 44.0343065,19.794571 C39.0481031,19.794571 29.3676399,21.0092017 29.3676399,21.0092017 L29.3676399,26.8394295 C29.3676399,30.1935398 35.9341302,32.9125834 44.0343065,32.9125834 Z" id="path-5"></path>
        <ellipse id="path-6" cx="39.4059417" cy="29.0257649" rx="14.6666667" ry="6.0731539"></ellipse>
        <path d="M3.66666667,15.2233724 C5.69171075,15.2233724 7.33333333,14.5205779 7.33333333,13.6536368 L7.33333333,1.44760251 C7.33333333,1.44760251 4.92155381,1.13365539 3.66666667,1.13365539 C2.42011581,1.13365539 0,1.44760251 0,1.44760251 L0,13.6536368 C0,14.5205779 1.64162258,15.2233724 3.66666667,15.2233724 Z" id="path-7"></path>
        <ellipse id="path-8" cx="3.66666667" cy="1.53853232" rx="3.66666667" ry="1.53853232"></ellipse>
        <path d="M14.6666667,17.9765355 C22.766843,17.9765355 29.3333333,15.2574919 29.3333333,11.9033816 C29.3333333,10.6277594 29.3333333,6.0731539 29.3333333,6.0731539 C29.3333333,6.0731539 19.6862152,4.85852312 14.6666667,4.85852312 C9.68046324,4.85852312 0,6.0731539 0,6.0731539 L0,11.9033816 C0,15.2574919 6.56649034,17.9765355 14.6666667,17.9765355 Z" id="path-9"></path>
        <ellipse id="path-10" cx="14.6666667" cy="6.0731539" rx="14.6666667" ry="6.0731539"></ellipse>
        <path d="M7.33333333,11.0126524 C11.3834215,11.0126524 14.6666667,9.63634638 14.6666667,7.93858685 C14.6666667,7.29290151 14.6666667,3.04407467 14.6666667,3.04407467 C14.6666667,3.04407467 9.84310762,2.42926156 7.33333333,2.42926156 C4.84023162,2.42926156 9.26337196e-15,3.04407467 9.26337196e-15,3.04407467 C9.26337196e-15,3.04407467 0,7.28591252 0,7.93858685 C0,9.63634638 3.28324517,11.0126524 7.33333333,11.0126524 Z" id="path-11"></path>
        <ellipse id="path-12" cx="7.33333333" cy="3.07706464" rx="7.33333333" ry="3.07706464"></ellipse>
        <path d="M3.66666667,8.2594893 C5.69171075,8.2594893 7.33333333,7.55669474 7.33333333,6.6897537 C7.33333333,6.36004204 7.33333333,1.44760251 7.33333333,1.44760251 C7.33333333,1.44760251 4.71824702,0.69103842 3.46335988,0.69103842 C2.21680903,0.69103842 3.0579654e-14,1.44760251 3.0579654e-14,1.44760251 L2.13162821e-14,6.6897537 C2.13162821e-14,7.55669474 1.64162258,8.2594893 3.66666667,8.2594893 Z" id="path-13"></path>
        <ellipse id="path-14" cx="3.66666667" cy="1.53853232" rx="3.66666667" ry="1.53853232"></ellipse>
    </defs>
    <g id="dumbbell" stroke="none" stroke-width="1" fill="none" fill-rule="evenodd">
        <rect id="Rectangle" x="0" y="0" width="64" height="64"></rect>
        <path d="M47.239275,42.5934962 C44.3125905,44.2832183 39.742902,41.5048015 35.8242882,36.3881493 L32.9835733,38.0282368 C35.4812788,44.0507796 35.5675058,49.3321953 32.6529129,51.0149363 L27.6037876,53.9300502 C25.259356,55.2494899 21.9726879,53.8375823 18.6961648,50.5850219 C17.3718689,51.1514367 15.7147451,50.4551063 14.0945117,48.9338416 L11.3250347,50.5327999 C11.2344818,50.5850806 11.138252,50.6218672 11.0398267,50.6434998 C9.66913052,51.0531028 8.02534208,49.7127696 6.87201542,47.7151493 C5.71872103,45.7175848 5.37981969,43.6239162 6.41977216,42.6416522 C6.48767903,42.5672511 6.56766658,42.5022626 6.65836804,42.4498961 L9.47186461,40.8255231 C9.01493898,38.7363639 9.25725174,37.022691 10.3801885,36.1813267 C9.19559205,31.6945402 9.62658443,28.1285771 11.9371202,26.7945879 L12.5284045,26.4532102 L14.0059711,25.6001364 C15.7837573,24.573731 15.7837573,24.573731 16.9862462,23.8794736 C19.8757768,22.2112024 24.352461,24.8640729 28.2979318,29.9562882 L31.176437,28.2943824 C28.7654129,22.4035914 28.6708584,17.1333597 31.5726083,15.4580336 L36.6217337,12.5429197 C38.9298356,11.2103364 42.2285602,12.6154249 45.5194831,15.8782254 L46.5712149,15.2710078 C47.9006241,14.503473 49.6159944,15.1358877 51.3041466,16.6736439 L52.4327277,16.0220572 C53.8627037,15.1964602 55.7309715,16.5953119 56.9915174,18.7786413 C58.2520632,20.9619707 58.5293704,23.279364 57.0993944,24.104961 L56.016958,24.7299059 C56.5601959,27.0404455 56.2684197,28.917333 54.9045482,29.7047645 L53.8509221,30.3130758 C55.0285003,34.7908168 54.5951114,38.3466021 52.2884003,39.6783823 L47.239275,42.5934962 Z" id="Combined-Shape" fill="#FFFFFF" fill-rule="nonzero"></path>
        <g id="Group-2" transform="translate(51.733490, 21.429465) rotate(-120.000000) translate(-51.733490, -21.429465) translate(47.733490, 16.429465)">
            <g id="Oval-22-Copy">
                <use fill="#E9F4F5" fill-rule="evenodd" xlink:href="#path-1"></use>
                <path stroke="#2B2B2B" stroke-width="1.5625" d="M0.78125,2.14022211 L0.78125,8.30926141 C0.78125,8.34323802 0.95393437,8.5180231 1.38141108,8.70103003 C1.96121557,8.94924996 2.7813008,9.09774701 3.66666667,9.09774701 C4.55203253,9.09774701 5.37211776,8.94924996 5.95192225,8.70103003 C6.37939896,8.5180231 6.55208333,8.34323802 6.55208333,8.30926141 C6.55208333,7.33272796 6.55208333,7.33272796 6.55208333,4.88488986 C6.55208333,4.81982616 6.55208333,4.81982616 6.55208333,4.75479009 C6.55208333,2.26409592 6.55208333,2.26409592 6.55208333,1.44760251 L7.23248697,2.22231638 C7.15964013,2.21283373 7.02545874,2.19599292 6.84396757,2.17425304 C6.54080683,2.13793901 6.21820203,2.10161479 5.89030789,2.06774383 C5.60425077,2.03819456 5.32731667,2.01190347 5.06455409,1.98972667 C4.49279247,1.94147079 4.01425614,1.91490539 3.66666667,1.91490539 C3.31924599,1.91490539 2.83775739,1.9418312 2.26108206,1.99069074 C2.00165676,2.01267087 1.72835097,2.03863299 1.44604276,2.06775505 C1.22051862,2.09101945 0.997382364,2.1154411 0.78125,2.14022211 Z"></path>
            </g>
            <g id="Oval-22-Copy-2">
                <use fill="#FFD3BD" fill-rule="evenodd" xlink:href="#path-2"></use>
                <ellipse stroke="#2B2B2B" stroke-width="1.5625" cx="3.66666667" cy="1.53853232" rx="2.88541667" ry="1"></ellipse>
            </g>
        </g>
        <g id="Group" transform="translate(48.095225, 23.816555) rotate(-120.000000) translate(-48.095225, -23.816555) translate(40.595225, 17.816555)">
            <g id="Oval-22-Copy">
                <use fill="#ED6969" fill-rule="evenodd" xlink:href="#path-3"></use>
                <path stroke="#2B2B2B" stroke-width="1.5625" d="M13.8854167,4.70772671 C13.8520876,4.70379095 13.8178611,4.69976257 13.782762,4.69564583 C13.1723816,4.62405478 12.5229461,4.55245394 11.8625458,4.48565682 C11.2857298,4.42731394 10.7269736,4.37537283 10.1961704,4.3315071 C9.03224138,4.23531966 8.05530812,4.18221618 7.33333333,4.18221618 C6.6115195,4.18221618 5.62868628,4.23603314 4.45484346,4.33341646 C3.93084912,4.37688762 3.37946975,4.42817356 2.81026644,4.48566759 C2.14890917,4.5524699 1.49806248,4.62407646 0.886011931,4.69567363 C0.850176634,4.69986561 0.815247241,4.70396598 0.78125,4.70797026 C0.78125,4.98350875 0.78125,5.40135643 0.78125,6.21828251 C0.78125,6.36134122 0.78125,6.36134122 0.78125,6.50496664 C0.78125,7.29478647 0.78125,7.29478647 0.78125,7.99036199 C0.78125,8.5916932 0.78125,8.5916932 0.78125,8.91029147 C0.78125,9.99084816 3.67315267,11.203107 7.33333333,11.203107 C10.993514,11.203107 13.8854167,9.99084816 13.8854167,8.91029147 C13.8854167,8.59322937 13.8854167,8.59322937 13.8854167,7.99164377 C13.8854167,7.29521701 13.8854167,7.29521701 13.8854167,6.50394908 C13.8854167,6.36215334 13.8854167,6.36215334 13.8854167,6.22090338 C13.8854167,5.40188846 13.8854167,4.98357672 13.8854167,4.70772671 Z"></path>
            </g>
            <g id="Oval-22-Copy-2">
                <use fill="#FFD3BD" fill-rule="evenodd" xlink:href="#path-4"></use>
                <path stroke="#2B2B2B" stroke-width="1.5625" d="M7.33333333,5.37287928 C10.9936283,5.37287928 13.8854167,4.15948567 13.8854167,3.07706464 C13.8854167,1.99464361 10.9936283,0.78125 7.33333333,0.78125 C3.6730384,0.78125 0.78125,1.99464361 0.78125,3.07706464 C0.78125,4.15948567 3.6730384,5.37287928 7.33333333,5.37287928 Z"></path>
            </g>
        </g>
        <g id="Oval-22" transform="translate(44.034307, 26.353577) rotate(-120.000000) translate(-44.034307, -26.353577) ">
            <use fill="#BDCFD1" fill-rule="evenodd" xlink:href="#path-5"></use>
            <path stroke="#2B2B2B" stroke-width="1.5625" d="M57.9197232,21.7008615 C57.646394,21.6680764 57.3472548,21.6327795 57.0252673,21.5954744 C55.8005612,21.4535814 54.4975829,21.3116787 53.1723003,21.1792659 C52.0140996,21.0635466 50.8918377,20.9604952 49.8251036,20.873415 C47.4774272,20.6817683 45.5042733,20.575821 44.0343065,20.575821 C42.5644902,20.575821 40.5795407,20.6831853 38.2119529,20.8772077 C37.1589668,20.9634993 36.0515755,21.0652459 34.9087119,21.1792764 C33.581561,21.3116943 32.2758043,21.4536025 31.0478004,21.5955016 C30.7241994,21.6328945 30.4235615,21.6682699 30.1488899,21.7011209 L30.1488899,26.8394295 C30.1488899,29.5737255 36.325513,32.1313334 44.0343065,32.1313334 C51.7431,32.1313334 57.9197232,29.5737255 57.9197232,26.8394295 C57.9197232,25.7512506 57.9197232,25.7512506 57.9197232,24.0885638 C57.9197232,22.630258 57.9197232,22.0927731 57.9197232,21.7008615 Z"></path>
        </g>
        <g id="Oval-22" transform="translate(39.405942, 29.025765) rotate(-120.000000) translate(-39.405942, -29.025765) ">
            <use fill="#E9F4F5" fill-rule="evenodd" xlink:href="#path-6"></use>
            <ellipse stroke="#2B2B2B" stroke-width="1.5625" cx="39.4059417" cy="29.0257649" rx="13.8854167" ry="5.2919039"></ellipse>
        </g>
        <g id="Group-2" transform="translate(33.854558, 31.751871) rotate(-120.000000) translate(-33.854558, -31.751871) translate(29.854558, 23.751871)">
            <g id="Oval-22-Copy">
                <use fill="#E9F4F5" fill-rule="evenodd" xlink:href="#path-7"></use>
                <path stroke="#2B2B2B" stroke-width="1.5625" d="M6.55208333,2.1400043 C6.33700535,2.11529427 6.11489736,2.09094358 5.89030789,2.06774383 C5.60425077,2.03819456 5.32731667,2.01190347 5.06455409,1.98972667 C4.49279247,1.94147079 4.01425614,1.91490539 3.66666667,1.91490539 C3.31924599,1.91490539 2.83775739,1.9418312 2.26108206,1.99069074 C2.00165676,2.01267087 1.72835097,2.03863299 1.44604276,2.06775505 C1.22051862,2.09101945 0.997382364,2.1154411 0.78125,2.14022211 L0.78125,13.6536368 C0.78125,13.6876135 0.95393437,13.8623985 1.38141108,14.0454055 C1.96121557,14.2936254 2.7813008,14.4421224 3.66666667,14.4421224 C4.55203253,14.4421224 5.37211776,14.2936254 5.95192225,14.0454055 C6.37939896,13.8623985 6.55208333,13.6876135 6.55208333,13.6536368 L6.55208333,2.14000418 Z"></path>
            </g>
            <g id="Oval-22-Copy-2">
                <use fill="#FFD3BD" fill-rule="evenodd" xlink:href="#path-8"></use>
                <ellipse stroke="#2B2B2B" stroke-width="1.5625" cx="3.66666667" cy="1.53853232" rx="2.88541667" ry="1"></ellipse>
            </g>
        </g>
        <g id="Group-3" transform="translate(22.138511, 38.610221) rotate(-120.000000) translate(-22.138511, -38.610221) translate(7.138511, 29.610221)">
            <g id="Oval-22">
                <use fill="#BDCFD1" fill-rule="evenodd" xlink:href="#path-9"></use>
                <path stroke="#2B2B2B" stroke-width="1.5625" d="M28.5520833,6.76481362 C28.2787542,6.73202853 27.9796149,6.69673169 27.6576274,6.65942658 C26.4329213,6.51753351 25.129943,6.37563088 23.8046604,6.24321801 C22.6464597,6.12749878 21.5241979,6.0244473 20.4574637,5.93736714 C18.1097874,5.74572049 16.1366334,5.63977312 14.6666667,5.63977312 C13.1968503,5.63977312 11.2119008,5.74713744 8.84431304,5.94115983 C7.79132696,6.02745141 6.68393563,6.12919806 5.54107199,6.24322853 C4.21392113,6.37564646 2.90816444,6.51755468 1.68016055,6.65945372 C1.35655949,6.69684666 1.05592161,6.73222209 0.78125,6.76507303 L0.78125,11.9033816 C0.78125,14.6376776 6.95787317,17.1952855 14.6666667,17.1952855 C22.3754602,17.1952855 28.5520833,14.6376776 28.5520833,11.9033816 C28.5520833,10.8152028 28.5520833,10.8152028 28.5520833,9.15251599 C28.5520833,8.82909861 28.5520833,8.82909861 28.5520833,8.50990942 C28.5520833,7.53442713 28.5520833,7.06850385 28.5520833,6.76481362 Z"></path>
            </g>
            <g id="Oval-22">
                <use fill="#E9F4F5" fill-rule="evenodd" xlink:href="#path-10"></use>
                <ellipse stroke="#2B2B2B" stroke-width="1.5625" cx="14.6666667" cy="6.0731539" rx="13.8854167" ry="5.2919039"></ellipse>
            </g>
        </g>
        <g id="Group" transform="translate(17.239459, 41.631140) rotate(-120.000000) translate(-17.239459, -41.631140) translate(9.739459, 35.631140)">
            <g id="Oval-22-Copy">
                <use fill="#ED6969" fill-rule="evenodd" xlink:href="#path-11"></use>
                <path stroke="#2B2B2B" stroke-width="1.5625" d="M13.8854167,3.73602208 C13.8520876,3.73208633 13.8178611,3.72805795 13.782762,3.7239412 C13.1723816,3.65235015 12.5229461,3.58074931 11.8625458,3.51395219 C11.2857298,3.45560931 10.7269736,3.4036682 10.1961704,3.35980247 C9.03224138,3.26361503 8.05530812,3.21051156 7.33333333,3.21051156 C6.6115195,3.21051156 5.62868628,3.26432852 4.45484346,3.36171183 C3.93084912,3.40518299 3.37946975,3.45646894 2.81026644,3.51396297 C2.14890917,3.58076527 1.49806248,3.65237184 0.886011931,3.723969 C0.850176634,3.72816099 0.815247241,3.73226136 0.78125,3.73626564 C0.78125,4.01180412 0.78125,4.42965181 0.78125,5.24657789 C0.78125,5.38963659 0.78125,5.38963659 0.78125,5.53326202 C0.78125,6.32308185 0.78125,6.32308185 0.78125,7.01865737 C0.78125,7.61998858 0.78125,7.61998858 0.78125,7.93858685 C0.78125,9.01914353 3.67315267,10.2314024 7.33333333,10.2314024 C10.993514,10.2314024 13.8854167,9.01914353 13.8854167,7.93858685 C13.8854167,7.62152475 13.8854167,7.62152475 13.8854167,7.01993915 C13.8854167,6.32351239 13.8854167,6.32351239 13.8854167,5.53224445 C13.8854167,5.39044872 13.8854167,5.39044872 13.8854167,5.24919876 C13.8854167,4.43018383 13.8854167,4.0118721 13.8854167,3.73602208 Z"></path>
            </g>
            <g id="Oval-22-Copy-2">
                <use fill="#ED6969" fill-rule="evenodd" xlink:href="#path-12"></use>
                <ellipse stroke="#2B2B2B" stroke-width="1.5625" cx="7.33333333" cy="3.07706464" rx="6.55208333" ry="2.29581464"></ellipse>
            </g>
        </g>
        <g id="Group-2" transform="translate(11.468488, 44.676474) rotate(-120.000000) translate(-11.468488, -44.676474) translate(7.468488, 40.176474)">
            <g id="Oval-22-Copy">
                <use fill="#E9F4F5" fill-rule="evenodd" xlink:href="#path-13"></use>
                <path stroke="#2B2B2B" stroke-width="1.5625" d="M6.55208333,2.04398578 C6.27397744,1.97085868 5.98385841,1.89837041 5.69141198,1.83013527 C5.42347261,1.76761825 5.16434282,1.71124556 4.91825705,1.66252521 C4.29909417,1.53994262 3.79339427,1.47228842 3.46335988,1.47228842 C3.1757025,1.47228842 2.77699336,1.52531949 2.30397275,1.62361272 C2.03878631,1.6787182 1.75700394,1.74654437 1.46532582,1.82424388 C1.23156301,1.88651547 1.00147225,1.95239542 0.78125,2.01903438 L0.78125,6.6897537 C0.78125,6.72373031 0.95393437,6.89851539 1.38141108,7.08152232 C1.96121557,7.32974226 2.7813008,7.4782393 3.66666667,7.4782393 C4.55203253,7.4782393 5.37211776,7.32974226 5.95192225,7.08152232 C6.37939896,6.89851539 6.55208333,6.72373031 6.55208333,6.6897537 C6.55208333,5.91730782 6.55208333,5.91730782 6.55208333,4.07736422 C6.55208333,4.01117538 6.55208333,4.01117538 6.55208333,3.94503623 C6.55208333,2.80829527 6.55208333,2.35765104 6.55208333,2.04398578 Z"></path>
            </g>
            <g id="Oval-22-Copy-2">
                <use fill="#FFD3BD" fill-rule="evenodd" xlink:href="#path-14"></use>
                <ellipse stroke="#2B2B2B" stroke-width="1.5625" cx="3.66666667" cy="1.53853232" rx="2.88541667" ry="1"></ellipse>
            </g>
        </g>
    </g>
</svg>