<?xml version="1.0" encoding="UTF-8"?>
<svg width="64px" height="64px" viewBox="0 0 64 64" version="1.1" xmlns="http://www.w3.org/2000/svg" xmlns:xlink="http://www.w3.org/1999/xlink">
    <title>sandClock</title>
    <g id="sandClock" stroke="none" stroke-width="1" fill="none" fill-rule="evenodd">
        <rect id="Rectangle" transform="translate(32.000000, 32.000000) scale(-1, 1) translate(-32.000000, -32.000000) " x="0" y="0" width="64" height="64"></rect>
        <g id="编组" transform="translate(31.610000, 32.998188) scale(-1, 1) translate(-31.610000, -32.998188) translate(13.110000, 9.498188)">
            <path d="M33.8519022,-0.75 L2.34375,-0.75 C1.45857078,-0.75 0.659889304,-0.381449276 0.0908889713,0.270014874 C-0.419506304,0.854380479 -0.75,1.67680445 -0.75,2.68342391 C-0.75,3.92788449 -0.0020503108,5.02412018 1.12420378,5.80033415 C1.38481372,9.66810297 3.51058648,12.9861977 7.62335584,16.9898755 L12.1559604,21.3414776 C13.4444423,22.6017013 13.5410668,22.6750282 13.5245727,23.5126304 C13.513719,23.8811195 12.8525479,24.24491 9.35956862,27.5744674 C8.9443966,27.9702153 8.49044746,28.4029261 7.99414648,28.8764757 C3.55941512,33.1079103 1.30661716,36.5665609 1.11104534,40.7284704 C0.624735782,40.9424098 0.202111472,41.2846606 -0.119477277,41.7426569 C-0.506310033,42.2935717 -0.75,43.0203757 -0.75,43.90625 C-0.75,44.7605655 -0.403720236,45.534003 0.156138396,46.0938616 C0.715997028,46.6537202 1.48943453,47 2.34375,47 L33.8519022,47 C34.7370814,47 35.5357629,46.6314493 36.1047632,45.9799851 C36.6151585,45.3956195 36.9456522,44.5731955 36.9456522,43.5665761 C36.9456522,42.3184074 36.1932591,41.2192913 35.062741,40.4481536 C34.8013378,36.5953918 32.6776623,33.2861778 28.5641717,29.2814886 L24.0170166,24.9133527 C22.7738312,23.6948347 22.6536168,23.6208046 22.6756391,22.8440734 C22.637241,22.3383739 23.0340114,22.2860452 27.0111157,18.4751982 C27.3766941,18.1249023 27.7712761,17.7468152 28.1971405,17.3384455 C32.632951,13.0848602 34.8784179,9.64280031 35.0753748,5.52574044 C35.5637794,5.3125562 35.988343,4.97047024 36.311512,4.51211276 C36.7004918,3.96041461 36.9456522,3.23182886 36.9456522,2.34375 C36.9456522,1.48943453 36.5993724,0.715997028 36.0395138,0.156138396 C35.4796551,-0.403720236 34.7062176,-0.75 33.8519022,-0.75 Z" id="wb" stroke="#FFFFFF" stroke-width="1.5" fill-rule="nonzero"></path>
            <path d="M32.8395721,4.27718821 C26.9179336,4.31375136 10.9480292,4.31374576 3.35506078,4.27718261 C3.12102458,4.27605563 2.87903065,4.27481728 2.62961849,4.27347275 C2.60980586,4.52342792 2.6003562,4.77577443 2.60145627,5.03041396 C2.62390155,10.2259484 7.02980895,14.42898 10.7227528,17.8418887 C12.9406899,19.89164 15.0018431,21.5937096 15.0018116,23.1246569 C15.0017802,24.6510591 12.9504106,26.3366209 10.7412237,28.3704881 C7.04511891,31.7732723 2.62393816,35.97388 2.60145616,41.2196118 C2.60036527,41.4741502 2.60965172,41.7263167 2.62872993,41.9761346 C2.88028237,41.9754359 3.12306014,41.9740496 3.35543237,41.9728155 C10.2400375,41.9362522 26.259399,41.9362512 32.8400358,41.9728145 C33.070583,41.9740955 33.3127141,41.97555 33.5656303,41.9771694 C33.585749,41.7271483 33.5953015,41.4744957 33.5941958,41.2195731 C33.5717754,36.0504494 29.1753303,31.8526311 25.4841975,28.438863 C23.2606869,26.3824349 21.1926845,24.672904 21.1938365,23.1375042 C21.1949882,21.6026267 23.2607132,19.8904267 25.4832435,17.8308321 C29.1742602,14.4104072 33.5717686,10.2037271 33.5941959,5.03042528 C33.5953005,4.77561238 33.5857709,4.52305247 33.5662144,4.27272928 C33.3098268,4.27413882 33.0672718,4.27578228 32.8395721,4.27718821 Z" id="Oval-" stroke="#000000" stroke-width="1.5" fill="#FFFCF8"></path>
            <path d="M18.0978261,28.8224638 C18.8382078,28.8224638 19.4384058,29.4226617 19.4384058,30.1630435 C19.4384058,30.9034252 18.8382078,31.5036232 18.0978261,31.5036232 C17.3574444,31.5036232 16.7572464,30.9034252 16.7572464,30.1630435 C16.7572464,29.4226617 17.3574444,28.8224638 18.0978261,28.8224638 Z M18.0978261,25.8061594 C18.5605647,25.8061594 18.9356884,26.1812832 18.9356884,26.6440217 C18.9356884,27.1067603 18.5605647,27.4818841 18.0978261,27.4818841 C17.6350875,27.4818841 17.2599638,27.1067603 17.2599638,26.6440217 C17.2599638,26.1812832 17.6350875,25.8061594 18.0978261,25.8061594 Z" id="Combined-Shape" fill="#FFE5B6"></path>
            <path d="M7.49444934,10.4937346 C9.2739249,13.6977398 15.7541026,19.0671772 16.6402402,19.7663503 C17.5263778,20.4655235 18.8705577,20.414139 19.6225064,19.7663503 C20.3744551,19.1185617 25.325125,15.0711303 27.9022062,12.210125 C22.5114131,12.210125 22.8389486,13.2050047 20.4713329,13.2050047 C18.1037173,13.2050047 14.2097031,10.9972702 7.49444934,10.4937346 Z" id="Path-" fill="#FFC55D"></path>
            <path d="M5.02717391,41.2228261 L31.2051347,41.2228261 C31.2051347,41.2228261 31.4484748,36.4894767 25.8802906,32.0501156 C21.4078732,31.5379886 19.6719272,36.2500641 16.5185702,36.2500641 C13.3652131,36.2500641 14.1799197,34.2405855 8.6016713,34.0316109 C5.24154884,36.7849378 5.02717391,41.2228261 5.02717391,41.2228261 Z" id="Path-" fill="#E3AF51"></path>
            <rect id="Rectangle-" stroke="#000000" stroke-width="1.5" fill="#FFE5B6" x="0.75" y="0.75" width="34.6956522" height="3.52717391" rx="1.76358696"></rect>
            <rect id="Rectangle--" stroke="#000000" stroke-width="1.5" fill="#FFE5B6" x="0.75" y="41.9728261" width="34.6956522" height="3.52717391" rx="1.76358696"></rect>
        </g>
    </g>
</svg>