<?xml version="1.0" encoding="UTF-8"?>
<svg width="64px" height="64px" viewBox="0 0 64 64" version="1.1" xmlns="http://www.w3.org/2000/svg" xmlns:xlink="http://www.w3.org/1999/xlink">
    <title>cry</title>
    <g id="cry" stroke="none" stroke-width="1" fill="none" fill-rule="evenodd">
        <rect id="Rectangle" x="0" y="0" width="64" height="64"></rect>
        <circle id="Oval-" stroke="#FFFFFF" stroke-width="1.5" fill="#FBDC67" cx="32" cy="32" r="25.75"></circle>
        <path d="M55.672689,23.9412235 C56.5332091,26.4697498 57,29.1803625 57,32 C57,45.8071187 45.8071187,57 32,57 C19.5735931,57 9.26471863,47.9337662 7.32720779,36.0551299 L7.40137137,36.2731744 C10.816298,46.0145228 20.0923762,53 31,53 C44.8071187,53 56,41.8071187 56,28 C56,26.6192881 55.8880712,25.2647186 55.6727922,23.9448701 Z" id="Combined-Shape" fill="#F2CC5B"></path>
        <g id="Group" transform="translate(17.000000, 21.000000)">
            <g id="Group-">
                <path d="M1.76470588,0.117647059 L12.3529412,0.117647059 C13.3275613,0.117647059 14.1176471,0.907732794 14.1176471,1.88235294 C14.1176471,2.85697309 13.3275613,3.64705882 12.3529412,3.64705882 L1.76470588,3.64705882 C0.790085736,3.64705882 2.27493032e-13,2.85697309 2.27373675e-13,1.88235294 C2.27254319e-13,0.907732794 0.790085736,0.117647059 1.76470588,0.117647059 Z" id="Rectangle-" fill="#4C4023"></path>
                <rect id="Rectangle--" fill="#4C4023" x="21.1764706" y="0.117647059" width="14.1176471" height="3.52941176" rx="1.76470588"></rect>
                <path d="M10.5882353,35.6119613 L10.5882353,3.64705882 L3.52941176,3.64705882 L3.52941176,33.2190481 C5.71412318,34.3491942 8.08681398,35.1665816 10.5882353,35.6119613 L10.5882353,35.6119613 Z M31.7647059,29.5460093 L31.7647059,3.64705882 L24.7058824,3.64705882 L24.7058824,34.0460378 C27.3140286,32.9462749 29.6965467,31.4166884 31.7647059,29.5460093 L31.7647059,29.5460093 Z" id="Combined-Shape" fill="#69CDFF"></path>
            </g>
            <path d="M17.8764706,23.4058824 C21.9698752,23.4058824 24.0529412,24.0298627 24.0529412,23.4058824 C24.0529412,22.781902 21.9698752,19.7 17.8764706,19.7 C13.783066,19.7 11.7,22.7570212 11.7,23.4058824 C11.7,24.0547435 13.783066,23.4058824 17.8764706,23.4058824 Z" id="Oval--" fill="#4C4023"></path>
        </g>
    </g>
</svg>