<?xml version="1.0" encoding="UTF-8"?>
<svg width="64px" height="64px" viewBox="0 0 64 64" version="1.1" xmlns="http://www.w3.org/2000/svg" xmlns:xlink="http://www.w3.org/1999/xlink">
    <title>watermelon</title>
    <g id="watermelon" stroke="none" stroke-width="1" fill="none" fill-rule="evenodd">
        <rect id="Rectangle-" x="0" y="0" width="64" height="64"></rect>
        <g id="Group-" transform="translate(30.473285, 37.497663) rotate(10.000000) translate(-30.473285, -37.497663) translate(3.973285, 23.997663)" fill-rule="nonzero">
            <g id="Group" transform="translate(0.000000, 0.000000)">
                <path d="M-1.26824393,-1.30769231 C-1.70259669,6.96313605 1.47905012,14.4973734 6.8369922,19.8553155 C11.8691947,24.887518 18.8211178,28 26.5,28 C34.1788822,28 41.1308053,24.887518 46.1630078,19.8553155 C51.5209499,14.4973734 54.7025967,6.96313605 54.2682439,-1.30769231 L-1.26824393,-1.30769231 Z" id="wb" stroke="#FFFFFF" stroke-width="3"></path>
                <path d="M-0.54754048,-0.557692308 C-0.757652696,7.21073877 2.30751688,14.26518 7.36732229,19.3249854 C12.2638015,24.2214646 19.0282246,27.25 26.5,27.25 C33.9717754,27.25 40.7361985,24.2214646 45.6326777,19.3249854 C50.6924831,14.26518 53.7576527,7.21073877 53.5475405,-0.557692308 L-0.54754048,-0.557692308 Z" id="Oval-" stroke="#000000" stroke-width="1.5" fill="#8BCB76"></path>
                <path d="M26.5,22.1153846 C38.6077811,22.1153846 48.4230769,12.3000887 48.4230769,0.192307692 C30.4744752,0.192307692 17.9011257,0.192307692 4.57692308,0.192307692 C4.57692308,12.3000887 14.3922189,22.1153846 26.5,22.1153846 Z" id="Oval-" fill="#FFEECF"></path>
                <path d="M26.5,19.9230769 C37.3970029,19.9230769 46.2307692,11.0893106 46.2307692,0.192307692 C30.0770277,0.192307692 18.7610132,0.192307692 6.76923077,0.192307692 C6.76923077,11.0893106 15.6029971,19.9230769 26.5,19.9230769 Z" id="Oval-" fill="#ED6969"></path>
                <ellipse id="Oval" fill="#000000" cx="26.5" cy="14.4423077" rx="1.09615385" ry="2.19230769"></ellipse>
                <ellipse id="Oval" fill="#000000" transform="translate(19.923077, 12.837542) rotate(27.000000) translate(-19.923077, -12.837542) " cx="19.9230769" cy="12.8375424" rx="1.09615385" ry="2.19230769"></ellipse>
                <ellipse id="Oval" fill="#000000" transform="translate(33.076923, 12.837542) rotate(-27.000000) translate(-33.076923, -12.837542) " cx="33.0769231" cy="12.8375424" rx="1.09615385" ry="2.19230769"></ellipse>
                <ellipse id="Oval" fill="#000000" transform="translate(15.222638, 8.705373) rotate(55.000000) translate(-15.222638, -8.705373) " cx="15.2226383" cy="8.7053727" rx="1.09615385" ry="2.19230769"></ellipse>
                <ellipse id="Oval" fill="#000000" transform="translate(38.022638, 8.705373) rotate(-55.000000) translate(-38.022638, -8.705373) " cx="38.0226383" cy="8.7053727" rx="1.09615385" ry="2.19230769"></ellipse>
                <ellipse id="Oval" fill="#000000" transform="translate(12.504363, 3.333912) rotate(82.000000) translate(-12.504363, -3.333912) " cx="12.5043634" cy="3.33391246" rx="1.09615385" ry="2.19230769"></ellipse>
                <ellipse id="Oval" fill="#000000" transform="translate(40.442758, 3.333912) rotate(-82.000000) translate(-40.442758, -3.333912) " cx="40.4427582" cy="3.33391246" rx="1.09615385" ry="2.19230769"></ellipse>
            </g>
        </g>
    </g>
</svg>