<?xml version="1.0" encoding="UTF-8"?>
<svg width="64px" height="64px" viewBox="0 0 64 64" version="1.1" xmlns="http://www.w3.org/2000/svg" xmlns:xlink="http://www.w3.org/1999/xlink">
    <title>workcard</title>
    <g id="workcard" stroke="none" stroke-width="1" fill="none" fill-rule="evenodd">
        <rect id="Rectangle" x="0" y="0" width="64" height="64"></rect>
        <g id="Group" transform="translate(5.333333, 7.333333)">
            <path d="M29.9662568,-0.75 L23.1006352,-0.735264038 C22.4162446,-0.658936046 21.8330569,-0.30557365 21.4474089,0.198822439 C21.0717548,0.690147375 20.8835349,1.32477952 20.9717887,1.98626222 L21.6739601,7.24904541 L3.66662691,7.25 C2.63113276,7.25 1.69363276,7.66973305 1.01501624,8.34834957 C0.336399714,9.02696609 -0.0833333333,9.96446609 -0.0833333333,11 L-0.0833333333,41.6666667 C-0.0833333333,42.7022006 0.336399714,43.6397006 1.01501624,44.3183171 C1.69363276,44.9969336 2.63113276,45.4166667 3.66666667,45.4166667 L49.6666667,45.4166667 C50.7022006,45.4166667 51.6397006,44.9969336 52.3183171,44.3183171 C52.9969336,43.6397006 53.4166667,42.7022006 53.4166667,41.6666667 L53.4166667,11 C53.4166667,9.96446609 52.9969336,9.02696609 52.3183171,8.34834957 C51.6397006,7.66973305 50.7022006,7.25 49.6666667,7.25 L31.6565491,7.24904531 L32.3823468,1.7200759 C32.3972018,1.03159624 32.1240668,0.406793927 31.6750982,-0.0421747212 C31.2377675,-0.47950537 30.6336009,-0.75 29.9662568,-0.75 Z" id="wb" stroke="#FFFFFF" stroke-width="1.5"></path>
            <rect id="Rectangle-" stroke="#000000" stroke-width="1.5" fill="#E9F4F5" x="1.41666667" y="8.75" width="50.5" height="35.1666667" rx="3"></rect>
            <rect id="Rectangle-" stroke="#000000" stroke-width="1.5" fill="#FFDC64" x="6.91666667" y="16.25" width="17.5" height="21.5"></rect>
            <rect id="Rectangle-" fill="#000000" x="28.3333333" y="19.6666667" width="19" height="1.5"></rect>
            <rect id="Rectangle--" fill="#000000" x="28.3333333" y="24.6666667" width="19" height="1.5"></rect>
            <rect id="Rectangle---" fill="#000000" x="28.3333333" y="29.6666667" width="11.6666667" height="1.5"></rect>
            <path d="M29.9662568,0.75 L23.2046433,0.764516155 C22.9716443,0.806323228 22.7736156,0.933860372 22.6390217,1.10989817 C22.4965322,1.2962628 22.4251384,1.53698533 22.458614,1.78789257 L23.7483239,11.4545592 C23.7787014,11.682245 23.8910036,11.8811052 24.0531373,12.023044 C24.2152709,12.1649827 24.4272361,12.25 24.6569394,12.25 L28.6765469,12.25 C28.9062502,12.25 29.1182154,12.1649827 29.280349,12.023044 C29.4424827,11.8811052 29.5547849,11.682245 29.5851624,11.4545592 L30.8819752,1.62459628 C30.8712967,1.38820205 30.7710818,1.17512928 30.614438,1.01848545 C30.448554,0.852601411 30.2193873,0.75 29.9662568,0.75 Z" id="Rectangle-" stroke="#000000" stroke-width="1.5" fill="#E9F4F5"></path>
            <circle id="Oval-" fill="#000000" cx="26.6666667" cy="8" r="1.66666667"></circle>
            <path d="M6.9758595,37.2466152 C7.83895274,30.2032526 11.6666667,27.6446969 15.6666667,27.6446969 L15.8770188,27.6470698 C19.8000599,27.7358512 23.5095226,30.3268204 24.3574738,37.2466152 L24.3574738,37.2466152" id="形状" stroke="#000000" stroke-width="1.5" fill="#FFF9ED"></path>
            <circle id="椭圆形" stroke="#000000" stroke-width="1.5" fill="#FFF9ED" cx="15.6666667" cy="25.6666667" r="4.25"></circle>
        </g>
    </g>
</svg>