<?xml version="1.0" encoding="UTF-8"?>
<svg width="64px" height="64px" viewBox="0 0 64 64" version="1.1" xmlns="http://www.w3.org/2000/svg" xmlns:xlink="http://www.w3.org/1999/xlink">
    <title>shopping</title>
    <g id="shopping" stroke="none" stroke-width="1" fill="none" fill-rule="evenodd">
        <rect id="Rectangle" x="0" y="0" width="64" height="64"></rect>
        <g id="编组" transform="translate(4.666667, 9.000000)" stroke-width="1.5">
            <path d="M0.319387743,0.701703161 C2.44229233,-0.379223641 4.19627777,-0.694164569 5.48524993,-0.356704687 C6.22636967,-0.162675534 6.83649748,0.235795839 7.30383561,0.838436544 C7.72651743,1.38349217 8.03368316,2.10678185 8.18973739,3.02181133 C8.24282031,3.38814852 8.29200654,3.73435368 8.34581917,4.11522609 L8.34581917,4.11522609 L49.8662973,4.45238095 C51.1011825,4.45238095 52.2238002,4.93185385 53.0543751,5.71286286 C53.9305251,6.53672711 54.4816048,7.69597338 54.4995671,8.98350426 L54.4995671,8.98350426 L45.9961396,30.0863626 C45.0641646,31.4395085 43.7590089,32.131638 42.3586761,32.2074643 L42.3586761,32.2074643 L12.3364951,32.2139229 L12.5665591,33.8298582 C12.6279063,34.2607172 12.8359016,34.6387886 13.1357385,34.9164171 C13.4321352,35.1908603 13.8182027,35.3673522 14.2410787,35.3994526 L14.2410787,35.3994526 L44.6557638,35.4047619 C45.0699774,35.4047619 45.4449774,35.5726551 45.716424,35.8441017 C45.9878706,36.1155483 46.1557638,36.4905483 46.1557638,36.9047619 C46.1557638,37.2821266 46.0163423,37.6268934 45.7863698,37.8905421 C45.5410749,38.1717569 45.1924341,38.3601087 44.8000313,38.3978665 L44.8000313,38.3978665 L40.9164006,38.402374 C41.3545653,39.1169156 41.607143,39.9575516 41.607143,40.8571429 C41.607143,42.1556696 41.080811,43.3312648 40.2298474,44.1822284 C39.3788839,45.033192 38.2032886,45.5595239 36.904762,45.5595239 C35.6062353,45.5595239 34.43064,45.033192 33.5796765,44.1822284 C32.7287129,43.3312648 32.202381,42.1556696 32.202381,40.8571429 C32.202381,39.9583769 32.4544953,39.1184582 32.8919178,38.4043411 L32.8919178,38.4043411 L21.3461776,38.4043411 C21.7836,39.1184582 22.0357144,39.9583769 22.0357144,40.8571429 C22.0357144,42.1556696 21.5093825,43.3312648 20.6584189,44.1822284 C19.8074553,45.033192 18.63186,45.5595239 17.3333334,45.5595239 C16.0348067,45.5595239 14.8592115,45.033192 14.0082479,44.1822284 C13.1572843,43.3312648 12.6309524,42.1556696 12.6309524,40.8571429 C12.6309524,39.9148949 12.9080513,39.0373258 13.38527,38.3015856 C12.5696839,38.1302626 11.8254314,37.7526545 11.2139308,37.2220541 C10.36083,36.4818166 9.76610242,35.4438119 9.59647165,34.2524455 L9.59647165,34.2524455 L5.25341932,3.66199517 C5.200104,3.27880193 5.11567129,2.96911789 4.95572482,2.75085633 C3.90074008,2.38430201 2.97096864,2.71808791 1.68061226,3.37510321 C1.31149274,3.5630491 0.901137609,3.58358691 0.53607589,3.46485838 C0.171014171,3.34612985 -0.14875414,3.08813496 -0.336700025,2.71901544 C-0.52464591,2.34989592 -0.545183727,1.9395408 -0.426455194,1.57447908 C-0.307726661,1.20941736 -0.049731776,0.889649046 0.319387743,0.701703161 Z M8.81695645,7.45129509 C9.4313767,11.7921568 10.4621384,19.0459313 11.909141,29.2119083 L42.1061204,29.2142857 C42.5659754,29.2142857 42.9963993,29.0195259 43.338661,28.6568007 L51.4773333,8.78162807 C51.4196069,8.44898246 51.2536934,8.15183787 51.0066615,7.92488518 C50.7129775,7.6550723 50.3094088,7.48597381 49.8412586,7.45238029 L8.81695645,7.45129509 Z" id="wb" stroke="#FFFFFF" fill="#000000" fill-rule="nonzero"></path>
            <path d="M6.99188523,5.95238095 L49.8662973,5.95238095 C51.5969935,5.95238095 53,7.33816625 53,9.04761905 L44.6385864,29.4420393 C44.0487364,30.2414744 43.1075614,30.7142857 42.1060613,30.7142857 L10.3845888,30.7142857" id="Rectangle-" stroke="#000000" fill="#FFF9ED"></path>
            <line x1="8.42857143" y1="16.4761905" x2="49.9269502" y2="16.4761905" id="Path-" stroke="#000000"></line>
            <line x1="9.66666667" y1="23.9047619" x2="46.9656849" y2="23.9047619" id="Path--" stroke="#000000"></line>
            <path d="M1,2.03840319 C4.45022166,0.281641678 6.36325766,0.753935587 6.739108,3.45528491 C7.09625213,6.0221871 8.54372832,16.2175257 11.0815366,34.0413008 C11.3154516,35.684154 12.7221644,36.9047619 14.3815868,36.9047619 L44.6557638,36.9047619 L44.6557638,36.9047619" id="Path-" stroke="#000000" stroke-linecap="round"></path>
            <circle id="Oval-" stroke="#000000" fill="#BDCFD1" cx="17.3333334" cy="40.8571429" r="3.202381"></circle>
            <circle id="Oval--" stroke="#000000" fill="#BDCFD1" cx="36.904762" cy="40.8571429" r="3.202381"></circle>
            <line x1="17.2461826" y1="5.95238095" x2="20.5875249" y2="30.7142857" id="Path-" stroke="#000000"></line>
            <line x1="29.064945" y1="5.98585338" x2="29.1352826" y2="30.7477581" id="Path-" stroke="#000000"></line>
            <line x1="41.4115025" y1="5.95238095" x2="36.3521452" y2="30.7142857" id="Path--" stroke="#000000"></line>
        </g>
    </g>
</svg>