<?xml version="1.0" encoding="UTF-8"?>
<svg width="64px" height="64px" viewBox="0 0 64 64" version="1.1" xmlns="http://www.w3.org/2000/svg" xmlns:xlink="http://www.w3.org/1999/xlink">
    <title>USdollor</title>
    <g id="USdollor" stroke="none" stroke-width="1" fill="none" fill-rule="evenodd">
        <rect id="Rectangle" x="0" y="0" width="64" height="64"></rect>
        <g id="coins" transform="translate(10.250000, 8.500000)" fill-rule="nonzero">
            <path d="M21.7006648,-0.167860691 C15.8648625,-0.167860691 10.4453536,1.13668409 6.49751073,3.27676366 C4.47151008,4.37503497 2.82875622,5.69565873 1.69357872,7.16870156 C0.558645993,8.64142677 -0.0756469729,10.2685591 -0.107433918,11.9904408 L-0.103585384,35.1928225 C0.00542644436,38.5587472 2.44504739,41.5856733 6.41903036,43.7621969 C10.2841022,45.8790706 15.5803801,47.189983 21.3031811,47.2479864 L22.0905504,47.2480249 C27.8956875,47.1892271 33.2553187,45.8445402 37.133108,43.6788458 C39.1199737,42.5692074 40.7222934,41.2416693 41.818539,39.765284 C42.911907,38.2927741 43.5087623,36.6702031 43.5087623,34.9551 L43.4932336,11.6499535 C43.2746687,8.29791261 40.7350378,5.29522958 36.6832425,3.15921936 C32.7558402,1.08878622 27.4287008,-0.167860691 21.7006648,-0.167860691 Z" id="wb" stroke="#FFFFFF" stroke-width="1.5" fill="#000000"></path>
            <path d="M42.0087623,27.9175396 C38.7357079,32.5336795 30.960243,35.6587633 21.7006648,35.6587633 C12.4367956,35.6587633 4.64680465,32.542629 1.39256726,27.9066426 L1.39256726,34.9551 C1.39256726,36.4528623 1.9784723,37.9007412 3.06588689,39.2251685 C4.12909671,40.5201153 5.67948707,41.7005147 7.60051229,42.6871396 C11.2540576,44.5635745 16.265249,45.75 21.7006648,45.75 C27.1361149,45.75 32.1473349,44.5635946 35.8008857,42.6871568 C37.7218948,41.7005402 39.2722703,40.5201465 40.3354688,39.2251951 C41.4228652,37.9007712 42.0087623,36.4528867 42.0087623,34.9551 L42.0087623,27.9175396 Z" id="Shape" stroke="#000000" stroke-width="1.5" fill="#FFF9ED"></path>
            <path d="M42.0087623,21.2783552 C38.6355869,25.8945138 31.2422572,28.9566315 22,28.9566315 C12.7187872,28.9566315 4.54225748,25.8773077 1.39256726,21.2277828 L1.39256726,27.6382279 C1.39256726,29.1359902 1.9784723,30.5838692 3.06588689,31.9082964 C4.12909671,33.2032432 5.67948707,34.3836426 7.60051229,35.3702675 C11.2540576,37.2467024 16.265249,38.4331279 21.7006648,38.4331279 C27.1361149,38.4331279 32.1473349,37.2467225 35.8008857,35.3702847 C37.7218948,34.3836681 39.2722703,33.2032745 40.3354688,31.9083231 C41.4228652,30.5838991 42.0087623,29.1360147 42.0087623,27.6382279 L42.0087623,21.2783552 Z" id="Shape" stroke="#000000" stroke-width="1.5" fill="#F9FBB1"></path>
            <path d="M42.0087623,13.5884966 C38.7357079,18.2046365 30.960243,21.3297203 21.7006648,21.3297203 C12.4375897,21.3199313 4.64746489,18.2048677 1.39256726,13.5817327 L1.39256726,19.6617315 C1.39256726,21.1594938 1.9784723,22.6073727 3.06588689,23.9318 C4.12909671,25.2267467 5.67948707,26.4071461 7.60051229,27.3937711 C11.2540576,29.270206 16.265249,30.4566315 21.7006648,30.4566315 C27.1361149,30.4566315 32.1473349,29.270226 35.8008857,27.3937883 C37.7218948,26.4071716 39.2722703,25.226778 40.3354688,23.9318266 C41.4228652,22.6074026 42.0087623,21.1595182 42.0087623,19.6617315 L42.0087623,13.5884966 Z" id="Shape" stroke="#000000" stroke-width="1.5" fill="#FFF9ED"></path>
            <path d="M21.7006648,1.33213931 C16.265268,1.33213931 11.2540327,2.51855195 7.60046088,4.39500049 C5.67945099,5.38161753 4.12906936,6.56201049 3.06586622,7.85696049 C1.97846738,9.18138014 1.39256726,10.629259 1.39256726,12.1270393 C1.39256726,13.6248261 1.97846434,15.0727105 3.06586077,16.3971345 C4.12905924,17.6920859 5.67943477,18.8724795 7.60044384,19.8590961 C11.2539947,21.7355339 16.2652147,22.9219393 21.7006648,22.9219393 C27.1361149,22.9219393 32.1473349,21.7355339 35.8008857,19.8590961 C37.7218948,18.8724795 39.2722703,17.6920859 40.3354688,16.3971345 C41.4228652,15.0727105 42.0087623,13.6248261 42.0087623,12.1270393 C42.0087623,10.629259 41.4228622,9.18138014 40.3354634,7.85696049 C39.2722602,6.56201049 37.7218786,5.38161753 35.8008687,4.39500049 C32.1472969,2.51855195 27.1360615,1.33213931 21.7006648,1.33213931 Z" id="Shape" stroke="#000000" stroke-width="1.5" fill="#FFC55D"></path>
            <path d="M21.2386086,4.17 C21.9522111,4.17 22.538011,4.59204493 22.538011,5.10607097 L22.538011,5.10607097 L22.538011,6.01140244 C24.4531889,6.42573282 25.8427502,7.69163024 25.8427502,9.19549169 C25.8427502,9.69420732 25.2719379,10.1008232 24.5734394,10.1008232 C23.8673889,10.1008232 23.3041287,9.70192186 23.3041287,9.19549169 C23.3041287,8.35923506 22.3502576,7.68403438 21.1860934,7.68403438 C20.0218131,7.68403438 19.067942,8.35923506 19.0680582,9.19561037 C19.0680582,9.99365033 20.0895484,10.6381115 21.1786577,10.6994718 L21.1786577,10.6994718 C23.7549228,10.6994718 25.8354306,12.1956187 25.8354306,14.0294253 C25.8354306,15.5255722 24.4459855,16.7991842 22.5306914,17.2135145 L22.5306914,17.2135145 L22.5306914,18.1112502 C22.5306914,18.6252762 21.9523272,19.0473211 21.231289,19.0473211 C20.5176866,19.0473211 19.9318866,18.6252762 19.9318866,18.1112502 L19.9318866,18.1112502 L19.9318866,17.2289436 C17.9789489,16.8376382 16.5444245,15.5485971 16.5444245,14.0294253 C16.5444245,13.5307097 17.1152367,13.1240938 17.8137352,13.1240938 C18.5197857,13.1240938 19.0830459,13.5229951 19.0830459,14.0294253 C19.0830459,14.8656819 20.036917,15.5408826 21.2010812,15.5408826 C22.3652454,15.5408826 23.3191164,14.8656819 23.3191164,14.0294253 C23.3191164,13.2313853 22.2976262,12.5869242 21.208517,12.5255639 L21.208517,12.5255639 C18.6322518,12.5255639 16.5517441,11.029417 16.5517441,9.19561037 C16.5517441,7.67643852 17.9939367,6.38739747 19.9392062,5.99609204 L19.9392062,5.99609204 L19.9392062,5.10607097 C19.9392062,4.59204493 20.5251224,4.17 21.2386086,4.17 Z M11.1836567,10.619678 C11.9599308,10.619678 12.5860375,11.2575333 12.5944303,12.0380718 C12.5944303,12.8270492 11.9600599,13.4564655 11.1837858,13.4564655 L11.1837858,13.4564655 L9.33064447,13.4564655 C8.54597752,13.4564655 7.92,12.8186103 7.92,12.0380718 C7.92,11.2490943 8.55437037,10.619678 9.33064447,10.619678 L9.33064447,10.619678 Z M33.0717555,10.619678 C33.8480296,10.619678 34.4741363,11.2575333 34.4824,12.0380718 C34.4824,12.8270492 33.8480296,13.4564655 33.0717555,13.4564655 L33.0717555,13.4564655 L31.2186142,13.4564655 C30.4339472,13.4564655 29.8079697,12.8186103 29.8079697,12.0380718 C29.8079697,11.2490943 30.4423401,10.619678 31.2186142,10.619678 L31.2186142,10.619678 Z" id="形状结合" fill="#000000"></path>
        </g>
    </g>
</svg>