<?xml version="1.0" encoding="UTF-8"?>
<svg width="64px" height="64px" viewBox="0 0 64 64" version="1.1" xmlns="http://www.w3.org/2000/svg" xmlns:xlink="http://www.w3.org/1999/xlink">
    <title>beach</title>
    <g id="beach" stroke="none" stroke-width="1" fill="none" fill-rule="evenodd">
        <rect id="Rectangle" x="0" y="0" width="64" height="64"></rect>
        <g id="Group" transform="translate(9.000000, 8.000000)">
            <path d="M21.026655,-0.509519638 C22.5247238,-0.916535706 23.6055133,-0.810823719 24.7284956,0.291710612 C25.5539827,1.10216674 26.420108,2.56781755 27.5351721,5.03820581 C30.8786141,3.50201743 34.7386111,2.1736816 39.3524528,2.72334536 C44.296584,3.31235772 45.6091981,5.74346181 46.7878381,7.94775183 C47.0588389,8.45457692 47.3205909,8.94809996 47.632,9.39325538 C47.8665071,9.72848045 48.136435,10.0466562 48.4179168,10.3664571 C47.9987181,10.4361665 47.5674907,10.5025205 47.1229936,10.5657031 C39.7444317,11.6145215 35.6340212,10.8051484 29.1057808,8.91098526 C32.6804139,18.7977136 33.9362647,32.7213667 33.2648457,40.9811945 C38.0347819,42.1582658 42.4821821,44.1826708 46.4510405,46.8931653 C46.7412889,47.0913877 46.9833767,47.3573734 47.1304964,47.6296904 C46.455251,49.7883337 46.0299997,49.6364006 45.5780546,49.6596887 L45.5780546,49.6596887 L1.18474684,49.663028 C0.782043822,49.663028 0.488025178,49.5949829 0.277083171,49.5036371 C-0.310646493,47.300846 0.128565014,47.1839708 0.409230693,46.9900246 C2.04717004,45.8581727 3.77155934,44.8433483 5.57008325,43.9575518 C4.06460631,40.5847983 4.06616753,37.2018633 5.19061426,34.2528903 C6.31553301,31.3026793 8.56414576,28.7867438 11.6698245,27.4040065 C14.1020886,26.3210928 16.6990778,26.0941214 19.125666,26.5930526 C21.1779383,27.0150207 23.1082103,27.956717 24.7137848,29.338812 C25.6243641,25.1412234 26.2287891,20.0419391 26.1041372,14.0334016 C25.4040672,15.8262458 24.6615197,17.50912 23.8689591,18.8108158 C22.741561,20.6624466 21.4819794,21.6915467 20.1997565,21.6915467 C20.0001739,21.6915467 19.8076482,21.6909551 19.621307,21.6903815 C16.8072117,21.6817181 15.4954229,21.6753809 12.2745511,24.0691494 C11.6991427,24.4967959 11.2146516,24.88819 10.802548,25.2575343 C10.8728672,24.6191761 10.9682829,23.9757303 11.0901161,23.3284586 C11.9420645,18.8022532 13.9293714,14.919978 16.4744151,11.9193083 C15.8782982,10.7282957 15.5642518,9.74524927 15.36204,8.76362111 C15.2862499,8.39570185 15.2342118,8.07056992 15.2000943,7.79292645 C15.0806502,7.26738265 15.096894,6.67460266 15.2374994,6.04945381 C15.3221419,5.51712665 15.4593893,5.04261455 15.6613414,4.63817052 L15.6613414,4.63817052 L16.1832121,3.74529738 C17.7959888,1.38397774 19.5925608,-0.119885055 21.026655,-0.509519638 Z M22.0792646,6.37030757 C21.9590837,6.71046736 21.8493699,7.05022321 21.7504536,7.38849675 C22.2714997,7.0755145 22.7985975,6.79299053 23.3287844,6.54200334 C22.9075138,6.46082492 22.4898885,6.4031219 22.0792646,6.37030757 Z" id="wb" stroke="#FFFFFF" stroke-width="1.5" fill="#000000" fill-rule="nonzero"></path>
            <path d="M16.8197881,46.6976543 C22.7893365,46.6976543 26.8984743,44.8233229 26.8984743,38.8251664 C26.8984743,32.82701 22.0591992,27.9645434 16.0896508,27.9645434 C10.1201024,27.9645434 5.28082727,32.82701 5.28082727,38.8251664 C5.28082727,44.8233229 10.8502397,46.6976543 16.8197881,46.6976543 Z" id="Oval-" stroke="#000000" stroke-width="1.5" fill="#FFC55D" transform="translate(16.089651, 37.331099) rotate(-24.000000) translate(-16.089651, -37.331099) "></path>
            <path d="M27.2864067,8.33210227 C29.2087343,29.5543781 22.3332074,41.4234118 20.4064836,44.2955894 C22.1820553,45.781648 28.0345446,50.2415788 30.4602366,46.6879421 C32.1238382,44.2507671 32.4099038,35.2747065 31.2957762,25.7726838 C30.5832974,19.6961893 29.2716479,13.3803252 27.2864067,8.33210227 Z" id="Path-" stroke="#000000" stroke-width="1.5" fill="#F5E0C7"></path>
            <path d="M16.6472266,7.15667949 C16.6472266,7.15667949 16.8309268,11.3681344 19.8517411,13.8083165 C19.013093,10.1028729 20.4276173,5.41416467 22.6082772,1.72823313 C18.8261672,1.72823313 17.5098333,4.45574254 17.0738561,5.18013055 C16.637879,5.90451857 16.6472266,7.15667949 16.6472266,7.15667949 Z" id="Path-" stroke="#000000" stroke-width="1.5" fill="#6D9D5D"></path>
            <path d="M27.1330148,6.82584126 C24.0958097,7.44023916 20.9490518,9.29673598 18.3289537,12.0928103 C15.9684578,14.6118466 14.0353208,17.8977233 12.9882186,21.7567868 C15.5174002,20.179353 16.9793985,20.1822411 19.6259248,20.1903886 C19.8107785,20.1909576 20.0017672,20.1915467 20.1997565,20.1915467 C21.1374426,20.1915467 21.9076207,19.1763007 22.6626529,17.9060949 C23.9789169,15.6917173 25.1400321,12.4021397 26.2080918,9.39365179 C26.5244049,8.50266782 26.8323283,7.63556405 27.1330148,6.82584126 Z" id="Path-" stroke="#000000" stroke-width="1.5" fill="#8BCB76"></path>
            <path d="M27.2945339,6.81183972 C34.5760392,8.98184749 38.5778906,10.0961345 45.7750393,9.2301141 C45.6718588,9.04131739 45.5688727,8.84919129 45.4650616,8.6550441 C44.4675833,6.78956225 43.3696901,4.71254059 39.1750071,4.21281273 C34.5545067,3.66235569 30.7503285,5.15773101 27.2945339,6.81183972 Z" id="Path-" stroke="#000000" stroke-width="1.5" fill="#8BCB76"></path>
            <path d="M17.0322627,5.37209015 C17.8085956,5.02039797 18.8338729,4.79796011 20.0121271,4.74675832 C21.854987,4.66667567 24.0828985,4.99782902 26.2481361,5.83261143 C25.284684,3.66433965 24.543235,2.30299451 23.8232324,1.51344576 C23.4848259,1.1423521 23.1636093,0.917504266 22.8085642,0.82814484 C22.3902881,0.722871092 21.9429442,0.795907759 21.4199386,0.938005155 C20.233741,1.26028774 18.8109645,2.5718239 17.8148476,4.02261508 C17.5136704,4.46126356 17.2415186,4.91921004 17.0322627,5.37209015 Z" id="Path-" stroke="#000000" stroke-width="1.5" fill="#8BCB76"></path>
            <path d="M24.0505478,35.673233 C24.0505478,35.673233 28.2724923,36.420743 29.1755569,36.5796393 C29.0431395,37.9040293 28.8159461,38.5680969 28.8159461,38.5680969 L23.6693041,37.6345615 L24.0505478,35.673233 Z M25.5531184,31.2763333 C25.5531184,31.2763333 28.2881368,31.5718028 29.139469,31.6572606 C29.2596623,32.5751197 29.1386708,33.6462393 29.1386708,33.6462393 L25.3442666,33.263426 L25.5531184,31.2763333 Z M28.8822588,26.9600169 C29.0511414,27.8052375 29.044253,28.9512206 29.044253,28.9512206 L26.3441575,28.7814807 L26.4487267,26.7861808 C26.4487267,26.7861808 27.4218257,26.897143 28.8822588,26.9600169 Z" id="Combined-Shape" fill="#000000"></path>
            <path d="M46.0280635,47.5125121 C39.5758963,43.1060652 31.835452,40.5463259 23.5,40.5463259 C15.0867195,40.5463259 7.27960972,43.1540892 0.835601707,47.6070399 C0.228978895,48.0262295 -0.144164921,48.913028 1.18474684,48.913028 C9.10640554,48.913028 36.818543,48.913028 45.4016503,48.913028 C47.0013635,48.913028 46.6840499,47.9605118 46.0280635,47.5125121 Z" id="Oval-" fill="#BDCFD1"></path>
            <path d="M45.55009,48.0943667 C39.2300981,43.7936285 31.6553091,41.2963259 23.5,41.2963259 C15.5777056,41.2963259 8.2034306,43.6533183 1.86012064,47.8097672 C1.65791828,47.9292649 1.29390957,48.1282584 0.979307138,48.1425752 C1.35051661,48.2150208 1.85565862,48.1844683 2.47416129,48.163028 L45.4016503,48.163028 C45.4603187,48.163028 45.5061713,48.1397867 45.55009,48.0943667 Z" id="Oval-" stroke="#000000" stroke-width="1.5"></path>
            <rect id="Rectangle-" stroke="#FFFFFF" stroke-width="1.5" stroke-linecap="round" transform="translate(8.359389, 35.444644) rotate(-10.000000) translate(-8.359389, -35.444644) " x="5.20742832" y="33.8901531" width="6.30392157" height="3.10898119" rx="0.78125"></rect>
            <path d="M8.10210017,35.5089206 C8.10210017,35.5089206 7.93985836,33.5159994 6.67398124,33.5159994 C5.40810412,33.5159994 4.76633022,34.8060912 2.86954745,35.0337683" id="Path-" stroke="#FFFFFF" stroke-width="4.25" stroke-linecap="round" transform="translate(5.485824, 34.512460) rotate(-10.000000) translate(-5.485824, -34.512460) "></path>
            <path d="M13.3061333,34.5913091 C13.3061333,34.5913091 13.1438915,32.5983879 11.8780144,32.5983879 C10.6121372,32.5983879 9.97036335,33.8884797 8.07358058,34.1161568" id="Path-" stroke="#FFFFFF" stroke-width="4.25" stroke-linecap="round" transform="translate(10.689857, 33.594849) scale(-1, 1) rotate(-10.000000) translate(-10.689857, -33.594849) "></path>
            <rect id="Rectangle-" fill="#000000" transform="translate(8.359389, 35.444644) rotate(-10.000000) translate(-8.359389, -35.444644) " x="5.95742832" y="34.6401531" width="4.80392157" height="1.60898119" rx="0.78125"></rect>
            <path d="M8.10210017,35.5089206 C8.10210017,35.5089206 7.93985836,33.5159994 6.67398124,33.5159994 C5.40810412,33.5159994 4.76633022,34.8060912 2.86954745,35.0337683" id="Path-" stroke="#000000" stroke-width="1.5" stroke-linecap="round" transform="translate(5.485824, 34.512460) rotate(-10.000000) translate(-5.485824, -34.512460) "></path>
            <path d="M13.3061333,34.5913091 C13.3061333,34.5913091 13.1438915,32.5983879 11.8780144,32.5983879 C10.6121372,32.5983879 9.97036335,33.8884797 8.07358058,34.1161568" id="Path-" stroke="#000000" stroke-width="1.5" stroke-linecap="round" transform="translate(10.689857, 33.594849) scale(-1, 1) rotate(-10.000000) translate(-10.689857, -33.594849) "></path>
        </g>
    </g>
</svg>