<?xml version="1.0" encoding="UTF-8"?>
<svg width="64px" height="64px" viewBox="0 0 64 64" version="1.1" xmlns="http://www.w3.org/2000/svg" xmlns:xlink="http://www.w3.org/1999/xlink">
    <title>boring</title>
    <g id="boring" stroke="none" stroke-width="1" fill="none" fill-rule="evenodd">
        <rect id="Rectangle-" x="0" y="0" width="64" height="64"></rect>
        <path d="M32,6.25 C24.8893338,6.25 18.4518338,9.13216692 13.7920004,13.7920004 C9.13216692,18.4518338 6.25,24.8893338 6.25,32 C6.25,39.1106662 9.13216692,45.5481662 13.7920004,50.2079996 C18.4518338,54.8678331 24.8893338,57.75 32,57.75 C39.572691,57.75 46.3819404,54.4811657 51.0929887,49.2778785 C51.4695747,49.169993 51.8441475,49.040655 52.2151246,48.8904487 C53.5503628,48.3498188 54.6868536,47.1721208 55.4016632,45.6532483 C56.0507499,44.2740281 56.3510038,42.6197729 56.1481121,40.9607895 C57.1837796,38.1699874 57.75,35.1511194 57.75,32 C57.75,24.8893338 54.8678331,18.4518338 50.2079996,13.7920004 C45.5481662,9.13216692 39.1106662,6.25 32,6.25 Z" id="wb" stroke="#FFFFFF" stroke-width="1.5"></path>
        <circle id="Oval-" fill="#FBDC67" cx="32" cy="32" r="25"></circle>
        <path d="M55.672689,23.9412235 C56.5332091,26.4697498 57,29.1803625 57,32 C57,45.8071187 45.8071187,57 32,57 C19.5735931,57 9.26471863,47.9337662 7.32720779,36.0551299 L7.40137137,36.2731744 C10.816298,46.0145228 20.0923762,53 31,53 C44.8071187,53 56,41.8071187 56,28 C56,26.6192881 55.8880712,25.2647186 55.6727922,23.9448701 Z" id="Combined-Shape" fill="#F2CC5B"></path>
        <path d="M31.7058824,44.0588235 C37.5536032,44.0588235 40.5294118,44.950224 40.5294118,44.0588235 C40.5294118,43.167423 37.5536032,38.7647059 31.7058824,38.7647059 C25.8581615,38.7647059 22.8823529,43.131879 22.8823529,44.0588235 C22.8823529,44.985768 25.8581615,44.0588235 31.7058824,44.0588235 Z" id="Oval--" fill="#4C4023"></path>
        <path d="M26.5529444,25.2991297 C27.5275646,25.2991297 28.3176503,26.0892154 28.3176503,27.0638356 C28.3176503,27.3255683 28.2606707,27.5739926 28.1584394,27.7973809 L28.1762734,27.8049033 C26.8807915,30.118006 24.2064957,31.7058824 21.1176471,31.7058824 C18.1739388,31.7058824 15.6067401,30.2637239 14.2506718,28.1260777 C14.027711,27.8308276 13.8953211,27.4627923 13.8953211,27.0638356 C13.8953211,26.0892154 14.6854069,25.2991297 15.660027,25.2991297 C16.3862762,25.2991297 17.0100598,25.7378369 17.2808237,26.3646971 L17.2903239,26.360083 C18.0374945,27.443462 19.4714285,28.1764706 21.1176546,28.1764706 C22.7467063,28.1764706 24.1678722,27.4586767 24.9213768,26.3938757 C25.1838029,25.7513962 25.8155574,25.2991297 26.5529444,25.2991297 Z" id="Combined-Shape" fill="#4C4023"></path>
        <path d="M47.8929174,25.2991297 C48.8675376,25.2991297 49.6576233,26.0892154 49.6576233,27.0638356 C49.6576233,27.3255683 49.6006437,27.5739926 49.4984124,27.7973809 L49.5162464,27.8049033 C48.2207645,30.118006 45.5464687,31.7058824 42.4576201,31.7058824 C39.5139118,31.7058824 36.9467131,30.2637239 35.5906448,28.1260777 C35.367684,27.8308276 35.2352941,27.4627923 35.2352941,27.0638356 C35.2352941,26.0892154 36.0253799,25.2991297 37,25.2991297 C37.7262492,25.2991297 38.3500328,25.7378369 38.6207967,26.3646971 L38.6302969,26.360083 C39.3774675,27.443462 40.8114015,28.1764706 42.4576276,28.1764706 C44.0866793,28.1764706 45.5078452,27.4586767 46.2613498,26.3938757 C46.5237759,25.7513962 47.1555304,25.2991297 47.8929174,25.2991297 Z" id="Combined-Shape" fill="#4C4023"></path>
        <path d="M31.7058824,35.3778877 C39.7349494,31.1694777 48.0724954,32.3155025 52.6945083,36.1542548 C57.3165211,39.9930071 55.5078699,46.748091 51.9336512,48.1952705 C48.3594324,49.6424499 44.4297737,49.0190297 41.827091,44.5809839 C39.2244083,40.1429382 39.0361328,38.0977578 31.7058824,35.3778877 Z" id="Path-" fill="#69CDFF"></path>
    </g>
</svg>