<?xml version="1.0" encoding="UTF-8"?>
<svg width="64px" height="64px" viewBox="0 0 64 64" version="1.1" xmlns="http://www.w3.org/2000/svg" xmlns:xlink="http://www.w3.org/1999/xlink">
    <title>filesearch</title>
    <g id="filesearch" stroke="none" stroke-width="1" fill="none" fill-rule="evenodd">
        <g id="编组">
            <rect id="Rectangle" x="0" y="0" width="64" height="64"></rect>
            <g id="编组-" transform="translate(14.000000, 7.333333)">
                <path d="M24.6809855,-0.75 L36.4946809,11.0074397 L36.4946809,45.5106383 C36.4946809,46.5461722 36.0749478,47.4836722 35.3963313,48.1622887 C34.7177148,48.8409053 33.7802148,49.2606383 32.7446809,49.2606383 L32.7446809,49.2606383 L3,49.2606383 C1.96446609,49.2606383 1.02696609,48.8409053 0.348349571,48.1622887 C-0.330266953,47.4836722 -0.75,46.5461722 -0.75,45.5106383 L-0.75,45.5106383 L-0.75,3 C-0.75,1.96446609 -0.330266953,1.02696609 0.348349571,0.348349571 C1.02696609,-0.330266953 1.96446609,-0.75 3,-0.75 L3,-0.75 L24.6809855,-0.75 Z M25.121109,3.95732344 L25.1213733,8.31910349 C25.1213733,8.94046928 25.3732131,9.50296928 25.780383,9.91013919 C26.187553,10.3173091 26.750053,10.5691489 27.3713733,10.5691489 L31.7977913,10.5690434 L25.121109,3.95732344 Z" id="形状结合" stroke="#FFFFFF" stroke-width="1.5"></path>
                <polygon id="Rectangle-" fill="#94E8F4" points="22.9787234 0 34.4680851 11.4893617 22.9787234 11.4893617"></polygon>
                <path d="M23.6213733,0.75 L3,0.75 C2.37867966,0.75 1.81617966,1.00183983 1.40900974,1.40900974 C1.00183983,1.81617966 0.75,2.37867966 0.75,3 L0.75,45.5106383 C0.75,46.1319586 1.00183983,46.6944586 1.40900974,47.1016286 C1.81617966,47.5087985 2.37867966,47.7606383 3,47.7606383 L32.7446809,47.7606383 C33.3660012,47.7606383 33.9285012,47.5087985 34.3356711,47.1016286 C34.742841,46.6944586 34.9946809,46.1319586 34.9946809,45.5106383 L34.9946809,12.0691489 L27.3713733,12.0691489 C26.3358394,12.0691489 25.3983394,11.6494159 24.7197229,10.9707994 C24.0411064,10.2921828 23.6213733,9.35468284 23.6213733,8.31914894 L23.6213733,0.75 Z" id="Rectangle-" stroke="#000000" stroke-width="1.5" fill="#F0ECFF"></path>
                <rect id="Rectangle--" fill="#000000" x="6.38297872" y="12.7659574" width="10.212766" height="1.5"></rect>
                <rect id="Rectangle---" fill="#000000" x="6.38297872" y="20.4255319" width="22.9787234" height="1.5"></rect>
                <rect id="Rectangle---" fill="#000000" x="6.38297872" y="28.0851064" width="22.9787234" height="1.5"></rect>
                <rect id="Rectangle---" fill="#000000" x="6.38297872" y="35.7446809" width="22.9787234" height="1.5"></rect>
                <line x1="23.8294905" y1="0.567620774" x2="35.2304108" y2="11.8566458" id="Path-" stroke="#000000" stroke-width="1.5"></line>
                <g id="Group-" transform="translate(16.027323, 18.475611)">
                    <path d="M18.0793574,14.8568568 L14.5087765,18.44144 L24.3473427,29.0187877 C24.7529468,29.4521675 25.2938375,29.6724787 25.8378028,29.6809952 C26.3818457,29.6895128 26.9293813,29.4861838 27.3458468,29.0681463 L28.6596641,27.7491768 C29.0743809,27.3328336 29.2768462,26.7856519 29.2683721,26.2415814 C29.2598967,25.6974298 29.0404313,25.1568099 28.6128995,24.7536456 L18.0793574,14.8568568 Z" id="Shape" stroke="#FFFFFF" stroke-width="2.25" fill-rule="nonzero"></path>
                    <circle id="Oval-" stroke="#FFFFFF" stroke-width="1.5" cx="10.2583587" cy="10.2583587" r="11.0083587"></circle>
                    <circle id="Oval-" stroke="#000000" stroke-width="1.5" fill="#FFFFFF" cx="10.2583587" cy="10.2583587" r="9.50835866"></circle>
                    <path d="M26.5488546,28.274151 L27.8626138,26.9552399 C28.2456112,26.5707405 28.2358497,25.9444013 27.8410712,25.5721235 L18.1053218,16.4249035 L16.0700554,18.4681513 L25.1710849,28.2525803 C25.5419647,28.6488507 26.1658572,28.6585941 26.5488546,28.274151 Z" id="Shape" stroke="#000000" stroke-width="1.5" fill="#FFC55D" fill-rule="nonzero"></path>
                </g>
                <polyline id="路径-" stroke="#000000" stroke-width="1.5" points="20.4581102 31.978936 22.308243 29.5238961 25.6441802 31.6196255 28.752648 27.2228928 32.2320833 28.9721208"></polyline>
            </g>
        </g>
    </g>
</svg>