<?xml version="1.0" encoding="UTF-8"?>
<svg width="64px" height="64px" viewBox="0 0 64 64" version="1.1" xmlns="http://www.w3.org/2000/svg" xmlns:xlink="http://www.w3.org/1999/xlink">
    <title>PacMan</title>
    <g id="PacMan" stroke="none" stroke-width="1" fill="none" fill-rule="evenodd">
        <rect id="矩形-" x="0" y="1.13686838e-13" width="64" height="64"></rect>
        <g id="编组-" transform="translate(5.200000, 13.011289)">
            <path d="M38.5177603,-0.75 C34.9629631,-0.75 31.6341334,0.22205231 28.7798862,1.91570563 C25.6231952,3.78882305 23.0472052,6.54517795 21.3889145,9.84652043 L35.5011648,18.5984344 L20.1805625,24.1648749 C21.4339834,28.2760835 24.0192138,31.8023491 27.4308511,34.2352859 C30.5612346,36.4676525 34.3869572,37.7801043 38.5177603,37.7801043 C43.8132643,37.7801043 48.6076099,35.6234916 52.0779703,32.1362098 C55.5470135,28.6502516 57.6929713,23.8345305 57.6929713,18.5150522 C57.6929713,13.1955738 55.5470135,8.37985274 52.0779703,4.8938945 C48.6076099,1.4066127 43.8132643,-0.75 38.5177603,-0.75 Z M8.88105375,14.4347026 C6.18900343,14.4347026 3.75520089,15.5393726 2.00709393,17.3984004 C0.315025902,19.1978335 -0.737500648,21.708598 -0.737500648,24.6159844 C-0.737500648,24.999305 -0.740137799,25.4318402 -0.742981692,25.899275 C-0.758021504,28.3712854 -0.775680859,31.8030611 -0.456230103,34.1466118 C-0.332862012,35.0516633 -0.153900456,35.8050586 0.07850068,36.3146206 C0.222580692,36.63053 0.351805944,36.9046434 1.49040618,37.390284 C2.49659121,37.3636112 3.21378386,37.0643502 3.75244021,36.6580581 C4.49626856,36.0970111 4.89265682,35.3060216 5.44779122,34.4228883 C5.80002866,34.7294391 6.0857296,35.0789343 6.36392576,35.4129252 C7.21937421,36.4399413 8.03053867,37.2976998 9.58035974,37.2976998 C10.2799042,37.2976998 10.7131561,37.1002705 11.0250766,36.8318295 C11.3918713,36.5161632 11.589453,36.0561536 11.7708192,35.5120868 C11.9068316,35.1040735 12.0373992,34.6206862 13.0804949,34.3213214 C13.7132703,34.5973562 14.4144434,35.1967373 15.0829091,35.7517432 C16.1955618,36.6755435 17.2285221,37.3471797 18.9638941,36.4474178 C19.1266177,36.093973 19.2319957,35.5720504 19.2681855,34.9172107 C19.3467463,33.495684 19.1284707,31.3555868 18.8995529,29.1599203 C18.7014352,27.2596724 18.4970953,25.3164228 18.4955129,23.7700629 C18.4203884,21.17559 17.3180564,18.8385533 15.5807674,17.1517686 C13.8487611,15.470113 11.4858284,14.4347026 8.88105375,14.4347026 Z" id="wb" stroke="#FFFFFF" stroke-width="1.5" fill-rule="nonzero"></path>
            <path d="M38.5177603,0.75 C35.2424787,0.75 32.1752277,1.64517518 29.5453414,3.2056972 C27.0247038,4.70139326 24.9056881,6.80784875 23.3897758,9.32234536 L38.9185462,18.9527345 L22.0841468,25.0691835 C23.3549504,28.2852112 25.5334552,31.039851 28.3017725,33.0140178 C31.1862518,35.071023 34.7115074,36.2801043 38.5177603,36.2801043 C43.3982194,36.2801043 47.8164793,34.2919814 51.0147337,31.0781324 C54.2143052,27.8629598 56.1929713,23.4211547 56.1929713,18.5150522 C56.1929713,13.6089496 54.2143052,9.16714455 51.0147337,5.95197195 C47.8164793,2.73812291 43.3982194,0.75 38.5177603,0.75 Z" id="Combined-Shape" stroke="#000000" stroke-width="1.5" fill="#FFC55D" fill-rule="nonzero"></path>
            <circle id="椭圆形" fill="#000000" cx="35.4637829" cy="9.36889629" r="2.10909091"></circle>
            <path d="M39.8611209,8.48600661 C42.50153,6.74758179 47.3223873,5.92213877 51.0101036,7.33828168" id="Path-" stroke="#FFFFFF" stroke-width="1.5" opacity="0.5" stroke-linecap="round" fill-rule="nonzero" transform="translate(45.435612, 7.552058) rotate(41.000000) translate(-45.435612, -7.552058) "></path>
            <path d="M9.65415286,15.9347026 C7.39043124,15.9347026 5.34316128,16.8624626 3.87295241,18.4259591 C2.42178207,19.9692091 1.53559846,22.1271218 1.53559846,24.6159844 C1.53559846,25.8513721 1.34652351,27.5724212 1.1510679,29.3309715 C0.926156937,31.354537 0.69052961,33.4299138 0.762788771,34.8181873 C0.778676749,35.1234339 0.822532657,35.3803296 1.07155055,35.7234326 C1.46926465,35.5384688 1.96169367,35.0397219 2.49411002,34.5976735 C3.27831726,33.9465711 4.11471312,33.2693573 4.85495072,32.9464444 C5.22298115,32.7858989 5.57567567,32.7050821 5.89956545,32.7097581 C6.2685763,32.7150856 6.60928063,32.8233744 6.9149452,33.0549081 C7.69209202,33.6435784 7.96682045,34.3760081 8.18740404,35.0377202 C8.2709529,35.2883521 8.31140868,35.5424132 8.95484686,35.7976998 C9.99529278,35.7976998 10.4698154,35.1119156 11.0187291,34.4529124 C11.4373669,33.9503132 11.8729261,33.4234946 13.8626802,32.8664443 C14.1585152,33.04071 14.4300021,33.4491885 14.7002473,34.0269477 C14.9114253,34.4784268 15.1581469,35.0623467 15.6860353,35.4605168 C15.9766071,35.6796862 16.3637337,35.805577 17.0953504,35.6818554 C17.283579,35.2605703 17.4110574,34.6326807 17.5100057,33.8816271 C17.8148756,31.5675533 17.7929572,28.1662107 17.7783926,25.5346383 C17.7754628,25.0052846 17.7727073,24.5066027 17.7727073,24.053257 C17.7727073,21.8113801 16.8640071,19.7817415 15.3948377,18.3125722 C13.9256683,16.8434028 11.8960297,15.9347026 9.65415286,15.9347026 Z" id="Combined-Shape" stroke="#000000" stroke-width="1.5" fill="#9086F9" fill-rule="nonzero" transform="translate(9.267603, 25.912716) scale(-1, 1) translate(-9.267603, -25.912716) "></path>
            <circle id="Oval" fill="#EBEBEB" fill-rule="nonzero" cx="5.64131195" cy="23.5605596" r="2.46348733"></circle>
            <circle id="Oval" fill="#000000" fill-rule="nonzero" cx="6.55612122" cy="23.8253139" r="1"></circle>
            <circle id="Oval--" fill="#EBEBEB" fill-rule="nonzero" cx="12.5390765" cy="23.5605596" r="2.46348733"></circle>
            <circle id="Oval" fill="#000000" fill-rule="nonzero" cx="13.4538857" cy="23.8253139" r="1"></circle>
        </g>
    </g>
</svg>