<?xml version="1.0" encoding="UTF-8"?>
<svg width="64px" height="64px" viewBox="0 0 64 64" version="1.1" xmlns="http://www.w3.org/2000/svg" xmlns:xlink="http://www.w3.org/1999/xlink">
    <title>taxi</title>
    <g id="taxi" stroke="none" stroke-width="1" fill="none" fill-rule="evenodd">
        <rect id="矩形-" x="0" y="0" width="64" height="64"></rect>
        <g id="编组" transform="translate(2.908203, 14.421946)">
            <path d="M35.8606713,-0.75 L24.3606712,-0.75 L24.3601185,2.74900765 L14.1948671,2.74911136 L8.8470144,12.8284089 L2.80290175,12.833163 C1.8065524,12.8849419 0.912897037,13.3252563 0.271136573,14.0059216 C-0.361929026,14.6773649 -0.75,15.5823817 -0.75,16.5780541 L-0.75,28.644666 L6.20235454,28.644666 C6.37181901,30.1343016 7.0398496,31.4698782 8.03210086,32.4761681 C9.19204018,33.6525185 10.7947385,34.3791781 12.5644837,34.3791781 C14.3344434,34.3791781 15.9372226,33.6525402 17.0972063,32.4762432 C18.0895512,31.4699424 18.7576163,30.1343373 18.9270856,28.644666 L39.6926653,28.644666 C39.8621346,30.1343373 40.5301998,31.4699424 41.5225447,32.4762432 C42.6825284,33.6525402 44.2853075,34.3791781 46.0552673,34.3791781 C47.8250125,34.3791781 49.4277108,33.6525185 50.5876501,32.4761681 C51.5799014,31.4698782 52.247932,30.1343016 52.4173964,28.644666 L58.9339262,28.644666 L58.928492,16.3810917 C58.876746,15.3846877 58.4364225,14.4909803 57.7557263,13.8491907 C57.0842829,13.2161251 56.1792662,12.8280541 55.1835938,12.8280541 L45.8911553,12.8280541 L40.4860549,2.74911648 L35.8601185,2.74901625 L35.8606713,-0.75 Z" id="形状结合" stroke="#FFFFFF" stroke-width="1.5" fill-rule="nonzero"></path>
            <path d="M39.5883827,4.24910676 L15.0970616,4.24910676 L9.74939465,14.3280541 L3,14.3280541 C2.37867966,14.3280541 1.81617966,14.579894 1.40900974,14.9870639 C1.00183983,15.3942338 0.75,15.9567338 0.75,16.5780541 L0.75,27.144666 L57.4335938,27.144666 L57.4335938,16.5780541 C57.4335938,15.9567338 57.1817539,15.3942338 56.774584,14.9870639 C56.3674141,14.579894 55.8049141,14.3280541 55.1835938,14.3280541 L44.9934883,14.3280541 L39.5883827,4.24910676 Z" id="Path" stroke="#000000" stroke-width="1.5" fill="#FFC55D" fill-rule="nonzero"></path>
            <path d="M34.3605528,0.75 L25.8605528,0.75 L25.8605528,4.25 L34.3605528,4.25 L34.3605528,0.75 Z" id="矩形" stroke="#000000" stroke-width="1.5" fill="#FFC55D" fill-rule="nonzero"></path>
            <path d="M46.0552673,22.9101538 C44.7019127,22.9101538 43.4772431,23.4671896 42.590585,24.3663171 C41.7001317,25.2692933 41.1502838,26.516998 41.1502838,27.894666 C41.1502838,29.272334 41.7001317,30.5200387 42.590585,31.4230149 C43.4772431,32.3221424 44.7019127,32.8791781 46.0552673,32.8791781 C47.4084164,32.8791781 48.6329734,32.3221205 49.5195657,31.4229844 C50.4099449,30.5200079 50.9597778,29.272317 50.9597778,27.894666 C50.9597778,26.5170149 50.4099449,25.269324 49.5195657,24.3663475 C48.6329734,23.4672114 47.4084164,22.9101538 46.0552673,22.9101538 Z" id="Path" stroke="#000000" stroke-width="1.5" fill="#FFFFFF"></path>
            <path d="M12.5644837,22.9101538 C11.2113346,22.9101538 9.9867776,23.4672114 9.10018523,24.3663475 C8.20980603,25.269324 7.65997314,26.5170149 7.65997314,27.894666 C7.65997314,29.272317 8.20980603,30.5200079 9.10018523,31.4229844 C9.9867776,32.3221205 11.2113346,32.8791781 12.5644837,32.8791781 C13.9178383,32.8791781 15.1425079,32.3221424 16.0291659,31.4230149 C16.9196193,30.5200387 17.4694671,29.272334 17.4694671,27.894666 C17.4694671,26.516998 16.9196193,25.2692933 16.0291659,24.3663171 C15.1425079,23.4671896 13.9178383,22.9101538 12.5644837,22.9101538 Z" id="Path" stroke="#000000" stroke-width="1.5" fill="#FFFFFF"></path>
            <polygon id="Path" fill="#ED6969" fill-rule="nonzero" points="51.5917969 17.5780541 51.5917969 20.4692958 56.7012074 20.4692958 56.7012074 17.5780541"></polygon>
            <path d="M14.2317969,28.0730541 C14.2317969,28.981536 13.4953455,29.7180541 12.5866477,29.7180541 C11.6782482,29.7180541 10.9417969,28.981536 10.9417969,28.0730541 C10.9417969,27.1645722 11.6782482,26.4280541 12.5866477,26.4280541 C13.4953455,26.4280541 14.2317969,27.1645722 14.2317969,28.0730541 Z" id="Path" fill="#000000" fill-rule="nonzero"></path>
            <path d="M47.6917969,27.8930541 C47.6917969,28.801536 46.9553455,29.5380541 46.0469461,29.5380541 C45.1382482,29.5380541 44.4017969,28.801536 44.4017969,27.8930541 C44.4017969,26.9845722 45.1382482,26.2480541 46.0469461,26.2480541 C46.9553455,26.2480541 47.6917969,26.9845722 47.6917969,27.8930541 Z" id="Path" fill="#000000" fill-rule="nonzero"></path>
            <polygon id="Path" fill="#FFFFFF" fill-rule="nonzero" points="1.50179688 20.2460914 4.42223761 20.2460914 4.42223761 24.1687202 1.50179688 24.1687202"></polygon>
            <path d="M40.8307227,8.14329535 L44.5530988,15.1071057 L31.2976272,15.1071057 L31.2949859,8.14329535 L40.8307227,8.14329535 Z M31.29419,8.14329535 L31.29419,15.1071057 L28.661377,15.1071057 L28.661377,8.14329535 L31.29419,8.14329535 Z" id="形状结合" fill="#FFFFFF" fill-rule="nonzero"></path>
            <path d="M29.8477595,8.14329535 L32.9099475,15.1071057 L19.2976272,15.1071057 L19.2949859,8.14329535 L29.8477595,8.14329535 Z M19.29419,8.14329535 L19.29419,15.1071057 L16.661377,15.1071057 L16.661377,8.14329535 L19.29419,8.14329535 Z" id="形状结合" fill="#FFEECF" fill-rule="nonzero" transform="translate(24.785662, 11.625201) scale(-1, 1) translate(-24.785662, -11.625201) "></path>
            <polygon id="Path" fill="#FFFFFF" fill-rule="nonzero" points="28.661377 15.1071057 21.8210609 15.1071057 24.1169665 8.14329535 28.661377 8.14329535"></polygon>
            <line x1="29.0917969" y1="27.894666" x2="29.0917969" y2="8.14329535" id="路径-" stroke="#000000" stroke-width="1.5"></line>
            <line x1="32.9099475" y1="18.0189807" x2="37.1759869" y2="18.0189807" id="路径-" stroke="#000000" stroke-width="1.5"></line>
        </g>
    </g>
</svg>