<?xml version="1.0" encoding="UTF-8"?>
<svg width="64px" height="65px" viewBox="0 0 64 65" version="1.1" xmlns="http://www.w3.org/2000/svg" xmlns:xlink="http://www.w3.org/1999/xlink">
    <title>kiss</title>
    <g id="kiss" stroke="none" stroke-width="1" fill="none" fill-rule="evenodd" transform="translate(0.000000, 1.000000)">
        <rect id="Rectangle-" x="0" y="0" width="64" height="64"></rect>
        <path d="M32,6.25 C24.8893338,6.25 18.4518338,9.13216692 13.7920004,13.7920004 C9.13216692,18.4518338 6.25,24.8893338 6.25,32 C6.25,39.1106662 9.13216692,45.5481662 13.7920004,50.2079996 C18.4518338,54.8678331 24.8893338,57.75 32,57.75 C39.2804009,57.75 45.8551266,54.7286123 50.5374702,49.871536 C52.3935664,49.193704 54.6185946,48.1520803 56.2624648,46.6927628 C57.5961971,45.5087649 58.546341,44.0551182 58.7219545,42.3252866 C58.889262,40.6768109 58.2479111,39.0374851 57.0668659,37.9173031 C57.5135316,36.0172834 57.75,34.0362538 57.75,32 C57.75,24.8893338 54.8678331,18.4518338 50.2079996,13.7920004 C45.5481662,9.13216692 39.1106662,6.25 32,6.25 Z" id="wb" stroke="#FFFFFF" stroke-width="1.5"></path>
        <circle id="Oval-" fill="#FBDC67" cx="32" cy="32" r="25"></circle>
        <path d="M55.672689,23.9412235 C56.5332091,26.4697498 57,29.1803625 57,32 C57,45.8071187 45.8071187,57 32,57 C19.5735931,57 9.26471863,47.9337662 7.32720779,36.0551299 L7.40137137,36.2731744 C10.816298,46.0145228 20.0923762,53 31,53 C44.8071187,53 56,41.8071187 56,28 C56,26.6192881 55.8880712,25.2647186 55.6727922,23.9448701 Z" id="Combined-Shape" fill="#F2CC5B"></path>
        <path d="M38.6348475,22.2162835 C41.4274931,22.7087022 45.0516755,24.3778511 47.0750749,27.0139168" id="Path-" stroke="#4C4023" stroke-width="3" stroke-linecap="round" transform="translate(42.854961, 24.615100) rotate(-10.000000) translate(-42.854961, -24.615100) "></path>
        <path d="M41.5828374,30.8730996 C45.2336824,30.8730996 47.1675393,32.1527185 47.1675393,31.5703221 C47.1675393,30.9879257 45.2336824,27.7308728 41.5828374,27.7308728 C37.9319924,27.7308728 36.1675393,30.964703 36.1675393,31.5703221 C36.1675393,32.1759412 37.9319924,30.8730996 41.5828374,30.8730996 Z" id="Oval---" fill="#4C4023" transform="translate(41.667539, 29.730873) scale(-1, 1) rotate(-2.000000) translate(-41.667539, -29.730873) "></path>
        <path d="M16,17 C18.862793,17 24.2407227,20.4472656 26.1240234,23.3154297" id="Path--" stroke="#4C4023" stroke-width="3" stroke-linecap="round" transform="translate(21.062012, 20.157715) scale(-1, 1) translate(-21.062012, -20.157715) "></path>
        <ellipse id="Oval-" fill="#4C4023" cx="24" cy="28.5" rx="3" ry="4.5"></ellipse>
        <path d="M33.8145508,47.3062981 C33.459375,47.3066881 33.1152344,47.1185045 32.9317383,46.7860826 C32.6624023,46.2985826 32.8387695,45.6854967 33.3262695,45.4161608 C33.85,45.126317 34.4847656,44.9073717 35.0990234,44.6959459 C35.5944336,44.5250475 36.4685547,44.2237779 36.7749023,43.9815904 C36.4693359,43.7394029 35.5943359,43.4381334 35.0990234,43.267235 C33.718457,42.7915514 32,42.1997545 32,40.6470201 C32,39.0955553 33.718457,38.504442 35.0990234,38.0292467 C35.5936523,37.8591295 36.4654297,37.5595201 36.7725586,37.3181139 C36.4646484,37.0767076 35.5935547,36.7767076 35.0990234,36.6069811 C34.4871094,36.3963365 33.8546875,36.1789537 33.3317383,35.8910631 C32.8442383,35.6225084 32.6662109,35.0094225 32.9347656,34.5219225 C33.2033203,34.0340318 33.8160156,33.857274 34.3035156,34.1245592 C34.6744141,34.3289537 35.2233398,34.5175279 35.7549805,34.7002428 C37.1363281,35.1751451 38.8547852,35.7661608 38.8547852,37.3176256 C38.8547852,38.8694811 37.1363281,39.4605943 35.7549805,39.9357897 C35.2603516,40.1059068 34.387793,40.4060045 34.0806641,40.6477037 C34.3870117,40.8895006 35.2604492,41.1906725 35.7557617,41.3611803 C37.1363281,41.8368639 38.8547852,42.4286608 38.8547852,43.9813951 C38.8547852,45.5340318 37.1363281,46.1259264 35.7557617,46.6020006 C35.2233398,46.7854967 34.6720703,46.9749498 34.3011719,47.1800279 C34.146875,47.2657701 33.9799805,47.3062981 33.8145508,47.3062981 Z" id="形状" fill="#4C4023" fill-rule="nonzero"></path>
        <path d="M44.1413387,50.0194267 C42.4028622,47.8336845 38.2866512,41.9655205 40.6342098,37.9765556 C41.5417293,36.4345634 43.3273739,35.5546806 45.1050106,35.7578056 C46.5487606,35.922747 47.707159,36.6813408 48.4340145,37.7247978 C48.7319637,38.1525322 49.2717098,38.32929 49.7649715,38.1607353 C50.9682918,37.7495048 52.3510067,37.823333 53.6125301,38.5445244 C55.1658504,39.4325127 56.0848934,41.198333 55.9042293,42.9784111 C55.4367489,47.5831963 48.6464168,49.8788994 45.9516903,50.6123955 C45.2848934,50.7939384 44.5714168,50.560247 44.1413387,50.0194267 Z" id="路径" fill="#E8C251" fill-rule="nonzero"></path>
        <path d="M46.2128992,49.2905511 C44.4744226,47.1048089 40.3582117,41.2366449 42.7057703,37.24768 C43.6132898,35.7056878 45.3989343,34.825805 47.1765711,35.02893 C48.6203211,35.1938714 49.7787195,35.9524652 50.505575,36.9959222 C50.8035242,37.4236566 51.3432703,37.6004144 51.836532,37.4318597 C53.0398523,37.0206292 54.4225672,37.0944574 55.6840906,37.8156488 C57.2374109,38.703637 58.1564539,40.4694574 57.9757898,42.2495355 C57.5083093,46.8543206 50.7179773,49.1500238 48.0232508,49.8835199 C47.3564539,50.0650628 46.6429773,49.8313714 46.2128992,49.2905511 Z" id="路径" fill="#ED6969" fill-rule="nonzero"></path>
    </g>
</svg>