<?xml version="1.0" encoding="UTF-8"?>
<svg width="64px" height="64px" viewBox="0 0 64 64" version="1.1" xmlns="http://www.w3.org/2000/svg" xmlns:xlink="http://www.w3.org/1999/xlink">
    <title>palette</title>
    <defs>
        <path d="M43.9946878,21.8337493 C43.4257107,11.6852427 35.3894969,3.23607143 25.2877721,2.17600644 C22.3959843,1.85637129 19.8159945,1.83310098 18.8416559,3.32179779 C17.945327,4.52220805 18.1401706,6.5487745 20.0030009,7.55422058 C23.2376942,8.9962562 25.2408698,12.3556205 24.9836907,15.886558 C24.6797298,20.1345345 21.1020105,23.5719086 16.8383597,23.7122539 C13.7517283,23.8058174 10.953504,22.2858925 9.35556934,19.6746747 C8.84892773,18.8483979 8.06171614,18.3262026 7.18094104,18.2326391 C3.03424462,18.0845772 1.56893869,21.2958796 2.10668776,24.4760746 C2.82372671,35.2091119 11.8186048,43.7987491 22.5828702,44.0325373 C35.5921777,43.9545275 44.5636649,34.0088223 43.9946878,21.8337493 Z" id="path-1"></path>
    </defs>
    <g id="palette" stroke="none" stroke-width="1" fill="none" fill-rule="evenodd">
        <rect id="Rectangle" x="0" y="0" width="64" height="64"></rect>
        <g id="编组" transform="translate(7.619596, 8.614180)" fill-rule="nonzero">
            <path d="M47.7120939,31.6699987 L45.9252281,34.3958323 C45.5197554,35.0443485 45.1142031,35.7264945 44.7348932,36.4113384 C44.4936189,36.8469588 44.2704755,37.2704471 44.0689848,37.6777161 C43.2901985,39.25186 42.8804039,40.5106041 42.8804039,41.4316711 C42.8804039,42.8240643 43.4181443,44.1032424 44.2859246,45.0321176 C45.1629122,45.9708484 46.374176,46.5524864 47.7137373,46.5524864 C49.0748711,46.5524864 50.2878023,45.9820846 51.1605819,45.0478581 C52.0177861,44.1303035 52.5470706,42.8577575 52.5470706,41.4316711 C52.5470706,40.3185471 51.9337775,38.6886337 50.8166967,36.6373105 C50.4523152,35.9681875 50.0563034,35.2921285 49.6510958,34.635471 L48.9675331,33.5623851 L47.7120939,31.6699987 Z M25.1546094,-0.100903302 C23.0294864,-0.318411089 21.3715223,-0.320579828 20.0510301,0.0204578114 C18.7281947,0.362100616 17.7161854,1.03282981 16.8938766,2.18026846 C16.0544605,3.4316062 15.8614038,4.94806345 16.3271342,6.36637552 C16.7499385,7.65396236 17.7215694,8.869989 19.2992235,9.70888286 C20.4223554,10.26243 21.3285428,11.1401645 21.9310422,12.1932765 C22.5319195,13.2435532 22.8309931,14.4688131 22.7396353,15.7231102 C22.6284266,17.2772802 21.9117479,18.6845841 20.8364394,19.717647 C19.7607262,20.7510987 18.3239494,21.4121345 16.7643372,21.4634718 C15.6339593,21.4977316 14.5552463,21.2396008 13.6125537,20.7308242 C12.6697217,20.2219724 11.863801,19.4628422 11.2747368,18.5002402 C10.4188597,17.104397 9.06302761,16.1616259 6.70103683,15.9801482 C4.28543707,16.0342012 2.43942299,17.0065375 1.25560043,18.5272824 C0.0451154119,20.0822779 -0.479755889,22.2389026 -0.136489906,24.6538993 C0.267137543,30.5886148 2.95011317,35.928405 7.02218652,39.8178213 C11.1004213,43.7131226 16.5707695,46.1524916 22.5547652,46.2821703 C29.5925606,46.2402646 35.6482279,43.5363769 39.8787915,39.1535564 C44.1466438,34.732105 46.5631702,28.5961477 46.2422348,21.7287147 C45.927669,16.1168148 43.569292,10.9855417 39.8026563,7.08906599 C36.0896895,3.24810925 31.0076578,0.606634336 25.1546094,-0.100903302 Z" id="wb" stroke="#FFFFFF" stroke-width="1.5"></path>
            <g id="Shape">
                <use fill="#FFC55D" xlink:href="#path-1"></use>
                <path stroke="#000000" stroke-width="1.5" d="M18.2288457,2.88879063 C17.629713,3.70190812 17.4122761,4.80654022 17.7008238,5.85812766 C17.9482238,6.75975573 18.5637442,7.62966666 19.6976202,8.23923344 C21.1703984,8.89580222 22.3624033,9.98914021 23.1576878,11.3195943 C23.9540394,12.6518334 24.3529231,14.2222813 24.2356722,15.8320754 C24.0971498,17.767974 23.2107744,19.5168213 21.8762828,20.7989454 C20.5413839,22.0814609 18.756311,22.898715 16.8136856,22.9626598 C15.410718,23.0051848 14.0709343,22.6823089 12.9003767,22.050697 C11.7270038,21.4175661 10.7243769,20.4746094 9.99529183,19.2831965 C9.35821054,18.2441864 8.36220404,17.6039032 7.20770346,17.4831167 C4.99313096,17.4040432 3.46425738,18.1868116 2.50197445,19.3708186 C1.40833638,20.7164469 1.04398288,22.635334 1.36072959,24.5623995 C1.74044234,30.105917 4.25096928,35.0968513 8.05872357,38.7335743 C11.8745959,42.3780508 16.9919563,44.6612855 22.5873674,44.7825238 C29.2346142,44.7426638 34.8574612,42.2040223 38.7794706,38.1378633 C42.803065,33.9663857 45.0420866,28.1800279 44.7438701,21.7987377 C44.4488072,16.5352958 42.2216571,11.7180067 38.7581371,8.07844442 C35.2951602,4.43945281 30.5974366,1.9790791 25.3660466,1.43010222 C23.6876171,1.24457048 22.1065273,1.16389276 20.8569027,1.38601242 C19.6692192,1.59712208 18.7672369,2.08228924 18.2288457,2.88879063 Z"></path>
                <path stroke="#FFFFFF" stroke-width="1.5" d="M19.4426106,3.77052195 C19.0975535,4.23264037 18.9835367,4.86418354 19.1473563,5.46120998 C19.2981147,6.01063616 19.6877903,6.52423278 20.334759,6.88087173 C22.0827127,7.66684611 23.4992199,8.96741885 24.4452011,10.5499778 C25.3966204,12.1416342 25.8717703,14.0180729 25.7317092,15.9410406 C25.5662698,18.2531319 24.5117938,20.3469708 22.9155074,21.8806165 C21.3196467,23.4138532 19.1840457,24.3854478 16.8630339,24.4618479 C15.1837928,24.5127524 13.5851584,24.1246238 12.1880806,23.3707858 C10.7864493,22.6144907 9.5869861,21.4896994 8.71584685,20.0661528 C8.34437499,19.4603236 7.77574141,19.058697 7.12655328,18.9812436 C5.52450737,18.9302903 4.37574014,19.4436119 3.66601204,20.3168717 C2.81478517,21.3642337 2.59556609,22.8688638 2.85501966,24.426081 C3.20069347,29.6003186 5.54326006,34.2568705 9.0947425,37.6488325 C12.644105,41.0387699 17.4022157,43.1668747 22.5877525,43.2824632 C28.7861203,43.2427769 34.0392019,40.8917004 37.6998461,37.0965127 C41.4499118,33.2086171 43.5232676,27.812366 43.2455054,21.8687608 C42.9715243,16.982502 40.8951333,12.499958 37.6715233,9.11249973 C34.4489438,5.7261243 30.0786438,3.43287403 25.2094977,2.92191067 C23.6833358,2.75323244 22.2512843,2.66167413 21.1194116,2.86286348 C20.4014188,2.99048606 19.8015518,3.22471276 19.4426106,3.77052195 Z" stroke-linejoin="square"></path>
            </g>
            <path d="M33.1733692,19.1839892 C34.8883362,19.1839892 36.2799666,17.7923588 36.2799666,16.0773918 C36.2799666,14.3624247 34.8883362,12.9707943 33.1733692,12.9707943 C31.4584022,12.9707943 30.0667718,14.3624247 30.0667718,16.0773918 C30.0667718,17.7923588 31.4584022,19.1839892 33.1733692,19.1839892 Z" id="Shape" fill="#FFEECF"></path>
            <path d="M33.1001532,29.2719049 C34.8634345,29.2719049 36.2942701,27.8410693 36.2942701,26.0777881 C36.2942701,24.3145068 34.8634345,22.8836712 33.1001532,22.8836712 C31.3368719,22.8836712 29.9060364,24.3145068 29.9060364,26.0777881 C29.9060364,27.8410693 31.3368719,29.2719049 33.1001532,29.2719049 Z" id="Shape" fill="#ED6969"></path>
            <path d="M29.0766406,32.6777603 C29.0766406,30.903865 27.6371921,29.4644165 25.8632968,29.4644165 C24.0894014,29.4644165 22.6499529,30.903865 22.6499529,32.6777603 C22.6499529,34.4516557 24.0894014,35.8911042 25.8632968,35.8911042 C27.6371921,35.8911042 29.0766406,34.4516557 29.0766406,32.6777603 Z" id="Shape" fill="#FFEECF"></path>
            <path d="M19.3493011,32.7973299 C19.3493011,31.065639 17.9440999,29.6604378 16.212409,29.6604378 C14.480718,29.6604378 13.0755168,31.065639 13.0755168,32.7973299 C13.0755168,34.5290209 14.480718,35.9342221 16.212409,35.9342221 C17.9440999,35.9342221 19.3493011,34.5430729 19.3493011,32.7973299 Z" id="Shape" fill="#ED6969"></path>
            <path d="M51.0470706,41.4316711 C51.0470706,43.4867111 49.5655602,45.0524864 47.7137373,45.0524864 C45.8619144,45.0524864 44.3804039,43.3889132 44.3804039,41.4316711 C44.3804039,39.3766311 47.7137373,34.3858197 47.7137373,34.3858197 C47.7137373,34.3858197 51.0470706,39.3766311 51.0470706,41.4316711 Z" id="Shape" stroke="#000000" stroke-width="1.5" fill="#FFC55D"></path>
        </g>
    </g>
</svg>