<?xml version="1.0" encoding="UTF-8"?>
<svg width="64px" height="64px" viewBox="0 0 64 64" version="1.1" xmlns="http://www.w3.org/2000/svg" xmlns:xlink="http://www.w3.org/1999/xlink">
    <title>todolist</title>
    <defs>
        <path d="M19.8153303,30.7408466 C18.8285034,29.9156494 17.3617722,30.0493213 16.5392945,31.039411 C15.7168167,32.0295008 15.850048,33.5010817 16.8368749,34.3262789 L26.013632,42 L41.199507,28.7621097 C42.1692454,27.9167656 42.2723453,26.4427512 41.429787,25.4698064 C40.5872288,24.4968616 39.118072,24.3934209 38.1483337,25.238765 L25.9509418,35.8715231 L19.8153303,30.7408466 Z" id="path-1"></path>
    </defs>
    <g id="todolist" stroke="none" stroke-width="1" fill="none" fill-rule="evenodd">
        <rect id="Rectangle" x="0" y="0" width="64" height="64"></rect>
        <g id="编组" transform="translate(14.000000, 7.333333)">
            <g id="编组-">
                <path d="M3,-0.75 L24.6809855,-0.75 L36.4946809,11.0074397 L36.4946809,45.5106383 C36.4946809,46.5461722 36.0749478,47.4836722 35.3963313,48.1622887 C34.7177148,48.8409053 33.7802148,49.2606383 32.7446809,49.2606383 L32.7446809,49.2606383 L3,49.2606383 C1.96446609,49.2606383 1.02696609,48.8409053 0.348349571,48.1622887 C-0.330266953,47.4836722 -0.75,46.5461722 -0.75,45.5106383 L-0.75,45.5106383 L-0.75,3 C-0.75,1.96446609 -0.330266953,1.02696609 0.348349571,0.348349571 C1.02696609,-0.330266953 1.96446609,-0.75 3,-0.75 L3,-0.75 Z M25.121109,3.95732344 L25.1213733,8.31910349 C25.1213733,8.94046928 25.3732131,9.50296928 25.780383,9.91013919 C26.187553,10.3173091 26.750053,10.5691489 27.3713733,10.5691489 L31.7977913,10.5690434 L25.121109,3.95732344 Z" id="形状结合" stroke="#FFFFFF" stroke-width="1.5"></path>
                <polygon id="Rectangle-" fill="#FFC55D" points="22.9787234 0 34.4680851 11.4893617 22.9787234 11.4893617"></polygon>
                <path d="M23.6213733,0.75 L3,0.75 C2.37867966,0.75 1.81617966,1.00183983 1.40900974,1.40900974 C1.00183983,1.81617966 0.75,2.37867966 0.75,3 L0.75,45.5106383 C0.75,46.1319586 1.00183983,46.6944586 1.40900974,47.1016286 C1.81617966,47.5087985 2.37867966,47.7606383 3,47.7606383 L32.7446809,47.7606383 C33.3660012,47.7606383 33.9285012,47.5087985 34.3356711,47.1016286 C34.742841,46.6944586 34.9946809,46.1319586 34.9946809,45.5106383 L34.9946809,12.0691489 L27.3713733,12.0691489 C26.3358394,12.0691489 25.3983394,11.6494159 24.7197229,10.9707994 C24.0411064,10.2921828 23.6213733,9.35468284 23.6213733,8.31914894 L23.6213733,0.75 Z" id="Rectangle-" stroke="#000000" stroke-width="1.5" fill="#FFF9ED"></path>
                <rect id="Rectangle--" fill="#000000" x="16" y="15.6666667" width="7.212766" height="1.5"></rect>
                <rect id="Rectangle" stroke="#000000" stroke-width="1.5" fill="#FFC55D" x="6.75" y="12.4166667" width="5.16666667" height="5.16666667"></rect>
                <rect id="Rectangle-" stroke="#000000" stroke-width="1.5" fill="#FFC55D" x="6.75" y="23.0833333" width="5.16666667" height="5.16666667"></rect>
                <rect id="Rectangle--" stroke="#000000" stroke-width="1.5" fill="#FFC55D" x="6.75" y="32.4166667" width="5.16666667" height="5.16666667"></rect>
                <rect id="Rectangle---" fill="#000000" x="16" y="23.3262411" width="14.978723" height="1.5"></rect>
                <line x1="23.8294905" y1="0.567620774" x2="35.2304108" y2="11.8566458" id="Path-" stroke="#000000" stroke-width="1.5"></line>
            </g>
            <g id="Path-" fill-rule="nonzero">
                <use fill="#8BCB76" xlink:href="#path-1"></use>
                <path stroke="#FFFFFF" stroke-width="2.25" d="M25.9357526,34.392324 L20.5370033,29.8778211 C19.8044378,29.2652405 18.8937027,29.0088282 18.0135768,29.0890393 C17.1337928,29.1692192 16.2842751,29.5858176 15.6739302,30.3205441 C15.0648738,31.0537195 14.8094166,31.9651288 14.889178,32.846118 C14.9689702,33.7274475 15.3841848,34.5780187 16.115202,35.1893045 L26.0288212,43.4791991 L41.93875,29.6101338 C42.6570748,28.9839529 43.054773,28.1250474 43.1165164,27.2423046 C43.1782414,26.3598259 42.9041696,25.4538422 42.2802229,24.7333393 C41.6549473,24.0113018 40.7970495,23.6122551 39.9157666,23.5502055 C39.0342181,23.4881372 38.128947,23.763225 37.4090907,24.3907409 L25.9357526,34.392324 Z"></path>
                <use stroke="#000000" stroke-width="1.5" xlink:href="#path-1"></use>
            </g>
        </g>
    </g>
</svg>