<?xml version="1.0" encoding="UTF-8"?>
<svg width="64px" height="64px" viewBox="0 0 64 64" version="1.1" xmlns="http://www.w3.org/2000/svg" xmlns:xlink="http://www.w3.org/1999/xlink">
    <title>atom</title>
    <defs>
        <circle id="path-1" cx="7.98777214" cy="30.1013692" r="2.58333333"></circle>
        <circle id="path-2" cx="48.1431925" cy="17.8680009" r="2.58333333"></circle>
    </defs>
    <g id="atom" stroke="none" stroke-width="1" fill="none" fill-rule="evenodd">
        <rect id="Rectangle" opacity="0.900000036" x="0" y="0" width="64" height="64"></rect>
        <g id="编组" transform="translate(4.493211, 6.666667)">
            <polygon id="wb" fill="#FFFFFF" points="20.0067893 12.5 18.1235422 21.0596037 12.3881377 25.3333333 18.1235422 31.2467329 20.0067893 38.4749187 27.5067866 35.9621986 35.8401227 38.9992485 36.8698213 30.1013692 43.1593272 25.5 36.8698213 20.4513342 35.256903 11.8580884 27.5067866 15.2846676"></polygon>
            <path d="M27.5067893,-0.75 C29.3865745,-0.75 31.1960581,0.363738327 32.7668091,2.46304135 C34.154101,4.31715195 35.3626941,6.94520055 36.2870289,10.1257366 C39.5038283,9.33582114 42.3838532,9.06852666 44.6830475,9.34288297 C47.2864732,9.65354235 49.1557296,10.663731 50.0956186,12.2916667 C51.0355258,13.9196336 50.9757251,16.0436029 49.9430043,18.4536118 C49.0309025,20.5821383 47.3591793,22.9428801 45.0672828,25.3341148 C47.3596407,27.7247315 49.0310164,30.0850088 49.9429871,32.2131485 C50.9757307,34.6231196 51.0355137,36.7470541 50.0956186,38.375 C49.1557309,40.0029334 47.2864781,41.0131209 44.6830741,41.3237852 C42.38374,41.5981648 39.50351,41.3308235 36.2869334,40.541077 C35.3625801,43.7218464 34.1540223,46.3496719 32.7668014,48.2036571 C31.1960406,50.3029386 29.3865656,51.4166667 27.5067893,51.4166667 C25.6270042,51.4166667 23.8175206,50.3029283 22.2467696,48.2036253 C20.8594777,46.3495147 19.6508846,43.7214661 18.7259473,40.5410868 C15.5094886,41.3308994 12.6296754,41.5981565 10.3305935,41.3238136 C7.72716824,41.0131542 5.85786426,40.0029618 4.91796006,38.375 C3.97808237,36.7470841 4.03784906,34.6231987 5.07047569,32.2132851 C5.98243499,30.0849815 7.65387147,27.724501 9.94626209,25.3334366 C7.65389273,22.9425019 5.98242744,20.58189 5.07045702,18.4534751 C4.03785463,16.0435217 3.97807075,13.9196027 4.91796006,12.2916667 C5.85786939,10.663696 7.72718786,9.65349925 10.3306868,9.34285975 C12.6299535,9.06852007 15.5100613,9.33585572 18.7270697,10.1257703 C19.6511845,6.94498456 20.8596063,4.31715416 22.2467422,2.46314981 C23.8174622,0.363772458 25.6269745,-0.75 27.5067893,-0.75 Z M27.3636939,37.4852654 C25.4506741,38.3526999 23.5750032,39.0821075 21.7738399,39.6680902 C22.5222172,42.2712413 23.4513353,44.4236822 24.483619,45.9495056 C25.4277707,47.3450606 26.4371632,48.25 27.5067893,48.25 C28.5764512,48.25 29.5858822,47.3450159 30.5300367,45.949518 C31.562299,44.4237933 32.4913655,42.2715852 33.2400433,39.6687345 C31.3926274,39.0684767 29.4542916,38.3235349 27.3636939,37.4852654 Z M12.1029504,27.6638447 C10.2584198,29.5954405 8.88927996,31.4557258 8.10731718,33.0931849 C7.39758929,34.5793815 7.1339933,35.8799488 7.66037384,36.7916667 C8.19521917,37.718046 9.48372584,38.1397461 11.1644059,38.2596441 C13.0019206,38.3907306 15.3304054,38.1191875 17.9589685,37.4660847 C17.5560276,35.566304 17.2444143,33.5236299 17.0395469,31.3756237 C15.8276399,30.5135268 14.6821406,29.6353506 13.5758922,28.7870532 C13.0777322,28.4050524 12.5876117,28.029195 12.1029504,27.6638447 Z M42.7778532,27.5453389 C41.3709976,28.8092992 39.792271,30.0748352 37.974235,31.3748347 C37.7692678,33.5230019 37.4576332,35.56583 37.0546078,37.4654526 C39.6828998,38.1189348 42.0114902,38.3906214 43.8490871,38.259597 C45.5298028,38.1397586 46.8183492,37.7180638 47.3532048,36.7916667 C47.8884163,35.8646532 47.6084957,34.5367942 46.8695193,33.0211804 C46.0626676,31.3663569 44.6613051,29.4892447 42.7778532,27.5453389 Z M34.4178324,33.7285026 C33.914385,34.0375073 33.4022206,34.3426353 32.8817893,34.6431064 C32.3314571,34.9608409 31.7812372,35.2679661 31.231977,35.5643584 C32.172408,35.939718 33.0961102,36.2769966 33.9969405,36.5758225 C34.1855305,35.6483512 34.3407324,34.6886727 34.4178324,33.7285026 Z M20.5168647,33.7275773 C20.6602194,34.7113783 20.8274273,35.6625489 21.0157412,36.5759748 C21.9171858,36.2770606 22.8415942,35.9395533 23.7829601,35.563804 C23.1837602,35.2392755 22.5356107,34.8758222 21.7819374,34.440158 C21.3509643,34.1895558 20.9283488,33.9413584 20.5168647,33.7275773 Z M27.2968977,16.8542152 C26.1121999,17.4359541 24.9147358,18.0733771 23.7151227,18.765974 C22.4449065,19.4993337 21.2294674,20.2615359 20.0756348,21.04188 C19.9758736,22.4315179 19.923456,23.8658997 19.923456,25.3333333 C19.923456,26.8002776 19.975839,28.2341947 20.07475,29.6238145 C21.2291397,30.404925 22.4447352,31.1672341 23.7151227,31.9006926 C24.9855315,32.6341635 26.2535295,33.305756 27.5064291,33.9149058 C28.7595316,33.3060303 30.0277875,32.6343135 31.298456,31.9006926 C32.5690081,31.1671391 33.7847541,30.4047276 34.9388592,29.6241676 C35.037731,28.2344315 35.0901227,26.8003985 35.0901227,25.3333333 C35.0901227,23.8662918 35.0377327,22.4322818 34.9388091,21.0425757 C33.784913,20.2620386 32.5690911,19.4995755 31.298456,18.765974 C30.0277044,18.0323052 28.760395,17.3594142 27.2968977,16.8542152 Z M27.5067893,19.5833333 C29.094608,19.5833333 30.532108,20.226924 31.5726533,21.2674693 C32.6131987,22.3080147 33.2567893,23.7455147 33.2567893,25.3333333 C33.2567893,26.921152 32.6131987,28.358652 31.5726533,29.3991973 C30.532108,30.4397427 29.094608,31.0833333 27.5067893,31.0833333 C25.9189707,31.0833333 24.4814707,30.4397427 23.4409254,29.3991973 C22.40038,28.358652 21.7567893,26.921152 21.7567893,25.3333333 C21.7567893,23.7455147 22.40038,22.3080147 23.4409254,21.2674693 C24.4814707,20.226924 25.9189707,19.5833333 27.5067893,19.5833333 Z M38.2337348,23.5830093 C38.2489624,24.1613225 38.2567893,24.7450129 38.2567893,25.3333333 C38.2567893,25.9686715 38.2476614,26.5986101 38.2297219,27.2223537 C39.025126,26.5957842 39.7790085,25.9645885 40.4881237,25.3339573 C39.7792476,24.7081243 39.0259606,24.0997981 38.2337348,23.5830093 Z M16.7732966,23.4524795 C15.9815594,24.0765591 15.2309511,24.7052519 14.5247458,25.3333359 C15.233877,25.9640315 15.9879625,26.5954793 16.7836402,27.2225529 C16.7659219,26.5989242 16.7567893,25.9688304 16.7567893,25.3333333 C16.7567893,24.794557 16.7633714,24.2596861 16.7732966,23.4524795 Z M11.1642883,12.406964 C9.48366176,12.5269363 8.19520601,12.9486435 7.66037384,13.875 C7.12553397,14.8013698 7.4045742,16.1280825 8.14106207,17.6435242 C8.94627706,19.3003829 10.3456554,21.1811171 12.2255067,23.1309485 C13.6352418,21.8632417 15.2173269,20.5946831 17.0393381,19.2918364 C17.2443483,17.1432871 17.5560504,15.1001553 17.9591681,13.2002845 C15.3307207,12.5472449 13.0019648,12.2757806 11.1642883,12.406964 Z M37.0555281,13.2040623 C37.4577821,15.1021011 37.7691198,17.1431783 37.9738795,19.2894467 C39.7310459,20.5410045 41.3438602,21.8319599 42.7870736,23.1304253 C44.6674234,21.1812233 46.0670261,19.300504 46.8723717,17.6436265 C47.6089804,16.1281648 47.8880618,14.8013994 47.3532048,13.875 C46.8242807,12.9588766 45.5560419,12.5387763 43.8793918,12.4190878 C42.0538766,12.2887725 39.726204,12.5553906 37.0555281,13.2040623 Z M21.0017778,14.1597538 C20.8157285,15.0681241 20.6507286,16.0136788 20.5091167,16.9913356 C21.0402697,16.6642958 21.5814066,16.3413239 22.1317893,16.0235602 C22.6809994,15.7064737 23.2300977,15.3999531 23.7782418,15.1041214 C22.8374936,14.7339805 21.9114466,14.4123708 21.0017778,14.1597538 Z M33.8608612,14.1363562 C33.0033792,14.4236212 32.1255382,14.7456759 31.2324357,15.1021323 C31.7812337,15.3986986 32.3314551,15.7058246 32.8817893,16.0235602 C33.4302594,16.3402196 33.969548,16.6620512 34.4991295,16.9883896 C34.3438839,15.9908531 34.1440003,15.0340549 33.8608612,14.1363562 Z M27.5067893,2.41666667 C26.4371338,2.41666667 25.4277083,3.32164091 24.4835582,4.71712471 C23.4513001,6.24283494 22.5222363,8.39502334 21.7735586,10.9978516 C23.6198197,11.599088 25.5445141,12.3505211 27.5070757,13.2470354 C29.4691266,12.3505608 31.3931121,11.5993949 33.2388375,10.9988702 C32.4911524,8.39593178 31.562339,6.24348055 30.5301748,4.71755564 C29.5860776,3.32182686 28.5765578,2.41666667 27.5067893,2.41666667 Z" id="wb" stroke="#FFFFFF" stroke-width="1.5"></path>
            <circle id="Oval-" fill="#ED6969" cx="27.5067893" cy="25.3333333" r="5"></circle>
            <path d="M27.5067893,49 C31.685871,49 35.8401227,38.4758957 35.8401227,25.3333333 C35.8401227,12.190771 31.685871,1.66666667 27.5067893,1.66666667 C23.3277077,1.66666667 19.173456,12.190771 19.173456,25.3333333 C19.173456,38.4758957 23.3277077,49 27.5067893,49 Z M27.5067893,50.6666667 C21.9839418,50.6666667 17.5067893,39.324547 17.5067893,25.3333333 C17.5067893,11.3421197 21.9839418,1.13686838e-13 27.5067893,1.13686838e-13 C33.0296368,1.13686838e-13 37.5067893,11.3421197 37.5067893,25.3333333 C37.5067893,39.324547 33.0296368,50.6666667 27.5067893,50.6666667 Z" id="Oval-" fill="#000000" fill-rule="nonzero"></path>
            <path d="M27.5067893,49 C31.685871,49 35.8401227,38.4758957 35.8401227,25.3333333 C35.8401227,12.190771 31.685871,1.66666667 27.5067893,1.66666667 C23.3277077,1.66666667 19.173456,12.190771 19.173456,25.3333333 C19.173456,38.4758957 23.3277077,49 27.5067893,49 Z M27.5067893,50.6666667 C21.9839418,50.6666667 17.5067893,39.324547 17.5067893,25.3333333 C17.5067893,11.3421197 21.9839418,5.68434189e-14 27.5067893,5.68434189e-14 C33.0296368,5.68434189e-14 37.5067893,11.3421197 37.5067893,25.3333333 C37.5067893,39.324547 33.0296368,50.6666667 27.5067893,50.6666667 Z" id="Oval-" fill="#000000" fill-rule="nonzero" transform="translate(27.506789, 25.333333) rotate(-60.000000) translate(-27.506789, -25.333333) "></path>
            <path d="M27.5067893,49 C31.685871,49 35.8401227,38.4758957 35.8401227,25.3333333 C35.8401227,12.190771 31.685871,1.66666667 27.5067893,1.66666667 C23.3277077,1.66666667 19.173456,12.190771 19.173456,25.3333333 C19.173456,38.4758957 23.3277077,49 27.5067893,49 Z M27.5067893,50.6666667 C21.9839418,50.6666667 17.5067893,39.324547 17.5067893,25.3333333 C17.5067893,11.3421197 21.9839418,5.68434189e-14 27.5067893,5.68434189e-14 C33.0296368,5.68434189e-14 37.5067893,11.3421197 37.5067893,25.3333333 C37.5067893,39.324547 33.0296368,50.6666667 27.5067893,50.6666667 Z" id="Oval-" fill="#000000" fill-rule="nonzero" transform="translate(27.506789, 25.333333) rotate(-300.000000) translate(-27.506789, -25.333333) "></path>
            <g id="Oval-">
                <circle stroke="#FFFFFF" stroke-width="3" fill="#BDCFD1" fill-rule="evenodd" cx="7.98777214" cy="30.1013692" r="4.08333333"></circle>
                <circle stroke="#000000" stroke-width="1.5" cx="7.98777214" cy="30.1013692" r="3.33333333"></circle>
            </g>
            <g id="Oval-">
                <circle stroke="#FFFFFF" stroke-width="3" fill="#BDCFD1" fill-rule="evenodd" cx="48.1431925" cy="17.8680009" r="4.08333333"></circle>
                <circle stroke="#000000" stroke-width="1.5" cx="48.1431925" cy="17.8680009" r="3.33333333"></circle>
            </g>
        </g>
    </g>
</svg>