<?xml version="1.0" encoding="UTF-8"?>
<svg width="64px" height="64px" viewBox="0 0 64 64" version="1.1" xmlns="http://www.w3.org/2000/svg" xmlns:xlink="http://www.w3.org/1999/xlink">
    <title>cool</title>
    <g id="cool" stroke="none" stroke-width="1" fill="none" fill-rule="evenodd">
        <rect id="Rectangle-" x="0" y="0" width="64" height="64"></rect>
        <circle id="Oval-" stroke="#FFFFFF" stroke-width="1.5" fill="#FBDC67" cx="32" cy="32" r="25.75"></circle>
        <path d="M55.672689,23.9412235 C56.5332091,26.4697498 57,29.1803625 57,32 C57,45.8071187 45.8071187,57 32,57 C19.5735931,57 9.26471863,47.9337662 7.32720779,36.0551299 L7.40137137,36.2731744 C10.816298,46.0145228 20.0923762,53 31,53 C44.8071187,53 56,41.8071187 56,28 C56,26.6192881 55.8880712,25.2647186 55.6727922,23.9448701 Z" id="Combined-Shape" fill="#F2CC5B"></path>
        <path d="M25.1857967,51.3647905 C36.8007506,52.2055101 45.0629399,43.0082291 44.370011,35.1303068" id="Oval-" stroke="#4C4023" stroke-width="3" stroke-linecap="round" transform="translate(34.798176, 43.274386) rotate(-335.000000) translate(-34.798176, -43.274386) "></path>
        <path d="M38.5368265,22.0582112 C41.0054373,22.0582112 49.6886586,21.9272361 51.1847538,22.0582112 C52.6808489,22.1891862 54.5098859,22.1565759 54.8101574,23.7905242 C55.1104288,25.4244725 54.0356066,32.2910243 52.0826919,33.450118 C50.1297771,34.6092118 48.9032374,35.0170517 44.7145372,35.0170517 C40.5258371,35.0170517 37.4536634,34.2353106 36.631656,32.6608989 C35.8096486,31.0864872 35.1912735,26.442059 35.0164028,24.9171173 C34.8415321,23.3921756 36.0682157,22.0582112 38.5368265,22.0582112 Z" id="Rectangle" fill="#2B2B2B"></path>
        <path d="M12.5368265,22.0582112 C15.0054373,22.0582112 23.6886586,21.9272361 25.1847538,22.0582112 C26.6808489,22.1891862 28.5098859,22.1565759 28.8101574,23.7905242 C29.1104288,25.4244725 28.0356066,32.2910243 26.0826919,33.450118 C24.1297771,34.6092118 22.9032374,35.0170517 18.7145372,35.0170517 C14.5258371,35.0170517 11.4536634,34.2353106 10.631656,32.6608989 C9.8096486,31.0864872 9.19127353,26.442059 9.01640282,24.9171173 C8.8415321,23.3921756 10.0682157,22.0582112 12.5368265,22.0582112 Z" id="Rectangle-" fill="#2B2B2B" transform="translate(18.930000, 28.508526) scale(-1, 1) translate(-18.930000, -28.508526) "></path>
        <path d="M27.6371362,23.4987913 C29.647896,24.9067857 34.1341947,25.2319569 36.2707848,23.5183178 L37.0195312,24.9436035 C36.6791276,25.2166222 36.2907381,25.4429543 35.8677534,25.6261864 C36.2662164,25.8089082 36.6339884,26.030937 36.9606934,26.2929688 L36.9606934,26.2929688 L36.2707848,28.6657556 C34.1341947,26.9521165 29.647896,27.2772877 27.6371362,28.6852821 L27.6371362,28.6852821 L27.1277892,26.2734423 C27.5234678,25.9963762 27.9937201,25.7558051 28.5142285,25.5570063 C27.9390142,25.3417596 27.423706,25.0810839 27,24.7843922 L27.6371362,23.4987913 Z" id="Combined-Shape" fill="#2B2B2B" fill-rule="nonzero"></path>
    </g>
</svg>