<?xml version="1.0" encoding="UTF-8"?>
<svg width="64px" height="64px" viewBox="0 0 64 64" version="1.1" xmlns="http://www.w3.org/2000/svg" xmlns:xlink="http://www.w3.org/1999/xlink">
    <title>snow</title>
    <g id="snow" stroke="none" stroke-width="1" fill="none" fill-rule="evenodd">
        <rect id="Rectangle" x="0" y="0" width="64" height="64"></rect>
        <g id="编组" transform="translate(7.333333, 6.666667)">
            <ellipse id="bg" stroke="#FFFFFF" stroke-width="1.5" fill="#E9F4F5" transform="translate(22.948788, 27.827500) rotate(-360.000000) translate(-22.948788, -27.827500) " cx="22.9487879" cy="27.8275" rx="20.0278788" ry="20.15"></ellipse>
            <path d="M36.7350499,30.4257633 C36.4773284,30.2811851 36.1860571,30.2183819 35.8991869,30.237953 C35.5501439,30.2617656 35.2077711,30.4069666 34.940934,30.6738038 C34.6480408,30.966697 34.5015942,31.3505805 34.5015942,31.7344639 C34.5015942,32.1183474 34.6480408,32.5022309 34.940934,32.7951241 L36.7345934,34.5886729 L36.7345889,36.341982 L35.4973621,35.6276888 L34.7977009,33.0393279 C34.659618,32.6702743 34.3875303,32.3824217 34.0525404,32.2183323 C33.7383541,32.0644332 33.36925,32.0189946 33.0047437,32.1166638 C32.6205314,32.2196131 32.3104646,32.4601743 32.1160694,32.7968767 C31.9932044,33.0096853 31.9149779,33.2656703 31.9075081,33.5550482 L31.2773559,33.1911399 C30.918567,32.983993 30.5098609,32.9418928 30.1390579,33.0412492 C29.768255,33.1406055 29.4353552,33.3814185 29.2282484,33.7401379 C29.0211416,34.0988574 28.9790414,34.5075635 29.0783978,34.8783665 C29.1777541,35.2491695 29.418567,35.5820693 29.7772865,35.789176 L30.4429965,36.1733595 C30.1262386,36.3239272 29.8769933,36.5748213 29.736488,36.9327328 C29.6351892,37.1907731 29.4264953,37.5102654 30.4186277,38.8583233 C30.696082,38.9919258 31.0407534,39.0533673 31.4399071,38.9860583 L34.085292,38.2762969 L35.2919087,38.9730664 L33.9405372,39.7535851 L31.3482752,39.0664114 C30.9596933,39.0015342 30.5744425,39.0932471 30.2648963,39.3012757 C29.9745226,39.4964195 29.7506196,39.7933537 29.6529504,40.15786 C29.550001,40.5420723 29.6032998,40.9308786 29.797695,41.2675809 C29.9204932,41.4802738 30.1029378,41.6759153 30.3496074,41.8270395 L29.7194098,42.1912737 C29.3609913,42.3982066 29.1201784,42.7311064 29.020822,43.1019094 C28.9214657,43.4727123 28.9635659,43.8814185 29.1706727,44.2401379 C29.3777794,44.5988574 29.7106792,44.8396703 30.0814822,44.9390267 C30.4522852,45.038383 30.8609913,44.9962828 31.2197108,44.789176 L31.8853036,44.4044311 C31.8572392,44.7541452 31.9498809,45.0955598 32.1896607,45.396287 C32.3624808,45.6130344 32.5348222,45.9535148 34.1983408,45.7683319 C34.4527539,45.5948625 34.6782861,45.3271137 34.8195734,44.9478229 L35.5286999,42.2999339 L36.7345891,41.603363 L36.7345933,43.1666393 L34.8351221,45.0773803 C34.5884027,45.3822558 34.4781551,45.7612032 34.5057366,46.1321091 C34.5314559,46.4779718 34.6764325,46.8166947 34.940934,47.0811962 C35.2221969,47.3624592 35.5855624,47.5107042 35.9743528,47.5107042 C36.2200044,47.5107042 36.4807191,47.4504963 36.7349854,47.3123704 L36.7351515,48.0401712 C36.7351515,48.4542136 36.9030447,48.8292136 37.1744913,49.1006602 C37.445938,49.3721068 37.820938,49.54 38.2351515,49.54 C38.6493651,49.54 39.0243651,49.3721068 39.2958117,49.1006602 C39.5672583,48.8292136 39.7351515,48.4542136 39.7351515,48.04 L39.7349831,47.2713685 C40.0237629,47.4704176 40.3656754,47.5608305 40.7459,47.5035541 C41.0200188,47.4622613 41.4010542,47.4832495 42.0724404,45.9500086 C42.04942,45.642973 41.930328,45.3138131 41.6725437,45.001834 L39.7345933,43.0633944 L39.7345891,41.5379333 L41.3389691,42.46407 L42.0813425,45.2103897 C42.2266812,45.5975689 42.5151426,45.8968728 42.8980029,46.0531322 C43.2005648,46.1766188 43.5706804,46.2132481 44.0663871,46.0671761 C44.4094528,45.923488 44.6772493,45.6619006 44.8332226,45.3434796 C44.9488588,45.1074073 45.0032618,44.8403302 44.9817341,44.567495 L45.3657781,44.7891959 C45.7244633,44.9962828 46.1331694,45.038383 46.5039724,44.9390267 C46.8747753,44.8396703 47.2076751,44.5988574 47.4147819,44.2401379 C47.6218887,43.8814185 47.6639889,43.4727123 47.5646325,43.1019094 C47.4652762,42.7311064 47.2244633,42.3982066 46.8657438,42.1910998 L46.5316222,41.9981845 C46.7857349,41.8472789 46.9857926,41.6264102 47.1122938,41.3681567 C47.2661929,41.0539704 47.3116316,40.6848663 47.2139624,40.32036 C47.106756,39.9202604 46.8475265,39.6014922 46.5150737,39.4095505 C46.1826208,39.2176087 45.7769447,39.1524935 45.3768451,39.2596998 L42.9253077,39.9155895 L41.2917256,38.9722275 L42.7802425,38.1132398 L45.5306861,38.8441473 C45.938684,38.9118908 46.3421442,38.8117305 46.6689157,38.5582804 C46.9271392,38.3579975 47.1439189,38.0557826 47.2652702,37.553452 C47.3123654,37.1845043 47.2197224,36.8217921 47.0219484,36.5275047 C46.8752711,36.3092491 46.6710866,36.1285467 46.4239254,36.0107754 L46.8078594,35.7893541 C47.1668875,35.5820693 47.4077004,35.2491695 47.5070568,34.8783665 C47.6064131,34.5075635 47.5643129,34.0988574 47.3572061,33.7401379 C47.1500994,33.3814185 46.8171996,33.1406055 46.4463966,33.0412492 C46.0755936,32.9418928 45.6668875,32.983993 45.308168,33.1910998 L44.974037,33.3839427 C44.9703941,33.0884425 44.8791465,32.8047743 44.7187534,32.5661097 C44.5236096,32.275736 44.2266754,32.0518329 43.8621691,31.9541638 C43.4620695,31.8469574 43.0563934,31.9120726 42.7239405,32.1040144 C42.3914877,32.2959561 42.1322582,32.6147243 42.0250518,33.0148239 L41.3676636,35.4655645 L39.7345889,36.4081479 L39.7345934,34.6897413 L41.7421026,32.6738061 C42.0047625,32.3543432 42.1197479,31.9548609 42.0636401,31.5451482 C42.0193017,31.2213786 41.8659658,30.8825345 41.4916104,30.5262759 C41.19564,30.3010164 40.8352004,30.1998915 40.4814531,30.2240251 C40.219138,30.2419209 39.9605902,30.328376 39.73504,30.4834954 L39.7351515,30.0401885 C39.7351515,29.6257864 39.5672583,29.2507864 39.2958117,28.9793398 C39.0243651,28.7078932 38.6493651,28.54 38.2351515,28.54 C37.820938,28.54 37.445938,28.7078932 37.1744913,28.9793398 C36.9030447,29.2507864 36.7351515,29.6257864 36.7351515,30.04 L36.7350499,30.4257633 Z" id="wb" stroke="#FFFFFF" stroke-width="1.5"></path>
            <path d="M11.7833354,1.77376972 L11.7065315,1.84089108 L11.5575783,1.99084186 L11.484416,2.07569458 L11.4147322,2.16287103 C10.8205433,2.96572962 10.8275475,4.06732527 11.4328657,4.86265814 L11.5641415,5.01808736 L11.6328651,5.09159517 L11.936,5.395 L11.8619607,5.44711531 L11.7833354,5.51126972 L11.7065315,5.57839108 L11.5575783,5.72834186 L11.484416,5.81319458 L11.4147322,5.90037103 C10.8205433,6.70322962 10.8275475,7.80482527 11.4328657,8.60015814 L11.5641415,8.75558736 L11.6329818,8.82921186 L13.465,10.661 L13.466,12.353 L13.3486845,12.3966407 C13.0172675,12.5261023 12.6940865,12.6812818 12.3816124,12.8616888 L12.1100247,13.0266294 C11.9318817,13.1403169 11.7596258,13.2613941 11.5935956,13.3894735 L11.384,13.558 L9.859,12.678 L9.20007232,10.2159498 L9.17076309,10.1196371 L9.13780961,10.0231063 L9.10179532,9.92823432 C8.66877272,8.89436216 7.53521748,8.33274552 6.444414,8.62502543 L6.28377452,8.67448619 L6.12932357,8.73483341 L6.074,8.76 L5.96332166,8.34727181 L5.90103966,8.15435631 L5.86502537,8.05948432 C5.43200278,7.02561216 4.29844753,6.46399552 3.20764405,6.75627543 C2.11684058,7.04855534 1.41596126,8.10170724 1.55788877,9.2135781 L1.59386231,9.41382163 L1.61663276,9.51187287 L1.995,10.926 L0.558933912,11.3118893 L0.453126904,11.3444728 L0.347340148,11.3813763 L0.243403991,11.4220314 C-0.672607954,11.8202329 -1.21733997,12.7777448 -1.09078547,13.7691824 L-1.07453876,13.8693511 L-1.05481192,13.9694259 L-0.999427353,14.1733986 L-0.962523886,14.2791853 L-0.921868764,14.3831215 C-0.523667253,15.2991334 0.433844662,15.8438655 1.42528223,15.7173109 L1.52545092,15.7010642 L1.62552576,15.6813374 L1.72418445,15.6584041 L2.137,15.547 L2.14598448,15.6379324 L2.18195802,15.8381759 L2.23734259,16.0421486 L2.27424606,16.1479353 L2.31490118,16.2518715 C2.71310269,17.1678834 3.67061461,17.7126155 4.66205217,17.5860609 L4.86229571,17.5500874 L4.96083518,17.5271861 L7.894,16.74 L9.035,17.399 L8.9993039,17.5591879 C8.81748132,18.4564578 8.81258327,19.3822602 8.98880932,20.2836446 L9.026,20.454 L7.818,21.151 L4.96003177,20.3862108 L4.86229571,20.3635248 L4.76222087,20.3437979 L4.66205217,20.3275512 C3.55018132,20.1856237 2.49702942,20.886503 2.20474951,21.9773065 L2.18195802,22.0754363 L2.14598448,22.2756798 L2.137,22.365 L1.72338366,22.2549934 L1.52545092,22.2125479 L1.42528223,22.1963012 C0.313411375,22.0543737 -0.73974053,22.755253 -1.03202044,23.8460565 L-1.07453876,24.0442611 L-1.09078547,24.1444298 L-1.10581015,24.3106823 C-1.16165024,25.3597137 -0.477293487,26.3240666 0.558969817,26.6017325 L1.995,26.986 L1.61652927,28.4021258 L1.59386231,28.4997906 L1.55788877,28.7000341 C1.41596126,29.8119049 2.11684058,30.8650568 3.20764405,31.1573368 L3.36431679,31.1934684 C4.51350183,31.4160933 5.65568438,30.7144583 5.96332002,29.5663465 L6.074,29.152 L6.12932357,29.1787788 C6.23015255,29.2225221 6.33533365,29.2593588 6.444414,29.2885868 L6.60108674,29.3247184 C7.75027178,29.5473433 8.89245432,28.8457083 9.20008996,27.6975965 L9.88,25.156 L11.368,24.298 L11.5717766,24.4631383 C12.0625317,24.8412669 12.6012118,25.1516344 13.1730193,25.3871478 L13.416,25.481 L13.415,27.301 L11.632715,29.0846672 L11.4970201,29.2348288 L11.4328657,29.313454 C10.7540175,30.2053987 10.8344208,31.4678947 11.6329444,32.2664182 L11.7065315,32.3352211 L11.7833354,32.4023425 L11.8619607,32.4664969 L11.935,32.518 L11.6325957,32.8222865 L11.5641415,32.8955248 L11.4328657,33.050954 C10.7540175,33.9428987 10.8344208,35.2053947 11.6329444,36.0039182 L11.7065315,36.0727211 L11.7833354,36.1398425 L11.8619607,36.2039969 L12.0057518,36.3048799 C12.8855144,36.8723924 14.0584289,36.7604142 14.8149249,36.0039182 L15.866,34.952 L16.9027901,35.9881407 L17.0529416,36.1238254 L17.1315669,36.1879798 C18.0235115,36.8668281 19.2860075,36.7864247 20.0845311,35.9879012 L20.2040793,35.8587795 C20.9612182,34.9747813 20.9213688,33.6427584 20.0845311,32.8059207 L19.781,32.502 L19.8179162,32.4786475 C19.9112799,32.4105544 20.0004759,32.3344563 20.0845311,32.2504012 L20.2040793,32.1212795 C20.9612182,31.2372813 20.9213688,29.9052584 20.0845311,29.0684207 L17.915,26.9 L17.916,25.605 L18.1684083,25.5243347 C18.5830088,25.3793503 18.9861852,25.1947495 19.3731276,24.9713483 L19.6505728,24.8026653 C19.8324877,24.6863208 20.0082454,24.5622671 20.177485,24.4309197 L20.405,24.245 L21.805,25.054 L22.5020121,27.6549803 L22.5313249,27.7513061 L22.5642783,27.8478369 L22.6002926,27.9427089 C23.0333152,28.9765811 24.1668705,29.5381977 25.2576739,29.2459178 L25.3540525,29.2165909 L25.4505833,29.1836374 L25.5454553,29.1476232 L25.627,29.109 L25.7387636,29.5236614 L25.7680948,29.6200561 L25.8010483,29.7165869 L25.8370626,29.8114589 C26.2700852,30.8453311 27.4036404,31.4069477 28.4944439,31.1146678 L28.5908225,31.0853409 L28.6873533,31.0523874 L28.7822253,31.0163732 L28.9337165,30.9462587 C29.8701243,30.4701019 30.3631001,29.3952551 30.0854341,28.3589918 L29.701,26.922 L31.1155098,26.5430106 L31.3082852,26.4807661 L31.4031572,26.4447518 C32.4370293,26.0117292 32.998646,24.878174 32.7063661,23.7873705 L32.6593207,23.6336221 C32.2775269,22.5270862 31.0988019,21.8887446 29.9506901,22.1963803 L29.536,22.307 L29.5320448,22.2464008 C29.5195131,22.1372087 29.4988241,22.0277009 29.4695961,21.9186205 L29.4225507,21.7648721 C29.040757,20.6583362 27.862032,20.0199946 26.7139202,20.3276303 L23.915,21.076 L22.728,20.391 L22.777681,20.1588027 C22.9130125,19.4284736 22.9317546,18.6803909 22.8312196,17.943045 L22.784,17.649 L24.104,16.887 L26.7140016,17.5860038 L26.9121248,17.6285002 L27.0122934,17.6447469 C28.1241643,17.7866745 29.1773162,17.0857951 29.4695961,15.9949917 L29.5070816,15.8311434 C29.5174738,15.7764824 29.525779,15.7218074 29.5320448,15.6672114 L29.536,15.606 L29.9506403,15.7172186 L30.0488199,15.7400234 L30.1488947,15.7597502 L30.2490634,15.7759969 C31.3609342,15.9179245 32.4140861,15.2170451 32.7063661,14.1262417 C32.998646,13.0354382 32.4370293,11.9018829 31.4031572,11.4688603 L31.3082852,11.4328461 L31.2117544,11.3998926 L31.1157855,11.3706756 L29.701,10.99 L30.0855629,9.55413946 L30.1101292,9.44666116 L30.1310632,9.3365954 L30.1478229,9.22625649 C30.2609763,8.23386612 29.7041126,7.2833584 28.7822253,6.89723903 L28.6873533,6.86122475 L28.5908225,6.82827127 L28.3864847,6.77424938 L28.2764189,6.75331534 L28.16608,6.73655563 C27.1736897,6.62340228 26.2231819,7.18026591 25.8370626,8.10215328 L25.8010483,8.19702527 L25.7680948,8.29355604 L25.738847,8.3896395 L25.627,8.803 L25.5454553,8.76598903 L25.4505833,8.72997475 L25.3540525,8.69702127 L25.1497147,8.64299938 L25.039649,8.62206534 L24.9293101,8.60530563 C23.9369197,8.49215228 22.986412,9.04901591 22.6002926,9.97090328 L22.5642783,10.0657753 L22.5313249,10.162306 L22.5020945,10.2583245 L21.754,13.047 L20.595,13.716 L20.5225131,13.6491747 C19.7983073,13.0141326 18.9509846,12.5380422 18.0360193,12.2470067 L17.966,12.226 L17.965,10.962 L20.0841611,8.84556132 L20.1593029,8.7647324 L20.3011092,8.59421948 C20.9626256,7.70266648 20.8758858,6.45456571 20.0845311,5.663211 L19.9547143,5.54310209 C19.910238,5.50505903 19.864598,5.46901123 19.8179162,5.43496467 L19.781,5.41 L20.0842649,5.10795763 L20.1593029,5.0272324 L20.2319211,4.94311397 L20.3011092,4.85671948 C20.9626256,3.96516648 20.8758858,2.71706571 20.0845311,1.925711 C19.2860075,1.12718744 18.0235115,1.0467841 17.1315669,1.72563235 L17.0529416,1.78978676 L16.9027089,1.92555262 L15.866,2.961 L14.8148674,1.90963645 L14.733777,1.83432786 L14.6489243,1.76116557 L14.5617478,1.69148178 C13.7588892,1.09729292 12.6572936,1.10429711 11.8619607,1.70961531 L11.7833354,1.77376972 Z M13.669412,2.89719185 L13.7542647,2.97035413 L15.8665477,5.08240805 L17.9632107,2.98637117 L18.0400146,2.91924981 C18.3339858,2.69551194 18.7553854,2.71788572 19.0238709,2.98637117 C19.2901374,3.25263774 19.3143435,3.66930142 19.096489,3.96291291 L19.0238709,4.04703135 L16.4659346,6.60368422 L16.4659346,8.21968422 L17.9632107,6.72387117 L18.0400146,6.65674981 C18.3339858,6.43301194 18.7553854,6.45538572 19.0238709,6.72387117 C19.2901374,6.99013774 19.3143435,7.40680142 19.096489,7.70041291 L19.0238709,7.78453135 L16.4659346,10.3406842 L16.4665825,13.4446645 C17.9593203,13.5979153 19.3680934,14.3551962 20.3070765,15.6143816 L23.0418561,14.0360914 L23.9508867,10.6469132 L23.9838402,10.5503824 C24.112286,10.243709 24.4297956,10.0580696 24.7593796,10.0956491 L24.8694454,10.1165831 L24.9659761,10.1495366 C25.2726496,10.2779824 25.458289,10.595492 25.4207095,10.925076 L25.3997755,11.0351418 L24.8798561,12.9750914 L26.2788561,12.1670914 L27.1876567,8.77816322 L27.2206101,8.68163244 C27.3490559,8.37495901 27.6665656,8.18931959 27.9961496,8.22689909 L28.1062153,8.24783313 L28.2027461,8.28078661 C28.5094195,8.4092324 28.6950589,8.72674202 28.6574794,9.05632603 L28.6365454,9.16639178 L27.8644979,12.0515421 L30.7271472,12.8194544 L30.823678,12.8524079 C31.1644263,12.9951255 31.3557498,13.3712552 31.2574773,13.7380131 C31.1592048,14.104771 30.8054489,14.3348471 30.4389935,14.28807 L30.3389187,14.2683432 L27.1288561,13.4080914 L25.7298561,14.2160914 L27.4903773,14.6882044 L27.5869081,14.7211579 C27.9276563,14.8638755 28.1189799,15.2400052 28.0207074,15.6067631 C27.9224349,15.973521 27.568679,16.2035971 27.2022236,16.15682 L27.1021487,16.1370932 L23.8918561,15.2770914 L21.0323537,16.9286445 C21.5599538,18.2994087 21.4984007,19.7928408 20.9348462,21.0875956 L23.7039259,22.686212 L27.1021487,21.776519 C27.5022483,21.6693126 27.913501,21.9067495 28.0207074,22.3068491 C28.1189799,22.673607 27.9276563,23.0497367 27.5869081,23.1924543 L27.4903773,23.2254077 L25.5419259,23.747212 L26.9409259,24.555212 L30.3389187,23.645269 C30.7390182,23.5380626 31.150271,23.7754995 31.2574773,24.1755991 C31.3557498,24.542357 31.1644263,24.9184867 30.823678,25.0612043 L30.7271472,25.0941577 L27.8643519,25.8615251 L28.6365454,28.7472204 C28.7348179,29.1139783 28.5434944,29.490108 28.2027461,29.6328256 L28.1062153,29.6657791 C27.7394574,29.7640515 27.3633277,29.572728 27.2206101,29.2319797 L27.1876567,29.135449 L26.3299259,25.934212 L24.9289259,25.126212 L25.3997755,26.8784704 C25.498048,27.2452283 25.3067244,27.621358 24.9659761,27.7640756 L24.8694454,27.7970291 C24.5026874,27.8953015 24.1265577,27.703978 23.9838402,27.3632297 L23.9508867,27.266699 L23.0929259,24.065212 L20.1552951,22.3690062 C19.7404414,22.8790073 19.2269366,23.3237008 18.6231276,23.6723101 C17.922755,24.0766704 17.1711767,24.3111739 16.4165003,24.3885543 L16.4159346,27.5218061 L19.0238709,30.1290808 C19.3167641,30.4219741 19.3167641,30.8968478 19.0238709,31.189741 C18.7553854,31.4582265 18.3339858,31.4806002 18.0400146,31.2568624 L17.9632107,31.189741 L16.4159346,29.6428061 L16.4159346,31.2588061 L19.0238709,33.8665808 C19.3167641,34.1594741 19.3167641,34.6343478 19.0238709,34.927241 C18.7553854,35.1957265 18.3339858,35.2181002 18.0400146,34.9943624 L17.9632107,34.927241 L15.8663874,32.8313644 L13.7542647,34.943258 C13.4857793,35.2117435 13.0643796,35.2341173 12.7704085,35.0103794 L12.6936046,34.943258 C12.4251191,34.6747726 12.4027453,34.253373 12.6264832,33.9594018 L12.6936046,33.8825979 L14.9159346,31.6588061 L14.9159346,30.0428061 L13.7542647,31.205758 C13.4857793,31.4742435 13.0643796,31.4966173 12.7704085,31.2728794 L12.6936046,31.205758 C12.4251191,30.9372726 12.4027453,30.515873 12.6264832,30.2219018 L12.6936046,30.1450979 L14.9159346,27.9218061 L14.9166773,24.337489 C13.6469406,24.1196063 12.4631464,23.4610504 11.6108945,22.4268304 L8.59212652,24.1687475 L7.75120122,27.3093679 C7.64399486,27.7094675 7.23274215,27.9469044 6.83264257,27.839698 C6.46588462,27.7414255 6.23580854,27.3876696 6.28258565,27.0212142 L6.30231248,26.9211394 L6.75512652,25.2297475 L5.35512652,26.0377475 L4.51443128,29.1781179 C4.40722492,29.5782175 3.9959722,29.8156544 3.59587262,29.708448 C3.22911468,29.6101755 2.99903859,29.2564196 3.0458157,28.8899642 L3.06554254,28.7898894 L3.83196354,25.9258909 L0.947198384,25.1528437 C0.580440438,25.0545712 0.350364353,24.7008154 0.397141463,24.3343599 L0.416868299,24.2342851 C0.515140794,23.8675271 0.868896688,23.6374511 1.23535211,23.6842282 L1.33542695,23.703955 L4.79312652,24.6297475 L6.19212652,23.8227475 L4.18396833,23.2840937 C3.81721039,23.1858212 3.5871343,22.8320654 3.63391141,22.4656099 L3.65363825,22.3655351 C3.75191074,21.9987771 4.10566663,21.7687011 4.47212205,21.8154782 L4.5721969,21.835205 L8.03012652,22.7607475 L10.8231574,21.1484259 C10.1834534,19.6995075 10.2233729,18.088394 10.8363517,16.7080077 L8.10612652,15.1304224 L4.5721969,16.0784072 L4.47212205,16.098134 C4.14231218,16.1402334 3.82278891,15.9580817 3.69054171,15.6538639 L3.65363825,15.5480771 L3.63391141,15.4480023 C3.59181201,15.1181924 3.7739637,14.7986691 4.07818157,14.6664219 L4.18396833,14.6295184 L6.26912652,14.0694224 L4.86912652,13.2614224 L1.33542695,14.2096572 L1.23535211,14.229384 C0.90554223,14.2714834 0.586018968,14.0893317 0.453771765,13.7851139 L0.416868299,13.6793271 L0.397141463,13.5792523 C0.355042064,13.2494424 0.537193753,12.9299191 0.841411628,12.7976719 L0.947198384,12.7607684 L3.83272743,11.9875166 L3.06554254,9.12372282 L3.0458157,9.02364798 C2.99903859,8.65719256 3.22911468,8.30343666 3.59587262,8.20516417 C3.96263057,8.10689167 4.33876025,8.29821522 4.48147779,8.63896348 L4.51443128,8.73549425 L5.33512652,11.7984224 L6.73412652,12.6064224 L6.30231248,10.9924728 L6.28258565,10.892398 C6.23580854,10.5259426 6.46588462,10.1721867 6.83264257,10.0739142 C7.19940052,9.97564167 7.5755302,10.1669652 7.71824774,10.5077135 L7.75120122,10.6042443 L8.57212652,13.6674224 L11.6266224,15.4308845 C12.0366528,14.9347532 12.540921,14.5017627 13.1316124,14.1607269 C13.716881,13.8228219 14.3379073,13.6035308 14.9666182,13.4954226 L14.9659346,10.0406842 L12.6936046,7.76851431 L12.6264832,7.69171037 C12.4251191,7.42713633 12.4231055,7.05934523 12.6204423,6.79270685 L12.6936046,6.70785413 L12.7704085,6.64073277 C13.0349825,6.43936868 13.4027736,6.43735504 13.669412,6.63469185 L13.7542647,6.70785413 L14.9659346,7.91868422 L14.9659346,6.30368422 L12.6936046,4.03101431 L12.6264832,3.95421037 C12.4251191,3.68963633 12.4231055,3.32184523 12.6204423,3.05520685 L12.6936046,2.97035413 L12.7704085,2.90323277 C13.0349825,2.70186868 13.4027736,2.69985504 13.669412,2.89719185 Z" id="wb" fill="#FFFFFF" fill-rule="nonzero"></path>
            <g id="Group-">
                <rect id="Rectangle-" fill="#000000" x="37.4851515" y="29.29" width="1.5" height="19.5" rx="0.75"></rect>
                <polyline id="Rectangle-" stroke="#000000" stroke-width="1.5" stroke-linecap="round" transform="translate(38.292727, 31.727500) rotate(45.000000) translate(-38.292727, -31.727500) " points="39.9078788 30.1025 39.9078788 33.3525 36.6775758 33.3525"></polyline>
                <polyline id="Rectangle--" stroke="#000000" stroke-width="1.5" stroke-linecap="round" transform="translate(38.292727, 46.027500) scale(1, -1) rotate(45.000000) translate(-38.292727, -46.027500) " points="39.9078788 44.4025 39.9078788 47.6525 36.6775758 47.6525"></polyline>
                <rect id="Rectangle-" fill="#000000" transform="translate(38.263939, 38.990138) rotate(60.000000) translate(-38.263939, -38.990138) " x="37.5139394" y="29.2401379" width="1.5" height="19.5" rx="0.75"></rect>
                <polyline id="Rectangle-" stroke="#000000" stroke-width="1.5" stroke-linecap="round" transform="translate(44.625538, 35.383750) rotate(105.000000) translate(-44.625538, -35.383750) " points="46.2406896 33.75875 46.2406896 37.00875 43.0103865 37.00875"></polyline>
                <polyline id="Rectangle--" stroke="#000000" stroke-width="1.5" stroke-linecap="round" transform="translate(32.241375, 42.533750) scale(1, -1) rotate(-15.000000) translate(-32.241375, -42.533750) " points="33.8565263 40.90875 33.8565263 44.15875 30.6262232 44.15875"></polyline>
                <rect id="Rectangle-" fill="#000000" transform="translate(38.321515, 38.990138) rotate(120.000000) translate(-38.321515, -38.990138) " x="37.5715152" y="29.2401379" width="1.5" height="19.5" rx="0.75"></rect>
                <polyline id="Rectangle-" stroke="#000000" stroke-width="1.5" stroke-linecap="round" transform="translate(44.625538, 42.696250) rotate(165.000000) translate(-44.625538, -42.696250) " points="46.2406896 41.07125 46.2406896 44.32125 43.0103865 44.32125"></polyline>
                <polyline id="Rectangle--" stroke="#000000" stroke-width="1.5" stroke-linecap="round" transform="translate(32.241375, 35.546250) scale(1, -1) rotate(-75.000000) translate(-32.241375, -35.546250) " points="33.8565263 33.92125 33.8565263 37.17125 30.6262232 37.17125"></polyline>
                <polygon id="Rectangle" fill="#000000" transform="translate(15.716667, 10.913056) rotate(180.000000) translate(-15.716667, -10.913056) " points="14.9666667 6.11930609 16.4666667 6.11930609 16.4666667 15.7068061 14.9666667 15.7068061"></polygon>
                <polyline id="Rectangle-" stroke="#000000" stroke-width="1.5" stroke-linecap="round" transform="translate(15.858738, 3.508693) scale(1, -1) rotate(-135.000000) translate(-15.858738, -3.508693) " points="17.716162 1.63994274 17.716162 5.37744274 14.0013135 5.37744274"></polyline>
                <polyline id="Rectangle-" stroke="#000000" stroke-width="1.5" stroke-linecap="round" transform="translate(15.858738, 7.246193) scale(1, -1) rotate(-135.000000) translate(-15.858738, -7.246193) " points="17.716162 5.37744274 17.716162 9.11494274 14.0013135 9.11494274"></polyline>
                <polygon id="Rectangle" fill="#000000" transform="translate(15.666667, 27.000556) scale(1, -1) rotate(-180.000000) translate(-15.666667, -27.000556) " points="14.9166667 22.2068061 16.4166667 22.2068061 16.4166667 31.7943061 14.9166667 31.7943061"></polygon>
                <polyline id="Rectangle-" stroke="#000000" stroke-width="1.5" stroke-linecap="round" transform="translate(15.858738, 34.404919) rotate(225.000000) translate(-15.858738, -34.404919) " points="17.716162 32.5361694 17.716162 36.2736694 14.0013135 36.2736694"></polyline>
                <polyline id="Rectangle-" stroke="#000000" stroke-width="1.5" stroke-linecap="round" transform="translate(15.858738, 30.667419) rotate(225.000000) translate(-15.858738, -30.667419) " points="17.716162 28.7986694 17.716162 32.5361694 14.0013135 32.5361694"></polyline>
                <polygon id="Rectangle" fill="#000000" transform="translate(8.852688, 14.696704) rotate(120.000000) translate(-8.852688, -14.696704) " points="8.10268849 9.90295422 9.60268849 9.90295422 9.60268849 19.4904542 8.10268849 19.4904542"></polygon>
                <polyline id="Rectangle-" stroke="#000000" stroke-width="1.5" stroke-linecap="round" transform="translate(2.465650, 11.207411) scale(1, -1) rotate(-75.000000) translate(-2.465650, -11.207411) " points="4.32307403 9.33866067 4.32307403 13.0761607 0.608225545 13.0761607"></polyline>
                <polyline id="Rectangle-" stroke="#000000" stroke-width="1.5" stroke-linecap="round" transform="translate(5.702420, 13.076161) scale(1, -1) rotate(-75.000000) translate(-5.702420, -13.076161) " points="7.55984398 11.2074107 7.55984398 14.9449107 3.84499549 14.9449107"></polyline>
                <polygon id="Rectangle" fill="#000000" transform="translate(22.610435, 22.921606) scale(1, -1) rotate(-120.000000) translate(-22.610435, -22.921606) " points="21.8604352 18.127856 23.3604352 18.127856 23.3604352 27.715356 21.8604352 27.715356"></polygon>
                <polyline id="Rectangle-" stroke="#000000" stroke-width="1.5" stroke-linecap="round" transform="translate(29.222567, 26.655524) rotate(165.000000) translate(-29.222567, -26.655524) " points="31.0799912 24.786774 31.0799912 28.524274 27.3651428 28.524274"></polyline>
                <polyline id="Rectangle-" stroke="#000000" stroke-width="1.5" stroke-linecap="round" transform="translate(25.985797, 24.786774) rotate(165.000000) translate(-25.985797, -24.786774) " points="27.8432213 22.918024 27.8432213 26.655524 24.1283728 26.655524"></polyline>
                <polygon id="Rectangle" fill="#000000" transform="translate(23.132365, 14.849917) rotate(240.000000) translate(-23.132365, -14.849917) " points="22.3823654 10.0561675 23.8823654 10.0561675 23.8823654 19.6436675 22.3823654 19.6436675"></polygon>
                <polyline id="Rectangle-" stroke="#000000" stroke-width="1.5" stroke-linecap="round" transform="translate(29.222567, 11.258088) scale(1, -1) rotate(-195.000000) translate(-29.222567, -11.258088) " points="31.0799912 9.38933816 31.0799912 13.1268382 27.3651428 13.1268382"></polyline>
                <polyline id="Rectangle-" stroke="#000000" stroke-width="1.5" stroke-linecap="round" transform="translate(25.985797, 13.126838) scale(1, -1) rotate(-195.000000) translate(-25.985797, -13.126838) " points="27.8432213 11.2580882 27.8432213 14.9955882 24.1283728 14.9955882"></polyline>
                <polygon id="Rectangle" fill="#000000" transform="translate(8.656952, 23.266142) scale(1, -1) rotate(-240.000000) translate(-8.656952, -23.266142) " points="7.90695173 18.4723916 9.40695173 18.4723916 9.40695173 28.0598916 7.90695173 28.0598916"></polygon>
                <polyline id="Rectangle-" stroke="#000000" stroke-width="1.5" stroke-linecap="round" transform="translate(2.465650, 26.706202) rotate(285.000000) translate(-2.465650, -26.706202) " points="4.32307403 24.8374515 4.32307403 28.5749515 0.608225545 28.5749515"></polyline>
                <polyline id="Rectangle-" stroke="#000000" stroke-width="1.5" stroke-linecap="round" transform="translate(5.702420, 24.837452) rotate(285.000000) translate(-5.702420, -24.837452) " points="7.55984398 22.9687015 7.55984398 26.7062015 3.84499549 26.7062015"></polyline>
                <ellipse id="Oval-" stroke="#000000" stroke-width="1.5" fill="#FFC55D" transform="translate(15.877370, 18.916519) rotate(60.000000) translate(-15.877370, -18.916519) " cx="15.87737" cy="18.9165185" rx="4.74151515" ry="4.775"></ellipse>
            </g>
        </g>
    </g>
</svg>