<?xml version="1.0" encoding="UTF-8"?>
<svg width="64px" height="64px" viewBox="0 0 64 64" version="1.1" xmlns="http://www.w3.org/2000/svg" xmlns:xlink="http://www.w3.org/1999/xlink">
    <title>rome</title>
    <g id="rome" stroke="none" stroke-width="1" fill="none" fill-rule="evenodd">
        <rect id="矩形-" x="0" y="1.13686838e-13" width="64" height="64"></rect>
        <g id="编组-" transform="translate(7.500000, 16.000000)">
            <path d="M23.3699354,-0.236073975 L1.83261178,-0.236073975 L1.83201317,33.8340787 L-0.75,33.8346044 L-0.75,36.8297121 L2.57784399,36.8508093 L46.4972886,36.833926 L50.0018016,36.8345949 L50.0018016,33.8345949 L47.2470057,33.8340691 L47.2472656,-0.236073975 L34.9594022,-0.236073975 L33.5035583,5.19495669 L30.6935505,5.19510642 L29.238492,10.625926 L26.2795393,10.625926 L23.3699354,-0.236073975 Z" id="wb" stroke="#FFFFFF" stroke-width="1.5" fill-rule="nonzero"></path>
            <path d="M45.7472599,1.26392602 L36.1103305,1.26392602 L34.6550539,6.69507576 L31.8445709,6.69507576 L29.9874848,13.6262255 L45.7472599,13.6262255 L45.7472599,1.26392602 Z" id="路径" stroke="#000000" stroke-width="1.5" fill="#E8D7BC" fill-rule="nonzero"></path>
            <path d="M22.2189014,1.26392602 L3.3325986,1.26392602 L3.3325986,13.6262255 L25.5313795,13.6262255 L22.2189014,1.26392602 Z" id="路径" stroke="#000000" stroke-width="1.5" fill="#E8D7BC" fill-rule="nonzero"></path>
            <path d="M39.1135144,5.63469251 C40.1092252,5.63469251 40.9238976,6.44927445 40.9238976,7.44498524 L40.9238976,7.44498524 L40.9238976,12.8762255 L37.3031311,12.8762255 L37.3031311,7.44498524 C37.3031311,6.44927445 38.1178036,5.63460199 39.1135144,5.63469251 Z M9.96634414,5.63469251 C10.9620549,5.63469251 11.7767274,6.44927445 11.7767274,7.44498524 L11.7767274,7.44498524 L11.7767274,12.8762255 L8.1559609,12.8762255 L8.1559609,7.44498524 C8.1559609,6.44927445 8.97063336,5.63469251 9.96634414,5.63469251 Z M17.6604729,5.63469251 C18.6561837,5.63469251 19.4708562,6.44927445 19.4708562,7.44498524 L19.4708562,7.44498524 L19.4708562,12.8762255 L15.8500897,12.8762255 L15.8500897,7.44498524 C15.8500897,6.44927445 16.6647621,5.63469251 17.6604729,5.63469251 Z" id="形状结合" fill="#9E8D73" fill-rule="nonzero"></path>
            <path d="M45.7472599,12.1262255 L3.3325986,12.1262255 L3.3325986,24.488525 L45.7472599,24.488525 L45.7472599,12.1262255 Z" id="形状结合" stroke="#000000" stroke-width="1.5" fill="#FFEECF" fill-rule="nonzero"></path>
            <path d="M9.96634414,16.496992 C10.9620549,16.496992 11.7767274,17.3115739 11.7767274,18.3072847 L11.7767274,18.3072847 L11.7767274,23.738525 L8.1559609,23.738525 L8.1559609,18.3072847 C8.1559609,17.3115739 8.97063336,16.496992 9.96634414,16.496992 Z M17.6604729,16.496992 C18.6561837,16.496992 19.4708562,17.3115739 19.4708562,18.3072847 L19.4708562,18.3072847 L19.4708562,23.738525 L15.8500897,23.738525 L15.8500897,18.3072847 C15.8500897,17.3115739 16.6647621,16.496992 17.6604729,16.496992 Z M39.1135144,16.496992 C40.1092252,16.496992 40.9238976,17.3115739 40.9238976,18.3072847 L40.9238976,18.3072847 L40.9238976,23.738525 L37.3031311,23.738525 L37.3031311,18.3072847 C37.3031311,17.3115739 38.1178036,16.496992 39.1135144,16.496992 Z" id="形状结合" fill="#D4BC96" fill-rule="nonzero"></path>
            <path d="M45.7472599,22.988525 L3.3325986,22.988525 L3.3325986,35.3508244 L45.7472599,35.3508244 L45.7472599,22.988525 Z" id="形状结合" stroke="#000000" stroke-width="1.5" fill="#E8D7BC" fill-rule="nonzero"></path>
            <path d="M9.96634414,27.3592914 C10.9620549,27.3592914 11.7767274,28.1738734 11.7767274,29.1695842 L11.7767274,29.1695842 L11.7767274,34.6008244 L8.1559609,34.6008244 L8.1559609,29.1695842 C8.1559609,28.1739639 8.97063336,27.3592914 9.96634414,27.3592914 Z M17.6604729,27.3592914 C18.6561837,27.3592914 19.4708562,28.1738734 19.4708562,29.1695842 L19.4708562,29.1695842 L19.4708562,34.6008244 L15.8500897,34.6008244 L15.8500897,29.1694936 C15.8500897,28.1738734 16.6647621,27.3592914 17.6604729,27.3592914 Z M25.3546017,27.3592914 C26.3503125,27.3592914 27.164985,28.1738734 27.164985,29.1695842 L27.164985,29.1695842 L27.164985,34.6008244 L23.5442185,34.6008244 L23.5442185,29.1694936 C23.5442185,28.1738734 24.3588004,27.3592009 25.3546017,27.3592914 Z M39.1135144,27.3592914 C40.1092252,27.3592914 40.9238976,28.1738734 40.9238976,29.1695842 L40.9238976,29.1695842 L40.9238976,34.6008244 L37.3031311,34.6008244 L37.3031311,29.1694936 C37.3031311,28.1738734 38.1178036,27.3592009 39.1135144,27.3592914 Z" id="形状结合" fill="#9E8D73" fill-rule="nonzero"></path>
            <line x1="24.4782376" y1="9.751767" x2="31.318133" y2="35.3472594" id="路径-" stroke="#000000" stroke-width="1.5"></line>
            <line x1="0" y1="35.3344518" x2="49.2518016" y2="35.3344518" id="路径-" stroke="#000000" stroke-width="1.5"></line>
        </g>
    </g>
</svg>