<?xml version="1.0" encoding="UTF-8"?>
<svg width="64px" height="64px" viewBox="0 0 64 64" version="1.1" xmlns="http://www.w3.org/2000/svg" xmlns:xlink="http://www.w3.org/1999/xlink">
    <title>museum</title>
    <g id="museum" stroke="none" stroke-width="1" fill="none" fill-rule="evenodd">
        <rect id="Rectangle" x="0" y="0" width="64" height="64"></rect>
        <g id="Group" transform="translate(8.000000, 8.000000)">
            <path d="M25.5727161,-0.0623563757 C24.5513534,-0.57178129 23.2447069,-0.577507463 22.1513839,-0.0355541755 L18.152818,2.16099774 L14.4754841,4.19465924 L9.3546593,7.0457675 L8.83610795,7.33603936 C5.58597822,9.15646699 2.89724171,10.6831377 0.936184839,11.8268272 C0.47558846,12.0954473 0.157652172,12.4626227 -0.038965767,12.9286713 C-0.21274549,13.3405859 -0.288883416,13.8417314 -0.256799765,14.4411449 L-0.256799765,48.5748134 L48.1980303,48.5748134 L48.193566,14.0160447 C48.2228601,13.7345494 48.2171652,13.4568334 48.1574032,13.1597483 C48.0268753,12.5108774 47.6649124,11.9108444 46.997512,11.5244903 L45.6092777,10.7301832 C43.9937002,9.81506105 42.0312622,8.73107246 39.7774047,7.50596346 L38.0858434,6.58952107 L35.7299132,5.32183027 L34.5246518,4.67662268 C33.3123323,4.02867188 32.0803268,3.37323123 30.8433077,2.71770348 L25.5727161,-0.0623563757 Z" id="wb" stroke="#FFFFFF" stroke-width="1.5" fill-rule="nonzero"></path>
            <path d="M16.8205128,28.7290678 L31.1794872,28.7290678 C32.0999618,28.7290678 32.8461538,29.4752599 32.8461538,30.3957345 L32.8461538,45.8805829 C32.8461538,46.8010575 32.0999618,47.5472496 31.1794872,47.5472496 L16.8205128,47.5472496 C15.9000382,47.5472496 15.1538462,46.8010575 15.1538462,45.8805829 L15.1538462,30.3957345 C15.1538462,29.4752599 15.9000382,28.7290678 16.8205128,28.7290678 Z" id="Rectangle" fill="#FFDC64"></path>
            <path d="M46.6979335,15.1703185 L1.24320023,15.1703185 L1.24320023,47.0748134 L16.1316943,47.0748134 L16.4795768,34.1943157 L23.6886747,30.5621111 C23.8659278,30.4734797 24.0750798,30.4734797 24.2543612,30.5631292 L31.8093134,34.7560833 L31.8093134,47.0748134 L46.6979335,47.0748134 L46.6979335,15.1703185 Z" id="Shape" stroke="#000000" stroke-width="1.5" fill="#FFFFFF" fill-rule="nonzero"></path>
            <path d="M22.6984119,1.37178604 C22.4040892,1.53322837 4.78014708,11.2002989 -0.403595772,14.8958161 L46.5051674,14.8999467 C46.5581368,14.6256006 46.5758429,14.4041545 46.5758429,14.4041545 C46.5758429,14.4041545 46.6821087,13.075115 46.2460094,12.8226597 C39.5929645,8.97125096 25.6165014,1.65655882 25.0713935,1.37141415 C24.7138135,1.16528652 24.3025527,1.05986735 23.8887193,1.05986735 C23.4757664,1.05986735 23.0616195,1.16486704 22.6984119,1.37178604 Z" id="Shape" stroke="#000000" stroke-width="1.5" fill="#07EBF5" fill-rule="nonzero"></path>
            <rect id="Rectangle-" fill="#94E8F4" x="35.8484848" y="20.1666667" width="6.96969697" height="6.96969697" rx="1.66666667"></rect>
            <rect id="Rectangle--" fill="#94E8F4" x="35.8484848" y="29.9242424" width="6.96969697" height="6.96969697" rx="1.66666667"></rect>
            <rect id="Rectangle-" fill="#94E8F4" x="25.7772727" y="20.1666667" width="6.96969697" height="6.96969697" rx="1.66666667"></rect>
            <rect id="Rectangle-" fill="#94E8F4" x="15.2495455" y="20.1666667" width="6.96969697" height="6.96969697" rx="1.66666667"></rect>
            <rect id="Rectangle-" fill="#94E8F4" x="5.18181818" y="20.1666667" width="6.96969697" height="6.96969697" rx="1.66666667"></rect>
            <rect id="Rectangle---" fill="#94E8F4" x="5.18181818" y="29.9242424" width="6.96969697" height="6.96969697" rx="1.66666667"></rect>
            <line x1="15.940012" y1="47.1073728" x2="31.9008337" y2="47.1073728" id="路径" stroke="#000000" stroke-width="1.5"></line>
        </g>
    </g>
</svg>