<?xml version="1.0" encoding="UTF-8"?>
<svg width="64px" height="64px" viewBox="0 0 64 64" version="1.1" xmlns="http://www.w3.org/2000/svg" xmlns:xlink="http://www.w3.org/1999/xlink">
    <title>voice</title>
    <g id="voice" stroke="none" stroke-width="1" fill="none" fill-rule="evenodd">
        <rect id="Rectangle" x="0" y="0" width="64" height="64"></rect>
        <g id="编组" transform="translate(12.500000, 3.000000)">
            <path d="M19.3379127,5.75403145 C15.8888385,5.84006974 12.7798708,7.29617673 10.5350307,9.59882692 C8.29607011,11.8954461 6.91666667,15.0340266 6.91666667,18.4947917 L6.91603811,30.8687511 L5.05993967,30.5576674 C4.78854967,30.2866447 4.41384723,30.1190476 4,30.1190476 C3.58578644,30.1190476 3.21078644,30.2869408 2.93933983,30.5583874 C2.66789322,30.8298341 2.5,31.2048341 2.5,31.6190476 C2.5,36.0700273 4.07223596,40.1394975 6.66680593,43.2533445 C9.16643344,46.2532473 12.6144992,48.3660633 16.5233271,49.0861712 L16.5230767,51.5351608 L12.1071429,51.5358275 L12.1071429,54.6964286 L26.8928571,54.6964286 L26.8928571,51.5358275 L22.4761188,51.5351608 L22.4765068,49.0862018 C26.3854032,48.3661231 29.8335312,46.2532898 32.3331941,43.2533445 C34.927764,40.1394975 36.5,36.0700273 36.5,31.6190476 C36.5,31.2048341 36.3321068,30.8298341 36.0606602,30.5583874 C35.7892136,30.2869408 35.4142136,30.1190476 35,30.1190476 C34.6226353,30.1190476 34.2778685,30.2584691 33.7008185,30.8682492 L32.4058018,30.8687247 L32.4024494,18.180635 C32.3183532,14.7085027 30.8463457,11.5804184 28.4788695,9.3303328 C26.1500301,7.1169681 22.9531439,5.7517973 19.3379127,5.75403145 Z" id="wb" stroke="#FFFFFF" stroke-width="1.5" fill="#000000" fill-rule="nonzero"></path>
            <path d="M31.6409162,33.2792264 C31.3223738,39.6194608 26.0808125,44.6621912 19.6614583,44.6621912 C13.2421042,44.6621912 8.00054285,39.6194608 7.68200051,33.2792264 L4.83375691,33.2797013 C5.62315643,41.0586093 11.8951366,47.1071429 19.5,47.1071429 C27.1048634,47.1071429 33.3768436,41.0586093 34.1662431,33.2797013 L31.6409162,33.2792264 Z" id="wb" fill="#FFFFFF" fill-rule="nonzero"></path>
            <path d="M14.3510168,4.43064639 C14.2287184,4.03489903 13.9575896,3.72618827 13.6180987,3.54698895 C13.2786077,3.36778963 12.8707545,3.31810176 12.4750071,3.44040017 C8.51876782,4.6630029 4.70839499,8.33885426 3.69586239,12.4786499 C3.59745267,12.8810035 3.6714454,13.2851547 3.87062896,13.61332 C4.06981252,13.9414852 4.3941869,14.1936645 4.79654048,14.2920742 C5.19889406,14.3904839 5.60304528,14.3164912 5.93121054,14.1173077 C6.25937579,13.9181241 6.51155508,13.5937497 6.60996479,13.1913961 C7.37298557,10.0717434 10.3513743,7.23665448 13.3607706,6.3066561 C13.756518,6.18435768 14.0652287,5.91322894 14.244428,5.57373795 C14.4236274,5.23424697 14.4733152,4.82639375 14.3510168,4.43064639 Z M6.80028198,3.92477479 C6.51646567,3.62307763 6.1372313,3.46498139 5.7535267,3.45326352 C5.36982211,3.44154565 4.9816473,3.57620615 4.67995013,3.86002245 C2.26017752,6.13638095 0.535259,8.85406811 -0.0174409256,11.4203449 C-0.104650586,11.8252738 -0.0194742804,12.2272167 0.188736645,12.5497299 C0.39694757,12.872243 0.728193116,13.1153264 1.13312194,13.202536 C1.53805076,13.2897457 1.9399937,13.2045694 2.26250686,12.9963585 C2.58502001,12.7881475 2.82810337,12.456902 2.91531303,12.0519732 C3.34281233,10.0670235 4.76869063,7.89537581 6.73552963,6.04510664 C7.0372268,5.76129034 7.19532304,5.38205596 7.20704091,4.99835137 C7.21875878,4.61464677 7.08409828,4.22647196 6.80028198,3.92477479 Z M13.1272475,0.99411255 C13.0253645,0.592624409 12.7703915,0.270441366 12.4405172,0.0741011115 C12.110643,-0.122239143 11.7058674,-0.19273661 11.3043793,-0.0908535976 C10.3241987,0.157880394 9.27533857,0.6005309 8.21337849,1.21174992 C7.85438065,1.4183738 7.61311998,1.75094923 7.51326473,2.12161816 C7.41340949,2.49228709 7.45495968,2.90104951 7.66158355,3.26004735 C7.86820743,3.61904519 8.20078286,3.86030586 8.57145179,3.9601611 C8.94212072,4.06001635 9.35088314,4.01846616 9.70988098,3.81184229 C10.5281524,3.34088011 11.3216792,2.99984322 12.0422813,2.81698075 C12.4437695,2.71509773 12.7659525,2.46012475 12.9622928,2.13025049 C13.158633,1.80037623 13.2291305,1.39560069 13.1272475,0.99411255 Z" id="wb" stroke="#FFFFFF" stroke-width="1.5" fill-rule="nonzero"></path>
            <rect id="Mask" stroke="#000000" stroke-width="1.5" fill="#E9F4F5" x="8.41666667" y="7.25" width="22.4895833" height="36.6621912" rx="11.2447917"></rect>
            <path d="M30.9055826,28.027 L8.41550226,28.027 L8.41666669,32.6675877 C8.41666667,35.772563 9.67528285,38.5837609 11.7101899,40.618668 C13.7450969,42.653575 16.5562949,43.9121912 19.6614583,43.9121912 C22.7666218,43.9121912 25.5778197,42.653575 27.6127268,40.618668 C29.6476338,38.5837609 30.90625,35.772563 30.90625,32.6673995 L30.9055826,28.027 Z" id="形状结合" stroke="#000000" stroke-width="1.5" fill="#07EBF5"></path>
            <path d="M16.8474701,20.4502731 C17.6245315,20.4502731 18.2544641,21.0738456 18.2544641,21.8430612 C18.2544641,22.6122768 17.6245315,23.2358493 16.8474701,23.2358493 C16.0704088,23.2358493 15.4404761,22.6122768 15.4404761,21.8430612 C15.4404761,21.0738456 16.0704088,20.4502731 16.8474701,20.4502731 Z M11.219494,20.4502731 C11.9965554,20.4502731 12.626488,21.0738456 12.626488,21.8430612 C12.626488,22.6122768 11.9965554,23.2358493 11.219494,23.2358493 C10.4424327,23.2358493 9.8125,22.6122768 9.8125,21.8430612 C9.8125,21.0738456 10.4424327,20.4502731 11.219494,20.4502731 Z M22.4754462,20.4502731 C23.2525076,20.4502731 23.8824402,21.0738456 23.8824402,21.8430612 C23.8824402,22.6122768 23.2525076,23.2358493 22.4754462,23.2358493 C21.6983849,23.2358493 21.0684522,22.6122768 21.0684522,21.8430612 C21.0684522,21.0738456 21.6983849,20.4502731 22.4754462,20.4502731 Z M28.1034223,20.4502731 C28.8804837,20.4502731 29.5104163,21.0738456 29.5104163,21.8430612 C29.5104163,22.6122768 28.8804837,23.2358493 28.1034223,23.2358493 C27.326361,23.2358493 26.6964283,22.6122768 26.6964283,21.8430612 C26.6964283,21.0738456 27.326361,20.4502731 28.1034223,20.4502731 Z M14.0334821,17.664697 C14.8105434,17.664697 15.4404761,18.2882695 15.4404761,19.0574851 C15.4404761,19.8267007 14.8105434,20.4502731 14.0334821,20.4502731 C13.2564207,20.4502731 12.626488,19.8267007 12.626488,19.0574851 C12.626488,18.2882695 13.2564207,17.664697 14.0334821,17.664697 Z M19.6614582,17.664697 C20.4385195,17.664697 21.0684522,18.2882695 21.0684522,19.0574851 C21.0684522,19.8267007 20.4385195,20.4502731 19.6614582,20.4502731 C18.8843968,20.4502731 18.2544641,19.8267007 18.2544641,19.0574851 C18.2544641,18.2882695 18.8843968,17.664697 19.6614582,17.664697 Z M25.2894343,17.664697 C26.0664956,17.664697 26.6964283,18.2882695 26.6964283,19.0574851 C26.6964283,19.8267007 26.0664956,20.4502731 25.2894343,20.4502731 C24.5123729,20.4502731 23.8824402,19.8267007 23.8824402,19.0574851 C23.8824402,18.2882695 24.5123729,17.664697 25.2894343,17.664697 Z M16.8474701,14.8791209 C17.6245315,14.8791209 18.2544641,15.5026933 18.2544641,16.2719089 C18.2544641,17.0411245 17.6245315,17.664697 16.8474701,17.664697 C16.0704088,17.664697 15.4404761,17.0411245 15.4404761,16.2719089 C15.4404761,15.5026933 16.0704088,14.8791209 16.8474701,14.8791209 Z M11.219494,14.8791209 C11.9965554,14.8791209 12.626488,15.5026933 12.626488,16.2719089 C12.626488,17.0411245 11.9965554,17.664697 11.219494,17.664697 C10.4424327,17.664697 9.8125,17.0411245 9.8125,16.2719089 C9.8125,15.5026933 10.4424327,14.8791209 11.219494,14.8791209 Z M22.4754462,14.8791209 C23.2525076,14.8791209 23.8824402,15.5026933 23.8824402,16.2719089 C23.8824402,17.0411245 23.2525076,17.664697 22.4754462,17.664697 C21.6983849,17.664697 21.0684522,17.0411245 21.0684522,16.2719089 C21.0684522,15.5026933 21.6983849,14.8791209 22.4754462,14.8791209 Z M28.1034223,14.8791209 C28.8804837,14.8791209 29.5104163,15.5026933 29.5104163,16.2719089 C29.5104163,17.0411245 28.8804837,17.664697 28.1034223,17.664697 C27.326361,17.664697 26.6964283,17.0411245 26.6964283,16.2719089 C26.6964283,15.5026933 27.326361,14.8791209 28.1034223,14.8791209 Z M19.6614582,12.0935447 C20.4385195,12.0935447 21.0684522,12.7171172 21.0684522,13.4863328 C21.0684522,14.2555484 20.4385195,14.8791209 19.6614582,14.8791209 C18.8843968,14.8791209 18.2544641,14.2555484 18.2544641,13.4863328 C18.2544641,12.7171172 18.8843968,12.0935447 19.6614582,12.0935447 Z M14.0334821,12.0935447 C14.8105434,12.0935447 15.4404761,12.7171172 15.4404761,13.4863328 C15.4404761,14.2555484 14.8105434,14.8791209 14.0334821,14.8791209 C13.2564207,14.8791209 12.626488,14.2555484 12.626488,13.4863328 C12.626488,12.7171172 13.2564207,12.0935447 14.0334821,12.0935447 Z M25.2894343,12.0935447 C26.0664956,12.0935447 26.6964283,12.7171172 26.6964283,13.4863328 C26.6964283,14.2555484 26.0664956,14.8791209 25.2894343,14.8791209 C24.5123729,14.8791209 23.8824402,14.2555484 23.8824402,13.4863328 C23.8824402,12.7171172 24.5123729,12.0935447 25.2894343,12.0935447 Z M22.4754462,9.30796858 C23.2525076,9.30796858 23.8824402,9.93154104 23.8824402,10.7007567 C23.8824402,11.4699723 23.2525076,12.0935447 22.4754462,12.0935447 C21.6983849,12.0935447 21.0684522,11.4699723 21.0684522,10.7007567 C21.0684522,9.93154104 21.6983849,9.30796858 22.4754462,9.30796858 Z M16.8474701,9.30796858 C17.6245315,9.30796858 18.2544641,9.93154104 18.2544641,10.7007567 C18.2544641,11.4699723 17.6245315,12.0935447 16.8474701,12.0935447 C16.0704088,12.0935447 15.4404761,11.4699723 15.4404761,10.7007567 C15.4404761,9.93154104 16.0704088,9.30796858 16.8474701,9.30796858 Z M18.2544641,7.67383279 C18.2544641,6.90461718 21.0684522,6.90461718 21.0684522,7.67383279 C21.0684522,8.4430484 20.4385195,9.06662086 19.6614582,9.06662086 C18.8843968,9.06662086 18.2544641,8.4430484 18.2544641,7.67383279 Z" id="形状结合" fill="#000000"></path>
            <rect id="Rectangle-" fill="#BDCFD1" x="17.6547619" y="47.8571429" width="3.32142857" height="5.53571429"></rect>
            <line x1="20.9761905" y1="47.8571429" x2="20.9761905" y2="53.7619048" id="Path-" stroke="#000000" stroke-width="1.5"></line>
            <line x1="18.0238095" y1="47.8571429" x2="18.0238095" y2="53.7619048" id="Path-" stroke="#000000" stroke-width="1.5"></line>
            <path d="M35,30.8690476 C35.4142136,30.8690476 35.75,31.2048341 35.75,31.6190476 C35.75,40.9937101 28.4826324,48.6071429 19.5,48.6071429 C10.5173676,48.6071429 3.25,40.9937101 3.25,31.6190476 C3.25,31.2048341 3.58578644,30.8690476 4,30.8690476 C4.41421356,30.8690476 4.75,31.2048341 4.75,31.6190476 C4.75,40.1804899 11.3618051,47.1071429 19.5,47.1071429 C27.6381949,47.1071429 34.25,40.1804899 34.25,31.6190476 C34.25,31.2048341 34.5857864,30.8690476 35,30.8690476 Z" id="Rectangle--" fill="#000000" fill-rule="nonzero"></path>
            <rect id="Combined-Shape" fill="#000000" x="12.8571429" y="52.2857143" width="13.2857143" height="1.66071429"></rect>
            <rect id="Rectangle-" fill="#000000" x="4" y="31.6190476" width="4.42857143" height="1.66071429"></rect>
            <rect id="Rectangle" fill="#000000" x="30.5714286" y="31.6190476" width="4.42857143" height="1.66071429"></rect>
            <path d="M12.9179141,12.835023 C11.9489912,8.87352814 8.24250068,5.82830021 5.1529388,4.87352814" id="Oval-" stroke="#000000" stroke-width="1.5" stroke-linecap="round" transform="translate(9.035426, 8.854276) scale(-1, 1) translate(-9.035426, -8.854276) "></path>
            <path d="M11.6733537,11.7361591 C11.156432,9.33600626 9.47132676,6.88744118 7.4145499,4.95256454 M4.16066005,2.5117961 C3.23326347,1.97802611 2.31025144,1.58162798 1.44895949,1.36306357" id="形状" stroke="#000000" stroke-width="1.5" stroke-linecap="round" transform="translate(6.561157, 6.549611) scale(-1, 1) translate(-6.561157, -6.549611) "></path>
        </g>
    </g>
</svg>