<?xml version="1.0" encoding="UTF-8"?>
<svg width="64px" height="64px" viewBox="0 0 64 64" version="1.1" xmlns="http://www.w3.org/2000/svg" xmlns:xlink="http://www.w3.org/1999/xlink">
    <title>book</title>
    <g id="book" stroke="none" stroke-width="1" fill="none" fill-rule="evenodd">
        <rect id="Rectangle" x="0" y="0" width="64" height="64"></rect>
        <g id="Group" transform="translate(11.000000, 7.000000)">
            <g id="编组" transform="translate(0.065592, 0.019141)" stroke="#FFFFFF" stroke-width="1.5">
                <path d="M23.8890771,-0.327697843 C25.0150896,-0.634196754 26.1563214,-0.520528901 27.146248,-0.0823667579 C28.0477252,0.316645857 28.8233836,0.985203292 29.3480343,1.8507387 L29.3480343,1.8507387 L33.4378917,2.79165941 L35.5048378,2.25966647 C36.4929614,2.0044012 37.4906087,2.15750512 38.3192637,2.61363011 C39.1529516,3.07252536 39.8153163,3.83833034 40.1251988,4.80345386 C40.2581359,5.28725268 40.2897598,5.52062661 40.3038058,5.76299779 L40.3038058,5.76299779 L40.3089294,26.3772369 L43.4293798,27.1521005 L43.4398234,35.9573031 L40.3092054,36.9206837 L40.3099944,40.2760362 C40.3099944,41.0701274 40.0661778,41.8209651 39.6395362,42.4450594 C39.2064316,43.0786081 38.5848534,43.5814532 37.8387066,43.8664434 L37.8387066,43.8664434 L13.5417206,51.6471233 L10.9810862,51.6471233 C8.61346755,51.5933992 6.73149632,51.0986902 5.35248838,50.2058778 C3.89367138,49.2613946 2.96703485,47.8755706 2.62085856,46.0391121 L2.62085856,46.0391121 L2.58647208,42.2105846 C0.854157497,41.3575339 0.11469679,40.6270948 0.0354841273,40.0519963 L0.0354841273,40.0519963 L-0.00369745894,32.6391805 L2.62113905,31.6754658 L2.71421013,8.09704082 C2.71713324,7.34947363 2.95691275,6.64651275 3.37059342,6.0701321 C3.79112478,5.4842064 4.39144262,5.02920096 5.10529965,4.79099315 L5.10529965,4.79099315 Z M5.58416398,43.5086233 L5.59556484,45.612928 C5.80413549,46.5577931 6.30146232,47.2797162 7.11965851,47.7723923 C7.89756419,48.2408076 8.93527782,48.5099304 10.2391785,48.6063432 L10.2401912,45.1734757 C9.08409115,44.8464346 7.41575179,44.2487792 5.58416398,43.5086233 Z M37.309346,37.8445983 L16.1763846,44.3557613 C14.7481467,44.7895386 13.8318739,45.0620861 13.2384273,45.2307694 L13.2388893,48.5919477 L37.0814927,40.8223567 C37.193534,40.6688688 37.2664021,40.4656741 37.3099782,40.2153436 L37.309346,37.8445983 Z M36.9407155,30.481024 C32.9116901,31.6693094 29.2760707,32.769362 25.304105,33.995312 L14.146224,37.4645018 C13.7862878,37.5739215 13.4875224,37.6631363 13.238003,37.7355831 L13.2383608,42.099587 C14.0716752,41.8561364 15.3784827,41.4616185 17.4636746,40.8238582 L37.2654862,34.719622 L36.9407155,30.481024 Z M5.603772,36.026622 L5.58630685,40.2609071 C5.8735639,40.3830357 6.22806263,40.5305649 6.74849205,40.7437142 C8.02258627,41.2583893 9.27597243,41.7190864 10.2400559,42.0370891 L10.2391811,37.5984725 L5.603772,36.026622 Z" id="形状结合"></path>
            </g>
            <path d="M4.13314857,7.98028793 C4.13314857,8.61239853 4.16325607,21.4763455 4.22347107,46.5721288 L6.99571075,49.1339439 L12.5639824,50.166264 L12.6212601,11.3178143 L7.94211426,10.3507027 C5.4028038,8.13831558 4.13314857,7.34817734 4.13314857,7.98028793 Z" id="Path-" fill="#FFFFFF"></path>
            <path d="M4.28574219,7.17110933 L26.0171875,1.01914063 C26.0171875,1.01914063 27.6761005,2.28572793 28.0309386,3.36743775 C28.3857768,4.44914756 27.7135982,6.19058075 27.7135982,6.19058075 L11.4687671,10.2032465 C11.4687671,10.2032465 9.03646978,10.3557902 7.71666537,9.7986672 C6.39686095,9.24154425 4.28574219,7.17110933 4.28574219,7.17110933 Z" id="Rectangle-" fill="#D2D9F3"></path>
            <path d="M13.3730873,50.166264 L11.8052734,50.166264 L11.8052734,9.96738281 L35.9456124,3.73112857 C37.1988859,3.40736627 38.4773259,4.16088393 38.8010882,5.41415737 C38.8505545,5.60563948 38.8755859,5.80261258 38.8755859,6.00038089 L38.8755859,40.2951768 C38.8755859,41.314419 38.2168656,42.2168151 37.2461084,42.5274355 L13.3730873,50.166264 L13.3730873,50.166264 Z" id="Rectangle-" stroke="#000000" stroke-width="1.5" fill="#8497DD"></path>
            <path d="M11.4687671,50.166264 C7.07272958,50.166264 4.62752342,48.6524214 4.13314857,45.6247363 L4.27979023,8.12204664 C4.28330687,7.22268993 4.88670013,6.43629157 5.75448995,6.20008048 L24.3486324,1.13878261 L24.3486324,1.13878261 C26.1518394,0.647952347 28.0115241,1.71184391 28.5023544,3.51505092 C28.5811997,3.8047121 28.6211483,4.10357747 28.6211483,4.40377772 C28.6211483,4.96775896 28.6211483,5.3907449 28.6211483,5.67273552" id="路径" stroke="#000000" stroke-width="1.5"></path>
            <polygon id="Rectangle-" fill="#FFFFFF" points="19.7007813 16.509375 32.3335938 12.9 32.3335938 21.4722656 19.7007813 25.0816406"></polygon>
            <polygon id="Rectangle-" fill="#FFFFFF" points="19.7007813 27.7886719 32.3335938 24.1792969 32.3335938 25.7300307 19.7007813 29.3394057"></polygon>
            <path d="M4.53861221,7.17110933 C5.65673153,9.09956387 8.52700142,10.7298464 11.4687671,10.0434086" id="路径-" stroke="#000000" stroke-width="1.5"></path>
            <polygon id="路径-" fill="#D2D9F3" points="33.4913188 3.57759375 25.171612 1.66455012 22.0991235 2.62402622 23.9203276 6.06702868"></polygon>
            <path d="M4.70978225,34.1074505 C7.60865627,35.0842559 11.2612611,36.3771022 11.8052734,36.5346969 C12.2966756,36.677051 21.3675541,33.7777542 39.017909,28.6302103 C39.6633849,28.4419639 40.6574153,28.1516354 42,27.7592248 L42.0044141,34.5390177 C22.7485958,40.4822204 12.6822155,43.979475 11.8052734,43.979475 C10.4898603,43.979475 1.71726033,40.5110696 1.56466671,39.7673228 C1.56466671,38.8236613 1.56466671,35.1271576 1.56466671,33.1808917" id="路径" fill="#FFC55D"></path>
            <path d="M3.46115772,33.7136553 C6.36003173,34.6904607 11.2612611,36.3771022 11.8052734,36.5346969 C12.2966756,36.677051 22.0661371,33.2898239 39.716492,28.14228 M42,27.7592248 L42.0044141,34.8694131 C22.7485958,40.8126158 12.6822155,43.979475 11.8052734,43.979475 C10.4898603,43.979475 1.71726033,40.5110696 1.56466671,39.7673228 C1.56466671,38.8236613 1.56466671,35.1271576 1.56466671,33.1808917" id="形状" stroke="#000000" stroke-width="1.5"></path>
            <polygon id="路径-" fill="#FFC55D" points="1.20011214 33.2935652 3.46115772 32.5938229 3.46115772 34.5724891"></polygon>
            <line x1="1.06559157" y1="33.8860877" x2="4.36737161" y2="32.6772038" id="路径-" stroke="#000000" stroke-width="1.5"></line>
            <line x1="38.8755859" y1="27.5701149" x2="42.5627164" y2="28.4602723" id="路径-" stroke="#000000" stroke-width="1.5"></line>
            <polygon id="路径-" fill="#FFC55D" points="41.2672802 28.9145096 39.5028914 29.0674547 39.5028914 28.4910733"></polygon>
        </g>
    </g>
</svg>