<?xml version="1.0" encoding="UTF-8"?>
<svg width="64px" height="64px" viewBox="0 0 64 64" version="1.1" xmlns="http://www.w3.org/2000/svg" xmlns:xlink="http://www.w3.org/1999/xlink">
    <title>team</title>
    <g id="team" stroke="none" stroke-width="1" fill="none" fill-rule="evenodd">
        <rect id="Rectangle" x="0" y="0" width="64" height="64"></rect>
        <path d="M21.7889334,23.8738375 C21.7884899,23.871365 22.0946918,25.6813078 22.0946918,25.9579243 L22.094803,27.3337687 C22.094803,30.3449383 23.4220896,33.0390489 25.5101514,34.8430278 L25.5104192,37.1507207 C25.3147144,37.2103052 25.1265078,37.2950289 24.9510202,37.4033383 C24.5673287,37.6401493 24.2438959,37.989231 24.0367469,38.4347782 L23.5272115,39.5296154 L21.7521845,40.1890037 L21.7275397,39.0617902 L21.674525,34.80202 C21.6660321,34.5173793 21.6552895,34.2995456 21.6410983,34.103281 C21.4822588,31.9079112 20.554469,29.9674883 19.133756,28.5795991 C17.7188347,27.1973678 15.8146151,26.359441 13.6784378,26.359441 C11.5091052,26.359441 9.57874644,27.2221148 8.15252486,28.7121555 C6.77283391,30.1535835 5.86250228,32.1908899 5.69523821,34.656401 C5.68948002,35.0894054 5.70729105,35.5650704 5.77529806,36.6680747 L5.98160292,39.9043653 L6.05113226,41.2752088 C6.08892062,42.1835835 6.12092148,42.9449214 5.79543563,43.7180063 C5.23214173,44.0826779 4.7709387,44.5693676 4.44074506,45.132076 C4.07002504,45.7638484 3.86431394,46.4914242 3.86431394,47.2502999 L3.86431394,54.23191 L15.8556809,54.2879426 L37.8963728,54.3061732 L60.3393475,54.3061735 L60.3329247,48.9174046 C60.2916836,48.1279948 60.0215202,47.3857526 59.5782081,46.7734946 C59.1386222,46.1663829 58.5291084,45.6870097 57.8033772,45.4137215 L53.0552244,43.6333204 L53.0557468,42.4596755 C54.7273559,41.0834754 55.7692389,38.8836138 55.7692389,36.3366261 L55.7690721,33.2694964 C55.8349443,32.8382559 55.8983605,32.4224192 55.9378822,32.1616234 C56.1849902,31.4413554 57.6219656,26.6344578 52.4473486,24.8050109 C51.976354,24.7671867 48.045886,24.4810174 46.498125,24.824007 C45.6490942,25.0121554 45.0956552,25.3246021 44.7184322,25.6547266 C44.185699,26.120945 43.9851696,26.6344755 43.7948813,27.2501677 C43.6605061,27.3346592 43.4620005,27.3945318 43.2747169,27.473616 C42.6854529,27.7224442 42.1287713,28.0277322 41.887345,28.3966761 C41.5225536,28.9541448 41.4601395,29.9490006 41.4651815,30.888465 C41.4651815,30.888465 41.6288477,32.2912211 41.7969498,33.2937922 L41.7997906,36.6003446 C41.840821,38.0851151 42.2285239,39.4410852 42.8072897,40.5800155 L39.9756061,39.5289519 L39.381893,38.2653626 C39.1559857,37.8644685 38.8311618,37.5530485 38.4553441,37.3453565 C38.3084482,37.2641759 38.1537306,37.1988986 37.9940271,37.1503628 L37.9938946,34.8443074 C40.0828448,33.0403059 41.4108024,30.3456112 41.4108691,27.3337248 L41.424159,24.0199926 C41.4710656,23.5203756 41.6216435,22.928512 41.7604498,22.3689454 C41.8614105,21.961945 41.9577148,21.5702471 42.0177866,21.232583 C42.2567475,20.5167731 44.3226179,13.5829279 35.6173149,10.6569602 C35.6173149,10.6569602 33.0146551,10.2433881 31.7734133,10.2433881 C30.7779685,10.2433881 28.0472321,10.6561009 27.9281729,10.6843722 C27.6515422,10.7744535 26.96607,10.9219487 26.181115,11.09378 C24.6433377,11.4304087 22.8141773,11.8958152 21.9243495,12.7783416 C21.9107131,12.9813847 21.9234419,13.1593929 21.968935,13.2909454 C22.0504484,13.5266582 22.3068135,13.8146723 22.6765479,14.1197734 C21.6713738,15.3839071 21.1989749,16.9725203 21.203944,19.1860896 L21.4218149,21.5787693 C21.5244084,22.331601 21.63846,23.0311297 21.7889358,23.873852 Z" id="wb" stroke="#FFFFFF" stroke-width="1.5" fill-rule="nonzero"></path>
        <g id="team--" transform="translate(38.627780, 25.100000)" fill-rule="nonzero">
            <path d="M16.5792931,6.91655625 C16.5792931,6.91655625 18.44161,2.17113432 13.8041383,0.494396718 C13.8041383,0.494396718 9.61898709,0.142849797 8.0326108,0.494396718 C5.83186034,0.98209125 6.01456251,2.39657266 5.82281651,2.61013377 C5.44596779,3.02985689 4.21844239,3.23920757 3.8871408,3.74549759 C3.58464043,4.20777402 3.58235902,5.04303306 3.58235902,5.73979946 C3.58235902,5.73979946 3.88291801,8.31876632 4.08479705,8.94586685 L4.08479705,9.76063857 C4.14532372,9.94875339 4.17621677,10.1457676 4.17621677,10.344086 L4.17621677,10.6597077 L16.0535942,10.6597077 L16.0535942,10.344086 C16.0535942,10.1457676 16.0844872,9.94875339 16.1450139,9.76063857 C16.1450139,9.76063857 16.4763903,7.59715072 16.5792931,6.91655625 Z" id="Shape" fill="#000000"></path>
            <path d="M12.9276446,16.3293091 L7.30149964,16.3293091 L7.30149964,21.7942869 C7.92928335,22.2058537 9.30730525,23.0443226 10.1145721,23.0443226 C10.921839,23.0443226 12.2998609,22.2058537 12.9276446,21.7942869 L12.9276446,16.3293091 Z" id="Rectangle-path" stroke="#000000" stroke-width="1.5" fill="#72716E"></path>
            <path d="M10.1149425,17.4246295 C6.83509339,17.4246295 4.66837565,14.6712638 4.66837565,11.2747634 L4.66837565,9.99288857 C4.66837565,9.99288857 4.66837565,9.07433282 4.66837565,8.45743591 L4.66837565,6.36991383 C4.73232741,6.32429532 5.24349866,6.63608292 6.24148638,6.36991383 C6.92117192,6.18863777 8.06395465,5.38098663 8.51756842,5.41021115 C10.8780401,5.56228686 13.6644068,4.7440668 15.5483224,6.36991383 C15.6151956,6.89522463 15.6414584,7.7331732 15.6414584,8.17162189 C15.6414584,8.7885188 15.6414584,10.6597844 15.6414584,10.6597844 L15.6414584,11.2747634 C15.6413844,14.6711871 13.3947917,17.4246295 10.1149425,17.4246295 Z" id="Shape" stroke="#000000" stroke-width="1.5" fill="#72716E"></path>
            <path d="M20.2106726,28.4943271 L20.2106726,24.0674915 C20.2106726,23.0330901 19.5857736,22.1091641 18.6469805,21.7556432 L18.6469805,21.7556432 L13.6781632,19.8845453 L10.1149425,21.1145031 L6.55172189,19.8845453 L1.58290454,21.7556432 C0.64411144,22.1091641 0.0192124641,23.0330901 0.0192124641,24.0674915 L0.0192124641,28.4943271" id="Shape" stroke="#000000" stroke-width="1.5" fill="#FFC55D"></path>
        </g>
        <g id="team--" transform="translate(4.500000, 27.833487)" fill-rule="nonzero" stroke="#000000" stroke-width="1.5">
            <path d="M15.6450042,6.37797091 C15.3918178,2.87860524 12.749783,0.025953777 9.1784378,0.025953777 C5.60709261,0.025953777 2.96505777,2.87860524 2.71187141,6.37797091 C2.56101982,8.46425529 3.63565014,16.3742758 2.71187141,18.1891055 C2.71187141,18.1891055 2.71187141,15.4522326 6.11876646,16.3621378 L12.2567783,16.3596474 C15.6450042,15.4522326 16.4376796,18.1891055 16.4376796,18.1891055 C15.5139009,16.3742758 15.7958558,8.46425529 15.6450042,6.37797091 Z" id="Shape" fill="#AB6F7B"></path>
            <path d="M17.4925617,25.6868727 L17.4925617,19.4169259 C17.4925617,18.3858961 16.8995271,17.4432759 15.9605364,16.9820973 L15.9605364,16.9820973 L12.9710474,15.5138874 C12.3450536,15.2064349 11.9496588,14.577946 11.9496588,13.8904797 L11.949774,11.1680087 L6.40710159,11.1680087 L6.40710159,13.8904797 C6.40710159,14.5778328 6.01170678,15.2062085 5.38582824,15.513661 L2.39622396,16.9819841 C1.45734854,17.4431627 0.864313937,18.3856697 0.864313937,19.4168127 L0.864313937,25.6868727" id="Shape" fill="#FFF9ED"></path>
            <path d="M17.4925617,25.6519192 L17.4925617,19.4170391 C17.4925617,18.3858961 16.8994118,17.4432759 15.9605364,16.9820973 L12.9710474,15.5138874 C12.7989913,15.4294398 12.6491768,15.3168054 12.5154963,15.1893417 L11.4552712,16.3485143 C10.2030532,17.7175606 8.15393768,17.7174474 6.90171965,16.3485143 L5.84137931,15.1892285 C5.70758351,15.3166922 5.5577691,15.4293266 5.38594349,15.5137742 L2.39622396,16.9820973 C1.45746378,17.4431627 0.864313937,18.3857829 0.864313937,19.4168127 L0.864313937,25.6519192" id="Shape" fill="#ED6969"></path>
            <path d="M13.9548056,7.94665308 C13.9615885,7.63266057 13.7879218,7.30642036 13.5368115,6.98445153 C13.1995866,6.5520683 12.7061377,6.13789184 12.1160222,5.78242557 C11.009863,5.11611144 9.56395247,4.65845239 8.09205032,4.71254967 C7.52758145,4.73329577 6.99051352,5.0394282 6.52479908,5.40249583 C5.72014243,6.02980035 5.10017761,6.87094257 4.99198584,7.16569164 C4.65587363,8.08136901 4.43127097,8.79826177 4.94656997,9.7444135 C5.35664042,10.4973134 5.96962221,11.1273785 6.71314743,11.565209 C7.43378079,11.9895595 8.27721885,12.2329516 9.1784378,12.2329516 C10.4586611,12.2329516 11.6583525,11.7450446 12.5386192,10.9453933 C13.379506,10.1815155 13.9292546,9.12944277 13.9548056,7.94665308 Z" id="Shape" fill="#FFF9ED"></path>
        </g>
        <g id="team-" transform="translate(16.580367, 10.666667)">
            <path d="M3.04900323,34.2016799 C3.39216056,34.6663231 3.59207637,35.236665 3.59207637,35.840463 L3.59207637,42.1220488 L0.0288186961,42.1220488 L0.0288186961,37.5412816 C0.0288186961,36.988972 0.274851832,36.4664894 0.697464305,36.1214944 L3.04900323,34.2016799 Z" id="Shape" fill="#C7CFE2" fill-rule="nonzero"></path>
            <path d="M30.3160089,42.9276605 L30.3160089,35.5780309 C30.3160089,34.0489158 29.3786604,32.6831121 27.9704708,32.1605161 L20.5172447,29.3945452 L15.1724138,31.2127438 L9.82758284,29.3945452 L2.37435682,32.1605161 C0.966167161,32.6831121 0.0288186961,34.0489158 0.0288186961,35.5780309 L0.0288186961,42.8187397" id="Shape" stroke="#FFFFFF" stroke-width="4.5" fill-rule="nonzero"></path>
            <path d="M30.3160089,42.9276605 L30.3160089,35.5780309 C30.3160089,34.0489158 29.3786604,32.6831121 27.9704708,32.1605161 L20.5172447,29.3945452 L15.1724138,31.2127438 L9.82758284,29.3945452 L2.37435682,32.1605161 C0.966167161,32.6831121 0.0288186961,34.0489158 0.0288186961,35.5780309 L0.0288186961,42.8712841" id="Shape" stroke="#000000" stroke-width="1.5" fill="#94E8F4" fill-rule="nonzero"></path>
            <line x1="6.38838475" y1="36.6198382" x2="6.38838475" y2="42.1924223" id="Path-" stroke="#000000" stroke-width="1.5" stroke-linecap="round"></line>
            <line x1="23.9564428" y1="36.6198382" x2="23.9564428" y2="42.1924223" id="Path--" stroke="#000000" stroke-width="1.5" stroke-linecap="round"></line>
            <path d="M10.4304789,29.9613598 L10.4304789,23.030283 L19.9132375,23.030283 L19.9132375,29.9613598 C17.8193692,30.7956158 16.2391131,31.2127438 15.1724694,31.2127438 C14.1058256,31.2127438 12.5251621,30.7956158 10.4304789,29.9613598 Z" id="路径" stroke="#000000" stroke-width="1.5" fill="#F2ECCB" fill-rule="nonzero"></path>
            <path d="M24.7088049,10.3778605 C24.7088049,10.3778605 27.1196247,3.49773753 18.9182887,0.730847322 C18.9182887,0.730847322 16.3961407,0.326721405 15.1930466,0.326721405 C14.2276758,0.326721405 11.5800318,0.730847322 11.5800318,0.730847322 C10.8030594,0.983858588 6.93403618,1.69008852 6.26432516,2.07548877 C5.50475427,2.51260089 7.42820896,3.0833458 6.93326433,3.62661151 C5.85185938,4.81359323 5.37353852,6.32684886 5.37353852,8.48492094 L5.52762204,10.3778605 C5.64407657,11.2950078 5.77004728,12.0849575 5.94689514,13.0753724 C5.94689514,13.0753724 6.26432516,14.9980912 6.26432516,15.2912576 L6.26432516,15.7578288 L24.0803913,15.7578288 L24.0803913,15.2912576 C24.0803913,14.9980912 24.0805024,14.5320547 24.0805024,13.6081954 C24.0805024,12.6843361 24.5544508,11.3006922 24.7088049,10.3778605 Z" id="Shape" fill="#000000" fill-rule="nonzero"></path>
            <path d="M15.1724138,31.2127438 L12.3313645,34.112199 C11.9495353,34.5018778 11.3183392,34.4579879 10.9918508,34.0189755 L8.04600956,30.0576569 L8.81655779,28.4005013 C9.04392174,27.9114749 9.63700162,27.7322861 10.088618,28.0162662 L15.1724138,31.2127438 Z" id="Shape" stroke="#000000" stroke-width="1.5" fill="#94E8F4" fill-rule="nonzero"></path>
            <path d="M15.1724138,31.2127438 L18.0134631,34.112199 C18.3952923,34.5018778 19.0264884,34.4579879 19.3529768,34.0189755 L22.298818,30.0576569 L21.5282698,28.4005013 C21.3009058,27.9114749 20.707826,27.7322861 20.2562096,28.0162662 L15.1724138,31.2127438 Z" id="Shape" stroke="#000000" stroke-width="1.5" fill="#94E8F4" fill-rule="nonzero"></path>
            <path d="M12.6882626,8.54919301 C12.3807996,8.48655279 11.9328576,8.2524324 11.40936,7.94891804 C10.6248622,7.49408057 9.55746574,6.75425998 8.57738604,7.09123413 C8.0422614,7.27522241 7.69155787,7.56249112 7.46874726,7.88247006 C7.07547885,8.44724395 7.05371165,9.08663619 7.01443629,9.55034131 L7.01443629,16.6670415 C7.01443629,18.9721636 7.92881419,21.0597027 9.40920802,22.5705302 C10.8841342,24.0757777 12.9213522,25.0081479 15.1724138,25.0081479 C17.4234582,25.0081479 19.4606609,24.0757638 20.9355972,22.5705247 C22.4160284,21.0596778 23.3304514,18.9721196 23.3305024,16.6670249 L23.3305024,14.5320547 C23.3305024,13.0307199 23.2012159,11.9747545 22.9207781,11.5789731 C20.8249642,9.83227536 17.8795463,9.40682344 15.1338422,8.97215879 C14.2945431,8.83929174 13.4708917,8.70864001 12.6882626,8.54919301 Z" id="Shape" stroke="#000000" stroke-width="1.5" fill="#F2ECCB" fill-rule="nonzero"></path>
        </g>
    </g>
</svg>