<?xml version="1.0" encoding="UTF-8"?>
<svg width="64px" height="64px" viewBox="0 0 64 64" version="1.1" xmlns="http://www.w3.org/2000/svg" xmlns:xlink="http://www.w3.org/1999/xlink">
    <title>operaHouse</title>
    <g id="operaHouse" stroke="none" stroke-width="1" fill="none" fill-rule="evenodd">
        <rect id="矩形-" x="0" y="0" width="64" height="64"></rect>
        <g id="sydney-opera-house" transform="translate(3.000000, 14.000000)" fill-rule="nonzero">
            <path d="M22.4639515,-0.226129293 L16.5471,-0.226129293 L18.4788706,6.81515893 C16.8624852,6.43182386 15.1937853,6.23649697 13.4989737,6.23649697 L7.58218712,6.23649697 L9.00045649,11.4094891 C8.33280887,11.3190187 7.656722,11.273103 6.97593535,11.273103 L1.05918871,11.273103 L3.39735363,19.8000174 L1.76162197,19.8002613 L1.76072297,29.9503822 L-0.270343434,29.9510125 L-0.270343434,37.4760323 L58.2702303,37.4760323 L58.2702303,29.9510123 L56.2377761,29.9503821 L56.238564,25.0089158 L53.3149726,25.0081337 L57.0345914,11.4456283 L51.1178505,11.4456283 L50.5671068,11.4527787 C48.7053694,11.5015267 46.8796432,11.7906245 45.1211234,12.3076356 C43.1673965,9.19088471 40.5876477,6.50708167 37.5173901,4.41214158 C33.0715179,1.37847312 27.8638337,-0.226129293 22.4639515,-0.226129293 Z" id="wb" stroke="#FFFFFF" stroke-width="1.5"></path>
            <path d="M3.02591239,12.773103 L5.77582386,22.8001495 L15.2353618,22.8001495 L12.8525661,14.1119056 C11.0608034,13.2518161 9.06328414,12.773103 6.97593535,12.773103 L3.02591239,12.773103 Z" id="路径" stroke="#000000" stroke-width="1.5" fill="#E9F4F5"></path>
            <path d="M9.54885437,7.73649697 L11.4979728,14.8440558 L13.6798509,22.8001495 L25.97252,22.8001495 L22.4170167,9.83485759 C19.6879074,8.46284675 16.655107,7.73649697 13.4989737,7.73649697 L9.54885437,7.73649697 Z" id="路径" stroke="#000000" stroke-width="1.5" fill="#FFFFFF"></path>
            <path d="M18.5139421,1.27387071 L21.0597188,10.5570601 L24.4171397,22.8000364 L28.5824498,22.8000364 L31.8270559,28.0087152 L33.3742461,28.0087152 C34.912796,22.3303079 39.0781805,17.8306942 44.3757011,15.7325151 C44.6317824,15.6310894 44.889778,15.5355649 45.1494703,15.4459565 C45.0251171,15.1901418 44.8958303,14.9360027 44.7621335,14.683865 C42.8473709,11.07283 40.0852787,7.98021502 36.6719489,5.65118524 C32.4755056,2.78771611 27.562594,1.27387071 22.4639515,1.27387071 L18.5139421,1.27387071 Z" id="路径" stroke="#000000" stroke-width="1.5" fill="#E9F4F5"></path>
            <path d="M55.0678481,12.9456283 L51.1178505,12.9456283 C48.5606482,12.9456283 46.0957461,13.4378217 43.8230943,14.3380402 C37.9721402,16.6553909 33.3999446,21.6828619 31.8244745,28.0087152 L50.9372091,28.0087152 L55.0678481,12.9456283 Z" id="路径" stroke="#000000" stroke-width="1.5" fill="#FFFFFF"></path>
            <path d="M29.4152828,21.3001495 L3.26155556,21.3001495 L3.26155556,32.2007798 L54.7384444,32.2007798 L54.7384444,26.5087152 L32.6598888,26.5087152 L29.4152828,21.3001495 Z" id="形状结合" stroke="#000000" stroke-width="1.5"></path>
            <polygon id="路径" fill="#E8D7BC" points="32.2434747 27.2587152 28.9988687 22.0501495 28.9988687 31.4507798 53.9884444 31.4507798 53.9884444 27.2587152"></polygon>
            <polygon id="矩形" fill="#FFEECF" points="4.01155556 22.0501495 28.9988687 22.0501495 28.9988687 31.4507798 4.01155556 31.4507798"></polygon>
            <polygon id="矩形" stroke="#000000" stroke-width="1.5" fill="#94E8F4" points="1.22965657 31.4507798 56.7702303 31.4507798 56.7702303 35.9760323 1.22965657 35.9760323"></polygon>
        </g>
    </g>
</svg>