<?xml version="1.0" encoding="UTF-8"?>
<svg width="64px" height="64px" viewBox="0 0 64 64" version="1.1" xmlns="http://www.w3.org/2000/svg" xmlns:xlink="http://www.w3.org/1999/xlink">
    <title>bird</title>
    <g id="bird" stroke="none" stroke-width="1" fill="none" fill-rule="evenodd">
        <rect id="矩形-" x="0" y="1.13686838e-13" width="64" height="64"></rect>
        <g id="编组" transform="translate(6.464749, 3.000000)">
            <path d="M38.5198824,6.96813911 C36.6389824,7.02611046 34.8439331,7.78972523 33.4958693,9.1137161 L26.1941303,16.2301703 L24.9095619,17.4766 L15.5792403,26.6447605 L3.76741224,38.3093689 L2.06186501,39.9949865 L0.0653446987,43.6847376 C1.2530592,44.5595108 2.48871904,45.2873784 3.76145257,45.8703001 L-1.01545691,50.4832622 L0.200197814,51.7421096 C1.49501395,53.0829309 3.21072518,53.7719889 4.93793772,53.8021375 C6.66515026,53.8322861 8.40386411,53.2035253 9.74468547,51.9087092 L14.3134617,47.498493 C17.4608514,47.1196827 20.3913531,46.0067977 23.188535,44.1479567 L46.9166631,44.1419882 C47.3092282,44.1043196 47.6580218,43.9159355 47.9033997,43.6346256 C48.1333722,43.3709769 48.2727937,43.0262101 48.2727937,42.6488454 C48.2727937,42.2346319 48.1049005,41.8596319 47.8334539,41.5881852 C47.5620073,41.3167386 47.1870073,41.1488454 46.7727937,41.1488454 L36.9641468,41.148474 C39.2936897,39.6910366 41.2938623,37.7549675 42.8261912,35.4769412 C44.8759336,32.4297057 46.0890439,28.7708994 46.133866,24.8277056 L46.1997067,18.998842 L50.8676823,18.3488783 L46.2350479,13.9677786 C46.1147625,12.1272277 45.329309,10.4647288 44.1144153,9.22189825 C42.8263923,7.90425683 41.0558071,7.05846385 39.0841269,6.97190136 L38.5198824,6.96813911 Z" id="wb" stroke="#FFFFFF" stroke-width="1.5"></path>
            <path d="M14.577766,31.7389065 L9.077766,31.7389065 L9.327766,56.2389065 C10.7775135,56.2389065 12.0900135,55.6512802 13.0400766,54.7012171 C13.9901397,53.7511539 14.577766,52.4386539 14.577766,50.9889065 L14.577766,31.7389065 Z" id="矩形" stroke="#000000" stroke-width="1.5" fill="#E9F4F5" transform="translate(11.827766, 43.988906) rotate(46.000000) translate(-11.827766, -43.988906) "></path>
            <path d="M34.5469311,10.1838885 L3.27985369,40.8926162 C2.88582709,41.2796065 2.88012304,41.9127457 3.26711333,42.3067723 C3.45514107,42.4982188 3.71222192,42.6060644 3.9805616,42.6060644 L26.6351256,42.6060644 C36.496445,42.6060644 44.521877,34.6713387 44.6339629,24.8106563 L44.750791,14.5327754 C44.7884553,11.2192809 42.1328703,8.50262998 38.8193759,8.46496566 C37.2232778,8.4468229 35.6857381,9.06541771 34.5469311,10.1838885 Z" id="路径-" fill="#8497DD"></path>
            <path d="M33.0352513,37 C34.903217,37 36.6452631,37.5391256 38.1142774,38.4702645 C34.997207,41.0546095 30.9956493,42.6060644 26.6351256,42.6060644 L26.6351256,42.6060644 L24.367563,42.6056719 C25.8546683,39.3009155 29.176256,37 33.0352513,37 Z" id="形状结合" fill="#E9F4F5"></path>
            <circle id="椭圆形" fill="#000000" cx="38.0352513" cy="15.5" r="1.5"></circle>
            <path d="M34.5469311,10.1838885 L3.27985369,40.8926162 C2.88582709,41.2796065 2.88012304,41.9127457 3.26711333,42.3067723 C3.45514107,42.4982188 3.71222192,42.6060644 3.9805616,42.6060644 L26.6351256,42.6060644 C36.496445,42.6060644 44.521877,34.6713387 44.6339629,24.8106563 L44.750791,14.5327754 C44.7884553,11.2192809 42.1328703,8.50262998 38.8193759,8.46496566 C37.2232778,8.4468229 35.6857381,9.06541771 34.5469311,10.1838885 Z" id="路径-" stroke="#000000" stroke-width="1.5"></path>
            <path d="M1,42.5926955 C4.05686566,44.8251506 7.82426557,46.1427718 11.8994124,46.1427718 C22.1166803,46.1427718 30.3994124,37.8600397 30.3994124,27.6427718 C30.3994124,23.553925 29.072917,19.7748978 26.8267896,16.7125535 L1,42.5926955 Z" id="路径" fill="#ABBAF4"></path>
            <path d="M1.31955712,42.8362148 C4.30964168,44.9112834 7.98439129,46.1427718 11.8994124,46.1427718 C22.1166803,46.1427718 30.3994124,37.8600397 30.3994124,27.6427718 C30.3994124,23.8135069 29.2359968,20.2559722 27.2433546,17.3041994 C27.2186447,17.2676355 1.28894263,42.8149308 1.31955712,42.8362148 Z" id="路径" stroke="#000000" stroke-width="1.5"></path>
            <path d="M44.9159843,14 L49.2182842,17.8213033 C49.3421614,17.931331 49.3533886,18.1209484 49.2433609,18.2448256 C49.1864286,18.3089241 49.104793,18.3456028 49.0190614,18.3456028 L44.9159843,18.3456028 L44.9159843,18.3456028 L44.9159843,14 Z" id="路径-" fill="#000000"></path>
            <path d="M23.2256998,21.6240749 C23.2256998,32.4406584 17.8029282,38.1745325 3.95835847,40.3767468" id="路径-" stroke="#000000" stroke-width="1.5"></path>
            <line x1="22.9553322" y1="42.6488454" x2="46.7727937" y2="42.6488454" id="路径-" stroke="#000000" stroke-width="1.5" stroke-linecap="round"></line>
        </g>
    </g>
</svg>