<?xml version="1.0" encoding="UTF-8"?>
<svg width="64px" height="64px" viewBox="0 0 64 64" version="1.1" xmlns="http://www.w3.org/2000/svg" xmlns:xlink="http://www.w3.org/1999/xlink">
    <title>triangle</title>
    <g id="triangle" stroke="none" stroke-width="1" fill="none" fill-rule="evenodd">
        <rect id="Rectangle" x="0" y="0" width="64" height="64"></rect>
        <g id="set-square" transform="translate(11.666667, 5.333333)">
            <path d="M0.051986189,0.54352802 C-0.0781433929,0.771631628 -0.147362689,1.03489596 -0.139319728,1.33770513 L-0.139319728,48.6149274 C-0.139319728,49.815687 0.329248247,50.9054465 1.09440795,51.7120544 C1.86713682,52.5266416 2.94272759,53.052429 4.1447269,53.1113807 L12.8010458,53.1290238 L45.3324588,53.1669576 C45.6210474,53.1669581 45.8676833,53.0977236 46.0782766,52.9765858 C46.2945802,52.8521635 46.478023,52.670526 46.617568,52.4203738 C46.8564481,51.9924961 46.8954154,51.4240543 46.4823778,50.6806862 L2.42769479,0.229059161 C2.41410833,0.215313026 2.04420081,-0.116552732 1.54797278,-0.193910919 C1.32481182,-0.228700019 1.06057658,-0.357683306 0.051986189,0.54352802 Z" id="路径" stroke="#FFFFFF" stroke-width="1.5" fill-rule="nonzero"></path>
            <path d="M1.36068027,48.6149274 C1.36068027,50.2704453 2.70070428,51.6141581 4.36579227,51.6162089 L45.2364988,51.6665474 C45.289979,51.6666133 45.3014623,51.6301156 45.2620009,51.5848599 C45.2620009,51.5848599 1.36068027,1.23677559 1.36068027,1.2836085 L1.36068027,48.6149274 Z" id="Shape" fill="#FFC55D" fill-rule="nonzero"></path>
            <path d="M1.36068027,48.6149274 C1.36068027,50.2704453 2.69659917,51.6144672 4.36568577,51.6168939 C4.36568577,51.6168939 37.9804527,51.6666667 45.3333333,51.6666667 C45.6114157,51.6666667 1.36068027,1.23677559 1.36068027,1.2836085 L1.36068027,48.6149274 Z" id="Shape" stroke="#000000" stroke-width="1.5" fill-rule="nonzero"></path>
            <path d="M11.3786008,45.0751029 C11.7928144,45.0751029 12.1286008,45.4108893 12.1286008,45.8251029 L12.1286008,45.8251029 L12.1286008,50.9084362 L10.6286008,50.9084362 L10.6286008,45.8251029 C10.6286008,45.4108893 10.9643873,45.0751029 11.3786008,45.0751029 Z M27.0493827,45.0751029 C27.4635963,45.0751029 27.7993827,45.4108893 27.7993827,45.8251029 L27.7993827,45.8251029 L27.7993827,50.9084362 L26.2993827,50.9084362 L26.2993827,45.8251029 C26.2993827,45.4108893 26.6351692,45.0751029 27.0493827,45.0751029 Z M15.2962963,47.0195473 C15.7105099,47.0195473 16.0462963,47.3553338 16.0462963,47.7695473 L16.0462963,47.7695473 L16.0462963,50.9084362 L14.5462963,50.9084362 L14.5462963,47.7695473 C14.5462963,47.3553338 14.8820827,47.0195473 15.2962963,47.0195473 Z M30.9670782,47.0195473 C31.3812918,47.0195473 31.7170782,47.3553338 31.7170782,47.7695473 L31.7170782,47.7695473 L31.7170782,50.9084362 L30.2170782,50.9084362 L30.2170782,47.7695473 C30.2170782,47.3553338 30.5528646,47.0195473 30.9670782,47.0195473 Z M19.2139918,47.0195473 C19.6282053,47.0195473 19.9639918,47.3553338 19.9639918,47.7695473 L19.9639918,47.7695473 L19.9639918,50.9084362 L18.4639918,50.9084362 L18.4639918,47.7695473 C18.4639918,47.3553338 18.7997782,47.0195473 19.2139918,47.0195473 Z M34.8847737,47.0195473 C35.2989872,47.0195473 35.6347737,47.3553338 35.6347737,47.7695473 L35.6347737,47.7695473 L35.6347737,50.9084362 L34.1347737,50.9084362 L34.1347737,47.7695473 C34.1347737,47.3553338 34.4705601,47.0195473 34.8847737,47.0195473 Z M23.1316872,47.0195473 C23.5459008,47.0195473 23.8816872,47.3553338 23.8816872,47.7695473 L23.8816872,47.7695473 L23.8816872,50.9084362 L22.3816872,50.9084362 L22.3816872,47.7695473 C22.3816872,47.3553338 22.7174737,47.0195473 23.1316872,47.0195473 Z" id="形状结合" fill="#000000"></path>
            <path d="M7.02777778,45.0534979 C7.44199134,45.0534979 7.77777778,45.3892844 7.77777778,45.8034979 C7.77777778,46.2177115 7.44199134,46.5534979 7.02777778,46.5534979 L7.02777778,46.5534979 L1.94444444,46.5534979 L1.94444444,45.0534979 Z M5.08333333,41.1358025 C5.4975469,41.1358025 5.83333333,41.4715889 5.83333333,41.8858025 C5.83333333,42.300016 5.4975469,42.6358025 5.08333333,42.6358025 L5.08333333,42.6358025 L1.94444444,42.6358025 L1.94444444,41.1358025 Z M5.08333333,37.218107 C5.4975469,37.218107 5.83333333,37.5538934 5.83333333,37.968107 C5.83333333,38.3823206 5.4975469,38.718107 5.08333333,38.718107 L5.08333333,38.718107 L1.94444444,38.718107 L1.94444444,37.218107 Z M5.08333333,33.3004115 C5.4975469,33.3004115 5.83333333,33.636198 5.83333333,34.0504115 C5.83333333,34.4646251 5.4975469,34.8004115 5.08333333,34.8004115 L5.08333333,34.8004115 L1.94444444,34.8004115 L1.94444444,33.3004115 Z M7.02777778,29.382716 C7.44199134,29.382716 7.77777778,29.7185025 7.77777778,30.132716 C7.77777778,30.5469296 7.44199134,30.882716 7.02777778,30.882716 L7.02777778,30.882716 L1.94444444,30.882716 L1.94444444,29.382716 Z M5.08333333,25.4650206 C5.4975469,25.4650206 5.83333333,25.800807 5.83333333,26.2150206 C5.83333333,26.6292341 5.4975469,26.9650206 5.08333333,26.9650206 L5.08333333,26.9650206 L1.94444444,26.9650206 L1.94444444,25.4650206 Z M5.08333333,21.5473251 C5.4975469,21.5473251 5.83333333,21.8831115 5.83333333,22.2973251 C5.83333333,22.7115387 5.4975469,23.0473251 5.08333333,23.0473251 L5.08333333,23.0473251 L1.94444444,23.0473251 L1.94444444,21.5473251 Z M5.08333333,17.6296296 C5.4975469,17.6296296 5.83333333,17.9654161 5.83333333,18.3796296 C5.83333333,18.7938432 5.4975469,19.1296296 5.08333333,19.1296296 L5.08333333,19.1296296 L1.94444444,19.1296296 L1.94444444,17.6296296 Z M7.02777778,13.7119342 C7.44199134,13.7119342 7.77777778,14.0477206 7.77777778,14.4619342 C7.77777778,14.8761477 7.44199134,15.2119342 7.02777778,15.2119342 L7.02777778,15.2119342 L1.94444444,15.2119342 L1.94444444,13.7119342 Z" id="形状结合" fill="#000000"></path>
            <path d="M12.4543878,30.739208 L12.4543878,40.7567635 L21.1029222,40.7567635 L12.4543878,30.739208 Z" id="Shape" stroke="#000000" stroke-width="1.5" fill="#FFFFFF" fill-rule="nonzero"></path>
        </g>
    </g>
</svg>