<?xml version="1.0" encoding="UTF-8"?>
<svg width="64px" height="64px" viewBox="0 0 64 64" version="1.1" xmlns="http://www.w3.org/2000/svg" xmlns:xlink="http://www.w3.org/1999/xlink">
    <title>earphone</title>
    <g id="earphone" stroke="none" stroke-width="1" fill="none" fill-rule="evenodd">
        <rect id="Rectangle" x="0" y="0" width="64" height="64"></rect>
        <g id="Group" transform="translate(5.666667, 7.333333)" stroke-width="1.5">
            <path d="M27.2802897,0.185572413 C21.0104714,0.185572413 15.2320924,2.24460697 10.5598605,5.7505202 C9.9076809,6.3361898 9.50731668,7.18898607 9.51755987,8.37936106 C3.83349857,13.2667461 0.233333333,20.5108737 0.233333333,28.5958019 L0.258604044,35.6513107 C0.258599232,38.3329443 1.37566476,40.7576192 3.24087977,42.5013731 C4.98099785,44.1281761 7.37612531,45.1640479 10.1255087,45.2462033 C10.6723196,45.8186132 11.4727103,46.2013266 12.6817411,46.2013266 C13.5360566,46.2013266 14.3094941,45.8550469 14.8693527,45.2951882 C15.4292114,44.7353296 15.7754911,43.9618921 15.7754911,43.1075766 L15.7754911,28.1896712 C15.7754911,27.306092 15.4080627,26.5087377 14.7620948,25.9402122 C14.1793735,25.4273509 13.3602197,25.0959212 12.3624844,25.0959212 C11.5801222,25.0959212 10.8685315,25.3994263 9.56195792,26.0569073 C7.10876965,26.1683053 4.89029872,27.1712422 3.23587143,28.7441986 L3.23659412,28.1989227 C3.34959713,21.3267616 6.3939391,15.1676581 11.1730254,10.9189393 C11.6428518,11.1772261 12.1840898,11.3248967 12.7606951,11.3248967 C13.5190805,11.3248967 14.2163,11.0693936 14.7686299,10.6427396 C18.2598737,8.09447274 22.5903266,6.58692376 27.2802897,6.58692376 C31.9613788,6.58692376 36.2843171,8.0887733 39.7726898,10.6282728 C40.3285186,11.0635824 41.0329229,11.3248967 41.7998842,11.3248967 C42.1688612,11.3248967 42.523371,11.2643672 42.853935,11.152805 C47.5737675,15.47632 50.5333333,21.690418 50.533412,28.7638822 C48.8321074,27.1402093 46.4740989,26.1074669 43.6037423,26.0287643 C43.0569029,25.4565719 42.2566237,25.0740761 41.0479368,25.0740761 C40.1936213,25.0740761 39.4201838,25.4203559 38.8603252,25.9802145 C38.3004665,26.5400732 37.9541868,27.3135107 37.9541868,28.1678261 L37.9541868,43.0857315 C37.9541868,43.9693108 38.3216152,44.7666651 38.9675831,45.3351905 C39.5503044,45.8480518 40.3694582,46.1794815 41.3671935,46.1794815 C42.212939,46.1794815 42.9814579,45.8309958 43.9350585,45.2263319 C46.5379576,45.168555 48.8914707,44.1073218 50.6085827,42.4203414 C52.3771776,40.6827814 53.4710786,38.2818396 53.4710786,35.6267788 L53.5299109,28.164438 C53.4095199,20.5822316 50.1228194,13.7690284 44.9327176,8.99064075 C45.0112434,8.71458615 45.0532626,8.42420953 45.0532626,8.12422106 C45.0532626,7.12235356 44.5855142,6.22621325 43.8515371,5.63517485 L43.4255185,5.32529875 C38.8903231,2.09170268 33.3127723,0.185572413 27.2802897,0.185572413 Z M26.6284064,28.7342888 L22.8512672,34.9732137 L18.5461166,34.9797483 C18.1537776,35.0175411 17.8051969,35.2058802 17.5599346,35.4870577 C17.3299621,35.7507064 17.1905405,36.0954731 17.1905405,36.4728378 C17.1905405,36.8870514 17.3584338,37.2620514 17.6298804,37.533498 C17.901327,37.8049446 18.276327,37.9728378 18.6905405,37.9728378 L24.5428442,37.9728378 L26.1061828,35.3886595 L29.4996042,43.6922449 L31.4466017,37.9717391 L35.1903851,37.9659259 C35.5827179,37.9281297 35.9312928,37.7397918 36.1765519,37.458618 C36.4065244,37.1949693 36.5459459,36.8502025 36.5459459,36.4728378 C36.5459459,36.0586243 36.3780527,35.6836243 36.1066061,35.4121777 C35.8351595,35.1407311 35.4601595,34.9728378 35.0459459,34.9728378 L29.2439202,35.1355092 L26.6284064,28.7342888 Z" id="wb" stroke="#FFFFFF" fill-rule="nonzero"></path>
            <path d="M52.0333333,35.9313861 L52.0333333,28.5958019 C52.0333333,14.7058404 40.7732948,3.44580189 26.8833333,3.44580189 C12.9933719,3.44580189 1.73333333,14.7058404 1.73333333,28.5958019 L1.73333333,35.9313861" id="路径" stroke="#000000"></path>
            <rect id="Rectangle-" stroke="#000000" fill="#ED6969" x="10.7687344" y="26.5959212" width="3.50675676" height="18.1054054" rx="1.75337838"></rect>
            <path d="M10.7687344,27.5791052 C8.19449982,27.3564182 5.83917901,28.2932976 4.1836083,29.9140142 C2.68443208,31.3816288 1.75859923,33.409517 1.75859923,35.6486239 C1.75859923,37.8877309 2.68443208,39.915619 4.1836083,41.3832337 C5.83917901,43.0039502 8.19449982,43.9408296 10.7687344,43.7181426 L10.7687344,27.5791052 Z" id="Oval-" stroke="#000000" fill="#BDCFD1"></path>
            <path d="M51.9710786,27.5572601 C49.3968441,27.3345731 47.0415233,28.2714525 45.3859526,29.8921691 C43.8867764,31.3597837 42.9609435,33.3876719 42.9609435,35.6267788 C42.9609435,37.8658858 43.8867764,39.893774 45.3859526,41.3613886 C47.0415233,42.9821052 49.3968441,43.9189846 51.9710786,43.6962976 L51.9710786,27.5572601 Z" id="Oval-" stroke="#000000" fill="#BDCFD1" transform="translate(47.466011, 35.626779) scale(-1, 1) translate(-47.466011, -35.626779) "></path>
            <rect id="Rectangle-" stroke="#000000" fill="#ED6969" x="39.4541868" y="26.5740761" width="3.50675676" height="18.1054054" rx="1.75337838"></rect>
            <polyline id="Path-" stroke="#000000" stroke-linecap="round" points="18.6905405 36.4728378 23.6972973 36.4728378 26.3675676 32.0616216 29.3716216 39.4136486 30.372973 36.4728378 35.0459459 36.4728378"></polyline>
            <path d="M27.2802897,1.68557241 C21.364352,1.68557241 15.9101644,3.621904 11.5520403,6.89293978 C11.2173917,7.20168465 11.0073167,7.63862018 11.0073167,8.12422106 C11.0073167,8.59205571 11.2022845,9.01484322 11.5151978,9.32116888 C11.8339484,9.63320888 12.2746574,9.82489674 12.7606951,9.82489674 C13.1775035,9.82489674 13.5609174,9.68403958 13.8838172,9.43106834 C17.6223983,6.70272914 22.2585057,5.08692376 27.2802897,5.08692376 C32.3020736,5.08692376 36.938181,6.70272914 40.6978454,9.44703165 C40.9996619,9.68403958 41.3830758,9.82489674 41.7998842,9.82489674 C42.2859219,9.82489674 42.7266309,9.63320888 43.0453815,9.32116888 C43.3582948,9.01484322 43.5532626,8.59205571 43.5532626,8.12422106 C43.5532626,7.60403915 43.3123504,7.140104 42.9388552,6.82657983 C38.5865664,3.59931372 33.1616344,1.68557241 27.2802897,1.68557241 Z" id="Combined-Shape" stroke="#000000" fill="#E9F4F5"></path>
        </g>
    </g>
</svg>