<?xml version="1.0" encoding="UTF-8"?>
<svg width="64px" height="64px" viewBox="0 0 64 64" version="1.1" xmlns="http://www.w3.org/2000/svg" xmlns:xlink="http://www.w3.org/1999/xlink">
    <title>music</title>
    <g id="music" stroke="none" stroke-width="1" fill="none" fill-rule="evenodd">
        <rect id="Rectangle" x="0" y="0" width="64" height="64"></rect>
        <g id="编组" transform="translate(5.333333, 12.333333)">
            <path d="M49.6666667,-0.583333333 L3.66666667,-0.583333333 C2.63113276,-0.583333333 1.69363276,-0.163600286 1.01501624,0.515016237 C0.336399714,1.19363276 -0.0833333333,2.13113276 -0.0833333333,3.16666667 L-0.0833333333,38.6666667 C-0.0833333333,39.7022006 0.336399714,40.6397006 1.01501624,41.3183171 C1.69363276,41.9969336 2.63113276,42.4166667 3.66666667,42.4166667 L49.6666667,42.4166667 C50.7022006,42.4166667 51.6397006,41.9969336 52.3183171,41.3183171 C52.9969336,40.6397006 53.4166667,39.7022006 53.4166667,38.6666667 L53.4166667,3.16666667 C53.4166667,2.13113276 52.9969336,1.19363276 52.3183171,0.515016237 C51.6397006,-0.163600286 50.7022006,-0.583333333 49.6666667,-0.583333333 Z" id="形状结合" stroke="#FFFFFF" stroke-width="1.5"></path>
            <rect id="Rectangle-" stroke="#000000" stroke-width="1.5" fill="#E9F4F5" x="1.41666667" y="4.41666667" width="50.5" height="36.5" rx="3"></rect>
            <rect id="Rectangle-" stroke="#000000" stroke-width="1.5" fill="#E9F4F5" x="1.41666667" y="0.916666667" width="50.5" height="35.5" rx="3"></rect>
            <rect id="Rectangle" stroke="#000000" stroke-width="1.5" fill="#FFFFFF" x="40.2685185" y="7.88580247" width="8.77160494" height="10.0555556" rx="3.33333333"></rect>
            <circle id="Oval-" fill="#000000" cx="21.5666284" cy="18.4016882" r="14.7654321"></circle>
            <circle id="Oval--" fill="#ED6969" cx="21.6332018" cy="18.4315741" r="6.41975309"></circle>
            <circle id="Oval---" fill="#FFFFFF" cx="21.5666284" cy="18.4016882" r="1.92592593"></circle>
            <g id="编组-" transform="translate(37.128758, 3.851852)">
                <path d="M7.52556344,0 L7.52556344,19.7896644 C7.52556344,21.0005142 7.15920798,22.1830316 6.47464731,23.1817978 L4.95766221,25.3950617 L4.95766221,25.3950617" id="Path-" stroke="#000000" stroke-width="1.5" stroke-linecap="round"></path>
                <path d="M5.94741759,25.6622491 L5.96695738,25.6958646 C6.31505889,26.2947241 6.1117794,27.0623876 5.51291995,27.4104891 C5.46157675,27.4403336 5.40817869,27.4664937 5.35312879,27.488772 L2.36730742,28.6971147 L2.36730742,28.6971147 L1,26.0329701 L3.9221266,24.9389575 C4.68327659,24.6539912 5.53897878,24.9595879 5.94741759,25.6622491 Z" id="Path-" fill="#000000" transform="translate(3.846880, 26.571309) scale(-1, -1) rotate(-28.000000) translate(-3.846880, -26.571309) "></path>
            </g>
        </g>
    </g>
</svg>