<?xml version="1.0" encoding="UTF-8"?>
<svg width="64px" height="64px" viewBox="0 0 64 64" version="1.1" xmlns="http://www.w3.org/2000/svg" xmlns:xlink="http://www.w3.org/1999/xlink">
    <title>monkey</title>
    <g id="monkey" stroke="none" stroke-width="1" fill="none" fill-rule="evenodd">
        <rect id="矩形-" x="0" y="1.13686838e-13" width="64" height="64"></rect>
        <g id="编组-" transform="translate(6.798361, 6.234580)">
            <g id="编组" fill-rule="nonzero" stroke="#FFFFFF" stroke-width="1.5">
                <path d="M26.4839528,0.835208216 C25.3509293,-0.133910933 23.8402192,-0.564403813 22.3125895,-0.622290269 C20.1523053,-0.7041499 17.997281,-0.0374782685 16.9709115,0.693761861 C16.6286212,0.937627588 16.2521181,1.30248287 15.8789896,1.75723088 C16.2800115,1.80434374 16.7253717,1.89811111 17.2112383,2.02883508 C18.1438519,2.27975774 18.8790469,2.57357372 19.3590323,2.95743194 C16.3260799,3.96338661 13.62589,5.72975107 11.4732666,8.03869977 C9.22548143,10.449721 7.5749419,13.4522429 6.76624076,16.7960153 C4.97279035,16.7812585 3.50303064,17.0966035 2.35612472,17.7835937 C1.09391905,18.5396477 0.192573679,19.741206 -0.297204111,21.5189541 C-0.786116662,23.2935617 -0.331056178,25.414186 0.778110072,27.4248311 C1.83451339,29.3398299 3.47171201,31.1480541 5.32636666,32.4201794 C5.27427285,32.9377783 5.24765349,33.4616246 5.24765349,33.99091 C5.24765349,38.8511096 7.48947726,43.2573051 11.1319192,46.4444418 C14.735669,49.5977229 19.7124991,51.5546355 25.2133398,51.5546355 C30.7141804,51.5546355 35.6910105,49.5977229 39.2947603,46.4444418 C42.9372023,43.2573051 45.179026,38.8511096 45.179026,33.99091 C45.179026,33.4201007 45.1480648,32.8556152 45.0869825,32.2991768 C46.8996598,31.0134017 48.4902982,29.2204034 49.5121085,27.3310297 C50.5844534,25.3482151 51.0175394,23.2661289 50.5361847,21.5189541 C50.0515031,19.7597037 49.1748715,18.5674973 47.9480455,17.8109258 C46.8344625,17.1241903 45.4084957,16.7989834 43.6604101,16.7943559 C42.1523551,10.5624526 37.7200005,5.51806261 31.947738,3.2754547 C32.1788842,2.726773 32.5195689,2.14600156 32.9496832,1.50238929 C33.2248052,1.09070371 33.4901692,0.722660936 33.7552243,0.400044636 C33.2927732,0.366741473 32.8215294,0.34480033 32.3401332,0.335798253 C30.2497277,0.296707808 28.3415041,0.508586515 26.4839528,0.835208216 Z" id="形状结合"></path>
            </g>
            <path d="M9.51965376,18.5447928 C6.00423594,18.0086166 2.22579604,18.0086166 1.14891726,21.9173672 C0.0720384745,25.8261179 5.03802528,31.7969741 9.51965376,32.6680731 C14.0012822,33.5391722 13.0350716,19.080969 9.51965376,18.5447928 Z" id="路径-" stroke="#000000" stroke-width="1.5" fill="#FFEECF"></path>
            <path d="M46.2231896,18.5447928 C42.7077718,18.0086166 38.9293319,18.0086166 37.8524531,21.9173672 C36.7755743,25.8261179 41.7415611,31.7969741 46.2231896,32.6680731 C50.7048181,33.5391722 49.7386074,19.080969 46.2231896,18.5447928 Z" id="路径-" stroke="#000000" stroke-width="1.5" fill="#FFEECF" transform="translate(43.468242, 25.500016) scale(-1, 1) translate(-43.468242, -25.500016) "></path>
            <path d="M42.9706056,22.7941339 C41.1058542,22.3997064 38.2033917,24.4581889 42.9706056,28.530665 C46.1487483,31.245649 46.442094,30.2815941 43.8506429,25.6385002 C44.507119,24.0052076 44.2137733,23.0570855 42.9706056,22.7941339 Z" id="路径-" fill="#B6A689" transform="translate(42.985303, 26.389831) scale(-1, 1) translate(-42.985303, -26.389831) "></path>
            <path d="M7.2982333,22.7941339 C5.43348184,22.3997064 2.53101937,24.4581889 7.2982333,28.530665 C10.4763759,31.245649 10.7697217,30.2815941 8.17827053,25.6385002 C8.83474668,24.0052076 8.54140093,23.0570855 7.2982333,22.7941339 Z" id="路径-" fill="#B6A689"></path>
            <path d="M25.7167976,2.16843993 C24.8207706,1.26715788 23.5321341,0.924998444 22.2557908,0.87663398 C21.2397748,0.838134093 20.2174452,0.986283958 19.3699584,1.23354648 C20.3908791,1.74791351 21.0108232,2.38546119 21.2915282,3.09422418 C21.3921325,3.34824373 21.4547147,3.62543215 21.4755656,3.9259919 C21.2461468,3.9774383 21.0167635,4.0337055 20.7881123,4.09489572 C16.9848424,5.11270325 13.6863937,7.41168354 11.3533925,10.5136729 C9.06735,13.5532253 7.7084378,17.3642056 7.7084378,21.5007139 C7.7084378,23.3290617 7.97380347,25.093791 8.41215526,27.318403 C7.34411534,29.348965 6.74765349,31.6089359 6.74765349,33.99091 C6.74765349,38.4166746 8.80740761,42.4173418 12.1196762,45.3155768 C15.4706369,48.2476674 20.1016499,50.0546355 25.2133398,50.0546355 C30.3250296,50.0546355 34.9560426,48.2476674 38.3070034,45.3155768 C41.6192719,42.4173418 43.679026,38.4166746 43.679026,33.99091 C43.679026,31.6085494 43.082378,29.3482297 41.9594612,26.7555253 C42.4529703,25.0931463 42.7182417,23.3287279 42.7182417,21.5007139 C42.7182417,17.5799877 41.4974465,13.9517258 39.4233171,10.9957014 C37.297335,7.96577707 34.2750971,5.64172896 30.7536492,4.43586484 C30.5462397,4.36484074 30.3378207,4.29794303 30.1285079,4.2351549 C30.164595,3.98838494 30.2123899,3.75406396 30.272458,3.53116293 C30.4164008,2.99701853 30.654229,2.4415892 30.9810021,1.84601033 C29.3713823,1.90095393 27.8640122,2.10448996 25.7167976,2.16843993 Z" id="形状结合" stroke="#000000" stroke-width="1.5" fill="#A0745E"></path>
            <path d="M32.7864507,12.3732629 C33.2042886,12.3732629 33.6222237,12.4210413 34.0205302,12.5261538 C37.2369105,13.3574978 38.3252326,17.3708824 36.4498205,21.4893796 C36.2263258,21.9671635 35.9833967,22.4353917 35.7015991,22.8653972 C35.8959423,23.018288 36.0902855,23.1711789 36.2846287,23.3240697 C37.8491889,24.6236419 39.073454,26.1907731 39.8508269,27.9489222 C39.9965843,28.2738153 40.1229074,28.608264 40.2297962,28.9522684 C40.5893311,30.0130442 40.7739572,31.1215984 40.7739572,32.2682797 C40.7739572,32.6172146 40.75387,32.9596308 40.7192538,33.3009942 L40.7398822,33.3008199 C40.7398822,39.4863589 35.1245208,46.7182341 25.4014082,46.7182341 C15.7111244,46.7182341 10.1286402,40.0547526 10.0910536,33.3687728 L10.1065965,33.5105178 C10.0580106,33.0995281 10.0288592,32.688634 10.0288592,32.2682797 C10.0288592,31.1215984 10.2134852,30.0130442 10.5535859,28.9619196 C10.6701918,28.6178197 10.7965149,28.283371 10.9422723,27.9489222 C11.7196452,26.1811218 12.9634418,24.5948793 14.537622,23.2954027 C14.7125309,23.1520675 14.8971569,23.0087324 15.081783,22.8653972 C14.8097025,22.425836 14.5570563,21.9671635 14.3335616,21.4893796 C12.4581495,17.3708824 13.5464715,13.3574978 16.7628519,12.5261538 C17.1612555,12.4210413 17.5790934,12.3732629 17.9969313,12.3732629 C20.6497164,12.3732629 23.6134505,14.3512882 25.391691,17.323104 C27.1699315,14.3417326 30.1336657,12.3732629 32.7864507,12.3732629 Z" id="形状结合" fill="#FFEECF"></path>
            <path d="M20.4094182,20.0203218 C21.4706712,20.0203218 22.3309868,20.8806373 22.3309868,21.9418904 C22.3309868,23.0031434 21.4706712,23.863459 20.4094182,23.863459 C19.3481651,23.863459 18.4878496,23.0031434 18.4878496,21.9418904 C18.4878496,20.8806373 19.3481651,20.0203218 20.4094182,20.0203218 Z M30.0172613,20.0203218 C31.0785144,20.0203218 31.93883,20.8806373 31.93883,21.9418904 C31.93883,23.0031434 31.0785144,23.863459 30.0172613,23.863459 C28.9560083,23.863459 28.0956927,23.0031434 28.0956927,21.9418904 C28.0956927,20.8806373 28.9560083,20.0203218 30.0172613,20.0203218 Z" id="形状结合" fill="#000000"></path>
            <line x1="22.979402" y1="31.3860295" x2="21.4173853" y2="29.8180339" id="路径-" stroke="#000000" stroke-width="1.5" stroke-linecap="round"></line>
            <line x1="28.7441079" y1="31.3860295" x2="27.1820912" y2="29.8180339" id="路径-" stroke="#000000" stroke-width="1.5" stroke-linecap="round" transform="translate(27.963100, 30.602032) scale(-1, 1) translate(-27.963100, -30.602032) "></line>
            <line x1="15.5173178" y1="36.0875255" x2="34.8070172" y2="36.0875255" id="路径-" stroke="#000000" stroke-width="1.5" stroke-linecap="round"></line>
        </g>
    </g>
</svg>