<?xml version="1.0" encoding="UTF-8"?>
<svg width="64px" height="64px" viewBox="0 0 64 64" version="1.1" xmlns="http://www.w3.org/2000/svg" xmlns:xlink="http://www.w3.org/1999/xlink">
    <title>laugh</title>
    <g id="laugh" stroke="none" stroke-width="1" fill="none" fill-rule="evenodd">
        <rect id="Rectangle" x="0" y="0" width="64" height="64"></rect>
        <g id="Group" transform="translate(7.000000, 7.000000)">
            <circle id="Oval-" stroke="#FFFFFF" stroke-width="1.5" fill="#FBDC67" cx="25" cy="25" r="25.75"></circle>
            <path d="M48.672689,16.9412235 C49.5332091,19.4697498 50,22.1803625 50,25 C50,38.8071187 38.8071187,50 25,50 C12.5735931,50 2.26471863,40.9337662 0.327207794,29.0551299 L0.40137137,29.2731744 C3.816298,39.0145228 13.0923762,46 24,46 C37.8071187,46 49,34.8071187 49,21 C49,19.6192881 48.8880712,18.2647186 48.6727922,16.9448701 Z" id="Combined-Shape" fill="#F2CC5B"></path>
            <path d="M24.7058824,38.8235294 C31.855636,38.8235294 37.7640267,33.5086231 38.6956464,26.6142185 C38.7799782,25.9901255 38.6956464,24.7058824 37.0726103,24.7058824 C31.2144234,24.7058824 19.0042854,24.7058824 12.3333381,24.7058824 C10.709248,24.7058824 10.6294223,25.9550525 10.709248,26.5626597 C11.6183058,33.4821073 17.5383161,38.8235294 24.7058824,38.8235294 Z" id="Oval-" fill="#4C4023"></path>
            <path d="M24.7058824,31.7647059 C28.1699268,31.7647059 31.2454434,33.4281918 33.1771786,35.9999102 C30.8175297,37.7731277 27.8843733,38.8235294 24.7058824,38.8235294 C21.52724,38.8235294 18.5939556,37.7730276 16.2342676,36.0002628 C18.1663213,33.4281918 21.2418379,31.7647059 24.7058824,31.7647059 Z" id="Combined-Shape" fill="#E74643"></path>
            <path d="M30,18.448649 C30.7105713,16.7028302 32.1364746,14.0352277 35.49646,14.0003156 C38.8564453,13.9654034 40.6326904,16.8357648 40.9929199,18.448649" id="Path-" stroke="#4C4023" stroke-width="3" stroke-linecap="round"></path>
            <path d="M9,18.448649 C9.71057129,16.7028302 11.1364746,14.0352277 14.49646,14.0003156 C17.8564453,13.9654034 19.6326904,16.8357648 19.9929199,18.448649" id="Path--" stroke="#4C4023" stroke-width="3" stroke-linecap="round"></path>
        </g>
    </g>
</svg>