<?xml version="1.0" encoding="UTF-8"?>
<svg width="64px" height="64px" viewBox="0 0 64 64" version="1.1" xmlns="http://www.w3.org/2000/svg" xmlns:xlink="http://www.w3.org/1999/xlink">
    <title>smile</title>
    <g id="smile" stroke="none" stroke-width="1" fill="none" fill-rule="evenodd">
        <rect id="Rectangle" x="0" y="0" width="64" height="64"></rect>
        <circle id="Oval-" stroke="#FFFFFF" stroke-width="1.5" fill="#FBDC67" cx="32" cy="32" r="25.75"></circle>
        <path d="M55.672689,23.9412235 C56.5332091,26.4697498 57,29.1803625 57,32 C57,45.8071187 45.8071187,57 32,57 C19.5735931,57 9.26471863,47.9337662 7.32720779,36.0551299 L7.40137137,36.2731744 C10.816298,46.0145228 20.0923762,53 31,53 C44.8071187,53 56,41.8071187 56,28 C56,26.6192881 55.8880712,25.2647186 55.6727922,23.9448701 Z" id="Combined-Shape" fill="#F2CC5B"></path>
        <g id="Group" transform="translate(17.000000, 21.000000)" fill="#4C4023">
            <g>
                <path d="M25.7529449,14.4879797 C26.7275651,14.4879797 27.5176508,15.2780654 27.5176508,16.2526855 C27.5176508,16.5905266 27.4227154,16.9061942 27.2580668,17.1744664 C24.9116989,21.7175904 20.1715061,24.8235294 14.7058824,24.8235294 C9.25600269,24.8235294 4.52738067,21.7354583 2.17435936,17.2136592 C1.99395199,16.9374673 1.88936121,16.6072906 1.88936121,16.2526855 C1.88936121,15.2780654 2.67944695,14.4879797 3.6540671,14.4879797 C4.33826616,14.4879797 4.93152175,14.877355 5.2243299,15.4466016 L5.23341414,15.442139 C6.97176953,18.9120697 10.5606474,21.2941176 14.7058824,21.2941176 C18.8511173,21.2941176 22.4399952,18.9120697 24.1783506,15.442139 C24.4768534,14.8764609 25.0695319,14.4879797 25.7529449,14.4879797 Z" id="Combined-Shape"></path>
                <circle id="Oval-" cx="4.11764706" cy="3.64705882" r="3.52941176"></circle>
                <circle id="Oval--" cx="25.2941176" cy="3.64705882" r="3.52941176"></circle>
            </g>
        </g>
    </g>
</svg>