<?xml version="1.0" encoding="UTF-8"?>
<svg width="64px" height="64px" viewBox="0 0 64 64" version="1.1" xmlns="http://www.w3.org/2000/svg" xmlns:xlink="http://www.w3.org/1999/xlink">
    <title>briefcase</title>
    <g id="briefcase" stroke="none" stroke-width="1" fill="none" fill-rule="evenodd">
        <rect id="Rectangle" x="0" y="0" width="64" height="64"></rect>
        <g id="suitcase" transform="translate(9.000000, 9.333333)">
            <path d="M28.5595238,-0.75 C29.6871052,-0.75 30.7079385,-0.292957349 31.4468765,0.445980643 C32.1858145,1.18491864 32.6428571,2.20575197 32.642857,3.33372021 L32.642857,3.33372021 L32.642387,4.24502129 L47.75,4.24544985 L47.75,38.6285714 C47.75,39.6242439 47.361929,40.5292606 46.7288634,41.2007039 C46.0870467,41.8814289 45.1932909,42.3217609 44.1968362,42.3734762 L44.1968362,42.3734762 L3,42.3785714 C2.00432755,42.3785714 1.09931082,41.9905005 0.427867491,41.3574349 C-0.252855054,40.7156204 -0.693186339,39.8218687 -0.744904216,38.8254182 L-0.744904216,38.8254182 L-0.750112977,4.24544985 L14.3570645,4.24502127 L14.3571429,3.33333333 C14.3571429,2.20575197 14.8141855,1.18491864 15.5531235,0.445980643 C16.2920615,-0.292957349 17.3128948,-0.75 18.4404762,-0.75 L18.4404762,-0.75 Z M28.5286338,2.25 L18.4404762,2.25 C18.1591123,2.25 17.9028239,2.35874503 17.7124514,2.54911749 C17.5123922,2.74917673 17.3872425,3.03304343 17.3571402,3.36425251 L17.3570645,4.245 L29.6423868,4.245 L29.6428572,3.33294646 C29.6428571,3.05196941 29.5341121,2.79568103 29.3437397,2.60530858 C29.1436863,2.40525521 28.8598304,2.28010698 28.5286338,2.25 Z" id="wb" stroke="#FFFFFF" stroke-width="1.5"></path>
            <rect id="wb" fill="#FFFFFF" x="18" y="2" width="11" height="3"></rect>
            <path d="M46.2640645,14.7397235 L46.2640645,7.68303883 L0.735935547,7.68303883 L0.735935547,14.7397235 C0.735935547,18.2039726 3.54749023,21.0123424 7.01566797,21.0123424 L39.984332,21.0123424 C43.4525098,21.0123424 46.2640645,18.2039726 46.2640645,14.7397235 Z" id="Shape" fill="#55606E" fill-rule="nonzero"></path>
            <rect id="Rectangle" stroke="#000000" stroke-width="1.5" x="15.8571429" y="0.75" width="15.2857143" height="8.49085714" rx="3.33333333"></rect>
            <path d="M44,10.4575064 L3,10.4575064 C2.37867966,10.4575064 1.81617966,10.7093462 1.40900974,11.1165162 C1.00183983,11.5236861 0.75,12.0861861 0.75,12.7075064 L0.75,40.8785714 L46.25,40.8785714 L46.25,12.7075064 C46.25,12.0861861 45.9981602,11.5236861 45.5909903,11.1165162 C45.1838203,10.7093462 44.6213203,10.4575064 44,10.4575064 Z" id="Rectangle--" stroke="#000000" stroke-width="1.5" fill="#8497DD" transform="translate(23.500000, 25.668039) scale(1, -1) translate(-23.500000, -25.668039) "></path>
            <path d="M46.25,5.74542857 L0.75,5.74542857 L0.75,14.9801905 C0.75,16.6140329 1.41224547,18.0931995 2.48295154,19.1639056 C3.55365762,20.2346117 5.03282428,20.8968571 6.66666667,20.8968571 L40.3333333,20.8968571 C41.9671757,20.8968571 43.4463424,20.2346117 44.5170485,19.1639056 C45.5877545,18.0931995 46.25,16.6140329 46.25,14.9801905 L46.25,5.74542857 Z" id="Rectangle-" stroke="#000000" stroke-width="1.5" fill="#8497DD"></path>
            <path d="M29.5633776,24.3639578 L17.4366224,24.3639578 L17.4366224,30.4213164 C17.4366224,32.1107066 18.1280988,33.6386259 19.2752368,34.738185 C20.3932743,35.8098506 21.9470596,36.4767364 23.7493655,36.4736339 C25.3691604,36.4080345 26.8253361,35.7078779 27.875144,34.6150894 C28.9207804,33.5266431 29.5633776,32.0489317 29.5633776,30.4213164 L29.5633776,24.3639578 Z" id="Shape" stroke="#000000" stroke-width="1.5" fill="#FFC55D" fill-rule="nonzero"></path>
            <path d="M23.5,12.4215918 C22.642698,12.4215918 21.86661,12.7687433 21.3048211,13.3298957 C20.7427244,13.8913557 20.3951348,14.6670296 20.3951348,15.5237894 L20.3951348,28.7322256 L23.5,31.8335737 L26.6048652,28.7322256 L26.6048652,15.5237894 C26.6048652,14.6670296 26.2572756,13.8913557 25.6951789,13.3298957 C25.13339,12.7687433 24.357302,12.4215918 23.5,12.4215918 Z" id="Shape" stroke="#000000" stroke-width="1.5" fill="#FFC55D" fill-rule="nonzero"></path>
            <path d="M23.5,24.9817275 C23.9064766,24.9817275 24.2359355,25.310905 24.2359355,25.7168294 L24.2359355,25.7168294 L24.2359355,26.5008953 C24.2359355,26.9069114 23.9063848,27.2359972 23.5,27.2359972 C23.0935234,27.2359972 22.7640645,26.9068197 22.7640645,26.5008953 L22.7640645,26.5008953 L22.7640645,25.7168294 C22.7640645,25.3108133 23.0936152,24.9817275 23.5,24.9817275 Z M23.5,14.7886875 C23.9064766,14.7886875 24.2359355,15.117865 24.2359355,15.5237894 L24.2359355,15.5237894 L24.2359355,16.3078553 C24.2359355,16.7138714 23.9063848,17.0429572 23.5,17.0429572 C23.0936152,17.0429572 22.7640645,16.7138714 22.7640645,16.3078553 L22.7640645,16.3078553 L22.7640645,15.5237894 C22.7640645,15.1177733 23.0936152,14.7886875 23.5,14.7886875 Z" id="形状结合" fill="#000000" fill-rule="nonzero"></path>
        </g>
    </g>
</svg>