<?xml version="1.0" encoding="UTF-8"?>
<svg width="64px" height="64px" viewBox="0 0 64 64" version="1.1" xmlns="http://www.w3.org/2000/svg" xmlns:xlink="http://www.w3.org/1999/xlink">
    <title>statueOfLiberty</title>
    <g id="statueOfLiberty" stroke="none" stroke-width="1" fill="none" fill-rule="evenodd">
        <rect id="矩形-" x="0" y="0" width="64" height="64"></rect>
        <g id="编组" transform="translate(21.000000, 2.000000)" stroke-width="1.5">
            <path d="M5,-0.75 C4.03229568,-0.75 3.15631705,-0.357355142 2.52259289,0.279206572 C2.02926309,0.774745288 1.68257513,1.41828366 1.5545247,2.13974349 C0.983689203,2.31312573 0.479289496,2.63909806 0.0891056761,3.07050091 C-0.432332864,3.64702424 -0.75,4.41140109 -0.75,5.25 C-0.75,6.02931249 -0.475600188,6.74449105 -0.0183931508,7.3044335 C0.317731378,7.71608595 0.752876753,8.04354431 1.25056595,8.25094784 L1.25001103,46 L-0.75,46 L-0.75,60.5 L22.75,60.5 L22.75,46 L20.75,46 L20.75,34.4486961 L27.7175577,27.4822764 L22.767703,22.5324216 L20.5260233,24.7746422 C20.1104262,22.9737529 19.1390616,21.385622 17.8020882,20.2014898 C18.1509198,19.6160232 18.4137404,18.9734086 18.5731341,18.2910447 L22.408089,18.2908958 L22.408089,15.2910378 L18.5916465,15.2904637 C18.3804496,14.3326024 17.9659354,13.4510296 17.3955235,12.6934465 L20.0130896,10.0758468 L17.8918925,7.95464959 L15.0952116,10.7500674 C14.5966753,10.4924067 14.0619318,10.2950278 13.5006272,10.1675581 L13.4998219,6.77629283 L10.5000312,6.77629283 L10.49989,10.1674352 C9.87994364,10.308161 9.29238288,10.5341572 8.75022715,10.8324817 L8.75039804,8.25054577 C9.24789495,8.04303365 9.68285265,7.71554371 10.0188184,7.30391264 C10.47577,6.74404746 10.75,6.02907089 10.75,5.25 C10.75,4.43271183 10.4489126,3.68475433 9.94546738,3.08921551 C9.54708575,2.61795917 9.02081052,2.24328014 8.42173165,2.01035656 C8.26970141,1.30447531 7.90508751,0.677626266 7.39789152,0.200456396 C6.77149096,-0.388861098 5.92792846,-0.75 5,-0.75 Z" id="wb" stroke="#FFFFFF"></path>
            <path d="M7.25,6.5 L2.75,6.5 L2.75,48 L19.25,48 L19.25,26.75 C19.25,24.7479678 18.4385161,22.9354678 17.1265242,21.6234758 C15.8145322,20.3114839 14.0020322,19.5 12,19.5 L8.31282952,19.5 L7.25,18.0818198 L7.25,6.5 Z" id="形状结合" stroke="#000000" fill="#E9F4F5"></path>
            <rect id="矩形" stroke="#000000" fill="#FFFFFF" transform="translate(21.000000, 29.250000) rotate(-315.000000) translate(-21.000000, -29.250000) " x="19" y="24.75" width="4" height="9"></rect>
            <path d="M21.25,47.5 L0.75,47.5 L0.75,59 L21.25,59 L21.25,47.5 Z" id="矩形" stroke="#000000" fill="#B2CCCF"></path>
            <circle id="椭圆形" stroke="#000000" fill="#FFFFFF" cx="12" cy="16.75" r="5.25"></circle>
            <line x1="12" y1="11.8041533" x2="12" y2="7.52629283" id="路径-" stroke="#000000"></line>
            <line x1="17.3802285" y1="16.790925" x2="21.658089" y2="16.790925" id="路径-" stroke="#000000"></line>
            <line x1="15.3971986" y1="12.5704242" x2="18.4221028" y2="9.54552008" id="路径-" stroke="#000000"></line>
            <line x1="19.6273387" y1="27.7983293" x2="2.85594798" y2="44.56972" id="路径-" stroke="#000000"></line>
            <line x1="9.65849687" y1="21.6975078" x2="2.85594798" y2="28.5000567" id="路径-" stroke="#000000"></line>
            <rect id="矩形" stroke="#000000" fill="#E9F4F5" x="0.75" y="3.5" width="8.5" height="3.5" rx="1.75"></rect>
            <circle id="椭圆形" stroke="#000000" fill="#FFC55D" cx="5" cy="2.75" r="2"></circle>
            <path d="M12,11.8041533 C11.7473975,14.7678185 10.0807308,16.4300758 7,16.790925" id="路径-" stroke="#000000"></path>
            <path d="M17,11.8041533 C16.7473975,14.7405352 15.0807308,16.3891508 12,16.75" id="路径-" stroke="#000000" transform="translate(14.500000, 14.277077) scale(-1, 1) translate(-14.500000, -14.277077) "></path>
            <line x1="2.85594798" y1="35.3320612" x2="10.3896799" y2="27.7983293" id="路径-" stroke="#000000"></line>
            <line x1="7" y1="52.6981662" x2="7" y2="58.6569836" id="路径-" stroke="#000000"></line>
            <line x1="15" y1="52.6981662" x2="15" y2="58.6569836" id="路径-" stroke="#000000"></line>
        </g>
    </g>
</svg>