<?xml version="1.0" encoding="UTF-8"?>
<svg width="64px" height="64px" viewBox="0 0 64 64" version="1.1" xmlns="http://www.w3.org/2000/svg" xmlns:xlink="http://www.w3.org/1999/xlink">
    <title>bug</title>
    <g id="bug" stroke="none" stroke-width="1" fill="none" fill-rule="evenodd">
        <rect id="矩形-" x="0" y="1.13686838e-13" width="64" height="64"></rect>
        <g id="编组-" transform="translate(3.000000, 7.000000)">
            <path d="M37.7081533,1.02510303 C37.4626195,0.691507477 37.1051139,0.489015655 36.725593,0.431306189 C36.3460721,0.373596724 35.9445357,0.460669615 35.6109402,0.70620349 C34.0980785,1.81970391 32.7944018,3.25079578 31.8562834,4.72667624 C30.9610364,4.41795085 30.000136,4.25 29,4.25 C28.1041572,4.25 27.2397946,4.38476798 26.4260747,4.63486969 C25.4911409,3.19144131 24.2101926,1.79656939 22.7287627,0.70620349 C22.3951672,0.460669615 21.9936308,0.373596724 21.6141099,0.431306189 C21.2345889,0.489015655 20.8770834,0.691507477 20.6315496,1.02510303 C20.3860157,1.35869858 20.2989428,1.76023493 20.3566523,2.13975587 C20.4143617,2.51927681 20.6168535,2.87678232 20.9504491,3.1223162 C22.051603,3.93279042 23.0139372,4.95606673 23.7370102,6.00859182 C21.6192516,7.60557864 20.25,10.1429454 20.25,13 C20.25,13.2647671 20.2617817,13.5267858 20.2849231,13.785271 C19.720716,14.1218401 19.1755491,14.4901026 18.6516641,14.8878181 L14.3751515,12.8650073 L13.8700512,6.34153872 L10.2011984,2.63114423 L8.06781219,4.74064499 L10.96413,7.66802624 L11.516783,14.8317979 L16.2553691,17.072523 C15.6449257,17.7375816 15.0806395,18.450394 14.5680357,19.2051973 L8.89640283,19.2052357 L4.84065081,28.1827755 L2.08420865,28.1828793 L2.08420865,31.182851 L6.77636593,31.182851 L10.8334284,22.2051779 L12.9058212,22.2053463 C11.8437938,24.6102107 11.25,27.2934725 11.25,30.1236364 C11.25,31.1185691 11.3234059,32.0953539 11.4647282,33.0482626 L7.79019636,40.8289088 L4.62198302,40.828269 L4.62198302,43.8284204 L9.69046974,43.8284204 L12.6776394,37.503096 C13.7715756,40.1998059 15.4463527,42.5698245 17.5342509,44.4377803 C20.1968189,46.8198692 23.530694,48.3859019 27.1914334,48.7774592 L28.9995197,43.1966224 L30.8052872,48.7778096 C34.4706924,48.3864768 37.8085387,46.8176904 40.4731172,44.4311847 C42.5624729,42.5598721 44.2375475,40.1855312 45.330034,37.4841506 L48.3329908,43.8429856 L53.4014801,43.8429856 L53.4014801,40.8428341 L50.2335249,40.843474 L46.5394261,33.0201109 C46.6780323,32.0761189 46.75,31.1087738 46.75,30.1236364 C46.75,27.2933527 46.1561554,24.6099839 45.0940717,22.2051201 L47.1666588,22.2051616 L51.2236292,31.182851 L55.9157914,31.182851 L55.9157914,28.1825799 L53.1591305,28.1835762 L49.1036192,19.2052182 L43.4320167,19.2053855 C42.9209595,18.4528908 42.3585327,17.7421509 41.750214,17.0788805 L46.4924527,14.8352827 L47.0451375,7.67160205 L49.9414149,4.74422391 L47.8080321,2.63472655 L44.1391776,6.34512275 L43.634119,12.8685322 L39.3538056,14.8925831 C38.8283061,14.4934151 38.2813607,14.123909 37.7151701,13.7863461 C37.7381982,13.5272805 37.75,13.2650177 37.75,13 C37.75,10.2446895 36.4765733,7.78671822 34.4848414,6.18359034 C35.2200336,5.06940454 36.2274367,3.97743987 37.3892538,3.1223162 C37.7228493,2.87678232 37.9253412,2.51927681 37.9830506,2.13975587 C38.0407601,1.76023493 37.9536872,1.35869858 37.7081533,1.02510303 Z" id="wb" stroke="#FFFFFF" stroke-width="1.5" fill-rule="nonzero"></path>
            <polyline id="路径-" stroke="#000000" stroke-width="1.5" transform="translate(43.105481, 10.726955) rotate(-8.000000) translate(-43.105481, -10.726955) " points="37 16.4539109 44.6194161 14.0783352 46.0950337 7.37563882 49.2109612 5"></polyline>
            <polyline id="路径-" stroke="#000000" stroke-width="1.5" transform="translate(47.877388, 35.800727) scale(1, -1) translate(-47.877388, -35.800727) " points="43.1054806 42.3386098 49.2812595 29.2628442 52.6492946 29.2628442"></polyline>
            <polyline id="路径-" stroke="#000000" stroke-width="1.5" transform="translate(48.635441, 24.755854) scale(1, -1) rotate(-16.000000) translate(-48.635441, -24.755854) " points="41 26.7802852 47.0381863 28.5117073 53.4121486 21 56.2708812 21.8197284"></polyline>
            <polyline id="路径-" stroke="#000000" stroke-width="1.5" transform="translate(14.894519, 10.726955) scale(-1, 1) rotate(-8.000000) translate(-14.894519, -10.726955) " points="8.7890388 16.4539109 16.4084549 14.0783352 17.8840725 7.37563882 21 5"></polyline>
            <polyline id="路径-" stroke="#000000" stroke-width="1.5" transform="translate(10.122612, 35.800727) scale(-1, -1) translate(-10.122612, -35.800727) " points="5.35070538 42.3386098 11.5264842 29.2628442 14.8945194 29.2628442"></polyline>
            <polyline id="路径-" stroke="#000000" stroke-width="1.5" transform="translate(9.364559, 24.755854) scale(-1, -1) rotate(-16.000000) translate(-9.364559, -24.755854) " points="1.72911882 26.7802852 7.76730516 28.5117073 14.1412675 21 17 21.8197284"></polyline>
            <circle id="椭圆形" stroke="#000000" stroke-width="1.5" fill="#000000" cx="29" cy="13" r="7.25"></circle>
            <path d="M29,12.8736364 C24.5173571,12.8736364 20.4612953,14.8010753 17.5244446,17.910682 C14.5725196,21.0362496 12.75,25.3550654 12.75,30.1236364 C12.75,34.463018 14.259153,38.4297644 16.7552629,41.4640859 C19.1402749,44.3633546 22.4269419,46.4114416 26.1548308,47.1102136 L29.0004803,38.3268358 L31.8424656,47.1107201 C35.5709695,46.412525 38.8582689,44.3646034 41.2437793,41.4652501 C43.7404609,38.4307792 45.25,34.463573 45.25,30.1236364 C45.25,25.3550654 43.4274804,21.0362496 40.4755554,17.910682 C37.5387047,14.8010753 33.4826429,12.8736364 29,12.8736364 Z" id="形状结合" stroke="#000000" stroke-width="1.5" fill="#ED6969"></path>
            <circle id="椭圆形" fill="#000000" cx="35" cy="23" r="3"></circle>
            <circle id="椭圆形-" fill="#000000" cx="22.5" cy="37.5" r="2.5"></circle>
            <circle id="椭圆形" fill="#000000" cx="23.5" cy="25.5" r="5.5"></circle>
            <circle id="椭圆形-" fill="#000000" cx="36.5" cy="34.5" r="3.5"></circle>
            <path d="M26.5,8.5 C26.1040139,6.54300065 24.4249305,3.81711729 21.8396059,1.91425984" id="路径" stroke="#000000" stroke-width="1.5" stroke-linecap="round"></path>
            <path d="M36.5,8.5 C36.1040139,6.54300065 34.4249305,3.81711729 31.8396059,1.91425984" id="路径" stroke="#000000" stroke-width="1.5" stroke-linecap="round" transform="translate(34.169803, 5.207130) scale(-1, 1) translate(-34.169803, -5.207130) "></path>
        </g>
    </g>
</svg>