<?xml version="1.0" encoding="UTF-8"?>
<svg width="64px" height="64px" viewBox="0 0 64 64" version="1.1" xmlns="http://www.w3.org/2000/svg" xmlns:xlink="http://www.w3.org/1999/xlink">
    <title>grape</title>
    <g id="grape" stroke="none" stroke-width="1" fill="none" fill-rule="evenodd">
        <rect id="Rectangle" x="0" y="0" width="64" height="64"></rect>
        <g id="Group-" transform="translate(6.000000, 8.000000)" fill-rule="nonzero">
            <path d="M6.83497067,23.4687982 C5.40816498,24.837382 4.52006689,26.7631761 4.52006689,28.8963211 C4.52006689,30.9729302 5.36177905,32.8529469 6.72264349,34.2138114 C8.08350793,35.5746758 9.96352465,36.416388 12.0401338,36.416388 C13.4553414,36.416388 14.7791978,36.025397 15.9096438,35.3455186 C16.4099203,36.5719601 17.2243412,37.6370558 18.2534152,38.4400857 C19.5287326,39.4352697 21.1331992,40.0284281 22.8762542,40.0284281 C24.1555273,40.0284281 25.3601311,39.7089079 26.4141756,39.1453566 C26.7757105,40.5982615 27.5595761,41.8845093 28.6282996,42.8655492 C29.9669157,44.0943383 31.7520307,44.8444816 33.7123746,44.8444816 C34.2481424,44.8444816 34.7708048,44.7883638 35.2748489,44.6823674 C36.6531796,46.2575959 38.6786714,47.2525084 40.9364548,47.2525084 C43.013064,47.2525084 44.8930807,46.4107962 46.2539451,45.0499318 C47.6148096,43.6890673 48.4565217,41.8090506 48.4565217,39.7324415 C48.4565217,37.2875003 47.2897819,35.1150328 45.4827152,33.7430735 C46.5869506,32.434104 47.2525084,30.7429276 47.2525084,28.8963211 C47.2525084,26.8197119 46.4107962,24.9396952 45.0499318,23.5788308 C43.6890673,22.2179663 41.8090506,21.3762542 39.7324415,21.3762542 C39.4037261,21.3762542 39.0799431,21.3973779 38.7624172,21.4383637 C38.8032847,21.1208356 38.8244147,20.7969986 38.8244147,20.4682274 C38.8244147,18.5054492 38.0724931,16.7182797 36.8402624,15.3792793 C37.3395047,14.3730578 37.6204013,13.2394153 37.6204013,12.0401338 C37.6204013,9.96352465 36.7786892,8.08350793 35.4178247,6.72264349 C34.0569603,5.36177905 32.1769436,4.52006689 30.1003344,4.52006689 C28.3457235,4.52006689 26.7314511,5.12094447 25.4527665,6.12855569 C24.7703849,3.41479757 23.2397995,1.15651356 21.827664,-0.219660691 C21.6745045,-0.368919824 21.5109359,-0.519304261 21.3375341,-0.669595136 C21.1649249,-0.538247282 20.9931465,-0.400632269 20.8220072,-0.256968731 C19.2864393,1.03206928 18.22155,2.45613424 17.6127788,4.0067958 C16.3184659,2.94578167 14.9695604,2.05852992 13.5666953,1.34454821 C13.4044376,1.26196793 13.2407308,1.18133542 13.0755748,1.10265193 C12.9192844,1.23789718 12.7776092,1.38096946 12.651697,1.53120292 C11.7886852,2.56091432 11.3863511,4.26093899 11.5435708,6.22436894 C9.837885,5.02192274 7.93880623,4.00752826 5.76959762,3.1198963 C5.28400835,2.921195 4.76385016,2.93812868 4.31541396,3.12613501 C3.86697777,3.31414133 3.49026356,3.67322029 3.29156227,4.15880957 C3.09286097,4.64439884 3.10979465,5.16455703 3.29780098,5.61299323 C3.4858073,6.06142942 3.84488626,6.43814363 4.33047554,6.63684492 C6.671756,7.59488804 8.6418135,8.70863151 10.3772471,10.1027369 C7.44835106,9.7057299 4.63238345,10.3907662 2.77001377,11.2886225 C2.57734308,11.3815098 2.38009784,11.4838008 2.17961078,11.5953666 C2.24393165,11.8023167 2.31451345,12.0108592 2.39100079,12.2208707 C3.07710514,14.1047094 4.05107489,15.592437 5.30000812,16.6948522 C3.86029986,17.5482203 2.56520309,18.5123189 1.41447163,19.5863848 C1.28137616,19.710613 1.14961536,19.8368691 1.01919038,19.9651537 C1.0929118,20.1583951 1.17885185,20.3404069 1.27692185,20.5100415 C2.11999592,21.9683321 4.20307575,23.1062014 6.83497067,23.4687982 Z" id="wb" stroke="#FFFFFF" stroke-width="1.5" fill="#543D24"></path>
            <path d="M18.904421,18.0731344 C15.4123119,11.4757525 11.6474185,7.57799436 5.05003658,4.87837061" id="Path-" stroke="#543D24" stroke-width="2.3" stroke-linecap="round" stroke-linejoin="round"></path>
            <path d="M15.7238974,13.7908915 C12.1506584,9.92017663 11.369931,4.22815635 13.2265102,2.01295987 C14.891435,2.86031564 16.4771896,3.96076113 17.983774,5.31429635 C18.4346644,3.46281224 19.5414787,1.79720161 21.3042172,0.317464465 C23.197246,2.16228574 25.3172032,5.6873171 25.0432431,9.73910431 C24.769283,13.7908915 19.2971363,17.6616064 15.7238974,13.7908915 Z" id="Path-" fill="#7CB061"></path>
            <path d="M6.33679025,22.9636785 C2.76355133,19.0929636 1.98282391,13.4009434 3.83940313,11.1857469 C5.50432788,12.0331026 7.09008248,13.1335481 8.59666693,14.4870834 C9.04755725,12.6355992 10.1543716,10.9699886 11.9171101,9.49025147 C13.8101389,11.3350727 15.9300961,14.8601041 15.656136,18.9118913 C15.3821759,22.9636785 9.91002918,26.8343934 6.33679025,22.9636785 Z" id="Path-" fill="#8BCB76" transform="translate(9.273002, 17.026358) rotate(-70.000000) translate(-9.273002, -17.026358) "></path>
            <circle id="Oval" stroke="#000000" stroke-width="1.5" fill="#9E7ACC" cx="30.1003344" cy="12.0401338" r="6.02006689"></circle>
            <circle id="Oval" stroke="#000000" stroke-width="1.5" fill="#675289" cx="22.8762542" cy="14.4481605" r="6.02006689"></circle>
            <circle id="Oval" stroke="#000000" stroke-width="1.5" fill="#8266AA" cx="31.3043478" cy="20.4682274" r="6.02006689"></circle>
            <circle id="Oval" stroke="#000000" stroke-width="1.5" fill="#675289" cx="12.0401338" cy="28.8963211" r="6.02006689"></circle>
            <circle id="Oval" stroke="#000000" stroke-width="1.5" fill="#9E7ACC" cx="13.2441472" cy="19.264214" r="6.02006689"></circle>
            <circle id="Oval" stroke="#000000" stroke-width="1.5" fill="#9E7ACC" cx="22.8762542" cy="32.5083612" r="6.02006689"></circle>
            <circle id="Oval" stroke="#000000" stroke-width="1.5" fill="#675289" cx="40.9364548" cy="39.7324415" r="6.02006689"></circle>
            <circle id="Oval" stroke="#000000" stroke-width="1.5" fill="#C0A8E7" cx="39.7324415" cy="28.8963211" r="6.02006689"></circle>
            <circle id="Oval" stroke="#000000" stroke-width="1.5" fill="#8266AA" cx="33.7123746" cy="37.3244147" r="6.02006689"></circle>
            <circle id="Oval" stroke="#000000" stroke-width="1.5" fill="#675289" cx="31.3043478" cy="30.1003344" r="6.02006689"></circle>
            <circle id="Oval" stroke="#000000" stroke-width="1.5" fill="#C0A8E7" cx="21.6722408" cy="24.0802676" r="6.02006689"></circle>
        </g>
    </g>
</svg>