<?xml version="1.0" encoding="UTF-8"?>
<svg width="64px" height="64px" viewBox="0 0 64 64" version="1.1" xmlns="http://www.w3.org/2000/svg" xmlns:xlink="http://www.w3.org/1999/xlink">
    <title>apple</title>
    <g id="apple" stroke="none" stroke-width="1" fill="none" fill-rule="evenodd">
        <rect id="Rectangle" x="0" y="0" width="64" height="64"></rect>
        <g id="Group-" transform="translate(8.500000, 5.000000)">
            <path d="M32.5670569,-0.53461646 C30.0965658,-0.53461646 27.84403,0.397530939 26.1425507,1.92871514 C24.9873887,2.96826106 24.086425,4.28401012 23.5435508,5.7717046 C23.2104084,5.18161113 22.8347779,4.65336007 22.4196026,4.19797012 C21.1402983,2.79475006 19.5802263,2.1207684 17.8505728,2.17437899 C16.225872,2.22473657 14.4268682,2.93598303 12.5615077,4.385096 C12.1471724,4.70697402 11.9025291,5.16632242 11.8419391,5.64878511 C11.7813492,6.13124781 11.9048125,6.63682481 12.2266905,7.05116004 C12.5485685,7.46549527 13.0079169,7.71013857 13.4903796,7.77072856 C13.9728423,7.83131855 14.4784193,7.70785522 14.8927546,7.3859772 C15.9969169,6.52820415 16.9389584,6.05481342 17.7634363,5.97703062 C18.4963416,5.90788695 19.0995231,6.1965897 19.6114686,6.75812312 C20.6649149,7.91360809 21.3307894,10.0338847 21.548267,12.5870387 C20.5481446,12.2093548 19.5394365,11.911826 18.5261517,11.6994799 C13.176543,10.576383 8.61505414,11.7772482 5.38032275,14.7016006 C2.1636266,17.6096484 0.239405521,22.2572458 0.239405521,28.1485252 C0.239405521,33.4599108 1.36788744,38.2442894 3.4127584,42.1851641 C5.49846338,46.2047342 8.53718625,49.3506061 12.3128595,51.3007466 C14.3597779,52.3624186 16.790789,52.3721853 19.371215,50.9575608 C20.4792315,50.3450195 21.5157744,50.0795303 22.9083133,50.0795303 C24.3936217,50.0795303 25.4787689,50.3794755 26.6448485,51.069828 C28.8252545,52.3538495 31.4849258,52.3937378 33.6650623,51.161703 C37.2598233,49.125545 40.2638169,45.7513372 42.3540348,41.5581356 C44.4011094,37.4514842 45.5721689,32.5597595 45.566634,27.3759693 C45.3922967,21.0672334 43.0754825,16.4115164 39.3383771,13.8051362 C35.8053982,11.3411206 30.9612721,10.6806034 25.3137013,12.306603 C25.2800567,11.8491293 25.2325886,11.3998255 25.1714545,10.9607404 C25.3534915,10.9709557 25.5369855,10.9761996 25.7217072,10.9761996 C28.3738414,10.9761996 30.7748233,9.90202491 32.5127932,8.16539216 C34.2509828,6.42853983 35.3260112,4.02907594 35.3260112,1.37870773 C35.3260112,1.03238495 35.307216,0.69066507 35.2714263,0.353821571 C35.2529591,0.180013287 35.2297954,0.00588644426 35.2017012,-0.168470245 C35.0319201,-0.216700947 34.8614624,-0.260035528 34.6906153,-0.298563693 C34.0073939,-0.452638736 33.2968049,-0.53461646 32.5670569,-0.53461646 Z" id="wb" stroke="#FFFFFF" stroke-width="1.5" fill="#000000" fill-rule="nonzero"></path>
            <path d="M18.2179602,13.1674779 C13.346204,12.1447013 9.22924546,13.2134881 6.32261784,15.8723282 C3.45061545,18.4994948 1.73940552,22.7179619 1.73940552,28.1485252 C1.73940552,33.2611935 2.8162152,37.7377825 4.68657766,41.3822243 C6.6719007,45.2506693 9.5518622,48.186422 13.0012157,49.968018 C14.6983372,50.8482593 16.7204703,50.7904103 18.3626778,49.8067385 C19.6854061,49.025083 21.0210988,48.5795303 22.9083133,48.5795303 C24.7667555,48.5795303 26.1014976,49.0049849 27.4090132,49.7790715 C29.1198264,50.7865503 31.2081011,50.8272265 32.9270746,49.8558033 C36.2551067,47.9707265 39.0494734,44.822775 41.0072577,40.9951869 C42.957183,37.1829637 44.0772211,32.6990364 44.0772211,28.1485252 C44.0772211,21.9093379 41.9309488,17.3538218 38.31313,14.9213045 C34.7563733,12.5298435 29.7161259,12.1510885 23.6845076,14.4290445 L22.8401205,14.7777646 C21.3682754,14.0614407 19.8191521,13.5030272 18.2179602,13.1674779 Z" id="Shape" stroke="#000000" stroke-width="1.5" fill="#ED6969"></path>
            <path d="M8.07617823,18.65349 C10.9171198,20.6227229 13.4869043,24.1565094 14.7198191,27.5887511 C15.9527339,31.0209929 17.6888749,23.5857781 14.7198191,19.9689283 C11.7507633,16.3520786 5.23523666,16.6842571 8.07617823,18.65349 Z" id="路径-" fill="#FFFFFF" opacity="0.5" transform="translate(11.866476, 22.835747) rotate(-119.000000) translate(-11.866476, -22.835747) "></path>
            <path d="M23.4740597,13.9847245 C23.4740597,7.10198396 20.1669717,0.882719984 13.7271311,5.8855366" id="Path-" stroke="#543D24" stroke-width="2.3" stroke-linecap="round"></path>
            <path d="M22.3387506,14.437499 C24.4713492,15.5144214 29.1514864,17.7077865 30.0585645,16.5024237" id="Shape" stroke="#000000" stroke-width="1.5" stroke-linecap="round"></path>
            <path d="M33.9322605,10.6019835 C33.6215109,10.6349559 33.3060628,10.6523705 32.986666,10.6523705 C28.1000446,10.6523705 24.1390242,6.68826163 24.1390242,1.79816686 C24.1390242,1.12511951 24.2145998,0.469737708 24.3567039,-0.160400428 C24.6675035,-0.193422959 24.9828016,-0.21078739 25.3023484,-0.21078739 C30.1887199,-0.21078739 34.1498402,3.75332149 34.1498402,8.64351663 C34.1498402,9.31656398 34.0744146,9.97194578 33.9322605,10.6019835 L33.9322605,10.6019835 Z" id="Shape" fill="#8BCB76" fill-rule="nonzero" transform="translate(29.144432, 5.220792) rotate(-270.000000) translate(-29.144432, -5.220792) "></path>
        </g>
    </g>
</svg>