<?xml version="1.0" encoding="UTF-8"?>
<svg width="64px" height="64px" viewBox="0 0 64 64" version="1.1" xmlns="http://www.w3.org/2000/svg" xmlns:xlink="http://www.w3.org/1999/xlink">
    <title>storage</title>
    <g id="storage" stroke="none" stroke-width="1" fill="none" fill-rule="evenodd">
        <rect id="Rectangle" x="0" y="0" width="64" height="64"></rect>
        <path d="M46.5157884,9.91666667 L14,9.91666667 C12.8724186,9.91666667 11.8515853,10.3737093 11.1126473,11.1126473 C10.3737093,11.8515853 9.91666667,12.8724186 9.91666667,14 L9.91666667,51.3333333 C9.91666667,52.4609147 10.3737093,53.481748 11.1126473,54.220686 C11.8515853,54.959624 12.8724186,55.4166667 14,55.4166667 L51.3333333,55.4166667 C52.4609147,55.4166667 53.481748,54.959624 54.220686,54.220686 C54.959624,53.481748 55.4166667,52.4609147 55.4166667,51.3333333 L55.4166667,18.817545 L46.5157884,9.91666667 Z" id="wb" stroke="#FFFFFF" stroke-width="1.5"></path>
        <path d="M45.894468,11.4166667 L14,11.4166667 C13.2866322,11.4166667 12.6407989,11.7058161 12.1733075,12.1733075 C11.7058161,12.6407989 11.4166667,13.2866322 11.4166667,14 L11.4166667,51.3333333 C11.4166667,52.0467011 11.7058161,52.6925345 12.1733075,53.1600259 C12.6407989,53.6275172 13.2866322,53.9166667 14,53.9166667 L51.3333333,53.9166667 C52.0467011,53.9166667 52.6925345,53.6275172 53.1600259,53.1600259 C53.6275172,52.6925345 53.9166667,52.0467011 53.9166667,51.3333333 L53.9166667,19.4388653 L45.894468,11.4166667 Z" id="Rectangle-" stroke="#000000" stroke-width="1.5" fill="#07EBF5"></path>
        <rect id="Rectangle" stroke="#000000" stroke-width="1.5" fill="#F0ECFF" x="19.4166667" y="34.0833333" width="25.1666667" height="19.8333333"></rect>
        <rect id="Rectangle-" stroke="#000000" stroke-width="1.5" fill="#FFDC64" x="19.4166667" y="11.4166667" width="25.1666667" height="13.1666667"></rect>
        <rect id="Rectangle-" fill="#000000" x="33.3333333" y="13.3333333" width="1.5" height="8" rx="0.75"></rect>
        <rect id="Rectangle-" fill="#000000" x="38.6666667" y="13.3333333" width="1.5" height="8" rx="0.75"></rect>
        <rect id="Rectangle-" fill="#000000" x="24" y="48" width="17.3333333" height="1.5" rx="0.75"></rect>
        <rect id="Rectangle-" fill="#000000" x="24" y="43.4" width="17.3333333" height="1.5" rx="0.75"></rect>
        <rect id="Rectangle-" fill="#000000" x="24" y="38.6666667" width="17.3333333" height="1.5" rx="0.75"></rect>
    </g>
</svg>