<?xml version="1.0" encoding="UTF-8"?>
<svg width="64px" height="64px" viewBox="0 0 64 64" version="1.1" xmlns="http://www.w3.org/2000/svg" xmlns:xlink="http://www.w3.org/1999/xlink">
    <title>awkward</title>
    <g id="awkward" stroke="none" stroke-width="1" fill="none" fill-rule="evenodd">
        <rect id="Rectangle-" x="0" y="0" width="64" height="64"></rect>
        <path d="M32,6.25 C24.8893338,6.25 18.4518338,9.13216692 13.7920004,13.7920004 C9.13216692,18.4518338 6.25,24.8893338 6.25,32 C6.25,39.1106662 9.13216692,45.5481662 13.7920004,50.2079996 C18.4518338,54.8678331 24.8893338,57.75 32,57.75 C39.1106662,57.75 45.5481662,54.8678331 50.2079996,50.2079996 C54.8643075,45.5516917 57.7500894,39.1207404 57.746961,31.5177641 C57.745203,31.3303034 57.7433793,31.1446368 57.7439964,30.9590445 C59.2380466,30.323825 60.3947344,29.1874986 61.0806357,27.8156324 C61.8417124,26.2934085 62.0229856,24.4815105 61.4435582,22.7434456 C60.7435214,20.6435585 55.9824243,16.1451965 51.7768201,12.7635689 C51.4808569,12.5255918 51.1789015,12.286115 50.8724958,12.0464471 C50.771592,12.4220912 50.6740317,12.7948772 50.5801623,13.1625067 C50.5126963,13.4267297 50.4456266,13.6942042 50.3792166,13.9641576 C45.7067854,9.20359548 39.1982977,6.25 32,6.25 Z" id="wb" stroke="#FFFFFF" stroke-width="1.5"></path>
        <g id="编组" transform="translate(7.000000, 7.000000)">
            <circle id="Oval-" fill="#FBDC67" cx="25" cy="25" r="25"></circle>
            <path d="M48.672689,16.9412235 C49.5332091,19.4697498 50,22.1803625 50,25 C50,38.8071187 38.8071187,50 25,50 C12.5735931,50 2.26471863,40.9337662 0.327207794,29.0551299 L0.40137137,29.2731744 C3.816298,39.0145228 13.0923762,46 24,46 C37.8071187,46 49,34.8071187 49,21 C49,19.6192881 48.8880712,18.2647186 48.6727922,16.9448701 Z" id="Combined-Shape" fill="#F2CC5B"></path>
            <path d="M24.6031261,40.7934692 C33.0745221,40.7934692 40.0750875,34.4960947 41.1789185,26.3272494 C41.2788391,25.5877919 40.9595002,23.615548 39.2558618,24.0661545 C35.9485984,24.9409143 34.2924848,25.7759384 24.5999353,25.7759384 C14.9073858,25.7759384 13.5951406,24.6923787 9.94349903,24.0661545 C8.12170325,23.7537327 7.92461185,25.5462355 8.01919351,26.2661599 C9.09629196,34.4646775 16.1106248,40.7934692 24.6031261,40.7934692 Z" id="Oval-" fill="#4C4023"></path>
            <path d="M38.8063982,26.6546943 C35.5377473,27.5343149 30.8120083,27.9741252 24.6291813,27.9741252 C18.4463543,27.9741252 13.774535,27.5343149 10.6137232,26.6546943 C10.1287619,26.6546943 11.1314608,28.9126453 11.9127041,29.4412098 C12.6939474,29.9697742 16.0646014,32.2277253 24.7210382,32.2277253 C33.3774751,32.2277253 36.5689218,30.0230454 37.5074173,29.4412098 C38.4459129,28.8593741 39.3200461,26.6546943 38.8063982,26.6546943 Z" id="Combined-Shape" fill="#FFFFFF"></path>
            <path d="M30,18.448649 C30.7105713,16.7028302 32.1364746,14.0352277 35.49646,14.0003156 C38.8564453,13.9654034 40.6326904,16.8357648 40.9929199,18.448649" id="Path-" stroke="#4C4023" stroke-width="3" stroke-linecap="round"></path>
            <path d="M9,18.448649 C9.71057129,16.7028302 11.1364746,14.0352277 14.49646,14.0003156 C17.8564453,13.9654034 19.6326904,16.8357648 19.9929199,18.448649" id="Path--" stroke="#4C4023" stroke-width="3" stroke-linecap="round"></path>
            <path d="M48.5943106,23.401634 C47.0210486,23.3311662 45.5696453,22.6523782 44.5069829,21.4902433 C44.255479,21.2151853 44.0026125,20.7986076 43.7516926,20.2753549 C43.716848,20.1836689 43.6765529,20.0945135 43.6286659,20.0102246 C43.4725466,19.6621682 43.3174006,19.2751792 43.1640066,18.853151 C43.1513536,18.8111039 43.1353912,18.7700301 43.1198183,18.7293456 C42.1605217,16.0410571 41.2769487,12.0648817 40.6806976,8.56796524 C45.7290739,9.90198708 51.7593275,11.9486682 53.2089789,13.5341939 C55.4024355,15.9332141 55.2352204,19.66976 52.8360056,21.8632166 C51.6740654,22.9256843 50.1683513,23.4724911 48.5943106,23.401634 Z" id="Path" fill="#69CDFF" transform="translate(47.715697, 15.987858) rotate(-336.000000) translate(-47.715697, -15.987858) "></path>
        </g>
    </g>
</svg>