<?xml version="1.0" encoding="UTF-8"?>
<svg width="64px" height="64px" viewBox="0 0 64 64" version="1.1" xmlns="http://www.w3.org/2000/svg" xmlns:xlink="http://www.w3.org/1999/xlink">
    <title>trend</title>
    <g id="trend" stroke="none" stroke-width="1" fill="none" fill-rule="evenodd">
        <rect id="Rectangle" x="0" y="0" width="64" height="64"></rect>
        <g id="编组" transform="translate(10.000000, 8.666667)">
            <path d="M46.75,43.8863636 L-0.75,43.8863636 L-0.75,46.8863636 L46.75,46.8863636 L46.75,43.8863636 Z M14.3863636,21.0681818 L4.70454545,21.0681818 L4.70454545,41.6590909 L14.3863636,41.6590909 L14.3863636,21.0681818 Z M28.0227273,14.25 L18.3409091,14.25 L18.3409091,41.6590909 L28.0227273,41.6590909 L28.0227273,14.25 Z M37.6291415,0.96706452 C37.2066793,0.564646912 36.6596875,0.378568179 36.1221723,0.402789728 C35.5980634,0.426407161 35.0829643,0.649965392 34.7011022,1.06786648 L28.0680951,8.32687667 C27.7733933,8.6493915 27.6099825,9.07047319 27.6099825,9.50735414 C27.6099825,9.99060329 27.8058579,10.4281033 28.1225456,10.744791 C28.4392333,11.0614787 28.8767333,11.2573541 29.3599825,11.2573541 L31.1800056,11.2573541 L31.1809434,41.6590909 L41.0357774,41.6590909 L41.0350016,11.2573541 L42.8691799,11.2573541 C43.2968856,11.2573541 43.7097837,11.1007208 44.0298759,10.8170429 C44.3915365,10.4965255 44.5890434,10.0597596 44.6160057,9.61270789 C44.6429681,9.16565617 44.499386,8.70831865 44.1788687,8.34665808 L37.6291415,0.96706452 Z" id="形状结合" stroke="#FFFFFF" stroke-width="1.5"></path>
            <polygon id="Rectangle-" fill="#000000" points="0 44.6363636 46 44.6363636 46 46.1363636 0 46.1363636"></polygon>
            <rect id="Rectangle-" stroke="#000000" stroke-width="1.5" fill="#FFDC64" x="6.20454545" y="22.5681818" width="6.68181818" height="17.5909091"></rect>
            <rect id="Rectangle--" stroke="#000000" stroke-width="1.5" fill="#ED6969" x="19.8409091" y="15.75" width="6.68181818" height="24.4090909"></rect>
            <path d="M36.1896969,1.9012691 C36.0490823,1.90760548 35.910885,1.96758452 35.8084342,2.07970432 L29.1754271,9.3387145 C29.1333269,9.38478805 29.1099825,9.44494257 29.1099825,9.50735414 C29.1099825,9.57638973 29.1379647,9.63888973 29.1832058,9.68413083 C29.2284469,9.72937193 29.2909469,9.75735414 29.3599825,9.75735414 L32.6799593,9.75735414 L32.6808971,40.1590909 L39.5357392,40.1590909 L39.5349633,9.75735414 L42.8691799,9.75735414 C42.9302807,9.75735414 42.9892662,9.73497795 43.0349936,9.69445253 C43.0866594,9.64866434 43.1148747,9.5862692 43.1187264,9.52240467 C43.1225782,9.45854014 43.1020665,9.39320621 43.0562783,9.34154041 L36.1896969,1.9012691 Z" id="Combined-Shape" stroke="#000000" stroke-width="1.5" fill="#8497DD"></path>
        </g>
    </g>
</svg>