<?xml version="1.0" encoding="UTF-8"?>
<svg width="64px" height="64px" viewBox="0 0 64 64" version="1.1" xmlns="http://www.w3.org/2000/svg" xmlns:xlink="http://www.w3.org/1999/xlink">
    <title>train</title>
    <g id="train" stroke="none" stroke-width="1" fill="none" fill-rule="evenodd">
        <rect id="矩形" x="0" y="0" width="64" height="64"></rect>
        <g id="编组" transform="translate(3.500000, 16.162799)">
            <path d="M12.6538067,-0.75 L-0.75,-0.75 L-0.75,31.8246004 L1.10558221,31.8371835 L58.0233991,31.8303491 C58.4159877,31.7926934 58.7648034,31.6043046 59.0101933,31.3229809 C59.2401658,31.0593322 59.3795873,30.7145655 59.3795873,30.3372008 C59.3795873,29.9229872 59.2116941,29.5479872 58.9402475,29.2765406 C58.6688009,29.005094 58.2938009,28.8372008 57.8795873,28.8372008 L54.4823251,28.8375892 C55.0403581,28.1101146 55.4166113,27.260772 55.6055388,26.297582 C55.9081776,24.7546687 55.7198639,22.8997422 54.9761637,20.7704238 C53.5322225,16.6362167 51.425129,12.8140576 48.2956805,9.60506425 C43.9088777,5.10675702 38.125082,2.5536297 30.8094657,2.58752949 L16.4297245,2.60733577 L15.7472699,1.11272982 C15.4427845,0.537183834 14.9895397,0.0681739156 14.4478475,-0.255234992 C13.9159841,-0.572775756 13.2989064,-0.75 12.6538067,-0.75 Z" id="wb" stroke="#FFFFFF" stroke-width="1.5" fill-rule="nonzero"></path>
            <path d="M15.5,4.18589267 L14.4755704,1.92466553 C14.151548,1.20944982 13.4389971,0.75 12.6538067,0.75 L0.75,0.75 L0.75,0.75 L0.75,4.18589267" id="路径-" stroke="#000000" stroke-width="1.5" fill="#FFC55D"></path>
            <path d="M30.8164165,4.08751339 C24.3451522,4.11750055 14.3230133,4.11692735 0.75,4.08580688 L1.24654627,30.3284168 C28.3403712,30.301102 43.3151118,30.300983 46.1707676,30.3281274 C49.7021209,30.3616947 51.9690817,29.5262227 53.1697892,28.0751343 C54.4288914,26.5534742 54.6146673,24.2845343 53.5600528,21.2650243 C52.4147569,17.985881 49.9054661,12.3677186 44.7389709,8.45749885 C41.3570701,5.89793484 36.8402489,4.05959959 30.8164165,4.08751339 Z" id="Path" stroke="#000000" stroke-width="1.5" fill-rule="nonzero"></path>
            <path d="M1.5,4.83750534 C14.6942568,4.8669414 24.4675541,4.8669414 30.8198919,4.83750534 C45.5881851,4.76907063 51.0141206,16.2502249 52.8519973,21.5123246 C54.6898739,26.7744243 52.665154,29.639826 46.1778964,29.5781613 C43.3306819,29.5510971 28.4380498,29.5510971 1.5,29.5781613 L1.5,4.83750534 Z" id="Path" fill="#E9F4F5" fill-rule="nonzero"></path>
            <path d="M1.5,21.8372008 C33.9262717,21.8372008 51.0773735,21.8372008 52.9533053,21.8372008 C53.9771793,24.8372008 53.4504829,26.7424011 52.3791933,27.8372008 C51.1875224,27.8372008 34.2277913,27.8372008 1.5,27.8372008 L1.5,21.8372008 Z" id="Rectangle" fill="#07EBF5" fill-rule="nonzero"></path>
            <path d="M15.5,8.83720075 C16.7122573,8.83720075 20.3786611,8.83720075 26.4992115,8.83720075 C35.9737784,8.83720075 41.9735156,11.8372008 44.498423,17.8372008 L15.5,17.8372008 L15.5,8.83720075 Z" id="Rectangle" fill="#000000" fill-rule="nonzero"></path>
            <path d="M20.5585143,10.8372008 L30.620213,10.8372008 C31.200112,10.8372008 31.670213,11.3073018 31.670213,11.8872008 L31.670213,11.9025854 C31.670213,12.4824844 31.200112,12.9525854 30.620213,12.9525854 L20.5928272,12.9525854 C20.0290242,12.9525854 19.5658577,12.507323 19.5436426,11.9439577 L19.5417079,11.8948931 C19.5195637,11.3333264 19.956852,10.8601352 20.5184187,10.837991 C20.5317774,10.8374642 20.5451452,10.8372008 20.5585143,10.8372008 Z" id="Rectangle" fill="#FFFFFF" fill-rule="nonzero" opacity="0.5"></path>
            <path d="M10.1655829,26.8372008 L28.8344171,26.8372008 C31.2633729,26.8372008 33.4527072,28.3016497 34.3799857,30.5466398 L34.5,30.8372008 L34.5,30.8372008 L4.5,30.8372008 L4.6200143,30.5466398 C5.54729284,28.3016497 7.73662706,26.8372008 10.1655829,26.8372008 Z" id="Rectangle" fill="#000000" fill-rule="nonzero"></path>
            <polygon id="Rectangle" fill="#000000" fill-rule="nonzero" points="1.5 8.83720075 12.5 8.83720075 12.5 17.8372008 1.5 17.8372008"></polygon>
            <path d="M1.5,10.8372008 L5.45,10.8372008 C6.02989899,10.8372008 6.5,11.3073018 6.5,11.8872008 L6.5,11.9025854 C6.5,12.4824844 6.02989899,12.9525854 5.45,12.9525854 L1.55816823,12.9525854 L1.55816823,12.9525854 L1.5,10.8372008 Z" id="Rectangle" fill="#FFFFFF" fill-rule="nonzero" opacity="0.5"></path>
            <line x1="1.11066801" y1="30.3372008" x2="57.8795873" y2="30.3372008" id="路径-" stroke="#000000" stroke-width="1.5" stroke-linecap="round"></line>
        </g>
    </g>
</svg>