<?xml version="1.0" encoding="UTF-8"?>
<svg width="64px" height="65px" viewBox="0 0 64 65" version="1.1" xmlns="http://www.w3.org/2000/svg" xmlns:xlink="http://www.w3.org/1999/xlink">
    <title>weary</title>
    <g id="weary" stroke="none" stroke-width="1" fill="none" fill-rule="evenodd" transform="translate(0.000000, 1.000000)">
        <rect id="Rectangle--" x="0" y="0" width="64" height="64"></rect>
        <circle id="Oval-" stroke="#FFFFFF" stroke-width="1.5" fill="#FBDC67" cx="32" cy="32" r="25.75"></circle>
        <g id="编组-" transform="translate(32.000000, 20.000000) scale(1, -1) translate(-32.000000, -20.000000) translate(17.000000, 15.000000)" stroke="#4C4023" stroke-linecap="round" stroke-width="2">
            <path d="M1,2 C3.86279297,2 9.24072266,5.44726562 11.1240234,8.31542969" id="Path-" transform="translate(6.062012, 5.157715) rotate(-15.000000) translate(-6.062012, -5.157715) "></path>
            <path d="M19,2 C21.862793,2 27.2407227,5.44726562 29.1240234,8.31542969" id="Path--" transform="translate(24.062012, 5.157715) scale(-1, 1) rotate(-15.000000) translate(-24.062012, -5.157715) "></path>
        </g>
        <g id="编组" transform="translate(32.000000, 39.500000) scale(1, -1) translate(-32.000000, -39.500000) translate(17.000000, 32.000000)">
            <path d="M14.6498172,14.817767 C22.1245783,14.817767 28.3015478,9.26126003 29.2755163,2.05345532 C29.3636815,1.40099288 29.0819119,-0.339222323 27.5787016,0.0583716385 C24.660528,0.830218485 23.1992513,1.56700444 14.6470017,1.56700444 C6.09475215,1.56700444 4.93688879,0.61092241 1.71485209,0.0583716385 C0.107385224,-0.217294698 -0.0665189542,1.36432548 0.0169354496,1.99955284 C0.967316439,9.23353897 7.15643363,14.817767 14.6498172,14.817767 Z" id="Oval-" fill="#4C4023"></path>
            <path d="M23.7576166,7.86090026 C21.6689542,8.93746419 18.6485874,9.47574615 14.6965162,9.47574615 C10.7444449,9.47574615 7.75787994,8.93746419 5.73682122,7.86090026 C5.42683328,7.86090026 6.06775973,9.30418557 6.56713151,9.64204468 C7.0665033,9.97990378 9.22202529,12.194653 14.7552312,12.194653 C20.2884372,12.194653 22.3274187,10.0139548 22.9273063,9.64204468 C23.5271939,9.27013455 24.085941,7.86090026 23.7576166,7.86090026 Z" id="Combined-Shape" fill="#FFFFFF"></path>
        </g>
        <path d="M55.672689,23.9412235 C56.5332091,26.4697498 57,29.1803625 57,32 C57,45.8071187 45.8071187,57 32,57 C19.5735931,57 9.26471863,47.9337662 7.32720779,36.0551299 L7.40137137,36.2731744 C10.816298,46.0145228 20.0923762,53 31,53 C44.8071187,53 56,41.8071187 56,28 C56,26.6192881 55.8880712,25.2647186 55.6727922,23.9448701 Z" id="Combined-Shape" fill="#F2CC5B"></path>
        <g id="编组" transform="translate(13.000000, 24.000000)" fill="#4C4023">
            <path d="M29.5555556,5.91666667 C34.4602261,5.91666667 36.9444444,7.23923031 36.9444444,6.40089247 C36.9444444,5.56255463 34.3464346,2.22222222 29.4417641,2.22222222 C24.5370936,2.22222222 22.1666667,5.52912647 22.1666667,6.40089247 C22.1666667,7.27265847 24.650885,5.91666667 29.5555556,5.91666667 Z" id="Oval---" transform="translate(29.555556, 4.457707) scale(1, -1) rotate(-15.000000) translate(-29.555556, -4.457707) "></path>
            <path d="M8.44444444,5.91666667 C13.349115,5.91666667 15.8333333,7.23923031 15.8333333,6.40089247 C15.8333333,5.56255463 13.2353235,2.22222222 8.33065301,2.22222222 C3.42598248,2.22222222 1.05555556,5.52912647 1.05555556,6.40089247 C1.05555556,7.27265847 3.53977392,5.91666667 8.44444444,5.91666667 Z" id="Oval---" transform="translate(8.444444, 4.457707) scale(1, -1) rotate(-345.000000) translate(-8.444444, -4.457707) "></path>
        </g>
    </g>
</svg>