<?xml version="1.0" encoding="UTF-8"?>
<svg width="64px" height="64px" viewBox="0 0 64 64" version="1.1" xmlns="http://www.w3.org/2000/svg" xmlns:xlink="http://www.w3.org/1999/xlink">
    <title>inbox</title>
    <g id="inbox" stroke="none" stroke-width="1" fill="none" fill-rule="evenodd">
        <rect id="Rectangle" x="0" y="0" width="64" height="64"></rect>
        <g id="编组-" transform="translate(8.000000, 8.454501)">
            <path d="M46.0015322,-0.644066472 C47.4503563,-0.516949952 47.573683,-0.170835868 47.7370593,0.195999995 C47.9724523,0.724538105 48.1204536,1.5710032 48.1698027,2.53181802 C48.2916108,4.90338688 47.7620656,7.80223057 47.2045651,8.32174548 C45.8334625,9.59942721 43.8763568,10.1593667 42.7461528,10.2512359 C45.1410963,10.4324762 47.2944066,11.4789349 48.8942911,13.0788194 C50.6586941,14.8432224 51.75,17.2807224 51.75,19.9731105 L51.75,19.9731105 L51.75,39.0101476 C51.75,39.4933967 51.5541246,39.9308967 51.2374369,40.2475844 C50.9207492,40.5642722 50.4832492,40.7601476 49.9999976,40.7601476 L49.9999976,40.7601476 L39.3050505,40.760113 L39.305606,49.0194065 L28.4722424,49.0194065 L28.4720202,40.7601117 L3.58341366,40.7601487 L3.58308035,37.6482708 L-0.75,37.6491967 L-0.75,20.593545 L3.5832411,20.5931746 C3.65961332,17.4494319 4.80400009,14.9435584 6.60377851,13.14378 C8.42435754,11.323201 10.9169794,10.2231105 13.6666632,10.2231105 L13.6666632,10.2231105 L36.5361411,10.2230035 L36.5364579,8.53874476 L36.494976,0.556428495 C38.158667,0.612676211 39.9073053,0.989307541 42.3433159,0.989307541 C42.9929092,0.989307541 43.6087651,0.60231032 44.3373181,0.19879074 C44.8413272,-0.0803620229 45.3871254,-0.381395241 46.0015322,-0.644066472 Z M41.9881005,13.2231105 L13.6666667,13.2231105 C11.7723364,13.2231105 10.0486193,13.969093 8.776353,15.2414377 C7.51887231,16.4989958 6.70483774,18.2666441 6.5833263,20.3286874 L6.58227669,23.5929793 L2.249,23.5929969 L2.249,34.6487906 L6.58280057,34.6475806 L6.58296128,37.7600033 L31.471956,37.7601116 L31.4719963,46.019 L36.3049908,46.019 L36.3048899,37.7601121 L48.7490405,37.7600064 L48.75,19.9730701 C48.75,18.1392938 48.0181268,16.4762756 46.8022924,15.2604495 C45.5925239,14.0506894 43.9058468,13.285145 41.9881005,13.2231105 Z M44.9419491,3.27871259 C44.2692311,3.61713052 43.6961347,3.8257253 43.0903237,3.92660619 C42.8414279,3.96805281 42.5927668,3.98930754 42.3433159,3.98930754 C41.367316,3.98930754 40.4770957,3.93549883 39.5845101,3.80661403 L39.8691018,6.94041181 C40.6922983,7.12890472 41.4912018,7.23542087 42.4412359,7.26496898 C43.0903699,7.26115456 44.1196225,6.90388513 44.9078239,6.29149054 C44.9372472,6.16656171 44.9702609,6.00013623 45.0138845,5.75617244 C45.1278478,5.04968997 45.1927445,4.17009074 45.1907662,3.34336228 C45.1905959,3.27673712 45.1899767,3.21090573 44.9419491,3.27871259 Z" id="wb" stroke="#FFFFFF" stroke-width="1.5" fill-rule="nonzero"></path>
            <rect id="矩形" stroke="#000000" stroke-width="1.5" fill="#07EBF5" x="29.9722222" y="37.6490365" width="7.83333333" height="9.87037"></rect>
            <path d="M42,11.7231105 L14.4166667,11.7231105 L14.4166667,39.2601476 L50.25,39.0101476 L50.25,19.9731105 C50.25,17.6949359 49.3265873,15.6324359 47.8336309,14.1394796 C46.3406746,12.6465232 44.2781746,11.7231105 42,11.7231105 Z" id="形状结合" stroke="#000000" stroke-width="1.5" fill="#07EBF5"></path>
            <path d="M13.6666667,11.7231105 C11.3301118,11.7231105 9.21161459,12.6572643 7.66443869,14.2044402 C6.1255687,15.7433102 5.1532524,17.8866409 5.08333333,20.3170299 L5.08333333,39.2601476 L22.2498558,39.2601476 L22.246161,20.0470209 C22.1776388,17.7351145 21.1946992,15.6528709 19.6468126,14.1492065 C18.1010974,12.6476515 15.9918467,11.7231105 13.6666667,11.7231105 Z" id="形状结合" stroke="#000000" stroke-width="1.5" fill="#F0ECFF"></path>
            <path d="M5.85,19.7879254 C5.64026194,19.7879254 4.43507463,19.7879254 4.34,19.7879254 C4.32228167,19.973002 4.32,20.4346019 4.32,21.3434809 C4.32,21.9494003 4.32444444,27.6677458 4.33333333,38.4985176 L5.85,38.4985176 C5.85759549,27.6082057 5.85759549,21.9151784 5.85,21.4194358 C5.83860677,20.6758219 5.83860677,20.1121893 5.85,19.7879254 Z" id="路径" fill="#FFFFFF" fill-rule="nonzero"></path>
            <path d="M22.1388889,22.0934809 L0.75,22.0934809 L0.75,36.1490365 L22.1388889,36.1490365 L22.1388889,22.0934809 Z" id="矩形" stroke="#000000" stroke-width="1.5" fill="#F9FBB1"></path>
            <polyline id="路径-" stroke="#000000" stroke-width="1.5" points="0.544043115 24.454592 12.4444444 29.6397772 22.1749204 25.4156392"></polyline>
            <circle id="椭圆形" stroke="#000000" stroke-width="1.5" fill="#F0ECFF" cx="38.0481156" cy="19.2192969" r="3.39814815"></circle>
            <line x1="38.037037" y1="2.11808208" x2="38.037037" y2="15.7251565" id="路径-" stroke="#000000" stroke-width="1.5" stroke-linecap="round"></line>
            <path d="M46.1819495,7.22435886 C46.6277712,6.80891343 46.7635249,4.39505776 46.6717774,2.60875932 C46.6339476,1.87222357 46.5483099,1.21378932 46.5911858,0.735175579 C46.0270202,0.976367666 45.5268231,1.25467405 45.0640862,1.51096759 C44.0699924,2.06156082 43.2148315,2.48930754 42.3433159,2.48930754 C40.6300482,2.48930754 39.248458,2.31035791 37.9991274,2.17872689 L37.9991274,7.97991428 C39.6379325,8.50026398 41.1147571,8.76500512 42.4308935,8.76500512 C43.2538672,8.76500512 44.9959117,8.32958531 46.1819495,7.22435886 Z" id="矩形" stroke="#000000" stroke-width="1.5" fill="#FFC55D"></path>
        </g>
    </g>
</svg>