<?xml version="1.0" encoding="UTF-8"?>
<svg width="64px" height="64px" viewBox="0 0 64 64" version="1.1" xmlns="http://www.w3.org/2000/svg" xmlns:xlink="http://www.w3.org/1999/xlink">
    <title>greatWall</title>
    <g id="greatWall" stroke="none" stroke-width="1" fill="none" fill-rule="evenodd">
        <rect id="矩形-" x="0" y="0" width="64" height="64"></rect>
        <g id="编组" transform="translate(4.000000, 14.600000)">
            <path d="M40.4377217,0.0928537659 L32.3258471,0.0928537659 L32.3250217,14.8268853 L31.5994251,15.3428868 L31.6000888,13.0728539 L28.6000308,13.0728539 L28.5990832,17.4768645 L27.7272519,18.0969233 L27.7276434,15.8376036 L24.727609,15.8376036 L24.7270493,20.23092 L23.9200605,20.8049419 L23.92061,7.58958826 L15.8077868,7.58958826 L15.808195,9.79366989 L12.9000873,9.79366989 L12.8998424,7.58958826 L4.78797303,7.58958826 L4.78702048,22.6989172 L4.04644307,23.3932291 L4.04687891,21.6897263 L1.0468129,21.6897263 L1.04605453,26.2069684 L-0.75,27.8914501 L-0.75,37.4561224 L54.75,37.4561224 L54.75,14.0344521 L51.4580246,14.0339648 L51.4584828,0.0928537659 L43.3456662,0.0928537659 L43.3460743,2.2969354 L40.4379666,2.2969354 L40.4377217,0.0928537659 Z" id="wb" stroke="#FFFFFF" stroke-width="1.5"></path>
            <path d="M53.25,15.5343411 L33.9188674,15.5343411 L23.3823918,23.0290995 L6.62885819,23.0290995 L0.75,28.541182 L0.75,35.9561224 L53.25,35.9561224 L53.25,15.5343411 Z" id="矩形" stroke="#000000" stroke-width="1.5" fill="#E8D7BC"></path>
            <path d="M38.9378884,1.59285377 L33.8258051,1.59285377 L33.8258051,15.5214252 L49.9584581,15.5214252 L49.9584581,1.59285377 L44.845944,1.59285377 L44.8463521,3.7969354 L38.9381333,3.7969354 L38.9378884,1.59285377 Z" id="形状结合" stroke="#000000" stroke-width="1.5" fill="#FFEECF"></path>
            <path d="M41.877551,6.95102041 C43.0948317,6.95102041 44.0816327,7.93782137 44.0816327,9.15510204 L44.0816327,12.4612245 L44.0816327,12.4612245 L39.6734694,12.4612245 L39.6734694,9.15510204 C39.6734694,7.93782137 40.6602703,6.95102041 41.877551,6.95102041 Z" id="矩形" fill="#000000"></path>
            <path d="M11.4000091,9.08958826 L6.28792575,9.08958826 L6.28792575,23.0181597 L22.4205788,23.0181597 L22.4205788,9.08958826 L17.3080647,9.08958826 L17.3084728,11.2936699 L11.400254,11.2936699 L11.4000091,9.08958826 Z" id="形状结合" stroke="#000000" stroke-width="1.5" fill="#FFEECF"></path>
            <path d="M14.3542523,14.5110168 C15.571533,14.5110168 16.5583339,15.4978178 16.5583339,16.7150985 L16.5583339,20.0212209 L16.5583339,20.0212209 L12.1501706,20.0212209 L12.1501706,16.7150985 C12.1501706,15.4978178 13.1369716,14.5110168 14.3542523,14.5110168 Z" id="矩形" fill="#000000"></path>
            <line x1="26.2275134" y1="16.5876036" x2="26.2275134" y2="20.9468336" id="路径-" stroke="#000000" stroke-width="1.5"></line>
            <line x1="30.0998695" y1="13.8228539" x2="30.0998695" y2="18.1820839" id="路径-" stroke="#000000" stroke-width="1.5"></line>
            <line x1="2.546687" y1="22.4397263" x2="2.546687" y2="26.7989563" id="路径-" stroke="#000000" stroke-width="1.5"></line>
            <line x1="38.8257457" y1="29.7751136" x2="44.3359498" y2="29.7751136" id="路径-" stroke="#9E8D73" stroke-width="1.5"></line>
            <line x1="30.0094192" y1="29.7751136" x2="35.5196232" y2="29.7751136" id="路径-" stroke="#9E8D73" stroke-width="1.5"></line>
            <line x1="21.1930926" y1="29.7751136" x2="26.7032967" y2="29.7751136" id="路径-" stroke="#9E8D73" stroke-width="1.5"></line>
            <line x1="12.3767661" y1="29.7751136" x2="17.8869702" y2="29.7751136" id="路径-" stroke="#9E8D73" stroke-width="1.5"></line>
            <line x1="3.63461538" y1="29.7751136" x2="9.14884615" y2="29.7751136" id="路径-" stroke="#9E8D73" stroke-width="1.5"></line>
            <line x1="43.2299839" y1="25.1745463" x2="48.740188" y2="25.1745463" id="路径-" stroke="#9E8D73" stroke-width="1.5"></line>
            <line x1="34.4136574" y1="25.1745463" x2="39.9238615" y2="25.1745463" id="路径-" stroke="#9E8D73" stroke-width="1.5"></line>
            <polyline id="路径--" stroke="#9E8D73" stroke-width="1.5" points="48.2299839 20.9 51.5370752 20.9 52.5059186 20.9"></polyline>
            <line x1="39.4136574" y1="20.9" x2="44.9238615" y2="20.9" id="路径--" stroke="#9E8D73" stroke-width="1.5"></line>
            <line x1="30.4136574" y1="20.9" x2="35.9238615" y2="20.9" id="路径--" stroke="#9E8D73" stroke-width="1.5"></line>
            <line x1="25.4136574" y1="25.1745463" x2="30.9238615" y2="25.1745463" id="路径-" stroke="#9E8D73" stroke-width="1.5"></line>
        </g>
    </g>
</svg>