<?xml version="1.0" encoding="UTF-8"?>
<svg width="64px" height="64px" viewBox="0 0 64 64" version="1.1" xmlns="http://www.w3.org/2000/svg" xmlns:xlink="http://www.w3.org/1999/xlink">
    <title>hotAirBalloon</title>
    <g id="hotAirBalloon" stroke="none" stroke-width="1" fill="none" fill-rule="evenodd">
        <rect id="矩形-" x="0" y="0" width="64" height="64"></rect>
        <g id="编组" transform="translate(7.000000, 6.291968)">
            <rect id="wb" fill="#FFFFFF" x="22" y="35.7080325" width="9" height="3"></rect>
            <path d="M26.9466667,-0.61853994 C27.2657706,-0.61853994 27.5913253,-0.609065191 27.8798031,-0.591943249 C29.4079052,-0.519607052 30.9478554,-0.250551018 32.4262839,0.19666462 C38.601499,2.02741196 43.531941,6.66429677 44.868529,12.1736261 C45.1227577,13.1807628 45.25,14.216131 45.25,15.2767934 C45.25,17.0395456 44.8451405,18.9019193 44.0816618,20.8301876 C43.7719593,21.6152473 43.4190541,22.385537 43.0214698,23.1410828 L43.0214698,23.1410828 L42.7252195,23.6857239 L42.4591699,24.1622077 C41.6494422,25.5820408 40.6866704,27.0608748 39.6019051,28.5763444 C38.4272306,30.2174215 37.1716022,31.8168302 35.9101396,33.3196865 L35.9101396,33.3196865 L34.6995215,34.7276774 L34.0130935,35.4846901 L34.3157023,37.7876034 C34.828391,37.9747498 35.2814391,38.2858762 35.638267,38.6850093 C36.1128884,39.2159015 36.4173183,39.9020559 36.4663691,40.6577723 C36.4712474,41.4720832 36.2630068,42.1411142 35.9159008,42.6797375 C35.6361766,43.1138006 35.2651175,43.4650994 34.8318702,43.7166912 L34.8318702,43.7166912 L34.8314815,47.6833119 C34.8314815,48.7188458 34.4117484,49.6563458 33.7331319,50.3349623 C33.0545154,51.0135789 32.1170154,51.4333119 31.0814815,51.4333119 L31.0814815,51.4333119 L22.8118519,51.4333119 C21.7763179,51.4333119 20.8388179,51.0135789 20.1602014,50.3349623 C19.4815849,49.6563458 19.0618519,48.7188458 19.0618519,47.6833854 L19.0618519,47.6833854 L19.0614632,43.7169477 C18.6401397,43.4732174 18.2779708,43.1385861 18.001965,42.7397118 C17.6351573,42.2096136 17.42,41.56643 17.42,40.8729415 C17.42,40.0712813 17.7073649,39.33678 18.1844864,38.7666047 C18.5528592,38.3263875 19.0345626,37.9844463 19.5845693,37.7850821 L19.5845693,37.7850821 L19.9113459,35.4979304 L19.1582487,34.7712206 C17.2643078,32.8992855 13.7280991,28.1727559 11.5006534,24.2793054 L11.5006534,24.2793054 L10.8587414,23.1161051 C10.6520682,22.7224217 10.4562711,22.3217426 10.2664805,21.9032322 L10.2664805,21.9032322 L10.0012862,21.2961533 C9.04391927,18.8944622 8.64333333,17.0354597 8.64333333,15.2767934 C8.64333333,14.2403234 8.75710332,13.2214769 8.9780079,12.2515442 C9.61276803,9.39959377 11.1439687,6.83327959 13.3027876,4.75314639 C15.4857904,2.64971068 18.3113911,1.04399386 21.4874591,0.148303975 C22.9730831,-0.270951882 24.4913312,-0.520314446 25.9877955,-0.59057728 C26.3027509,-0.60910407 26.627931,-0.61853994 26.9466667,-0.61853994 Z M31.0207703,35.9874601 L22.8722981,35.9874601 L22.6430676,37.5884601 L31.2500008,37.5884601 L31.0207703,35.9874601 Z M13.8935235,33.0398718 L7.867758,33.0467666 C7.47535231,33.0845227 7.12670876,33.2728751 6.88141238,33.5540917 C6.65143986,33.8177404 6.51201834,34.1625071 6.51201834,34.5398718 C6.51201834,34.9540854 6.67991156,35.3290854 6.95135816,35.600532 C7.22280477,35.8719786 7.59780477,36.0398718 8.01201834,36.0398718 L14.0377838,36.0329771 C14.4301895,35.995221 14.7788331,35.8068685 15.0241295,35.525652 C15.254102,35.2620033 15.3935235,34.9172365 15.3935235,34.5398718 C15.3935235,34.1256583 15.2256303,33.7506583 14.9541837,33.4792117 C14.6827371,33.2077651 14.3077371,33.0398718 13.8935235,33.0398718 Z M4.56019017,33.0398718 L0.858455563,33.0467972 C0.466179643,33.0846246 0.117658303,33.2729512 -0.127571751,33.5540917 C-0.357544271,33.8177404 -0.496965796,34.1625071 -0.496965796,34.5398718 C-0.496965796,34.9540854 -0.329072577,35.3290854 -0.0576259674,35.600532 C0.213820642,35.8719786 0.588820642,36.0398718 1.0030342,36.0398718 L4.70476865,36.0329464 C5.09704464,35.9951191 5.44556604,35.8067925 5.69079613,35.525652 C5.92076865,35.2620033 6.06019017,34.9172365 6.06019017,34.5398718 C6.06019017,34.1256583 5.89229695,33.7506583 5.62085034,33.4792117 C5.34940373,33.2077651 4.97440373,33.0398718 4.56019017,33.0398718 Z M10.5537973,28.6707193 L2.72252249,28.6776029 C2.33006944,28.715333 1.9813813,28.9036949 1.73606071,29.1849392 C1.50608819,29.4485879 1.36666667,29.7933546 1.36666667,30.1707193 C1.36666667,30.5849329 1.53455989,30.9599329 1.80600649,31.2313795 C2.0774531,31.5028261 2.4524531,31.6707193 2.86666667,31.6707193 L10.6979414,31.6638357 C11.0903945,31.6261056 11.4390826,31.4377438 11.6844032,31.1564995 C11.9143757,30.8928508 12.0537973,30.548084 12.0537973,30.1707193 C12.0537973,29.7565058 11.885904,29.3815058 11.6144574,29.1100591 C11.3430108,28.8386125 10.9680108,28.6707193 10.5537973,28.6707193 Z" id="wb" stroke="#FFFFFF" stroke-width="1.5" fill-rule="nonzero"></path>
            <path d="M40.76056,22.5890867 L40.5046714,23.0475616 C37.4247728,28.4480714 32.5653333,33.7381267 32.5653333,33.7381267 L21.328,33.7381267 L20.739915,33.1709607 C19.3293978,31.7768324 15.6908967,27.1745388 13.2596029,22.8188376 L13.1327733,22.5890867 C12.7381289,21.8867534 12.388077,21.1676978 12.0826178,20.4412102 L11.9046933,20.0045001 C11.2786133,18.4232467 10.8933333,16.8179134 10.8933333,15.2767934 C10.8933333,14.4018867 10.9896533,13.5510601 11.1742667,12.7403667 C12.3140533,7.61935339 16.8330667,3.79866006 22.09856,2.31372673 C23.4069067,1.94450006 24.7553867,1.71975339 26.11992,1.65554006 C26.3928267,1.63948673 26.67376,1.63146006 26.9466667,1.63146006 C27.2195733,1.63146006 27.5005067,1.63948673 27.7734133,1.65554006 C29.12992,1.71975339 30.4864267,1.96055339 31.7867467,2.35386006 C37.0121067,3.90300673 41.4990133,7.82804673 42.68696,12.7243134 C42.8956533,13.5510601 43,14.4018867 43,15.2767934 C43,16.8179134 42.61472,18.4232467 41.98864,20.0045001 C41.6434933,20.8794067 41.2341333,21.7462867 40.76056,22.5890867 Z" id="路径" fill="#BDCFD1" fill-rule="nonzero"></path>
            <line x1="21.6606029" y1="33.8641049" x2="20.6386563" y2="41.0064978" id="路径-" stroke="#000000" stroke-width="1.5"></line>
            <line x1="33.254677" y1="33.8641049" x2="32.2327304" y2="41.0064978" id="路径-" stroke="#000000" stroke-width="1.5" transform="translate(32.743704, 37.435301) scale(-1, 1) translate(-32.743704, -37.435301) "></line>
            <path d="M33.3314815,40.7310897 L20.5618519,40.7310897 L20.5618519,47.6833119 C20.5618519,48.3046323 20.8136917,48.8671323 21.2208616,49.2743022 C21.6280315,49.6814721 22.1905315,49.9333119 22.8118519,49.9333119 L31.0814815,49.9333119 C31.7028018,49.9333119 32.2653018,49.6814721 32.6724717,49.2743022 C33.0796417,48.8671323 33.3314815,48.3046323 33.3314815,47.6833119 L33.3314815,40.7310897 Z" id="矩形" stroke="#000000" stroke-width="1.5" fill="#BDCFD1"></path>
            <path d="M20.7037037,39.0892378 L33.1896296,39.0892378 C34.174742,39.0892378 34.9733333,39.8878292 34.9733333,40.8729415 C34.9733333,41.8580539 34.174742,42.6566452 33.1896296,42.6566452 L20.7037037,42.6566452 C19.7185913,42.6566452 18.92,41.8580539 18.92,40.8729415 C18.92,39.8878292 19.7185913,39.0892378 20.7037037,39.0892378 Z" id="矩形" stroke="#000000" stroke-width="1.5" fill="#BDCFD1"></path>
            <line x1="20.8470863" y1="47.0748621" x2="25.4513291" y2="47.0748621" id="路径-" stroke="#000000" stroke-width="1.5"></line>
            <line x1="27.8703923" y1="45.2576696" x2="33.0100634" y2="45.2576696" id="路径-" stroke="#000000" stroke-width="1.5"></line>
            <path d="M32.0062826,5.37576656 C34.2378105,9.75153312 33.9131667,12.3415094 33.9131667,13.8268739 C33.9131667,15.2075601 33.3894776,25.4126647 28.2155565,33.8641049 C27.8496277,34.4618383 27.3591672,34.2552896 26.834098,33.9348158 C26.3083432,34.2550262 25.8174909,34.462219 25.4513291,33.8641049 C20.2774079,25.4126647 19.7537189,15.2075601 19.7537189,13.8268739 C19.7537189,12.3415094 19.429075,9.75153312 21.6606029,5.37576656 C23.7785708,1.2226779 25.2908962,1.01133183 26.7178021,1.00057666 L26.7181814,1.00001352 L26.9487956,1.0005745 C28.375786,1.01130343 29.8881723,1.2223987 32.0062826,5.37576656 Z" id="形状结合" fill="#FFC55D"></path>
            <path d="M24.3836543,1 C23.1492077,3.47421951 13.9955135,10.0663258 25.4513291,34.5398718" id="路径-" stroke="#000000" stroke-width="1.5"></path>
            <path d="M33.3021728,1 C32.0677262,3.47421951 22.914032,10.0663258 34.3698476,34.5398718" id="路径-" stroke="#000000" stroke-width="1.5" transform="translate(31.521042, 17.769936) scale(-1, 1) translate(-31.521042, -17.769936) "></path>
            <path d="M26.9466667,0.88146006 C26.6592218,0.88146006 26.3633231,0.889925771 26.0758785,0.90683428 C24.6629934,0.97327132 23.2580068,1.20722734 21.8948597,1.59191914 C19.0573785,2.39212342 16.4292618,3.84479291 14.3853987,5.79554836 C12.441799,7.65060784 11.0259164,9.95472496 10.4421804,12.5774259 C10.2462541,13.4377573 10.1433333,14.3444236 10.1433333,15.2767934 C10.1433333,16.8995901 10.5386612,18.5923738 11.3912449,20.7319051 C11.7063734,21.4813897 12.0670842,22.2234186 12.6050758,23.1850265 C15.076311,27.6122839 18.7789578,32.2873041 20.2126929,33.7043807 L21.0252351,34.4881267 L33.117667,34.2454999 C33.117667,34.2454999 38.03741,28.8877639 41.1561709,23.4191103 L41.4154609,22.9546066 C41.9048716,22.0836279 42.3288569,21.1858412 42.6863139,20.2797292 C43.3486131,18.6070009 43.75,16.9071547 43.75,15.2767934 C43.75,14.3389425 43.6378513,13.4269534 43.4141497,12.5407509 C42.1703667,7.41421234 37.4932137,3.26337336 31.9999257,1.63479491 C30.6447061,1.22487091 29.2267568,0.973497545 27.8088766,0.906378957 C27.5300102,0.889925771 27.2341115,0.88146006 26.9466667,0.88146006 Z" id="路径" stroke="#000000" stroke-width="1.5" fill-rule="nonzero"></path>
            <line x1="13.8935235" y1="34.5398718" x2="8.01201834" y2="34.5398718" id="路径-" stroke="#000000" stroke-width="1.5" stroke-linecap="round"></line>
            <line x1="10.5537973" y1="30.1707193" x2="2.86666667" y2="30.1707193" id="路径-" stroke="#000000" stroke-width="1.5" stroke-linecap="round"></line>
            <line x1="4.56019017" y1="34.5398718" x2="1.0030342" y2="34.5398718" id="路径-" stroke="#000000" stroke-width="1.5" stroke-linecap="round"></line>
        </g>
    </g>
</svg>