<?xml version="1.0" encoding="UTF-8"?>
<svg width="64px" height="64px" viewBox="0 0 64 64" version="1.1" xmlns="http://www.w3.org/2000/svg" xmlns:xlink="http://www.w3.org/1999/xlink">
    <title>chat</title>
    <defs>
        <path d="M38.9296774,2.66666667 C31.7595968,2.66666667 25.926371,8.49989247 25.926371,15.6699731 C25.926371,18.6599731 26.9576613,21.5573925 28.8376613,23.8697312 C28.301371,25.2210215 27.4031452,26.3894892 26.2246774,27.2640054 C26.0442742,27.3978763 25.9529032,27.6207796 25.9875806,27.8427957 C26.0221774,28.0648925 26.1770161,28.2494086 26.3895968,28.3219892 C27.3317742,28.6439247 28.3134677,28.8072312 29.3075,28.8072312 C30.8858871,28.8072312 32.4283065,28.3965054 33.788871,27.6166667 C35.4145161,28.317957 37.1424194,28.6734409 38.9297581,28.6734409 C46.0998387,28.6734409 51.9330645,22.8401344 51.9330645,15.6700538 C51.9330645,8.49997312 46.0997581,2.66666667 38.9296774,2.66666667 L38.9296774,2.66666667 Z" id="path-1"></path>
        <path d="M19.6053629,0 C8.85024194,0 0.100403226,8.74983871 0.100403226,19.5049597 C0.100403226,23.9899597 1.64733871,28.3360887 4.46733871,31.8045968 C3.66290323,33.8315323 2.31556452,35.5842339 0.547862903,36.8960081 C0.277258065,37.0968145 0.140201613,37.4311694 0.192217742,37.7641935 C0.244112903,38.0973387 0.476370968,38.3741129 0.795241935,38.4829839 C2.20850806,38.9658871 3.68104839,39.2108468 5.17209677,39.2108468 C7.53967742,39.2108468 9.85330645,38.5947581 11.8941532,37.425 C14.332621,38.4769355 16.9244758,39.0101613 19.6054839,39.0101613 C30.3606048,39.0101613 39.1104435,30.2602016 39.1104435,19.5050806 C39.1104435,8.74995968 30.3604839,0 19.6053629,0 L19.6053629,0 Z" id="path-2"></path>
    </defs>
    <g id="chat" stroke="none" stroke-width="1" fill="none" fill-rule="evenodd">
        <rect id="Rectangle" x="0" y="0" width="64" height="64"></rect>
        <g id="编组" transform="translate(7.666667, 11.666667)">
            <path d="M33.5828629,29.1551897 C35.2832306,29.8309575 37.0792962,30.1734409 38.9297581,30.1734409 C42.9286908,30.1734409 46.5546908,28.547364 49.1808439,25.9211955 C51.8069984,23.2950257 53.4330645,19.6690033 53.4330645,15.6700538 C53.4330645,11.6711132 51.8069832,8.04509164 49.1808114,5.4189198 C46.5546395,2.79274796 42.928618,1.16666667 38.9296774,1.16666667 C34.9307357,1.16666667 31.3047349,2.79272834 28.6785838,5.41887948 C26.0574835,8.03997972 24.4260712,11.6565121 24.4323377,16.0859157 C24.5114462,18.8425943 25.3730049,21.5172932 27.0244097,24.1755875 C26.5965321,24.906579 26.0234101,25.5454663 25.3307956,26.059441 C25.0167667,26.292471 24.7802696,26.6029879 24.6373764,26.9518508 C24.4944902,27.3006965 24.4451972,27.687882 24.5055498,28.0742789 C24.5656722,28.4602403 24.7305056,28.8139945 24.9728529,29.1027624 C25.2151356,29.3914535 25.534885,29.6151876 25.904928,29.7415301 C26.9960908,30.1143729 28.1334111,30.3076989 29.7006937,30.2999297 C31.0528384,30.2496777 32.3739154,29.9404994 33.5828629,29.1551897 Z" id="wb" stroke="#FFFFFF" stroke-width="1.5" fill="#000000" fill-rule="nonzero" transform="translate(38.929718, 15.736949) scale(-1, 1) translate(-38.929718, -15.736949) "></path>
            <path d="M27.7422343,15.6765106 C27.7422343,18.4623125 28.8633274,21.2452935 30.5967259,23.1665446 C30.5745771,24.6827773 29.8873082,26.0174015 28.8876511,27.0562271 C28.8000204,27.1472914 28.9237776,27.2172464 29.0570383,27.221694 C30.2184441,27.2604567 33.2109683,26.4918337 34.2544456,25.8425082 C35.6771453,26.4979353 37.2606637,26.8641071 38.9297581,26.8641071 C45.1084707,26.8641071 50.1172818,21.8552232 50.1172818,15.6765106 C50.1173546,9.49772526 45.1084707,4.48898688 38.9297581,4.48898688 C32.7510455,4.48898688 27.7422343,9.49772526 27.7422343,15.6765106 Z" id="Shape" fill="#FFC55D" transform="translate(38.929758, 15.856045) scale(-1, 1) translate(-38.929758, -15.856045) "></path>
            <g id="Shape" transform="translate(38.929718, 15.736949) scale(-1, 1) translate(-38.929718, -15.736949) ">
                <path stroke="#FFFFFF" stroke-width="2.25" d="M38.9296774,3.79166667 C35.6548021,3.79166667 32.6855017,5.12427215 30.5347391,7.27503478 C28.3839765,9.42579741 27.051371,12.3950978 27.051371,15.6699731 C27.051371,18.4011579 27.9932786,21.0478319 29.7105632,23.160036 C29.8410576,23.3205398 29.9754869,23.4772904 30.1136728,23.630176 C30.0443426,23.8525494 29.96853,24.0700251 29.8833214,24.2847252 C29.4613646,25.3479294 28.8250231,26.3026717 28.0818884,27.5862793 C28.4862195,27.6501916 28.8956484,27.6822312 29.3075,27.6822312 C30.6887879,27.6822312 32.0387155,27.3231136 33.2294317,26.6406274 C33.3932424,26.5467355 33.5532951,26.4471503 33.7093414,26.3421118 C33.8819888,26.4265276 34.0570548,26.5071421 34.2344904,26.5836864 C35.7192223,27.2241878 37.2974059,27.5484409 38.9297581,27.5484409 C42.2046274,27.5484409 45.173922,26.2158201 47.324683,24.0650458 C49.4754533,21.9142622 50.8080645,18.944937 50.8080645,15.6700538 C50.8080645,12.3951765 49.475438,9.42585704 47.3246561,7.2750751 C45.1738741,5.12429316 42.2045547,3.79166667 38.9296774,3.79166667 Z" stroke-linejoin="square"></path>
                <use stroke="#000000" stroke-width="1.5" xlink:href="#path-1"></use>
            </g>
            <path d="M38.9297581,14.4062634 C39.7759677,14.4062634 40.4620161,15.0922312 40.4620161,15.9385215 C40.4620161,16.7847312 39.7759677,17.4707796 38.9297581,17.4707796 C38.0835484,17.4707796 37.3975,16.7847312 37.3975,15.9385215 C37.3975,15.0922312 38.0835484,14.4062634 38.9297581,14.4062634 Z M32.9620161,14.4062634 C33.8082258,14.4062634 34.4942742,15.0922312 34.4942742,15.9385215 C34.4942742,16.7847312 33.8082258,17.4707796 32.9620161,17.4707796 C32.1158065,17.4707796 31.4297581,16.7847312 31.4297581,15.9385215 C31.4297581,15.0922312 32.1158065,14.4062634 32.9620161,14.4062634 Z M44.8975,14.4062634 C45.7437097,14.4062634 46.4297581,15.0922312 46.4297581,15.9385215 C46.4297581,16.7847312 45.7437097,17.4707796 44.8975,17.4707796 C44.0512903,17.4707796 43.3652419,16.7847312 43.3652419,15.9385215 C43.3652419,15.0922312 44.0512903,14.4062634 44.8975,14.4062634 Z" id="形状结合" fill="#000000" transform="translate(38.929758, 15.938522) scale(-1, 1) translate(-38.929758, -15.938522) "></path>
            <path d="M2.82407728,19.5147659 C2.82407728,23.6934688 4.50571696,27.8679403 7.10581462,30.7498169 C7.07259142,33.0241659 6.04168808,35.0261023 4.54220251,36.5843407 C4.41075643,36.7209371 4.59639226,36.8258695 4.79628323,36.832541 C6.53839193,36.890685 11.0271782,35.7377506 12.5923942,34.7637623 C14.7264438,35.746903 17.1017214,36.2961607 19.6053629,36.2961607 C28.8734318,36.2961607 36.3866485,28.7828348 36.3866485,19.5147659 C36.3867577,10.2465879 28.8734318,2.73348032 19.6053629,2.73348032 C10.337294,2.73348032 2.82407728,10.2465879 2.82407728,19.5147659 Z" id="Shape" fill="#FFC55D"></path>
            <path d="M19.6053629,0 C8.85024194,0 0.100403226,8.74983871 0.100403226,19.5049597 C0.100403226,23.9899597 1.64733871,28.3360887 4.46733871,31.8045968 C3.66290323,33.8315323 2.31556452,35.5842339 0.547862903,36.8960081 C0.277258065,37.0968145 0.140201613,37.4311694 0.192217742,37.7641935 C0.244112903,38.0973387 0.476370968,38.3741129 0.795241935,38.4829839 C2.20850806,38.9658871 3.68104839,39.2108468 5.17209677,39.2108468 C7.53967742,39.2108468 9.85330645,38.5947581 11.8941532,37.425 C14.332621,38.4769355 16.9244758,39.0101613 19.6054839,39.0101613 C30.3606048,39.0101613 39.1104435,30.2602016 39.1104435,19.5050806 C39.1104435,8.74995968 30.3604839,0 19.6053629,0 L19.6053629,0 Z" id="Shape" fill="#FFC55D"></path>
            <g id="Shape">
                <path stroke="#FFFFFF" stroke-width="2.25" d="M19.6053629,1.125 C14.5379674,1.125 9.94325373,3.18675871 6.61520783,6.5148046 C3.28716193,9.8428505 1.22540323,14.4375642 1.22540323,19.5049597 C1.22540323,23.7311445 2.68295603,27.8265282 5.34024063,31.0949016 C5.4733968,31.2586793 5.60920068,31.4199318 5.74757315,31.5786092 C5.67466479,31.7948886 5.59691355,32.0081508 5.51299878,32.2195908 C4.815504,33.9770678 3.7217413,35.5341695 2.45577235,37.7843501 C3.3459847,37.9847989 4.25522139,38.0858468 5.17209677,38.0858468 C7.34257826,38.0858468 9.46371548,37.5213663 11.334714,36.4489607 C11.4980152,36.3553609 11.6589409,36.2581611 11.817391,36.1574578 C11.9901312,36.2379666 12.1642027,36.3162802 12.3397727,36.3920197 C14.6373272,37.3831663 17.0794623,37.8851613 19.6054839,37.8851613 C24.6728706,37.8851613 29.2675763,35.8233795 32.59562,32.4953151 C35.9236768,29.1672377 37.9854435,24.5724868 37.9854435,19.5050806 C37.9854435,14.4376832 35.9236537,9.84294038 32.5955785,6.51486509 C29.2675032,3.1867898 24.6727603,1.125 19.6053629,1.125 Z" stroke-linejoin="square"></path>
                <path stroke="#FFFFFF" stroke-width="2.25" d="M19.6053629,-1.125 C13.9176374,-1.125 8.75987127,1.18816065 5.02421757,4.92381435 C1.28856387,8.65946805 -1.02459677,13.8172342 -1.02459677,19.5049597 C-1.02459677,24.01917 0.457156225,28.4003195 3.17083391,31.9751604 C2.36395788,33.7371282 1.14736171,35.3894906 -0.201045794,37.9604556 C-0.403833641,38.3471047 -0.591224582,38.7194891 -0.766633201,39.0788196 C-0.375446146,39.25203 0.0242343568,39.4083976 0.431486165,39.5475527 C1.96220735,40.0705895 3.55713562,40.3358468 5.17209677,40.3358468 C7.54799461,40.3358468 9.87363706,39.7628283 11.9607078,38.6710788 C14.3897631,39.6426676 16.9564323,40.1351613 19.6054839,40.1351613 C25.2932014,40.1351613 30.450962,37.8219768 34.1866152,34.0863004 C37.9222774,30.3506151 40.2354435,25.1928121 40.2354435,19.5050806 C40.2354435,13.8173571 37.9222535,8.65955962 34.1865687,4.92387483 C30.4508839,1.18819004 25.2930864,-1.125 19.6053629,-1.125 Z"></path>
                <use stroke="#000000" stroke-width="1.5" xlink:href="#path-2"></use>
            </g>
            <path d="M19.6053629,17.6093952 C20.8746774,17.6093952 21.90375,18.6383468 21.90375,19.9077823 C21.90375,21.1770968 20.8746774,22.2061694 19.6053629,22.2061694 C18.3360484,22.2061694 17.3069758,21.1770968 17.3069758,19.9077823 C17.3069758,18.6383468 18.3360484,17.6093952 19.6053629,17.6093952 Z M10.65375,17.6093952 C11.9230645,17.6093952 12.9521371,18.6383468 12.9521371,19.9077823 C12.9521371,21.1770968 11.9230645,22.2061694 10.65375,22.2061694 C9.38443548,22.2061694 8.3553629,21.1770968 8.3553629,19.9077823 C8.3553629,18.6383468 9.38443548,17.6093952 10.65375,17.6093952 Z M28.5569758,17.6093952 C29.8262903,17.6093952 30.8553629,18.6383468 30.8553629,19.9077823 C30.8553629,21.1770968 29.8262903,22.2061694 28.5569758,22.2061694 C27.2876613,22.2061694 26.2585887,21.1770968 26.2585887,19.9077823 C26.2585887,18.6383468 27.2876613,17.6093952 28.5569758,17.6093952 Z" id="形状结合" fill="#000000"></path>
        </g>
    </g>
</svg>