<?xml version="1.0" encoding="UTF-8"?>
<svg width="64px" height="64px" viewBox="0 0 64 64" version="1.1" xmlns="http://www.w3.org/2000/svg" xmlns:xlink="http://www.w3.org/1999/xlink">
    <title>tellurium</title>
    <g id="tellurium" stroke="none" stroke-width="1" fill="none" fill-rule="evenodd">
        <rect id="Rectangle" x="0" y="0" width="64" height="64"></rect>
        <g id="Group-" transform="translate(12.000000, 7.333333)">
            <path d="M33.9418164,6.23154383 C37.3937593,11.4666384 42.1629176,23.2708373 32.3294757,32.9244303 C25.7738477,39.3601589 17.1893575,39.5425872 6.57600524,33.4717153" id="wb" stroke="#FFFFFF" stroke-width="2"></path>
            <path d="M36.6250093,-0.744220326 C37.0136913,-0.744220326 37.4023733,-0.595943134 37.6989277,-0.29938875 C37.9954821,-0.00283436617 38.1437593,0.385847654 38.1437593,0.774529674 C38.1437593,1.16321169 37.9954821,1.55189371 37.6988365,1.8485393 L37.6988365,1.8485393 L36.3524708,3.19444192 C40.168794,7.38021661 42.3367158,12.8377701 42.3367158,18.6372773 C42.3367158,24.3632602 40.2344966,29.6000366 36.7567914,33.6242027 C33.3654984,37.5483784 28.6658573,40.3189239 23.3324414,41.2652938 L23.3324414,41.2652938 L23.3321933,48.9278866 L26.4669643,48.9283333 C26.8863555,48.9283333 27.266043,49.0983252 27.5408827,49.3731649 C27.8157224,49.6480046 27.9857143,50.0276921 27.9857143,50.4470833 C27.9857143,50.8664746 27.8157224,51.2461621 27.5408827,51.5210018 C27.266043,51.7958414 26.8863555,51.9658333 26.4669643,51.9658333 L26.4669643,51.9658333 L11.8973214,51.9658333 C11.4779302,51.9658333 11.0982427,51.7958414 10.823403,51.5210018 C10.5485633,51.2461621 10.3785714,50.8664746 10.3785714,50.4470833 C10.3785714,50.0276921 10.5485633,49.6480046 10.823403,49.3731649 C11.0982427,49.0983252 11.4779302,48.9283333 11.8972108,48.9283333 L11.8972108,48.9283333 L14.8992285,48.9278903 L14.8998413,41.2124193 C10.8156132,40.4345658 7.04066186,38.5736554 3.93947944,35.8294938 L3.93947944,35.8294938 L2.6848374,37.0840926 C2.38828302,37.380647 1.999601,37.5289242 1.61091898,37.5289242 C1.22223696,37.5289242 0.833554938,37.380647 0.537000554,37.0840926 C0.24044617,36.7875382 0.0921689779,36.3988562 0.0921689779,36.0101742 C0.0921689779,35.6214921 0.24044617,35.2328101 0.53699718,34.9362591 L0.53699718,34.9362591 L5.02547289,30.4477263 C2.33488113,27.2161743 0.714285714,23.0494595 0.714285714,18.50125 C0.714285714,13.3650778 2.78090332,8.71539758 6.12139838,5.34959574 C9.46393438,1.9817375 14.0817414,-0.100833333 19.1821429,-0.100833333 C23.6884718,-0.100833333 27.8180191,1.52489803 31.0242262,4.22633551 L31.0242262,4.22633551 L35.5510908,-0.29938875 C35.8476452,-0.595943134 36.2363272,-0.744220326 36.6250093,-0.744220326 Z M17.8992015,41.5831228 L17.899172,48.9277797 L20.3321863,48.9277797 L20.3323553,41.5980053 C19.9763393,41.61426 19.6182187,41.6224775 19.2581721,41.6224775 C18.8029427,41.6224775 18.3498037,41.6092765 17.8992015,41.5831228 Z M34.2284162,5.31822287 L33.1800956,6.36667779 C35.9655586,9.62386067 37.65,13.8642931 37.65,18.50125 C37.65,23.6374222 35.5833824,28.2871024 32.2428873,31.6529043 C28.9003513,35.0207625 24.2825443,37.1033333 19.1821429,37.1033333 C14.5874361,37.1033333 10.3844176,35.4132238 7.1524806,32.6159822 L6.06489418,33.7032315 C9.68287361,36.8467082 14.3283513,38.6224775 19.2581721,38.6224775 C24.8032681,38.6224775 29.8232614,36.3852484 33.4569527,32.7678415 C37.0896539,29.1514203 39.3367158,24.1554791 39.3367158,18.6372773 C39.3367158,13.6433371 37.4883552,8.94356134 34.2284162,5.31822287 Z" id="wb" stroke="#FFFFFF" stroke-width="1.5" fill="#000000" fill-rule="nonzero"></path>
            <rect id="Rectangle-" fill="#F5E0C7" x="15.9607143" y="40.5573056" width="6.44285714" height="10.4022777"></rect>
            <path d="M21.8325,40.5573056 L21.8325,50.9595833 M16.4,50.9595833 L16.4,40.5573056" id="形状" stroke="#000000" stroke-width="1.5" fill="#F5E0C7"></path>
            <path d="M3.93671585,33.7664999 C7.84654767,37.6916257 13.2672487,40.1224775 19.2581721,40.1224775 C31.1756728,40.1224775 40.8367158,30.5032257 40.8367158,18.6372773 C40.8367158,12.5903054 38.3277485,7.1267993 34.2897713,3.22247749" id="路径" stroke="#000000" stroke-width="1.5"></path>
            <path d="M26.4669643,49.6783333 C26.8915332,49.6783333 27.2357143,50.0225144 27.2357143,50.4470833 C27.2357143,50.8716522 26.8915332,51.2158333 26.4669643,51.2158333 L11.8973214,51.2158333 C11.4727525,51.2158333 11.1285714,50.8716522 11.1285714,50.4470833 C11.1285714,50.0225144 11.4727525,49.6783333 11.8973214,49.6783333 L26.4669643,49.6783333 Z M8.32599512,29.295098 C8.62621067,29.5953136 8.62621067,30.0820591 8.32599512,30.3822747 L2.15450732,36.5537625 C1.85429177,36.853978 1.36754619,36.853978 1.06733064,36.5537625 C0.767115091,36.2535469 0.767115091,35.7668014 1.06733064,35.4665858 L7.23881844,29.295098 C7.53903399,28.9948825 8.02577957,28.9948825 8.32599512,29.295098 Z M37.1685976,0.230941336 C37.4688132,0.531156885 37.4688132,1.01790246 37.1685976,1.31811801 L31.8022119,6.68450375 C31.5019963,6.9847193 31.0152507,6.9847193 30.7150352,6.68450375 C30.4148196,6.38428821 30.4148196,5.89754263 30.7150352,5.59732708 L36.0814209,0.230941336 C36.3816365,-0.0692742136 36.8683821,-0.0692742136 37.1685976,0.230941336 Z" id="Combined-Shape" fill="#000000"></path>
            <ellipse id="Oval-" fill="#BDF3FB" cx="19.1821429" cy="18.50125" rx="17.7178571" ry="17.8520833"></ellipse>
            <path d="M25.7646791,17.3899325 C29.7101288,17.6385733 33.5055455,22.0345805 33.5055455,23.079967 C33.5055455,24.1253536 29.6678299,26.9166297 29.6678299,28.8546342 C29.6678299,30.7926387 27.5630789,33.5800534 27.2023675,33.9281506 C27.0227152,34.1015204 24.2521788,35.7740635 23.3977625,34.6758968 C22.5366548,33.5691298 21.866214,29.8588312 21.2288825,28.8546342 C19.959172,26.8540435 17.0085751,25.7863481 15.8351918,25.1212919 C14.6618086,24.4562357 12.7735763,18.2048775 15.8351918,16.501766 C18.8968073,14.7986544 21.8192295,17.1412916 25.7646791,17.3899325 Z M8.00111526,24.1716321 C7.64185047,26.8183809 8.71627511,27.7030607 9.41435617,29.3389734 C10.1124372,30.9748861 14.4597666,34.8406911 13.0856522,34.2283268 C11.7115378,33.6159626 6.48707171,30.178878 6.48707171,30.178878 L4.33211217,27.3457473 C4.33211217,27.3457473 1.93774763,26.0459106 2.79627093,23.1354378 C3.65479422,20.224965 8.36038005,21.5248832 8.00111526,24.1716321 Z M29.2763557,5.21953945 C31.2624059,5.22374349 31.6803236,7.03424436 31.6803236,7.03424436 C31.6803236,7.03424436 36.148334,13.2656371 35.3464198,14.2875978 C34.9609312,14.7788651 34.879713,15.796841 33.2841149,16.0438444 C31.5604632,16.3106708 30.3458411,17.2516487 28.7057752,16.6605672 C26.5747737,15.8925521 25.7474967,14.1199806 23.5493328,13.5448234 C21.3511689,12.9696662 21.3352292,12.2410973 22.1450882,10.3538698 C22.9549472,8.46664236 24.4317259,8.01872442 25.7407074,6.85197755 C27.0496888,5.68523068 27.2903055,5.21533541 29.2763557,5.21953945 Z M12.4986223,6.92592367 C10.7328139,8.95266764 9.98471261,8.79037598 10.6827937,10.4262887 C11.3808747,12.0622013 9.96269113,13.6439111 7.93734375,13.9754679 C5.91199637,14.3070247 2.48073451,15.7077413 2.48073451,15.7077413 L3.2159375,12.0590316 C3.2159375,12.0590316 4.17728671,10.4545684 6.23822893,7.74340454 C8.33202339,4.98902368 10.6774456,3.18814372 12.4986223,2.83091187 C14.7163955,2.39588588 14.2644308,4.89917969 12.4986223,6.92592367 Z" id="Combined-Shape" fill="#8BCB76"></path>
            <ellipse id="Oval-" stroke="#000000" stroke-width="1.5" cx="19.1821429" cy="18.50125" rx="16.9678571" ry="17.1020833"></ellipse>
            <path d="M2.11129097,16.3548979 C1.73672025,16.1197596 1.62368797,15.6254928 1.85882631,15.250922 C2.09396465,14.8763513 2.5882315,14.763319 2.96280222,14.9984574 C3.40146478,15.2738296 3.84954668,15.5401754 4.3066872,15.7973833 C4.69212568,16.0142483 4.82878145,16.5025118 4.61191642,16.8879503 C4.39505139,17.2733887 3.90678792,17.4100445 3.52134944,17.1931795 C3.04194812,16.9234467 2.57180105,16.6439851 2.11129097,16.3548979 Z M6.44805113,18.6680868 C6.04465975,18.4867897 5.86461681,18.012806 6.04591396,17.6094146 C6.22721112,17.2060232 6.70119483,17.0259803 7.10458621,17.2072774 C7.57847933,17.4202603 8.05977458,17.624361 8.54806269,17.8194818 C8.95874648,17.9835918 9.15863403,18.4495542 8.99452404,18.860238 C8.83041404,19.2709218 8.36445162,19.4708093 7.95376783,19.3066993 C7.44464465,19.1032528 6.94259808,18.8903522 6.44805113,18.6680868 Z M11.0550321,20.40237 C10.6325336,20.2716478 10.3960022,19.8231738 10.5267244,19.4006753 C10.6574466,18.9781768 11.1059206,18.7416454 11.5284191,18.8723676 C12.0262898,19.0264102 12.5295408,19.1717201 13.0377173,19.3082223 C13.4648362,19.4229514 13.7180781,19.862206 13.6033489,20.2893248 C13.4886198,20.7164436 13.0493653,20.9696855 12.6222464,20.8549564 C12.0947339,20.7132604 11.5721745,20.5623752 11.0550321,20.40237 Z M15.7939348,21.5848382 C15.3596864,21.5010438 15.0755872,21.081087 15.1593817,20.6468385 C15.2431762,20.21259 15.663133,19.9284909 16.0973815,20.0122854 C16.6108154,20.1113598 17.1276483,20.2018009 17.6473821,20.2835622 C18.0842685,20.3522904 18.3827196,20.762172 18.3139914,21.1990584 C18.2452632,21.6359448 17.8353816,21.9343959 17.3984952,21.8656677 C16.8605689,21.7810445 16.325547,21.6874204 15.7939348,21.5848382 Z M20.6540788,22.2647924 C20.2135424,22.2257936 19.8880318,21.8370534 19.9270306,21.396517 C19.9660295,20.9559806 20.3547696,20.63047 20.7953061,20.6694688 C21.3179008,20.7157319 21.8418809,20.7533953 22.3667066,20.7824478 C22.8082898,20.8068923 23.1464475,21.1846824 23.122003,21.6262656 C23.0975585,22.0678488 22.7197684,22.4060066 22.2781852,22.3815621 C21.7357936,22.3515372 21.1942424,22.3126108 20.6540788,22.2647924 Z M25.5710438,22.4544571 C25.1288114,22.4593264 24.7663638,22.1047734 24.7614945,21.662541 C24.7566252,21.2203085 25.1111782,20.8578609 25.5534106,20.8529917 C26.0792891,20.8472014 26.6044317,20.8327828 27.1282607,20.8097673 C27.5700937,20.7903544 27.9440074,21.1327936 27.9634202,21.5746266 C27.9828331,22.0164596 27.6403939,22.3903733 27.1985609,22.4097861 C26.65718,22.4335729 26.1144794,22.4484735 25.5710438,22.4544571 Z M30.3957929,22.1640533 C29.9561987,22.2125318 29.5605375,21.89547 29.5120589,21.4558757 C29.4635803,21.0162815 29.7806422,20.6206203 30.2202365,20.5721417 C30.7439104,20.5143908 31.2645673,20.4479124 31.7815981,20.3727869 C32.2192614,20.3091937 32.6256101,20.6124374 32.6892034,21.0501007 C32.7527966,21.487764 32.4495529,21.8941127 32.0118896,21.9577059 C31.4766184,22.0354818 30.9377139,22.1042901 30.3957929,22.1640533 Z M35.2379108,21.3702511 C34.8060011,21.4653684 34.3787613,21.1923443 34.2836439,20.7604347 C34.1885266,20.328525 34.4615507,19.9012852 34.8934603,19.8061678 C35.1345165,19.7530812 35.3743409,19.6980423 35.6128679,19.6410649 C36.0430251,19.5383124 36.4750337,19.8037264 36.5777862,20.2338835 C36.6805386,20.6640407 36.4151247,21.0960493 35.9849675,21.1988018 C35.7372268,21.2579801 35.4881858,21.3151342 35.2379108,21.3702511 Z" id="Path-" fill="#000000" fill-rule="nonzero" transform="translate(19.168021, 18.665149) rotate(8.000000) translate(-19.168021, -18.665149) "></path>
        </g>
    </g>
</svg>