<?xml version="1.0" encoding="UTF-8"?>
<svg width="64px" height="64px" viewBox="0 0 64 64" version="1.1" xmlns="http://www.w3.org/2000/svg" xmlns:xlink="http://www.w3.org/1999/xlink">
    <title>printer</title>
    <g id="printer" stroke="none" stroke-width="1" fill="none" fill-rule="evenodd">
        <rect id="Rectangle" x="0" y="0" width="64" height="64"></rect>
        <g id="编组" transform="translate(8.670000, 9.000000)">
            <path d="M36.6092764,-0.401851852 L10.042661,-0.401851852 L9.61476763,4.47222222 C8.57928091,4.47222222 7.64178091,4.89195527 6.96316439,5.57057179 C6.28454786,6.24918832 5.86481481,7.18668832 5.86481481,8.22222222 L5.86422627,13.8721652 L3.34813114,13.8722222 C2.31261424,13.8722222 1.37511424,14.2919553 0.696497719,14.9705718 C0.0178811952,15.6491883 -0.401851852,16.5866883 -0.401851852,17.6222222 L-0.401851852,36.6888889 C-0.401851852,37.7244228 0.0178811952,38.6619228 0.696497719,39.3405393 C1.37511424,40.0191558 2.31261424,40.4388889 3.34814815,40.4388889 L10.042208,40.4382228 L10.0426524,46.0092593 L36.6092742,46.0092593 L36.6091631,40.4382228 L43.3036291,40.4388889 C44.3392376,40.4388889 45.2767376,40.0191558 45.9553541,39.3405393 C46.6339707,38.6619228 47.0537037,37.7244228 47.0537037,36.6888889 L47.0537037,17.6222222 C47.0537037,16.5866883 46.6339707,15.6491883 45.9553541,14.9705718 C45.2767376,14.2919553 44.3392376,13.8722222 43.3037037,13.8722222 L40.7862523,13.8721652 L40.787037,8.22232639 C40.787037,7.18668832 40.367304,6.24918832 39.6886875,5.57057179 C39.0100709,4.89195527 38.0725709,4.47222222 36.6091652,4.47219531 L36.6092764,-0.401851852 Z" id="形状结合" stroke="#FFFFFF" stroke-width="1.5"></path>
            <rect id="Rectangle-" stroke="#000000" stroke-width="1.5" fill="#BDCFD1" x="7.36481481" y="5.97222222" width="31.9222222" height="12.4259259" rx="3"></rect>
            <rect id="Rectangle-" stroke="#000000" stroke-width="1.5" fill="#BDCFD1" x="1.09814815" y="15.3722222" width="44.4555556" height="23.5666667" rx="3"></rect>
            <rect id="Rectangle-" stroke="#000000" stroke-width="1.5" fill="#FFFFFF" x="11.5425926" y="1.09814815" width="23.5666667" height="14.1666667"></rect>
            <rect id="Rectangle-" stroke="#000000" stroke-width="1.5" fill="#8BAEB2" x="8.40925926" y="30.3425926" width="29.8333333" height="7.9"></rect>
            <rect id="Rectangle--" stroke="#000000" stroke-width="1.5" fill="#FFFFFF" x="11.5425926" y="30.3425926" width="23.5666667" height="14.1666667"></rect>
            <path d="M43.3037037,15.3722222 L3.34814815,15.3722222 C2.7268278,15.3722222 2.1643278,15.6240621 1.75715789,16.031232 C1.34998798,16.4384019 1.09814815,17.0009019 1.09814815,17.6222222 L1.09814815,26.4055556 L45.5537037,26.4055556 L45.5537037,17.6222222 C45.5537037,17.0009019 45.3018639,16.4384019 44.894694,16.031232 C44.487524,15.6240621 43.925024,15.3722222 43.3037037,15.3722222 Z" id="Rectangle-" stroke="#000000" stroke-width="1.5" fill="#07EBF5"></path>
            <rect id="Rectangle" fill="#BDCFD1" x="15.3185185" y="33.7703704" width="13.9259259" height="2.08888889"></rect>
            <rect id="Rectangle-" fill="#BDCFD1" x="15.3185185" y="37.9481481" width="6.96296296" height="2.08888889"></rect>
        </g>
    </g>
</svg>