<?xml version="1.0" encoding="UTF-8"?>
<svg width="64px" height="64px" viewBox="0 0 64 64" version="1.1" xmlns="http://www.w3.org/2000/svg" xmlns:xlink="http://www.w3.org/1999/xlink">
    <title>fallIll</title>
    <g id="fallIll" stroke="none" stroke-width="1" fill="none" fill-rule="evenodd">
        <rect id="Rectangle-" x="0" y="0" width="64" height="64"></rect>
        <circle id="Oval-" stroke="#FFFFFF" stroke-width="1.5" fill="#FBDC67" cx="32" cy="32" r="25.75"></circle>
        <rect id="Rectangle" fill="#FFFFFF" x="21" y="35" width="23" height="13" rx="1"></rect>
        <path d="M55.672689,23.9412235 C56.5332091,26.4697498 57,29.1803625 57,32 C57,45.8071187 45.8071187,57 32,57 C19.5735931,57 9.26471863,47.9337662 7.32720779,36.0551299 L7.40137137,36.2731744 C10.816298,46.0145228 20.0923762,53 31,53 C44.8071187,53 56,41.8071187 56,28 C56,26.6192881 55.8880712,25.2647186 55.6727922,23.9448701 Z" id="Combined-Shape" fill="#F2CC5B"></path>
        <path d="M7.05866724,30.2737452 C7.11010098,29.5195762 7.19498174,28.7745924 7.31183765,28.0402655 L22.11867,37.8865411 L21.0112128,39.5519355 L7.05866724,30.2737452 L7.05866724,30.2737452 Z" id="Combined-Shape" fill="#FFFFFF"></path>
        <path d="M11.377071,46.1355057 C10.9737171,45.548161 10.5948034,44.9427212 10.2417966,44.3206531 L10.2367641,44.2881231 L21.6781704,42.5181036 L21.983939,44.4945918 L11.377071,46.1355057 Z" id="Combined-Shape" fill="#FFFFFF"></path>
        <path d="M56.6881623,28.0402655 C56.8050183,28.7745924 56.889899,29.5195762 56.9413328,30.2737452 L42.9887872,39.5519355 L41.88133,37.8865411 L56.6881623,28.0402655 L56.6881623,28.0402655 Z" id="Combined-Shape" fill="#FFFFFF"></path>
        <path d="M53.7730726,44.2944136 C53.4174815,44.9228032 53.0354729,45.5342713 52.6285554,46.1273094 L43.2222601,44.5685775 L43.5492243,42.595485 L53.7738337,44.2898209 L53.7730726,44.2944136 L53.7730726,44.2944136 Z" id="Combined-Shape" fill="#FFFFFF"></path>
        <path d="M37,21 C39.862793,21 45.2407227,24.4472656 47.1240234,27.3154297" id="Path-" stroke="#4C4023" stroke-width="3" stroke-linecap="round"></path>
        <path d="M17,21 C19.862793,21 25.2407227,24.4472656 27.1240234,27.3154297" id="Path--" stroke="#4C4023" stroke-width="3" stroke-linecap="round" transform="translate(22.062012, 24.157715) scale(-1, 1) translate(-22.062012, -24.157715) "></path>
    </g>
</svg>