<?xml version="1.0" encoding="UTF-8"?>
<svg width="64px" height="64px" viewBox="0 0 64 64" version="1.1" xmlns="http://www.w3.org/2000/svg" xmlns:xlink="http://www.w3.org/1999/xlink">
    <title>drcap</title>
    <g id="drcap" stroke="none" stroke-width="1" fill="none" fill-rule="evenodd">
        <g id="编组" transform="translate(6.712011, 10.427390)" fill-rule="nonzero" stroke="#FFFFFF" stroke-width="1.5">
            <path d="M25.0310768,-0.25 C23.75809,-0.25 22.6839282,-0.0645127797 21.5237401,0.382153092 L2.14403845,8.07701387 C0.774701169,8.69949009 0.0808656489,9.86639924 -0.0704282593,11.0300575 C-0.215082178,11.6314439 -0.258677867,12.3754351 -0.249128475,13.2824815 C-0.245092811,13.6658079 -0.22772361,14.0603564 -0.199347232,14.4731042 L-0.0954742225,15.7513933 C-0.0578862152,16.4762228 0.172708184,17.2232031 0.631153211,17.8610449 C1.03374963,18.4211835 1.61122846,18.9006094 2.39669777,19.2030106 L6.93974759,20.9185611 L6.94516456,33.528575 C6.99493642,34.4474185 7.32973501,35.3131986 8.57081787,36.2899478 C12.7398862,39.4626506 19.6107858,41.5947618 25.6178775,41.5947618 C28.7071947,41.5947618 32.0378075,41.0279636 35.1274418,40.0442315 L34.9114688,41.1732672 C34.9428762,42.0696585 35.3651069,42.9131651 36.1457499,43.5009565 C36.769994,43.9709861 37.6351825,44.2814232 38.7764034,44.2764194 C39.6216617,44.2166448 40.4025146,43.8002527 40.957395,43.0976959 C41.4580275,42.4638246 41.7770514,41.589917 41.7555975,40.5379028 L40.9662502,37.4954401 C41.5465643,37.1545391 42.1683933,36.7483908 43.0907817,36.0835702 C43.8828614,35.4489525 44.2960801,34.4877623 44.2960801,33.4419108 L44.2955469,21.0688406 L48.9478076,19.2381507 C49.7169635,18.9229084 50.286534,18.42759 50.6812054,17.8040258 C51.080606,17.1729897 51.2997888,16.4029389 51.3400919,15.5391544 L51.4299419,13.116694 C51.4391766,11.9291742 51.380068,11.0931967 51.1736754,10.4876517 C50.855876,9.42294456 50.0976679,8.59482923 48.9807538,8.14540608 L28.1365349,0.265870365 C27.2277078,-0.0787957622 26.1455213,-0.25 25.0310768,-0.25 Z" id="形状结合"></path>
        </g>
        <rect id="Rectangle" x="0" y="0" width="64" height="64"></rect>
        <path d="M15.1516855,30.8585106 L15.1516855,43.7487967 C15.1516855,44.3389674 15.3612775,44.9137541 15.9152231,45.3088865 C19.7829032,48.4027438 26.5348082,50.5221521 32.3298881,50.5221521 C38.1123613,50.5221521 44.7318654,48.4142014 48.7154737,45.4503182 C49.2911601,45.054206 49.5080906,44.4697148 49.5080906,43.8693011 L49.5080906,31.0792182 L36.0350848,36.4291815 C34.2037414,37.2058007 31.9411577,37.1950542 29.8961605,36.421622 L15.1516855,30.8585106 Z" id="Shape" stroke="#000000" stroke-width="1.5" fill="#07EBF5" fill-rule="nonzero"></path>
        <path d="M31.7430873,15.6976537 C30.7276288,15.6976537 29.8373614,15.8276978 28.8263198,16.2099452 L9.06469031,20.7002465 C8.73761962,20.8043188 8.43706227,21.0613323 8.24416147,21.5218266 C8.12771644,21.7998052 8.04728129,22.168619 8.00500933,22.585315 C7.89617801,23.6581199 8.02698082,25.093562 8.11165269,26.0065203 C8.11920633,26.2524625 8.19381828,26.8331321 8.54956916,27.3606476 C8.78256258,27.7061356 9.12966125,28.0311417 9.64763903,28.2305602 L30.0699817,35.9421828 C31.8941576,36.611026 33.9700741,36.6038541 35.6561083,35.9381292 L54.8852769,28.3547106 C55.4417147,28.1604154 55.8101823,27.8443449 56.058574,27.5128438 C56.4878833,26.9398916 56.5484896,26.3048071 56.5484896,26.0850015 C56.5484896,25.957375 56.5610586,25.7312564 56.5760934,25.4465554 C56.6195592,24.6234805 56.6833649,23.3563363 56.5977419,22.4392889 C56.5561574,21.9939063 56.4965641,21.6110698 55.9139061,20.7535225 L34.5531285,16.2113833 C33.6535227,15.8319382 32.6370139,15.6976537 31.7430873,15.6976537 Z" id="Shape" stroke="#000000" stroke-width="1.5" fill="#07EBF5" fill-rule="nonzero"></path>
        <path d="M31.7430873,11.6773902 C30.7103762,11.6773902 29.8071463,11.8118908 28.7746814,12.2093839 L9.64049234,19.801572 C9.13027501,19.9979608 8.78887563,20.3021985 8.55957813,20.6160655 C8.17129048,21.1475613 8.11098404,21.7207198 8.11098404,21.9443373 C8.11098404,22.1594692 8.17160259,22.7799268 8.54956916,23.3403842 C8.78256258,23.6858721 9.12966125,24.0108783 9.64763903,24.2102968 L30.0699817,31.9219194 C31.8941576,32.5907626 33.9700741,32.5835907 35.6561083,31.9178658 L54.8852769,24.3344472 C55.4417147,24.140152 55.8101823,23.8240815 56.058574,23.4925804 C56.4878833,22.9196282 56.5484896,22.2845437 56.5484896,22.0647381 C56.5484896,21.5227233 56.4022802,21.077738 56.1400768,20.7188288 C55.8842515,20.3686501 55.5101905,20.0914839 54.9970825,19.9135923 L34.607617,12.2144664 C33.6947289,11.8171666 32.6551103,11.6773902 31.7430873,11.6773902 Z" id="Shape" stroke="#000000" stroke-width="1.5" fill="#07EBF5" fill-rule="nonzero"></path>
        <ellipse id="Oval" stroke="#000000" stroke-width="1.5" fill="#FFDC64" fill-rule="nonzero" cx="45.1369993" cy="44.8823861" rx="1.92339982" ry="1.95462966"></ellipse>
        <path d="M44.645024,45.1521646 L43.1257612,51.3907882 C43.0906849,51.8503583 43.2865014,52.3328264 43.6278249,52.6832341 C43.8886612,52.9510126 44.1950624,53.2110314 45.2797766,53.2111909 C45.7038981,53.2111909 46.1399888,53.0144618 46.4625096,52.6833571 C46.7575156,52.3804996 46.9963841,51.9895413 46.9660188,51.1089132 L44.645024,45.1521646 Z" id="Shape" stroke="#000000" stroke-width="1.5" fill="#FFDC64" fill-rule="nonzero"></path>
        <path d="M35.9089262,22.1716755 C35.9089262,21.0661101 34.3202926,20.161533 32.4337797,20.161533 C30.5472667,20.161533 28.8593116,21.0661101 28.8593116,22.1716755 C28.8593116,23.2772409 30.4479451,24.181818 32.3344581,24.181818 C32.930217,24.181818 33.5259759,24.0812807 34.0224132,23.9808297 C34.0224132,23.9808297 35.1814264,23.5902754 35.4667078,23.2798867 C35.9089262,22.7987493 35.9089262,22.2722129 35.9089262,22.1716755 Z" id="Shape" fill="#000000" fill-rule="nonzero"></path>
        <polyline id="路径-" stroke="#000000" stroke-width="1.5" points="34.8032488 23.1179131 45.140187 28.1613334 45.140187 42.5321558"></polyline>
    </g>
</svg>