<?xml version="1.0" encoding="UTF-8"?>
<svg width="64px" height="64px" viewBox="0 0 64 64" version="1.1" xmlns="http://www.w3.org/2000/svg" xmlns:xlink="http://www.w3.org/1999/xlink">
    <title>balance</title>
    <g id="balance" stroke="none" stroke-width="1" fill="none" fill-rule="evenodd">
        <rect id="Rectangle" x="0" y="0" width="64" height="64"></rect>
        <g id="编组" transform="translate(4.032224, 10.666667)">
            <path d="M9.42746665,1.95619328 C8.79020563,1.34326997 7.96401133,1.05053003 7.14632872,1.07263565 C6.33620404,1.09453694 5.53443442,1.42549038 4.93304024,2.06030479 L0.754312354,6.60215802 L1.87206486,9.65124886 L7.35462144,4.1260045 L12.0672667,9.17975345 L14.2618495,7.13358644 L9.42746665,1.95619328 Z" id="Path-" stroke="#FFFFFF" stroke-width="1.5" fill-rule="nonzero"></path>
            <path d="M28.4011098,-0.75 C29.6786118,-0.75 30.7527499,-0.307781254 31.5197024,0.389448286 C32.3405617,1.13568401 32.8177764,2.17860891 32.8177764,3.33306818 L32.8177764,3.33306818 L32.8185051,5.39439583 C33.7212788,6.13959565 34.4291908,7.11232085 34.8549271,8.22459348 L34.8549271,8.22459348 L48.7458949,11.9440947 C49.0234457,12.0183965 49.2638665,12.1620746 49.4536956,12.3513215 C49.7332599,12.4906596 49.9980664,12.6742805 50.2364528,12.9027704 L50.2364528,12.9027704 L54.5912123,17.4867125 C55.1500187,18.142963 55.309208,18.657337 55.309208,19.203415 C55.2648885,21.8101142 54.6108267,23.7292813 53.4272054,25.0167128 C52.2193932,26.3304567 50.4432473,27.025319 48.0575365,27.025319 C45.675836,27.025319 43.8989354,26.3328628 42.6866625,25.02647 C41.4964287,23.7438275 40.8340838,21.8330797 40.7786043,19.2554532 C40.7623091,18.4991005 41.0952216,17.8163353 41.6299284,17.3616745 L41.6299284,17.3616745 L44.6817359,14.1341153 L35.2385831,11.6065557 C34.9970857,13.3517945 34.1053796,14.8767311 32.8186213,15.9388542 L32.8186213,15.9388542 L32.8178904,36.0871419 C32.8206941,36.8398115 33.1217896,37.5269874 33.6078356,38.0249978 C34.0838423,38.5127218 34.7386716,38.8190104 35.4575966,38.8190328 L35.4575966,38.8190328 L37.2058717,38.8055556 C38.3214809,38.8055556 39.3363828,39.255709 40.087716,39.9932102 C40.8382182,40.7298958 41.3248413,41.7541387 41.3793447,42.8968509 L41.3793447,42.8968509 L41.3854582,47.4166667 L15.8844431,47.4166667 L15.8844431,43.1111111 C15.8844431,41.9682671 16.3168085,40.9306959 17.0186347,40.1617638 C17.7378529,39.373777 18.7394159,38.8676461 19.8539,38.8108697 L19.8539,38.8108697 L21.4814499,38.8065478 C22.1935459,38.80939 22.8182445,38.6058459 23.3092393,38.248931 C23.7887814,37.9003414 24.1380671,37.4078072 24.319158,36.8370317 L24.319158,36.8370317 L24.3173999,16.0930281 C22.6881191,14.8441948 21.6377764,12.8780336 21.6377764,10.6666667 C21.6377764,9.75832707 21.8151277,8.89143208 22.1369121,8.09859506 L22.1369121,8.09859506 L7.55832776,4.19614247 C7.13597468,4.08307634 6.79943483,3.80952177 6.59674978,3.45864545 C6.39406474,3.10776914 6.32523449,2.67957108 6.43830062,2.257218 C6.54207117,1.86958811 6.78107757,1.55430457 7.0908604,1.3483362 C7.41873211,1.13034091 7.82603285,1.03540779 8.23636841,1.10622244 L8.23636841,1.10622244 L24.1629513,5.36224579 L24.3177764,3.33333333 C24.3177764,2.20575197 24.7748191,1.18491864 25.5137571,0.445980643 C26.2526951,-0.292957349 27.2735284,-0.75 28.4011098,-0.75 Z M47.894587,15.1050372 L46.3037272,16.786 L49.659997,16.786 L47.894587,15.1050372 Z M12.0466848,5.89348612 L2.28125958,5.89449144 C1.6085778,5.91399621 1.00873552,6.20621037 0.583866394,6.66165171 C0.161977098,7.1138988 -0.0873849465,7.72709146 -0.0642202019,8.39403561 C0.022371018,10.8874861 0.706013891,12.7350801 1.91030989,13.975765 C3.12976419,15.2320661 4.90260419,15.8985136 7.26696979,15.8985136 C9.64455691,15.8985136 11.4106847,15.2240937 12.6073755,13.9546344 C13.7868548,12.7034331 14.4328731,10.8393316 14.4632846,8.31920274 C14.4633393,7.64281163 14.1928463,7.03864739 13.7555177,6.60131711 C13.3181894,6.16398704 12.7140257,5.89349099 12.0466848,5.89348612 Z" id="wb" stroke="#FFFFFF" stroke-width="1.5"></path>
            <path d="M52.8925418,18.2867484 L43.1681083,18.2871339 C42.9177998,18.2943623 42.6935276,18.4014542 42.5327214,18.5693367 C42.3704474,18.7387518 42.272804,18.9700727 42.2782563,19.2231439 C42.3237366,21.3361977 42.8000559,22.94346 43.7861909,24.0061577 C44.7502867,25.045105 46.1874593,25.525319 48.0575365,25.525319 C49.9279973,25.525319 51.3635286,25.0450861 52.3229603,24.0015069 C53.3032448,22.9352461 53.7719634,21.3221622 53.809189,19.1980344 C53.8076513,18.9468199 53.7053513,18.7198634 53.5407231,18.555235 C53.3748391,18.3893508 53.1456723,18.286749 52.8925418,18.2867484 Z" id="Rectangle-" stroke="#000000" stroke-width="1.5" fill="#BDCFD1"></path>
            <path d="M42.4481571,18.6803935 L46.834117,14.0433491 C47.466634,13.3746222 48.5215006,13.3452682 49.1902275,13.9777853 C49.2120394,13.9984161 49.2332899,14.0196325 49.2539556,14.0414113 L53.655846,18.6803935 L53.655846,18.6803935" id="Path-" stroke="#000000" stroke-width="1.5"></path>
            <path d="M12.0466738,7.39348612 L2.30810038,7.39448868 C2.05961949,7.40606688 1.83838896,7.51582466 1.68070088,7.68485946 C1.52067454,7.85640079 1.42608925,8.08899018 1.43487585,8.34196801 C1.50526463,10.3688587 1.99705208,11.9115206 2.98663674,12.9310064 C3.96106309,13.9348758 5.40055408,14.3985136 7.26696979,14.3985136 C9.13347939,14.3985136 10.5637846,13.9357237 11.5158936,12.9257188 C12.4836222,11.8991445 12.9387303,10.3449079 12.9633939,8.30110285 C12.9633393,8.05702383 12.8607383,7.82785869 12.6948554,7.66197515 C12.5289714,7.49609041 12.2998045,7.39348797 12.0466738,7.39348612 Z" id="Rectangle-" stroke="#000000" stroke-width="1.5" fill="#BDCFD1"></path>
            <path d="M1.61589635,7.74284579 L6.02197694,3.09191367 C6.65502344,2.42368797 7.70991299,2.39516959 8.37813869,3.02821609 C8.4031504,3.05191104 8.42742136,3.07637585 8.45091658,3.10157527 L12.6528799,7.60832193 L12.6528799,7.60832193" id="Path-" stroke="#000000" stroke-width="1.5"></path>
            <path d="M28.4011098,0.75 C27.687742,0.75 27.0419086,1.03914943 26.5744172,1.50664082 C26.1069259,1.9741322 25.8177764,2.61996553 25.8177764,3.33333333 L25.8177764,40.5833333 L31.3177764,40.5833333 L31.3177764,3.33333333 C31.3177764,2.61442709 31.0220703,1.96424666 30.5106932,1.4993584 C29.9918854,1.02771491 29.2592912,0.75 28.4011098,0.75 Z" id="Rectangle-" stroke="#000000" stroke-width="1.5" fill="#FFF9ED"></path>
            <line x1="7.96777642" y1="2.66666667" x2="48.3364462" y2="13.4735705" id="Path-" stroke="#000000" stroke-width="1.66666667" stroke-linecap="round"></line>
            <path d="M25.8709818,36.8166419 C25.6897068,37.7194004 25.2358279,38.5201042 24.5836801,39.1268188 C23.7982284,39.8575503 22.7219915,40.3108296 21.475873,40.3065374 L19.8981885,40.310757 C19.200781,40.3549487 18.5772461,40.6791732 18.1265367,41.1729776 C17.6653387,41.6782735 17.3844431,42.3609481 17.3844431,43.1111111 L17.3844431,45.9166667 L39.8834279,45.9166667 L39.8793978,42.937147 C39.8365384,42.2009576 39.5223599,41.5401467 39.0369552,41.0636782 C38.5595686,40.5950802 37.915662,40.3055556 37.2058717,40.3055556 L35.4691788,40.3189881 C34.3206716,40.3190104 33.2845401,39.8419597 32.5341514,39.0716693 C31.9329567,38.4545299 31.5160718,37.6491632 31.2058717,36.75 L25.8709818,36.8166419 Z" id="路径" stroke="#000000" stroke-width="1.5" fill="#BDCFD1"></path>
            <circle id="Oval-" stroke="#000000" stroke-width="1.5" fill="#FFC300" cx="28.4711098" cy="10.6666667" r="5.33333333"></circle>
        </g>
    </g>
</svg>