<?xml version="1.0" encoding="UTF-8"?>
<svg width="64px" height="65px" viewBox="0 0 64 65" version="1.1" xmlns="http://www.w3.org/2000/svg" xmlns:xlink="http://www.w3.org/1999/xlink">
    <title>pointingRight</title>
    <g id="pointingRight" stroke="none" stroke-width="1" fill="none" fill-rule="evenodd" transform="translate(0.000000, 1.000000)">
        <rect id="Rectangle-" x="0" y="0" width="64" height="64"></rect>
        <path d="M34.8002073,22.4461143 C34.8260976,22.4158802 34.8521889,22.386175 34.8787066,22.3568552 C36.6760782,20.3687912 37.9921266,18.1441257 38.4739595,15.4636106 C38.7175041,14.1093671 38.6382489,12.8342587 38.2809116,11.7557139 C37.905323,10.6220818 37.2245297,9.70039605 36.2845683,9.09927445 C35.4539817,8.56823336 34.6233812,8.38458034 33.9008836,8.4972709 C33.1364895,8.61649621 32.4612402,9.05525416 31.9978678,9.86158843 C29.7056293,13.8497203 26.2834428,16.6064672 22.4162854,19.007075 C20.1315494,20.4254146 17.7753177,21.8977507 15.9381973,23.8104707 C14.1221718,25.7013398 12.0646146,26.4743478 9.61937088,26.6346843 C8.16552596,26.7299414 7.3727244,26.8920913 6.86683681,27.322202 C6.36915052,27.7453398 6.07917222,28.440343 5.92275131,29.8512867 C5.51471824,33.5331018 5.26074809,37.2485777 5.24990968,40.9508521 C5.2451351,42.6950794 5.57706378,44.4453638 5.9122247,46.1871473 C6.00365006,46.6622718 6.09498206,47.1367582 6.17868506,47.6103159 C6.27887275,48.1771236 6.49651558,48.6605514 6.87275645,49.0250252 C7.200688,49.3427006 7.65580696,49.5835003 8.31278675,49.6714298 C8.74126943,49.7287023 9.17174642,49.7826704 9.602976,49.8367243 C11.6373841,50.091734 13.6902628,50.3440871 15.606857,50.980336 C21.6719862,52.9936507 27.7901346,53.2180746 34.032427,52.28462 C35.8304203,52.0158627 37.2162102,51.233192 38.12882,50.0865906 C39.0429162,48.9381217 39.4941059,47.4093186 39.3550301,45.5983043 C39.3238408,45.1907406 39.4927322,44.6998872 39.726329,44.359603 C41.0513573,42.4294157 41.4069013,40.4448783 40.6025653,38.2086775 C40.5183558,37.9745243 40.595661,37.6043624 40.7353839,37.3970147 C41.7385469,35.908232 42.1491976,34.3229426 41.9447775,32.5569806 C41.9036083,32.2009136 41.6912416,31.891933 41.7970779,31.7773241 C41.9077327,31.6574972 42.2454711,31.8204107 42.6528426,31.8201688 C43.9818117,31.8193452 45.3108077,31.8221802 46.6397999,31.8250143 C49.6139668,31.8313567 52.5881146,31.8376755 55.5616836,31.8031595 C57.3789895,31.7821584 58.8429109,30.9633507 59.6996123,29.7821082 C60.5805999,28.5673794 60.837342,26.9573936 60.161481,25.3592152 C59.7149175,24.3031986 59.053464,23.605033 58.2525468,23.15332 C57.3760671,22.6589902 56.3168733,22.4663754 55.1543585,22.4672621 C48.4836421,22.4713803 41.8125743,22.4694424 35.1415066,22.4592679 C35.0289084,22.4591039 34.9163326,22.454235 34.8002073,22.4461143 Z" id="Fill-" stroke="#FFFFFF" stroke-width="1.5" fill="#FBDC67"></path>
        <line x1="39.1042256" y1="37.625235" x2="30.899932" y2="37.625235" id="路径-" stroke="#D1AD40" stroke-width="1.5" stroke-linecap="round"></line>
        <line x1="37.8660047" y1="44.9586572" x2="30.899932" y2="44.9586572" id="路径-" stroke="#D1AD40" stroke-width="1.5" stroke-linecap="round"></line>
        <line x1="40.5100338" y1="31" x2="30.899932" y2="31" id="路径-" stroke="#D1AD40" stroke-width="1.5" stroke-linecap="round"></line>
    </g>
</svg>