<?xml version="1.0" encoding="UTF-8"?>
<svg width="64px" height="64px" viewBox="0 0 64 64" version="1.1" xmlns="http://www.w3.org/2000/svg" xmlns:xlink="http://www.w3.org/1999/xlink">
    <title>steamship</title>
    <g id="steamship" stroke="none" stroke-width="1" fill="none" fill-rule="evenodd">
        <rect id="矩形" x="0" y="0" width="64" height="64"></rect>
        <g id="编组" transform="translate(6.294027, 9.219458)">
            <path d="M1.40614027,30.154285 C1.15393918,30.0390329 0.878986252,29.998525 0.612219779,30.0292033 C0.230849851,30.073061 -0.133788912,30.2624065 -0.391302029,30.5868443 C-0.648815145,30.911282 -0.750445125,31.3093831 -0.706587383,31.6907531 C-0.678636388,31.9338041 -0.61213767,32.1851804 -0.232935596,32.581366 C-0.424177886,32.9163408 -0.473336076,33.3011341 -0.367385645,33.6824405 C-0.30306037,33.9139416 -0.177930639,34.1508096 0.0258357724,34.3677569 L0.0265826279,37.5228523 C-0.153590103,37.6142482 -0.318124583,37.7437475 -0.454363938,37.9100482 C-0.78342526,38.3117174 -0.823083828,38.9286922 -0.443568567,40.1460835 C-0.528385476,40.3832229 -0.550615809,40.6346408 -0.513766042,40.8770787 C-0.456079573,41.2566032 -0.253609414,41.6141209 0.079971258,41.859675 C1.6305027,43.0010461 3.4873154,43.5011848 5.30495235,43.3770971 C6.91059462,43.267482 8.49054166,42.6706343 10.1970481,41.5718623 C11.6607387,42.7869035 13.4570293,43.3946691 15.2533903,43.3947034 C17.0345958,43.3947375 18.8225077,42.7984759 20.6914848,41.5726354 C22.0592154,42.6672036 23.874135,43.2474717 25.7301092,43.2960131 C27.815646,43.3505586 29.9383793,42.7334956 31.5041804,41.4797526 C31.788047,41.2524595 31.9674376,40.9430429 32.035579,40.6127005 C32.4424968,40.8663227 32.8672835,41.0795947 33.304254,41.2525169 C33.2915395,41.291482 33.28031,41.3312771 33.2706445,41.3718536 C33.1746626,41.7747932 33.2510908,42.1784909 33.4522494,42.5054492 C33.653408,42.8324075 33.979297,43.0826264 34.3822367,43.1786083 C36.7775326,43.7491779 39.3151783,43.1863981 41.6666635,41.5850414 C43.1343612,42.7964792 44.9336066,43.4001587 46.7310523,43.3953495 C48.7241995,43.3900167 50.7152078,42.6365499 52.2491616,41.1343026 C52.5311128,40.8581792 52.6982134,40.5013533 52.6982134,40.0014996 C52.6982134,39.7603751 52.6532708,39.4716397 52.5519425,39.1261923 C52.6480111,38.9261966 52.6972822,38.7092184 52.6995531,38.4917494 C52.7024031,38.218836 53.1630538,37.7777898 51.6004938,37.273289 L51.7783349,34.1023514 C51.9415485,33.8912336 52.042415,33.6434472 52.0771811,33.3867099 C52.119655,33.0730523 52.0634697,32.7460349 51.9017809,32.4561998 C52.1487723,32.2021899 52.2896941,31.8778472 52.3192043,31.5436663 C52.3529721,31.1612709 52.2408609,30.7659935 51.974867,30.4484716 C51.7088731,30.1309498 51.3393596,29.9513031 50.9569642,29.9175353 C50.5745688,29.8837675 50.1792914,29.9958787 49.8617695,30.2618726 C49.510278,30.5563236 49.1280627,30.7936106 48.727028,30.9740569 L52.7371945,18.5929409 L47.9242846,18.5921026 L45.9312539,10.4055542 L20.668785,10.405016 L20.6646303,7.71540329 C20.6195573,7.02795029 20.3084688,6.41296449 19.8327706,5.97311852 C19.3678982,5.5432824 18.7462011,5.28054162 18.0631159,5.28054162 L14.5693789,5.2861719 C13.8819369,5.33125128 13.2669616,5.64233793 12.8271214,6.11802981 C12.3972853,6.58290223 12.1345445,7.20459926 12.1345445,7.88768448 L12.1340808,10.4050635 L5.90934451,10.4055906 L2.91574244,21.7801823 L1.03631694,21.780775 C1.01984035,22.6884819 1.02431947,23.2662171 1.02892289,23.8544762 C1.03559144,24.706634 1.0424009,25.5812409 0.983603938,27.5479131 C0.959784095,28.3446519 1.09788108,29.213907 1.40614027,30.154285 Z M12.7774016,-0.75 C12.3631881,-0.75 11.9881881,-0.582106781 11.7167415,-0.310660172 C11.4452949,-0.0392135624 11.2774016,0.335786438 11.2774016,0.75 C11.2774016,1.16421356 11.4452949,1.53921356 11.7167415,1.81066017 C11.9881881,2.08210678 12.3631881,2.25 12.7774016,2.25 C13.4887374,2.25 14.0451417,2.38330903 14.4025199,2.7595296 C14.768439,3.14474145 14.9024016,3.74406759 14.9024016,4.52658168 C14.9024016,4.94079525 15.0702949,5.31579525 15.3417415,5.58724186 C15.6131881,5.85868847 15.9881881,6.02658168 16.4024016,6.02658168 C16.8166152,6.02658168 17.1916152,5.85868847 17.4630618,5.58724186 C17.7345084,5.31579525 17.9024016,4.94079525 17.9024016,4.52658168 C17.9024016,2.84793913 17.4080074,1.55254117 16.5480933,0.662833363 C15.6753237,-0.240175246 14.4065474,-0.75 12.7774016,-0.75 Z M10.0399105,-0.75 L5.95765774,-0.743082036 C5.56535034,-0.705271972 5.21679936,-0.516939096 4.97155322,-0.235780161 C4.7415807,0.027868549 4.60215918,0.372635297 4.60215918,0.75 C4.60215918,1.16421356 4.7700524,1.53921356 5.04149901,1.81066017 C5.31294562,2.08210678 5.68794562,2.25 6.10215918,2.25 L10.1844118,2.24308205 C10.5767192,2.20527201 10.9252703,2.01693912 11.1705164,1.73578016 C11.4004889,1.47213145 11.5399105,1.1273647 11.5399105,0.75 C11.5399105,0.335786438 11.3720172,-0.0392135624 11.1005706,-0.310660172 C10.829124,-0.582106781 10.454124,-0.75 10.0399105,-0.75 Z" id="形状结合" stroke="#FFFFFF" stroke-width="1.5" fill-rule="nonzero"></path>
            <polygon id="Mask" stroke="#000000" stroke-width="1.5" fill="#E9F4F5" fill-rule="nonzero" points="47.7059731 24.0358608 3.70597307 24.6723685 7.06567557 11.9055416 44.7526262 11.9055416"></polygon>
            <path d="M25.7059731,18.7805416 L25.7059731,20.7805416 L24.7059731,20.7805416 L24.7059731,18.7805416 L25.7059731,18.7805416 Z M31.7059731,18.7805416 L31.7059731,20.7805416 L30.7059731,20.7805416 L30.7059731,18.7805416 L31.7059731,18.7805416 Z M37.7059731,18.7805416 L37.7059731,20.7805416 L36.7059731,20.7805416 L36.7059731,18.7805416 L37.7059731,18.7805416 Z" id="Combined-Shape" fill="#FFFFFF" fill-rule="nonzero" opacity="0.200000003"></path>
            <path d="M50.6747063,20.0927613 L40.5239264,20.0927613 L37.1914385,23.2805416 L2.52522719,23.2805416 C2.52598848,23.4741751 2.52743073,23.6579281 2.52887696,23.8427384 C2.53564764,24.7079459 2.54263145,25.5959471 2.48293403,27.5927381 C2.43036353,29.3511443 3.37347198,31.4903072 5.21355214,34.0305416 L46.1605274,34.0305416 L50.6747063,20.0927613 Z" id="Path" stroke="#000000" stroke-width="1.5" fill="#07EBF5" fill-rule="nonzero"></path>
            <path d="M46.5783135,21.7805416 C47.2011027,21.7805416 47.7059731,22.285412 47.7059731,22.9082012 C47.7059731,23.5309904 47.2011027,24.0358608 46.5783135,24.0358608 C45.9555243,24.0358608 45.4506539,23.5309904 45.4506539,22.9082012 C45.4506539,22.285412 45.9555243,21.7805416 46.5783135,21.7805416 Z M43.1953348,21.7805416 C43.818124,21.7805416 44.3229943,22.285412 44.3229943,22.9082012 C44.3229943,23.5309904 43.818124,24.0358608 43.1953348,24.0358608 C42.5725456,24.0358608 42.0676752,23.5309904 42.0676752,22.9082012 C42.0676752,22.285412 42.5725456,21.7805416 43.1953348,21.7805416 Z" id="Combined-Shape" fill="#FFFFFF" fill-rule="nonzero"></path>
            <path d="M14.7416874,6.78054162 L18.0631159,6.78054162 C18.674574,6.78054162 19.1702588,7.27622636 19.1702588,7.88768448 L19.1702588,11.9055416 L19.1702588,11.9055416 L13.6345445,11.9055416 L13.6345445,7.88768448 C13.6345445,7.27622636 14.1302292,6.78054162 14.7416874,6.78054162 Z" id="Rectangle-" stroke="#000000" stroke-width="1.5" fill="#B9B9B9" fill-rule="nonzero"></path>
            <path d="M0.776904157,33.429312 L10.1509544,32.9050054 L50.8181904,32.9050054 L50.8181904,40.3088515 L41.6474688,39.7709262 L32.8706474,39.7709262 L31.1723836,38.7990709 C29.2043843,39.6796092 27.5340962,40.1828694 26.1615195,40.3088515 C24.7889428,40.4348337 22.9297723,40.2555252 20.5840078,39.7709262 L10.1509544,40.3088515 L0.776904157,41.2513239 L0.776904157,33.429312 Z" id="矩形" fill="#94E8F4" fill-rule="nonzero"></path>
            <path d="M1.07184206,33.3218314 C3.55377334,35.0743435 6.99128675,34.8545567 9.23632723,32.6824707 C9.67082723,32.262038 10.3516638,32.262038 10.7861638,32.6823649 C13.2771349,35.0928457 17.227933,35.0944322 19.7209138,32.6825765 C20.1554138,32.2623553 20.8363561,32.2619322 21.2708561,32.6825765 C23.7620388,35.0928457 27.7127311,35.0943265 30.2057118,32.6824707 C30.6398945,32.262038 31.3207311,32.2618265 31.7555484,32.6825765 C34.2467311,35.0928457 38.1976349,35.0943265 40.6904042,32.6824707 C41.1249042,32.262038 41.8057407,32.2619322 42.2402407,32.6824707 C44.5420343,34.9092737 48.0969768,35.0843578 50.5907477,33.1854246" id="路径" stroke="#000000" stroke-width="1.5" stroke-linecap="round" fill-rule="nonzero"></path>
            <path d="M0.969201273,40.6516726 C3.4582578,42.483907 6.96017094,42.2885075 9.23632723,40.0863169 C9.67082723,39.6658842 10.3516638,39.6658842 10.7861638,40.0862111 C13.2771349,42.4966919 17.227933,42.4982784 19.7209138,40.0864226 C20.1554138,39.6662015 20.8363561,39.6657784 21.2708561,40.0864226 C23.6145667,42.3540097 28.0684815,42.3091331 30.5666353,40.3088515 M34.729818,41.7194349 C36.7952753,42.2114355 39.0561855,41.66749 40.6904042,40.0863169 C41.1249042,39.6658842 41.8057407,39.6657784 42.2402407,40.0863169 C44.7368176,42.5015572 48.7076061,42.5031438 51.1996349,40.0626246" id="形状" stroke="#000000" stroke-width="1.5" stroke-linecap="round" fill-rule="nonzero"></path>
            <path d="M0.783591088,31.5193817 C3.28156006,33.5020725 6.90299771,33.3534382 9.23632723,31.0959322 C9.67082723,30.6754996 10.3516638,30.6754996 10.7861638,31.0958265 C13.2771349,33.5063072 17.227933,33.5078938 19.7209138,31.096038 C20.1554138,30.6758169 20.8363561,30.6753938 21.2708561,31.096038 C23.7620388,33.5063072 27.7127311,33.507788 30.2057118,31.0959322 C30.6398945,30.6754996 31.3207311,30.675288 31.7555484,31.096038 C34.2467311,33.5063072 38.1976349,33.507788 40.6904042,31.0959322 C41.1249042,30.6754996 41.8057407,30.6753938 42.2402407,31.0959322 C44.6151234,33.3934431 48.3240013,33.5068696 50.8250187,31.4117209" id="路径" stroke="#FFFFFF" stroke-width="1.5" stroke-linecap="round" fill-rule="nonzero"></path>
            <path d="M0.705973067,38.8606365 C3.20604719,40.9087838 6.87871579,40.7807772 9.23632723,38.4997784 C9.67082723,38.0793457 10.3516638,38.0793457 10.7861638,38.4996726 C13.2771349,40.9101534 17.227933,40.9117399 19.7209138,38.4998842 C20.1554138,38.079663 20.8363561,38.0792399 21.2708561,38.4998842 C23.7620388,40.9101534 27.7127311,40.9116342 30.2057118,38.4997784 C30.6398945,38.0793457 31.3207311,38.0791342 31.7555484,38.4998842 C34.2467311,40.9101534 38.1976349,40.9116342 40.6904042,38.4997784 C41.1249042,38.0793457 41.8057407,38.0792399 42.2402407,38.4997784 C44.7368176,40.9150188 48.7076061,40.9166053 51.1996349,38.4760861" id="路径" stroke="#FFFFFF" stroke-width="1.5" stroke-linecap="round" fill-rule="nonzero"></path>
            <path d="M16.4024016,4.52658168 C16.4024016,1.9955151 15.0808206,0.75 12.7774016,0.75" id="路径" stroke="#000000" stroke-width="1.5" stroke-linecap="round"></path>
            <line x1="46.0941407" y1="15.4294316" x2="38.1895371" y2="15.4294316" id="路径-" stroke="#000000" stroke-width="1.5"></line>
            <polygon id="矩形" fill="#8497DD" points="23.7059731 14.7805416 27.7059731 14.7805416 25.7059731 18.7805416 21.7059731 18.7805416"></polygon>
            <polygon id="矩形-" fill="#8497DD" points="18.7059731 14.7805416 22.7059731 14.7805416 20.7059731 18.7805416 16.7059731 18.7805416"></polygon>
            <polygon id="矩形" fill="#8497DD" points="28.7059731 14.7805416 32.7059731 14.7805416 30.7059731 18.7805416 26.7059731 18.7805416"></polygon>
            <line x1="10.0399105" y1="0.75" x2="6.10215918" y2="0.75" id="路径-" stroke="#000000" stroke-width="1.5" stroke-linecap="round"></line>
        </g>
    </g>
</svg>