<?xml version="1.0" encoding="UTF-8"?>
<svg width="64px" height="64px" viewBox="0 0 64 64" version="1.1" xmlns="http://www.w3.org/2000/svg" xmlns:xlink="http://www.w3.org/1999/xlink">
    <title>dustStorms</title>
    <defs>
        <path d="M9.13913637,1.15959264 C16.9291055,1.16632217 30.4224663,1.37948486 49.6192187,1.79908073 C47.0244239,14.341367 39.1833872,23.251636 26.0961086,28.5298877 C6.46519062,36.4472652 -1.99862011,30.5723744 4.24315261,26.9672919 C12.3336089,22.2944586 18.4746775,13.6691694 8.74999375,1.73430308 C8.59448664,1.54345301 8.84872197,1.15959264 9.13913637,1.15959264 Z" id="path-1"></path>
        <path d="M42.0320613,9.46153846 L52.1731222,9.46153846 C53.6334905,9.46153846 54.817353,8.27767602 54.817353,6.81730769 C54.817353,5.35693936 53.6334905,4.17307692 52.1731222,4.17307692" id="path-2"></path>
        <path d="M30.6730769,18.9230769 L51.1154299,18.9230769 C52.5757982,18.9230769 53.7596607,17.7392145 53.7596607,16.2788462 C53.7596607,14.8184778 52.5757982,13.6346154 51.1154299,13.6346154" id="path-3"></path>
        <path d="M1.76918548,7.34615385 L7.54931081,7.34615385" id="path-4"></path>
        <path d="M5.81730769,14.6346154 L19.0384615,14.6346154" id="path-5"></path>
        <path d="M10.5769231,7.3541239 L16.02588,7.3541239" id="path-6"></path>
    </defs>
    <g id="dustStorms" stroke="none" stroke-width="1" fill="none" fill-rule="evenodd">
        <rect id="矩形-" x="0" y="1.13686838e-13" width="64" height="64"></rect>
        <g id="编组-" transform="translate(5.000000, 15.000000)">
            <path d="M31.2340976,29.25 C30.1339195,29.25 29.137895,29.6959353 28.4169152,30.4169152 C27.6959353,31.137895 27.25,32.1339195 27.25,33.2340976 C27.25,34.3342758 27.6959353,35.3303002 28.4169152,36.0512801 C29.137895,36.7722599 30.1339195,37.2181953 31.2340976,37.2181953 C32.3342758,37.2181953 33.3303002,36.7722599 34.0512801,36.0512801 C34.7722599,35.3303002 35.2181953,34.3342758 35.2181953,33.2340976 C35.2181953,32.1339195 34.7722599,31.137895 34.0512801,30.4169152 C33.3303002,29.6959353 32.3342758,29.25 31.2340976,29.25 Z M9.14043217,-0.340406802 C8.78019506,-0.340407082 8.43505853,-0.232877258 8.13740761,-0.0465044114 C7.83750408,0.141278891 7.58768753,0.409146852 7.42229938,0.715406516 C7.25407946,1.02690993 7.17323633,1.37625112 7.19961396,1.72337039 C7.22460275,2.05221312 7.34313765,2.38235283 7.58714022,2.68181121 C11.2892975,7.22537822 12.7197397,11.41984 12.1338447,15.1681971 C11.5131697,19.1390646 8.640517,22.5531699 4.06519294,25.3296189 L3.29238086,25.7876462 C2.29963946,26.3962812 1.62198563,27.0738268 1.21502281,27.7569673 C0.726016716,28.5778283 0.608143851,29.4185428 0.808414105,30.2084048 C1.00021784,30.9648749 1.49480499,31.6906885 2.31511221,32.2969337 C3.00724425,32.8084515 3.94091712,33.2395127 5.10998044,33.5263141 C9.8329909,34.6849907 17.5176265,33.6070902 26.6571638,29.9210085 C40.2340497,24.4452925 48.3899846,15.1447343 51.0881131,2.10297105 L51.4532831,0.33787307 L36.692,0.0305867594 L35.9169343,0.0155867492 C23.8519282,-0.216771575 14.926917,-0.335408027 9.14043217,-0.340406802 Z M42.2340976,23.25 C41.1339195,23.25 40.137895,23.6959353 39.4169152,24.4169152 C38.6959353,25.137895 38.25,26.1339195 38.25,27.2340976 C38.25,28.3342758 38.6959353,29.3303002 39.4169152,30.0512801 C40.137895,30.7722599 41.1339195,31.2181953 42.2340976,31.2181953 C43.3342758,31.2181953 44.3303002,30.7722599 45.0512801,30.0512801 C45.7722599,29.3303002 46.2181953,28.3342758 46.2181953,27.2340976 C46.2181953,26.1339195 45.7722599,25.137895 45.0512801,24.4169152 C44.3303002,23.6959353 43.3342758,23.25 42.2340976,23.25 Z M3.23409763,16 C2.13391945,16 1.13789504,16.4459353 0.41691518,17.1669152 C-0.304064683,17.887895 -0.75,18.8839195 -0.75,19.9840976 C-0.75,21.0842758 -0.304064683,22.0803002 0.41691518,22.8012801 C1.13789504,23.5222599 2.13391945,23.9681953 3.23409763,23.9681953 C4.33427582,23.9681953 5.33030022,23.5222599 6.05128009,22.8012801 C6.77225995,22.0803002 7.21819527,21.0842758 7.21819527,19.9840976 C7.21819527,18.8839195 6.77225995,17.887895 6.05128009,17.1669152 C5.33030022,16.4459353 4.33427582,16 3.23409763,16 Z" id="wb" stroke="#FFFFFF" stroke-width="1.5" fill-rule="nonzero"></path>
            <circle id="椭圆形" stroke="#000000" stroke-width="1.5" fill="#D8D8D8" cx="30.2542341" cy="14.8674752" r="3.40812553"></circle>
            <g id="路径-">
                <path stroke="#FFFFFF" stroke-width="2.25" d="M10.7302981,2.45864632 C14.3996694,7.49670206 15.3353089,11.9552627 14.6541948,15.7686974 C13.7140323,21.0324975 9.62033959,25.1607348 4.80581571,27.9414762 C4.1291103,28.3323234 3.65191976,28.7344142 3.43417425,29.1656149 C3.32675385,29.3783392 3.32337694,29.5934909 3.45041254,29.7881857 C4.00187845,30.6333626 5.59652626,31.132597 7.8799037,31.2958699 C11.8212654,31.577697 17.8312521,30.6501498 25.6753172,27.4865471 C37.9017473,22.5554857 45.433318,14.3711861 48.2202931,2.89426179 C31.1961507,2.52546119 18.7869663,2.32793089 10.7302981,2.45864632 Z" stroke-linejoin="square" fill="#FF9D73" fill-rule="evenodd"></path>
                <use stroke="#000000" stroke-width="1.5" xlink:href="#path-1"></use>
            </g>
            <g id="路径" stroke-linecap="round">
                <use stroke="#FFFFFF" stroke-width="4.5" xlink:href="#path-2"></use>
                <use stroke="#000000" stroke-width="1.5" xlink:href="#path-2"></use>
            </g>
            <g id="路径" stroke-linecap="round">
                <use stroke="#FFFFFF" stroke-width="4.5" xlink:href="#path-3"></use>
                <use stroke="#000000" stroke-width="1.5" xlink:href="#path-3"></use>
            </g>
            <line x1="34.9038462" y1="9.46950851" x2="38.444953" y2="9.46950851" id="路径--" stroke="#000000" stroke-width="1.5" stroke-linecap="round"></line>
            <g id="路径" stroke-linecap="round" transform="translate(4.659248, 7.346154) scale(-1, 1) translate(-4.659248, -7.346154) ">
                <use stroke="#FFFFFF" stroke-width="4.5" xlink:href="#path-4"></use>
                <use stroke="#000000" stroke-width="1.5" xlink:href="#path-4"></use>
            </g>
            <g id="路径" stroke-linecap="round" transform="translate(12.427885, 14.634615) scale(-1, 1) translate(-12.427885, -14.634615) ">
                <use stroke="#FFFFFF" stroke-width="4.5" xlink:href="#path-5"></use>
                <use stroke="#000000" stroke-width="1.5" xlink:href="#path-5"></use>
            </g>
            <g id="路径--" stroke-linecap="round" transform="translate(13.301402, 7.354124) scale(-1, 1) translate(-13.301402, -7.354124) ">
                <use stroke="#FFFFFF" stroke-width="4.5" xlink:href="#path-6"></use>
                <use stroke="#000000" stroke-width="1.5" xlink:href="#path-6"></use>
            </g>
            <circle id="椭圆形-" stroke="#000000" stroke-width="1.5" fill="#FFC28F" cx="42.2340976" cy="27.2340976" r="2.48409763"></circle>
            <circle id="椭圆形" stroke="#000000" stroke-width="1.5" fill="#FFC28F" cx="3.23409763" cy="19.9840976" r="2.48409763"></circle>
            <circle id="椭圆形" stroke="#000000" stroke-width="1.5" fill="#FF9D73" cx="31.2340976" cy="33.2340976" r="2.48409763"></circle>
        </g>
    </g>
</svg>