<?xml version="1.0" encoding="UTF-8"?>
<svg width="64px" height="64px" viewBox="0 0 64 64" version="1.1" xmlns="http://www.w3.org/2000/svg" xmlns:xlink="http://www.w3.org/1999/xlink">
    <title>medal</title>
    <g id="medal" stroke="none" stroke-width="1" fill="none" fill-rule="evenodd">
        <rect id="Rectangle" x="0" y="0" width="64" height="64"></rect>
        <g id="Group-" transform="translate(5.666667, 7.666667)">
            <path d="M38.9707516,-0.75 L13.4707516,-0.75 L13.4707516,6.75 L17.3492947,6.75 L17.3492801,10.1409679 C13.3653739,12.9064104 10.7679739,17.4609335 10.7679739,22.6085193 C10.7679739,26.5718211 12.3076578,30.1830615 14.8342114,32.8974036 L7.56846391,45.483004 L15.7141907,46.0375109 L20.2673677,52.8148075 L26.3493724,42.2781215 L32.4327075,52.8146972 L36.9858104,46.0375109 L45.1316338,45.4829975 L37.8473076,32.8673229 C40.3539595,30.1597311 41.8856171,26.5520413 41.8821042,22.2808986 C41.7743983,17.2680605 39.2034459,12.8475333 35.304227,10.1409074 L35.3034662,6.75 L38.9707516,6.75 L38.9707516,-0.75 Z" id="wb" stroke="#FFFFFF" stroke-width="1.5"></path>
            <rect id="Rectangle-" stroke="#000000" stroke-width="1.5" fill="#ED6969" x="18.8496732" y="2.75" width="14.9542484" height="14.6257606"></rect>
            <rect id="矩形" stroke="#000000" stroke-width="1.5" fill="#FFC55D" x="14.9707516" y="0.75" width="22.5" height="4.5"></rect>
            <path d="M25.1886443,30.802619 L13.5252456,30.802619 L13.5252456,48.2008139 L19.356945,45.3431753 L25.1886443,48.2008139 L25.1886443,30.802619 Z" id="Rectangle--" stroke="#000000" stroke-width="1.5" fill="#ED6969" transform="translate(19.356945, 39.728075) rotate(30.000000) translate(-19.356945, -39.728075) "></path>
            <path d="M39.1747554,30.802619 L27.5113567,30.802619 L27.5113567,48.2008139 L33.3430561,45.3431753 L39.1747554,48.2008139 L39.1747554,30.802619 Z" id="Rectangle--" stroke="#000000" stroke-width="1.5" fill="#ED6969" transform="translate(33.343056, 39.728075) scale(-1, 1) rotate(30.000000) translate(-33.343056, -39.728075) "></path>
            <ellipse id="Oval-" stroke="#000000" stroke-width="1.5" fill="#FFFFFF" cx="26.3267974" cy="22.6085193" rx="14.0588235" ry="13.7631846"></ellipse>
            <path d="M26.3267974,11.3204868 C32.6879987,11.3204868 37.8447712,16.3743111 37.8447712,22.6085193 C37.8447712,28.8427274 32.6879987,33.8965517 26.3267974,33.8965517 C19.9655961,33.8965517 14.8088235,28.8427274 14.8088235,22.6085193 C14.8088235,16.3743111 19.9655961,11.3204868 26.3267974,11.3204868 Z M26.3267974,16.3194726 L24.3924845,20.160574 L20.0672293,20.7765232 L23.1970134,23.7664037 L22.4581716,27.9881826 L26.3267974,25.994929 L30.1954232,27.9881826 L29.4565814,23.7664037 L32.5863654,20.7765232 L28.2611103,20.160574 L26.3267974,16.3194726 Z" id="Combined-Shape" fill="#FFC55D"></path>
            <path d="M8.24614074,36.6936349 C7.99759985,36.3515477 7.63393008,36.142587 7.24687374,36.0812833 C6.8598174,36.0199796 6.44937448,36.1063329 6.1072873,36.3548738 L4.76217347,37.3321562 C4.40759203,37.5897747 4.19455881,37.9693495 4.14962083,38.3888129 C4.11017692,38.7569931 4.2005593,39.1642787 4.47215436,39.5380972 C4.72069525,39.8801844 5.08436502,40.0891451 5.47142136,40.1504488 C5.8584777,40.2117525 6.26892062,40.1253992 6.6110078,39.8768583 L7.95612163,38.8995759 C8.31070307,38.6419574 8.52373629,38.2623826 8.56867427,37.8429192 C8.60811818,37.474739 8.5177358,37.0674534 8.24614074,36.6936349 Z M46.5463075,36.3548738 C46.191726,36.0972553 45.764898,36.0119437 45.352078,36.0988265 C44.989729,36.175087 44.6303071,36.386904 44.358712,36.7607225 C44.1101712,37.1028097 44.0238178,37.5132526 44.0851215,37.9003089 C44.1464252,38.2873653 44.355386,38.651035 44.6974731,38.8995759 L46.042587,39.8768583 C46.3971684,40.1344768 46.8239964,40.2197884 47.2368164,40.1329056 C47.5991654,40.0566451 47.9585873,39.8448282 48.2301824,39.4710096 C48.4787233,39.1289224 48.5650766,38.7184795 48.5037729,38.3314232 C48.4424692,37.9443668 48.2335085,37.5806971 47.8914213,37.3321562 L46.5463075,36.3548738 Z M2.4767509,22.0358069 L0.814098772,22.0358069 C0.375812008,22.0358069 -0.019643986,22.2176716 -0.302553966,22.5306107 C-0.550875651,22.8052902 -0.717151228,23.1879166 -0.717151228,23.6499817 C-0.717151228,24.0728247 -0.545760234,24.4556372 -0.268658487,24.7327389 C0.0084432601,25.0098407 0.39125576,25.1812317 0.814098772,25.1812317 L2.4767509,25.1812317 C2.91503767,25.1812317 3.31049366,24.999367 3.59340364,24.6864278 C3.84172532,24.4117484 4.0080009,24.029122 4.0080009,23.5670569 C4.0080009,23.1442138 3.83660991,22.7614013 3.55950816,22.4842996 C3.28240641,22.2071978 2.89959391,22.0358069 2.4767509,22.0358069 Z M51.839496,22.0358069 L50.1768439,22.0358069 C49.7385571,22.0358069 49.3431011,22.2176716 49.0601911,22.5306107 C48.8118694,22.8052902 48.6455939,23.1879166 48.6455939,23.6499817 C48.6455939,24.0728247 48.8169849,24.4556372 49.0940866,24.7327389 C49.3711884,25.0098407 49.7540009,25.1812317 50.1768439,25.1812317 L51.839496,25.1812317 C52.2777828,25.1812317 52.6732388,24.999367 52.9561487,24.6864278 C53.2044704,24.4117484 53.370746,24.029122 53.370746,23.5670569 C53.370746,23.1442138 53.199355,22.7614013 52.9222533,22.4842996 C52.6451515,22.2071978 52.262339,22.0358069 51.839496,22.0358069 Z M48.1814404,7.67894131 C47.9328995,7.33685413 47.5692298,7.12789341 47.1821734,7.06658971 C46.7951171,7.005286 46.3846742,7.09163932 46.042587,7.3401802 L44.6974731,8.31746261 C44.3428917,8.5750811 44.1298585,8.95465595 44.0849205,9.37411933 C44.0454766,9.74229953 44.135859,10.1495851 44.407454,10.5234036 C44.6559949,10.8654908 45.0196647,11.0744516 45.406721,11.1357553 C45.7937774,11.197059 46.2042203,11.1107056 46.5463075,10.8621648 L47.8914213,9.88488235 C48.2460027,9.62726386 48.459036,9.247689 48.5039739,8.82822563 C48.5434179,8.46004543 48.4530355,8.05275984 48.1814404,7.67894131 Z M6.6110078,7.3401802 C6.25642636,7.08256171 5.82959834,6.99725016 5.41677836,7.08413291 C5.05442934,7.16039346 4.69500743,7.37221038 4.42341236,7.74602891 C4.17487148,8.08811609 4.08851816,8.49855901 4.14982187,8.88561535 C4.21112557,9.2726717 4.42008629,9.63634147 4.76217347,9.88488235 L6.1072873,10.8621648 C6.46186874,11.1197832 6.88869676,11.2050948 7.30151674,11.1182121 C7.66386575,11.0419515 8.02328767,10.8301346 8.29488273,10.456316 C8.54342362,10.1142289 8.62977694,9.70378595 8.56847323,9.3167296 C8.50716953,8.92967326 8.29820881,8.56600349 7.95612163,8.31746261 L6.6110078,7.3401802 Z" id="Combined-Shape" stroke="#FFFFFF" stroke-width="1.5" fill="#000000"></path>
        </g>
    </g>
</svg>