<?xml version="1.0" encoding="UTF-8"?>
<svg width="64px" height="64px" viewBox="0 0 64 64" version="1.1" xmlns="http://www.w3.org/2000/svg" xmlns:xlink="http://www.w3.org/1999/xlink">
    <title>cloudy</title>
    <g id="cloudy" stroke="none" stroke-width="1" fill="none" fill-rule="evenodd">
        <rect id="Rectangle" x="0" y="0" width="64" height="64"></rect>
        <g id="Group-" transform="translate(2.666667, 19.666667)">
            <path d="M26.010997,2.9041463 C24.8475308,1.62107158 23.388253,0.643558181 21.7988483,0.0242460804 C19.9474718,-0.697143429 17.9209833,-0.931733045 15.9850027,-0.606006788 C14.2023909,-0.306084626 12.4960693,0.467294025 11.0674466,1.77155081 C9.89576013,2.8412384 8.90838365,4.27034679 8.22868113,6.09892769 C5.03536753,6.21804158 2.28025174,7.40735907 0.694457373,9.63038692 C-0.821180088,11.7550661 -1.31541039,14.8626538 0.0452887404,19.037461 L12.6377252,19.0369908 C12.1016672,20.9410174 12.2554686,23.1557806 13.3400401,25.4735596 L58.4389715,25.4735596 C60.1437015,20.1358788 59.5089294,16.1469358 57.553028,13.417734 C55.461963,10.4999292 51.8080255,8.97840498 47.6026243,8.88350869 C45.8237043,4.01003495 42.4060592,1.26505937 38.6066122,0.245710086 C34.3318211,-0.901168719 29.5473994,0.1556686 26.010997,2.9041463 Z" id="wb" stroke="#FFFFFF" stroke-width="1.5"></path>
            <path d="M8.76433659,7.58928821 C5.89630117,7.58928821 3.33607699,8.51020476 1.91559845,10.5014865 C0.740922671,12.1481924 0.383563201,14.494569 1.16859197,17.5374404 L33.2710935,17.5374404 C33.8263161,15.8006405 33.5751746,14.189581 32.7170972,12.9739702 C31.7462601,11.5986164 30.0279711,10.7533486 27.9503471,10.7533486 C27.6837965,10.7533486 27.4231605,10.7672616 27.1692586,10.7944219 C27.1897484,10.5356893 27.2003471,10.2718807 27.2003471,10.0033486 C27.2003471,7.6096439 26.3581669,5.59126497 25.0288447,4.05848057 C23.543888,2.34624083 21.4575323,1.23821267 19.2723494,0.877843291 C17.1991986,0.53594968 15.0325573,0.867585733 13.2098153,2.01668778 C11.5922707,3.03642834 10.2550664,4.69823464 9.47705652,7.07280543 C9.41893371,7.25020256 9.36568078,7.42623979 9.31718656,7.60087207 C9.13450394,7.5931502 8.95006569,7.58928821 8.76433659,7.58928821 Z" id="Path-" stroke="#000000" stroke-width="1.5" fill="#FFFFFF"></path>
            <path d="M14.5828798,2.8243278 C17.3270021,5.20814901 18.9633372,8.3472366 19.3805007,12.0392731 L19.3931454,12.1683377 L19.5426716,12.189379 C22.8837874,12.7116694 25.6186474,14.5884449 26.980666,17.3606662 C27.1224218,17.6229528 27.2189886,17.9318775 27.2703666,18.2874404 C26.4820872,18.2874404 25.3089353,18.2874404 23.750911,18.2874404 C22.8326974,16.2330849 20.8432409,15.6452973 18.0377211,15.5190945 L17.7234927,15.5102025 L16.0110961,15.4900167 L16.0098977,13.7775016 C16.0076136,10.5133979 14.7303223,7.68508443 12.4797855,5.60265695 L12.2050688,5.35636575 C12.9251623,4.54327301 13.4723768,3.93580625 13.8467123,3.53396547 C13.9990585,3.37042519 14.2444477,3.1338793 14.5828798,2.8243278 Z" id="路径" fill="#FFFFFF" fill-rule="nonzero" transform="translate(19.737718, 10.555884) scale(-1, 1) translate(-19.737718, -10.555884) "></path>
            <path d="M13.8806686,24.7235596 C21.5500446,24.7235596 52.568,24.7235596 57.937498,24.7235596 C60.3954284,18.8379751 56.4363925,13.7657436 50.2668893,13.6930172 C50.2570674,-0.342716401 29.6503472,-5.30755001 24.6981937,9.62913321 C16.9291237,9.58046992 10.8579096,14.4749395 13.8806686,24.7235596 Z" id="Path-" fill="#FFFFFF" transform="translate(35.882757, 12.630555) scale(-1, 1) translate(-35.882757, -12.630555) "></path>
            <path d="M49.5168895,13.6935421 C49.5146367,10.4742463 48.364302,7.76026647 46.5531827,5.70164708 C44.5326808,3.40503164 41.6964198,1.92203185 38.7264079,1.44997866 C35.9093511,1.00223614 32.9673346,1.46458938 30.4895972,3.02695018 C28.295171,4.41066633 26.4741529,6.65572338 25.4100876,9.86515668 C25.3516368,10.0414561 25.2967561,10.2167865 25.2453844,10.3911235 C25.0626651,10.3843296 24.8785753,10.3802778 24.693496,10.3791185 C20.8158241,10.3548298 17.3565946,11.6055925 15.4317171,14.2915046 C13.8181607,16.5430092 13.3222611,19.7696173 14.448616,23.9735596 L57.4244639,23.9735596 C58.3002358,21.5352721 57.9836782,19.2693935 56.7950435,17.5601047 C55.476577,15.6641143 53.1177482,14.4766754 50.2580489,14.4429651 C49.999901,14.4399221 49.7456119,14.4463742 49.495586,14.4620034 C49.5097848,14.2093947 49.5170712,13.9531057 49.5168895,13.6935421 Z" id="Path" stroke="#000000" stroke-width="1.5" fill-rule="nonzero" transform="translate(35.882757, 12.630555) scale(-1, 1) translate(-35.882757, -12.630555) "></path>
            <path d="M16.8040792,21.1436647 C22.0507501,21.1436647 51.5200635,21.1436647 55.1626078,21.1436647 C55.4669885,17.8227312 50.7592524,16.4114854 46.6182911,17.5599927 C49.5948123,1.63977491 28.7649333,-0.899330185 27.7117177,13.43877 C22.7041281,12.3748364 15.8304873,13.6954715 16.8040792,21.1436647 Z" id="Path-" fill="#E9F4F5" transform="translate(35.943827, 12.579656) scale(-1, 1) translate(-35.943827, -12.579656) "></path>
        </g>
    </g>
</svg>