<?xml version="1.0" encoding="UTF-8"?>
<svg width="64px" height="64px" viewBox="0 0 64 64" version="1.1" xmlns="http://www.w3.org/2000/svg" xmlns:xlink="http://www.w3.org/1999/xlink">
    <title>glasses</title>
    <g id="glasses" stroke="none" stroke-width="1" fill="none" fill-rule="evenodd">
        <rect id="Rectangle" x="0" y="0" width="64" height="64"></rect>
        <g id="Group-" transform="translate(4.000000, 7.000000)">
            <g transform="translate(0.572727, 0.678788)">
                <path d="M15.3261965,-0.0828402663 C13.0011792,-0.613202561 11.1221338,-0.285655779 9.64883406,0.780973909 C8.19459034,1.83380755 7.1169226,3.64657494 6.46379631,6.23371854 L-0.750179972,34.8173696 L-0.74278632,38.645947 C-0.703842679,39.0457914 -0.511703243,39.400997 -0.22506252,39.6510247 C0.0440776071,39.8857872 0.396026009,40.02811 0.78125,40.02811 L3.19234359,40.0285207 C3.87674941,42.1997896 5.21327666,44.0818268 6.9727014,45.4442483 C8.84114005,46.8910854 11.1859895,47.7523923 13.7320574,47.7523923 C16.764713,47.7523923 19.5120116,46.5316506 21.5105058,44.4773837 C23.4585686,42.4749556 24.6976331,39.6767216 24.7770006,36.3996018 C24.6958345,33.3961906 23.4168655,30.6917106 21.3618564,28.7468411 C19.3420795,26.8353155 16.5709456,25.6560993 13.4283099,25.6584061 C10.9450573,25.7255151 8.66624947,26.6119108 6.85232384,28.0570009 C5.15218776,29.4114388 3.86086927,31.2569634 2.71362656,33.3785656 L9.44242337,6.7009637 C9.89422179,5.03497548 10.4999371,3.86797205 11.3896849,3.22708067 C12.2330516,2.61959788 13.3143773,2.53530365 14.6590017,2.84202743 C15.0628416,2.93414781 15.4657893,2.85385869 15.790807,2.64957947 C16.1158247,2.44530026 16.3629126,2.11703096 16.455033,1.713191 C16.5471533,1.30935105 16.4668642,0.90640342 16.262585,0.581385688 C16.0583058,0.256367956 15.7300365,0.00928011734 15.3261965,-0.0828402663 Z M48.4019934,5.9367636 C47.7287093,3.45326359 46.6461448,1.71768393 45.2003356,0.714100929 C43.7414264,-0.298575201 41.8928357,-0.601915779 39.6172977,-0.0828402663 C39.2134577,0.00928011734 38.8851884,0.256367956 38.6809092,0.581385688 C38.47663,0.90640342 38.3963409,1.30935105 38.4884612,1.713191 C38.5888379,2.15322483 38.8653644,2.50741535 39.2960416,2.7032574 C39.6015326,2.84217346 40.005228,2.90401507 40.5026512,2.79537346 C41.7771395,2.5407255 42.8057281,2.65941416 43.6107474,3.26914351 C44.4691493,3.91930529 45.0590206,5.0709303 45.5010692,6.70095785 L51.7360285,33.3786298 C51.0517012,31.2072828 49.7152139,29.3251617 47.9558023,27.9626625 C46.0873189,26.5156974 43.7423647,25.6543062 41.1961722,25.6543062 C38.1263735,25.6543062 35.3489694,26.9056837 33.3461937,28.9643516 C31.3719565,30.9936846 30.1489193,33.8093762 30.1512291,37.0070968 C30.2318993,39.9921589 31.4963,42.6819123 33.4922582,44.6236522 C35.4825532,46.5598826 38.2000958,47.7523923 41.1961722,47.7523923 C43.7422402,47.7523923 46.0870896,46.8910854 47.9555283,45.4442483 C49.714953,44.0818268 51.0514803,42.1997896 51.7358861,40.0285207 L54.1471074,40.02811 C54.5698227,40.02811 54.9526352,39.8567191 55.2297369,39.5796173 C55.5103844,39.2989699 55.6825985,38.9098891 55.6781453,38.4806089 L55.5162304,34.1426258 L48.4019934,5.9367636 Z M24.6353408,35.1211332 C24.2522173,35.1690796 23.9123899,35.3568832 23.6694688,35.6324822 C23.4653897,35.8640141 23.2823115,36.1436711 23.2872743,36.9322052 C23.3470198,38.037099 23.8352038,39.0281767 24.5890285,39.7416969 C25.3385998,40.4511911 26.3505294,40.8863636 27.4641148,40.8863636 C28.5777003,40.8863636 29.5896299,40.4511911 30.3392011,39.7416969 C31.0834864,39.037206 31.5809706,38.064234 31.6468142,36.6931929 C31.6468142,36.2667788 31.4739758,35.8807334 31.1945338,35.6012914 C30.9150919,35.3218495 30.5290464,35.149011 30.1026324,35.149011 C29.7112727,35.149011 29.3539649,35.2946663 29.0817923,35.5345673 C28.8241389,35.7616707 28.6196083,36.066108 28.5584506,36.6931929 C28.5584506,36.9966534 28.4345235,37.2725993 28.2352549,37.4727243 C28.0376297,37.6711987 27.7651956,37.7954545 27.4641148,37.7954545 C27.1624851,37.7954545 26.8894124,37.6732577 26.6916371,37.4763453 C26.4938657,37.2794367 26.3721847,37.0074488 26.3722761,36.703575 C26.3722762,36.2697352 26.1912852,35.8521954 25.8721657,35.5529917 C25.5887659,35.2872786 25.1953813,35.1099109 24.6353408,35.1211332 Z" id="形状结合" stroke="#FFFFFF" stroke-width="1.5" fill-rule="nonzero"></path>
                <path d="M39.9509091,34.432826 C40.0921602,33.8724981 40.3206772,32.9660019 40.8251984,30.9646344 C41.689804,27.5348884 42.5544322,24.1051421 43.3614506,20.9040438 C45.327751,13.1045677 46.6324734,7.93007643 46.9680311,6.60087562 C48.0269099,2.40647784 50.1911012,0.501055231 54.0424626,1.37959358" id="路径" stroke="#000000" stroke-width="1.5" stroke-linecap="round" fill-rule="nonzero" transform="translate(46.996686, 17.801251) scale(-1, 1) translate(-46.996686, -17.801251) "></path>
                <path d="M0.750909091,35.0284043 C0.895852171,34.4534238 1.05166857,33.8353211 1.77533485,30.9646344 C2.63994045,27.5348884 3.50456868,24.1051421 4.31158705,20.9040438 C6.27788741,13.1045677 7.58260982,7.93007643 7.91816754,6.60087562 C8.97704633,2.40647784 11.1412377,0.501055231 14.9925991,1.37959358" id="路径" stroke="#000000" stroke-width="1.5" stroke-linecap="round" fill-rule="nonzero"></path>
                <path d="M4.36827153,34.8785885 L0.75,34.9098385 L0.78125,38.52811 L4.39952153,38.49686 L4.36827153,34.8785885 Z" id="Rectangle-" stroke="#000000" stroke-width="1.5" fill="#FFC55D" transform="translate(2.574761, 36.703349) scale(-1, 1) translate(-2.574761, -36.703349) "></path>
                <path d="M54.1469797,34.8785885 L50.5287081,34.9098385 L50.5599581,38.52811 L54.1782297,38.49686 L54.1469797,34.8785885 Z" id="Rectangle-" stroke="#000000" stroke-width="1.5" fill="#FFC55D"></path>
                <circle id="Oval-" stroke="#000000" stroke-width="1.5" fill="#BDCFD1" cx="13.7320574" cy="36.7033493" r="9.54904306"></circle>
                <circle id="Oval--" stroke="#000000" stroke-width="1.5" fill="#BDCFD1" cx="41.1961722" cy="36.7033493" r="9.54904306"></circle>
                <path d="M24.8280944,35.8591404 C25.2667089,35.8591404 25.6222762,36.2147077 25.6222762,36.6533223 C25.6222762,36.6703624 25.6217395,36.6872773 25.6206822,36.7040508 L25.6220096,36.7033493 C25.6220096,37.7207159 26.4467482,38.5454545 27.4641148,38.5454545 C28.4814815,38.5454545 29.3062201,37.7207159 29.3062201,36.7033493 L29.3091005,36.7031404 L29.3084506,36.6931929 C29.3084506,36.2883179 29.6114192,35.9542051 30.0030119,35.9051988 L30.1026324,35.899011 C30.5412469,35.899011 30.8968142,36.2545784 30.8968142,36.6931929 C30.8968142,36.6966009 30.8967927,36.7000039 30.8967499,36.7034018 L30.8971292,36.7033493 C30.8971292,38.5993508 29.3601163,40.1363636 27.4641148,40.1363636 C25.5681134,40.1363636 24.0311005,38.5993508 24.0311005,36.7033493 L24.0361005,36.7031404 L24.0339125,36.6533223 C24.0339125,36.2484473 24.3368811,35.9143345 24.7284739,35.8653282 Z" id="形状结合" fill="#000000" fill-rule="nonzero"></path>
                <path d="M6.86602871,37.3899522 C6.86602871,33.5979492 9.94005447,30.5239234 13.7320574,30.5239234 C17.5240604,30.5239234 20.5980861,33.5979492 20.5980861,37.3899522 L19.007177,37.3899522 C19.007177,34.476584 16.6454255,32.1148325 13.7320574,32.1148325 C10.8186893,32.1148325 8.4569378,34.476584 8.4569378,37.3899522 L6.86602871,37.3899522 Z M8.4569378,37.3899522 L6.86602871,37.3899522 C6.86602871,33.5979492 9.94005447,30.5239234 13.7320574,30.5239234 C17.5240604,30.5239234 20.5980861,33.5979492 20.5980861,37.3899522 L19.007177,37.3899522 C19.007177,34.476584 16.6454255,32.1148325 13.7320574,32.1148325 C10.8186893,32.1148325 8.4569378,34.476584 8.4569378,37.3899522 Z" id="Oval-" fill="#FFFFFF" fill-rule="nonzero"></path>
                <path d="M10.2990431,42.5394737 C10.2990431,39.6954715 12.6045624,37.3899522 15.4485646,37.3899522 C18.2925668,37.3899522 20.5980861,39.6954715 20.5980861,42.5394737 L19.007177,42.5394737 C19.007177,40.5741063 17.413932,38.9808612 15.4485646,38.9808612 C13.4831972,38.9808612 11.8899522,40.5741063 11.8899522,42.5394737 L10.2990431,42.5394737 Z M11.8899522,42.5394737 L10.2990431,42.5394737 C10.2990431,39.6954715 12.6045624,37.3899522 15.4485646,37.3899522 C18.2925668,37.3899522 20.5980861,39.6954715 20.5980861,42.5394737 L19.007177,42.5394737 C19.007177,40.5741063 17.413932,38.9808612 15.4485646,38.9808612 C13.4831972,38.9808612 11.8899522,40.5741063 11.8899522,42.5394737 Z" id="Oval-" fill="#FFFFFF" fill-rule="nonzero" transform="translate(15.448565, 39.964713) rotate(-180.000000) translate(-15.448565, -39.964713) "></path>
                <path d="M10.2990431,37.3899522 C10.2990431,35.4939507 11.8360559,33.9569378 13.7320574,33.9569378 C15.6280589,33.9569378 17.1650718,35.4939507 17.1650718,37.3899522 L15.5741627,37.3899522 C15.5741627,36.3725855 14.7494241,35.5478469 13.7320574,35.5478469 C12.7146908,35.5478469 11.8899522,36.3725855 11.8899522,37.3899522 L10.2990431,37.3899522 Z M11.8899522,37.3899522 L10.2990431,37.3899522 C10.2990431,35.4939507 11.8360559,33.9569378 13.7320574,33.9569378 C15.6280589,33.9569378 17.1650718,35.4939507 17.1650718,37.3899522 L15.5741627,37.3899522 C15.5741627,36.3725855 14.7494241,35.5478469 13.7320574,35.5478469 C12.7146908,35.5478469 11.8899522,36.3725855 11.8899522,37.3899522 Z" id="Oval-" fill="#FFFFFF" fill-rule="nonzero"></path>
                <circle id="Oval-" fill="#FFFFFF" cx="16.3068182" cy="37.3899522" r="1"></circle>
                <circle id="Oval--" fill="#FFFFFF" cx="7.7242823" cy="37.3899522" r="1"></circle>
                <path d="M34.3301435,37.3899522 C34.3301435,33.5979492 37.4041693,30.5239234 41.1961722,30.5239234 C44.9881752,30.5239234 48.062201,33.5979492 48.062201,37.3899522 L46.4712919,37.3899522 C46.4712919,34.476584 44.1095404,32.1148325 41.1961722,32.1148325 C38.2828041,32.1148325 35.9210526,34.476584 35.9210526,37.3899522 L34.3301435,37.3899522 Z M35.9210526,37.3899522 L34.3301435,37.3899522 C34.3301435,33.5979492 37.4041693,30.5239234 41.1961722,30.5239234 C44.9881752,30.5239234 48.062201,33.5979492 48.062201,37.3899522 L46.4712919,37.3899522 C46.4712919,34.476584 44.1095404,32.1148325 41.1961722,32.1148325 C38.2828041,32.1148325 35.9210526,34.476584 35.9210526,37.3899522 Z" id="Oval-" fill="#FFFFFF" fill-rule="nonzero"></path>
                <path d="M37.7631579,42.5394737 C37.7631579,39.6954715 40.0686772,37.3899522 42.9126794,37.3899522 C45.7566816,37.3899522 48.062201,39.6954715 48.062201,42.5394737 L46.4712919,42.5394737 C46.4712919,40.5741063 44.8780468,38.9808612 42.9126794,38.9808612 C40.947312,38.9808612 39.354067,40.5741063 39.354067,42.5394737 L37.7631579,42.5394737 Z M39.354067,42.5394737 L37.7631579,42.5394737 C37.7631579,39.6954715 40.0686772,37.3899522 42.9126794,37.3899522 C45.7566816,37.3899522 48.062201,39.6954715 48.062201,42.5394737 L46.4712919,42.5394737 C46.4712919,40.5741063 44.8780468,38.9808612 42.9126794,38.9808612 C40.947312,38.9808612 39.354067,40.5741063 39.354067,42.5394737 Z" id="Oval-" fill="#FFFFFF" fill-rule="nonzero" transform="translate(42.912679, 39.964713) rotate(-180.000000) translate(-42.912679, -39.964713) "></path>
                <path d="M37.7631579,37.3899522 C37.7631579,35.4939507 39.3001708,33.9569378 41.1961722,33.9569378 C43.0921737,33.9569378 44.6291866,35.4939507 44.6291866,37.3899522 L43.0382775,37.3899522 C43.0382775,36.3725855 42.2135389,35.5478469 41.1961722,35.5478469 C40.1788056,35.5478469 39.354067,36.3725855 39.354067,37.3899522 L37.7631579,37.3899522 Z M39.354067,37.3899522 L37.7631579,37.3899522 C37.7631579,35.4939507 39.3001708,33.9569378 41.1961722,33.9569378 C43.0921737,33.9569378 44.6291866,35.4939507 44.6291866,37.3899522 L43.0382775,37.3899522 C43.0382775,36.3725855 42.2135389,35.5478469 41.1961722,35.5478469 C40.1788056,35.5478469 39.354067,36.3725855 39.354067,37.3899522 Z" id="Oval-" fill="#FFFFFF" fill-rule="nonzero"></path>
                <circle id="Oval-" fill="#FFFFFF" cx="43.770933" cy="37.3899522" r="1"></circle>
                <circle id="Oval--" fill="#FFFFFF" cx="35.1883971" cy="37.3899522" r="1"></circle>
            </g>
        </g>
    </g>
</svg>