<?xml version="1.0" encoding="UTF-8"?>
<svg width="64px" height="64px" viewBox="0 0 64 64" version="1.1" xmlns="http://www.w3.org/2000/svg" xmlns:xlink="http://www.w3.org/1999/xlink">
    <title>dog</title>
    <g id="dog" stroke="none" stroke-width="1" fill="none" fill-rule="evenodd">
        <rect id="矩形" x="0" y="1.13686838e-13" width="64" height="64"></rect>
        <g transform="translate(14.000000, 6.000000)">
            <path d="M3.27527406,33.4861315 L4.24702927,41.8452934 C4.31955375,43.8896515 5.09333799,45.7577041 6.33497947,47.2154904 C7.541617,48.6321793 9.19023519,49.6608485 11.0656485,50.0878989 C12.7098883,52.1067614 15.1929286,53.3849124 17.9145974,53.3849124 C20.6362382,53.3849124 23.1192609,52.1067859 24.7634396,50.0879562 C26.5918584,49.6695437 28.2046254,48.6769184 29.402985,47.2874549 C30.6272155,45.8679949 31.4196834,44.0338352 31.5622786,41.9749763 L34.0572295,20.6884664 C34.1171065,19.8978784 34.0825315,19.1091143 33.9590309,18.3379823 C35.2868322,15.2387222 35.5516418,12.1730694 35.0974127,7.99805032 C34.8336229,5.57344214 35.4505535,4.28207823 35.8701549,3.40517592 C36.2462807,2.6191306 36.41718,2.05849842 36.2589653,1.50567046 C36.1314025,1.0599452 35.7836855,0.568535646 34.8994609,-0.0129625851 C34.0061897,-0.600410182 32.728049,-0.765608743 31.2117864,-0.381883578 C29.9245749,-0.0561250732 28.4558914,0.665277769 26.9497956,1.80916488 C24.5524835,3.62993502 22.0422163,6.53210297 20.0240962,10.5743895 C19.775635,10.6554352 19.441064,10.7716323 18.8275818,10.9951131 C18.6183172,11.0765781 18.3381754,11.1895416 17.9770018,11.3359634 C17.2352364,11.0143686 16.4659466,10.7390564 15.6996033,10.5188717 C13.6956253,6.49858967 11.1978261,3.61085857 8.81004885,1.79870407 C7.30831187,0.65899163 5.84296174,-0.0595827612 4.55822093,-0.383609071 C3.04536693,-0.765168134 1.76937655,-0.599676157 0.877221491,-0.0129625851 C-0.00700313675,0.568535646 -0.354720096,1.0599452 -0.482282919,1.50567046 C-0.640497635,2.05849842 -0.469598344,2.6191306 -0.0934724648,3.40517592 C0.326128856,4.28207823 0.943059522,5.57344214 0.67926968,7.99805032 C0.2183584,12.2344881 0.497531321,15.3287345 1.8768868,18.4753746 C1.77799353,19.2128356 1.76036024,19.9847506 1.80714394,21.0603984 L3.27527406,33.4861315 Z" id="wb" stroke="#FFFFFF" stroke-width="1.5" fill-rule="nonzero"></path>
            <path d="M33.6412844,12.4647223 C31.7671406,8.2367507 29.3224276,5.18571297 26.9447605,3.27292417 C25.5690717,2.16620816 24.2225053,1.44433716 23.0331608,1.11271466 C21.9646828,0.814793145 21.0266038,0.818731417 20.38555,1.24031172 C19.9728883,1.51169302 19.7081877,1.69393425 19.6439508,1.91838849 C19.5693947,2.1788995 19.785235,2.42649359 19.9437305,2.75772488 C20.4372852,3.78917827 21.1649422,5.30779616 20.8545999,8.1602883 C20.3044348,13.2170973 20.8548685,16.5275311 23.313534,20.4425344 C24.7832261,22.7827672 25.568551,24.2466273 26.3925825,24.953344 C26.8228531,24.7177988 27.4480017,24.5095924 28.376629,24.4407846 C29.8562111,24.3293517 31.0649066,23.9506014 32.0188424,23.3567552 C33.0180024,22.734756 33.7297126,21.877917 34.1842908,20.8732811 C35.2539401,18.5093137 34.9302292,15.3725152 33.6412844,12.4647223 Z" id="路径" stroke="#000000" stroke-width="1.5" fill="#B7B3AB" fill-rule="nonzero" transform="translate(27.230406, 13.401894) scale(-1, 1) translate(-27.230406, -13.401894) "></path>
            <path d="M33.3390659,3.5759982 C32.4607768,4.59017413 30.5325778,6.40873802 30.2963062,8.3415831 C30.1114199,9.85406404 31.2266542,11.4955669 32.9856806,12.9857612 C33.2008672,10.6409269 33.0116452,9.66868824 32.9412901,8.3415831 C32.8673993,6.94778271 32.8112557,5.54559871 33.3390659,3.5759982 Z" id="路径-" fill="#726D64"></path>
            <path d="M14.9571546,12.4647223 C13.0830108,8.2367507 10.6382979,5.18571297 8.26063077,3.27292417 C6.8849419,2.16620816 5.53837554,1.44433716 4.34903101,1.11271466 C3.28055304,0.814793145 2.34247406,0.818731417 1.7014202,1.24031172 C1.28875853,1.51169302 1.02405795,1.69393425 0.95982104,1.91838849 C0.885264978,2.1788995 1.10110524,2.42649359 1.25960076,2.75772488 C1.7531554,3.78917827 2.48081244,5.30779616 2.17047015,8.1602883 C1.62030503,13.2170973 2.17073878,16.5275311 4.62940423,20.4425344 C6.0990963,22.7827672 6.88442119,24.2466273 7.70845276,24.953344 C8.13872333,24.7177988 8.76387194,24.5095924 9.69249919,24.4407846 C11.1720813,24.3293517 12.3807769,23.9506014 13.3347126,23.3567552 C14.3338726,22.734756 15.0455828,21.877917 15.500161,20.8732811 C16.5698103,18.5093137 16.2460994,15.3725152 14.9571546,12.4647223 Z" id="路径" stroke="#000000" stroke-width="1.5" fill="#B7B3AB" fill-rule="nonzero"></path>
            <path d="M5.50017257,3.58930151 C4.62188347,4.60347744 2.71617409,6.40873802 2.47990241,8.3415831 C2.2950162,9.85406404 3.42137491,11.4803016 5.18040126,12.9704959 C5.3955879,10.6256616 5.19524142,9.66868824 5.1248864,8.3415831 C5.05099561,6.94778271 4.9723624,5.55890202 5.50017257,3.58930151 Z" id="路径-" fill="#726D64" transform="translate(3.980139, 8.279899) scale(-1, 1) translate(-3.980139, -8.279899) "></path>
            <path d="M17.9145974,45.8849124 L10.6862695,45.8849124 C11.3699744,49.2519944 14.345581,51.8849124 17.9145974,51.8849124 C21.4836137,51.8849124 24.4592203,49.2519944 25.1429252,45.8849124 L17.9145974,45.8849124 Z" id="路径" stroke="#000000" stroke-width="1.5" fill="#E6455A" fill-rule="nonzero"></path>
            <path d="M24.0596018,11.4061115 C21.7412027,11.4061115 19.658428,12.2599739 18.3314536,12.8133631 C18.0723177,12.9214307 17.8447512,13.0166063 17.4153943,13.1721962 L4.79563242,33.5700977 L5.74158151,41.5752715 C5.753764,43.5641664 6.56706195,45.3662429 7.87485819,46.6740392 C9.19258378,47.9917648 11.0121237,48.8074547 13.0189596,48.8074547 C14.8849074,48.8074547 16.6051341,48.0653376 17.9143372,46.8480687 C19.2238188,48.0652333 20.9441561,48.8074547 22.8102351,48.8074547 C24.7709857,48.8074547 26.5477549,48.027805 27.854529,46.7571594 C29.1568712,45.490823 29.9922454,43.7362375 30.0748871,41.7801811 L32.5272817,20.9290148 C32.811989,18.5126409 32.0485127,16.0855938 30.4322363,14.2666566 C28.8157245,12.4492439 26.4917612,11.4061115 24.0596018,11.4061115 Z" id="路径" stroke="#000000" stroke-width="1.5" fill="#FFF5F5" fill-rule="nonzero"></path>
            <path d="M11.7695929,11.4061115 C9.38432314,11.4061115 7.00260181,12.3990038 5.29265614,14.410108 C3.09546684,16.9892764 3.25415083,19.8616993 3.31549573,21.0427772 L4.8675876,34.1790664 C6.35656651,35.1846439 8.01891041,35.7524208 9.75520117,35.7524208 C11.5826432,35.7524208 13.3052969,35.1431572 14.8113964,34.0605327 C16.3330633,32.966718 17.6339093,31.3860439 18.586145,29.4711809 C19.6604912,27.3109904 20.2964766,24.7283894 20.2964766,21.9473869 C20.2964766,18.7604345 19.805319,15.8236807 18.2533432,13.1216772 C16.1559159,12.0598775 13.6640136,11.4061115 11.7695929,11.4061115 Z" id="路径" stroke="#000000" stroke-width="1.5" fill="#774F4B" fill-rule="nonzero"></path>
            <circle id="椭圆形" fill="#000000" fill-rule="nonzero" cx="24.4421143" cy="26.8430246" r="1.63187924"></circle>
            <circle id="椭圆形" fill="#000000" fill-rule="nonzero" cx="11.3870804" cy="26.8430246" r="1.63187924"></circle>
            <path d="M19.5464766,37.4419068 C19.0400403,37.4419068 18.4960806,37.6731351 17.9145974,38.1355918 C17.3844549,37.6731351 16.855987,37.4419068 16.3291937,37.4419068 C15.5390036,37.4419068 13.5497325,37.9431189 13.5497325,40.0592799 C13.5497325,42.2256407 15.5077139,43.9879588 17.9145974,43.9879588 C20.3214808,43.9879588 22.2794622,42.2256407 22.2794622,40.0592799 C22.2794622,37.9293249 20.306131,37.4419068 19.5464766,37.4419068 Z" id="路径" fill="#000000" fill-rule="nonzero"></path>
        </g>
    </g>
</svg>