<?xml version="1.0" encoding="UTF-8"?>
<svg width="64px" height="64px" viewBox="0 0 64 64" version="1.1" xmlns="http://www.w3.org/2000/svg" xmlns:xlink="http://www.w3.org/1999/xlink">
    <!-- Generator: Sketch 49.1 (51147) - http://www.bohemiancoding.com/sketch -->
    <title>swim</title>
    <desc>Created with Sketch.</desc>
    <defs>
        <path d="M3.18181818,0 L5.14675325,1.33226763e-15 C6.90402291,1.00946243e-15 8.32857143,1.42454852 8.32857143,3.18181818 L8.32857143,3.18181818 C8.32857143,4.93908784 6.90402291,6.36363636 5.14675325,6.36363636 L3.18181818,6.36363636 C1.42454852,6.36363636 2.15203466e-16,4.93908784 0,3.18181818 L0,3.18181818 C-2.15203466e-16,1.42454852 1.42454852,7.66894409e-16 3.18181818,4.4408921e-16 Z" id="path-1"></path>
        <path d="M13.3961039,0 L15.361039,1.33226763e-15 C17.1183086,1.00946243e-15 18.5428571,1.42454852 18.5428571,3.18181818 L18.5428571,3.18181818 C18.5428571,4.93908784 17.1183086,6.36363636 15.361039,6.36363636 L13.3961039,6.36363636 C11.6388342,6.36363636 10.2142857,4.93908784 10.2142857,3.18181818 L10.2142857,3.18181818 C10.2142857,1.42454852 11.6388342,7.66894409e-16 13.3961039,4.4408921e-16 Z" id="path-2"></path>
    </defs>
    <g id="swim" stroke="none" stroke-width="1" fill="none" fill-rule="evenodd">
        <rect id="Rectangle" x="0" y="0" width="64" height="64"></rect>
        <g id="Group-4" transform="translate(1.666667, 10.000000)">
            <path d="M8.30902197,25.0872851 C11.2142638,22.2147611 15.3276755,19.8231816 19.1053642,18.6523509 C18.6812726,17.3359567 18.4520458,15.9307878 18.4520458,14.4717251 C18.4520458,7.02392573 24.4247836,0.980382069 31.8,0.980382069 C39.1752164,0.980382069 45.1479542,7.02392573 45.1479542,14.4717251 C45.1479542,17.6740868 44.0437274,20.6168327 42.1985762,22.9311733 C44.4915443,23.8445123 46.8365256,24.8552498 49.1611878,25.9409039 C50.215636,25.3662876 51.4199755,25.0400009 52.7,25.0400009 C56.7319871,25.0400009 60.0202446,28.2800243 60.1352869,32.3297306 C60.1403255,32.3846965 60.1428571,32.4399874 60.1428571,32.4954553 C60.1428571,33.4843184 59.3461423,34.2909099 58.3571429,34.2909099 C57.3681434,34.2909099 56.5714286,33.4843184 56.5714286,32.4954553 C56.5720721,32.4505541 56.5723456,32.43147 56.5735154,32.4086462 C56.5012318,30.287308 54.7874026,28.6025009 52.7,28.6025009 C50.5631786,28.6025009 48.8241071,30.3655164 48.8241071,32.5485236 L48.8241071,33.5485236 C48.2468352,37.198409 45.1421901,40.0085227 41.3857143,40.0085227 C37.2937097,40.0085227 33.9753977,36.6740704 33.9474752,32.5455108 C33.9473621,30.5344458 32.4714833,28.8798434 30.5684228,28.6316059 C30.2688208,28.6279948 29.9647238,28.6247416 29.656132,28.6218461 C27.7137768,28.8327391 26.1955342,30.506199 26.1955125,32.5522662 C26.1674354,36.6741148 22.8491128,40.0085227 18.7571429,40.0085227 C14.6651383,40.0085227 11.3468263,36.6740704 11.3189038,32.5455108 C11.318781,30.36245 9.579669,28.5994318 7.44285714,28.5994318 C5.35478606,28.5994318 3.64064388,30.2852733 3.56928009,32.4074012 C3.57049052,32.4306267 3.57076871,32.4498521 3.57142857,32.4954553 C3.57142857,33.4843184 2.77471373,34.2909099 1.78571429,34.2909099 C0.796714846,34.2909099 2.13162821e-14,33.4843184 2.13162821e-14,32.4954553 C2.13162821e-14,32.4404476 0.00248976348,32.3856138 0.00744545905,32.331098 C0.120199116,28.2794967 3.40923292,25.0369318 7.44285714,25.0369318 C7.73585332,25.0369318 8.02488289,25.0540271 8.30902197,25.0872851 Z M45.9503886,29.3132652 L45.1479542,29.7690972 C44.1487156,29.2866503 41.2667617,28.9540682 36.5020924,28.7713508 C37.1346873,29.8677317 37.5004755,31.1408071 37.5096676,32.4999437 C37.5097904,34.6830046 39.2489024,36.4460227 41.3857143,36.4460227 C43.5225357,36.4460227 45.2616071,34.6830073 45.2616071,32.5 L45.2616071,31.5 C45.3838333,30.7272075 45.6193612,29.9920618 45.9503886,29.3132652 Z M23.7366484,28.6079166 C20.7455004,28.6188259 17.4466717,28.6542267 13.8401624,28.7141189 C14.4932416,29.823329 14.8717436,31.1170908 14.8810962,32.4999437 C14.881219,34.6830046 16.620331,36.4460227 18.7571429,36.4460227 C20.8939643,36.4460227 22.6330357,34.6830073 22.6330589,32.4931884 C22.6427596,31.0690856 23.0452199,29.7389803 23.7366484,28.6079166 Z" id="Combined-Shape" fill="#FFFFFF"></path>
            <g id="Group-2" transform="translate(19.857143, 2.000000)">
                <path d="M11.9428571,9.04614513 C17.254999,9.04614513 20.5698133,10.4630918 23.5095613,12.5669291 C23.5095613,6.0470436 18.3309715,0.761632069 11.9428571,0.761632069 C5.55474283,0.761632069 0.376152981,6.0470436 0.376152981,12.5669291 C2.33922484,10.5362851 6.63071531,9.04614513 11.9428571,9.04614513 Z" id="Oval-28" fill="#94E8F4" transform="translate(11.942857, 6.664281) rotate(3.000000) translate(-11.942857, -6.664281) "></path>
                <ellipse id="Oval-28" stroke="#2B2B2B" stroke-width="1.5625" cx="11.9428571" cy="12.4717251" rx="11.5667042" ry="11.7100931"></ellipse>
            </g>
            <path d="M9.01428571,26.7356169 C13.0443457,22.5113553 19.900954,19.5260933 23.9078093,19.663656 C27.9146646,19.8012188 37.741069,22.3239613 49.5542662,28.0186121 C46.0835122,29.2984947 47.6159823,32.1345659 45.641008,35.7984835 C43.6660337,39.462401 37.5695466,36.5638787 37.5695466,36.5638787 L34.9253627,29.4711726 L30.1124773,26.7356169 L24.4251259,30.6653148 L22.8979013,36.1629136 L17.9960172,37.6142004 L14.0579427,35.4550781 L11.8594133,29.4711726 C11.8594133,29.4711726 10.9953374,27.1825091 9.01428571,26.7356169 Z" id="Path-28" fill="#FFEECF"></path>
            <path d="M9.17142857,26.7511051 C13.2039833,22.5175979 19.882401,19.5258022 23.8917367,19.663666 C27.9010724,19.8015299 37.4446809,22.2954896 49.265191,28.0026042" id="Path-28" stroke="#2B2B2B" stroke-width="1.5625" fill="#FFEECF"></path>
            <g id="Group" transform="translate(32.828571, 32.522727) scale(-1, 1) translate(-32.828571, -32.522727) translate(14.328571, 26.022727)" fill="#FFFFFF">
                <path d="M30.9625811,4.38522785 C30.9872821,4.58669168 31,4.79186063 31,5 C31,5.04417792 30.9994271,5.08822202 30.9982882,5.13212527 C31.3073064,7.99990636 33.7091236,10.231711 36.6262249,10.231711 C34.6742746,12.6877762 29.429108,12.5408008 27.9790449,9.59305468 C27.3721223,9.85491525 26.6471478,2.51633523 23.0968026,0.928717129 C23.9152718,0.34402801 24.9174599,0 26,0 C28.348616,0 30.3190221,1.61930931 30.8556519,3.80236164 C30.916101,3.94492581 30.953608,4.13731503 30.9625811,4.38522785 Z M14.2378596,10.8683318 C11.2858292,12.2926992 5.68600909,13.6909946 4.19423154,7.15217183 C4.10087674,6.74297507 4.03770066,6.36452885 4.00129177,6.01536212 C3.13410743,3.83925781 1.51256721,1.6467627 0.539186052,1.21065674 C1.4013075,0.632989596 2.4351675,0.296576638 3.54669927,0.296576638 C6.5584741,0.296576638 9,2.76644581 9,5.81318384 C9,5.8745585 8.99557414,5.9346968 8.98690074,5.99359875 C9.41530949,8.72722068 11.4150942,10.8683318 14.2378596,10.8683318 Z" id="Combined-Shape"></path>
            </g>
            <path d="M57.5744171,32.425594 C57.5100793,29.7487569 55.3502627,27.6025009 52.7,27.6025009 C50.009288,27.6025009 47.8241071,29.8147708 47.8241071,32.5485236 L47.8239319,32.5485236 C47.7981338,36.1186401 44.9276765,39.0085227 41.3857143,39.0085227 C37.8427371,39.0085227 34.9716499,36.1169838 34.9474752,32.5454545 C34.9473214,29.8117017 32.7621406,27.5994318 30.0714286,27.5994318 C27.3807166,27.5994318 25.1955357,29.8117017 25.1955357,32.5454545 C25.1712073,36.1169838 22.30012,39.0085227 18.7571429,39.0085227 C15.2141657,39.0085227 12.3430784,36.1169838 12.3189038,32.5454545 C12.31875,29.8117017 10.1335691,27.5994318 7.44285714,27.5994318 C4.79180043,27.5994318 2.63148378,29.7469741 2.5683828,32.4249309 C2.57039909,32.4481668 2.57142857,32.4716893 2.57142857,32.4954553 C2.57142857,32.9347727 2.2196523,33.2909099 1.78571429,33.2909099 C1.35177627,33.2909099 1,32.9347727 1,32.4954553 C1,32.4616125 1.00208757,32.4282634 1.00613946,32.3955327 C1.0849485,28.8722555 3.93448911,26.0369318 7.44285714,26.0369318 C10.9858343,26.0369318 13.8569216,28.9284708 13.8810962,32.5 C13.88125,35.2337528 16.0664309,37.4460227 18.7571429,37.4460227 C21.4478548,37.4460227 23.6330357,35.2337528 23.6330357,32.5 C23.6573641,28.9284708 26.5284514,26.0369318 30.0714286,26.0369318 C33.6144057,26.0369318 36.485493,28.9284708 36.5096676,32.5 C36.5098214,35.2337528 38.6950023,37.4460227 41.3857143,37.4460227 C44.0764263,37.4460227 46.2616071,35.2337528 46.2616071,32.5 L46.2617824,32.5 C46.2875805,28.9298835 49.1580378,26.0400009 52.7,26.0400009 C56.2071221,26.0400009 59.0558846,28.8733111 59.1366327,32.3948484 C59.1407404,32.4277985 59.1428571,32.4613767 59.1428571,32.4954553 C59.1428571,32.9347727 58.7910809,33.2909099 58.3571429,33.2909099 C57.9232048,33.2909099 57.5714286,32.9347727 57.5714286,32.4954553 C57.5714286,32.4719154 57.5724386,32.4486143 57.5744171,32.425594 Z" id="Combined-Shape" fill="#2B2B2B" fill-rule="nonzero"></path>
            <g id="Group-3" transform="translate(36.849152, 17.276011) rotate(15.000000) translate(-36.849152, -17.276011) translate(27.515818, 13.942678)">
                <g id="Rectangle-48">
                    <use fill="#BDCFD1" fill-rule="evenodd" xlink:href="#path-1"></use>
                    <path stroke="#2B2B2B" stroke-width="1.5625" d="M3.18181818,0.78125 C1.85602098,0.78125 0.78125,1.85602098 0.78125,3.18181818 C0.78125,4.50761538 1.85602098,5.58238636 3.18181818,5.58238636 L5.14675325,5.58238636 C6.47255044,5.58238636 7.54732143,4.50761538 7.54732143,3.18181818 C7.54732143,1.85602098 6.47255044,0.78125 5.14675325,0.78125 L3.18181818,0.78125 Z"></path>
                </g>
                <g id="Rectangle-48-Copy">
                    <use fill="#BDCFD1" fill-rule="evenodd" xlink:href="#path-2"></use>
                    <path stroke="#2B2B2B" stroke-width="1.5625" d="M13.3961039,0.78125 C12.0703067,0.78125 10.9955357,1.85602098 10.9955357,3.18181818 C10.9955357,4.50761538 12.0703067,5.58238636 13.3961039,5.58238636 L15.361039,5.58238636 C16.6868362,5.58238636 17.7616071,4.50761538 17.7616071,3.18181818 C17.7616071,1.85602098 16.6868362,0.78125 15.361039,0.78125 L13.3961039,0.78125 Z"></path>
                </g>
                <rect id="Rectangle-49" fill="#2B2B2B" x="7.54285714" y="2.38636364" width="2.98571429" height="1.59090909"></rect>
            </g>
        </g>
    </g>
</svg>