<?xml version="1.0" encoding="UTF-8"?>
<svg width="16px" height="16px" viewBox="0 0 16 16" version="1.1" xmlns="http://www.w3.org/2000/svg" xmlns:xlink="http://www.w3.org/1999/xlink">
    <g id="ic_label_tab" stroke="none" stroke-width="1" fill="none" fill-rule="evenodd">
        <rect id="矩形" x="0" y="0" width="16" height="16"></rect>
        <path d="M9.49633099,1.09456632 L12.8599987,1.26643255 C13.8843035,1.3187693 14.7029997,2.13746549 14.7553364,3.16177032 L14.9272027,6.52543799 C14.9560799,7.09060593 14.7441772,7.6415528 14.3440218,8.0417082 L7.94568754,14.4400425 C7.16463895,15.2210911 5.898309,15.2210911 5.11726041,14.4400425 L1.58172651,10.9045086 C0.800677923,10.12346 0.800677923,8.85713003 1.58172651,8.07608145 L7.98006078,1.67774717 C8.38021619,1.27759177 8.93116305,1.06568913 9.49633099,1.09456632 Z M9.41468568,2.69248185 C9.32991048,2.68815027 9.24673516,2.71090642 9.17668284,2.75631834 L9.11143163,2.80911802 L2.71309736,9.2074523 C2.57641385,9.3441358 2.55932842,9.55512801 2.66184104,9.71038869 L2.71309736,9.77313772 L6.24863126,13.3086716 C6.38531476,13.4453551 6.59630698,13.4624406 6.75156766,13.3599279 L6.81431669,13.3086716 L13.212651,6.91033735 C13.2726743,6.85031404 13.3115191,6.77332669 13.3247536,6.69089843 L13.3292871,6.60708331 L13.1574209,3.24341564 C13.1484489,3.06782052 13.026869,2.92243729 12.8633063,2.87789111 L12.7783533,2.86434808 L9.41468568,2.69248185 Z M10.4142136,4.17157288 C10.8047379,3.78104858 11.4379028,3.78104858 11.8284271,4.17157288 C12.2189514,4.56209717 12.2189514,5.19526215 11.8284271,5.58578644 C11.4379028,5.97631073 10.8047379,5.97631073 10.4142136,5.58578644 C10.0236893,5.19526215 10.0236893,4.56209717 10.4142136,4.17157288 Z" id="形状" fill="#000000" fill-rule="nonzero"></path>
    </g>
</svg>