<?xml version="1.0" encoding="UTF-8"?>
<svg width="48px" height="48px" viewBox="0 0 48 48" version="1.1" xmlns="http://www.w3.org/2000/svg" xmlns:xlink="http://www.w3.org/1999/xlink">
    <!-- Generator: Sketch Beta 52 (65972) - http://www.bohemiancoding.com/sketch -->
    <title>relationship-line-pattern-dot-popover</title>
    <desc>Created with Sketch Beta.</desc>
    <g id="relationship-line-pattern-dot-popover" stroke="none" stroke-width="1" fill="none" fill-rule="evenodd">
        <path d="M13,25 L13,22 L15,22 L15,25 L13,25 Z M17,25 L17,22 L19,22 L19,25 L17,25 Z M21,25 L21,22 L23,22 L23,25 L21,25 Z M25,25 L25,22 L27,22 L27,25 L25,25 Z M29,25 L29,22 L31,22 L31,25 L29,25 Z M33,25 L33,22 L35,22 L35,25 L33,25 Z" id="-" fill="#50A7FD" fill-rule="nonzero"></path>
    </g>
</svg>